%TF.GenerationSoftware,KiCad,Pcbnew,5.1.0-unknown-e90452d~82~ubuntu18.04.1*%
%TF.CreationDate,2019-04-11T14:53:50-04:00*%
%TF.ProjectId,stepper_controller_5x3,73746570-7065-4725-9f63-6f6e74726f6c,1.3*%
%TF.SameCoordinates,Original*%
%TF.FileFunction,Legend,Top*%
%TF.FilePolarity,Positive*%
%FSLAX46Y46*%
G04 Gerber Fmt 4.6, Leading zero omitted, Abs format (unit mm)*
G04 Created by KiCad (PCBNEW 5.1.0-unknown-e90452d~82~ubuntu18.04.1) date 2019-04-11 14:53:50*
%MOMM*%
%LPD*%
G04 APERTURE LIST*
%ADD10C,0.254000*%
%ADD11C,0.190500*%
%ADD12C,0.508000*%
%ADD13C,0.228600*%
%ADD14C,0.381000*%
%ADD15C,0.250000*%
%ADD16C,0.375000*%
%ADD17O,2.032000X3.048000*%
%ADD18C,0.100000*%
%ADD19C,3.400001*%
%ADD20O,1.854200X2.540000*%
%ADD21C,3.556000*%
%ADD22R,1.854200X2.540000*%
%ADD23O,5.080000X3.556000*%
%ADD24O,4.064000X5.080000*%
%ADD25O,4.572000X3.556000*%
%ADD26C,1.930400*%
%ADD27O,1.524000X2.540000*%
%ADD28R,2.000000X4.100000*%
%ADD29C,2.540000*%
%ADD30C,2.340000*%
G04 APERTURE END LIST*
D10*
X80451476Y-115013619D02*
X79967666Y-115013619D01*
X79919285Y-115497428D01*
X79967666Y-115449047D01*
X80064428Y-115400666D01*
X80306333Y-115400666D01*
X80403095Y-115449047D01*
X80451476Y-115497428D01*
X80499857Y-115594190D01*
X80499857Y-115836095D01*
X80451476Y-115932857D01*
X80403095Y-115981238D01*
X80306333Y-116029619D01*
X80064428Y-116029619D01*
X79967666Y-115981238D01*
X79919285Y-115932857D01*
X80790142Y-115013619D02*
X81128809Y-116029619D01*
X81467476Y-115013619D01*
D11*
X170996428Y-136837964D02*
X170996428Y-136075964D01*
X171177857Y-136075964D01*
X171286714Y-136112250D01*
X171359285Y-136184821D01*
X171395571Y-136257392D01*
X171431857Y-136402535D01*
X171431857Y-136511392D01*
X171395571Y-136656535D01*
X171359285Y-136729107D01*
X171286714Y-136801678D01*
X171177857Y-136837964D01*
X170996428Y-136837964D01*
X171758428Y-136837964D02*
X171758428Y-136329964D01*
X171758428Y-136075964D02*
X171722142Y-136112250D01*
X171758428Y-136148535D01*
X171794714Y-136112250D01*
X171758428Y-136075964D01*
X171758428Y-136148535D01*
X172085000Y-136801678D02*
X172157571Y-136837964D01*
X172302714Y-136837964D01*
X172375285Y-136801678D01*
X172411571Y-136729107D01*
X172411571Y-136692821D01*
X172375285Y-136620250D01*
X172302714Y-136583964D01*
X172193857Y-136583964D01*
X172121285Y-136547678D01*
X172085000Y-136475107D01*
X172085000Y-136438821D01*
X172121285Y-136366250D01*
X172193857Y-136329964D01*
X172302714Y-136329964D01*
X172375285Y-136366250D01*
X173064714Y-136801678D02*
X172992142Y-136837964D01*
X172847000Y-136837964D01*
X172774428Y-136801678D01*
X172738142Y-136765392D01*
X172701857Y-136692821D01*
X172701857Y-136475107D01*
X172738142Y-136402535D01*
X172774428Y-136366250D01*
X172847000Y-136329964D01*
X172992142Y-136329964D01*
X173064714Y-136366250D01*
X173500142Y-136837964D02*
X173427571Y-136801678D01*
X173391285Y-136765392D01*
X173355000Y-136692821D01*
X173355000Y-136475107D01*
X173391285Y-136402535D01*
X173427571Y-136366250D01*
X173500142Y-136329964D01*
X173609000Y-136329964D01*
X173681571Y-136366250D01*
X173717857Y-136402535D01*
X173754142Y-136475107D01*
X173754142Y-136692821D01*
X173717857Y-136765392D01*
X173681571Y-136801678D01*
X173609000Y-136837964D01*
X173500142Y-136837964D01*
X174080714Y-136329964D02*
X174080714Y-136837964D01*
X174080714Y-136402535D02*
X174117000Y-136366250D01*
X174189571Y-136329964D01*
X174298428Y-136329964D01*
X174371000Y-136366250D01*
X174407285Y-136438821D01*
X174407285Y-136837964D01*
X174770142Y-136329964D02*
X174770142Y-136837964D01*
X174770142Y-136402535D02*
X174806428Y-136366250D01*
X174879000Y-136329964D01*
X174987857Y-136329964D01*
X175060428Y-136366250D01*
X175096714Y-136438821D01*
X175096714Y-136837964D01*
X175749857Y-136801678D02*
X175677285Y-136837964D01*
X175532142Y-136837964D01*
X175459571Y-136801678D01*
X175423285Y-136729107D01*
X175423285Y-136438821D01*
X175459571Y-136366250D01*
X175532142Y-136329964D01*
X175677285Y-136329964D01*
X175749857Y-136366250D01*
X175786142Y-136438821D01*
X175786142Y-136511392D01*
X175423285Y-136583964D01*
X176439285Y-136801678D02*
X176366714Y-136837964D01*
X176221571Y-136837964D01*
X176149000Y-136801678D01*
X176112714Y-136765392D01*
X176076428Y-136692821D01*
X176076428Y-136475107D01*
X176112714Y-136402535D01*
X176149000Y-136366250D01*
X176221571Y-136329964D01*
X176366714Y-136329964D01*
X176439285Y-136366250D01*
X176657000Y-136329964D02*
X176947285Y-136329964D01*
X176765857Y-136075964D02*
X176765857Y-136729107D01*
X176802142Y-136801678D01*
X176874714Y-136837964D01*
X176947285Y-136837964D01*
X177781857Y-136837964D02*
X177781857Y-136075964D01*
X178035857Y-136620250D01*
X178289857Y-136075964D01*
X178289857Y-136837964D01*
X178761571Y-136837964D02*
X178689000Y-136801678D01*
X178652714Y-136765392D01*
X178616428Y-136692821D01*
X178616428Y-136475107D01*
X178652714Y-136402535D01*
X178689000Y-136366250D01*
X178761571Y-136329964D01*
X178870428Y-136329964D01*
X178943000Y-136366250D01*
X178979285Y-136402535D01*
X179015571Y-136475107D01*
X179015571Y-136692821D01*
X178979285Y-136765392D01*
X178943000Y-136801678D01*
X178870428Y-136837964D01*
X178761571Y-136837964D01*
X179233285Y-136329964D02*
X179523571Y-136329964D01*
X179342142Y-136075964D02*
X179342142Y-136729107D01*
X179378428Y-136801678D01*
X179451000Y-136837964D01*
X179523571Y-136837964D01*
X179886428Y-136837964D02*
X179813857Y-136801678D01*
X179777571Y-136765392D01*
X179741285Y-136692821D01*
X179741285Y-136475107D01*
X179777571Y-136402535D01*
X179813857Y-136366250D01*
X179886428Y-136329964D01*
X179995285Y-136329964D01*
X180067857Y-136366250D01*
X180104142Y-136402535D01*
X180140428Y-136475107D01*
X180140428Y-136692821D01*
X180104142Y-136765392D01*
X180067857Y-136801678D01*
X179995285Y-136837964D01*
X179886428Y-136837964D01*
X180467000Y-136837964D02*
X180467000Y-136329964D01*
X180467000Y-136475107D02*
X180503285Y-136402535D01*
X180539571Y-136366250D01*
X180612142Y-136329964D01*
X180684714Y-136329964D01*
X181519285Y-136837964D02*
X181519285Y-136075964D01*
X181700714Y-136075964D01*
X181809571Y-136112250D01*
X181882142Y-136184821D01*
X181918428Y-136257392D01*
X181954714Y-136402535D01*
X181954714Y-136511392D01*
X181918428Y-136656535D01*
X181882142Y-136729107D01*
X181809571Y-136801678D01*
X181700714Y-136837964D01*
X181519285Y-136837964D01*
X182281285Y-136837964D02*
X182281285Y-136329964D01*
X182281285Y-136475107D02*
X182317571Y-136402535D01*
X182353857Y-136366250D01*
X182426428Y-136329964D01*
X182499000Y-136329964D01*
X182753000Y-136837964D02*
X182753000Y-136329964D01*
X182753000Y-136075964D02*
X182716714Y-136112250D01*
X182753000Y-136148535D01*
X182789285Y-136112250D01*
X182753000Y-136075964D01*
X182753000Y-136148535D01*
X183043285Y-136329964D02*
X183224714Y-136837964D01*
X183406142Y-136329964D01*
X183986714Y-136801678D02*
X183914142Y-136837964D01*
X183769000Y-136837964D01*
X183696428Y-136801678D01*
X183660142Y-136729107D01*
X183660142Y-136438821D01*
X183696428Y-136366250D01*
X183769000Y-136329964D01*
X183914142Y-136329964D01*
X183986714Y-136366250D01*
X184023000Y-136438821D01*
X184023000Y-136511392D01*
X183660142Y-136583964D01*
X184349571Y-136837964D02*
X184349571Y-136329964D01*
X184349571Y-136475107D02*
X184385857Y-136402535D01*
X184422142Y-136366250D01*
X184494714Y-136329964D01*
X184567285Y-136329964D01*
X185401857Y-136837964D02*
X185401857Y-136075964D01*
X185692142Y-136075964D01*
X185764714Y-136112250D01*
X185801000Y-136148535D01*
X185837285Y-136221107D01*
X185837285Y-136329964D01*
X185801000Y-136402535D01*
X185764714Y-136438821D01*
X185692142Y-136475107D01*
X185401857Y-136475107D01*
X186272714Y-136837964D02*
X186200142Y-136801678D01*
X186163857Y-136765392D01*
X186127571Y-136692821D01*
X186127571Y-136475107D01*
X186163857Y-136402535D01*
X186200142Y-136366250D01*
X186272714Y-136329964D01*
X186381571Y-136329964D01*
X186454142Y-136366250D01*
X186490428Y-136402535D01*
X186526714Y-136475107D01*
X186526714Y-136692821D01*
X186490428Y-136765392D01*
X186454142Y-136801678D01*
X186381571Y-136837964D01*
X186272714Y-136837964D01*
X186780714Y-136329964D02*
X186925857Y-136837964D01*
X187071000Y-136475107D01*
X187216142Y-136837964D01*
X187361285Y-136329964D01*
X187941857Y-136801678D02*
X187869285Y-136837964D01*
X187724142Y-136837964D01*
X187651571Y-136801678D01*
X187615285Y-136729107D01*
X187615285Y-136438821D01*
X187651571Y-136366250D01*
X187724142Y-136329964D01*
X187869285Y-136329964D01*
X187941857Y-136366250D01*
X187978142Y-136438821D01*
X187978142Y-136511392D01*
X187615285Y-136583964D01*
X188304714Y-136837964D02*
X188304714Y-136329964D01*
X188304714Y-136475107D02*
X188341000Y-136402535D01*
X188377285Y-136366250D01*
X188449857Y-136329964D01*
X188522428Y-136329964D01*
X169490571Y-137772321D02*
X169599428Y-137808607D01*
X169635714Y-137844892D01*
X169672000Y-137917464D01*
X169672000Y-138026321D01*
X169635714Y-138098892D01*
X169599428Y-138135178D01*
X169526857Y-138171464D01*
X169236571Y-138171464D01*
X169236571Y-137409464D01*
X169490571Y-137409464D01*
X169563142Y-137445750D01*
X169599428Y-137482035D01*
X169635714Y-137554607D01*
X169635714Y-137627178D01*
X169599428Y-137699750D01*
X169563142Y-137736035D01*
X169490571Y-137772321D01*
X169236571Y-137772321D01*
X170288857Y-138135178D02*
X170216285Y-138171464D01*
X170071142Y-138171464D01*
X169998571Y-138135178D01*
X169962285Y-138062607D01*
X169962285Y-137772321D01*
X169998571Y-137699750D01*
X170071142Y-137663464D01*
X170216285Y-137663464D01*
X170288857Y-137699750D01*
X170325142Y-137772321D01*
X170325142Y-137844892D01*
X169962285Y-137917464D01*
X170542857Y-137663464D02*
X170833142Y-137663464D01*
X170651714Y-138171464D02*
X170651714Y-137518321D01*
X170688000Y-137445750D01*
X170760571Y-137409464D01*
X170833142Y-137409464D01*
X171196000Y-138171464D02*
X171123428Y-138135178D01*
X171087142Y-138098892D01*
X171050857Y-138026321D01*
X171050857Y-137808607D01*
X171087142Y-137736035D01*
X171123428Y-137699750D01*
X171196000Y-137663464D01*
X171304857Y-137663464D01*
X171377428Y-137699750D01*
X171413714Y-137736035D01*
X171450000Y-137808607D01*
X171450000Y-138026321D01*
X171413714Y-138098892D01*
X171377428Y-138135178D01*
X171304857Y-138171464D01*
X171196000Y-138171464D01*
X171776571Y-138171464D02*
X171776571Y-137663464D01*
X171776571Y-137808607D02*
X171812857Y-137736035D01*
X171849142Y-137699750D01*
X171921714Y-137663464D01*
X171994285Y-137663464D01*
X172538571Y-138135178D02*
X172466000Y-138171464D01*
X172320857Y-138171464D01*
X172248285Y-138135178D01*
X172212000Y-138062607D01*
X172212000Y-137772321D01*
X172248285Y-137699750D01*
X172320857Y-137663464D01*
X172466000Y-137663464D01*
X172538571Y-137699750D01*
X172574857Y-137772321D01*
X172574857Y-137844892D01*
X172212000Y-137917464D01*
X173482000Y-137409464D02*
X173482000Y-138026321D01*
X173518285Y-138098892D01*
X173554571Y-138135178D01*
X173627142Y-138171464D01*
X173772285Y-138171464D01*
X173844857Y-138135178D01*
X173881142Y-138098892D01*
X173917428Y-138026321D01*
X173917428Y-137409464D01*
X174280285Y-137663464D02*
X174280285Y-138171464D01*
X174280285Y-137736035D02*
X174316571Y-137699750D01*
X174389142Y-137663464D01*
X174498000Y-137663464D01*
X174570571Y-137699750D01*
X174606857Y-137772321D01*
X174606857Y-138171464D01*
X174969714Y-137663464D02*
X174969714Y-138425464D01*
X174969714Y-137699750D02*
X175042285Y-137663464D01*
X175187428Y-137663464D01*
X175260000Y-137699750D01*
X175296285Y-137736035D01*
X175332571Y-137808607D01*
X175332571Y-138026321D01*
X175296285Y-138098892D01*
X175260000Y-138135178D01*
X175187428Y-138171464D01*
X175042285Y-138171464D01*
X174969714Y-138135178D01*
X175768000Y-138171464D02*
X175695428Y-138135178D01*
X175659142Y-138062607D01*
X175659142Y-137409464D01*
X176384857Y-137663464D02*
X176384857Y-138171464D01*
X176058285Y-137663464D02*
X176058285Y-138062607D01*
X176094571Y-138135178D01*
X176167142Y-138171464D01*
X176276000Y-138171464D01*
X176348571Y-138135178D01*
X176384857Y-138098892D01*
X177074285Y-137663464D02*
X177074285Y-138280321D01*
X177038000Y-138352892D01*
X177001714Y-138389178D01*
X176929142Y-138425464D01*
X176820285Y-138425464D01*
X176747714Y-138389178D01*
X177074285Y-138135178D02*
X177001714Y-138171464D01*
X176856571Y-138171464D01*
X176784000Y-138135178D01*
X176747714Y-138098892D01*
X176711428Y-138026321D01*
X176711428Y-137808607D01*
X176747714Y-137736035D01*
X176784000Y-137699750D01*
X176856571Y-137663464D01*
X177001714Y-137663464D01*
X177074285Y-137699750D01*
X177763714Y-137663464D02*
X177763714Y-138280321D01*
X177727428Y-138352892D01*
X177691142Y-138389178D01*
X177618571Y-138425464D01*
X177509714Y-138425464D01*
X177437142Y-138389178D01*
X177763714Y-138135178D02*
X177691142Y-138171464D01*
X177546000Y-138171464D01*
X177473428Y-138135178D01*
X177437142Y-138098892D01*
X177400857Y-138026321D01*
X177400857Y-137808607D01*
X177437142Y-137736035D01*
X177473428Y-137699750D01*
X177546000Y-137663464D01*
X177691142Y-137663464D01*
X177763714Y-137699750D01*
X178126571Y-138171464D02*
X178126571Y-137663464D01*
X178126571Y-137409464D02*
X178090285Y-137445750D01*
X178126571Y-137482035D01*
X178162857Y-137445750D01*
X178126571Y-137409464D01*
X178126571Y-137482035D01*
X178489428Y-137663464D02*
X178489428Y-138171464D01*
X178489428Y-137736035D02*
X178525714Y-137699750D01*
X178598285Y-137663464D01*
X178707142Y-137663464D01*
X178779714Y-137699750D01*
X178816000Y-137772321D01*
X178816000Y-138171464D01*
X179505428Y-137663464D02*
X179505428Y-138280321D01*
X179469142Y-138352892D01*
X179432857Y-138389178D01*
X179360285Y-138425464D01*
X179251428Y-138425464D01*
X179178857Y-138389178D01*
X179505428Y-138135178D02*
X179432857Y-138171464D01*
X179287714Y-138171464D01*
X179215142Y-138135178D01*
X179178857Y-138098892D01*
X179142571Y-138026321D01*
X179142571Y-137808607D01*
X179178857Y-137736035D01*
X179215142Y-137699750D01*
X179287714Y-137663464D01*
X179432857Y-137663464D01*
X179505428Y-137699750D01*
X180448857Y-138171464D02*
X180448857Y-137409464D01*
X180702857Y-137953750D01*
X180956857Y-137409464D01*
X180956857Y-138171464D01*
X181428571Y-138171464D02*
X181356000Y-138135178D01*
X181319714Y-138098892D01*
X181283428Y-138026321D01*
X181283428Y-137808607D01*
X181319714Y-137736035D01*
X181356000Y-137699750D01*
X181428571Y-137663464D01*
X181537428Y-137663464D01*
X181610000Y-137699750D01*
X181646285Y-137736035D01*
X181682571Y-137808607D01*
X181682571Y-138026321D01*
X181646285Y-138098892D01*
X181610000Y-138135178D01*
X181537428Y-138171464D01*
X181428571Y-138171464D01*
X181900285Y-137663464D02*
X182190571Y-137663464D01*
X182009142Y-137409464D02*
X182009142Y-138062607D01*
X182045428Y-138135178D01*
X182118000Y-138171464D01*
X182190571Y-138171464D01*
X182553428Y-138171464D02*
X182480857Y-138135178D01*
X182444571Y-138098892D01*
X182408285Y-138026321D01*
X182408285Y-137808607D01*
X182444571Y-137736035D01*
X182480857Y-137699750D01*
X182553428Y-137663464D01*
X182662285Y-137663464D01*
X182734857Y-137699750D01*
X182771142Y-137736035D01*
X182807428Y-137808607D01*
X182807428Y-138026321D01*
X182771142Y-138098892D01*
X182734857Y-138135178D01*
X182662285Y-138171464D01*
X182553428Y-138171464D01*
X183134000Y-138171464D02*
X183134000Y-137663464D01*
X183134000Y-137808607D02*
X183170285Y-137736035D01*
X183206571Y-137699750D01*
X183279142Y-137663464D01*
X183351714Y-137663464D01*
X184621714Y-138098892D02*
X184585428Y-138135178D01*
X184476571Y-138171464D01*
X184404000Y-138171464D01*
X184295142Y-138135178D01*
X184222571Y-138062607D01*
X184186285Y-137990035D01*
X184150000Y-137844892D01*
X184150000Y-137736035D01*
X184186285Y-137590892D01*
X184222571Y-137518321D01*
X184295142Y-137445750D01*
X184404000Y-137409464D01*
X184476571Y-137409464D01*
X184585428Y-137445750D01*
X184621714Y-137482035D01*
X185057142Y-138171464D02*
X184984571Y-138135178D01*
X184948285Y-138098892D01*
X184912000Y-138026321D01*
X184912000Y-137808607D01*
X184948285Y-137736035D01*
X184984571Y-137699750D01*
X185057142Y-137663464D01*
X185166000Y-137663464D01*
X185238571Y-137699750D01*
X185274857Y-137736035D01*
X185311142Y-137808607D01*
X185311142Y-138026321D01*
X185274857Y-138098892D01*
X185238571Y-138135178D01*
X185166000Y-138171464D01*
X185057142Y-138171464D01*
X185637714Y-137663464D02*
X185637714Y-138171464D01*
X185637714Y-137736035D02*
X185674000Y-137699750D01*
X185746571Y-137663464D01*
X185855428Y-137663464D01*
X185928000Y-137699750D01*
X185964285Y-137772321D01*
X185964285Y-138171464D01*
X186327142Y-137663464D02*
X186327142Y-138171464D01*
X186327142Y-137736035D02*
X186363428Y-137699750D01*
X186436000Y-137663464D01*
X186544857Y-137663464D01*
X186617428Y-137699750D01*
X186653714Y-137772321D01*
X186653714Y-138171464D01*
X187306857Y-138135178D02*
X187234285Y-138171464D01*
X187089142Y-138171464D01*
X187016571Y-138135178D01*
X186980285Y-138062607D01*
X186980285Y-137772321D01*
X187016571Y-137699750D01*
X187089142Y-137663464D01*
X187234285Y-137663464D01*
X187306857Y-137699750D01*
X187343142Y-137772321D01*
X187343142Y-137844892D01*
X186980285Y-137917464D01*
X187996285Y-138135178D02*
X187923714Y-138171464D01*
X187778571Y-138171464D01*
X187706000Y-138135178D01*
X187669714Y-138098892D01*
X187633428Y-138026321D01*
X187633428Y-137808607D01*
X187669714Y-137736035D01*
X187706000Y-137699750D01*
X187778571Y-137663464D01*
X187923714Y-137663464D01*
X187996285Y-137699750D01*
X188214000Y-137663464D02*
X188504285Y-137663464D01*
X188322857Y-137409464D02*
X188322857Y-138062607D01*
X188359142Y-138135178D01*
X188431714Y-138171464D01*
X188504285Y-138171464D01*
X188867142Y-138171464D02*
X188794571Y-138135178D01*
X188758285Y-138098892D01*
X188722000Y-138026321D01*
X188722000Y-137808607D01*
X188758285Y-137736035D01*
X188794571Y-137699750D01*
X188867142Y-137663464D01*
X188976000Y-137663464D01*
X189048571Y-137699750D01*
X189084857Y-137736035D01*
X189121142Y-137808607D01*
X189121142Y-138026321D01*
X189084857Y-138098892D01*
X189048571Y-138135178D01*
X188976000Y-138171464D01*
X188867142Y-138171464D01*
X189447714Y-138171464D02*
X189447714Y-137663464D01*
X189447714Y-137808607D02*
X189484000Y-137736035D01*
X189520285Y-137699750D01*
X189592857Y-137663464D01*
X189665428Y-137663464D01*
X189883142Y-138135178D02*
X189955714Y-138171464D01*
X190100857Y-138171464D01*
X190173428Y-138135178D01*
X190209714Y-138062607D01*
X190209714Y-138026321D01*
X190173428Y-137953750D01*
X190100857Y-137917464D01*
X189992000Y-137917464D01*
X189919428Y-137881178D01*
X189883142Y-137808607D01*
X189883142Y-137772321D01*
X189919428Y-137699750D01*
X189992000Y-137663464D01*
X190100857Y-137663464D01*
X190173428Y-137699750D01*
D10*
X180333952Y-113743619D02*
X180333952Y-112727619D01*
X180672619Y-113453333D01*
X181011285Y-112727619D01*
X181011285Y-113743619D01*
X181640238Y-113743619D02*
X181543476Y-113695238D01*
X181495095Y-113646857D01*
X181446714Y-113550095D01*
X181446714Y-113259809D01*
X181495095Y-113163047D01*
X181543476Y-113114666D01*
X181640238Y-113066285D01*
X181785380Y-113066285D01*
X181882142Y-113114666D01*
X181930523Y-113163047D01*
X181978904Y-113259809D01*
X181978904Y-113550095D01*
X181930523Y-113646857D01*
X181882142Y-113695238D01*
X181785380Y-113743619D01*
X181640238Y-113743619D01*
X182269190Y-113066285D02*
X182656238Y-113066285D01*
X182414333Y-112727619D02*
X182414333Y-113598476D01*
X182462714Y-113695238D01*
X182559476Y-113743619D01*
X182656238Y-113743619D01*
X183140047Y-113743619D02*
X183043285Y-113695238D01*
X182994904Y-113646857D01*
X182946523Y-113550095D01*
X182946523Y-113259809D01*
X182994904Y-113163047D01*
X183043285Y-113114666D01*
X183140047Y-113066285D01*
X183285190Y-113066285D01*
X183381952Y-113114666D01*
X183430333Y-113163047D01*
X183478714Y-113259809D01*
X183478714Y-113550095D01*
X183430333Y-113646857D01*
X183381952Y-113695238D01*
X183285190Y-113743619D01*
X183140047Y-113743619D01*
X183914142Y-113743619D02*
X183914142Y-113066285D01*
X183914142Y-113259809D02*
X183962523Y-113163047D01*
X184010904Y-113114666D01*
X184107666Y-113066285D01*
X184204428Y-113066285D01*
X185317190Y-113743619D02*
X185317190Y-112727619D01*
X185559095Y-112727619D01*
X185704238Y-112776000D01*
X185801000Y-112872761D01*
X185849380Y-112969523D01*
X185897761Y-113163047D01*
X185897761Y-113308190D01*
X185849380Y-113501714D01*
X185801000Y-113598476D01*
X185704238Y-113695238D01*
X185559095Y-113743619D01*
X185317190Y-113743619D01*
X186333190Y-113743619D02*
X186333190Y-113066285D01*
X186333190Y-113259809D02*
X186381571Y-113163047D01*
X186429952Y-113114666D01*
X186526714Y-113066285D01*
X186623476Y-113066285D01*
X186962142Y-113743619D02*
X186962142Y-113066285D01*
X186962142Y-112727619D02*
X186913761Y-112776000D01*
X186962142Y-112824380D01*
X187010523Y-112776000D01*
X186962142Y-112727619D01*
X186962142Y-112824380D01*
X187349190Y-113066285D02*
X187591095Y-113743619D01*
X187833000Y-113066285D01*
X188607095Y-113695238D02*
X188510333Y-113743619D01*
X188316809Y-113743619D01*
X188220047Y-113695238D01*
X188171666Y-113598476D01*
X188171666Y-113211428D01*
X188220047Y-113114666D01*
X188316809Y-113066285D01*
X188510333Y-113066285D01*
X188607095Y-113114666D01*
X188655476Y-113211428D01*
X188655476Y-113308190D01*
X188171666Y-113404952D01*
X189090904Y-113743619D02*
X189090904Y-113066285D01*
X189090904Y-113259809D02*
X189139285Y-113163047D01*
X189187666Y-113114666D01*
X189284428Y-113066285D01*
X189381190Y-113066285D01*
X182777190Y-115521619D02*
X182777190Y-114505619D01*
X183164238Y-114505619D01*
X183261000Y-114554000D01*
X183309380Y-114602380D01*
X183357761Y-114699142D01*
X183357761Y-114844285D01*
X183309380Y-114941047D01*
X183261000Y-114989428D01*
X183164238Y-115037809D01*
X182777190Y-115037809D01*
X183938333Y-115521619D02*
X183841571Y-115473238D01*
X183793190Y-115424857D01*
X183744809Y-115328095D01*
X183744809Y-115037809D01*
X183793190Y-114941047D01*
X183841571Y-114892666D01*
X183938333Y-114844285D01*
X184083476Y-114844285D01*
X184180238Y-114892666D01*
X184228619Y-114941047D01*
X184277000Y-115037809D01*
X184277000Y-115328095D01*
X184228619Y-115424857D01*
X184180238Y-115473238D01*
X184083476Y-115521619D01*
X183938333Y-115521619D01*
X184615666Y-114844285D02*
X184809190Y-115521619D01*
X185002714Y-115037809D01*
X185196238Y-115521619D01*
X185389761Y-114844285D01*
X186163857Y-115473238D02*
X186067095Y-115521619D01*
X185873571Y-115521619D01*
X185776809Y-115473238D01*
X185728428Y-115376476D01*
X185728428Y-114989428D01*
X185776809Y-114892666D01*
X185873571Y-114844285D01*
X186067095Y-114844285D01*
X186163857Y-114892666D01*
X186212238Y-114989428D01*
X186212238Y-115086190D01*
X185728428Y-115182952D01*
X186647666Y-115521619D02*
X186647666Y-114844285D01*
X186647666Y-115037809D02*
X186696047Y-114941047D01*
X186744428Y-114892666D01*
X186841190Y-114844285D01*
X186937952Y-114844285D01*
X182148238Y-116380380D02*
X182196619Y-116332000D01*
X182293380Y-116283619D01*
X182535285Y-116283619D01*
X182632047Y-116332000D01*
X182680428Y-116380380D01*
X182728809Y-116477142D01*
X182728809Y-116573904D01*
X182680428Y-116719047D01*
X182099857Y-117299619D01*
X182728809Y-117299619D01*
X183164238Y-117202857D02*
X183212619Y-117251238D01*
X183164238Y-117299619D01*
X183115857Y-117251238D01*
X183164238Y-117202857D01*
X183164238Y-117299619D01*
X184131857Y-116283619D02*
X183648047Y-116283619D01*
X183599666Y-116767428D01*
X183648047Y-116719047D01*
X183744809Y-116670666D01*
X183986714Y-116670666D01*
X184083476Y-116719047D01*
X184131857Y-116767428D01*
X184180238Y-116864190D01*
X184180238Y-117106095D01*
X184131857Y-117202857D01*
X184083476Y-117251238D01*
X183986714Y-117299619D01*
X183744809Y-117299619D01*
X183648047Y-117251238D01*
X183599666Y-117202857D01*
X184518904Y-117299619D02*
X185051095Y-116622285D01*
X184518904Y-116622285D02*
X185051095Y-117299619D01*
X185921952Y-116283619D02*
X185438142Y-116283619D01*
X185389761Y-116767428D01*
X185438142Y-116719047D01*
X185534904Y-116670666D01*
X185776809Y-116670666D01*
X185873571Y-116719047D01*
X185921952Y-116767428D01*
X185970333Y-116864190D01*
X185970333Y-117106095D01*
X185921952Y-117202857D01*
X185873571Y-117251238D01*
X185776809Y-117299619D01*
X185534904Y-117299619D01*
X185438142Y-117251238D01*
X185389761Y-117202857D01*
X186405761Y-117202857D02*
X186454142Y-117251238D01*
X186405761Y-117299619D01*
X186357380Y-117251238D01*
X186405761Y-117202857D01*
X186405761Y-117299619D01*
X187373380Y-116283619D02*
X186889571Y-116283619D01*
X186841190Y-116767428D01*
X186889571Y-116719047D01*
X186986333Y-116670666D01*
X187228238Y-116670666D01*
X187325000Y-116719047D01*
X187373380Y-116767428D01*
X187421761Y-116864190D01*
X187421761Y-117106095D01*
X187373380Y-117202857D01*
X187325000Y-117251238D01*
X187228238Y-117299619D01*
X186986333Y-117299619D01*
X186889571Y-117251238D01*
X186841190Y-117202857D01*
X182148238Y-118980857D02*
X182099857Y-119029238D01*
X181954714Y-119077619D01*
X181857952Y-119077619D01*
X181712809Y-119029238D01*
X181616047Y-118932476D01*
X181567666Y-118835714D01*
X181519285Y-118642190D01*
X181519285Y-118497047D01*
X181567666Y-118303523D01*
X181616047Y-118206761D01*
X181712809Y-118110000D01*
X181857952Y-118061619D01*
X181954714Y-118061619D01*
X182099857Y-118110000D01*
X182148238Y-118158380D01*
X182970714Y-119029238D02*
X182873952Y-119077619D01*
X182680428Y-119077619D01*
X182583666Y-119029238D01*
X182535285Y-118932476D01*
X182535285Y-118545428D01*
X182583666Y-118448666D01*
X182680428Y-118400285D01*
X182873952Y-118400285D01*
X182970714Y-118448666D01*
X183019095Y-118545428D01*
X183019095Y-118642190D01*
X182535285Y-118738952D01*
X183454523Y-118400285D02*
X183454523Y-119077619D01*
X183454523Y-118497047D02*
X183502904Y-118448666D01*
X183599666Y-118400285D01*
X183744809Y-118400285D01*
X183841571Y-118448666D01*
X183889952Y-118545428D01*
X183889952Y-119077619D01*
X184228619Y-118400285D02*
X184615666Y-118400285D01*
X184373761Y-118061619D02*
X184373761Y-118932476D01*
X184422142Y-119029238D01*
X184518904Y-119077619D01*
X184615666Y-119077619D01*
X185341380Y-119029238D02*
X185244619Y-119077619D01*
X185051095Y-119077619D01*
X184954333Y-119029238D01*
X184905952Y-118932476D01*
X184905952Y-118545428D01*
X184954333Y-118448666D01*
X185051095Y-118400285D01*
X185244619Y-118400285D01*
X185341380Y-118448666D01*
X185389761Y-118545428D01*
X185389761Y-118642190D01*
X184905952Y-118738952D01*
X185825190Y-119077619D02*
X185825190Y-118400285D01*
X185825190Y-118593809D02*
X185873571Y-118497047D01*
X185921952Y-118448666D01*
X186018714Y-118400285D01*
X186115476Y-118400285D01*
X187228238Y-118690571D02*
X188002333Y-118690571D01*
X187615285Y-119077619D02*
X187615285Y-118303523D01*
X180382333Y-120468571D02*
X181156428Y-120468571D01*
X180769380Y-120855619D02*
X180769380Y-120081523D01*
X182172428Y-120855619D02*
X181591857Y-120855619D01*
X181882142Y-120855619D02*
X181882142Y-119839619D01*
X181785380Y-119984761D01*
X181688619Y-120081523D01*
X181591857Y-120129904D01*
X182559476Y-119936380D02*
X182607857Y-119888000D01*
X182704619Y-119839619D01*
X182946523Y-119839619D01*
X183043285Y-119888000D01*
X183091666Y-119936380D01*
X183140047Y-120033142D01*
X183140047Y-120129904D01*
X183091666Y-120275047D01*
X182511095Y-120855619D01*
X183140047Y-120855619D01*
X183575476Y-120468571D02*
X184349571Y-120468571D01*
X184736619Y-119839619D02*
X185365571Y-119839619D01*
X185026904Y-120226666D01*
X185172047Y-120226666D01*
X185268809Y-120275047D01*
X185317190Y-120323428D01*
X185365571Y-120420190D01*
X185365571Y-120662095D01*
X185317190Y-120758857D01*
X185268809Y-120807238D01*
X185172047Y-120855619D01*
X184881761Y-120855619D01*
X184785000Y-120807238D01*
X184736619Y-120758857D01*
X185994523Y-119839619D02*
X186091285Y-119839619D01*
X186188047Y-119888000D01*
X186236428Y-119936380D01*
X186284809Y-120033142D01*
X186333190Y-120226666D01*
X186333190Y-120468571D01*
X186284809Y-120662095D01*
X186236428Y-120758857D01*
X186188047Y-120807238D01*
X186091285Y-120855619D01*
X185994523Y-120855619D01*
X185897761Y-120807238D01*
X185849380Y-120758857D01*
X185801000Y-120662095D01*
X185752619Y-120468571D01*
X185752619Y-120226666D01*
X185801000Y-120033142D01*
X185849380Y-119936380D01*
X185897761Y-119888000D01*
X185994523Y-119839619D01*
X186623476Y-119839619D02*
X186962142Y-120855619D01*
X187300809Y-119839619D01*
X187639476Y-120855619D02*
X187639476Y-119839619D01*
X187881380Y-119839619D01*
X188026523Y-119888000D01*
X188123285Y-119984761D01*
X188171666Y-120081523D01*
X188220047Y-120275047D01*
X188220047Y-120420190D01*
X188171666Y-120613714D01*
X188123285Y-120710476D01*
X188026523Y-120807238D01*
X187881380Y-120855619D01*
X187639476Y-120855619D01*
X189236047Y-120758857D02*
X189187666Y-120807238D01*
X189042523Y-120855619D01*
X188945761Y-120855619D01*
X188800619Y-120807238D01*
X188703857Y-120710476D01*
X188655476Y-120613714D01*
X188607095Y-120420190D01*
X188607095Y-120275047D01*
X188655476Y-120081523D01*
X188703857Y-119984761D01*
X188800619Y-119888000D01*
X188945761Y-119839619D01*
X189042523Y-119839619D01*
X189187666Y-119888000D01*
X189236047Y-119936380D01*
D12*
X98479428Y-108300761D02*
X98576190Y-108204000D01*
X98769714Y-108107238D01*
X99253523Y-108107238D01*
X99447047Y-108204000D01*
X99543809Y-108300761D01*
X99640571Y-108494285D01*
X99640571Y-108687809D01*
X99543809Y-108978095D01*
X98382666Y-110139238D01*
X99640571Y-110139238D01*
X132660571Y-110139238D02*
X131499428Y-110139238D01*
X132080000Y-110139238D02*
X132080000Y-108107238D01*
X131886476Y-108397523D01*
X131692952Y-108591047D01*
X131499428Y-108687809D01*
X165003238Y-108107238D02*
X165196761Y-108107238D01*
X165390285Y-108204000D01*
X165487047Y-108300761D01*
X165583809Y-108494285D01*
X165680571Y-108881333D01*
X165680571Y-109365142D01*
X165583809Y-109752190D01*
X165487047Y-109945714D01*
X165390285Y-110042476D01*
X165196761Y-110139238D01*
X165003238Y-110139238D01*
X164809714Y-110042476D01*
X164712952Y-109945714D01*
X164616190Y-109752190D01*
X164519428Y-109365142D01*
X164519428Y-108881333D01*
X164616190Y-108494285D01*
X164712952Y-108300761D01*
X164809714Y-108204000D01*
X165003238Y-108107238D01*
D10*
X92764428Y-129364619D02*
X92425761Y-128880809D01*
X92183857Y-129364619D02*
X92183857Y-128348619D01*
X92570904Y-128348619D01*
X92667666Y-128397000D01*
X92716047Y-128445380D01*
X92764428Y-128542142D01*
X92764428Y-128687285D01*
X92716047Y-128784047D01*
X92667666Y-128832428D01*
X92570904Y-128880809D01*
X92183857Y-128880809D01*
X93199857Y-128832428D02*
X93538523Y-128832428D01*
X93683666Y-129364619D02*
X93199857Y-129364619D01*
X93199857Y-128348619D01*
X93683666Y-128348619D01*
X94457761Y-128832428D02*
X94119095Y-128832428D01*
X94119095Y-129364619D02*
X94119095Y-128348619D01*
X94602904Y-128348619D01*
X92764428Y-118569619D02*
X92425761Y-118085809D01*
X92183857Y-118569619D02*
X92183857Y-117553619D01*
X92570904Y-117553619D01*
X92667666Y-117602000D01*
X92716047Y-117650380D01*
X92764428Y-117747142D01*
X92764428Y-117892285D01*
X92716047Y-117989047D01*
X92667666Y-118037428D01*
X92570904Y-118085809D01*
X92183857Y-118085809D01*
X93199857Y-118037428D02*
X93538523Y-118037428D01*
X93683666Y-118569619D02*
X93199857Y-118569619D01*
X93199857Y-117553619D01*
X93683666Y-117553619D01*
X94457761Y-118037428D02*
X94119095Y-118037428D01*
X94119095Y-118569619D02*
X94119095Y-117553619D01*
X94602904Y-117553619D01*
X96380904Y-128397000D02*
X96284142Y-128348619D01*
X96139000Y-128348619D01*
X95993857Y-128397000D01*
X95897095Y-128493761D01*
X95848714Y-128590523D01*
X95800333Y-128784047D01*
X95800333Y-128929190D01*
X95848714Y-129122714D01*
X95897095Y-129219476D01*
X95993857Y-129316238D01*
X96139000Y-129364619D01*
X96235761Y-129364619D01*
X96380904Y-129316238D01*
X96429285Y-129267857D01*
X96429285Y-128929190D01*
X96235761Y-128929190D01*
X96864714Y-129364619D02*
X96864714Y-128348619D01*
X97445285Y-129364619D01*
X97445285Y-128348619D01*
X97929095Y-129364619D02*
X97929095Y-128348619D01*
X98171000Y-128348619D01*
X98316142Y-128397000D01*
X98412904Y-128493761D01*
X98461285Y-128590523D01*
X98509666Y-128784047D01*
X98509666Y-128929190D01*
X98461285Y-129122714D01*
X98412904Y-129219476D01*
X98316142Y-129316238D01*
X98171000Y-129364619D01*
X97929095Y-129364619D01*
X104000904Y-128397000D02*
X103904142Y-128348619D01*
X103759000Y-128348619D01*
X103613857Y-128397000D01*
X103517095Y-128493761D01*
X103468714Y-128590523D01*
X103420333Y-128784047D01*
X103420333Y-128929190D01*
X103468714Y-129122714D01*
X103517095Y-129219476D01*
X103613857Y-129316238D01*
X103759000Y-129364619D01*
X103855761Y-129364619D01*
X104000904Y-129316238D01*
X104049285Y-129267857D01*
X104049285Y-128929190D01*
X103855761Y-128929190D01*
X104484714Y-129364619D02*
X104484714Y-128348619D01*
X105065285Y-129364619D01*
X105065285Y-128348619D01*
X105549095Y-129364619D02*
X105549095Y-128348619D01*
X105791000Y-128348619D01*
X105936142Y-128397000D01*
X106032904Y-128493761D01*
X106081285Y-128590523D01*
X106129666Y-128784047D01*
X106129666Y-128929190D01*
X106081285Y-129122714D01*
X106032904Y-129219476D01*
X105936142Y-129316238D01*
X105791000Y-129364619D01*
X105549095Y-129364619D01*
X99876428Y-129364619D02*
X99537761Y-128880809D01*
X99295857Y-129364619D02*
X99295857Y-128348619D01*
X99682904Y-128348619D01*
X99779666Y-128397000D01*
X99828047Y-128445380D01*
X99876428Y-128542142D01*
X99876428Y-128687285D01*
X99828047Y-128784047D01*
X99779666Y-128832428D01*
X99682904Y-128880809D01*
X99295857Y-128880809D01*
X100311857Y-128832428D02*
X100650523Y-128832428D01*
X100795666Y-129364619D02*
X100311857Y-129364619D01*
X100311857Y-128348619D01*
X100795666Y-128348619D01*
X101569761Y-128832428D02*
X101231095Y-128832428D01*
X101231095Y-129364619D02*
X101231095Y-128348619D01*
X101714904Y-128348619D01*
X102682523Y-129364619D02*
X102343857Y-128880809D01*
X102101952Y-129364619D02*
X102101952Y-128348619D01*
X102489000Y-128348619D01*
X102585761Y-128397000D01*
X102634142Y-128445380D01*
X102682523Y-128542142D01*
X102682523Y-128687285D01*
X102634142Y-128784047D01*
X102585761Y-128832428D01*
X102489000Y-128880809D01*
X102101952Y-128880809D01*
X99876428Y-118569619D02*
X99537761Y-118085809D01*
X99295857Y-118569619D02*
X99295857Y-117553619D01*
X99682904Y-117553619D01*
X99779666Y-117602000D01*
X99828047Y-117650380D01*
X99876428Y-117747142D01*
X99876428Y-117892285D01*
X99828047Y-117989047D01*
X99779666Y-118037428D01*
X99682904Y-118085809D01*
X99295857Y-118085809D01*
X100311857Y-118037428D02*
X100650523Y-118037428D01*
X100795666Y-118569619D02*
X100311857Y-118569619D01*
X100311857Y-117553619D01*
X100795666Y-117553619D01*
X101569761Y-118037428D02*
X101231095Y-118037428D01*
X101231095Y-118569619D02*
X101231095Y-117553619D01*
X101714904Y-117553619D01*
X102682523Y-118569619D02*
X102343857Y-118085809D01*
X102101952Y-118569619D02*
X102101952Y-117553619D01*
X102489000Y-117553619D01*
X102585761Y-117602000D01*
X102634142Y-117650380D01*
X102682523Y-117747142D01*
X102682523Y-117892285D01*
X102634142Y-117989047D01*
X102585761Y-118037428D01*
X102489000Y-118085809D01*
X102101952Y-118085809D01*
X125784428Y-129364619D02*
X125445761Y-128880809D01*
X125203857Y-129364619D02*
X125203857Y-128348619D01*
X125590904Y-128348619D01*
X125687666Y-128397000D01*
X125736047Y-128445380D01*
X125784428Y-128542142D01*
X125784428Y-128687285D01*
X125736047Y-128784047D01*
X125687666Y-128832428D01*
X125590904Y-128880809D01*
X125203857Y-128880809D01*
X126219857Y-128832428D02*
X126558523Y-128832428D01*
X126703666Y-129364619D02*
X126219857Y-129364619D01*
X126219857Y-128348619D01*
X126703666Y-128348619D01*
X127477761Y-128832428D02*
X127139095Y-128832428D01*
X127139095Y-129364619D02*
X127139095Y-128348619D01*
X127622904Y-128348619D01*
X125784428Y-118569619D02*
X125445761Y-118085809D01*
X125203857Y-118569619D02*
X125203857Y-117553619D01*
X125590904Y-117553619D01*
X125687666Y-117602000D01*
X125736047Y-117650380D01*
X125784428Y-117747142D01*
X125784428Y-117892285D01*
X125736047Y-117989047D01*
X125687666Y-118037428D01*
X125590904Y-118085809D01*
X125203857Y-118085809D01*
X126219857Y-118037428D02*
X126558523Y-118037428D01*
X126703666Y-118569619D02*
X126219857Y-118569619D01*
X126219857Y-117553619D01*
X126703666Y-117553619D01*
X127477761Y-118037428D02*
X127139095Y-118037428D01*
X127139095Y-118569619D02*
X127139095Y-117553619D01*
X127622904Y-117553619D01*
X129400904Y-128397000D02*
X129304142Y-128348619D01*
X129159000Y-128348619D01*
X129013857Y-128397000D01*
X128917095Y-128493761D01*
X128868714Y-128590523D01*
X128820333Y-128784047D01*
X128820333Y-128929190D01*
X128868714Y-129122714D01*
X128917095Y-129219476D01*
X129013857Y-129316238D01*
X129159000Y-129364619D01*
X129255761Y-129364619D01*
X129400904Y-129316238D01*
X129449285Y-129267857D01*
X129449285Y-128929190D01*
X129255761Y-128929190D01*
X129884714Y-129364619D02*
X129884714Y-128348619D01*
X130465285Y-129364619D01*
X130465285Y-128348619D01*
X130949095Y-129364619D02*
X130949095Y-128348619D01*
X131191000Y-128348619D01*
X131336142Y-128397000D01*
X131432904Y-128493761D01*
X131481285Y-128590523D01*
X131529666Y-128784047D01*
X131529666Y-128929190D01*
X131481285Y-129122714D01*
X131432904Y-129219476D01*
X131336142Y-129316238D01*
X131191000Y-129364619D01*
X130949095Y-129364619D01*
X137020904Y-128397000D02*
X136924142Y-128348619D01*
X136779000Y-128348619D01*
X136633857Y-128397000D01*
X136537095Y-128493761D01*
X136488714Y-128590523D01*
X136440333Y-128784047D01*
X136440333Y-128929190D01*
X136488714Y-129122714D01*
X136537095Y-129219476D01*
X136633857Y-129316238D01*
X136779000Y-129364619D01*
X136875761Y-129364619D01*
X137020904Y-129316238D01*
X137069285Y-129267857D01*
X137069285Y-128929190D01*
X136875761Y-128929190D01*
X137504714Y-129364619D02*
X137504714Y-128348619D01*
X138085285Y-129364619D01*
X138085285Y-128348619D01*
X138569095Y-129364619D02*
X138569095Y-128348619D01*
X138811000Y-128348619D01*
X138956142Y-128397000D01*
X139052904Y-128493761D01*
X139101285Y-128590523D01*
X139149666Y-128784047D01*
X139149666Y-128929190D01*
X139101285Y-129122714D01*
X139052904Y-129219476D01*
X138956142Y-129316238D01*
X138811000Y-129364619D01*
X138569095Y-129364619D01*
X132896428Y-129364619D02*
X132557761Y-128880809D01*
X132315857Y-129364619D02*
X132315857Y-128348619D01*
X132702904Y-128348619D01*
X132799666Y-128397000D01*
X132848047Y-128445380D01*
X132896428Y-128542142D01*
X132896428Y-128687285D01*
X132848047Y-128784047D01*
X132799666Y-128832428D01*
X132702904Y-128880809D01*
X132315857Y-128880809D01*
X133331857Y-128832428D02*
X133670523Y-128832428D01*
X133815666Y-129364619D02*
X133331857Y-129364619D01*
X133331857Y-128348619D01*
X133815666Y-128348619D01*
X134589761Y-128832428D02*
X134251095Y-128832428D01*
X134251095Y-129364619D02*
X134251095Y-128348619D01*
X134734904Y-128348619D01*
X135702523Y-129364619D02*
X135363857Y-128880809D01*
X135121952Y-129364619D02*
X135121952Y-128348619D01*
X135509000Y-128348619D01*
X135605761Y-128397000D01*
X135654142Y-128445380D01*
X135702523Y-128542142D01*
X135702523Y-128687285D01*
X135654142Y-128784047D01*
X135605761Y-128832428D01*
X135509000Y-128880809D01*
X135121952Y-128880809D01*
X132896428Y-118569619D02*
X132557761Y-118085809D01*
X132315857Y-118569619D02*
X132315857Y-117553619D01*
X132702904Y-117553619D01*
X132799666Y-117602000D01*
X132848047Y-117650380D01*
X132896428Y-117747142D01*
X132896428Y-117892285D01*
X132848047Y-117989047D01*
X132799666Y-118037428D01*
X132702904Y-118085809D01*
X132315857Y-118085809D01*
X133331857Y-118037428D02*
X133670523Y-118037428D01*
X133815666Y-118569619D02*
X133331857Y-118569619D01*
X133331857Y-117553619D01*
X133815666Y-117553619D01*
X134589761Y-118037428D02*
X134251095Y-118037428D01*
X134251095Y-118569619D02*
X134251095Y-117553619D01*
X134734904Y-117553619D01*
X135702523Y-118569619D02*
X135363857Y-118085809D01*
X135121952Y-118569619D02*
X135121952Y-117553619D01*
X135509000Y-117553619D01*
X135605761Y-117602000D01*
X135654142Y-117650380D01*
X135702523Y-117747142D01*
X135702523Y-117892285D01*
X135654142Y-117989047D01*
X135605761Y-118037428D01*
X135509000Y-118085809D01*
X135121952Y-118085809D01*
X158804428Y-129364619D02*
X158465761Y-128880809D01*
X158223857Y-129364619D02*
X158223857Y-128348619D01*
X158610904Y-128348619D01*
X158707666Y-128397000D01*
X158756047Y-128445380D01*
X158804428Y-128542142D01*
X158804428Y-128687285D01*
X158756047Y-128784047D01*
X158707666Y-128832428D01*
X158610904Y-128880809D01*
X158223857Y-128880809D01*
X159239857Y-128832428D02*
X159578523Y-128832428D01*
X159723666Y-129364619D02*
X159239857Y-129364619D01*
X159239857Y-128348619D01*
X159723666Y-128348619D01*
X160497761Y-128832428D02*
X160159095Y-128832428D01*
X160159095Y-129364619D02*
X160159095Y-128348619D01*
X160642904Y-128348619D01*
X162420904Y-128397000D02*
X162324142Y-128348619D01*
X162179000Y-128348619D01*
X162033857Y-128397000D01*
X161937095Y-128493761D01*
X161888714Y-128590523D01*
X161840333Y-128784047D01*
X161840333Y-128929190D01*
X161888714Y-129122714D01*
X161937095Y-129219476D01*
X162033857Y-129316238D01*
X162179000Y-129364619D01*
X162275761Y-129364619D01*
X162420904Y-129316238D01*
X162469285Y-129267857D01*
X162469285Y-128929190D01*
X162275761Y-128929190D01*
X162904714Y-129364619D02*
X162904714Y-128348619D01*
X163485285Y-129364619D01*
X163485285Y-128348619D01*
X163969095Y-129364619D02*
X163969095Y-128348619D01*
X164211000Y-128348619D01*
X164356142Y-128397000D01*
X164452904Y-128493761D01*
X164501285Y-128590523D01*
X164549666Y-128784047D01*
X164549666Y-128929190D01*
X164501285Y-129122714D01*
X164452904Y-129219476D01*
X164356142Y-129316238D01*
X164211000Y-129364619D01*
X163969095Y-129364619D01*
X165916428Y-129364619D02*
X165577761Y-128880809D01*
X165335857Y-129364619D02*
X165335857Y-128348619D01*
X165722904Y-128348619D01*
X165819666Y-128397000D01*
X165868047Y-128445380D01*
X165916428Y-128542142D01*
X165916428Y-128687285D01*
X165868047Y-128784047D01*
X165819666Y-128832428D01*
X165722904Y-128880809D01*
X165335857Y-128880809D01*
X166351857Y-128832428D02*
X166690523Y-128832428D01*
X166835666Y-129364619D02*
X166351857Y-129364619D01*
X166351857Y-128348619D01*
X166835666Y-128348619D01*
X167609761Y-128832428D02*
X167271095Y-128832428D01*
X167271095Y-129364619D02*
X167271095Y-128348619D01*
X167754904Y-128348619D01*
X168722523Y-129364619D02*
X168383857Y-128880809D01*
X168141952Y-129364619D02*
X168141952Y-128348619D01*
X168529000Y-128348619D01*
X168625761Y-128397000D01*
X168674142Y-128445380D01*
X168722523Y-128542142D01*
X168722523Y-128687285D01*
X168674142Y-128784047D01*
X168625761Y-128832428D01*
X168529000Y-128880809D01*
X168141952Y-128880809D01*
X170040904Y-128397000D02*
X169944142Y-128348619D01*
X169799000Y-128348619D01*
X169653857Y-128397000D01*
X169557095Y-128493761D01*
X169508714Y-128590523D01*
X169460333Y-128784047D01*
X169460333Y-128929190D01*
X169508714Y-129122714D01*
X169557095Y-129219476D01*
X169653857Y-129316238D01*
X169799000Y-129364619D01*
X169895761Y-129364619D01*
X170040904Y-129316238D01*
X170089285Y-129267857D01*
X170089285Y-128929190D01*
X169895761Y-128929190D01*
X170524714Y-129364619D02*
X170524714Y-128348619D01*
X171105285Y-129364619D01*
X171105285Y-128348619D01*
X171589095Y-129364619D02*
X171589095Y-128348619D01*
X171831000Y-128348619D01*
X171976142Y-128397000D01*
X172072904Y-128493761D01*
X172121285Y-128590523D01*
X172169666Y-128784047D01*
X172169666Y-128929190D01*
X172121285Y-129122714D01*
X172072904Y-129219476D01*
X171976142Y-129316238D01*
X171831000Y-129364619D01*
X171589095Y-129364619D01*
X158804428Y-118569619D02*
X158465761Y-118085809D01*
X158223857Y-118569619D02*
X158223857Y-117553619D01*
X158610904Y-117553619D01*
X158707666Y-117602000D01*
X158756047Y-117650380D01*
X158804428Y-117747142D01*
X158804428Y-117892285D01*
X158756047Y-117989047D01*
X158707666Y-118037428D01*
X158610904Y-118085809D01*
X158223857Y-118085809D01*
X159239857Y-118037428D02*
X159578523Y-118037428D01*
X159723666Y-118569619D02*
X159239857Y-118569619D01*
X159239857Y-117553619D01*
X159723666Y-117553619D01*
X160497761Y-118037428D02*
X160159095Y-118037428D01*
X160159095Y-118569619D02*
X160159095Y-117553619D01*
X160642904Y-117553619D01*
X96380904Y-117602000D02*
X96284142Y-117553619D01*
X96139000Y-117553619D01*
X95993857Y-117602000D01*
X95897095Y-117698761D01*
X95848714Y-117795523D01*
X95800333Y-117989047D01*
X95800333Y-118134190D01*
X95848714Y-118327714D01*
X95897095Y-118424476D01*
X95993857Y-118521238D01*
X96139000Y-118569619D01*
X96235761Y-118569619D01*
X96380904Y-118521238D01*
X96429285Y-118472857D01*
X96429285Y-118134190D01*
X96235761Y-118134190D01*
X96864714Y-118569619D02*
X96864714Y-117553619D01*
X97445285Y-118569619D01*
X97445285Y-117553619D01*
X97929095Y-118569619D02*
X97929095Y-117553619D01*
X98171000Y-117553619D01*
X98316142Y-117602000D01*
X98412904Y-117698761D01*
X98461285Y-117795523D01*
X98509666Y-117989047D01*
X98509666Y-118134190D01*
X98461285Y-118327714D01*
X98412904Y-118424476D01*
X98316142Y-118521238D01*
X98171000Y-118569619D01*
X97929095Y-118569619D01*
X104000904Y-117602000D02*
X103904142Y-117553619D01*
X103759000Y-117553619D01*
X103613857Y-117602000D01*
X103517095Y-117698761D01*
X103468714Y-117795523D01*
X103420333Y-117989047D01*
X103420333Y-118134190D01*
X103468714Y-118327714D01*
X103517095Y-118424476D01*
X103613857Y-118521238D01*
X103759000Y-118569619D01*
X103855761Y-118569619D01*
X104000904Y-118521238D01*
X104049285Y-118472857D01*
X104049285Y-118134190D01*
X103855761Y-118134190D01*
X104484714Y-118569619D02*
X104484714Y-117553619D01*
X105065285Y-118569619D01*
X105065285Y-117553619D01*
X105549095Y-118569619D02*
X105549095Y-117553619D01*
X105791000Y-117553619D01*
X105936142Y-117602000D01*
X106032904Y-117698761D01*
X106081285Y-117795523D01*
X106129666Y-117989047D01*
X106129666Y-118134190D01*
X106081285Y-118327714D01*
X106032904Y-118424476D01*
X105936142Y-118521238D01*
X105791000Y-118569619D01*
X105549095Y-118569619D01*
X129400904Y-117602000D02*
X129304142Y-117553619D01*
X129159000Y-117553619D01*
X129013857Y-117602000D01*
X128917095Y-117698761D01*
X128868714Y-117795523D01*
X128820333Y-117989047D01*
X128820333Y-118134190D01*
X128868714Y-118327714D01*
X128917095Y-118424476D01*
X129013857Y-118521238D01*
X129159000Y-118569619D01*
X129255761Y-118569619D01*
X129400904Y-118521238D01*
X129449285Y-118472857D01*
X129449285Y-118134190D01*
X129255761Y-118134190D01*
X129884714Y-118569619D02*
X129884714Y-117553619D01*
X130465285Y-118569619D01*
X130465285Y-117553619D01*
X130949095Y-118569619D02*
X130949095Y-117553619D01*
X131191000Y-117553619D01*
X131336142Y-117602000D01*
X131432904Y-117698761D01*
X131481285Y-117795523D01*
X131529666Y-117989047D01*
X131529666Y-118134190D01*
X131481285Y-118327714D01*
X131432904Y-118424476D01*
X131336142Y-118521238D01*
X131191000Y-118569619D01*
X130949095Y-118569619D01*
X137020904Y-117602000D02*
X136924142Y-117553619D01*
X136779000Y-117553619D01*
X136633857Y-117602000D01*
X136537095Y-117698761D01*
X136488714Y-117795523D01*
X136440333Y-117989047D01*
X136440333Y-118134190D01*
X136488714Y-118327714D01*
X136537095Y-118424476D01*
X136633857Y-118521238D01*
X136779000Y-118569619D01*
X136875761Y-118569619D01*
X137020904Y-118521238D01*
X137069285Y-118472857D01*
X137069285Y-118134190D01*
X136875761Y-118134190D01*
X137504714Y-118569619D02*
X137504714Y-117553619D01*
X138085285Y-118569619D01*
X138085285Y-117553619D01*
X138569095Y-118569619D02*
X138569095Y-117553619D01*
X138811000Y-117553619D01*
X138956142Y-117602000D01*
X139052904Y-117698761D01*
X139101285Y-117795523D01*
X139149666Y-117989047D01*
X139149666Y-118134190D01*
X139101285Y-118327714D01*
X139052904Y-118424476D01*
X138956142Y-118521238D01*
X138811000Y-118569619D01*
X138569095Y-118569619D01*
X162420904Y-117602000D02*
X162324142Y-117553619D01*
X162179000Y-117553619D01*
X162033857Y-117602000D01*
X161937095Y-117698761D01*
X161888714Y-117795523D01*
X161840333Y-117989047D01*
X161840333Y-118134190D01*
X161888714Y-118327714D01*
X161937095Y-118424476D01*
X162033857Y-118521238D01*
X162179000Y-118569619D01*
X162275761Y-118569619D01*
X162420904Y-118521238D01*
X162469285Y-118472857D01*
X162469285Y-118134190D01*
X162275761Y-118134190D01*
X162904714Y-118569619D02*
X162904714Y-117553619D01*
X163485285Y-118569619D01*
X163485285Y-117553619D01*
X163969095Y-118569619D02*
X163969095Y-117553619D01*
X164211000Y-117553619D01*
X164356142Y-117602000D01*
X164452904Y-117698761D01*
X164501285Y-117795523D01*
X164549666Y-117989047D01*
X164549666Y-118134190D01*
X164501285Y-118327714D01*
X164452904Y-118424476D01*
X164356142Y-118521238D01*
X164211000Y-118569619D01*
X163969095Y-118569619D01*
X165916428Y-118569619D02*
X165577761Y-118085809D01*
X165335857Y-118569619D02*
X165335857Y-117553619D01*
X165722904Y-117553619D01*
X165819666Y-117602000D01*
X165868047Y-117650380D01*
X165916428Y-117747142D01*
X165916428Y-117892285D01*
X165868047Y-117989047D01*
X165819666Y-118037428D01*
X165722904Y-118085809D01*
X165335857Y-118085809D01*
X166351857Y-118037428D02*
X166690523Y-118037428D01*
X166835666Y-118569619D02*
X166351857Y-118569619D01*
X166351857Y-117553619D01*
X166835666Y-117553619D01*
X167609761Y-118037428D02*
X167271095Y-118037428D01*
X167271095Y-118569619D02*
X167271095Y-117553619D01*
X167754904Y-117553619D01*
X168722523Y-118569619D02*
X168383857Y-118085809D01*
X168141952Y-118569619D02*
X168141952Y-117553619D01*
X168529000Y-117553619D01*
X168625761Y-117602000D01*
X168674142Y-117650380D01*
X168722523Y-117747142D01*
X168722523Y-117892285D01*
X168674142Y-117989047D01*
X168625761Y-118037428D01*
X168529000Y-118085809D01*
X168141952Y-118085809D01*
X170040904Y-117602000D02*
X169944142Y-117553619D01*
X169799000Y-117553619D01*
X169653857Y-117602000D01*
X169557095Y-117698761D01*
X169508714Y-117795523D01*
X169460333Y-117989047D01*
X169460333Y-118134190D01*
X169508714Y-118327714D01*
X169557095Y-118424476D01*
X169653857Y-118521238D01*
X169799000Y-118569619D01*
X169895761Y-118569619D01*
X170040904Y-118521238D01*
X170089285Y-118472857D01*
X170089285Y-118134190D01*
X169895761Y-118134190D01*
X170524714Y-118569619D02*
X170524714Y-117553619D01*
X171105285Y-118569619D01*
X171105285Y-117553619D01*
X171589095Y-118569619D02*
X171589095Y-117553619D01*
X171831000Y-117553619D01*
X171976142Y-117602000D01*
X172072904Y-117698761D01*
X172121285Y-117795523D01*
X172169666Y-117989047D01*
X172169666Y-118134190D01*
X172121285Y-118327714D01*
X172072904Y-118424476D01*
X171976142Y-118521238D01*
X171831000Y-118569619D01*
X171589095Y-118569619D01*
X90883619Y-88827428D02*
X91028761Y-88875809D01*
X91077142Y-88924190D01*
X91125523Y-89020952D01*
X91125523Y-89166095D01*
X91077142Y-89262857D01*
X91028761Y-89311238D01*
X90932000Y-89359619D01*
X90544952Y-89359619D01*
X90544952Y-88343619D01*
X90883619Y-88343619D01*
X90980380Y-88392000D01*
X91028761Y-88440380D01*
X91077142Y-88537142D01*
X91077142Y-88633904D01*
X91028761Y-88730666D01*
X90980380Y-88779047D01*
X90883619Y-88827428D01*
X90544952Y-88827428D01*
X91560952Y-88972571D02*
X92335047Y-88972571D01*
X95963619Y-88827428D02*
X96108761Y-88875809D01*
X96157142Y-88924190D01*
X96205523Y-89020952D01*
X96205523Y-89166095D01*
X96157142Y-89262857D01*
X96108761Y-89311238D01*
X96012000Y-89359619D01*
X95624952Y-89359619D01*
X95624952Y-88343619D01*
X95963619Y-88343619D01*
X96060380Y-88392000D01*
X96108761Y-88440380D01*
X96157142Y-88537142D01*
X96157142Y-88633904D01*
X96108761Y-88730666D01*
X96060380Y-88779047D01*
X95963619Y-88827428D01*
X95624952Y-88827428D01*
X96640952Y-88972571D02*
X97415047Y-88972571D01*
X97028000Y-89359619D02*
X97028000Y-88585523D01*
X100729142Y-89069333D02*
X101212952Y-89069333D01*
X100632380Y-89359619D02*
X100971047Y-88343619D01*
X101309714Y-89359619D01*
X101648380Y-88972571D02*
X102422476Y-88972571D01*
X105809142Y-89069333D02*
X106292952Y-89069333D01*
X105712380Y-89359619D02*
X106051047Y-88343619D01*
X106389714Y-89359619D01*
X106728380Y-88972571D02*
X107502476Y-88972571D01*
X107115428Y-89359619D02*
X107115428Y-88585523D01*
X90883619Y-78032428D02*
X91028761Y-78080809D01*
X91077142Y-78129190D01*
X91125523Y-78225952D01*
X91125523Y-78371095D01*
X91077142Y-78467857D01*
X91028761Y-78516238D01*
X90932000Y-78564619D01*
X90544952Y-78564619D01*
X90544952Y-77548619D01*
X90883619Y-77548619D01*
X90980380Y-77597000D01*
X91028761Y-77645380D01*
X91077142Y-77742142D01*
X91077142Y-77838904D01*
X91028761Y-77935666D01*
X90980380Y-77984047D01*
X90883619Y-78032428D01*
X90544952Y-78032428D01*
X91560952Y-78177571D02*
X92335047Y-78177571D01*
X95963619Y-78032428D02*
X96108761Y-78080809D01*
X96157142Y-78129190D01*
X96205523Y-78225952D01*
X96205523Y-78371095D01*
X96157142Y-78467857D01*
X96108761Y-78516238D01*
X96012000Y-78564619D01*
X95624952Y-78564619D01*
X95624952Y-77548619D01*
X95963619Y-77548619D01*
X96060380Y-77597000D01*
X96108761Y-77645380D01*
X96157142Y-77742142D01*
X96157142Y-77838904D01*
X96108761Y-77935666D01*
X96060380Y-77984047D01*
X95963619Y-78032428D01*
X95624952Y-78032428D01*
X96640952Y-78177571D02*
X97415047Y-78177571D01*
X97028000Y-78564619D02*
X97028000Y-77790523D01*
X100729142Y-78274333D02*
X101212952Y-78274333D01*
X100632380Y-78564619D02*
X100971047Y-77548619D01*
X101309714Y-78564619D01*
X101648380Y-78177571D02*
X102422476Y-78177571D01*
X105809142Y-78274333D02*
X106292952Y-78274333D01*
X105712380Y-78564619D02*
X106051047Y-77548619D01*
X106389714Y-78564619D01*
X106728380Y-78177571D02*
X107502476Y-78177571D01*
X107115428Y-78564619D02*
X107115428Y-77790523D01*
X123903619Y-88827428D02*
X124048761Y-88875809D01*
X124097142Y-88924190D01*
X124145523Y-89020952D01*
X124145523Y-89166095D01*
X124097142Y-89262857D01*
X124048761Y-89311238D01*
X123952000Y-89359619D01*
X123564952Y-89359619D01*
X123564952Y-88343619D01*
X123903619Y-88343619D01*
X124000380Y-88392000D01*
X124048761Y-88440380D01*
X124097142Y-88537142D01*
X124097142Y-88633904D01*
X124048761Y-88730666D01*
X124000380Y-88779047D01*
X123903619Y-88827428D01*
X123564952Y-88827428D01*
X124580952Y-88972571D02*
X125355047Y-88972571D01*
X128983619Y-88827428D02*
X129128761Y-88875809D01*
X129177142Y-88924190D01*
X129225523Y-89020952D01*
X129225523Y-89166095D01*
X129177142Y-89262857D01*
X129128761Y-89311238D01*
X129032000Y-89359619D01*
X128644952Y-89359619D01*
X128644952Y-88343619D01*
X128983619Y-88343619D01*
X129080380Y-88392000D01*
X129128761Y-88440380D01*
X129177142Y-88537142D01*
X129177142Y-88633904D01*
X129128761Y-88730666D01*
X129080380Y-88779047D01*
X128983619Y-88827428D01*
X128644952Y-88827428D01*
X129660952Y-88972571D02*
X130435047Y-88972571D01*
X130048000Y-89359619D02*
X130048000Y-88585523D01*
X133749142Y-89069333D02*
X134232952Y-89069333D01*
X133652380Y-89359619D02*
X133991047Y-88343619D01*
X134329714Y-89359619D01*
X134668380Y-88972571D02*
X135442476Y-88972571D01*
X138829142Y-89069333D02*
X139312952Y-89069333D01*
X138732380Y-89359619D02*
X139071047Y-88343619D01*
X139409714Y-89359619D01*
X139748380Y-88972571D02*
X140522476Y-88972571D01*
X140135428Y-89359619D02*
X140135428Y-88585523D01*
X123903619Y-78032428D02*
X124048761Y-78080809D01*
X124097142Y-78129190D01*
X124145523Y-78225952D01*
X124145523Y-78371095D01*
X124097142Y-78467857D01*
X124048761Y-78516238D01*
X123952000Y-78564619D01*
X123564952Y-78564619D01*
X123564952Y-77548619D01*
X123903619Y-77548619D01*
X124000380Y-77597000D01*
X124048761Y-77645380D01*
X124097142Y-77742142D01*
X124097142Y-77838904D01*
X124048761Y-77935666D01*
X124000380Y-77984047D01*
X123903619Y-78032428D01*
X123564952Y-78032428D01*
X124580952Y-78177571D02*
X125355047Y-78177571D01*
X128983619Y-78032428D02*
X129128761Y-78080809D01*
X129177142Y-78129190D01*
X129225523Y-78225952D01*
X129225523Y-78371095D01*
X129177142Y-78467857D01*
X129128761Y-78516238D01*
X129032000Y-78564619D01*
X128644952Y-78564619D01*
X128644952Y-77548619D01*
X128983619Y-77548619D01*
X129080380Y-77597000D01*
X129128761Y-77645380D01*
X129177142Y-77742142D01*
X129177142Y-77838904D01*
X129128761Y-77935666D01*
X129080380Y-77984047D01*
X128983619Y-78032428D01*
X128644952Y-78032428D01*
X129660952Y-78177571D02*
X130435047Y-78177571D01*
X130048000Y-78564619D02*
X130048000Y-77790523D01*
X133749142Y-78274333D02*
X134232952Y-78274333D01*
X133652380Y-78564619D02*
X133991047Y-77548619D01*
X134329714Y-78564619D01*
X134668380Y-78177571D02*
X135442476Y-78177571D01*
X138829142Y-78274333D02*
X139312952Y-78274333D01*
X138732380Y-78564619D02*
X139071047Y-77548619D01*
X139409714Y-78564619D01*
X139748380Y-78177571D02*
X140522476Y-78177571D01*
X140135428Y-78564619D02*
X140135428Y-77790523D01*
D12*
X98479428Y-130525761D02*
X98576190Y-130429000D01*
X98769714Y-130332238D01*
X99253523Y-130332238D01*
X99447047Y-130429000D01*
X99543809Y-130525761D01*
X99640571Y-130719285D01*
X99640571Y-130912809D01*
X99543809Y-131203095D01*
X98382666Y-132364238D01*
X99640571Y-132364238D01*
X132660571Y-132364238D02*
X131499428Y-132364238D01*
X132080000Y-132364238D02*
X132080000Y-130332238D01*
X131886476Y-130622523D01*
X131692952Y-130816047D01*
X131499428Y-130912809D01*
X165003238Y-130332238D02*
X165196761Y-130332238D01*
X165390285Y-130429000D01*
X165487047Y-130525761D01*
X165583809Y-130719285D01*
X165680571Y-131106333D01*
X165680571Y-131590142D01*
X165583809Y-131977190D01*
X165487047Y-132170714D01*
X165390285Y-132267476D01*
X165196761Y-132364238D01*
X165003238Y-132364238D01*
X164809714Y-132267476D01*
X164712952Y-132170714D01*
X164616190Y-131977190D01*
X164519428Y-131590142D01*
X164519428Y-131106333D01*
X164616190Y-130719285D01*
X164712952Y-130525761D01*
X164809714Y-130429000D01*
X165003238Y-130332238D01*
D10*
X156923619Y-88827428D02*
X157068761Y-88875809D01*
X157117142Y-88924190D01*
X157165523Y-89020952D01*
X157165523Y-89166095D01*
X157117142Y-89262857D01*
X157068761Y-89311238D01*
X156972000Y-89359619D01*
X156584952Y-89359619D01*
X156584952Y-88343619D01*
X156923619Y-88343619D01*
X157020380Y-88392000D01*
X157068761Y-88440380D01*
X157117142Y-88537142D01*
X157117142Y-88633904D01*
X157068761Y-88730666D01*
X157020380Y-88779047D01*
X156923619Y-88827428D01*
X156584952Y-88827428D01*
X157600952Y-88972571D02*
X158375047Y-88972571D01*
X162003619Y-88827428D02*
X162148761Y-88875809D01*
X162197142Y-88924190D01*
X162245523Y-89020952D01*
X162245523Y-89166095D01*
X162197142Y-89262857D01*
X162148761Y-89311238D01*
X162052000Y-89359619D01*
X161664952Y-89359619D01*
X161664952Y-88343619D01*
X162003619Y-88343619D01*
X162100380Y-88392000D01*
X162148761Y-88440380D01*
X162197142Y-88537142D01*
X162197142Y-88633904D01*
X162148761Y-88730666D01*
X162100380Y-88779047D01*
X162003619Y-88827428D01*
X161664952Y-88827428D01*
X162680952Y-88972571D02*
X163455047Y-88972571D01*
X163068000Y-89359619D02*
X163068000Y-88585523D01*
X166769142Y-89069333D02*
X167252952Y-89069333D01*
X166672380Y-89359619D02*
X167011047Y-88343619D01*
X167349714Y-89359619D01*
X167688380Y-88972571D02*
X168462476Y-88972571D01*
X171849142Y-89069333D02*
X172332952Y-89069333D01*
X171752380Y-89359619D02*
X172091047Y-88343619D01*
X172429714Y-89359619D01*
X172768380Y-88972571D02*
X173542476Y-88972571D01*
X173155428Y-89359619D02*
X173155428Y-88585523D01*
X156923619Y-78032428D02*
X157068761Y-78080809D01*
X157117142Y-78129190D01*
X157165523Y-78225952D01*
X157165523Y-78371095D01*
X157117142Y-78467857D01*
X157068761Y-78516238D01*
X156972000Y-78564619D01*
X156584952Y-78564619D01*
X156584952Y-77548619D01*
X156923619Y-77548619D01*
X157020380Y-77597000D01*
X157068761Y-77645380D01*
X157117142Y-77742142D01*
X157117142Y-77838904D01*
X157068761Y-77935666D01*
X157020380Y-77984047D01*
X156923619Y-78032428D01*
X156584952Y-78032428D01*
X157600952Y-78177571D02*
X158375047Y-78177571D01*
X162003619Y-78032428D02*
X162148761Y-78080809D01*
X162197142Y-78129190D01*
X162245523Y-78225952D01*
X162245523Y-78371095D01*
X162197142Y-78467857D01*
X162148761Y-78516238D01*
X162052000Y-78564619D01*
X161664952Y-78564619D01*
X161664952Y-77548619D01*
X162003619Y-77548619D01*
X162100380Y-77597000D01*
X162148761Y-77645380D01*
X162197142Y-77742142D01*
X162197142Y-77838904D01*
X162148761Y-77935666D01*
X162100380Y-77984047D01*
X162003619Y-78032428D01*
X161664952Y-78032428D01*
X162680952Y-78177571D02*
X163455047Y-78177571D01*
X163068000Y-78564619D02*
X163068000Y-77790523D01*
X166769142Y-78274333D02*
X167252952Y-78274333D01*
X166672380Y-78564619D02*
X167011047Y-77548619D01*
X167349714Y-78564619D01*
X167688380Y-78177571D02*
X168462476Y-78177571D01*
X171849142Y-78274333D02*
X172332952Y-78274333D01*
X171752380Y-78564619D02*
X172091047Y-77548619D01*
X172429714Y-78564619D01*
X172768380Y-78177571D02*
X173542476Y-78177571D01*
X173155428Y-78564619D02*
X173155428Y-77790523D01*
D13*
X191135000Y-71755000D02*
X69850000Y-71755000D01*
X191135000Y-139065000D02*
X191135000Y-71755000D01*
X69850000Y-139065000D02*
X191135000Y-139065000D01*
X69850000Y-71755000D02*
X69850000Y-139065000D01*
D11*
X85452857Y-133809619D02*
X85452857Y-132793619D01*
X85888285Y-133809619D02*
X85888285Y-133277428D01*
X85839904Y-133180666D01*
X85743142Y-133132285D01*
X85598000Y-133132285D01*
X85501238Y-133180666D01*
X85452857Y-133229047D01*
X86226952Y-133132285D02*
X86614000Y-133132285D01*
X86372095Y-132793619D02*
X86372095Y-133664476D01*
X86420476Y-133761238D01*
X86517238Y-133809619D01*
X86614000Y-133809619D01*
X86807523Y-133132285D02*
X87194571Y-133132285D01*
X86952666Y-132793619D02*
X86952666Y-133664476D01*
X87001047Y-133761238D01*
X87097809Y-133809619D01*
X87194571Y-133809619D01*
X87533238Y-133132285D02*
X87533238Y-134148285D01*
X87533238Y-133180666D02*
X87630000Y-133132285D01*
X87823523Y-133132285D01*
X87920285Y-133180666D01*
X87968666Y-133229047D01*
X88017047Y-133325809D01*
X88017047Y-133616095D01*
X87968666Y-133712857D01*
X87920285Y-133761238D01*
X87823523Y-133809619D01*
X87630000Y-133809619D01*
X87533238Y-133761238D01*
X88404095Y-133761238D02*
X88500857Y-133809619D01*
X88694380Y-133809619D01*
X88791142Y-133761238D01*
X88839523Y-133664476D01*
X88839523Y-133616095D01*
X88791142Y-133519333D01*
X88694380Y-133470952D01*
X88549238Y-133470952D01*
X88452476Y-133422571D01*
X88404095Y-133325809D01*
X88404095Y-133277428D01*
X88452476Y-133180666D01*
X88549238Y-133132285D01*
X88694380Y-133132285D01*
X88791142Y-133180666D01*
X89274952Y-133712857D02*
X89323333Y-133761238D01*
X89274952Y-133809619D01*
X89226571Y-133761238D01*
X89274952Y-133712857D01*
X89274952Y-133809619D01*
X89274952Y-133180666D02*
X89323333Y-133229047D01*
X89274952Y-133277428D01*
X89226571Y-133229047D01*
X89274952Y-133180666D01*
X89274952Y-133277428D01*
X90484476Y-132745238D02*
X89613619Y-134051523D01*
X91548857Y-132745238D02*
X90678000Y-134051523D01*
X92322952Y-133132285D02*
X92322952Y-133954761D01*
X92274571Y-134051523D01*
X92226190Y-134099904D01*
X92129428Y-134148285D01*
X91984285Y-134148285D01*
X91887523Y-134099904D01*
X92322952Y-133761238D02*
X92226190Y-133809619D01*
X92032666Y-133809619D01*
X91935904Y-133761238D01*
X91887523Y-133712857D01*
X91839142Y-133616095D01*
X91839142Y-133325809D01*
X91887523Y-133229047D01*
X91935904Y-133180666D01*
X92032666Y-133132285D01*
X92226190Y-133132285D01*
X92322952Y-133180666D01*
X92806761Y-133809619D02*
X92806761Y-133132285D01*
X92806761Y-132793619D02*
X92758380Y-132842000D01*
X92806761Y-132890380D01*
X92855142Y-132842000D01*
X92806761Y-132793619D01*
X92806761Y-132890380D01*
X93145428Y-133132285D02*
X93532476Y-133132285D01*
X93290571Y-132793619D02*
X93290571Y-133664476D01*
X93338952Y-133761238D01*
X93435714Y-133809619D01*
X93532476Y-133809619D01*
X93871142Y-133809619D02*
X93871142Y-132793619D01*
X94306571Y-133809619D02*
X94306571Y-133277428D01*
X94258190Y-133180666D01*
X94161428Y-133132285D01*
X94016285Y-133132285D01*
X93919523Y-133180666D01*
X93871142Y-133229047D01*
X95225809Y-133132285D02*
X95225809Y-133809619D01*
X94790380Y-133132285D02*
X94790380Y-133664476D01*
X94838761Y-133761238D01*
X94935523Y-133809619D01*
X95080666Y-133809619D01*
X95177428Y-133761238D01*
X95225809Y-133712857D01*
X95709619Y-133809619D02*
X95709619Y-132793619D01*
X95709619Y-133180666D02*
X95806380Y-133132285D01*
X95999904Y-133132285D01*
X96096666Y-133180666D01*
X96145047Y-133229047D01*
X96193428Y-133325809D01*
X96193428Y-133616095D01*
X96145047Y-133712857D01*
X96096666Y-133761238D01*
X95999904Y-133809619D01*
X95806380Y-133809619D01*
X95709619Y-133761238D01*
X96628857Y-133712857D02*
X96677238Y-133761238D01*
X96628857Y-133809619D01*
X96580476Y-133761238D01*
X96628857Y-133712857D01*
X96628857Y-133809619D01*
X97548095Y-133761238D02*
X97451333Y-133809619D01*
X97257809Y-133809619D01*
X97161047Y-133761238D01*
X97112666Y-133712857D01*
X97064285Y-133616095D01*
X97064285Y-133325809D01*
X97112666Y-133229047D01*
X97161047Y-133180666D01*
X97257809Y-133132285D01*
X97451333Y-133132285D01*
X97548095Y-133180666D01*
X98128666Y-133809619D02*
X98031904Y-133761238D01*
X97983523Y-133712857D01*
X97935142Y-133616095D01*
X97935142Y-133325809D01*
X97983523Y-133229047D01*
X98031904Y-133180666D01*
X98128666Y-133132285D01*
X98273809Y-133132285D01*
X98370571Y-133180666D01*
X98418952Y-133229047D01*
X98467333Y-133325809D01*
X98467333Y-133616095D01*
X98418952Y-133712857D01*
X98370571Y-133761238D01*
X98273809Y-133809619D01*
X98128666Y-133809619D01*
X98902761Y-133809619D02*
X98902761Y-133132285D01*
X98902761Y-133229047D02*
X98951142Y-133180666D01*
X99047904Y-133132285D01*
X99193047Y-133132285D01*
X99289809Y-133180666D01*
X99338190Y-133277428D01*
X99338190Y-133809619D01*
X99338190Y-133277428D02*
X99386571Y-133180666D01*
X99483333Y-133132285D01*
X99628476Y-133132285D01*
X99725238Y-133180666D01*
X99773619Y-133277428D01*
X99773619Y-133809619D01*
X100983142Y-132745238D02*
X100112285Y-134051523D01*
X101321809Y-133132285D02*
X101321809Y-134003142D01*
X101273428Y-134099904D01*
X101176666Y-134148285D01*
X101128285Y-134148285D01*
X101321809Y-132793619D02*
X101273428Y-132842000D01*
X101321809Y-132890380D01*
X101370190Y-132842000D01*
X101321809Y-132793619D01*
X101321809Y-132890380D01*
X102241047Y-133809619D02*
X102241047Y-133277428D01*
X102192666Y-133180666D01*
X102095904Y-133132285D01*
X101902380Y-133132285D01*
X101805619Y-133180666D01*
X102241047Y-133761238D02*
X102144285Y-133809619D01*
X101902380Y-133809619D01*
X101805619Y-133761238D01*
X101757238Y-133664476D01*
X101757238Y-133567714D01*
X101805619Y-133470952D01*
X101902380Y-133422571D01*
X102144285Y-133422571D01*
X102241047Y-133374190D01*
X102724857Y-133132285D02*
X102724857Y-133809619D01*
X102724857Y-133229047D02*
X102773238Y-133180666D01*
X102870000Y-133132285D01*
X103015142Y-133132285D01*
X103111904Y-133180666D01*
X103160285Y-133277428D01*
X103160285Y-133809619D01*
X104031142Y-133761238D02*
X103934380Y-133809619D01*
X103740857Y-133809619D01*
X103644095Y-133761238D01*
X103595714Y-133664476D01*
X103595714Y-133277428D01*
X103644095Y-133180666D01*
X103740857Y-133132285D01*
X103934380Y-133132285D01*
X104031142Y-133180666D01*
X104079523Y-133277428D01*
X104079523Y-133374190D01*
X103595714Y-133470952D01*
X104660095Y-133809619D02*
X104563333Y-133761238D01*
X104514952Y-133664476D01*
X104514952Y-132793619D01*
X105047142Y-133809619D02*
X105047142Y-133132285D01*
X105047142Y-132793619D02*
X104998761Y-132842000D01*
X105047142Y-132890380D01*
X105095523Y-132842000D01*
X105047142Y-132793619D01*
X105047142Y-132890380D01*
X105966380Y-133809619D02*
X105966380Y-133277428D01*
X105918000Y-133180666D01*
X105821238Y-133132285D01*
X105627714Y-133132285D01*
X105530952Y-133180666D01*
X105966380Y-133761238D02*
X105869619Y-133809619D01*
X105627714Y-133809619D01*
X105530952Y-133761238D01*
X105482571Y-133664476D01*
X105482571Y-133567714D01*
X105530952Y-133470952D01*
X105627714Y-133422571D01*
X105869619Y-133422571D01*
X105966380Y-133374190D01*
X106450190Y-133422571D02*
X107224285Y-133422571D01*
X107708095Y-133809619D02*
X107708095Y-133132285D01*
X107708095Y-133229047D02*
X107756476Y-133180666D01*
X107853238Y-133132285D01*
X107998380Y-133132285D01*
X108095142Y-133180666D01*
X108143523Y-133277428D01*
X108143523Y-133809619D01*
X108143523Y-133277428D02*
X108191904Y-133180666D01*
X108288666Y-133132285D01*
X108433809Y-133132285D01*
X108530571Y-133180666D01*
X108578952Y-133277428D01*
X108578952Y-133809619D01*
X109207904Y-133809619D02*
X109111142Y-133761238D01*
X109062761Y-133712857D01*
X109014380Y-133616095D01*
X109014380Y-133325809D01*
X109062761Y-133229047D01*
X109111142Y-133180666D01*
X109207904Y-133132285D01*
X109353047Y-133132285D01*
X109449809Y-133180666D01*
X109498190Y-133229047D01*
X109546571Y-133325809D01*
X109546571Y-133616095D01*
X109498190Y-133712857D01*
X109449809Y-133761238D01*
X109353047Y-133809619D01*
X109207904Y-133809619D01*
X110417428Y-133809619D02*
X110417428Y-132793619D01*
X110417428Y-133761238D02*
X110320666Y-133809619D01*
X110127142Y-133809619D01*
X110030380Y-133761238D01*
X109982000Y-133712857D01*
X109933619Y-133616095D01*
X109933619Y-133325809D01*
X109982000Y-133229047D01*
X110030380Y-133180666D01*
X110127142Y-133132285D01*
X110320666Y-133132285D01*
X110417428Y-133180666D01*
X111336666Y-133132285D02*
X111336666Y-133809619D01*
X110901238Y-133132285D02*
X110901238Y-133664476D01*
X110949619Y-133761238D01*
X111046380Y-133809619D01*
X111191523Y-133809619D01*
X111288285Y-133761238D01*
X111336666Y-133712857D01*
X111965619Y-133809619D02*
X111868857Y-133761238D01*
X111820476Y-133664476D01*
X111820476Y-132793619D01*
X112788095Y-133809619D02*
X112788095Y-133277428D01*
X112739714Y-133180666D01*
X112642952Y-133132285D01*
X112449428Y-133132285D01*
X112352666Y-133180666D01*
X112788095Y-133761238D02*
X112691333Y-133809619D01*
X112449428Y-133809619D01*
X112352666Y-133761238D01*
X112304285Y-133664476D01*
X112304285Y-133567714D01*
X112352666Y-133470952D01*
X112449428Y-133422571D01*
X112691333Y-133422571D01*
X112788095Y-133374190D01*
X113271904Y-133809619D02*
X113271904Y-133132285D01*
X113271904Y-133325809D02*
X113320285Y-133229047D01*
X113368666Y-133180666D01*
X113465428Y-133132285D01*
X113562190Y-133132285D01*
X113900857Y-133422571D02*
X114674952Y-133422571D01*
X115594190Y-133809619D02*
X115594190Y-132793619D01*
X115594190Y-133761238D02*
X115497428Y-133809619D01*
X115303904Y-133809619D01*
X115207142Y-133761238D01*
X115158761Y-133712857D01*
X115110380Y-133616095D01*
X115110380Y-133325809D01*
X115158761Y-133229047D01*
X115207142Y-133180666D01*
X115303904Y-133132285D01*
X115497428Y-133132285D01*
X115594190Y-133180666D01*
X116465047Y-133761238D02*
X116368285Y-133809619D01*
X116174761Y-133809619D01*
X116078000Y-133761238D01*
X116029619Y-133664476D01*
X116029619Y-133277428D01*
X116078000Y-133180666D01*
X116174761Y-133132285D01*
X116368285Y-133132285D01*
X116465047Y-133180666D01*
X116513428Y-133277428D01*
X116513428Y-133374190D01*
X116029619Y-133470952D01*
X116852095Y-133132285D02*
X117094000Y-133809619D01*
X117335904Y-133132285D01*
X117722952Y-133809619D02*
X117722952Y-133132285D01*
X117722952Y-132793619D02*
X117674571Y-132842000D01*
X117722952Y-132890380D01*
X117771333Y-132842000D01*
X117722952Y-132793619D01*
X117722952Y-132890380D01*
X118642190Y-133761238D02*
X118545428Y-133809619D01*
X118351904Y-133809619D01*
X118255142Y-133761238D01*
X118206761Y-133712857D01*
X118158380Y-133616095D01*
X118158380Y-133325809D01*
X118206761Y-133229047D01*
X118255142Y-133180666D01*
X118351904Y-133132285D01*
X118545428Y-133132285D01*
X118642190Y-133180666D01*
X119464666Y-133761238D02*
X119367904Y-133809619D01*
X119174380Y-133809619D01*
X119077619Y-133761238D01*
X119029238Y-133664476D01*
X119029238Y-133277428D01*
X119077619Y-133180666D01*
X119174380Y-133132285D01*
X119367904Y-133132285D01*
X119464666Y-133180666D01*
X119513047Y-133277428D01*
X119513047Y-133374190D01*
X119029238Y-133470952D01*
X119900095Y-133761238D02*
X119996857Y-133809619D01*
X120190380Y-133809619D01*
X120287142Y-133761238D01*
X120335523Y-133664476D01*
X120335523Y-133616095D01*
X120287142Y-133519333D01*
X120190380Y-133470952D01*
X120045238Y-133470952D01*
X119948476Y-133422571D01*
X119900095Y-133325809D01*
X119900095Y-133277428D01*
X119948476Y-133180666D01*
X120045238Y-133132285D01*
X120190380Y-133132285D01*
X120287142Y-133180666D01*
D10*
X70436619Y-113804095D02*
X71162333Y-113804095D01*
X71307476Y-113852476D01*
X71404238Y-113949238D01*
X71452619Y-114094380D01*
X71452619Y-114191142D01*
X71452619Y-112884857D02*
X70920428Y-112884857D01*
X70823666Y-112933238D01*
X70775285Y-113030000D01*
X70775285Y-113223523D01*
X70823666Y-113320285D01*
X71404238Y-112884857D02*
X71452619Y-112981619D01*
X71452619Y-113223523D01*
X71404238Y-113320285D01*
X71307476Y-113368666D01*
X71210714Y-113368666D01*
X71113952Y-113320285D01*
X71065571Y-113223523D01*
X71065571Y-112981619D01*
X71017190Y-112884857D01*
X70775285Y-112401047D02*
X71452619Y-112401047D01*
X70872047Y-112401047D02*
X70823666Y-112352666D01*
X70775285Y-112255904D01*
X70775285Y-112110761D01*
X70823666Y-112014000D01*
X70920428Y-111965619D01*
X71452619Y-111965619D01*
X71404238Y-111094761D02*
X71452619Y-111191523D01*
X71452619Y-111385047D01*
X71404238Y-111481809D01*
X71307476Y-111530190D01*
X70920428Y-111530190D01*
X70823666Y-111481809D01*
X70775285Y-111385047D01*
X70775285Y-111191523D01*
X70823666Y-111094761D01*
X70920428Y-111046380D01*
X71017190Y-111046380D01*
X71113952Y-111530190D01*
X71452619Y-110465809D02*
X71404238Y-110562571D01*
X71307476Y-110610952D01*
X70436619Y-110610952D01*
X71452619Y-110078761D02*
X70775285Y-110078761D01*
X70436619Y-110078761D02*
X70485000Y-110127142D01*
X70533380Y-110078761D01*
X70485000Y-110030380D01*
X70436619Y-110078761D01*
X70533380Y-110078761D01*
X71452619Y-109159523D02*
X70920428Y-109159523D01*
X70823666Y-109207904D01*
X70775285Y-109304666D01*
X70775285Y-109498190D01*
X70823666Y-109594952D01*
X71404238Y-109159523D02*
X71452619Y-109256285D01*
X71452619Y-109498190D01*
X71404238Y-109594952D01*
X71307476Y-109643333D01*
X71210714Y-109643333D01*
X71113952Y-109594952D01*
X71065571Y-109498190D01*
X71065571Y-109256285D01*
X71017190Y-109159523D01*
X71452619Y-107901619D02*
X70436619Y-107901619D01*
X71162333Y-107562952D01*
X70436619Y-107224285D01*
X71452619Y-107224285D01*
X71452619Y-106595333D02*
X71404238Y-106692095D01*
X71355857Y-106740476D01*
X71259095Y-106788857D01*
X70968809Y-106788857D01*
X70872047Y-106740476D01*
X70823666Y-106692095D01*
X70775285Y-106595333D01*
X70775285Y-106450190D01*
X70823666Y-106353428D01*
X70872047Y-106305047D01*
X70968809Y-106256666D01*
X71259095Y-106256666D01*
X71355857Y-106305047D01*
X71404238Y-106353428D01*
X71452619Y-106450190D01*
X71452619Y-106595333D01*
X71452619Y-105385809D02*
X70436619Y-105385809D01*
X71404238Y-105385809D02*
X71452619Y-105482571D01*
X71452619Y-105676095D01*
X71404238Y-105772857D01*
X71355857Y-105821238D01*
X71259095Y-105869619D01*
X70968809Y-105869619D01*
X70872047Y-105821238D01*
X70823666Y-105772857D01*
X70775285Y-105676095D01*
X70775285Y-105482571D01*
X70823666Y-105385809D01*
X70775285Y-104466571D02*
X71452619Y-104466571D01*
X70775285Y-104902000D02*
X71307476Y-104902000D01*
X71404238Y-104853619D01*
X71452619Y-104756857D01*
X71452619Y-104611714D01*
X71404238Y-104514952D01*
X71355857Y-104466571D01*
X71452619Y-103837619D02*
X71404238Y-103934380D01*
X71307476Y-103982761D01*
X70436619Y-103982761D01*
X71452619Y-103015142D02*
X70920428Y-103015142D01*
X70823666Y-103063523D01*
X70775285Y-103160285D01*
X70775285Y-103353809D01*
X70823666Y-103450571D01*
X71404238Y-103015142D02*
X71452619Y-103111904D01*
X71452619Y-103353809D01*
X71404238Y-103450571D01*
X71307476Y-103498952D01*
X71210714Y-103498952D01*
X71113952Y-103450571D01*
X71065571Y-103353809D01*
X71065571Y-103111904D01*
X71017190Y-103015142D01*
X71452619Y-102531333D02*
X70775285Y-102531333D01*
X70968809Y-102531333D02*
X70872047Y-102482952D01*
X70823666Y-102434571D01*
X70775285Y-102337809D01*
X70775285Y-102241047D01*
X71452619Y-101128285D02*
X70436619Y-101128285D01*
X70436619Y-100886380D01*
X70485000Y-100741238D01*
X70581761Y-100644476D01*
X70678523Y-100596095D01*
X70872047Y-100547714D01*
X71017190Y-100547714D01*
X71210714Y-100596095D01*
X71307476Y-100644476D01*
X71404238Y-100741238D01*
X71452619Y-100886380D01*
X71452619Y-101128285D01*
X71404238Y-99725238D02*
X71452619Y-99822000D01*
X71452619Y-100015523D01*
X71404238Y-100112285D01*
X71307476Y-100160666D01*
X70920428Y-100160666D01*
X70823666Y-100112285D01*
X70775285Y-100015523D01*
X70775285Y-99822000D01*
X70823666Y-99725238D01*
X70920428Y-99676857D01*
X71017190Y-99676857D01*
X71113952Y-100160666D01*
X70775285Y-99338190D02*
X71452619Y-99096285D01*
X70775285Y-98854380D01*
X71452619Y-98467333D02*
X70775285Y-98467333D01*
X70436619Y-98467333D02*
X70485000Y-98515714D01*
X70533380Y-98467333D01*
X70485000Y-98418952D01*
X70436619Y-98467333D01*
X70533380Y-98467333D01*
X71404238Y-97548095D02*
X71452619Y-97644857D01*
X71452619Y-97838380D01*
X71404238Y-97935142D01*
X71355857Y-97983523D01*
X71259095Y-98031904D01*
X70968809Y-98031904D01*
X70872047Y-97983523D01*
X70823666Y-97935142D01*
X70775285Y-97838380D01*
X70775285Y-97644857D01*
X70823666Y-97548095D01*
X71404238Y-96725619D02*
X71452619Y-96822380D01*
X71452619Y-97015904D01*
X71404238Y-97112666D01*
X71307476Y-97161047D01*
X70920428Y-97161047D01*
X70823666Y-97112666D01*
X70775285Y-97015904D01*
X70775285Y-96822380D01*
X70823666Y-96725619D01*
X70920428Y-96677238D01*
X71017190Y-96677238D01*
X71113952Y-97161047D01*
X73182238Y-112110761D02*
X73230619Y-112014000D01*
X73230619Y-111820476D01*
X73182238Y-111723714D01*
X73085476Y-111675333D01*
X73037095Y-111675333D01*
X72940333Y-111723714D01*
X72891952Y-111820476D01*
X72891952Y-111965619D01*
X72843571Y-112062380D01*
X72746809Y-112110761D01*
X72698428Y-112110761D01*
X72601666Y-112062380D01*
X72553285Y-111965619D01*
X72553285Y-111820476D01*
X72601666Y-111723714D01*
X72553285Y-111385047D02*
X72553285Y-110998000D01*
X72214619Y-111239904D02*
X73085476Y-111239904D01*
X73182238Y-111191523D01*
X73230619Y-111094761D01*
X73230619Y-110998000D01*
X73182238Y-110272285D02*
X73230619Y-110369047D01*
X73230619Y-110562571D01*
X73182238Y-110659333D01*
X73085476Y-110707714D01*
X72698428Y-110707714D01*
X72601666Y-110659333D01*
X72553285Y-110562571D01*
X72553285Y-110369047D01*
X72601666Y-110272285D01*
X72698428Y-110223904D01*
X72795190Y-110223904D01*
X72891952Y-110707714D01*
X72553285Y-109788476D02*
X73569285Y-109788476D01*
X72601666Y-109788476D02*
X72553285Y-109691714D01*
X72553285Y-109498190D01*
X72601666Y-109401428D01*
X72650047Y-109353047D01*
X72746809Y-109304666D01*
X73037095Y-109304666D01*
X73133857Y-109353047D01*
X73182238Y-109401428D01*
X73230619Y-109498190D01*
X73230619Y-109691714D01*
X73182238Y-109788476D01*
X72553285Y-108869238D02*
X73569285Y-108869238D01*
X72601666Y-108869238D02*
X72553285Y-108772476D01*
X72553285Y-108578952D01*
X72601666Y-108482190D01*
X72650047Y-108433809D01*
X72746809Y-108385428D01*
X73037095Y-108385428D01*
X73133857Y-108433809D01*
X73182238Y-108482190D01*
X73230619Y-108578952D01*
X73230619Y-108772476D01*
X73182238Y-108869238D01*
X73182238Y-107562952D02*
X73230619Y-107659714D01*
X73230619Y-107853238D01*
X73182238Y-107950000D01*
X73085476Y-107998380D01*
X72698428Y-107998380D01*
X72601666Y-107950000D01*
X72553285Y-107853238D01*
X72553285Y-107659714D01*
X72601666Y-107562952D01*
X72698428Y-107514571D01*
X72795190Y-107514571D01*
X72891952Y-107998380D01*
X73230619Y-107079142D02*
X72553285Y-107079142D01*
X72746809Y-107079142D02*
X72650047Y-107030761D01*
X72601666Y-106982380D01*
X72553285Y-106885619D01*
X72553285Y-106788857D01*
X73327380Y-106692095D02*
X73327380Y-105918000D01*
X73182238Y-105240666D02*
X73230619Y-105337428D01*
X73230619Y-105530952D01*
X73182238Y-105627714D01*
X73133857Y-105676095D01*
X73037095Y-105724476D01*
X72746809Y-105724476D01*
X72650047Y-105676095D01*
X72601666Y-105627714D01*
X72553285Y-105530952D01*
X72553285Y-105337428D01*
X72601666Y-105240666D01*
X73230619Y-104660095D02*
X73182238Y-104756857D01*
X73133857Y-104805238D01*
X73037095Y-104853619D01*
X72746809Y-104853619D01*
X72650047Y-104805238D01*
X72601666Y-104756857D01*
X72553285Y-104660095D01*
X72553285Y-104514952D01*
X72601666Y-104418190D01*
X72650047Y-104369809D01*
X72746809Y-104321428D01*
X73037095Y-104321428D01*
X73133857Y-104369809D01*
X73182238Y-104418190D01*
X73230619Y-104514952D01*
X73230619Y-104660095D01*
X72553285Y-103886000D02*
X73230619Y-103886000D01*
X72650047Y-103886000D02*
X72601666Y-103837619D01*
X72553285Y-103740857D01*
X72553285Y-103595714D01*
X72601666Y-103498952D01*
X72698428Y-103450571D01*
X73230619Y-103450571D01*
X72553285Y-103111904D02*
X72553285Y-102724857D01*
X72214619Y-102966761D02*
X73085476Y-102966761D01*
X73182238Y-102918380D01*
X73230619Y-102821619D01*
X73230619Y-102724857D01*
X73230619Y-102386190D02*
X72553285Y-102386190D01*
X72746809Y-102386190D02*
X72650047Y-102337809D01*
X72601666Y-102289428D01*
X72553285Y-102192666D01*
X72553285Y-102095904D01*
X73230619Y-101612095D02*
X73182238Y-101708857D01*
X73133857Y-101757238D01*
X73037095Y-101805619D01*
X72746809Y-101805619D01*
X72650047Y-101757238D01*
X72601666Y-101708857D01*
X72553285Y-101612095D01*
X72553285Y-101466952D01*
X72601666Y-101370190D01*
X72650047Y-101321809D01*
X72746809Y-101273428D01*
X73037095Y-101273428D01*
X73133857Y-101321809D01*
X73182238Y-101370190D01*
X73230619Y-101466952D01*
X73230619Y-101612095D01*
X73230619Y-100692857D02*
X73182238Y-100789619D01*
X73085476Y-100838000D01*
X72214619Y-100838000D01*
X73230619Y-100160666D02*
X73182238Y-100257428D01*
X73085476Y-100305809D01*
X72214619Y-100305809D01*
X73182238Y-99386571D02*
X73230619Y-99483333D01*
X73230619Y-99676857D01*
X73182238Y-99773619D01*
X73085476Y-99822000D01*
X72698428Y-99822000D01*
X72601666Y-99773619D01*
X72553285Y-99676857D01*
X72553285Y-99483333D01*
X72601666Y-99386571D01*
X72698428Y-99338190D01*
X72795190Y-99338190D01*
X72891952Y-99822000D01*
X73230619Y-98902761D02*
X72553285Y-98902761D01*
X72746809Y-98902761D02*
X72650047Y-98854380D01*
X72601666Y-98806000D01*
X72553285Y-98709238D01*
X72553285Y-98612476D01*
X74331285Y-112449428D02*
X75347285Y-112449428D01*
X74379666Y-112449428D02*
X74331285Y-112352666D01*
X74331285Y-112159142D01*
X74379666Y-112062380D01*
X74428047Y-112014000D01*
X74524809Y-111965619D01*
X74815095Y-111965619D01*
X74911857Y-112014000D01*
X74960238Y-112062380D01*
X75008619Y-112159142D01*
X75008619Y-112352666D01*
X74960238Y-112449428D01*
X75008619Y-111094761D02*
X74476428Y-111094761D01*
X74379666Y-111143142D01*
X74331285Y-111239904D01*
X74331285Y-111433428D01*
X74379666Y-111530190D01*
X74960238Y-111094761D02*
X75008619Y-111191523D01*
X75008619Y-111433428D01*
X74960238Y-111530190D01*
X74863476Y-111578571D01*
X74766714Y-111578571D01*
X74669952Y-111530190D01*
X74621571Y-111433428D01*
X74621571Y-111191523D01*
X74573190Y-111094761D01*
X75008619Y-110610952D02*
X74331285Y-110610952D01*
X74524809Y-110610952D02*
X74428047Y-110562571D01*
X74379666Y-110514190D01*
X74331285Y-110417428D01*
X74331285Y-110320666D01*
X74331285Y-110127142D02*
X74331285Y-109740095D01*
X73992619Y-109982000D02*
X74863476Y-109982000D01*
X74960238Y-109933619D01*
X75008619Y-109836857D01*
X75008619Y-109740095D01*
X75105380Y-109643333D02*
X75105380Y-108869238D01*
X74331285Y-108627333D02*
X75008619Y-108627333D01*
X74428047Y-108627333D02*
X74379666Y-108578952D01*
X74331285Y-108482190D01*
X74331285Y-108337047D01*
X74379666Y-108240285D01*
X74476428Y-108191904D01*
X75008619Y-108191904D01*
X74331285Y-107272666D02*
X75008619Y-107272666D01*
X74331285Y-107708095D02*
X74863476Y-107708095D01*
X74960238Y-107659714D01*
X75008619Y-107562952D01*
X75008619Y-107417809D01*
X74960238Y-107321047D01*
X74911857Y-107272666D01*
X75008619Y-106788857D02*
X74331285Y-106788857D01*
X74428047Y-106788857D02*
X74379666Y-106740476D01*
X74331285Y-106643714D01*
X74331285Y-106498571D01*
X74379666Y-106401809D01*
X74476428Y-106353428D01*
X75008619Y-106353428D01*
X74476428Y-106353428D02*
X74379666Y-106305047D01*
X74331285Y-106208285D01*
X74331285Y-106063142D01*
X74379666Y-105966380D01*
X74476428Y-105918000D01*
X75008619Y-105918000D01*
X75008619Y-105434190D02*
X73992619Y-105434190D01*
X74379666Y-105434190D02*
X74331285Y-105337428D01*
X74331285Y-105143904D01*
X74379666Y-105047142D01*
X74428047Y-104998761D01*
X74524809Y-104950380D01*
X74815095Y-104950380D01*
X74911857Y-104998761D01*
X74960238Y-105047142D01*
X75008619Y-105143904D01*
X75008619Y-105337428D01*
X74960238Y-105434190D01*
X74960238Y-104127904D02*
X75008619Y-104224666D01*
X75008619Y-104418190D01*
X74960238Y-104514952D01*
X74863476Y-104563333D01*
X74476428Y-104563333D01*
X74379666Y-104514952D01*
X74331285Y-104418190D01*
X74331285Y-104224666D01*
X74379666Y-104127904D01*
X74476428Y-104079523D01*
X74573190Y-104079523D01*
X74669952Y-104563333D01*
X75008619Y-103644095D02*
X74331285Y-103644095D01*
X74524809Y-103644095D02*
X74428047Y-103595714D01*
X74379666Y-103547333D01*
X74331285Y-103450571D01*
X74331285Y-103353809D01*
X74911857Y-103015142D02*
X74960238Y-102966761D01*
X75008619Y-103015142D01*
X74960238Y-103063523D01*
X74911857Y-103015142D01*
X75008619Y-103015142D01*
X74379666Y-103015142D02*
X74428047Y-102966761D01*
X74476428Y-103015142D01*
X74428047Y-103063523D01*
X74379666Y-103015142D01*
X74476428Y-103015142D01*
X75008619Y-101225047D02*
X75008619Y-101805619D01*
X75008619Y-101515333D02*
X73992619Y-101515333D01*
X74137761Y-101612095D01*
X74234523Y-101708857D01*
X74282904Y-101805619D01*
X75008619Y-100257428D02*
X75008619Y-100838000D01*
X75008619Y-100547714D02*
X73992619Y-100547714D01*
X74137761Y-100644476D01*
X74234523Y-100741238D01*
X74282904Y-100838000D01*
X74331285Y-99386571D02*
X75008619Y-99386571D01*
X73944238Y-99628476D02*
X74669952Y-99870380D01*
X74669952Y-99241428D01*
X73992619Y-98660857D02*
X73992619Y-98564095D01*
X74041000Y-98467333D01*
X74089380Y-98418952D01*
X74186142Y-98370571D01*
X74379666Y-98322190D01*
X74621571Y-98322190D01*
X74815095Y-98370571D01*
X74911857Y-98418952D01*
X74960238Y-98467333D01*
X75008619Y-98564095D01*
X75008619Y-98660857D01*
X74960238Y-98757619D01*
X74911857Y-98805999D01*
X74815095Y-98854380D01*
X74621571Y-98902761D01*
X74379666Y-98902761D01*
X74186142Y-98854380D01*
X74089380Y-98805999D01*
X74041000Y-98757619D01*
X73992619Y-98660857D01*
X75770619Y-113296095D02*
X75770619Y-113199333D01*
X75819000Y-113102571D01*
X75867380Y-113054190D01*
X75964142Y-113005809D01*
X76157666Y-112957428D01*
X76399571Y-112957428D01*
X76593095Y-113005809D01*
X76689857Y-113054190D01*
X76738238Y-113102571D01*
X76786619Y-113199333D01*
X76786619Y-113296095D01*
X76738238Y-113392857D01*
X76689857Y-113441238D01*
X76593095Y-113489619D01*
X76399571Y-113538000D01*
X76157666Y-113538000D01*
X75964142Y-113489619D01*
X75867380Y-113441238D01*
X75819000Y-113392857D01*
X75770619Y-113296095D01*
X76109285Y-112086571D02*
X76786619Y-112086571D01*
X75722238Y-112328476D02*
X76447952Y-112570380D01*
X76447952Y-111941428D01*
X75722238Y-110828666D02*
X77028523Y-111699523D01*
X75867380Y-110538380D02*
X75819000Y-110490000D01*
X75770619Y-110393238D01*
X75770619Y-110151333D01*
X75819000Y-110054571D01*
X75867380Y-110006190D01*
X75964142Y-109957809D01*
X76060904Y-109957809D01*
X76206047Y-110006190D01*
X76786619Y-110586761D01*
X76786619Y-109957809D01*
X75770619Y-109328857D02*
X75770619Y-109232095D01*
X75819000Y-109135333D01*
X75867380Y-109086952D01*
X75964142Y-109038571D01*
X76157666Y-108990190D01*
X76399571Y-108990190D01*
X76593095Y-109038571D01*
X76689857Y-109086952D01*
X76738238Y-109135333D01*
X76786619Y-109232095D01*
X76786619Y-109328857D01*
X76738238Y-109425619D01*
X76689857Y-109474000D01*
X76593095Y-109522380D01*
X76399571Y-109570761D01*
X76157666Y-109570761D01*
X75964142Y-109522380D01*
X75867380Y-109474000D01*
X75819000Y-109425619D01*
X75770619Y-109328857D01*
X76786619Y-108022571D02*
X76786619Y-108603142D01*
X76786619Y-108312857D02*
X75770619Y-108312857D01*
X75915761Y-108409619D01*
X76012523Y-108506380D01*
X76060904Y-108603142D01*
X76786619Y-107538761D02*
X76786619Y-107345238D01*
X76738238Y-107248476D01*
X76689857Y-107200095D01*
X76544714Y-107103333D01*
X76351190Y-107054952D01*
X75964142Y-107054952D01*
X75867380Y-107103333D01*
X75819000Y-107151714D01*
X75770619Y-107248476D01*
X75770619Y-107442000D01*
X75819000Y-107538761D01*
X75867380Y-107587142D01*
X75964142Y-107635523D01*
X76206047Y-107635523D01*
X76302809Y-107587142D01*
X76351190Y-107538761D01*
X76399571Y-107442000D01*
X76399571Y-107248476D01*
X76351190Y-107151714D01*
X76302809Y-107103333D01*
X76206047Y-107054952D01*
X76109285Y-105942190D02*
X76786619Y-105700285D01*
X76109285Y-105458380D01*
X76738238Y-104684285D02*
X76786619Y-104781047D01*
X76786619Y-104974571D01*
X76738238Y-105071333D01*
X76641476Y-105119714D01*
X76254428Y-105119714D01*
X76157666Y-105071333D01*
X76109285Y-104974571D01*
X76109285Y-104781047D01*
X76157666Y-104684285D01*
X76254428Y-104635904D01*
X76351190Y-104635904D01*
X76447952Y-105119714D01*
X76786619Y-104200476D02*
X76109285Y-104200476D01*
X76302809Y-104200476D02*
X76206047Y-104152095D01*
X76157666Y-104103714D01*
X76109285Y-104006952D01*
X76109285Y-103910190D01*
X76786619Y-102265238D02*
X76786619Y-102845809D01*
X76786619Y-102555523D02*
X75770619Y-102555523D01*
X75915761Y-102652285D01*
X76012523Y-102749047D01*
X76060904Y-102845809D01*
X76689857Y-101829809D02*
X76738238Y-101781428D01*
X76786619Y-101829809D01*
X76738238Y-101878190D01*
X76689857Y-101829809D01*
X76786619Y-101829809D01*
X75770619Y-101442761D02*
X75770619Y-100813809D01*
X76157666Y-101152476D01*
X76157666Y-101007333D01*
X76206047Y-100910571D01*
X76254428Y-100862190D01*
X76351190Y-100813809D01*
X76593095Y-100813809D01*
X76689857Y-100862190D01*
X76738238Y-100910571D01*
X76786619Y-101007333D01*
X76786619Y-101297619D01*
X76738238Y-101394380D01*
X76689857Y-101442761D01*
X75770619Y-99120476D02*
X75770619Y-99604285D01*
X76254428Y-99652666D01*
X76206047Y-99604285D01*
X76157666Y-99507523D01*
X76157666Y-99265619D01*
X76206047Y-99168857D01*
X76254428Y-99120476D01*
X76351190Y-99072095D01*
X76593095Y-99072095D01*
X76689857Y-99120476D01*
X76738238Y-99168857D01*
X76786619Y-99265619D01*
X76786619Y-99507523D01*
X76738238Y-99604285D01*
X76689857Y-99652666D01*
X76786619Y-98733428D02*
X76109285Y-98201238D01*
X76109285Y-98733428D02*
X76786619Y-98201238D01*
X75770619Y-97910952D02*
X75770619Y-97282000D01*
X76157666Y-97620666D01*
X76157666Y-97475523D01*
X76206047Y-97378761D01*
X76254428Y-97330380D01*
X76351190Y-97282000D01*
X76593095Y-97282000D01*
X76689857Y-97330380D01*
X76738238Y-97378761D01*
X76786619Y-97475523D01*
X76786619Y-97765809D01*
X76738238Y-97862571D01*
X76689857Y-97910952D01*
D13*
%TO.C,SS1*%
X157734000Y-101600000D02*
G75*
G03X157734000Y-101600000I-254000J0D01*
G01*
X156464000Y-100330000D02*
G75*
G03X156464000Y-100330000I-254000J0D01*
G01*
X156464000Y-102870000D02*
G75*
G03X156464000Y-102870000I-254000J0D01*
G01*
X175260000Y-91440000D02*
X154940000Y-91440000D01*
X154940000Y-91440000D02*
X154940000Y-106680000D01*
X154940000Y-106680000D02*
X175260000Y-106680000D01*
X175260000Y-106680000D02*
X175260000Y-91440000D01*
%TO.C,SS2*%
X124714000Y-101600000D02*
G75*
G03X124714000Y-101600000I-254000J0D01*
G01*
X123444000Y-100330000D02*
G75*
G03X123444000Y-100330000I-254000J0D01*
G01*
X123444000Y-102870000D02*
G75*
G03X123444000Y-102870000I-254000J0D01*
G01*
X142240000Y-91440000D02*
X121920000Y-91440000D01*
X121920000Y-91440000D02*
X121920000Y-106680000D01*
X121920000Y-106680000D02*
X142240000Y-106680000D01*
X142240000Y-106680000D02*
X142240000Y-91440000D01*
%TO.C,SS3*%
X91694000Y-101600000D02*
G75*
G03X91694000Y-101600000I-254000J0D01*
G01*
X90424000Y-100330000D02*
G75*
G03X90424000Y-100330000I-254000J0D01*
G01*
X90424000Y-102870000D02*
G75*
G03X90424000Y-102870000I-254000J0D01*
G01*
X109220000Y-91440000D02*
X88900000Y-91440000D01*
X88900000Y-91440000D02*
X88900000Y-106680000D01*
X88900000Y-106680000D02*
X109220000Y-106680000D01*
X109220000Y-106680000D02*
X109220000Y-91440000D01*
%TO.C,MDB1*%
X167640000Y-135890000D02*
G75*
G03X167640000Y-135890000I-2540000J0D01*
G01*
X167640000Y-74930000D02*
G75*
G03X167640000Y-74930000I-2540000J0D01*
G01*
X76200000Y-130810000D02*
G75*
G03X76200000Y-130810000I-2540000J0D01*
G01*
X76200000Y-80010000D02*
G75*
G03X76200000Y-80010000I-2540000J0D01*
G01*
D14*
%TO.C,P1*%
X191135000Y-100330000D02*
X191135000Y-110490000D01*
X177800000Y-100330000D02*
X191135000Y-100330000D01*
X177800000Y-110490000D02*
X191135000Y-110490000D01*
X177800000Y-100330000D02*
X177800000Y-110490000D01*
%TO.C,REG1*%
X70485000Y-125095000D02*
X81915000Y-125095000D01*
X70485000Y-116840000D02*
X70485000Y-125095000D01*
X81915000Y-116840000D02*
X70485000Y-116840000D01*
X81915000Y-125095000D02*
X81915000Y-116840000D01*
D13*
%TO.C,C6*%
X147701000Y-103886000D02*
X149352000Y-103886000D01*
X147193000Y-103759000D02*
X149860000Y-103759000D01*
X146812000Y-103632000D02*
X150241000Y-103632000D01*
X146558000Y-103505000D02*
X150495000Y-103505000D01*
X146304000Y-103378000D02*
X150876000Y-103378000D01*
X146050000Y-103251000D02*
X151003000Y-103251000D01*
X145923000Y-103124000D02*
X151257000Y-103124000D01*
X145669000Y-102997000D02*
X151384000Y-102997000D01*
X145542000Y-102870000D02*
X151638000Y-102870000D01*
X145288000Y-102743000D02*
X151765000Y-102743000D01*
X145161000Y-102616000D02*
X152019000Y-102616000D01*
X145034000Y-102489000D02*
X152146000Y-102489000D01*
D15*
X153590000Y-99060000D02*
G75*
G03X153590000Y-99060000I-5000000J0D01*
G01*
X143440000Y-104210000D02*
X153740000Y-104210000D01*
X153740000Y-94910000D02*
X153740000Y-104210000D01*
X152740000Y-93910000D02*
X153740000Y-94910000D01*
X144440000Y-93910000D02*
X152740000Y-93910000D01*
X143440000Y-94910000D02*
X144440000Y-93910000D01*
X143440000Y-104210000D02*
X143440000Y-94910000D01*
D13*
%TO.C,C12*%
X114681000Y-103886000D02*
X116332000Y-103886000D01*
X114173000Y-103759000D02*
X116840000Y-103759000D01*
X113792000Y-103632000D02*
X117221000Y-103632000D01*
X113538000Y-103505000D02*
X117475000Y-103505000D01*
X113284000Y-103378000D02*
X117856000Y-103378000D01*
X113030000Y-103251000D02*
X117983000Y-103251000D01*
X112903000Y-103124000D02*
X118237000Y-103124000D01*
X112649000Y-102997000D02*
X118364000Y-102997000D01*
X112522000Y-102870000D02*
X118618000Y-102870000D01*
X112268000Y-102743000D02*
X118745000Y-102743000D01*
X112141000Y-102616000D02*
X118999000Y-102616000D01*
X112014000Y-102489000D02*
X119126000Y-102489000D01*
D15*
X120570000Y-99060000D02*
G75*
G03X120570000Y-99060000I-5000000J0D01*
G01*
X110420000Y-104210000D02*
X120720000Y-104210000D01*
X120720000Y-94910000D02*
X120720000Y-104210000D01*
X119720000Y-93910000D02*
X120720000Y-94910000D01*
X111420000Y-93910000D02*
X119720000Y-93910000D01*
X110420000Y-94910000D02*
X111420000Y-93910000D01*
X110420000Y-104210000D02*
X110420000Y-94910000D01*
D13*
%TO.C,C18*%
X81661000Y-103886000D02*
X83312000Y-103886000D01*
X81153000Y-103759000D02*
X83820000Y-103759000D01*
X80772000Y-103632000D02*
X84201000Y-103632000D01*
X80518000Y-103505000D02*
X84455000Y-103505000D01*
X80264000Y-103378000D02*
X84836000Y-103378000D01*
X80010000Y-103251000D02*
X84963000Y-103251000D01*
X79883000Y-103124000D02*
X85217000Y-103124000D01*
X79629000Y-102997000D02*
X85344000Y-102997000D01*
X79502000Y-102870000D02*
X85598000Y-102870000D01*
X79248000Y-102743000D02*
X85725000Y-102743000D01*
X79121000Y-102616000D02*
X85979000Y-102616000D01*
X78994000Y-102489000D02*
X86106000Y-102489000D01*
D15*
X87550000Y-99060000D02*
G75*
G03X87550000Y-99060000I-5000000J0D01*
G01*
X77400000Y-104210000D02*
X87700000Y-104210000D01*
X87700000Y-94910000D02*
X87700000Y-104210000D01*
X86700000Y-93910000D02*
X87700000Y-94910000D01*
X78400000Y-93910000D02*
X86700000Y-93910000D01*
X77400000Y-94910000D02*
X78400000Y-93910000D01*
X77400000Y-104210000D02*
X77400000Y-94910000D01*
D14*
%TO.C,T1*%
X170180000Y-86360000D02*
G75*
G03X175260000Y-86360000I2540000J2540000D01*
G01*
X154940000Y-86360000D02*
G75*
G03X160020000Y-86360000I2540000J2540000D01*
G01*
X154940000Y-86360000D02*
X154940000Y-80010000D01*
X154940000Y-80010000D02*
X175260000Y-80010000D01*
X175260000Y-80010000D02*
X175260000Y-86360000D01*
X160020000Y-86360000D02*
G75*
G03X165100000Y-86360000I2540000J2540000D01*
G01*
X165100000Y-86360000D02*
G75*
G03X170180000Y-86360000I2540000J2540000D01*
G01*
X176276000Y-87630000D02*
X176276000Y-79019400D01*
X153924000Y-79019400D02*
X176276000Y-79019400D01*
X153924000Y-87630000D02*
X153924000Y-79019400D01*
X153924000Y-87630000D02*
X176276000Y-87630000D01*
%TO.C,T2*%
X172466000Y-126365000D02*
G75*
G03X169164000Y-126365000I-1651000J-1651000D01*
G01*
X172466000Y-121285000D02*
X171577000Y-121285000D01*
X171577000Y-121285000D02*
X171577000Y-120777000D01*
X171577000Y-120777000D02*
X172466000Y-120777000D01*
X172466000Y-120777000D02*
X172466000Y-120142000D01*
X172466000Y-120142000D02*
X169164000Y-120142000D01*
X169164000Y-120142000D02*
X169164000Y-120777000D01*
X169164000Y-120777000D02*
X170053000Y-120777000D01*
X170053000Y-120777000D02*
X170053000Y-121285000D01*
X170053000Y-121285000D02*
X169164000Y-121285000D01*
X169164000Y-126365000D02*
X169164000Y-121285000D01*
X172466000Y-126365000D02*
X172466000Y-121285000D01*
X168656000Y-121285000D02*
X167767000Y-121285000D01*
X167767000Y-121285000D02*
X167767000Y-120777000D01*
X167767000Y-120777000D02*
X168656000Y-120777000D01*
X168656000Y-120777000D02*
X168656000Y-120142000D01*
X168656000Y-120142000D02*
X165354000Y-120142000D01*
X165354000Y-120142000D02*
X165354000Y-120777000D01*
X165354000Y-120777000D02*
X166243000Y-120777000D01*
X166243000Y-120777000D02*
X166243000Y-121285000D01*
X166243000Y-121285000D02*
X165354000Y-121285000D01*
X168656000Y-126365000D02*
G75*
G03X165354000Y-126365000I-1651000J-1651000D01*
G01*
X168656000Y-126365000D02*
X168656000Y-121285000D01*
X165354000Y-126365000D02*
X165354000Y-121285000D01*
X164846000Y-121285000D02*
X163957000Y-121285000D01*
X163957000Y-121285000D02*
X163957000Y-120777000D01*
X163957000Y-120777000D02*
X164846000Y-120777000D01*
X164846000Y-120777000D02*
X164846000Y-120142000D01*
X164846000Y-120142000D02*
X161544000Y-120142000D01*
X161544000Y-120142000D02*
X161544000Y-120777000D01*
X161544000Y-120777000D02*
X162433000Y-120777000D01*
X162433000Y-120777000D02*
X162433000Y-121285000D01*
X162433000Y-121285000D02*
X161544000Y-121285000D01*
X160147000Y-121285000D02*
X160147000Y-120777000D01*
X160147000Y-120777000D02*
X161036000Y-120777000D01*
X161036000Y-120777000D02*
X161036000Y-120142000D01*
X161036000Y-120142000D02*
X157734000Y-120142000D01*
X157734000Y-120142000D02*
X157734000Y-120777000D01*
X157734000Y-120777000D02*
X158623000Y-120777000D01*
X158623000Y-120777000D02*
X158623000Y-121285000D01*
X158623000Y-121285000D02*
X157734000Y-121285000D01*
X161036000Y-121285000D02*
X160147000Y-121285000D01*
X164846000Y-126365000D02*
G75*
G03X161544000Y-126365000I-1651000J-1651000D01*
G01*
X161544000Y-126365000D02*
X161544000Y-121285000D01*
X164846000Y-126365000D02*
X164846000Y-121285000D01*
X161036000Y-126365000D02*
G75*
G03X157734000Y-126365000I-1651000J-1651000D01*
G01*
X157734000Y-126365000D02*
X157734000Y-121285000D01*
X161036000Y-126365000D02*
X161036000Y-121285000D01*
X173415000Y-126825000D02*
X173415000Y-119575000D01*
X156785000Y-119575000D02*
X173415000Y-119575000D01*
X156785000Y-126825000D02*
X156785000Y-119575000D01*
X156785000Y-126825000D02*
X173415000Y-126825000D01*
%TO.C,T3*%
X137160000Y-86360000D02*
G75*
G03X142240000Y-86360000I2540000J2540000D01*
G01*
X121920000Y-86360000D02*
G75*
G03X127000000Y-86360000I2540000J2540000D01*
G01*
X121920000Y-86360000D02*
X121920000Y-80010000D01*
X121920000Y-80010000D02*
X142240000Y-80010000D01*
X142240000Y-80010000D02*
X142240000Y-86360000D01*
X127000000Y-86360000D02*
G75*
G03X132080000Y-86360000I2540000J2540000D01*
G01*
X132080000Y-86360000D02*
G75*
G03X137160000Y-86360000I2540000J2540000D01*
G01*
X143256000Y-87630000D02*
X143256000Y-79019400D01*
X120904000Y-79019400D02*
X143256000Y-79019400D01*
X120904000Y-87630000D02*
X120904000Y-79019400D01*
X120904000Y-87630000D02*
X143256000Y-87630000D01*
%TO.C,T4*%
X139446000Y-126365000D02*
G75*
G03X136144000Y-126365000I-1651000J-1651000D01*
G01*
X139446000Y-121285000D02*
X138557000Y-121285000D01*
X138557000Y-121285000D02*
X138557000Y-120777000D01*
X138557000Y-120777000D02*
X139446000Y-120777000D01*
X139446000Y-120777000D02*
X139446000Y-120142000D01*
X139446000Y-120142000D02*
X136144000Y-120142000D01*
X136144000Y-120142000D02*
X136144000Y-120777000D01*
X136144000Y-120777000D02*
X137033000Y-120777000D01*
X137033000Y-120777000D02*
X137033000Y-121285000D01*
X137033000Y-121285000D02*
X136144000Y-121285000D01*
X136144000Y-126365000D02*
X136144000Y-121285000D01*
X139446000Y-126365000D02*
X139446000Y-121285000D01*
X135636000Y-121285000D02*
X134747000Y-121285000D01*
X134747000Y-121285000D02*
X134747000Y-120777000D01*
X134747000Y-120777000D02*
X135636000Y-120777000D01*
X135636000Y-120777000D02*
X135636000Y-120142000D01*
X135636000Y-120142000D02*
X132334000Y-120142000D01*
X132334000Y-120142000D02*
X132334000Y-120777000D01*
X132334000Y-120777000D02*
X133223000Y-120777000D01*
X133223000Y-120777000D02*
X133223000Y-121285000D01*
X133223000Y-121285000D02*
X132334000Y-121285000D01*
X135636000Y-126365000D02*
G75*
G03X132334000Y-126365000I-1651000J-1651000D01*
G01*
X135636000Y-126365000D02*
X135636000Y-121285000D01*
X132334000Y-126365000D02*
X132334000Y-121285000D01*
X131826000Y-121285000D02*
X130937000Y-121285000D01*
X130937000Y-121285000D02*
X130937000Y-120777000D01*
X130937000Y-120777000D02*
X131826000Y-120777000D01*
X131826000Y-120777000D02*
X131826000Y-120142000D01*
X131826000Y-120142000D02*
X128524000Y-120142000D01*
X128524000Y-120142000D02*
X128524000Y-120777000D01*
X128524000Y-120777000D02*
X129413000Y-120777000D01*
X129413000Y-120777000D02*
X129413000Y-121285000D01*
X129413000Y-121285000D02*
X128524000Y-121285000D01*
X127127000Y-121285000D02*
X127127000Y-120777000D01*
X127127000Y-120777000D02*
X128016000Y-120777000D01*
X128016000Y-120777000D02*
X128016000Y-120142000D01*
X128016000Y-120142000D02*
X124714000Y-120142000D01*
X124714000Y-120142000D02*
X124714000Y-120777000D01*
X124714000Y-120777000D02*
X125603000Y-120777000D01*
X125603000Y-120777000D02*
X125603000Y-121285000D01*
X125603000Y-121285000D02*
X124714000Y-121285000D01*
X128016000Y-121285000D02*
X127127000Y-121285000D01*
X131826000Y-126365000D02*
G75*
G03X128524000Y-126365000I-1651000J-1651000D01*
G01*
X128524000Y-126365000D02*
X128524000Y-121285000D01*
X131826000Y-126365000D02*
X131826000Y-121285000D01*
X128016000Y-126365000D02*
G75*
G03X124714000Y-126365000I-1651000J-1651000D01*
G01*
X124714000Y-126365000D02*
X124714000Y-121285000D01*
X128016000Y-126365000D02*
X128016000Y-121285000D01*
X140395000Y-126825000D02*
X140395000Y-119575000D01*
X123765000Y-119575000D02*
X140395000Y-119575000D01*
X123765000Y-126825000D02*
X123765000Y-119575000D01*
X123765000Y-126825000D02*
X140395000Y-126825000D01*
%TO.C,T5*%
X104140000Y-86360000D02*
G75*
G03X109220000Y-86360000I2540000J2540000D01*
G01*
X88900000Y-86360000D02*
G75*
G03X93980000Y-86360000I2540000J2540000D01*
G01*
X88900000Y-86360000D02*
X88900000Y-80010000D01*
X88900000Y-80010000D02*
X109220000Y-80010000D01*
X109220000Y-80010000D02*
X109220000Y-86360000D01*
X93980000Y-86360000D02*
G75*
G03X99060000Y-86360000I2540000J2540000D01*
G01*
X99060000Y-86360000D02*
G75*
G03X104140000Y-86360000I2540000J2540000D01*
G01*
X110236000Y-87630000D02*
X110236000Y-79019400D01*
X87884000Y-79019400D02*
X110236000Y-79019400D01*
X87884000Y-87630000D02*
X87884000Y-79019400D01*
X87884000Y-87630000D02*
X110236000Y-87630000D01*
%TO.C,T6*%
X106426000Y-126365000D02*
G75*
G03X103124000Y-126365000I-1651000J-1651000D01*
G01*
X106426000Y-121285000D02*
X105537000Y-121285000D01*
X105537000Y-121285000D02*
X105537000Y-120777000D01*
X105537000Y-120777000D02*
X106426000Y-120777000D01*
X106426000Y-120777000D02*
X106426000Y-120142000D01*
X106426000Y-120142000D02*
X103124000Y-120142000D01*
X103124000Y-120142000D02*
X103124000Y-120777000D01*
X103124000Y-120777000D02*
X104013000Y-120777000D01*
X104013000Y-120777000D02*
X104013000Y-121285000D01*
X104013000Y-121285000D02*
X103124000Y-121285000D01*
X103124000Y-126365000D02*
X103124000Y-121285000D01*
X106426000Y-126365000D02*
X106426000Y-121285000D01*
X102616000Y-121285000D02*
X101727000Y-121285000D01*
X101727000Y-121285000D02*
X101727000Y-120777000D01*
X101727000Y-120777000D02*
X102616000Y-120777000D01*
X102616000Y-120777000D02*
X102616000Y-120142000D01*
X102616000Y-120142000D02*
X99314000Y-120142000D01*
X99314000Y-120142000D02*
X99314000Y-120777000D01*
X99314000Y-120777000D02*
X100203000Y-120777000D01*
X100203000Y-120777000D02*
X100203000Y-121285000D01*
X100203000Y-121285000D02*
X99314000Y-121285000D01*
X102616000Y-126365000D02*
G75*
G03X99314000Y-126365000I-1651000J-1651000D01*
G01*
X102616000Y-126365000D02*
X102616000Y-121285000D01*
X99314000Y-126365000D02*
X99314000Y-121285000D01*
X98806000Y-121285000D02*
X97917000Y-121285000D01*
X97917000Y-121285000D02*
X97917000Y-120777000D01*
X97917000Y-120777000D02*
X98806000Y-120777000D01*
X98806000Y-120777000D02*
X98806000Y-120142000D01*
X98806000Y-120142000D02*
X95504000Y-120142000D01*
X95504000Y-120142000D02*
X95504000Y-120777000D01*
X95504000Y-120777000D02*
X96393000Y-120777000D01*
X96393000Y-120777000D02*
X96393000Y-121285000D01*
X96393000Y-121285000D02*
X95504000Y-121285000D01*
X94107000Y-121285000D02*
X94107000Y-120777000D01*
X94107000Y-120777000D02*
X94996000Y-120777000D01*
X94996000Y-120777000D02*
X94996000Y-120142000D01*
X94996000Y-120142000D02*
X91694000Y-120142000D01*
X91694000Y-120142000D02*
X91694000Y-120777000D01*
X91694000Y-120777000D02*
X92583000Y-120777000D01*
X92583000Y-120777000D02*
X92583000Y-121285000D01*
X92583000Y-121285000D02*
X91694000Y-121285000D01*
X94996000Y-121285000D02*
X94107000Y-121285000D01*
X98806000Y-126365000D02*
G75*
G03X95504000Y-126365000I-1651000J-1651000D01*
G01*
X95504000Y-126365000D02*
X95504000Y-121285000D01*
X98806000Y-126365000D02*
X98806000Y-121285000D01*
X94996000Y-126365000D02*
G75*
G03X91694000Y-126365000I-1651000J-1651000D01*
G01*
X91694000Y-126365000D02*
X91694000Y-121285000D01*
X94996000Y-126365000D02*
X94996000Y-121285000D01*
X107375000Y-126825000D02*
X107375000Y-119575000D01*
X90745000Y-119575000D02*
X107375000Y-119575000D01*
X90745000Y-126825000D02*
X90745000Y-119575000D01*
X90745000Y-126825000D02*
X107375000Y-126825000D01*
%TD*%
%TO.C,SS1*%
D10*
X176511238Y-93817904D02*
X176559619Y-93672761D01*
X176559619Y-93430857D01*
X176511238Y-93334095D01*
X176462857Y-93285714D01*
X176366095Y-93237333D01*
X176269333Y-93237333D01*
X176172571Y-93285714D01*
X176124190Y-93334095D01*
X176075809Y-93430857D01*
X176027428Y-93624380D01*
X175979047Y-93721142D01*
X175930666Y-93769523D01*
X175833904Y-93817904D01*
X175737142Y-93817904D01*
X175640380Y-93769523D01*
X175592000Y-93721142D01*
X175543619Y-93624380D01*
X175543619Y-93382476D01*
X175592000Y-93237333D01*
X176511238Y-92850285D02*
X176559619Y-92705142D01*
X176559619Y-92463238D01*
X176511238Y-92366476D01*
X176462857Y-92318095D01*
X176366095Y-92269714D01*
X176269333Y-92269714D01*
X176172571Y-92318095D01*
X176124190Y-92366476D01*
X176075809Y-92463238D01*
X176027428Y-92656761D01*
X175979047Y-92753523D01*
X175930666Y-92801904D01*
X175833904Y-92850285D01*
X175737142Y-92850285D01*
X175640380Y-92801904D01*
X175592000Y-92753523D01*
X175543619Y-92656761D01*
X175543619Y-92414857D01*
X175592000Y-92269714D01*
X176559619Y-91302095D02*
X176559619Y-91882666D01*
X176559619Y-91592380D02*
X175543619Y-91592380D01*
X175688761Y-91689142D01*
X175785523Y-91785904D01*
X175833904Y-91882666D01*
X173482000Y-97294095D02*
X173433619Y-97390857D01*
X173433619Y-97536000D01*
X173482000Y-97681142D01*
X173578761Y-97777904D01*
X173675523Y-97826285D01*
X173869047Y-97874666D01*
X174014190Y-97874666D01*
X174207714Y-97826285D01*
X174304476Y-97777904D01*
X174401238Y-97681142D01*
X174449619Y-97536000D01*
X174449619Y-97439238D01*
X174401238Y-97294095D01*
X174352857Y-97245714D01*
X174014190Y-97245714D01*
X174014190Y-97439238D01*
X174449619Y-96810285D02*
X173433619Y-96810285D01*
X174449619Y-96229714D01*
X173433619Y-96229714D01*
X174449619Y-95745904D02*
X173433619Y-95745904D01*
X173433619Y-95504000D01*
X173482000Y-95358857D01*
X173578761Y-95262095D01*
X173675523Y-95213714D01*
X173869047Y-95165333D01*
X174014190Y-95165333D01*
X174207714Y-95213714D01*
X174304476Y-95262095D01*
X174401238Y-95358857D01*
X174449619Y-95504000D01*
X174449619Y-95745904D01*
X170893619Y-97632761D02*
X171909619Y-97294095D01*
X170893619Y-96955428D01*
X171909619Y-96616761D02*
X170893619Y-96616761D01*
X170893619Y-95939428D02*
X170893619Y-95745904D01*
X170942000Y-95649142D01*
X171038761Y-95552380D01*
X171232285Y-95504000D01*
X171570952Y-95504000D01*
X171764476Y-95552380D01*
X171861238Y-95649142D01*
X171909619Y-95745904D01*
X171909619Y-95939428D01*
X171861238Y-96036190D01*
X171764476Y-96132952D01*
X171570952Y-96181333D01*
X171232285Y-96181333D01*
X171038761Y-96132952D01*
X170942000Y-96036190D01*
X170893619Y-95939428D01*
X169369619Y-97850476D02*
X168353619Y-97850476D01*
X169079333Y-97511809D01*
X168353619Y-97173142D01*
X169369619Y-97173142D01*
X169369619Y-96157142D02*
X169369619Y-96737714D01*
X169369619Y-96447428D02*
X168353619Y-96447428D01*
X168498761Y-96544190D01*
X168595523Y-96640952D01*
X168643904Y-96737714D01*
X168837428Y-95383047D02*
X168885809Y-95237904D01*
X168934190Y-95189523D01*
X169030952Y-95141142D01*
X169176095Y-95141142D01*
X169272857Y-95189523D01*
X169321238Y-95237904D01*
X169369619Y-95334666D01*
X169369619Y-95721714D01*
X168353619Y-95721714D01*
X168353619Y-95383047D01*
X168402000Y-95286285D01*
X168450380Y-95237904D01*
X168547142Y-95189523D01*
X168643904Y-95189523D01*
X168740666Y-95237904D01*
X168789047Y-95286285D01*
X168837428Y-95383047D01*
X168837428Y-95721714D01*
X166829619Y-97777904D02*
X165813619Y-97777904D01*
X166539333Y-97439238D01*
X165813619Y-97100571D01*
X166829619Y-97100571D01*
X166829619Y-96084571D02*
X166829619Y-96665142D01*
X166829619Y-96374857D02*
X165813619Y-96374857D01*
X165958761Y-96471619D01*
X166055523Y-96568380D01*
X166103904Y-96665142D01*
X166539333Y-95697523D02*
X166539333Y-95213714D01*
X166829619Y-95794285D02*
X165813619Y-95455619D01*
X166829619Y-95116952D01*
X164289619Y-97777904D02*
X163273619Y-97777904D01*
X163999333Y-97439238D01*
X163273619Y-97100571D01*
X164289619Y-97100571D01*
X163370380Y-96665142D02*
X163322000Y-96616761D01*
X163273619Y-96520000D01*
X163273619Y-96278095D01*
X163322000Y-96181333D01*
X163370380Y-96132952D01*
X163467142Y-96084571D01*
X163563904Y-96084571D01*
X163709047Y-96132952D01*
X164289619Y-96713523D01*
X164289619Y-96084571D01*
X163999333Y-95697523D02*
X163999333Y-95213714D01*
X164289619Y-95794285D02*
X163273619Y-95455619D01*
X164289619Y-95116952D01*
X161749619Y-97850476D02*
X160733619Y-97850476D01*
X161459333Y-97511809D01*
X160733619Y-97173142D01*
X161749619Y-97173142D01*
X160830380Y-96737714D02*
X160782000Y-96689333D01*
X160733619Y-96592571D01*
X160733619Y-96350666D01*
X160782000Y-96253904D01*
X160830380Y-96205523D01*
X160927142Y-96157142D01*
X161023904Y-96157142D01*
X161169047Y-96205523D01*
X161749619Y-96786095D01*
X161749619Y-96157142D01*
X161217428Y-95383047D02*
X161265809Y-95237904D01*
X161314190Y-95189523D01*
X161410952Y-95141142D01*
X161556095Y-95141142D01*
X161652857Y-95189523D01*
X161701238Y-95237904D01*
X161749619Y-95334666D01*
X161749619Y-95721714D01*
X160733619Y-95721714D01*
X160733619Y-95383047D01*
X160782000Y-95286285D01*
X160830380Y-95237904D01*
X160927142Y-95189523D01*
X161023904Y-95189523D01*
X161120666Y-95237904D01*
X161169047Y-95286285D01*
X161217428Y-95383047D01*
X161217428Y-95721714D01*
X158242000Y-97294095D02*
X158193619Y-97390857D01*
X158193619Y-97536000D01*
X158242000Y-97681142D01*
X158338761Y-97777904D01*
X158435523Y-97826285D01*
X158629047Y-97874666D01*
X158774190Y-97874666D01*
X158967714Y-97826285D01*
X159064476Y-97777904D01*
X159161238Y-97681142D01*
X159209619Y-97536000D01*
X159209619Y-97439238D01*
X159161238Y-97294095D01*
X159112857Y-97245714D01*
X158774190Y-97245714D01*
X158774190Y-97439238D01*
X159209619Y-96810285D02*
X158193619Y-96810285D01*
X159209619Y-96229714D01*
X158193619Y-96229714D01*
X159209619Y-95745904D02*
X158193619Y-95745904D01*
X158193619Y-95504000D01*
X158242000Y-95358857D01*
X158338761Y-95262095D01*
X158435523Y-95213714D01*
X158629047Y-95165333D01*
X158774190Y-95165333D01*
X158967714Y-95213714D01*
X159064476Y-95262095D01*
X159161238Y-95358857D01*
X159209619Y-95504000D01*
X159209619Y-95745904D01*
X155653619Y-97439238D02*
X156669619Y-97100571D01*
X155653619Y-96761904D01*
X156669619Y-96423238D02*
X155653619Y-96423238D01*
X156379333Y-96084571D01*
X155653619Y-95745904D01*
X156669619Y-95745904D01*
D11*
X156155571Y-102162428D02*
X156155571Y-101908428D01*
X156554714Y-101799571D02*
X156554714Y-102162428D01*
X155792714Y-102162428D01*
X155792714Y-101799571D01*
X156554714Y-101473000D02*
X155792714Y-101473000D01*
X156554714Y-101037571D01*
X155792714Y-101037571D01*
D10*
X159209619Y-103196571D02*
X158193619Y-103196571D01*
X158919333Y-102857904D01*
X158193619Y-102519238D01*
X159209619Y-102519238D01*
X158193619Y-101841904D02*
X158193619Y-101648380D01*
X158242000Y-101551619D01*
X158338761Y-101454857D01*
X158532285Y-101406476D01*
X158870952Y-101406476D01*
X159064476Y-101454857D01*
X159161238Y-101551619D01*
X159209619Y-101648380D01*
X159209619Y-101841904D01*
X159161238Y-101938666D01*
X159064476Y-102035428D01*
X158870952Y-102083809D01*
X158532285Y-102083809D01*
X158338761Y-102035428D01*
X158242000Y-101938666D01*
X158193619Y-101841904D01*
X159161238Y-101019428D02*
X159209619Y-100874285D01*
X159209619Y-100632380D01*
X159161238Y-100535619D01*
X159112857Y-100487238D01*
X159016095Y-100438857D01*
X158919333Y-100438857D01*
X158822571Y-100487238D01*
X158774190Y-100535619D01*
X158725809Y-100632380D01*
X158677428Y-100825904D01*
X158629047Y-100922666D01*
X158580666Y-100971047D01*
X158483904Y-101019428D01*
X158387142Y-101019428D01*
X158290380Y-100971047D01*
X158242000Y-100922666D01*
X158193619Y-100825904D01*
X158193619Y-100584000D01*
X158242000Y-100438857D01*
X159209619Y-100003428D02*
X158193619Y-100003428D01*
X161701238Y-102906285D02*
X161749619Y-102761142D01*
X161749619Y-102519238D01*
X161701238Y-102422476D01*
X161652857Y-102374095D01*
X161556095Y-102325714D01*
X161459333Y-102325714D01*
X161362571Y-102374095D01*
X161314190Y-102422476D01*
X161265809Y-102519238D01*
X161217428Y-102712761D01*
X161169047Y-102809523D01*
X161120666Y-102857904D01*
X161023904Y-102906285D01*
X160927142Y-102906285D01*
X160830380Y-102857904D01*
X160782000Y-102809523D01*
X160733619Y-102712761D01*
X160733619Y-102470857D01*
X160782000Y-102325714D01*
X161652857Y-101309714D02*
X161701238Y-101358095D01*
X161749619Y-101503238D01*
X161749619Y-101600000D01*
X161701238Y-101745142D01*
X161604476Y-101841904D01*
X161507714Y-101890285D01*
X161314190Y-101938666D01*
X161169047Y-101938666D01*
X160975523Y-101890285D01*
X160878761Y-101841904D01*
X160782000Y-101745142D01*
X160733619Y-101600000D01*
X160733619Y-101503238D01*
X160782000Y-101358095D01*
X160830380Y-101309714D01*
X161749619Y-100874285D02*
X160733619Y-100874285D01*
X161749619Y-100293714D02*
X161169047Y-100729142D01*
X160733619Y-100293714D02*
X161314190Y-100874285D01*
X164192857Y-101769333D02*
X164241238Y-101817714D01*
X164289619Y-101962857D01*
X164289619Y-102059619D01*
X164241238Y-102204761D01*
X164144476Y-102301523D01*
X164047714Y-102349904D01*
X163854190Y-102398285D01*
X163709047Y-102398285D01*
X163515523Y-102349904D01*
X163418761Y-102301523D01*
X163322000Y-102204761D01*
X163273619Y-102059619D01*
X163273619Y-101962857D01*
X163322000Y-101817714D01*
X163370380Y-101769333D01*
X164241238Y-101382285D02*
X164289619Y-101237142D01*
X164289619Y-100995238D01*
X164241238Y-100898476D01*
X164192857Y-100850095D01*
X164096095Y-100801714D01*
X163999333Y-100801714D01*
X163902571Y-100850095D01*
X163854190Y-100898476D01*
X163805809Y-100995238D01*
X163757428Y-101188761D01*
X163709047Y-101285523D01*
X163660666Y-101333904D01*
X163563904Y-101382285D01*
X163467142Y-101382285D01*
X163370380Y-101333904D01*
X163322000Y-101285523D01*
X163273619Y-101188761D01*
X163273619Y-100946857D01*
X163322000Y-100801714D01*
X166829619Y-103196571D02*
X165813619Y-103196571D01*
X166539333Y-102857904D01*
X165813619Y-102519238D01*
X166829619Y-102519238D01*
X166829619Y-102035428D02*
X165813619Y-102035428D01*
X166781238Y-101600000D02*
X166829619Y-101454857D01*
X166829619Y-101212952D01*
X166781238Y-101116190D01*
X166732857Y-101067809D01*
X166636095Y-101019428D01*
X166539333Y-101019428D01*
X166442571Y-101067809D01*
X166394190Y-101116190D01*
X166345809Y-101212952D01*
X166297428Y-101406476D01*
X166249047Y-101503238D01*
X166200666Y-101551619D01*
X166103904Y-101600000D01*
X166007142Y-101600000D01*
X165910380Y-101551619D01*
X165862000Y-101503238D01*
X165813619Y-101406476D01*
X165813619Y-101164571D01*
X165862000Y-101019428D01*
X165813619Y-100390476D02*
X165813619Y-100196952D01*
X165862000Y-100100190D01*
X165958761Y-100003428D01*
X166152285Y-99955047D01*
X166490952Y-99955047D01*
X166684476Y-100003428D01*
X166781238Y-100100190D01*
X166829619Y-100196952D01*
X166829619Y-100390476D01*
X166781238Y-100487238D01*
X166684476Y-100584000D01*
X166490952Y-100632380D01*
X166152285Y-100632380D01*
X165958761Y-100584000D01*
X165862000Y-100487238D01*
X165813619Y-100390476D01*
X169369619Y-102398285D02*
X168353619Y-102398285D01*
X169369619Y-101817714D01*
X168353619Y-101817714D01*
X169272857Y-100753333D02*
X169321238Y-100801714D01*
X169369619Y-100946857D01*
X169369619Y-101043619D01*
X169321238Y-101188761D01*
X169224476Y-101285523D01*
X169127714Y-101333904D01*
X168934190Y-101382285D01*
X168789047Y-101382285D01*
X168595523Y-101333904D01*
X168498761Y-101285523D01*
X168402000Y-101188761D01*
X168353619Y-101043619D01*
X168353619Y-100946857D01*
X168402000Y-100801714D01*
X168450380Y-100753333D01*
X171861238Y-103244952D02*
X171909619Y-103099809D01*
X171909619Y-102857904D01*
X171861238Y-102761142D01*
X171812857Y-102712761D01*
X171716095Y-102664380D01*
X171619333Y-102664380D01*
X171522571Y-102712761D01*
X171474190Y-102761142D01*
X171425809Y-102857904D01*
X171377428Y-103051428D01*
X171329047Y-103148190D01*
X171280666Y-103196571D01*
X171183904Y-103244952D01*
X171087142Y-103244952D01*
X170990380Y-103196571D01*
X170942000Y-103148190D01*
X170893619Y-103051428D01*
X170893619Y-102809523D01*
X170942000Y-102664380D01*
X170893619Y-102374095D02*
X170893619Y-101793523D01*
X171909619Y-102083809D02*
X170893619Y-102083809D01*
X171377428Y-101454857D02*
X171377428Y-101116190D01*
X171909619Y-100971047D02*
X171909619Y-101454857D01*
X170893619Y-101454857D01*
X170893619Y-100971047D01*
X171909619Y-100535619D02*
X170893619Y-100535619D01*
X170893619Y-100148571D01*
X170942000Y-100051809D01*
X170990380Y-100003428D01*
X171087142Y-99955047D01*
X171232285Y-99955047D01*
X171329047Y-100003428D01*
X171377428Y-100051809D01*
X171425809Y-100148571D01*
X171425809Y-100535619D01*
X174449619Y-102616000D02*
X173433619Y-102616000D01*
X173433619Y-102374095D01*
X173482000Y-102228952D01*
X173578761Y-102132190D01*
X173675523Y-102083809D01*
X173869047Y-102035428D01*
X174014190Y-102035428D01*
X174207714Y-102083809D01*
X174304476Y-102132190D01*
X174401238Y-102228952D01*
X174449619Y-102374095D01*
X174449619Y-102616000D01*
X174449619Y-101600000D02*
X173433619Y-101600000D01*
X174449619Y-100535619D02*
X173965809Y-100874285D01*
X174449619Y-101116190D02*
X173433619Y-101116190D01*
X173433619Y-100729142D01*
X173482000Y-100632380D01*
X173530380Y-100584000D01*
X173627142Y-100535619D01*
X173772285Y-100535619D01*
X173869047Y-100584000D01*
X173917428Y-100632380D01*
X173965809Y-100729142D01*
X173965809Y-101116190D01*
%TO.C,SS2*%
X143491238Y-93817904D02*
X143539619Y-93672761D01*
X143539619Y-93430857D01*
X143491238Y-93334095D01*
X143442857Y-93285714D01*
X143346095Y-93237333D01*
X143249333Y-93237333D01*
X143152571Y-93285714D01*
X143104190Y-93334095D01*
X143055809Y-93430857D01*
X143007428Y-93624380D01*
X142959047Y-93721142D01*
X142910666Y-93769523D01*
X142813904Y-93817904D01*
X142717142Y-93817904D01*
X142620380Y-93769523D01*
X142572000Y-93721142D01*
X142523619Y-93624380D01*
X142523619Y-93382476D01*
X142572000Y-93237333D01*
X143491238Y-92850285D02*
X143539619Y-92705142D01*
X143539619Y-92463238D01*
X143491238Y-92366476D01*
X143442857Y-92318095D01*
X143346095Y-92269714D01*
X143249333Y-92269714D01*
X143152571Y-92318095D01*
X143104190Y-92366476D01*
X143055809Y-92463238D01*
X143007428Y-92656761D01*
X142959047Y-92753523D01*
X142910666Y-92801904D01*
X142813904Y-92850285D01*
X142717142Y-92850285D01*
X142620380Y-92801904D01*
X142572000Y-92753523D01*
X142523619Y-92656761D01*
X142523619Y-92414857D01*
X142572000Y-92269714D01*
X142620380Y-91882666D02*
X142572000Y-91834285D01*
X142523619Y-91737523D01*
X142523619Y-91495619D01*
X142572000Y-91398857D01*
X142620380Y-91350476D01*
X142717142Y-91302095D01*
X142813904Y-91302095D01*
X142959047Y-91350476D01*
X143539619Y-91931047D01*
X143539619Y-91302095D01*
X140462000Y-97294095D02*
X140413619Y-97390857D01*
X140413619Y-97536000D01*
X140462000Y-97681142D01*
X140558761Y-97777904D01*
X140655523Y-97826285D01*
X140849047Y-97874666D01*
X140994190Y-97874666D01*
X141187714Y-97826285D01*
X141284476Y-97777904D01*
X141381238Y-97681142D01*
X141429619Y-97536000D01*
X141429619Y-97439238D01*
X141381238Y-97294095D01*
X141332857Y-97245714D01*
X140994190Y-97245714D01*
X140994190Y-97439238D01*
X141429619Y-96810285D02*
X140413619Y-96810285D01*
X141429619Y-96229714D01*
X140413619Y-96229714D01*
X141429619Y-95745904D02*
X140413619Y-95745904D01*
X140413619Y-95504000D01*
X140462000Y-95358857D01*
X140558761Y-95262095D01*
X140655523Y-95213714D01*
X140849047Y-95165333D01*
X140994190Y-95165333D01*
X141187714Y-95213714D01*
X141284476Y-95262095D01*
X141381238Y-95358857D01*
X141429619Y-95504000D01*
X141429619Y-95745904D01*
X137873619Y-97632761D02*
X138889619Y-97294095D01*
X137873619Y-96955428D01*
X138889619Y-96616761D02*
X137873619Y-96616761D01*
X137873619Y-95939428D02*
X137873619Y-95745904D01*
X137922000Y-95649142D01*
X138018761Y-95552380D01*
X138212285Y-95504000D01*
X138550952Y-95504000D01*
X138744476Y-95552380D01*
X138841238Y-95649142D01*
X138889619Y-95745904D01*
X138889619Y-95939428D01*
X138841238Y-96036190D01*
X138744476Y-96132952D01*
X138550952Y-96181333D01*
X138212285Y-96181333D01*
X138018761Y-96132952D01*
X137922000Y-96036190D01*
X137873619Y-95939428D01*
X136349619Y-97850476D02*
X135333619Y-97850476D01*
X136059333Y-97511809D01*
X135333619Y-97173142D01*
X136349619Y-97173142D01*
X136349619Y-96157142D02*
X136349619Y-96737714D01*
X136349619Y-96447428D02*
X135333619Y-96447428D01*
X135478761Y-96544190D01*
X135575523Y-96640952D01*
X135623904Y-96737714D01*
X135817428Y-95383047D02*
X135865809Y-95237904D01*
X135914190Y-95189523D01*
X136010952Y-95141142D01*
X136156095Y-95141142D01*
X136252857Y-95189523D01*
X136301238Y-95237904D01*
X136349619Y-95334666D01*
X136349619Y-95721714D01*
X135333619Y-95721714D01*
X135333619Y-95383047D01*
X135382000Y-95286285D01*
X135430380Y-95237904D01*
X135527142Y-95189523D01*
X135623904Y-95189523D01*
X135720666Y-95237904D01*
X135769047Y-95286285D01*
X135817428Y-95383047D01*
X135817428Y-95721714D01*
X133809619Y-97777904D02*
X132793619Y-97777904D01*
X133519333Y-97439238D01*
X132793619Y-97100571D01*
X133809619Y-97100571D01*
X133809619Y-96084571D02*
X133809619Y-96665142D01*
X133809619Y-96374857D02*
X132793619Y-96374857D01*
X132938761Y-96471619D01*
X133035523Y-96568380D01*
X133083904Y-96665142D01*
X133519333Y-95697523D02*
X133519333Y-95213714D01*
X133809619Y-95794285D02*
X132793619Y-95455619D01*
X133809619Y-95116952D01*
X131269619Y-97777904D02*
X130253619Y-97777904D01*
X130979333Y-97439238D01*
X130253619Y-97100571D01*
X131269619Y-97100571D01*
X130350380Y-96665142D02*
X130302000Y-96616761D01*
X130253619Y-96520000D01*
X130253619Y-96278095D01*
X130302000Y-96181333D01*
X130350380Y-96132952D01*
X130447142Y-96084571D01*
X130543904Y-96084571D01*
X130689047Y-96132952D01*
X131269619Y-96713523D01*
X131269619Y-96084571D01*
X130979333Y-95697523D02*
X130979333Y-95213714D01*
X131269619Y-95794285D02*
X130253619Y-95455619D01*
X131269619Y-95116952D01*
X128729619Y-97850476D02*
X127713619Y-97850476D01*
X128439333Y-97511809D01*
X127713619Y-97173142D01*
X128729619Y-97173142D01*
X127810380Y-96737714D02*
X127762000Y-96689333D01*
X127713619Y-96592571D01*
X127713619Y-96350666D01*
X127762000Y-96253904D01*
X127810380Y-96205523D01*
X127907142Y-96157142D01*
X128003904Y-96157142D01*
X128149047Y-96205523D01*
X128729619Y-96786095D01*
X128729619Y-96157142D01*
X128197428Y-95383047D02*
X128245809Y-95237904D01*
X128294190Y-95189523D01*
X128390952Y-95141142D01*
X128536095Y-95141142D01*
X128632857Y-95189523D01*
X128681238Y-95237904D01*
X128729619Y-95334666D01*
X128729619Y-95721714D01*
X127713619Y-95721714D01*
X127713619Y-95383047D01*
X127762000Y-95286285D01*
X127810380Y-95237904D01*
X127907142Y-95189523D01*
X128003904Y-95189523D01*
X128100666Y-95237904D01*
X128149047Y-95286285D01*
X128197428Y-95383047D01*
X128197428Y-95721714D01*
X125222000Y-97294095D02*
X125173619Y-97390857D01*
X125173619Y-97536000D01*
X125222000Y-97681142D01*
X125318761Y-97777904D01*
X125415523Y-97826285D01*
X125609047Y-97874666D01*
X125754190Y-97874666D01*
X125947714Y-97826285D01*
X126044476Y-97777904D01*
X126141238Y-97681142D01*
X126189619Y-97536000D01*
X126189619Y-97439238D01*
X126141238Y-97294095D01*
X126092857Y-97245714D01*
X125754190Y-97245714D01*
X125754190Y-97439238D01*
X126189619Y-96810285D02*
X125173619Y-96810285D01*
X126189619Y-96229714D01*
X125173619Y-96229714D01*
X126189619Y-95745904D02*
X125173619Y-95745904D01*
X125173619Y-95504000D01*
X125222000Y-95358857D01*
X125318761Y-95262095D01*
X125415523Y-95213714D01*
X125609047Y-95165333D01*
X125754190Y-95165333D01*
X125947714Y-95213714D01*
X126044476Y-95262095D01*
X126141238Y-95358857D01*
X126189619Y-95504000D01*
X126189619Y-95745904D01*
X122633619Y-97439238D02*
X123649619Y-97100571D01*
X122633619Y-96761904D01*
X123649619Y-96423238D02*
X122633619Y-96423238D01*
X123359333Y-96084571D01*
X122633619Y-95745904D01*
X123649619Y-95745904D01*
D11*
X123135571Y-102162428D02*
X123135571Y-101908428D01*
X123534714Y-101799571D02*
X123534714Y-102162428D01*
X122772714Y-102162428D01*
X122772714Y-101799571D01*
X123534714Y-101473000D02*
X122772714Y-101473000D01*
X123534714Y-101037571D01*
X122772714Y-101037571D01*
D10*
X126189619Y-103196571D02*
X125173619Y-103196571D01*
X125899333Y-102857904D01*
X125173619Y-102519238D01*
X126189619Y-102519238D01*
X125173619Y-101841904D02*
X125173619Y-101648380D01*
X125222000Y-101551619D01*
X125318761Y-101454857D01*
X125512285Y-101406476D01*
X125850952Y-101406476D01*
X126044476Y-101454857D01*
X126141238Y-101551619D01*
X126189619Y-101648380D01*
X126189619Y-101841904D01*
X126141238Y-101938666D01*
X126044476Y-102035428D01*
X125850952Y-102083809D01*
X125512285Y-102083809D01*
X125318761Y-102035428D01*
X125222000Y-101938666D01*
X125173619Y-101841904D01*
X126141238Y-101019428D02*
X126189619Y-100874285D01*
X126189619Y-100632380D01*
X126141238Y-100535619D01*
X126092857Y-100487238D01*
X125996095Y-100438857D01*
X125899333Y-100438857D01*
X125802571Y-100487238D01*
X125754190Y-100535619D01*
X125705809Y-100632380D01*
X125657428Y-100825904D01*
X125609047Y-100922666D01*
X125560666Y-100971047D01*
X125463904Y-101019428D01*
X125367142Y-101019428D01*
X125270380Y-100971047D01*
X125222000Y-100922666D01*
X125173619Y-100825904D01*
X125173619Y-100584000D01*
X125222000Y-100438857D01*
X126189619Y-100003428D02*
X125173619Y-100003428D01*
X128681238Y-102906285D02*
X128729619Y-102761142D01*
X128729619Y-102519238D01*
X128681238Y-102422476D01*
X128632857Y-102374095D01*
X128536095Y-102325714D01*
X128439333Y-102325714D01*
X128342571Y-102374095D01*
X128294190Y-102422476D01*
X128245809Y-102519238D01*
X128197428Y-102712761D01*
X128149047Y-102809523D01*
X128100666Y-102857904D01*
X128003904Y-102906285D01*
X127907142Y-102906285D01*
X127810380Y-102857904D01*
X127762000Y-102809523D01*
X127713619Y-102712761D01*
X127713619Y-102470857D01*
X127762000Y-102325714D01*
X128632857Y-101309714D02*
X128681238Y-101358095D01*
X128729619Y-101503238D01*
X128729619Y-101600000D01*
X128681238Y-101745142D01*
X128584476Y-101841904D01*
X128487714Y-101890285D01*
X128294190Y-101938666D01*
X128149047Y-101938666D01*
X127955523Y-101890285D01*
X127858761Y-101841904D01*
X127762000Y-101745142D01*
X127713619Y-101600000D01*
X127713619Y-101503238D01*
X127762000Y-101358095D01*
X127810380Y-101309714D01*
X128729619Y-100874285D02*
X127713619Y-100874285D01*
X128729619Y-100293714D02*
X128149047Y-100729142D01*
X127713619Y-100293714D02*
X128294190Y-100874285D01*
X131172857Y-101769333D02*
X131221238Y-101817714D01*
X131269619Y-101962857D01*
X131269619Y-102059619D01*
X131221238Y-102204761D01*
X131124476Y-102301523D01*
X131027714Y-102349904D01*
X130834190Y-102398285D01*
X130689047Y-102398285D01*
X130495523Y-102349904D01*
X130398761Y-102301523D01*
X130302000Y-102204761D01*
X130253619Y-102059619D01*
X130253619Y-101962857D01*
X130302000Y-101817714D01*
X130350380Y-101769333D01*
X131221238Y-101382285D02*
X131269619Y-101237142D01*
X131269619Y-100995238D01*
X131221238Y-100898476D01*
X131172857Y-100850095D01*
X131076095Y-100801714D01*
X130979333Y-100801714D01*
X130882571Y-100850095D01*
X130834190Y-100898476D01*
X130785809Y-100995238D01*
X130737428Y-101188761D01*
X130689047Y-101285523D01*
X130640666Y-101333904D01*
X130543904Y-101382285D01*
X130447142Y-101382285D01*
X130350380Y-101333904D01*
X130302000Y-101285523D01*
X130253619Y-101188761D01*
X130253619Y-100946857D01*
X130302000Y-100801714D01*
X133809619Y-103196571D02*
X132793619Y-103196571D01*
X133519333Y-102857904D01*
X132793619Y-102519238D01*
X133809619Y-102519238D01*
X133809619Y-102035428D02*
X132793619Y-102035428D01*
X133761238Y-101600000D02*
X133809619Y-101454857D01*
X133809619Y-101212952D01*
X133761238Y-101116190D01*
X133712857Y-101067809D01*
X133616095Y-101019428D01*
X133519333Y-101019428D01*
X133422571Y-101067809D01*
X133374190Y-101116190D01*
X133325809Y-101212952D01*
X133277428Y-101406476D01*
X133229047Y-101503238D01*
X133180666Y-101551619D01*
X133083904Y-101600000D01*
X132987142Y-101600000D01*
X132890380Y-101551619D01*
X132842000Y-101503238D01*
X132793619Y-101406476D01*
X132793619Y-101164571D01*
X132842000Y-101019428D01*
X132793619Y-100390476D02*
X132793619Y-100196952D01*
X132842000Y-100100190D01*
X132938761Y-100003428D01*
X133132285Y-99955047D01*
X133470952Y-99955047D01*
X133664476Y-100003428D01*
X133761238Y-100100190D01*
X133809619Y-100196952D01*
X133809619Y-100390476D01*
X133761238Y-100487238D01*
X133664476Y-100584000D01*
X133470952Y-100632380D01*
X133132285Y-100632380D01*
X132938761Y-100584000D01*
X132842000Y-100487238D01*
X132793619Y-100390476D01*
X136349619Y-102398285D02*
X135333619Y-102398285D01*
X136349619Y-101817714D01*
X135333619Y-101817714D01*
X136252857Y-100753333D02*
X136301238Y-100801714D01*
X136349619Y-100946857D01*
X136349619Y-101043619D01*
X136301238Y-101188761D01*
X136204476Y-101285523D01*
X136107714Y-101333904D01*
X135914190Y-101382285D01*
X135769047Y-101382285D01*
X135575523Y-101333904D01*
X135478761Y-101285523D01*
X135382000Y-101188761D01*
X135333619Y-101043619D01*
X135333619Y-100946857D01*
X135382000Y-100801714D01*
X135430380Y-100753333D01*
X138841238Y-103244952D02*
X138889619Y-103099809D01*
X138889619Y-102857904D01*
X138841238Y-102761142D01*
X138792857Y-102712761D01*
X138696095Y-102664380D01*
X138599333Y-102664380D01*
X138502571Y-102712761D01*
X138454190Y-102761142D01*
X138405809Y-102857904D01*
X138357428Y-103051428D01*
X138309047Y-103148190D01*
X138260666Y-103196571D01*
X138163904Y-103244952D01*
X138067142Y-103244952D01*
X137970380Y-103196571D01*
X137922000Y-103148190D01*
X137873619Y-103051428D01*
X137873619Y-102809523D01*
X137922000Y-102664380D01*
X137873619Y-102374095D02*
X137873619Y-101793523D01*
X138889619Y-102083809D02*
X137873619Y-102083809D01*
X138357428Y-101454857D02*
X138357428Y-101116190D01*
X138889619Y-100971047D02*
X138889619Y-101454857D01*
X137873619Y-101454857D01*
X137873619Y-100971047D01*
X138889619Y-100535619D02*
X137873619Y-100535619D01*
X137873619Y-100148571D01*
X137922000Y-100051809D01*
X137970380Y-100003428D01*
X138067142Y-99955047D01*
X138212285Y-99955047D01*
X138309047Y-100003428D01*
X138357428Y-100051809D01*
X138405809Y-100148571D01*
X138405809Y-100535619D01*
X141429619Y-102616000D02*
X140413619Y-102616000D01*
X140413619Y-102374095D01*
X140462000Y-102228952D01*
X140558761Y-102132190D01*
X140655523Y-102083809D01*
X140849047Y-102035428D01*
X140994190Y-102035428D01*
X141187714Y-102083809D01*
X141284476Y-102132190D01*
X141381238Y-102228952D01*
X141429619Y-102374095D01*
X141429619Y-102616000D01*
X141429619Y-101600000D02*
X140413619Y-101600000D01*
X141429619Y-100535619D02*
X140945809Y-100874285D01*
X141429619Y-101116190D02*
X140413619Y-101116190D01*
X140413619Y-100729142D01*
X140462000Y-100632380D01*
X140510380Y-100584000D01*
X140607142Y-100535619D01*
X140752285Y-100535619D01*
X140849047Y-100584000D01*
X140897428Y-100632380D01*
X140945809Y-100729142D01*
X140945809Y-101116190D01*
%TO.C,SS3*%
X110471238Y-93817904D02*
X110519619Y-93672761D01*
X110519619Y-93430857D01*
X110471238Y-93334095D01*
X110422857Y-93285714D01*
X110326095Y-93237333D01*
X110229333Y-93237333D01*
X110132571Y-93285714D01*
X110084190Y-93334095D01*
X110035809Y-93430857D01*
X109987428Y-93624380D01*
X109939047Y-93721142D01*
X109890666Y-93769523D01*
X109793904Y-93817904D01*
X109697142Y-93817904D01*
X109600380Y-93769523D01*
X109552000Y-93721142D01*
X109503619Y-93624380D01*
X109503619Y-93382476D01*
X109552000Y-93237333D01*
X110471238Y-92850285D02*
X110519619Y-92705142D01*
X110519619Y-92463238D01*
X110471238Y-92366476D01*
X110422857Y-92318095D01*
X110326095Y-92269714D01*
X110229333Y-92269714D01*
X110132571Y-92318095D01*
X110084190Y-92366476D01*
X110035809Y-92463238D01*
X109987428Y-92656761D01*
X109939047Y-92753523D01*
X109890666Y-92801904D01*
X109793904Y-92850285D01*
X109697142Y-92850285D01*
X109600380Y-92801904D01*
X109552000Y-92753523D01*
X109503619Y-92656761D01*
X109503619Y-92414857D01*
X109552000Y-92269714D01*
X109503619Y-91931047D02*
X109503619Y-91302095D01*
X109890666Y-91640761D01*
X109890666Y-91495619D01*
X109939047Y-91398857D01*
X109987428Y-91350476D01*
X110084190Y-91302095D01*
X110326095Y-91302095D01*
X110422857Y-91350476D01*
X110471238Y-91398857D01*
X110519619Y-91495619D01*
X110519619Y-91785904D01*
X110471238Y-91882666D01*
X110422857Y-91931047D01*
X107442000Y-97294095D02*
X107393619Y-97390857D01*
X107393619Y-97536000D01*
X107442000Y-97681142D01*
X107538761Y-97777904D01*
X107635523Y-97826285D01*
X107829047Y-97874666D01*
X107974190Y-97874666D01*
X108167714Y-97826285D01*
X108264476Y-97777904D01*
X108361238Y-97681142D01*
X108409619Y-97536000D01*
X108409619Y-97439238D01*
X108361238Y-97294095D01*
X108312857Y-97245714D01*
X107974190Y-97245714D01*
X107974190Y-97439238D01*
X108409619Y-96810285D02*
X107393619Y-96810285D01*
X108409619Y-96229714D01*
X107393619Y-96229714D01*
X108409619Y-95745904D02*
X107393619Y-95745904D01*
X107393619Y-95504000D01*
X107442000Y-95358857D01*
X107538761Y-95262095D01*
X107635523Y-95213714D01*
X107829047Y-95165333D01*
X107974190Y-95165333D01*
X108167714Y-95213714D01*
X108264476Y-95262095D01*
X108361238Y-95358857D01*
X108409619Y-95504000D01*
X108409619Y-95745904D01*
X104853619Y-97632761D02*
X105869619Y-97294095D01*
X104853619Y-96955428D01*
X105869619Y-96616761D02*
X104853619Y-96616761D01*
X104853619Y-95939428D02*
X104853619Y-95745904D01*
X104902000Y-95649142D01*
X104998761Y-95552380D01*
X105192285Y-95504000D01*
X105530952Y-95504000D01*
X105724476Y-95552380D01*
X105821238Y-95649142D01*
X105869619Y-95745904D01*
X105869619Y-95939428D01*
X105821238Y-96036190D01*
X105724476Y-96132952D01*
X105530952Y-96181333D01*
X105192285Y-96181333D01*
X104998761Y-96132952D01*
X104902000Y-96036190D01*
X104853619Y-95939428D01*
X103329619Y-97850476D02*
X102313619Y-97850476D01*
X103039333Y-97511809D01*
X102313619Y-97173142D01*
X103329619Y-97173142D01*
X103329619Y-96157142D02*
X103329619Y-96737714D01*
X103329619Y-96447428D02*
X102313619Y-96447428D01*
X102458761Y-96544190D01*
X102555523Y-96640952D01*
X102603904Y-96737714D01*
X102797428Y-95383047D02*
X102845809Y-95237904D01*
X102894190Y-95189523D01*
X102990952Y-95141142D01*
X103136095Y-95141142D01*
X103232857Y-95189523D01*
X103281238Y-95237904D01*
X103329619Y-95334666D01*
X103329619Y-95721714D01*
X102313619Y-95721714D01*
X102313619Y-95383047D01*
X102362000Y-95286285D01*
X102410380Y-95237904D01*
X102507142Y-95189523D01*
X102603904Y-95189523D01*
X102700666Y-95237904D01*
X102749047Y-95286285D01*
X102797428Y-95383047D01*
X102797428Y-95721714D01*
X100789619Y-97777904D02*
X99773619Y-97777904D01*
X100499333Y-97439238D01*
X99773619Y-97100571D01*
X100789619Y-97100571D01*
X100789619Y-96084571D02*
X100789619Y-96665142D01*
X100789619Y-96374857D02*
X99773619Y-96374857D01*
X99918761Y-96471619D01*
X100015523Y-96568380D01*
X100063904Y-96665142D01*
X100499333Y-95697523D02*
X100499333Y-95213714D01*
X100789619Y-95794285D02*
X99773619Y-95455619D01*
X100789619Y-95116952D01*
X98249619Y-97777904D02*
X97233619Y-97777904D01*
X97959333Y-97439238D01*
X97233619Y-97100571D01*
X98249619Y-97100571D01*
X97330380Y-96665142D02*
X97282000Y-96616761D01*
X97233619Y-96520000D01*
X97233619Y-96278095D01*
X97282000Y-96181333D01*
X97330380Y-96132952D01*
X97427142Y-96084571D01*
X97523904Y-96084571D01*
X97669047Y-96132952D01*
X98249619Y-96713523D01*
X98249619Y-96084571D01*
X97959333Y-95697523D02*
X97959333Y-95213714D01*
X98249619Y-95794285D02*
X97233619Y-95455619D01*
X98249619Y-95116952D01*
X95709619Y-97850476D02*
X94693619Y-97850476D01*
X95419333Y-97511809D01*
X94693619Y-97173142D01*
X95709619Y-97173142D01*
X94790380Y-96737714D02*
X94742000Y-96689333D01*
X94693619Y-96592571D01*
X94693619Y-96350666D01*
X94742000Y-96253904D01*
X94790380Y-96205523D01*
X94887142Y-96157142D01*
X94983904Y-96157142D01*
X95129047Y-96205523D01*
X95709619Y-96786095D01*
X95709619Y-96157142D01*
X95177428Y-95383047D02*
X95225809Y-95237904D01*
X95274190Y-95189523D01*
X95370952Y-95141142D01*
X95516095Y-95141142D01*
X95612857Y-95189523D01*
X95661238Y-95237904D01*
X95709619Y-95334666D01*
X95709619Y-95721714D01*
X94693619Y-95721714D01*
X94693619Y-95383047D01*
X94742000Y-95286285D01*
X94790380Y-95237904D01*
X94887142Y-95189523D01*
X94983904Y-95189523D01*
X95080666Y-95237904D01*
X95129047Y-95286285D01*
X95177428Y-95383047D01*
X95177428Y-95721714D01*
X92202000Y-97294095D02*
X92153619Y-97390857D01*
X92153619Y-97536000D01*
X92202000Y-97681142D01*
X92298761Y-97777904D01*
X92395523Y-97826285D01*
X92589047Y-97874666D01*
X92734190Y-97874666D01*
X92927714Y-97826285D01*
X93024476Y-97777904D01*
X93121238Y-97681142D01*
X93169619Y-97536000D01*
X93169619Y-97439238D01*
X93121238Y-97294095D01*
X93072857Y-97245714D01*
X92734190Y-97245714D01*
X92734190Y-97439238D01*
X93169619Y-96810285D02*
X92153619Y-96810285D01*
X93169619Y-96229714D01*
X92153619Y-96229714D01*
X93169619Y-95745904D02*
X92153619Y-95745904D01*
X92153619Y-95504000D01*
X92202000Y-95358857D01*
X92298761Y-95262095D01*
X92395523Y-95213714D01*
X92589047Y-95165333D01*
X92734190Y-95165333D01*
X92927714Y-95213714D01*
X93024476Y-95262095D01*
X93121238Y-95358857D01*
X93169619Y-95504000D01*
X93169619Y-95745904D01*
X89613619Y-97439238D02*
X90629619Y-97100571D01*
X89613619Y-96761904D01*
X90629619Y-96423238D02*
X89613619Y-96423238D01*
X90339333Y-96084571D01*
X89613619Y-95745904D01*
X90629619Y-95745904D01*
D11*
X90115571Y-102162428D02*
X90115571Y-101908428D01*
X90514714Y-101799571D02*
X90514714Y-102162428D01*
X89752714Y-102162428D01*
X89752714Y-101799571D01*
X90514714Y-101473000D02*
X89752714Y-101473000D01*
X90514714Y-101037571D01*
X89752714Y-101037571D01*
D10*
X93169619Y-103196571D02*
X92153619Y-103196571D01*
X92879333Y-102857904D01*
X92153619Y-102519238D01*
X93169619Y-102519238D01*
X92153619Y-101841904D02*
X92153619Y-101648380D01*
X92202000Y-101551619D01*
X92298761Y-101454857D01*
X92492285Y-101406476D01*
X92830952Y-101406476D01*
X93024476Y-101454857D01*
X93121238Y-101551619D01*
X93169619Y-101648380D01*
X93169619Y-101841904D01*
X93121238Y-101938666D01*
X93024476Y-102035428D01*
X92830952Y-102083809D01*
X92492285Y-102083809D01*
X92298761Y-102035428D01*
X92202000Y-101938666D01*
X92153619Y-101841904D01*
X93121238Y-101019428D02*
X93169619Y-100874285D01*
X93169619Y-100632380D01*
X93121238Y-100535619D01*
X93072857Y-100487238D01*
X92976095Y-100438857D01*
X92879333Y-100438857D01*
X92782571Y-100487238D01*
X92734190Y-100535619D01*
X92685809Y-100632380D01*
X92637428Y-100825904D01*
X92589047Y-100922666D01*
X92540666Y-100971047D01*
X92443904Y-101019428D01*
X92347142Y-101019428D01*
X92250380Y-100971047D01*
X92202000Y-100922666D01*
X92153619Y-100825904D01*
X92153619Y-100584000D01*
X92202000Y-100438857D01*
X93169619Y-100003428D02*
X92153619Y-100003428D01*
X95661238Y-102906285D02*
X95709619Y-102761142D01*
X95709619Y-102519238D01*
X95661238Y-102422476D01*
X95612857Y-102374095D01*
X95516095Y-102325714D01*
X95419333Y-102325714D01*
X95322571Y-102374095D01*
X95274190Y-102422476D01*
X95225809Y-102519238D01*
X95177428Y-102712761D01*
X95129047Y-102809523D01*
X95080666Y-102857904D01*
X94983904Y-102906285D01*
X94887142Y-102906285D01*
X94790380Y-102857904D01*
X94742000Y-102809523D01*
X94693619Y-102712761D01*
X94693619Y-102470857D01*
X94742000Y-102325714D01*
X95612857Y-101309714D02*
X95661238Y-101358095D01*
X95709619Y-101503238D01*
X95709619Y-101600000D01*
X95661238Y-101745142D01*
X95564476Y-101841904D01*
X95467714Y-101890285D01*
X95274190Y-101938666D01*
X95129047Y-101938666D01*
X94935523Y-101890285D01*
X94838761Y-101841904D01*
X94742000Y-101745142D01*
X94693619Y-101600000D01*
X94693619Y-101503238D01*
X94742000Y-101358095D01*
X94790380Y-101309714D01*
X95709619Y-100874285D02*
X94693619Y-100874285D01*
X95709619Y-100293714D02*
X95129047Y-100729142D01*
X94693619Y-100293714D02*
X95274190Y-100874285D01*
X98152857Y-101769333D02*
X98201238Y-101817714D01*
X98249619Y-101962857D01*
X98249619Y-102059619D01*
X98201238Y-102204761D01*
X98104476Y-102301523D01*
X98007714Y-102349904D01*
X97814190Y-102398285D01*
X97669047Y-102398285D01*
X97475523Y-102349904D01*
X97378761Y-102301523D01*
X97282000Y-102204761D01*
X97233619Y-102059619D01*
X97233619Y-101962857D01*
X97282000Y-101817714D01*
X97330380Y-101769333D01*
X98201238Y-101382285D02*
X98249619Y-101237142D01*
X98249619Y-100995238D01*
X98201238Y-100898476D01*
X98152857Y-100850095D01*
X98056095Y-100801714D01*
X97959333Y-100801714D01*
X97862571Y-100850095D01*
X97814190Y-100898476D01*
X97765809Y-100995238D01*
X97717428Y-101188761D01*
X97669047Y-101285523D01*
X97620666Y-101333904D01*
X97523904Y-101382285D01*
X97427142Y-101382285D01*
X97330380Y-101333904D01*
X97282000Y-101285523D01*
X97233619Y-101188761D01*
X97233619Y-100946857D01*
X97282000Y-100801714D01*
X100789619Y-103196571D02*
X99773619Y-103196571D01*
X100499333Y-102857904D01*
X99773619Y-102519238D01*
X100789619Y-102519238D01*
X100789619Y-102035428D02*
X99773619Y-102035428D01*
X100741238Y-101600000D02*
X100789619Y-101454857D01*
X100789619Y-101212952D01*
X100741238Y-101116190D01*
X100692857Y-101067809D01*
X100596095Y-101019428D01*
X100499333Y-101019428D01*
X100402571Y-101067809D01*
X100354190Y-101116190D01*
X100305809Y-101212952D01*
X100257428Y-101406476D01*
X100209047Y-101503238D01*
X100160666Y-101551619D01*
X100063904Y-101600000D01*
X99967142Y-101600000D01*
X99870380Y-101551619D01*
X99822000Y-101503238D01*
X99773619Y-101406476D01*
X99773619Y-101164571D01*
X99822000Y-101019428D01*
X99773619Y-100390476D02*
X99773619Y-100196952D01*
X99822000Y-100100190D01*
X99918761Y-100003428D01*
X100112285Y-99955047D01*
X100450952Y-99955047D01*
X100644476Y-100003428D01*
X100741238Y-100100190D01*
X100789619Y-100196952D01*
X100789619Y-100390476D01*
X100741238Y-100487238D01*
X100644476Y-100584000D01*
X100450952Y-100632380D01*
X100112285Y-100632380D01*
X99918761Y-100584000D01*
X99822000Y-100487238D01*
X99773619Y-100390476D01*
X103329619Y-102398285D02*
X102313619Y-102398285D01*
X103329619Y-101817714D01*
X102313619Y-101817714D01*
X103232857Y-100753333D02*
X103281238Y-100801714D01*
X103329619Y-100946857D01*
X103329619Y-101043619D01*
X103281238Y-101188761D01*
X103184476Y-101285523D01*
X103087714Y-101333904D01*
X102894190Y-101382285D01*
X102749047Y-101382285D01*
X102555523Y-101333904D01*
X102458761Y-101285523D01*
X102362000Y-101188761D01*
X102313619Y-101043619D01*
X102313619Y-100946857D01*
X102362000Y-100801714D01*
X102410380Y-100753333D01*
X105821238Y-103244952D02*
X105869619Y-103099809D01*
X105869619Y-102857904D01*
X105821238Y-102761142D01*
X105772857Y-102712761D01*
X105676095Y-102664380D01*
X105579333Y-102664380D01*
X105482571Y-102712761D01*
X105434190Y-102761142D01*
X105385809Y-102857904D01*
X105337428Y-103051428D01*
X105289047Y-103148190D01*
X105240666Y-103196571D01*
X105143904Y-103244952D01*
X105047142Y-103244952D01*
X104950380Y-103196571D01*
X104902000Y-103148190D01*
X104853619Y-103051428D01*
X104853619Y-102809523D01*
X104902000Y-102664380D01*
X104853619Y-102374095D02*
X104853619Y-101793523D01*
X105869619Y-102083809D02*
X104853619Y-102083809D01*
X105337428Y-101454857D02*
X105337428Y-101116190D01*
X105869619Y-100971047D02*
X105869619Y-101454857D01*
X104853619Y-101454857D01*
X104853619Y-100971047D01*
X105869619Y-100535619D02*
X104853619Y-100535619D01*
X104853619Y-100148571D01*
X104902000Y-100051809D01*
X104950380Y-100003428D01*
X105047142Y-99955047D01*
X105192285Y-99955047D01*
X105289047Y-100003428D01*
X105337428Y-100051809D01*
X105385809Y-100148571D01*
X105385809Y-100535619D01*
X108409619Y-102616000D02*
X107393619Y-102616000D01*
X107393619Y-102374095D01*
X107442000Y-102228952D01*
X107538761Y-102132190D01*
X107635523Y-102083809D01*
X107829047Y-102035428D01*
X107974190Y-102035428D01*
X108167714Y-102083809D01*
X108264476Y-102132190D01*
X108361238Y-102228952D01*
X108409619Y-102374095D01*
X108409619Y-102616000D01*
X108409619Y-101600000D02*
X107393619Y-101600000D01*
X108409619Y-100535619D02*
X107925809Y-100874285D01*
X108409619Y-101116190D02*
X107393619Y-101116190D01*
X107393619Y-100729142D01*
X107442000Y-100632380D01*
X107490380Y-100584000D01*
X107587142Y-100535619D01*
X107732285Y-100535619D01*
X107829047Y-100584000D01*
X107877428Y-100632380D01*
X107925809Y-100729142D01*
X107925809Y-101116190D01*
%TO.C,P1*%
X189115095Y-112219619D02*
X189115095Y-111203619D01*
X189502142Y-111203619D01*
X189598904Y-111252000D01*
X189647285Y-111300380D01*
X189695666Y-111397142D01*
X189695666Y-111542285D01*
X189647285Y-111639047D01*
X189598904Y-111687428D01*
X189502142Y-111735809D01*
X189115095Y-111735809D01*
X190663285Y-112219619D02*
X190082714Y-112219619D01*
X190373000Y-112219619D02*
X190373000Y-111203619D01*
X190276238Y-111348761D01*
X190179476Y-111445523D01*
X190082714Y-111493904D01*
%TO.C,REG1*%
X75063047Y-116029619D02*
X74724380Y-115545809D01*
X74482476Y-116029619D02*
X74482476Y-115013619D01*
X74869523Y-115013619D01*
X74966285Y-115062000D01*
X75014666Y-115110380D01*
X75063047Y-115207142D01*
X75063047Y-115352285D01*
X75014666Y-115449047D01*
X74966285Y-115497428D01*
X74869523Y-115545809D01*
X74482476Y-115545809D01*
X75498476Y-115497428D02*
X75837142Y-115497428D01*
X75982285Y-116029619D02*
X75498476Y-116029619D01*
X75498476Y-115013619D01*
X75982285Y-115013619D01*
X76949904Y-115062000D02*
X76853142Y-115013619D01*
X76708000Y-115013619D01*
X76562857Y-115062000D01*
X76466095Y-115158761D01*
X76417714Y-115255523D01*
X76369333Y-115449047D01*
X76369333Y-115594190D01*
X76417714Y-115787714D01*
X76466095Y-115884476D01*
X76562857Y-115981238D01*
X76708000Y-116029619D01*
X76804761Y-116029619D01*
X76949904Y-115981238D01*
X76998285Y-115932857D01*
X76998285Y-115594190D01*
X76804761Y-115594190D01*
X77965904Y-116029619D02*
X77385333Y-116029619D01*
X77675619Y-116029619D02*
X77675619Y-115013619D01*
X77578857Y-115158761D01*
X77482095Y-115255523D01*
X77385333Y-115303904D01*
%TO.C,C6*%
X151595666Y-93072857D02*
X151547285Y-93121238D01*
X151402142Y-93169619D01*
X151305380Y-93169619D01*
X151160238Y-93121238D01*
X151063476Y-93024476D01*
X151015095Y-92927714D01*
X150966714Y-92734190D01*
X150966714Y-92589047D01*
X151015095Y-92395523D01*
X151063476Y-92298761D01*
X151160238Y-92202000D01*
X151305380Y-92153619D01*
X151402142Y-92153619D01*
X151547285Y-92202000D01*
X151595666Y-92250380D01*
X152466523Y-92153619D02*
X152273000Y-92153619D01*
X152176238Y-92202000D01*
X152127857Y-92250380D01*
X152031095Y-92395523D01*
X151982714Y-92589047D01*
X151982714Y-92976095D01*
X152031095Y-93072857D01*
X152079476Y-93121238D01*
X152176238Y-93169619D01*
X152369761Y-93169619D01*
X152466523Y-93121238D01*
X152514904Y-93072857D01*
X152563285Y-92976095D01*
X152563285Y-92734190D01*
X152514904Y-92637428D01*
X152466523Y-92589047D01*
X152369761Y-92540666D01*
X152176238Y-92540666D01*
X152079476Y-92589047D01*
X152031095Y-92637428D01*
X151982714Y-92734190D01*
D16*
X146157142Y-96456428D02*
X146157142Y-95313571D01*
X146728571Y-95885000D02*
X145585714Y-95885000D01*
%TO.C,C12*%
D10*
X118091857Y-93072857D02*
X118043476Y-93121238D01*
X117898333Y-93169619D01*
X117801571Y-93169619D01*
X117656428Y-93121238D01*
X117559666Y-93024476D01*
X117511285Y-92927714D01*
X117462904Y-92734190D01*
X117462904Y-92589047D01*
X117511285Y-92395523D01*
X117559666Y-92298761D01*
X117656428Y-92202000D01*
X117801571Y-92153619D01*
X117898333Y-92153619D01*
X118043476Y-92202000D01*
X118091857Y-92250380D01*
X119059476Y-93169619D02*
X118478904Y-93169619D01*
X118769190Y-93169619D02*
X118769190Y-92153619D01*
X118672428Y-92298761D01*
X118575666Y-92395523D01*
X118478904Y-92443904D01*
X119446523Y-92250380D02*
X119494904Y-92202000D01*
X119591666Y-92153619D01*
X119833571Y-92153619D01*
X119930333Y-92202000D01*
X119978714Y-92250380D01*
X120027095Y-92347142D01*
X120027095Y-92443904D01*
X119978714Y-92589047D01*
X119398142Y-93169619D01*
X120027095Y-93169619D01*
D16*
X112922857Y-95313571D02*
X112922857Y-96456428D01*
X112351428Y-95885000D02*
X113494285Y-95885000D01*
%TO.C,C18*%
D10*
X85071857Y-93072857D02*
X85023476Y-93121238D01*
X84878333Y-93169619D01*
X84781571Y-93169619D01*
X84636428Y-93121238D01*
X84539666Y-93024476D01*
X84491285Y-92927714D01*
X84442904Y-92734190D01*
X84442904Y-92589047D01*
X84491285Y-92395523D01*
X84539666Y-92298761D01*
X84636428Y-92202000D01*
X84781571Y-92153619D01*
X84878333Y-92153619D01*
X85023476Y-92202000D01*
X85071857Y-92250380D01*
X86039476Y-93169619D02*
X85458904Y-93169619D01*
X85749190Y-93169619D02*
X85749190Y-92153619D01*
X85652428Y-92298761D01*
X85555666Y-92395523D01*
X85458904Y-92443904D01*
X86620047Y-92589047D02*
X86523285Y-92540666D01*
X86474904Y-92492285D01*
X86426523Y-92395523D01*
X86426523Y-92347142D01*
X86474904Y-92250380D01*
X86523285Y-92202000D01*
X86620047Y-92153619D01*
X86813571Y-92153619D01*
X86910333Y-92202000D01*
X86958714Y-92250380D01*
X87007095Y-92347142D01*
X87007095Y-92395523D01*
X86958714Y-92492285D01*
X86910333Y-92540666D01*
X86813571Y-92589047D01*
X86620047Y-92589047D01*
X86523285Y-92637428D01*
X86474904Y-92685809D01*
X86426523Y-92782571D01*
X86426523Y-92976095D01*
X86474904Y-93072857D01*
X86523285Y-93121238D01*
X86620047Y-93169619D01*
X86813571Y-93169619D01*
X86910333Y-93121238D01*
X86958714Y-93072857D01*
X87007095Y-92976095D01*
X87007095Y-92782571D01*
X86958714Y-92685809D01*
X86910333Y-92637428D01*
X86813571Y-92589047D01*
D16*
X80117142Y-96456428D02*
X80117142Y-95313571D01*
X80688571Y-95885000D02*
X79545714Y-95885000D01*
%TO.C,T1*%
D10*
X177243619Y-84594095D02*
X177243619Y-84013523D01*
X178259619Y-84303809D02*
X177243619Y-84303809D01*
X178259619Y-83142666D02*
X178259619Y-83723238D01*
X178259619Y-83432952D02*
X177243619Y-83432952D01*
X177388761Y-83529714D01*
X177485523Y-83626476D01*
X177533904Y-83723238D01*
%TO.C,T2*%
X173687619Y-124599095D02*
X173687619Y-124018523D01*
X174703619Y-124308809D02*
X173687619Y-124308809D01*
X173784380Y-123728238D02*
X173736000Y-123679857D01*
X173687619Y-123583095D01*
X173687619Y-123341190D01*
X173736000Y-123244428D01*
X173784380Y-123196047D01*
X173881142Y-123147666D01*
X173977904Y-123147666D01*
X174123047Y-123196047D01*
X174703619Y-123776619D01*
X174703619Y-123147666D01*
%TO.C,T3*%
X144223619Y-84594095D02*
X144223619Y-84013523D01*
X145239619Y-84303809D02*
X144223619Y-84303809D01*
X144223619Y-83771619D02*
X144223619Y-83142666D01*
X144610666Y-83481333D01*
X144610666Y-83336190D01*
X144659047Y-83239428D01*
X144707428Y-83191047D01*
X144804190Y-83142666D01*
X145046095Y-83142666D01*
X145142857Y-83191047D01*
X145191238Y-83239428D01*
X145239619Y-83336190D01*
X145239619Y-83626476D01*
X145191238Y-83723238D01*
X145142857Y-83771619D01*
%TO.C,T4*%
X140667619Y-124599095D02*
X140667619Y-124018523D01*
X141683619Y-124308809D02*
X140667619Y-124308809D01*
X141006285Y-123244428D02*
X141683619Y-123244428D01*
X140619238Y-123486333D02*
X141344952Y-123728238D01*
X141344952Y-123099285D01*
%TO.C,T5*%
X111203619Y-84594095D02*
X111203619Y-84013523D01*
X112219619Y-84303809D02*
X111203619Y-84303809D01*
X111203619Y-83191047D02*
X111203619Y-83674857D01*
X111687428Y-83723238D01*
X111639047Y-83674857D01*
X111590666Y-83578095D01*
X111590666Y-83336190D01*
X111639047Y-83239428D01*
X111687428Y-83191047D01*
X111784190Y-83142666D01*
X112026095Y-83142666D01*
X112122857Y-83191047D01*
X112171238Y-83239428D01*
X112219619Y-83336190D01*
X112219619Y-83578095D01*
X112171238Y-83674857D01*
X112122857Y-83723238D01*
%TO.C,T6*%
X107647619Y-124599095D02*
X107647619Y-124018523D01*
X108663619Y-124308809D02*
X107647619Y-124308809D01*
X107647619Y-123244428D02*
X107647619Y-123437952D01*
X107696000Y-123534714D01*
X107744380Y-123583095D01*
X107889523Y-123679857D01*
X108083047Y-123728238D01*
X108470095Y-123728238D01*
X108566857Y-123679857D01*
X108615238Y-123631476D01*
X108663619Y-123534714D01*
X108663619Y-123341190D01*
X108615238Y-123244428D01*
X108566857Y-123196047D01*
X108470095Y-123147666D01*
X108228190Y-123147666D01*
X108131428Y-123196047D01*
X108083047Y-123244428D01*
X108034666Y-123341190D01*
X108034666Y-123534714D01*
X108083047Y-123631476D01*
X108131428Y-123679857D01*
X108228190Y-123728238D01*
%TD*%
%LPC*%
D17*
%TO.C,SS1*%
X173990000Y-105410000D03*
X171450000Y-105410000D03*
X168910000Y-105410000D03*
X166370000Y-105410000D03*
X163830000Y-105410000D03*
X161290000Y-105410000D03*
X158750000Y-105410000D03*
X156210000Y-105410000D03*
X156210000Y-92710000D03*
X158750000Y-92710000D03*
X161290000Y-92710000D03*
X163830000Y-92710000D03*
X166370000Y-92710000D03*
X168910000Y-92710000D03*
X171450000Y-92710000D03*
X173990000Y-92710000D03*
%TD*%
%TO.C,SS2*%
X140970000Y-105410000D03*
X138430000Y-105410000D03*
X135890000Y-105410000D03*
X133350000Y-105410000D03*
X130810000Y-105410000D03*
X128270000Y-105410000D03*
X125730000Y-105410000D03*
X123190000Y-105410000D03*
X123190000Y-92710000D03*
X125730000Y-92710000D03*
X128270000Y-92710000D03*
X130810000Y-92710000D03*
X133350000Y-92710000D03*
X135890000Y-92710000D03*
X138430000Y-92710000D03*
X140970000Y-92710000D03*
%TD*%
%TO.C,SS3*%
X107950000Y-105410000D03*
X105410000Y-105410000D03*
X102870000Y-105410000D03*
X100330000Y-105410000D03*
X97790000Y-105410000D03*
X95250000Y-105410000D03*
X92710000Y-105410000D03*
X90170000Y-105410000D03*
X90170000Y-92710000D03*
X92710000Y-92710000D03*
X95250000Y-92710000D03*
X97790000Y-92710000D03*
X100330000Y-92710000D03*
X102870000Y-92710000D03*
X105410000Y-92710000D03*
X107950000Y-92710000D03*
%TD*%
D18*
%TO.C,U1*%
G36*
X115058326Y-111331637D02*
G01*
X115091331Y-111336533D01*
X115123697Y-111344640D01*
X115155112Y-111355881D01*
X115185275Y-111370147D01*
X115213894Y-111387300D01*
X115240694Y-111407176D01*
X115265416Y-111429584D01*
X115287824Y-111454306D01*
X115307700Y-111481106D01*
X115324853Y-111509725D01*
X115339119Y-111539888D01*
X115350360Y-111571303D01*
X115358467Y-111603669D01*
X115363363Y-111636674D01*
X115365000Y-111670000D01*
X115365000Y-114390000D01*
X115363363Y-114423326D01*
X115358467Y-114456331D01*
X115350360Y-114488697D01*
X115339119Y-114520112D01*
X115324853Y-114550275D01*
X115307700Y-114578894D01*
X115287824Y-114605694D01*
X115265416Y-114630416D01*
X115240694Y-114652824D01*
X115213894Y-114672700D01*
X115185275Y-114689853D01*
X115155112Y-114704119D01*
X115123697Y-114715360D01*
X115091331Y-114723467D01*
X115058326Y-114728363D01*
X115025000Y-114730000D01*
X112305000Y-114730000D01*
X112271674Y-114728363D01*
X112238669Y-114723467D01*
X112206303Y-114715360D01*
X112174888Y-114704119D01*
X112144725Y-114689853D01*
X112116106Y-114672700D01*
X112089306Y-114652824D01*
X112064584Y-114630416D01*
X112042176Y-114605694D01*
X112022300Y-114578894D01*
X112005147Y-114550275D01*
X111990881Y-114520112D01*
X111979640Y-114488697D01*
X111971533Y-114456331D01*
X111966637Y-114423326D01*
X111965000Y-114390000D01*
X111965000Y-111670000D01*
X111966637Y-111636674D01*
X111971533Y-111603669D01*
X111979640Y-111571303D01*
X111990881Y-111539888D01*
X112005147Y-111509725D01*
X112022300Y-111481106D01*
X112042176Y-111454306D01*
X112064584Y-111429584D01*
X112089306Y-111407176D01*
X112116106Y-111387300D01*
X112144725Y-111370147D01*
X112174888Y-111355881D01*
X112206303Y-111344640D01*
X112238669Y-111336533D01*
X112271674Y-111331637D01*
X112305000Y-111330000D01*
X115025000Y-111330000D01*
X115058326Y-111331637D01*
X115058326Y-111331637D01*
G37*
D19*
X113665000Y-113030000D03*
%TD*%
D20*
%TO.C,MDB1*%
X133350000Y-74930000D03*
X130810000Y-74930000D03*
X128270000Y-74930000D03*
X125730000Y-74930000D03*
X123190000Y-74930000D03*
X120650000Y-74930000D03*
X118110000Y-74930000D03*
X115570000Y-74930000D03*
X113030000Y-74930000D03*
X133350000Y-135890000D03*
X130810000Y-135890000D03*
X128270000Y-135890000D03*
X125730000Y-135890000D03*
X123190000Y-135890000D03*
X120650000Y-135890000D03*
X118110000Y-135890000D03*
X115570000Y-135890000D03*
X113030000Y-135890000D03*
D21*
X165100000Y-74930000D03*
X165100000Y-135890000D03*
X73660000Y-130810000D03*
X73660000Y-80010000D03*
D20*
X72390000Y-135890000D03*
X74930000Y-135890000D03*
X77470000Y-135890000D03*
X80010000Y-135890000D03*
X82550000Y-135890000D03*
X85090000Y-135890000D03*
X87630000Y-135890000D03*
X90170000Y-135890000D03*
X92710000Y-135890000D03*
X95250000Y-135890000D03*
X97790000Y-135890000D03*
X100330000Y-135890000D03*
X102870000Y-135890000D03*
X105410000Y-135890000D03*
X107950000Y-135890000D03*
X110490000Y-135890000D03*
X110490000Y-74930000D03*
X107950000Y-74930000D03*
X105410000Y-74930000D03*
X102870000Y-74930000D03*
X100330000Y-74930000D03*
X97790000Y-74930000D03*
X95250000Y-74930000D03*
X92710000Y-74930000D03*
X90170000Y-74930000D03*
X87630000Y-74930000D03*
X85090000Y-74930000D03*
X82550000Y-74930000D03*
X80010000Y-74930000D03*
D22*
X72390000Y-74930000D03*
D20*
X77470000Y-74930000D03*
X74930000Y-74930000D03*
%TD*%
D23*
%TO.C,P1*%
X186131200Y-109905800D03*
X186131200Y-100914200D03*
D24*
X179146200Y-105410000D03*
D25*
X184632600Y-105410000D03*
D26*
X188137800Y-105410000D03*
%TD*%
D27*
%TO.C,REG1*%
X73660000Y-123190000D03*
X78740000Y-123190000D03*
X76200000Y-123190000D03*
%TD*%
D28*
%TO.C,C6*%
X148590000Y-103410000D03*
X148590000Y-94710000D03*
%TD*%
%TO.C,C12*%
X115570000Y-103410000D03*
X115570000Y-94710000D03*
%TD*%
%TO.C,C18*%
X82550000Y-103410000D03*
X82550000Y-94710000D03*
%TD*%
D29*
%TO.C,T1*%
X172720000Y-83820000D03*
X157480000Y-83820000D03*
X162560000Y-83820000D03*
X167640000Y-83820000D03*
%TD*%
D30*
%TO.C,T2*%
X170815000Y-123825000D03*
X159385000Y-123825000D03*
X163195000Y-123825000D03*
X167005000Y-123825000D03*
%TD*%
D29*
%TO.C,T3*%
X139700000Y-83820000D03*
X124460000Y-83820000D03*
X129540000Y-83820000D03*
X134620000Y-83820000D03*
%TD*%
D30*
%TO.C,T4*%
X137795000Y-123825000D03*
X126365000Y-123825000D03*
X130175000Y-123825000D03*
X133985000Y-123825000D03*
%TD*%
D29*
%TO.C,T5*%
X106680000Y-83820000D03*
X91440000Y-83820000D03*
X96520000Y-83820000D03*
X101600000Y-83820000D03*
%TD*%
D30*
%TO.C,T6*%
X104775000Y-123825000D03*
X93345000Y-123825000D03*
X97155000Y-123825000D03*
X100965000Y-123825000D03*
%TD*%
M02*
