M48
;DRILL file {KiCad no-vcs-found-1466d0c~58~ubuntu16.04.1} date Mon Jun 19 16:09:30 2017
;FORMAT={-:-/ absolute / inch / decimal}
FMAT,2
INCH,TZ
T1C0.025
T2C0.043
T3C0.047
T4C0.055
T5C0.061
T6C0.063
T7C0.079
T8C0.106
T9C0.124
T10C0.130
%
G90
G05
M72
T1
X3.9835Y-4.9971
X3.989Y-4.9431
X4.1434Y-4.6322
X4.4004Y-4.6468
X4.4202Y-4.7779
X4.4555Y-4.7302
X4.4945Y-4.7299
X4.5003Y-4.3553
X4.5359Y-4.2713
X4.6083Y-4.3448
X4.6721Y-4.3536
X4.7197Y-4.457
X5.2712Y-5.1032
T2
X2.85Y-2.95
X2.85Y-5.35
X2.95Y-2.95
X2.95Y-5.35
X3.05Y-2.95
X3.05Y-5.35
X3.15Y-2.95
X3.15Y-5.35
X3.25Y-2.95
X3.25Y-5.35
X3.35Y-2.95
X3.35Y-5.35
X3.45Y-2.95
X3.45Y-5.35
X3.55Y-2.95
X3.55Y-5.35
X3.65Y-2.95
X3.65Y-5.35
X3.75Y-2.95
X3.75Y-5.35
X3.85Y-2.95
X3.85Y-5.35
X3.95Y-2.95
X3.95Y-5.35
X4.05Y-2.95
X4.05Y-5.35
X4.15Y-2.95
X4.15Y-5.35
X4.25Y-2.95
X4.25Y-5.35
X4.35Y-2.95
X4.35Y-5.35
X4.45Y-2.95
X4.45Y-5.35
X4.55Y-2.95
X4.55Y-5.35
X4.65Y-2.95
X4.65Y-5.35
X4.75Y-2.95
X4.75Y-5.35
X4.85Y-2.95
X4.85Y-5.35
X4.95Y-2.95
X4.95Y-5.35
X5.05Y-2.95
X5.05Y-5.35
X5.15Y-2.95
X5.15Y-5.35
X5.25Y-2.95
X5.25Y-5.35
T3
X3.675Y-4.875
X3.825Y-4.875
X3.975Y-4.875
X4.125Y-4.875
X6.275Y-4.875
X6.425Y-4.875
X6.575Y-4.875
X6.725Y-4.875
X4.975Y-4.875
X5.125Y-4.875
X5.275Y-4.875
X5.425Y-4.875
T4
X6.2Y-3.325
X6.4Y-3.325
X6.6Y-3.325
X6.8Y-3.325
X4.9Y-3.325
X5.1Y-3.325
X5.3Y-3.325
X5.5Y-3.325
X3.6Y-3.325
X3.8Y-3.325
X4.Y-3.325
X4.2Y-3.325
T5
X4.85Y-3.625
X4.85Y-4.125
X4.95Y-3.625
X4.95Y-4.125
X5.05Y-3.625
X5.05Y-4.125
X5.15Y-3.625
X5.15Y-4.125
X5.25Y-3.625
X5.25Y-4.125
X5.35Y-3.625
X5.35Y-4.125
X5.45Y-3.625
X5.45Y-4.125
X5.55Y-3.625
X5.55Y-4.125
X3.55Y-3.625
X3.55Y-4.125
X3.65Y-3.625
X3.65Y-4.125
X3.75Y-3.625
X3.75Y-4.125
X3.85Y-3.625
X3.85Y-4.125
X3.95Y-3.625
X3.95Y-4.125
X4.05Y-3.625
X4.05Y-4.125
X4.15Y-3.625
X4.15Y-4.125
X4.25Y-3.625
X4.25Y-4.125
X6.15Y-3.625
X6.15Y-4.125
X6.25Y-3.625
X6.25Y-4.125
X6.35Y-3.625
X6.35Y-4.125
X6.45Y-3.625
X6.45Y-4.125
X6.55Y-3.625
X6.55Y-4.125
X6.65Y-3.625
X6.65Y-4.125
X6.75Y-3.625
X6.75Y-4.125
X6.85Y-3.625
X6.85Y-4.125
T6
X7.407Y-4.15
T7
X4.55Y-4.55
T8
X7.289Y-4.15
X7.328Y-3.973
X7.328Y-4.327
T9
X7.053Y-4.15
T10
X2.9Y-3.15
X2.9Y-5.15
X6.5Y-2.95
X6.5Y-5.35
T0
M30
