G04 #@! TF.GenerationSoftware,KiCad,Pcbnew,no-vcs-found-1466d0c~58~ubuntu16.04.1*
G04 #@! TF.CreationDate,2017-06-19T16:09:28-04:00*
G04 #@! TF.ProjectId,stepper_controller_5x3,737465707065725F636F6E74726F6C6C,1.0*
G04 #@! TF.SameCoordinates,Original
G04 #@! TF.FileFunction,Legend,Bot*
G04 #@! TF.FilePolarity,Positive*
%FSLAX46Y46*%
G04 Gerber Fmt 4.6, Leading zero omitted, Abs format (unit mm)*
G04 Created by KiCad (PCBNEW no-vcs-found-1466d0c~58~ubuntu16.04.1) date Mon Jun 19 16:09:28 2017*
%MOMM*%
%LPD*%
G01*
G04 APERTURE LIST*
%ADD10C,0.100000*%
%ADD11C,0.228600*%
%ADD12C,0.381000*%
%ADD13C,0.127000*%
%ADD14C,0.250000*%
%ADD15C,0.254000*%
%ADD16C,0.125000*%
%ADD17O,2.032000X3.048000*%
%ADD18O,1.854200X2.540000*%
%ADD19C,3.556000*%
%ADD20R,1.854200X2.540000*%
%ADD21R,2.540000X1.270000*%
%ADD22R,1.270000X2.540000*%
%ADD23R,1.800000X2.000000*%
%ADD24R,4.000000X5.160000*%
%ADD25R,1.800000X1.640000*%
%ADD26C,1.930400*%
%ADD27O,4.572000X3.556000*%
%ADD28O,4.064000X5.080000*%
%ADD29O,5.080000X3.556000*%
%ADD30C,2.540000*%
%ADD31C,2.340000*%
%ADD32R,2.075000X0.325000*%
%ADD33R,0.325000X2.075000*%
%ADD34R,3.475000X3.475000*%
%ADD35R,0.762000X1.534160*%
G04 APERTURE END LIST*
D10*
D11*
X191135000Y-71755000D02*
X69850000Y-71755000D01*
X191135000Y-139065000D02*
X191135000Y-71755000D01*
X69850000Y-139065000D02*
X191135000Y-139065000D01*
X69850000Y-71755000D02*
X69850000Y-139065000D01*
D12*
X71120000Y-76200000D02*
X134620000Y-76200000D01*
X71120000Y-73660000D02*
X134620000Y-73660000D01*
X71120000Y-137160000D02*
X134620000Y-137160000D01*
X71120000Y-134620000D02*
X134620000Y-134620000D01*
X134620000Y-76200000D02*
X134620000Y-73660000D01*
X71120000Y-73660000D02*
X71120000Y-76200000D01*
X134620000Y-137160000D02*
X134620000Y-134620000D01*
X71120000Y-134620000D02*
X71120000Y-137160000D01*
D13*
X131318000Y-114808000D02*
X131318000Y-113284000D01*
X131318000Y-113284000D02*
X134112000Y-113284000D01*
X134112000Y-113284000D02*
X134112000Y-114808000D01*
X134112000Y-116332000D02*
X134112000Y-117856000D01*
X134112000Y-117856000D02*
X131318000Y-117856000D01*
X131318000Y-117856000D02*
X131318000Y-116332000D01*
X109347000Y-113284000D02*
X109347000Y-114808000D01*
X106553000Y-113284000D02*
X109347000Y-113284000D01*
X106553000Y-114808000D02*
X106553000Y-113284000D01*
X106553000Y-117856000D02*
X106553000Y-116332000D01*
X109347000Y-117856000D02*
X106553000Y-117856000D01*
X109347000Y-116332000D02*
X109347000Y-117856000D01*
X159766000Y-97917000D02*
X158242000Y-97917000D01*
X159766000Y-95123000D02*
X159766000Y-97917000D01*
X158242000Y-95123000D02*
X159766000Y-95123000D01*
X155194000Y-95123000D02*
X156718000Y-95123000D01*
X155194000Y-97917000D02*
X155194000Y-95123000D01*
X156718000Y-97917000D02*
X155194000Y-97917000D01*
X161417000Y-129032000D02*
X161417000Y-130556000D01*
X161417000Y-130556000D02*
X158623000Y-130556000D01*
X158623000Y-130556000D02*
X158623000Y-129032000D01*
X158623000Y-127508000D02*
X158623000Y-125984000D01*
X158623000Y-125984000D02*
X161417000Y-125984000D01*
X161417000Y-125984000D02*
X161417000Y-127508000D01*
X126746000Y-97917000D02*
X125222000Y-97917000D01*
X126746000Y-95123000D02*
X126746000Y-97917000D01*
X125222000Y-95123000D02*
X126746000Y-95123000D01*
X122174000Y-95123000D02*
X123698000Y-95123000D01*
X122174000Y-97917000D02*
X122174000Y-95123000D01*
X123698000Y-97917000D02*
X122174000Y-97917000D01*
X128397000Y-129032000D02*
X128397000Y-130556000D01*
X128397000Y-130556000D02*
X125603000Y-130556000D01*
X125603000Y-130556000D02*
X125603000Y-129032000D01*
X125603000Y-127508000D02*
X125603000Y-125984000D01*
X125603000Y-125984000D02*
X128397000Y-125984000D01*
X128397000Y-125984000D02*
X128397000Y-127508000D01*
X93726000Y-97917000D02*
X92202000Y-97917000D01*
X93726000Y-95123000D02*
X93726000Y-97917000D01*
X92202000Y-95123000D02*
X93726000Y-95123000D01*
X89154000Y-95123000D02*
X90678000Y-95123000D01*
X89154000Y-97917000D02*
X89154000Y-95123000D01*
X90678000Y-97917000D02*
X89154000Y-97917000D01*
X95377000Y-129032000D02*
X95377000Y-130556000D01*
X95377000Y-130556000D02*
X92583000Y-130556000D01*
X92583000Y-130556000D02*
X92583000Y-129032000D01*
X92583000Y-127508000D02*
X92583000Y-125984000D01*
X92583000Y-125984000D02*
X95377000Y-125984000D01*
X95377000Y-125984000D02*
X95377000Y-127508000D01*
D12*
X122230000Y-113070000D02*
X129230000Y-113070000D01*
X122230000Y-118070000D02*
X122230000Y-113070000D01*
X129230000Y-118070000D02*
X122230000Y-118070000D01*
X129230000Y-113070000D02*
X129230000Y-118070000D01*
X127083553Y-117320000D02*
G75*
G03X127083553Y-117320000I-353553J0D01*
G01*
D11*
X176770000Y-102175000D02*
X181370000Y-102175000D01*
X181370000Y-102175000D02*
X181370000Y-94675000D01*
X181370000Y-94675000D02*
X176770000Y-94675000D01*
X176770000Y-94675000D02*
X176770000Y-102175000D01*
D14*
X117570000Y-113070000D02*
X118070000Y-113570000D01*
X118070000Y-117570000D02*
X118070000Y-118070000D01*
X118070000Y-118070000D02*
X117570000Y-118070000D01*
X113070000Y-117570000D02*
X113070000Y-118070000D01*
X113070000Y-118070000D02*
X113570000Y-118070000D01*
X113570000Y-113070000D02*
X113070000Y-113070000D01*
X113070000Y-113070000D02*
X113070000Y-113570000D01*
X118320000Y-113070000D02*
G75*
G03X118320000Y-113070000I-250000J0D01*
G01*
D11*
X163703000Y-127000000D02*
X164211000Y-127000000D01*
X163957000Y-126746000D02*
X163957000Y-127254000D01*
D12*
X164719000Y-128270000D02*
X166751000Y-128270000D01*
X131064000Y-128270000D02*
X133096000Y-128270000D01*
D11*
X130302000Y-126746000D02*
X130302000Y-127254000D01*
X130048000Y-127000000D02*
X130556000Y-127000000D01*
D12*
X98044000Y-128270000D02*
X100076000Y-128270000D01*
D11*
X97282000Y-126746000D02*
X97282000Y-127254000D01*
X97028000Y-127000000D02*
X97536000Y-127000000D01*
D15*
X130791857Y-115400666D02*
X130840238Y-115352285D01*
X130888619Y-115207142D01*
X130888619Y-115110380D01*
X130840238Y-114965238D01*
X130743476Y-114868476D01*
X130646714Y-114820095D01*
X130453190Y-114771714D01*
X130308047Y-114771714D01*
X130114523Y-114820095D01*
X130017761Y-114868476D01*
X129921000Y-114965238D01*
X129872619Y-115110380D01*
X129872619Y-115207142D01*
X129921000Y-115352285D01*
X129969380Y-115400666D01*
X130888619Y-116368285D02*
X130888619Y-115787714D01*
X130888619Y-116078000D02*
X129872619Y-116078000D01*
X130017761Y-115981238D01*
X130114523Y-115884476D01*
X130162904Y-115787714D01*
X134444619Y-113900857D02*
X134444619Y-113997619D01*
X134493000Y-114094380D01*
X134541380Y-114142761D01*
X134638142Y-114191142D01*
X134831666Y-114239523D01*
X135073571Y-114239523D01*
X135267095Y-114191142D01*
X135363857Y-114142761D01*
X135412238Y-114094380D01*
X135460619Y-113997619D01*
X135460619Y-113900857D01*
X135412238Y-113804095D01*
X135363857Y-113755714D01*
X135267095Y-113707333D01*
X135073571Y-113658952D01*
X134831666Y-113658952D01*
X134638142Y-113707333D01*
X134541380Y-113755714D01*
X134493000Y-113804095D01*
X134444619Y-113900857D01*
X135363857Y-114674952D02*
X135412238Y-114723333D01*
X135460619Y-114674952D01*
X135412238Y-114626571D01*
X135363857Y-114674952D01*
X135460619Y-114674952D01*
X135460619Y-115690952D02*
X135460619Y-115110380D01*
X135460619Y-115400666D02*
X134444619Y-115400666D01*
X134589761Y-115303904D01*
X134686523Y-115207142D01*
X134734904Y-115110380D01*
X134783285Y-116561809D02*
X135460619Y-116561809D01*
X134783285Y-116126380D02*
X135315476Y-116126380D01*
X135412238Y-116174761D01*
X135460619Y-116271523D01*
X135460619Y-116416666D01*
X135412238Y-116513428D01*
X135363857Y-116561809D01*
X134928428Y-117384285D02*
X134928428Y-117045619D01*
X135460619Y-117045619D02*
X134444619Y-117045619D01*
X134444619Y-117529428D01*
X110598857Y-115400666D02*
X110647238Y-115352285D01*
X110695619Y-115207142D01*
X110695619Y-115110380D01*
X110647238Y-114965238D01*
X110550476Y-114868476D01*
X110453714Y-114820095D01*
X110260190Y-114771714D01*
X110115047Y-114771714D01*
X109921523Y-114820095D01*
X109824761Y-114868476D01*
X109728000Y-114965238D01*
X109679619Y-115110380D01*
X109679619Y-115207142D01*
X109728000Y-115352285D01*
X109776380Y-115400666D01*
X109776380Y-115787714D02*
X109728000Y-115836095D01*
X109679619Y-115932857D01*
X109679619Y-116174761D01*
X109728000Y-116271523D01*
X109776380Y-116319904D01*
X109873142Y-116368285D01*
X109969904Y-116368285D01*
X110115047Y-116319904D01*
X110695619Y-115739333D01*
X110695619Y-116368285D01*
X105107619Y-113900857D02*
X105107619Y-113997619D01*
X105156000Y-114094380D01*
X105204380Y-114142761D01*
X105301142Y-114191142D01*
X105494666Y-114239523D01*
X105736571Y-114239523D01*
X105930095Y-114191142D01*
X106026857Y-114142761D01*
X106075238Y-114094380D01*
X106123619Y-113997619D01*
X106123619Y-113900857D01*
X106075238Y-113804095D01*
X106026857Y-113755714D01*
X105930095Y-113707333D01*
X105736571Y-113658952D01*
X105494666Y-113658952D01*
X105301142Y-113707333D01*
X105204380Y-113755714D01*
X105156000Y-113804095D01*
X105107619Y-113900857D01*
X106026857Y-114674952D02*
X106075238Y-114723333D01*
X106123619Y-114674952D01*
X106075238Y-114626571D01*
X106026857Y-114674952D01*
X106123619Y-114674952D01*
X106123619Y-115690952D02*
X106123619Y-115110380D01*
X106123619Y-115400666D02*
X105107619Y-115400666D01*
X105252761Y-115303904D01*
X105349523Y-115207142D01*
X105397904Y-115110380D01*
X105446285Y-116561809D02*
X106123619Y-116561809D01*
X105446285Y-116126380D02*
X105978476Y-116126380D01*
X106075238Y-116174761D01*
X106123619Y-116271523D01*
X106123619Y-116416666D01*
X106075238Y-116513428D01*
X106026857Y-116561809D01*
X105591428Y-117384285D02*
X105591428Y-117045619D01*
X106123619Y-117045619D02*
X105107619Y-117045619D01*
X105107619Y-117529428D01*
X157649333Y-99168857D02*
X157697714Y-99217238D01*
X157842857Y-99265619D01*
X157939619Y-99265619D01*
X158084761Y-99217238D01*
X158181523Y-99120476D01*
X158229904Y-99023714D01*
X158278285Y-98830190D01*
X158278285Y-98685047D01*
X158229904Y-98491523D01*
X158181523Y-98394761D01*
X158084761Y-98298000D01*
X157939619Y-98249619D01*
X157842857Y-98249619D01*
X157697714Y-98298000D01*
X157649333Y-98346380D01*
X156778476Y-98588285D02*
X156778476Y-99265619D01*
X157020380Y-98201238D02*
X157262285Y-98926952D01*
X156633333Y-98926952D01*
X158568571Y-94693619D02*
X159149142Y-94693619D01*
X158858857Y-94693619D02*
X158858857Y-93677619D01*
X158955619Y-93822761D01*
X159052380Y-93919523D01*
X159149142Y-93967904D01*
X157939619Y-93677619D02*
X157842857Y-93677619D01*
X157746095Y-93726000D01*
X157697714Y-93774380D01*
X157649333Y-93871142D01*
X157600952Y-94064666D01*
X157600952Y-94306571D01*
X157649333Y-94500095D01*
X157697714Y-94596857D01*
X157746095Y-94645238D01*
X157842857Y-94693619D01*
X157939619Y-94693619D01*
X158036380Y-94645238D01*
X158084761Y-94596857D01*
X158133142Y-94500095D01*
X158181523Y-94306571D01*
X158181523Y-94064666D01*
X158133142Y-93871142D01*
X158084761Y-93774380D01*
X158036380Y-93726000D01*
X157939619Y-93677619D01*
X156730095Y-94016285D02*
X156730095Y-94693619D01*
X157165523Y-94016285D02*
X157165523Y-94548476D01*
X157117142Y-94645238D01*
X157020380Y-94693619D01*
X156875238Y-94693619D01*
X156778476Y-94645238D01*
X156730095Y-94596857D01*
X155907619Y-94161428D02*
X156246285Y-94161428D01*
X156246285Y-94693619D02*
X156246285Y-93677619D01*
X155762476Y-93677619D01*
X162668857Y-128100666D02*
X162717238Y-128052285D01*
X162765619Y-127907142D01*
X162765619Y-127810380D01*
X162717238Y-127665238D01*
X162620476Y-127568476D01*
X162523714Y-127520095D01*
X162330190Y-127471714D01*
X162185047Y-127471714D01*
X161991523Y-127520095D01*
X161894761Y-127568476D01*
X161798000Y-127665238D01*
X161749619Y-127810380D01*
X161749619Y-127907142D01*
X161798000Y-128052285D01*
X161846380Y-128100666D01*
X161749619Y-129019904D02*
X161749619Y-128536095D01*
X162233428Y-128487714D01*
X162185047Y-128536095D01*
X162136666Y-128632857D01*
X162136666Y-128874761D01*
X162185047Y-128971523D01*
X162233428Y-129019904D01*
X162330190Y-129068285D01*
X162572095Y-129068285D01*
X162668857Y-129019904D01*
X162717238Y-128971523D01*
X162765619Y-128874761D01*
X162765619Y-128632857D01*
X162717238Y-128536095D01*
X162668857Y-128487714D01*
X157177619Y-126600857D02*
X157177619Y-126697619D01*
X157226000Y-126794380D01*
X157274380Y-126842761D01*
X157371142Y-126891142D01*
X157564666Y-126939523D01*
X157806571Y-126939523D01*
X158000095Y-126891142D01*
X158096857Y-126842761D01*
X158145238Y-126794380D01*
X158193619Y-126697619D01*
X158193619Y-126600857D01*
X158145238Y-126504095D01*
X158096857Y-126455714D01*
X158000095Y-126407333D01*
X157806571Y-126358952D01*
X157564666Y-126358952D01*
X157371142Y-126407333D01*
X157274380Y-126455714D01*
X157226000Y-126504095D01*
X157177619Y-126600857D01*
X158096857Y-127374952D02*
X158145238Y-127423333D01*
X158193619Y-127374952D01*
X158145238Y-127326571D01*
X158096857Y-127374952D01*
X158193619Y-127374952D01*
X158193619Y-128390952D02*
X158193619Y-127810380D01*
X158193619Y-128100666D02*
X157177619Y-128100666D01*
X157322761Y-128003904D01*
X157419523Y-127907142D01*
X157467904Y-127810380D01*
X157516285Y-129261809D02*
X158193619Y-129261809D01*
X157516285Y-128826380D02*
X158048476Y-128826380D01*
X158145238Y-128874761D01*
X158193619Y-128971523D01*
X158193619Y-129116666D01*
X158145238Y-129213428D01*
X158096857Y-129261809D01*
X157661428Y-130084285D02*
X157661428Y-129745619D01*
X158193619Y-129745619D02*
X157177619Y-129745619D01*
X157177619Y-130229428D01*
X124629333Y-99168857D02*
X124677714Y-99217238D01*
X124822857Y-99265619D01*
X124919619Y-99265619D01*
X125064761Y-99217238D01*
X125161523Y-99120476D01*
X125209904Y-99023714D01*
X125258285Y-98830190D01*
X125258285Y-98685047D01*
X125209904Y-98491523D01*
X125161523Y-98394761D01*
X125064761Y-98298000D01*
X124919619Y-98249619D01*
X124822857Y-98249619D01*
X124677714Y-98298000D01*
X124629333Y-98346380D01*
X124290666Y-98249619D02*
X123613333Y-98249619D01*
X124048761Y-99265619D01*
X125548571Y-94693619D02*
X126129142Y-94693619D01*
X125838857Y-94693619D02*
X125838857Y-93677619D01*
X125935619Y-93822761D01*
X126032380Y-93919523D01*
X126129142Y-93967904D01*
X124919619Y-93677619D02*
X124822857Y-93677619D01*
X124726095Y-93726000D01*
X124677714Y-93774380D01*
X124629333Y-93871142D01*
X124580952Y-94064666D01*
X124580952Y-94306571D01*
X124629333Y-94500095D01*
X124677714Y-94596857D01*
X124726095Y-94645238D01*
X124822857Y-94693619D01*
X124919619Y-94693619D01*
X125016380Y-94645238D01*
X125064761Y-94596857D01*
X125113142Y-94500095D01*
X125161523Y-94306571D01*
X125161523Y-94064666D01*
X125113142Y-93871142D01*
X125064761Y-93774380D01*
X125016380Y-93726000D01*
X124919619Y-93677619D01*
X123710095Y-94016285D02*
X123710095Y-94693619D01*
X124145523Y-94016285D02*
X124145523Y-94548476D01*
X124097142Y-94645238D01*
X124000380Y-94693619D01*
X123855238Y-94693619D01*
X123758476Y-94645238D01*
X123710095Y-94596857D01*
X122887619Y-94161428D02*
X123226285Y-94161428D01*
X123226285Y-94693619D02*
X123226285Y-93677619D01*
X122742476Y-93677619D01*
X129648857Y-128100666D02*
X129697238Y-128052285D01*
X129745619Y-127907142D01*
X129745619Y-127810380D01*
X129697238Y-127665238D01*
X129600476Y-127568476D01*
X129503714Y-127520095D01*
X129310190Y-127471714D01*
X129165047Y-127471714D01*
X128971523Y-127520095D01*
X128874761Y-127568476D01*
X128778000Y-127665238D01*
X128729619Y-127810380D01*
X128729619Y-127907142D01*
X128778000Y-128052285D01*
X128826380Y-128100666D01*
X129165047Y-128681238D02*
X129116666Y-128584476D01*
X129068285Y-128536095D01*
X128971523Y-128487714D01*
X128923142Y-128487714D01*
X128826380Y-128536095D01*
X128778000Y-128584476D01*
X128729619Y-128681238D01*
X128729619Y-128874761D01*
X128778000Y-128971523D01*
X128826380Y-129019904D01*
X128923142Y-129068285D01*
X128971523Y-129068285D01*
X129068285Y-129019904D01*
X129116666Y-128971523D01*
X129165047Y-128874761D01*
X129165047Y-128681238D01*
X129213428Y-128584476D01*
X129261809Y-128536095D01*
X129358571Y-128487714D01*
X129552095Y-128487714D01*
X129648857Y-128536095D01*
X129697238Y-128584476D01*
X129745619Y-128681238D01*
X129745619Y-128874761D01*
X129697238Y-128971523D01*
X129648857Y-129019904D01*
X129552095Y-129068285D01*
X129358571Y-129068285D01*
X129261809Y-129019904D01*
X129213428Y-128971523D01*
X129165047Y-128874761D01*
X124157619Y-126600857D02*
X124157619Y-126697619D01*
X124206000Y-126794380D01*
X124254380Y-126842761D01*
X124351142Y-126891142D01*
X124544666Y-126939523D01*
X124786571Y-126939523D01*
X124980095Y-126891142D01*
X125076857Y-126842761D01*
X125125238Y-126794380D01*
X125173619Y-126697619D01*
X125173619Y-126600857D01*
X125125238Y-126504095D01*
X125076857Y-126455714D01*
X124980095Y-126407333D01*
X124786571Y-126358952D01*
X124544666Y-126358952D01*
X124351142Y-126407333D01*
X124254380Y-126455714D01*
X124206000Y-126504095D01*
X124157619Y-126600857D01*
X125076857Y-127374952D02*
X125125238Y-127423333D01*
X125173619Y-127374952D01*
X125125238Y-127326571D01*
X125076857Y-127374952D01*
X125173619Y-127374952D01*
X125173619Y-128390952D02*
X125173619Y-127810380D01*
X125173619Y-128100666D02*
X124157619Y-128100666D01*
X124302761Y-128003904D01*
X124399523Y-127907142D01*
X124447904Y-127810380D01*
X124496285Y-129261809D02*
X125173619Y-129261809D01*
X124496285Y-128826380D02*
X125028476Y-128826380D01*
X125125238Y-128874761D01*
X125173619Y-128971523D01*
X125173619Y-129116666D01*
X125125238Y-129213428D01*
X125076857Y-129261809D01*
X124641428Y-130084285D02*
X124641428Y-129745619D01*
X125173619Y-129745619D02*
X124157619Y-129745619D01*
X124157619Y-130229428D01*
X92093142Y-99168857D02*
X92141523Y-99217238D01*
X92286666Y-99265619D01*
X92383428Y-99265619D01*
X92528571Y-99217238D01*
X92625333Y-99120476D01*
X92673714Y-99023714D01*
X92722095Y-98830190D01*
X92722095Y-98685047D01*
X92673714Y-98491523D01*
X92625333Y-98394761D01*
X92528571Y-98298000D01*
X92383428Y-98249619D01*
X92286666Y-98249619D01*
X92141523Y-98298000D01*
X92093142Y-98346380D01*
X91125523Y-99265619D02*
X91706095Y-99265619D01*
X91415809Y-99265619D02*
X91415809Y-98249619D01*
X91512571Y-98394761D01*
X91609333Y-98491523D01*
X91706095Y-98539904D01*
X90496571Y-98249619D02*
X90399809Y-98249619D01*
X90303047Y-98298000D01*
X90254666Y-98346380D01*
X90206285Y-98443142D01*
X90157904Y-98636666D01*
X90157904Y-98878571D01*
X90206285Y-99072095D01*
X90254666Y-99168857D01*
X90303047Y-99217238D01*
X90399809Y-99265619D01*
X90496571Y-99265619D01*
X90593333Y-99217238D01*
X90641714Y-99168857D01*
X90690095Y-99072095D01*
X90738476Y-98878571D01*
X90738476Y-98636666D01*
X90690095Y-98443142D01*
X90641714Y-98346380D01*
X90593333Y-98298000D01*
X90496571Y-98249619D01*
X92528571Y-94693619D02*
X93109142Y-94693619D01*
X92818857Y-94693619D02*
X92818857Y-93677619D01*
X92915619Y-93822761D01*
X93012380Y-93919523D01*
X93109142Y-93967904D01*
X91899619Y-93677619D02*
X91802857Y-93677619D01*
X91706095Y-93726000D01*
X91657714Y-93774380D01*
X91609333Y-93871142D01*
X91560952Y-94064666D01*
X91560952Y-94306571D01*
X91609333Y-94500095D01*
X91657714Y-94596857D01*
X91706095Y-94645238D01*
X91802857Y-94693619D01*
X91899619Y-94693619D01*
X91996380Y-94645238D01*
X92044761Y-94596857D01*
X92093142Y-94500095D01*
X92141523Y-94306571D01*
X92141523Y-94064666D01*
X92093142Y-93871142D01*
X92044761Y-93774380D01*
X91996380Y-93726000D01*
X91899619Y-93677619D01*
X90690095Y-94016285D02*
X90690095Y-94693619D01*
X91125523Y-94016285D02*
X91125523Y-94548476D01*
X91077142Y-94645238D01*
X90980380Y-94693619D01*
X90835238Y-94693619D01*
X90738476Y-94645238D01*
X90690095Y-94596857D01*
X89867619Y-94161428D02*
X90206285Y-94161428D01*
X90206285Y-94693619D02*
X90206285Y-93677619D01*
X89722476Y-93677619D01*
X96628857Y-127616857D02*
X96677238Y-127568476D01*
X96725619Y-127423333D01*
X96725619Y-127326571D01*
X96677238Y-127181428D01*
X96580476Y-127084666D01*
X96483714Y-127036285D01*
X96290190Y-126987904D01*
X96145047Y-126987904D01*
X95951523Y-127036285D01*
X95854761Y-127084666D01*
X95758000Y-127181428D01*
X95709619Y-127326571D01*
X95709619Y-127423333D01*
X95758000Y-127568476D01*
X95806380Y-127616857D01*
X96725619Y-128584476D02*
X96725619Y-128003904D01*
X96725619Y-128294190D02*
X95709619Y-128294190D01*
X95854761Y-128197428D01*
X95951523Y-128100666D01*
X95999904Y-128003904D01*
X96725619Y-129552095D02*
X96725619Y-128971523D01*
X96725619Y-129261809D02*
X95709619Y-129261809D01*
X95854761Y-129165047D01*
X95951523Y-129068285D01*
X95999904Y-128971523D01*
X91137619Y-126600857D02*
X91137619Y-126697619D01*
X91186000Y-126794380D01*
X91234380Y-126842761D01*
X91331142Y-126891142D01*
X91524666Y-126939523D01*
X91766571Y-126939523D01*
X91960095Y-126891142D01*
X92056857Y-126842761D01*
X92105238Y-126794380D01*
X92153619Y-126697619D01*
X92153619Y-126600857D01*
X92105238Y-126504095D01*
X92056857Y-126455714D01*
X91960095Y-126407333D01*
X91766571Y-126358952D01*
X91524666Y-126358952D01*
X91331142Y-126407333D01*
X91234380Y-126455714D01*
X91186000Y-126504095D01*
X91137619Y-126600857D01*
X92056857Y-127374952D02*
X92105238Y-127423333D01*
X92153619Y-127374952D01*
X92105238Y-127326571D01*
X92056857Y-127374952D01*
X92153619Y-127374952D01*
X92153619Y-128390952D02*
X92153619Y-127810380D01*
X92153619Y-128100666D02*
X91137619Y-128100666D01*
X91282761Y-128003904D01*
X91379523Y-127907142D01*
X91427904Y-127810380D01*
X91476285Y-129261809D02*
X92153619Y-129261809D01*
X91476285Y-128826380D02*
X92008476Y-128826380D01*
X92105238Y-128874761D01*
X92153619Y-128971523D01*
X92153619Y-129116666D01*
X92105238Y-129213428D01*
X92056857Y-129261809D01*
X91621428Y-130084285D02*
X91621428Y-129745619D01*
X92153619Y-129745619D02*
X91137619Y-129745619D01*
X91137619Y-130229428D01*
X126818571Y-112182857D02*
X126866952Y-112231238D01*
X127012095Y-112279619D01*
X127108857Y-112279619D01*
X127254000Y-112231238D01*
X127350761Y-112134476D01*
X127399142Y-112037714D01*
X127447523Y-111844190D01*
X127447523Y-111699047D01*
X127399142Y-111505523D01*
X127350761Y-111408761D01*
X127254000Y-111312000D01*
X127108857Y-111263619D01*
X127012095Y-111263619D01*
X126866952Y-111312000D01*
X126818571Y-111360380D01*
X125899333Y-112279619D02*
X126383142Y-112279619D01*
X126383142Y-111263619D01*
X125560666Y-112279619D02*
X125560666Y-111263619D01*
X124980095Y-112279619D02*
X125415523Y-111699047D01*
X124980095Y-111263619D02*
X125560666Y-111844190D01*
X124012476Y-112279619D02*
X124593047Y-112279619D01*
X124302761Y-112279619D02*
X124302761Y-111263619D01*
X124399523Y-111408761D01*
X124496285Y-111505523D01*
X124593047Y-111553904D01*
D16*
X127122857Y-115748571D02*
X127146666Y-115772380D01*
X127218095Y-115796190D01*
X127265714Y-115796190D01*
X127337142Y-115772380D01*
X127384761Y-115724761D01*
X127408571Y-115677142D01*
X127432380Y-115581904D01*
X127432380Y-115510476D01*
X127408571Y-115415238D01*
X127384761Y-115367619D01*
X127337142Y-115320000D01*
X127265714Y-115296190D01*
X127218095Y-115296190D01*
X127146666Y-115320000D01*
X127122857Y-115343809D01*
X126980000Y-115296190D02*
X126694285Y-115296190D01*
X126837142Y-115796190D02*
X126837142Y-115296190D01*
X126551428Y-115772380D02*
X126480000Y-115796190D01*
X126360952Y-115796190D01*
X126313333Y-115772380D01*
X126289523Y-115748571D01*
X126265714Y-115700952D01*
X126265714Y-115653333D01*
X126289523Y-115605714D01*
X126313333Y-115581904D01*
X126360952Y-115558095D01*
X126456190Y-115534285D01*
X126503809Y-115510476D01*
X126527619Y-115486666D01*
X126551428Y-115439047D01*
X126551428Y-115391428D01*
X126527619Y-115343809D01*
X126503809Y-115320000D01*
X126456190Y-115296190D01*
X126337142Y-115296190D01*
X126265714Y-115320000D01*
X125980000Y-115296190D02*
X125980000Y-115415238D01*
X126099047Y-115367619D02*
X125980000Y-115415238D01*
X125860952Y-115367619D01*
X126051428Y-115510476D02*
X125980000Y-115415238D01*
X125908571Y-115510476D01*
X125599047Y-115296190D02*
X125599047Y-115415238D01*
X125718095Y-115367619D02*
X125599047Y-115415238D01*
X125480000Y-115367619D01*
X125670476Y-115510476D02*
X125599047Y-115415238D01*
X125527619Y-115510476D01*
X125003809Y-115748571D02*
X125027619Y-115772380D01*
X125099047Y-115796190D01*
X125146666Y-115796190D01*
X125218095Y-115772380D01*
X125265714Y-115724761D01*
X125289523Y-115677142D01*
X125313333Y-115581904D01*
X125313333Y-115510476D01*
X125289523Y-115415238D01*
X125265714Y-115367619D01*
X125218095Y-115320000D01*
X125146666Y-115296190D01*
X125099047Y-115296190D01*
X125027619Y-115320000D01*
X125003809Y-115343809D01*
X124622857Y-115534285D02*
X124551428Y-115558095D01*
X124527619Y-115581904D01*
X124503809Y-115629523D01*
X124503809Y-115700952D01*
X124527619Y-115748571D01*
X124551428Y-115772380D01*
X124599047Y-115796190D01*
X124789523Y-115796190D01*
X124789523Y-115296190D01*
X124622857Y-115296190D01*
X124575238Y-115320000D01*
X124551428Y-115343809D01*
X124527619Y-115391428D01*
X124527619Y-115439047D01*
X124551428Y-115486666D01*
X124575238Y-115510476D01*
X124622857Y-115534285D01*
X124789523Y-115534285D01*
X124337142Y-115296190D02*
X124027619Y-115296190D01*
X124194285Y-115486666D01*
X124122857Y-115486666D01*
X124075238Y-115510476D01*
X124051428Y-115534285D01*
X124027619Y-115581904D01*
X124027619Y-115700952D01*
X124051428Y-115748571D01*
X124075238Y-115772380D01*
X124122857Y-115796190D01*
X124265714Y-115796190D01*
X124313333Y-115772380D01*
X124337142Y-115748571D01*
D15*
X179819904Y-94284619D02*
X179819904Y-93268619D01*
X179578000Y-93268619D01*
X179432857Y-93317000D01*
X179336095Y-93413761D01*
X179287714Y-93510523D01*
X179239333Y-93704047D01*
X179239333Y-93849190D01*
X179287714Y-94042714D01*
X179336095Y-94139476D01*
X179432857Y-94236238D01*
X179578000Y-94284619D01*
X179819904Y-94284619D01*
X178271714Y-94284619D02*
X178852285Y-94284619D01*
X178562000Y-94284619D02*
X178562000Y-93268619D01*
X178658761Y-93413761D01*
X178755523Y-93510523D01*
X178852285Y-93558904D01*
X116344095Y-120013619D02*
X116344095Y-120836095D01*
X116295714Y-120932857D01*
X116247333Y-120981238D01*
X116150571Y-121029619D01*
X115957047Y-121029619D01*
X115860285Y-120981238D01*
X115811904Y-120932857D01*
X115763523Y-120836095D01*
X115763523Y-120013619D01*
X114747523Y-121029619D02*
X115328095Y-121029619D01*
X115037809Y-121029619D02*
X115037809Y-120013619D01*
X115134571Y-120158761D01*
X115231333Y-120255523D01*
X115328095Y-120303904D01*
D13*
X163678809Y-129152952D02*
X164090047Y-129152952D01*
X164138428Y-129177142D01*
X164162619Y-129201333D01*
X164186809Y-129249714D01*
X164186809Y-129346476D01*
X164162619Y-129394857D01*
X164138428Y-129419047D01*
X164090047Y-129443238D01*
X163678809Y-129443238D01*
X163727190Y-129660952D02*
X163703000Y-129685142D01*
X163678809Y-129733523D01*
X163678809Y-129854476D01*
X163703000Y-129902857D01*
X163727190Y-129927047D01*
X163775571Y-129951238D01*
X163823952Y-129951238D01*
X163896523Y-129927047D01*
X164186809Y-129636761D01*
X164186809Y-129951238D01*
X167742809Y-126673428D02*
X167234809Y-126673428D01*
X167597666Y-126842761D01*
X167234809Y-127012095D01*
X167742809Y-127012095D01*
X167597666Y-127229809D02*
X167597666Y-127471714D01*
X167742809Y-127181428D02*
X167234809Y-127350761D01*
X167742809Y-127520095D01*
X167234809Y-127641047D02*
X167742809Y-127979714D01*
X167234809Y-127979714D02*
X167742809Y-127641047D01*
X167234809Y-128390952D02*
X167234809Y-128294190D01*
X167259000Y-128245809D01*
X167283190Y-128221619D01*
X167355761Y-128173238D01*
X167452523Y-128149047D01*
X167646047Y-128149047D01*
X167694428Y-128173238D01*
X167718619Y-128197428D01*
X167742809Y-128245809D01*
X167742809Y-128342571D01*
X167718619Y-128390952D01*
X167694428Y-128415142D01*
X167646047Y-128439333D01*
X167525095Y-128439333D01*
X167476714Y-128415142D01*
X167452523Y-128390952D01*
X167428333Y-128342571D01*
X167428333Y-128245809D01*
X167452523Y-128197428D01*
X167476714Y-128173238D01*
X167525095Y-128149047D01*
X167452523Y-128729619D02*
X167428333Y-128681238D01*
X167404142Y-128657047D01*
X167355761Y-128632857D01*
X167331571Y-128632857D01*
X167283190Y-128657047D01*
X167259000Y-128681238D01*
X167234809Y-128729619D01*
X167234809Y-128826380D01*
X167259000Y-128874761D01*
X167283190Y-128898952D01*
X167331571Y-128923142D01*
X167355761Y-128923142D01*
X167404142Y-128898952D01*
X167428333Y-128874761D01*
X167452523Y-128826380D01*
X167452523Y-128729619D01*
X167476714Y-128681238D01*
X167500904Y-128657047D01*
X167549285Y-128632857D01*
X167646047Y-128632857D01*
X167694428Y-128657047D01*
X167718619Y-128681238D01*
X167742809Y-128729619D01*
X167742809Y-128826380D01*
X167718619Y-128874761D01*
X167694428Y-128898952D01*
X167646047Y-128923142D01*
X167549285Y-128923142D01*
X167500904Y-128898952D01*
X167476714Y-128874761D01*
X167452523Y-128826380D01*
X167742809Y-129406952D02*
X167742809Y-129116666D01*
X167742809Y-129261809D02*
X167234809Y-129261809D01*
X167307380Y-129213428D01*
X167355761Y-129165047D01*
X167379952Y-129116666D01*
X167234809Y-129576285D02*
X167234809Y-129914952D01*
X167742809Y-129697238D01*
X130023809Y-129152952D02*
X130435047Y-129152952D01*
X130483428Y-129177142D01*
X130507619Y-129201333D01*
X130531809Y-129249714D01*
X130531809Y-129346476D01*
X130507619Y-129394857D01*
X130483428Y-129419047D01*
X130435047Y-129443238D01*
X130023809Y-129443238D01*
X130023809Y-129636761D02*
X130023809Y-129951238D01*
X130217333Y-129781904D01*
X130217333Y-129854476D01*
X130241523Y-129902857D01*
X130265714Y-129927047D01*
X130314095Y-129951238D01*
X130435047Y-129951238D01*
X130483428Y-129927047D01*
X130507619Y-129902857D01*
X130531809Y-129854476D01*
X130531809Y-129709333D01*
X130507619Y-129660952D01*
X130483428Y-129636761D01*
X134087809Y-126673428D02*
X133579809Y-126673428D01*
X133942666Y-126842761D01*
X133579809Y-127012095D01*
X134087809Y-127012095D01*
X133942666Y-127229809D02*
X133942666Y-127471714D01*
X134087809Y-127181428D02*
X133579809Y-127350761D01*
X134087809Y-127520095D01*
X133579809Y-127641047D02*
X134087809Y-127979714D01*
X133579809Y-127979714D02*
X134087809Y-127641047D01*
X133579809Y-128390952D02*
X133579809Y-128294190D01*
X133604000Y-128245809D01*
X133628190Y-128221619D01*
X133700761Y-128173238D01*
X133797523Y-128149047D01*
X133991047Y-128149047D01*
X134039428Y-128173238D01*
X134063619Y-128197428D01*
X134087809Y-128245809D01*
X134087809Y-128342571D01*
X134063619Y-128390952D01*
X134039428Y-128415142D01*
X133991047Y-128439333D01*
X133870095Y-128439333D01*
X133821714Y-128415142D01*
X133797523Y-128390952D01*
X133773333Y-128342571D01*
X133773333Y-128245809D01*
X133797523Y-128197428D01*
X133821714Y-128173238D01*
X133870095Y-128149047D01*
X133797523Y-128729619D02*
X133773333Y-128681238D01*
X133749142Y-128657047D01*
X133700761Y-128632857D01*
X133676571Y-128632857D01*
X133628190Y-128657047D01*
X133604000Y-128681238D01*
X133579809Y-128729619D01*
X133579809Y-128826380D01*
X133604000Y-128874761D01*
X133628190Y-128898952D01*
X133676571Y-128923142D01*
X133700761Y-128923142D01*
X133749142Y-128898952D01*
X133773333Y-128874761D01*
X133797523Y-128826380D01*
X133797523Y-128729619D01*
X133821714Y-128681238D01*
X133845904Y-128657047D01*
X133894285Y-128632857D01*
X133991047Y-128632857D01*
X134039428Y-128657047D01*
X134063619Y-128681238D01*
X134087809Y-128729619D01*
X134087809Y-128826380D01*
X134063619Y-128874761D01*
X134039428Y-128898952D01*
X133991047Y-128923142D01*
X133894285Y-128923142D01*
X133845904Y-128898952D01*
X133821714Y-128874761D01*
X133797523Y-128826380D01*
X134087809Y-129406952D02*
X134087809Y-129116666D01*
X134087809Y-129261809D02*
X133579809Y-129261809D01*
X133652380Y-129213428D01*
X133700761Y-129165047D01*
X133724952Y-129116666D01*
X133579809Y-129576285D02*
X133579809Y-129914952D01*
X134087809Y-129697238D01*
X97003809Y-129152952D02*
X97415047Y-129152952D01*
X97463428Y-129177142D01*
X97487619Y-129201333D01*
X97511809Y-129249714D01*
X97511809Y-129346476D01*
X97487619Y-129394857D01*
X97463428Y-129419047D01*
X97415047Y-129443238D01*
X97003809Y-129443238D01*
X97173142Y-129902857D02*
X97511809Y-129902857D01*
X96979619Y-129781904D02*
X97342476Y-129660952D01*
X97342476Y-129975428D01*
X101067809Y-126673428D02*
X100559809Y-126673428D01*
X100922666Y-126842761D01*
X100559809Y-127012095D01*
X101067809Y-127012095D01*
X100922666Y-127229809D02*
X100922666Y-127471714D01*
X101067809Y-127181428D02*
X100559809Y-127350761D01*
X101067809Y-127520095D01*
X100559809Y-127641047D02*
X101067809Y-127979714D01*
X100559809Y-127979714D02*
X101067809Y-127641047D01*
X100559809Y-128390952D02*
X100559809Y-128294190D01*
X100584000Y-128245809D01*
X100608190Y-128221619D01*
X100680761Y-128173238D01*
X100777523Y-128149047D01*
X100971047Y-128149047D01*
X101019428Y-128173238D01*
X101043619Y-128197428D01*
X101067809Y-128245809D01*
X101067809Y-128342571D01*
X101043619Y-128390952D01*
X101019428Y-128415142D01*
X100971047Y-128439333D01*
X100850095Y-128439333D01*
X100801714Y-128415142D01*
X100777523Y-128390952D01*
X100753333Y-128342571D01*
X100753333Y-128245809D01*
X100777523Y-128197428D01*
X100801714Y-128173238D01*
X100850095Y-128149047D01*
X100777523Y-128729619D02*
X100753333Y-128681238D01*
X100729142Y-128657047D01*
X100680761Y-128632857D01*
X100656571Y-128632857D01*
X100608190Y-128657047D01*
X100584000Y-128681238D01*
X100559809Y-128729619D01*
X100559809Y-128826380D01*
X100584000Y-128874761D01*
X100608190Y-128898952D01*
X100656571Y-128923142D01*
X100680761Y-128923142D01*
X100729142Y-128898952D01*
X100753333Y-128874761D01*
X100777523Y-128826380D01*
X100777523Y-128729619D01*
X100801714Y-128681238D01*
X100825904Y-128657047D01*
X100874285Y-128632857D01*
X100971047Y-128632857D01*
X101019428Y-128657047D01*
X101043619Y-128681238D01*
X101067809Y-128729619D01*
X101067809Y-128826380D01*
X101043619Y-128874761D01*
X101019428Y-128898952D01*
X100971047Y-128923142D01*
X100874285Y-128923142D01*
X100825904Y-128898952D01*
X100801714Y-128874761D01*
X100777523Y-128826380D01*
X101067809Y-129406952D02*
X101067809Y-129116666D01*
X101067809Y-129261809D02*
X100559809Y-129261809D01*
X100632380Y-129213428D01*
X100680761Y-129165047D01*
X100704952Y-129116666D01*
X100559809Y-129576285D02*
X100559809Y-129914952D01*
X101067809Y-129697238D01*
%LPC*%
D17*
X173990000Y-104775000D03*
X171450000Y-104775000D03*
X168910000Y-104775000D03*
X166370000Y-104775000D03*
X163830000Y-104775000D03*
X161290000Y-104775000D03*
X158750000Y-104775000D03*
X156210000Y-104775000D03*
X156210000Y-92075000D03*
X158750000Y-92075000D03*
X161290000Y-92075000D03*
X163830000Y-92075000D03*
X166370000Y-92075000D03*
X168910000Y-92075000D03*
X171450000Y-92075000D03*
X173990000Y-92075000D03*
X140970000Y-104775000D03*
X138430000Y-104775000D03*
X135890000Y-104775000D03*
X133350000Y-104775000D03*
X130810000Y-104775000D03*
X128270000Y-104775000D03*
X125730000Y-104775000D03*
X123190000Y-104775000D03*
X123190000Y-92075000D03*
X125730000Y-92075000D03*
X128270000Y-92075000D03*
X130810000Y-92075000D03*
X133350000Y-92075000D03*
X135890000Y-92075000D03*
X138430000Y-92075000D03*
X140970000Y-92075000D03*
X107950000Y-104775000D03*
X105410000Y-104775000D03*
X102870000Y-104775000D03*
X100330000Y-104775000D03*
X97790000Y-104775000D03*
X95250000Y-104775000D03*
X92710000Y-104775000D03*
X90170000Y-104775000D03*
X90170000Y-92075000D03*
X92710000Y-92075000D03*
X95250000Y-92075000D03*
X97790000Y-92075000D03*
X100330000Y-92075000D03*
X102870000Y-92075000D03*
X105410000Y-92075000D03*
X107950000Y-92075000D03*
D18*
X133350000Y-74930000D03*
X130810000Y-74930000D03*
X128270000Y-74930000D03*
X125730000Y-74930000D03*
X123190000Y-74930000D03*
X120650000Y-74930000D03*
X118110000Y-74930000D03*
X115570000Y-74930000D03*
X113030000Y-74930000D03*
X133350000Y-135890000D03*
X130810000Y-135890000D03*
X128270000Y-135890000D03*
X125730000Y-135890000D03*
X123190000Y-135890000D03*
X120650000Y-135890000D03*
X118110000Y-135890000D03*
X115570000Y-135890000D03*
X113030000Y-135890000D03*
D19*
X165100000Y-74930000D03*
X165100000Y-135890000D03*
X73660000Y-130810000D03*
X73660000Y-80010000D03*
D18*
X72390000Y-135890000D03*
X74930000Y-135890000D03*
X77470000Y-135890000D03*
X80010000Y-135890000D03*
X82550000Y-135890000D03*
X85090000Y-135890000D03*
X87630000Y-135890000D03*
X90170000Y-135890000D03*
X92710000Y-135890000D03*
X95250000Y-135890000D03*
X97790000Y-135890000D03*
X100330000Y-135890000D03*
X102870000Y-135890000D03*
X105410000Y-135890000D03*
X107950000Y-135890000D03*
X110490000Y-135890000D03*
X110490000Y-74930000D03*
X107950000Y-74930000D03*
X105410000Y-74930000D03*
X102870000Y-74930000D03*
X100330000Y-74930000D03*
X97790000Y-74930000D03*
X95250000Y-74930000D03*
X92710000Y-74930000D03*
X90170000Y-74930000D03*
X87630000Y-74930000D03*
X85090000Y-74930000D03*
X82550000Y-74930000D03*
X80010000Y-74930000D03*
D20*
X72390000Y-74930000D03*
D18*
X77470000Y-74930000D03*
X74930000Y-74930000D03*
D21*
X132715000Y-114046000D03*
X132715000Y-117094000D03*
X107950000Y-114046000D03*
X107950000Y-117094000D03*
D22*
X159004000Y-96520000D03*
X155956000Y-96520000D03*
D21*
X160020000Y-129794000D03*
X160020000Y-126746000D03*
D22*
X125984000Y-96520000D03*
X122936000Y-96520000D03*
D21*
X127000000Y-129794000D03*
X127000000Y-126746000D03*
D22*
X92964000Y-96520000D03*
X89916000Y-96520000D03*
D21*
X93980000Y-129794000D03*
X93980000Y-126746000D03*
D23*
X128270000Y-113470000D03*
X123190000Y-113470000D03*
X123190000Y-117670000D03*
X128270000Y-117670000D03*
D24*
X179070000Y-97405000D03*
D25*
X178005000Y-101205000D03*
X180135000Y-101205000D03*
D26*
X188137800Y-105410000D03*
D27*
X184632600Y-105410000D03*
D28*
X179146200Y-105410000D03*
D29*
X186131200Y-100914200D03*
X186131200Y-109905800D03*
D30*
X167640000Y-84455000D03*
X162560000Y-84455000D03*
X157480000Y-84455000D03*
X172720000Y-84455000D03*
D31*
X170815000Y-123825000D03*
X159385000Y-123825000D03*
X163195000Y-123825000D03*
X167005000Y-123825000D03*
D30*
X139700000Y-84455000D03*
X124460000Y-84455000D03*
X129540000Y-84455000D03*
X134620000Y-84455000D03*
D31*
X133985000Y-123825000D03*
X130175000Y-123825000D03*
X126365000Y-123825000D03*
X137795000Y-123825000D03*
D30*
X101600000Y-84455000D03*
X96520000Y-84455000D03*
X91440000Y-84455000D03*
X106680000Y-84455000D03*
D31*
X100965000Y-123825000D03*
X97155000Y-123825000D03*
X93345000Y-123825000D03*
X104775000Y-123825000D03*
D32*
X112570000Y-113820000D03*
X112570000Y-114320000D03*
X112570000Y-114820000D03*
X112570000Y-115320000D03*
X112570000Y-115820000D03*
X112570000Y-116320000D03*
X112570000Y-116820000D03*
X112570000Y-117320000D03*
X118570000Y-117320000D03*
X118570000Y-116820000D03*
X118570000Y-116320000D03*
X118570000Y-115820000D03*
X118570000Y-115320000D03*
X118570000Y-114820000D03*
X118570000Y-114320000D03*
X118570000Y-113820000D03*
D33*
X113820000Y-118570000D03*
X114320000Y-118570000D03*
X114820000Y-118570000D03*
X115320000Y-118570000D03*
X115820000Y-118570000D03*
X116320000Y-118570000D03*
X116820000Y-118570000D03*
X117320000Y-118570000D03*
X117320000Y-112570000D03*
X116820000Y-112570000D03*
X116320000Y-112570000D03*
X115820000Y-112570000D03*
X115320000Y-112570000D03*
X114820000Y-112570000D03*
X114320000Y-112570000D03*
X113820000Y-112570000D03*
D34*
X115570000Y-115570000D03*
D35*
X164785040Y-129468880D03*
X165735000Y-129468880D03*
X166684960Y-129468880D03*
X166684960Y-127071120D03*
X165735000Y-127071120D03*
X164785040Y-127071120D03*
X131130040Y-127071120D03*
X132080000Y-127071120D03*
X133029960Y-127071120D03*
X133029960Y-129468880D03*
X132080000Y-129468880D03*
X131130040Y-129468880D03*
X98110040Y-127071120D03*
X99060000Y-127071120D03*
X100009960Y-127071120D03*
X100009960Y-129468880D03*
X99060000Y-129468880D03*
X98110040Y-129468880D03*
M02*
