G04 #@! TF.GenerationSoftware,KiCad,Pcbnew,no-vcs-found-1466d0c~58~ubuntu16.04.1*
G04 #@! TF.CreationDate,2017-06-19T16:09:28-04:00*
G04 #@! TF.ProjectId,stepper_controller_5x3,737465707065725F636F6E74726F6C6C,1.0*
G04 #@! TF.SameCoordinates,Original
G04 #@! TF.FileFunction,Legend,Top*
G04 #@! TF.FilePolarity,Positive*
%FSLAX46Y46*%
G04 Gerber Fmt 4.6, Leading zero omitted, Abs format (unit mm)*
G04 Created by KiCad (PCBNEW no-vcs-found-1466d0c~58~ubuntu16.04.1) date Mon Jun 19 16:09:28 2017*
%MOMM*%
%LPD*%
G01*
G04 APERTURE LIST*
%ADD10C,0.100000*%
%ADD11C,0.254000*%
%ADD12C,0.508000*%
%ADD13C,0.190500*%
%ADD14C,0.228600*%
%ADD15C,0.250000*%
%ADD16C,0.381000*%
%ADD17C,0.375000*%
%ADD18O,2.032000X3.048000*%
%ADD19R,2.000000X4.100000*%
%ADD20O,1.854200X2.540000*%
%ADD21C,3.556000*%
%ADD22R,1.854200X2.540000*%
%ADD23C,1.930400*%
%ADD24O,4.572000X3.556000*%
%ADD25O,4.064000X5.080000*%
%ADD26O,5.080000X3.556000*%
%ADD27C,2.540000*%
%ADD28C,2.340000*%
%ADD29R,3.475000X3.475000*%
G04 APERTURE END LIST*
D10*
D11*
X182148238Y-112697380D02*
X182196619Y-112649000D01*
X182293380Y-112600619D01*
X182535285Y-112600619D01*
X182632047Y-112649000D01*
X182680428Y-112697380D01*
X182728809Y-112794142D01*
X182728809Y-112890904D01*
X182680428Y-113036047D01*
X182099857Y-113616619D01*
X182728809Y-113616619D01*
X183164238Y-113519857D02*
X183212619Y-113568238D01*
X183164238Y-113616619D01*
X183115857Y-113568238D01*
X183164238Y-113519857D01*
X183164238Y-113616619D01*
X184131857Y-112600619D02*
X183648047Y-112600619D01*
X183599666Y-113084428D01*
X183648047Y-113036047D01*
X183744809Y-112987666D01*
X183986714Y-112987666D01*
X184083476Y-113036047D01*
X184131857Y-113084428D01*
X184180238Y-113181190D01*
X184180238Y-113423095D01*
X184131857Y-113519857D01*
X184083476Y-113568238D01*
X183986714Y-113616619D01*
X183744809Y-113616619D01*
X183648047Y-113568238D01*
X183599666Y-113519857D01*
X184518904Y-113616619D02*
X185051095Y-112939285D01*
X184518904Y-112939285D02*
X185051095Y-113616619D01*
X185921952Y-112600619D02*
X185438142Y-112600619D01*
X185389761Y-113084428D01*
X185438142Y-113036047D01*
X185534904Y-112987666D01*
X185776809Y-112987666D01*
X185873571Y-113036047D01*
X185921952Y-113084428D01*
X185970333Y-113181190D01*
X185970333Y-113423095D01*
X185921952Y-113519857D01*
X185873571Y-113568238D01*
X185776809Y-113616619D01*
X185534904Y-113616619D01*
X185438142Y-113568238D01*
X185389761Y-113519857D01*
X186405761Y-113519857D02*
X186454142Y-113568238D01*
X186405761Y-113616619D01*
X186357380Y-113568238D01*
X186405761Y-113519857D01*
X186405761Y-113616619D01*
X187373380Y-112600619D02*
X186889571Y-112600619D01*
X186841190Y-113084428D01*
X186889571Y-113036047D01*
X186986333Y-112987666D01*
X187228238Y-112987666D01*
X187325000Y-113036047D01*
X187373380Y-113084428D01*
X187421761Y-113181190D01*
X187421761Y-113423095D01*
X187373380Y-113519857D01*
X187325000Y-113568238D01*
X187228238Y-113616619D01*
X186986333Y-113616619D01*
X186889571Y-113568238D01*
X186841190Y-113519857D01*
X182148238Y-115297857D02*
X182099857Y-115346238D01*
X181954714Y-115394619D01*
X181857952Y-115394619D01*
X181712809Y-115346238D01*
X181616047Y-115249476D01*
X181567666Y-115152714D01*
X181519285Y-114959190D01*
X181519285Y-114814047D01*
X181567666Y-114620523D01*
X181616047Y-114523761D01*
X181712809Y-114427000D01*
X181857952Y-114378619D01*
X181954714Y-114378619D01*
X182099857Y-114427000D01*
X182148238Y-114475380D01*
X182970714Y-115346238D02*
X182873952Y-115394619D01*
X182680428Y-115394619D01*
X182583666Y-115346238D01*
X182535285Y-115249476D01*
X182535285Y-114862428D01*
X182583666Y-114765666D01*
X182680428Y-114717285D01*
X182873952Y-114717285D01*
X182970714Y-114765666D01*
X183019095Y-114862428D01*
X183019095Y-114959190D01*
X182535285Y-115055952D01*
X183454523Y-114717285D02*
X183454523Y-115394619D01*
X183454523Y-114814047D02*
X183502904Y-114765666D01*
X183599666Y-114717285D01*
X183744809Y-114717285D01*
X183841571Y-114765666D01*
X183889952Y-114862428D01*
X183889952Y-115394619D01*
X184228619Y-114717285D02*
X184615666Y-114717285D01*
X184373761Y-114378619D02*
X184373761Y-115249476D01*
X184422142Y-115346238D01*
X184518904Y-115394619D01*
X184615666Y-115394619D01*
X185341380Y-115346238D02*
X185244619Y-115394619D01*
X185051095Y-115394619D01*
X184954333Y-115346238D01*
X184905952Y-115249476D01*
X184905952Y-114862428D01*
X184954333Y-114765666D01*
X185051095Y-114717285D01*
X185244619Y-114717285D01*
X185341380Y-114765666D01*
X185389761Y-114862428D01*
X185389761Y-114959190D01*
X184905952Y-115055952D01*
X185825190Y-115394619D02*
X185825190Y-114717285D01*
X185825190Y-114910809D02*
X185873571Y-114814047D01*
X185921952Y-114765666D01*
X186018714Y-114717285D01*
X186115476Y-114717285D01*
X187228238Y-115007571D02*
X188002333Y-115007571D01*
X187615285Y-115394619D02*
X187615285Y-114620523D01*
X180866142Y-116785571D02*
X181640238Y-116785571D01*
X181253190Y-117172619D02*
X181253190Y-116398523D01*
X182172428Y-117172619D02*
X182365952Y-117172619D01*
X182462714Y-117124238D01*
X182511095Y-117075857D01*
X182607857Y-116930714D01*
X182656238Y-116737190D01*
X182656238Y-116350142D01*
X182607857Y-116253380D01*
X182559476Y-116205000D01*
X182462714Y-116156619D01*
X182269190Y-116156619D01*
X182172428Y-116205000D01*
X182124047Y-116253380D01*
X182075666Y-116350142D01*
X182075666Y-116592047D01*
X182124047Y-116688809D01*
X182172428Y-116737190D01*
X182269190Y-116785571D01*
X182462714Y-116785571D01*
X182559476Y-116737190D01*
X182607857Y-116688809D01*
X182656238Y-116592047D01*
X183091666Y-116785571D02*
X183865761Y-116785571D01*
X184785000Y-116495285D02*
X184785000Y-117172619D01*
X184543095Y-116108238D02*
X184301190Y-116833952D01*
X184930142Y-116833952D01*
X185268809Y-116253380D02*
X185317190Y-116205000D01*
X185413952Y-116156619D01*
X185655857Y-116156619D01*
X185752619Y-116205000D01*
X185801000Y-116253380D01*
X185849380Y-116350142D01*
X185849380Y-116446904D01*
X185801000Y-116592047D01*
X185220428Y-117172619D01*
X185849380Y-117172619D01*
X186139666Y-116156619D02*
X186478333Y-117172619D01*
X186817000Y-116156619D01*
X187155666Y-117172619D02*
X187155666Y-116156619D01*
X187397571Y-116156619D01*
X187542714Y-116205000D01*
X187639476Y-116301761D01*
X187687857Y-116398523D01*
X187736238Y-116592047D01*
X187736238Y-116737190D01*
X187687857Y-116930714D01*
X187639476Y-117027476D01*
X187542714Y-117124238D01*
X187397571Y-117172619D01*
X187155666Y-117172619D01*
X188752238Y-117075857D02*
X188703857Y-117124238D01*
X188558714Y-117172619D01*
X188461952Y-117172619D01*
X188316809Y-117124238D01*
X188220047Y-117027476D01*
X188171666Y-116930714D01*
X188123285Y-116737190D01*
X188123285Y-116592047D01*
X188171666Y-116398523D01*
X188220047Y-116301761D01*
X188316809Y-116205000D01*
X188461952Y-116156619D01*
X188558714Y-116156619D01*
X188703857Y-116205000D01*
X188752238Y-116253380D01*
D12*
X98479428Y-107665761D02*
X98576190Y-107569000D01*
X98769714Y-107472238D01*
X99253523Y-107472238D01*
X99447047Y-107569000D01*
X99543809Y-107665761D01*
X99640571Y-107859285D01*
X99640571Y-108052809D01*
X99543809Y-108343095D01*
X98382666Y-109504238D01*
X99640571Y-109504238D01*
X132660571Y-109504238D02*
X131499428Y-109504238D01*
X132080000Y-109504238D02*
X132080000Y-107472238D01*
X131886476Y-107762523D01*
X131692952Y-107956047D01*
X131499428Y-108052809D01*
X165003238Y-107472238D02*
X165196761Y-107472238D01*
X165390285Y-107569000D01*
X165487047Y-107665761D01*
X165583809Y-107859285D01*
X165680571Y-108246333D01*
X165680571Y-108730142D01*
X165583809Y-109117190D01*
X165487047Y-109310714D01*
X165390285Y-109407476D01*
X165196761Y-109504238D01*
X165003238Y-109504238D01*
X164809714Y-109407476D01*
X164712952Y-109310714D01*
X164616190Y-109117190D01*
X164519428Y-108730142D01*
X164519428Y-108246333D01*
X164616190Y-107859285D01*
X164712952Y-107665761D01*
X164809714Y-107569000D01*
X165003238Y-107472238D01*
D13*
X92909571Y-129249714D02*
X92655571Y-128886857D01*
X92474142Y-129249714D02*
X92474142Y-128487714D01*
X92764428Y-128487714D01*
X92837000Y-128524000D01*
X92873285Y-128560285D01*
X92909571Y-128632857D01*
X92909571Y-128741714D01*
X92873285Y-128814285D01*
X92837000Y-128850571D01*
X92764428Y-128886857D01*
X92474142Y-128886857D01*
X93236142Y-128850571D02*
X93490142Y-128850571D01*
X93599000Y-129249714D02*
X93236142Y-129249714D01*
X93236142Y-128487714D01*
X93599000Y-128487714D01*
X94179571Y-128850571D02*
X93925571Y-128850571D01*
X93925571Y-129249714D02*
X93925571Y-128487714D01*
X94288428Y-128487714D01*
X92909571Y-117819714D02*
X92655571Y-117456857D01*
X92474142Y-117819714D02*
X92474142Y-117057714D01*
X92764428Y-117057714D01*
X92837000Y-117094000D01*
X92873285Y-117130285D01*
X92909571Y-117202857D01*
X92909571Y-117311714D01*
X92873285Y-117384285D01*
X92837000Y-117420571D01*
X92764428Y-117456857D01*
X92474142Y-117456857D01*
X93236142Y-117420571D02*
X93490142Y-117420571D01*
X93599000Y-117819714D02*
X93236142Y-117819714D01*
X93236142Y-117057714D01*
X93599000Y-117057714D01*
X94179571Y-117420571D02*
X93925571Y-117420571D01*
X93925571Y-117819714D02*
X93925571Y-117057714D01*
X94288428Y-117057714D01*
X96574428Y-128524000D02*
X96501857Y-128487714D01*
X96393000Y-128487714D01*
X96284142Y-128524000D01*
X96211571Y-128596571D01*
X96175285Y-128669142D01*
X96139000Y-128814285D01*
X96139000Y-128923142D01*
X96175285Y-129068285D01*
X96211571Y-129140857D01*
X96284142Y-129213428D01*
X96393000Y-129249714D01*
X96465571Y-129249714D01*
X96574428Y-129213428D01*
X96610714Y-129177142D01*
X96610714Y-128923142D01*
X96465571Y-128923142D01*
X96937285Y-129249714D02*
X96937285Y-128487714D01*
X97372714Y-129249714D01*
X97372714Y-128487714D01*
X97735571Y-129249714D02*
X97735571Y-128487714D01*
X97917000Y-128487714D01*
X98025857Y-128524000D01*
X98098428Y-128596571D01*
X98134714Y-128669142D01*
X98171000Y-128814285D01*
X98171000Y-128923142D01*
X98134714Y-129068285D01*
X98098428Y-129140857D01*
X98025857Y-129213428D01*
X97917000Y-129249714D01*
X97735571Y-129249714D01*
X104194428Y-128524000D02*
X104121857Y-128487714D01*
X104013000Y-128487714D01*
X103904142Y-128524000D01*
X103831571Y-128596571D01*
X103795285Y-128669142D01*
X103759000Y-128814285D01*
X103759000Y-128923142D01*
X103795285Y-129068285D01*
X103831571Y-129140857D01*
X103904142Y-129213428D01*
X104013000Y-129249714D01*
X104085571Y-129249714D01*
X104194428Y-129213428D01*
X104230714Y-129177142D01*
X104230714Y-128923142D01*
X104085571Y-128923142D01*
X104557285Y-129249714D02*
X104557285Y-128487714D01*
X104992714Y-129249714D01*
X104992714Y-128487714D01*
X105355571Y-129249714D02*
X105355571Y-128487714D01*
X105537000Y-128487714D01*
X105645857Y-128524000D01*
X105718428Y-128596571D01*
X105754714Y-128669142D01*
X105791000Y-128814285D01*
X105791000Y-128923142D01*
X105754714Y-129068285D01*
X105718428Y-129140857D01*
X105645857Y-129213428D01*
X105537000Y-129249714D01*
X105355571Y-129249714D01*
X100148571Y-129249714D02*
X99894571Y-128886857D01*
X99713142Y-129249714D02*
X99713142Y-128487714D01*
X100003428Y-128487714D01*
X100076000Y-128524000D01*
X100112285Y-128560285D01*
X100148571Y-128632857D01*
X100148571Y-128741714D01*
X100112285Y-128814285D01*
X100076000Y-128850571D01*
X100003428Y-128886857D01*
X99713142Y-128886857D01*
X100475142Y-128850571D02*
X100729142Y-128850571D01*
X100838000Y-129249714D02*
X100475142Y-129249714D01*
X100475142Y-128487714D01*
X100838000Y-128487714D01*
X101418571Y-128850571D02*
X101164571Y-128850571D01*
X101164571Y-129249714D02*
X101164571Y-128487714D01*
X101527428Y-128487714D01*
X102253142Y-129249714D02*
X101999142Y-128886857D01*
X101817714Y-129249714D02*
X101817714Y-128487714D01*
X102108000Y-128487714D01*
X102180571Y-128524000D01*
X102216857Y-128560285D01*
X102253142Y-128632857D01*
X102253142Y-128741714D01*
X102216857Y-128814285D01*
X102180571Y-128850571D01*
X102108000Y-128886857D01*
X101817714Y-128886857D01*
X100148571Y-117819714D02*
X99894571Y-117456857D01*
X99713142Y-117819714D02*
X99713142Y-117057714D01*
X100003428Y-117057714D01*
X100076000Y-117094000D01*
X100112285Y-117130285D01*
X100148571Y-117202857D01*
X100148571Y-117311714D01*
X100112285Y-117384285D01*
X100076000Y-117420571D01*
X100003428Y-117456857D01*
X99713142Y-117456857D01*
X100475142Y-117420571D02*
X100729142Y-117420571D01*
X100838000Y-117819714D02*
X100475142Y-117819714D01*
X100475142Y-117057714D01*
X100838000Y-117057714D01*
X101418571Y-117420571D02*
X101164571Y-117420571D01*
X101164571Y-117819714D02*
X101164571Y-117057714D01*
X101527428Y-117057714D01*
X102253142Y-117819714D02*
X101999142Y-117456857D01*
X101817714Y-117819714D02*
X101817714Y-117057714D01*
X102108000Y-117057714D01*
X102180571Y-117094000D01*
X102216857Y-117130285D01*
X102253142Y-117202857D01*
X102253142Y-117311714D01*
X102216857Y-117384285D01*
X102180571Y-117420571D01*
X102108000Y-117456857D01*
X101817714Y-117456857D01*
X125929571Y-129249714D02*
X125675571Y-128886857D01*
X125494142Y-129249714D02*
X125494142Y-128487714D01*
X125784428Y-128487714D01*
X125857000Y-128524000D01*
X125893285Y-128560285D01*
X125929571Y-128632857D01*
X125929571Y-128741714D01*
X125893285Y-128814285D01*
X125857000Y-128850571D01*
X125784428Y-128886857D01*
X125494142Y-128886857D01*
X126256142Y-128850571D02*
X126510142Y-128850571D01*
X126619000Y-129249714D02*
X126256142Y-129249714D01*
X126256142Y-128487714D01*
X126619000Y-128487714D01*
X127199571Y-128850571D02*
X126945571Y-128850571D01*
X126945571Y-129249714D02*
X126945571Y-128487714D01*
X127308428Y-128487714D01*
X125929571Y-117819714D02*
X125675571Y-117456857D01*
X125494142Y-117819714D02*
X125494142Y-117057714D01*
X125784428Y-117057714D01*
X125857000Y-117094000D01*
X125893285Y-117130285D01*
X125929571Y-117202857D01*
X125929571Y-117311714D01*
X125893285Y-117384285D01*
X125857000Y-117420571D01*
X125784428Y-117456857D01*
X125494142Y-117456857D01*
X126256142Y-117420571D02*
X126510142Y-117420571D01*
X126619000Y-117819714D02*
X126256142Y-117819714D01*
X126256142Y-117057714D01*
X126619000Y-117057714D01*
X127199571Y-117420571D02*
X126945571Y-117420571D01*
X126945571Y-117819714D02*
X126945571Y-117057714D01*
X127308428Y-117057714D01*
X129594428Y-128524000D02*
X129521857Y-128487714D01*
X129413000Y-128487714D01*
X129304142Y-128524000D01*
X129231571Y-128596571D01*
X129195285Y-128669142D01*
X129159000Y-128814285D01*
X129159000Y-128923142D01*
X129195285Y-129068285D01*
X129231571Y-129140857D01*
X129304142Y-129213428D01*
X129413000Y-129249714D01*
X129485571Y-129249714D01*
X129594428Y-129213428D01*
X129630714Y-129177142D01*
X129630714Y-128923142D01*
X129485571Y-128923142D01*
X129957285Y-129249714D02*
X129957285Y-128487714D01*
X130392714Y-129249714D01*
X130392714Y-128487714D01*
X130755571Y-129249714D02*
X130755571Y-128487714D01*
X130937000Y-128487714D01*
X131045857Y-128524000D01*
X131118428Y-128596571D01*
X131154714Y-128669142D01*
X131191000Y-128814285D01*
X131191000Y-128923142D01*
X131154714Y-129068285D01*
X131118428Y-129140857D01*
X131045857Y-129213428D01*
X130937000Y-129249714D01*
X130755571Y-129249714D01*
X137214428Y-128524000D02*
X137141857Y-128487714D01*
X137033000Y-128487714D01*
X136924142Y-128524000D01*
X136851571Y-128596571D01*
X136815285Y-128669142D01*
X136779000Y-128814285D01*
X136779000Y-128923142D01*
X136815285Y-129068285D01*
X136851571Y-129140857D01*
X136924142Y-129213428D01*
X137033000Y-129249714D01*
X137105571Y-129249714D01*
X137214428Y-129213428D01*
X137250714Y-129177142D01*
X137250714Y-128923142D01*
X137105571Y-128923142D01*
X137577285Y-129249714D02*
X137577285Y-128487714D01*
X138012714Y-129249714D01*
X138012714Y-128487714D01*
X138375571Y-129249714D02*
X138375571Y-128487714D01*
X138557000Y-128487714D01*
X138665857Y-128524000D01*
X138738428Y-128596571D01*
X138774714Y-128669142D01*
X138811000Y-128814285D01*
X138811000Y-128923142D01*
X138774714Y-129068285D01*
X138738428Y-129140857D01*
X138665857Y-129213428D01*
X138557000Y-129249714D01*
X138375571Y-129249714D01*
X133168571Y-129249714D02*
X132914571Y-128886857D01*
X132733142Y-129249714D02*
X132733142Y-128487714D01*
X133023428Y-128487714D01*
X133096000Y-128524000D01*
X133132285Y-128560285D01*
X133168571Y-128632857D01*
X133168571Y-128741714D01*
X133132285Y-128814285D01*
X133096000Y-128850571D01*
X133023428Y-128886857D01*
X132733142Y-128886857D01*
X133495142Y-128850571D02*
X133749142Y-128850571D01*
X133858000Y-129249714D02*
X133495142Y-129249714D01*
X133495142Y-128487714D01*
X133858000Y-128487714D01*
X134438571Y-128850571D02*
X134184571Y-128850571D01*
X134184571Y-129249714D02*
X134184571Y-128487714D01*
X134547428Y-128487714D01*
X135273142Y-129249714D02*
X135019142Y-128886857D01*
X134837714Y-129249714D02*
X134837714Y-128487714D01*
X135128000Y-128487714D01*
X135200571Y-128524000D01*
X135236857Y-128560285D01*
X135273142Y-128632857D01*
X135273142Y-128741714D01*
X135236857Y-128814285D01*
X135200571Y-128850571D01*
X135128000Y-128886857D01*
X134837714Y-128886857D01*
X133168571Y-117819714D02*
X132914571Y-117456857D01*
X132733142Y-117819714D02*
X132733142Y-117057714D01*
X133023428Y-117057714D01*
X133096000Y-117094000D01*
X133132285Y-117130285D01*
X133168571Y-117202857D01*
X133168571Y-117311714D01*
X133132285Y-117384285D01*
X133096000Y-117420571D01*
X133023428Y-117456857D01*
X132733142Y-117456857D01*
X133495142Y-117420571D02*
X133749142Y-117420571D01*
X133858000Y-117819714D02*
X133495142Y-117819714D01*
X133495142Y-117057714D01*
X133858000Y-117057714D01*
X134438571Y-117420571D02*
X134184571Y-117420571D01*
X134184571Y-117819714D02*
X134184571Y-117057714D01*
X134547428Y-117057714D01*
X135273142Y-117819714D02*
X135019142Y-117456857D01*
X134837714Y-117819714D02*
X134837714Y-117057714D01*
X135128000Y-117057714D01*
X135200571Y-117094000D01*
X135236857Y-117130285D01*
X135273142Y-117202857D01*
X135273142Y-117311714D01*
X135236857Y-117384285D01*
X135200571Y-117420571D01*
X135128000Y-117456857D01*
X134837714Y-117456857D01*
X158949571Y-129249714D02*
X158695571Y-128886857D01*
X158514142Y-129249714D02*
X158514142Y-128487714D01*
X158804428Y-128487714D01*
X158877000Y-128524000D01*
X158913285Y-128560285D01*
X158949571Y-128632857D01*
X158949571Y-128741714D01*
X158913285Y-128814285D01*
X158877000Y-128850571D01*
X158804428Y-128886857D01*
X158514142Y-128886857D01*
X159276142Y-128850571D02*
X159530142Y-128850571D01*
X159639000Y-129249714D02*
X159276142Y-129249714D01*
X159276142Y-128487714D01*
X159639000Y-128487714D01*
X160219571Y-128850571D02*
X159965571Y-128850571D01*
X159965571Y-129249714D02*
X159965571Y-128487714D01*
X160328428Y-128487714D01*
X162614428Y-128524000D02*
X162541857Y-128487714D01*
X162433000Y-128487714D01*
X162324142Y-128524000D01*
X162251571Y-128596571D01*
X162215285Y-128669142D01*
X162179000Y-128814285D01*
X162179000Y-128923142D01*
X162215285Y-129068285D01*
X162251571Y-129140857D01*
X162324142Y-129213428D01*
X162433000Y-129249714D01*
X162505571Y-129249714D01*
X162614428Y-129213428D01*
X162650714Y-129177142D01*
X162650714Y-128923142D01*
X162505571Y-128923142D01*
X162977285Y-129249714D02*
X162977285Y-128487714D01*
X163412714Y-129249714D01*
X163412714Y-128487714D01*
X163775571Y-129249714D02*
X163775571Y-128487714D01*
X163957000Y-128487714D01*
X164065857Y-128524000D01*
X164138428Y-128596571D01*
X164174714Y-128669142D01*
X164211000Y-128814285D01*
X164211000Y-128923142D01*
X164174714Y-129068285D01*
X164138428Y-129140857D01*
X164065857Y-129213428D01*
X163957000Y-129249714D01*
X163775571Y-129249714D01*
X166188571Y-129249714D02*
X165934571Y-128886857D01*
X165753142Y-129249714D02*
X165753142Y-128487714D01*
X166043428Y-128487714D01*
X166116000Y-128524000D01*
X166152285Y-128560285D01*
X166188571Y-128632857D01*
X166188571Y-128741714D01*
X166152285Y-128814285D01*
X166116000Y-128850571D01*
X166043428Y-128886857D01*
X165753142Y-128886857D01*
X166515142Y-128850571D02*
X166769142Y-128850571D01*
X166878000Y-129249714D02*
X166515142Y-129249714D01*
X166515142Y-128487714D01*
X166878000Y-128487714D01*
X167458571Y-128850571D02*
X167204571Y-128850571D01*
X167204571Y-129249714D02*
X167204571Y-128487714D01*
X167567428Y-128487714D01*
X168293142Y-129249714D02*
X168039142Y-128886857D01*
X167857714Y-129249714D02*
X167857714Y-128487714D01*
X168148000Y-128487714D01*
X168220571Y-128524000D01*
X168256857Y-128560285D01*
X168293142Y-128632857D01*
X168293142Y-128741714D01*
X168256857Y-128814285D01*
X168220571Y-128850571D01*
X168148000Y-128886857D01*
X167857714Y-128886857D01*
X170234428Y-128524000D02*
X170161857Y-128487714D01*
X170053000Y-128487714D01*
X169944142Y-128524000D01*
X169871571Y-128596571D01*
X169835285Y-128669142D01*
X169799000Y-128814285D01*
X169799000Y-128923142D01*
X169835285Y-129068285D01*
X169871571Y-129140857D01*
X169944142Y-129213428D01*
X170053000Y-129249714D01*
X170125571Y-129249714D01*
X170234428Y-129213428D01*
X170270714Y-129177142D01*
X170270714Y-128923142D01*
X170125571Y-128923142D01*
X170597285Y-129249714D02*
X170597285Y-128487714D01*
X171032714Y-129249714D01*
X171032714Y-128487714D01*
X171395571Y-129249714D02*
X171395571Y-128487714D01*
X171577000Y-128487714D01*
X171685857Y-128524000D01*
X171758428Y-128596571D01*
X171794714Y-128669142D01*
X171831000Y-128814285D01*
X171831000Y-128923142D01*
X171794714Y-129068285D01*
X171758428Y-129140857D01*
X171685857Y-129213428D01*
X171577000Y-129249714D01*
X171395571Y-129249714D01*
X158949571Y-117819714D02*
X158695571Y-117456857D01*
X158514142Y-117819714D02*
X158514142Y-117057714D01*
X158804428Y-117057714D01*
X158877000Y-117094000D01*
X158913285Y-117130285D01*
X158949571Y-117202857D01*
X158949571Y-117311714D01*
X158913285Y-117384285D01*
X158877000Y-117420571D01*
X158804428Y-117456857D01*
X158514142Y-117456857D01*
X159276142Y-117420571D02*
X159530142Y-117420571D01*
X159639000Y-117819714D02*
X159276142Y-117819714D01*
X159276142Y-117057714D01*
X159639000Y-117057714D01*
X160219571Y-117420571D02*
X159965571Y-117420571D01*
X159965571Y-117819714D02*
X159965571Y-117057714D01*
X160328428Y-117057714D01*
X96574428Y-117094000D02*
X96501857Y-117057714D01*
X96393000Y-117057714D01*
X96284142Y-117094000D01*
X96211571Y-117166571D01*
X96175285Y-117239142D01*
X96139000Y-117384285D01*
X96139000Y-117493142D01*
X96175285Y-117638285D01*
X96211571Y-117710857D01*
X96284142Y-117783428D01*
X96393000Y-117819714D01*
X96465571Y-117819714D01*
X96574428Y-117783428D01*
X96610714Y-117747142D01*
X96610714Y-117493142D01*
X96465571Y-117493142D01*
X96937285Y-117819714D02*
X96937285Y-117057714D01*
X97372714Y-117819714D01*
X97372714Y-117057714D01*
X97735571Y-117819714D02*
X97735571Y-117057714D01*
X97917000Y-117057714D01*
X98025857Y-117094000D01*
X98098428Y-117166571D01*
X98134714Y-117239142D01*
X98171000Y-117384285D01*
X98171000Y-117493142D01*
X98134714Y-117638285D01*
X98098428Y-117710857D01*
X98025857Y-117783428D01*
X97917000Y-117819714D01*
X97735571Y-117819714D01*
X104194428Y-117094000D02*
X104121857Y-117057714D01*
X104013000Y-117057714D01*
X103904142Y-117094000D01*
X103831571Y-117166571D01*
X103795285Y-117239142D01*
X103759000Y-117384285D01*
X103759000Y-117493142D01*
X103795285Y-117638285D01*
X103831571Y-117710857D01*
X103904142Y-117783428D01*
X104013000Y-117819714D01*
X104085571Y-117819714D01*
X104194428Y-117783428D01*
X104230714Y-117747142D01*
X104230714Y-117493142D01*
X104085571Y-117493142D01*
X104557285Y-117819714D02*
X104557285Y-117057714D01*
X104992714Y-117819714D01*
X104992714Y-117057714D01*
X105355571Y-117819714D02*
X105355571Y-117057714D01*
X105537000Y-117057714D01*
X105645857Y-117094000D01*
X105718428Y-117166571D01*
X105754714Y-117239142D01*
X105791000Y-117384285D01*
X105791000Y-117493142D01*
X105754714Y-117638285D01*
X105718428Y-117710857D01*
X105645857Y-117783428D01*
X105537000Y-117819714D01*
X105355571Y-117819714D01*
X129594428Y-117094000D02*
X129521857Y-117057714D01*
X129413000Y-117057714D01*
X129304142Y-117094000D01*
X129231571Y-117166571D01*
X129195285Y-117239142D01*
X129159000Y-117384285D01*
X129159000Y-117493142D01*
X129195285Y-117638285D01*
X129231571Y-117710857D01*
X129304142Y-117783428D01*
X129413000Y-117819714D01*
X129485571Y-117819714D01*
X129594428Y-117783428D01*
X129630714Y-117747142D01*
X129630714Y-117493142D01*
X129485571Y-117493142D01*
X129957285Y-117819714D02*
X129957285Y-117057714D01*
X130392714Y-117819714D01*
X130392714Y-117057714D01*
X130755571Y-117819714D02*
X130755571Y-117057714D01*
X130937000Y-117057714D01*
X131045857Y-117094000D01*
X131118428Y-117166571D01*
X131154714Y-117239142D01*
X131191000Y-117384285D01*
X131191000Y-117493142D01*
X131154714Y-117638285D01*
X131118428Y-117710857D01*
X131045857Y-117783428D01*
X130937000Y-117819714D01*
X130755571Y-117819714D01*
X137214428Y-117094000D02*
X137141857Y-117057714D01*
X137033000Y-117057714D01*
X136924142Y-117094000D01*
X136851571Y-117166571D01*
X136815285Y-117239142D01*
X136779000Y-117384285D01*
X136779000Y-117493142D01*
X136815285Y-117638285D01*
X136851571Y-117710857D01*
X136924142Y-117783428D01*
X137033000Y-117819714D01*
X137105571Y-117819714D01*
X137214428Y-117783428D01*
X137250714Y-117747142D01*
X137250714Y-117493142D01*
X137105571Y-117493142D01*
X137577285Y-117819714D02*
X137577285Y-117057714D01*
X138012714Y-117819714D01*
X138012714Y-117057714D01*
X138375571Y-117819714D02*
X138375571Y-117057714D01*
X138557000Y-117057714D01*
X138665857Y-117094000D01*
X138738428Y-117166571D01*
X138774714Y-117239142D01*
X138811000Y-117384285D01*
X138811000Y-117493142D01*
X138774714Y-117638285D01*
X138738428Y-117710857D01*
X138665857Y-117783428D01*
X138557000Y-117819714D01*
X138375571Y-117819714D01*
X162614428Y-117094000D02*
X162541857Y-117057714D01*
X162433000Y-117057714D01*
X162324142Y-117094000D01*
X162251571Y-117166571D01*
X162215285Y-117239142D01*
X162179000Y-117384285D01*
X162179000Y-117493142D01*
X162215285Y-117638285D01*
X162251571Y-117710857D01*
X162324142Y-117783428D01*
X162433000Y-117819714D01*
X162505571Y-117819714D01*
X162614428Y-117783428D01*
X162650714Y-117747142D01*
X162650714Y-117493142D01*
X162505571Y-117493142D01*
X162977285Y-117819714D02*
X162977285Y-117057714D01*
X163412714Y-117819714D01*
X163412714Y-117057714D01*
X163775571Y-117819714D02*
X163775571Y-117057714D01*
X163957000Y-117057714D01*
X164065857Y-117094000D01*
X164138428Y-117166571D01*
X164174714Y-117239142D01*
X164211000Y-117384285D01*
X164211000Y-117493142D01*
X164174714Y-117638285D01*
X164138428Y-117710857D01*
X164065857Y-117783428D01*
X163957000Y-117819714D01*
X163775571Y-117819714D01*
X166188571Y-117819714D02*
X165934571Y-117456857D01*
X165753142Y-117819714D02*
X165753142Y-117057714D01*
X166043428Y-117057714D01*
X166116000Y-117094000D01*
X166152285Y-117130285D01*
X166188571Y-117202857D01*
X166188571Y-117311714D01*
X166152285Y-117384285D01*
X166116000Y-117420571D01*
X166043428Y-117456857D01*
X165753142Y-117456857D01*
X166515142Y-117420571D02*
X166769142Y-117420571D01*
X166878000Y-117819714D02*
X166515142Y-117819714D01*
X166515142Y-117057714D01*
X166878000Y-117057714D01*
X167458571Y-117420571D02*
X167204571Y-117420571D01*
X167204571Y-117819714D02*
X167204571Y-117057714D01*
X167567428Y-117057714D01*
X168293142Y-117819714D02*
X168039142Y-117456857D01*
X167857714Y-117819714D02*
X167857714Y-117057714D01*
X168148000Y-117057714D01*
X168220571Y-117094000D01*
X168256857Y-117130285D01*
X168293142Y-117202857D01*
X168293142Y-117311714D01*
X168256857Y-117384285D01*
X168220571Y-117420571D01*
X168148000Y-117456857D01*
X167857714Y-117456857D01*
X170234428Y-117094000D02*
X170161857Y-117057714D01*
X170053000Y-117057714D01*
X169944142Y-117094000D01*
X169871571Y-117166571D01*
X169835285Y-117239142D01*
X169799000Y-117384285D01*
X169799000Y-117493142D01*
X169835285Y-117638285D01*
X169871571Y-117710857D01*
X169944142Y-117783428D01*
X170053000Y-117819714D01*
X170125571Y-117819714D01*
X170234428Y-117783428D01*
X170270714Y-117747142D01*
X170270714Y-117493142D01*
X170125571Y-117493142D01*
X170597285Y-117819714D02*
X170597285Y-117057714D01*
X171032714Y-117819714D01*
X171032714Y-117057714D01*
X171395571Y-117819714D02*
X171395571Y-117057714D01*
X171577000Y-117057714D01*
X171685857Y-117094000D01*
X171758428Y-117166571D01*
X171794714Y-117239142D01*
X171831000Y-117384285D01*
X171831000Y-117493142D01*
X171794714Y-117638285D01*
X171758428Y-117710857D01*
X171685857Y-117783428D01*
X171577000Y-117819714D01*
X171395571Y-117819714D01*
D11*
X90883619Y-89462428D02*
X91028761Y-89510809D01*
X91077142Y-89559190D01*
X91125523Y-89655952D01*
X91125523Y-89801095D01*
X91077142Y-89897857D01*
X91028761Y-89946238D01*
X90932000Y-89994619D01*
X90544952Y-89994619D01*
X90544952Y-88978619D01*
X90883619Y-88978619D01*
X90980380Y-89027000D01*
X91028761Y-89075380D01*
X91077142Y-89172142D01*
X91077142Y-89268904D01*
X91028761Y-89365666D01*
X90980380Y-89414047D01*
X90883619Y-89462428D01*
X90544952Y-89462428D01*
X91560952Y-89607571D02*
X92335047Y-89607571D01*
X95963619Y-89462428D02*
X96108761Y-89510809D01*
X96157142Y-89559190D01*
X96205523Y-89655952D01*
X96205523Y-89801095D01*
X96157142Y-89897857D01*
X96108761Y-89946238D01*
X96012000Y-89994619D01*
X95624952Y-89994619D01*
X95624952Y-88978619D01*
X95963619Y-88978619D01*
X96060380Y-89027000D01*
X96108761Y-89075380D01*
X96157142Y-89172142D01*
X96157142Y-89268904D01*
X96108761Y-89365666D01*
X96060380Y-89414047D01*
X95963619Y-89462428D01*
X95624952Y-89462428D01*
X96640952Y-89607571D02*
X97415047Y-89607571D01*
X97028000Y-89994619D02*
X97028000Y-89220523D01*
X100729142Y-89704333D02*
X101212952Y-89704333D01*
X100632380Y-89994619D02*
X100971047Y-88978619D01*
X101309714Y-89994619D01*
X101648380Y-89607571D02*
X102422476Y-89607571D01*
X105809142Y-89704333D02*
X106292952Y-89704333D01*
X105712380Y-89994619D02*
X106051047Y-88978619D01*
X106389714Y-89994619D01*
X106728380Y-89607571D02*
X107502476Y-89607571D01*
X107115428Y-89994619D02*
X107115428Y-89220523D01*
X90883619Y-78032428D02*
X91028761Y-78080809D01*
X91077142Y-78129190D01*
X91125523Y-78225952D01*
X91125523Y-78371095D01*
X91077142Y-78467857D01*
X91028761Y-78516238D01*
X90932000Y-78564619D01*
X90544952Y-78564619D01*
X90544952Y-77548619D01*
X90883619Y-77548619D01*
X90980380Y-77597000D01*
X91028761Y-77645380D01*
X91077142Y-77742142D01*
X91077142Y-77838904D01*
X91028761Y-77935666D01*
X90980380Y-77984047D01*
X90883619Y-78032428D01*
X90544952Y-78032428D01*
X91560952Y-78177571D02*
X92335047Y-78177571D01*
X95963619Y-78032428D02*
X96108761Y-78080809D01*
X96157142Y-78129190D01*
X96205523Y-78225952D01*
X96205523Y-78371095D01*
X96157142Y-78467857D01*
X96108761Y-78516238D01*
X96012000Y-78564619D01*
X95624952Y-78564619D01*
X95624952Y-77548619D01*
X95963619Y-77548619D01*
X96060380Y-77597000D01*
X96108761Y-77645380D01*
X96157142Y-77742142D01*
X96157142Y-77838904D01*
X96108761Y-77935666D01*
X96060380Y-77984047D01*
X95963619Y-78032428D01*
X95624952Y-78032428D01*
X96640952Y-78177571D02*
X97415047Y-78177571D01*
X97028000Y-78564619D02*
X97028000Y-77790523D01*
X100729142Y-78274333D02*
X101212952Y-78274333D01*
X100632380Y-78564619D02*
X100971047Y-77548619D01*
X101309714Y-78564619D01*
X101648380Y-78177571D02*
X102422476Y-78177571D01*
X105809142Y-78274333D02*
X106292952Y-78274333D01*
X105712380Y-78564619D02*
X106051047Y-77548619D01*
X106389714Y-78564619D01*
X106728380Y-78177571D02*
X107502476Y-78177571D01*
X107115428Y-78564619D02*
X107115428Y-77790523D01*
X123903619Y-89462428D02*
X124048761Y-89510809D01*
X124097142Y-89559190D01*
X124145523Y-89655952D01*
X124145523Y-89801095D01*
X124097142Y-89897857D01*
X124048761Y-89946238D01*
X123952000Y-89994619D01*
X123564952Y-89994619D01*
X123564952Y-88978619D01*
X123903619Y-88978619D01*
X124000380Y-89027000D01*
X124048761Y-89075380D01*
X124097142Y-89172142D01*
X124097142Y-89268904D01*
X124048761Y-89365666D01*
X124000380Y-89414047D01*
X123903619Y-89462428D01*
X123564952Y-89462428D01*
X124580952Y-89607571D02*
X125355047Y-89607571D01*
X128983619Y-89462428D02*
X129128761Y-89510809D01*
X129177142Y-89559190D01*
X129225523Y-89655952D01*
X129225523Y-89801095D01*
X129177142Y-89897857D01*
X129128761Y-89946238D01*
X129032000Y-89994619D01*
X128644952Y-89994619D01*
X128644952Y-88978619D01*
X128983619Y-88978619D01*
X129080380Y-89027000D01*
X129128761Y-89075380D01*
X129177142Y-89172142D01*
X129177142Y-89268904D01*
X129128761Y-89365666D01*
X129080380Y-89414047D01*
X128983619Y-89462428D01*
X128644952Y-89462428D01*
X129660952Y-89607571D02*
X130435047Y-89607571D01*
X130048000Y-89994619D02*
X130048000Y-89220523D01*
X133749142Y-89704333D02*
X134232952Y-89704333D01*
X133652380Y-89994619D02*
X133991047Y-88978619D01*
X134329714Y-89994619D01*
X134668380Y-89607571D02*
X135442476Y-89607571D01*
X138829142Y-89704333D02*
X139312952Y-89704333D01*
X138732380Y-89994619D02*
X139071047Y-88978619D01*
X139409714Y-89994619D01*
X139748380Y-89607571D02*
X140522476Y-89607571D01*
X140135428Y-89994619D02*
X140135428Y-89220523D01*
X123903619Y-78032428D02*
X124048761Y-78080809D01*
X124097142Y-78129190D01*
X124145523Y-78225952D01*
X124145523Y-78371095D01*
X124097142Y-78467857D01*
X124048761Y-78516238D01*
X123952000Y-78564619D01*
X123564952Y-78564619D01*
X123564952Y-77548619D01*
X123903619Y-77548619D01*
X124000380Y-77597000D01*
X124048761Y-77645380D01*
X124097142Y-77742142D01*
X124097142Y-77838904D01*
X124048761Y-77935666D01*
X124000380Y-77984047D01*
X123903619Y-78032428D01*
X123564952Y-78032428D01*
X124580952Y-78177571D02*
X125355047Y-78177571D01*
X128983619Y-78032428D02*
X129128761Y-78080809D01*
X129177142Y-78129190D01*
X129225523Y-78225952D01*
X129225523Y-78371095D01*
X129177142Y-78467857D01*
X129128761Y-78516238D01*
X129032000Y-78564619D01*
X128644952Y-78564619D01*
X128644952Y-77548619D01*
X128983619Y-77548619D01*
X129080380Y-77597000D01*
X129128761Y-77645380D01*
X129177142Y-77742142D01*
X129177142Y-77838904D01*
X129128761Y-77935666D01*
X129080380Y-77984047D01*
X128983619Y-78032428D01*
X128644952Y-78032428D01*
X129660952Y-78177571D02*
X130435047Y-78177571D01*
X130048000Y-78564619D02*
X130048000Y-77790523D01*
X133749142Y-78274333D02*
X134232952Y-78274333D01*
X133652380Y-78564619D02*
X133991047Y-77548619D01*
X134329714Y-78564619D01*
X134668380Y-78177571D02*
X135442476Y-78177571D01*
X138829142Y-78274333D02*
X139312952Y-78274333D01*
X138732380Y-78564619D02*
X139071047Y-77548619D01*
X139409714Y-78564619D01*
X139748380Y-78177571D02*
X140522476Y-78177571D01*
X140135428Y-78564619D02*
X140135428Y-77790523D01*
D12*
X98479428Y-130525761D02*
X98576190Y-130429000D01*
X98769714Y-130332238D01*
X99253523Y-130332238D01*
X99447047Y-130429000D01*
X99543809Y-130525761D01*
X99640571Y-130719285D01*
X99640571Y-130912809D01*
X99543809Y-131203095D01*
X98382666Y-132364238D01*
X99640571Y-132364238D01*
X132660571Y-132364238D02*
X131499428Y-132364238D01*
X132080000Y-132364238D02*
X132080000Y-130332238D01*
X131886476Y-130622523D01*
X131692952Y-130816047D01*
X131499428Y-130912809D01*
X165003238Y-130332238D02*
X165196761Y-130332238D01*
X165390285Y-130429000D01*
X165487047Y-130525761D01*
X165583809Y-130719285D01*
X165680571Y-131106333D01*
X165680571Y-131590142D01*
X165583809Y-131977190D01*
X165487047Y-132170714D01*
X165390285Y-132267476D01*
X165196761Y-132364238D01*
X165003238Y-132364238D01*
X164809714Y-132267476D01*
X164712952Y-132170714D01*
X164616190Y-131977190D01*
X164519428Y-131590142D01*
X164519428Y-131106333D01*
X164616190Y-130719285D01*
X164712952Y-130525761D01*
X164809714Y-130429000D01*
X165003238Y-130332238D01*
D11*
X156923619Y-89462428D02*
X157068761Y-89510809D01*
X157117142Y-89559190D01*
X157165523Y-89655952D01*
X157165523Y-89801095D01*
X157117142Y-89897857D01*
X157068761Y-89946238D01*
X156972000Y-89994619D01*
X156584952Y-89994619D01*
X156584952Y-88978619D01*
X156923619Y-88978619D01*
X157020380Y-89027000D01*
X157068761Y-89075380D01*
X157117142Y-89172142D01*
X157117142Y-89268904D01*
X157068761Y-89365666D01*
X157020380Y-89414047D01*
X156923619Y-89462428D01*
X156584952Y-89462428D01*
X157600952Y-89607571D02*
X158375047Y-89607571D01*
X162003619Y-89462428D02*
X162148761Y-89510809D01*
X162197142Y-89559190D01*
X162245523Y-89655952D01*
X162245523Y-89801095D01*
X162197142Y-89897857D01*
X162148761Y-89946238D01*
X162052000Y-89994619D01*
X161664952Y-89994619D01*
X161664952Y-88978619D01*
X162003619Y-88978619D01*
X162100380Y-89027000D01*
X162148761Y-89075380D01*
X162197142Y-89172142D01*
X162197142Y-89268904D01*
X162148761Y-89365666D01*
X162100380Y-89414047D01*
X162003619Y-89462428D01*
X161664952Y-89462428D01*
X162680952Y-89607571D02*
X163455047Y-89607571D01*
X163068000Y-89994619D02*
X163068000Y-89220523D01*
X166769142Y-89704333D02*
X167252952Y-89704333D01*
X166672380Y-89994619D02*
X167011047Y-88978619D01*
X167349714Y-89994619D01*
X167688380Y-89607571D02*
X168462476Y-89607571D01*
X171849142Y-89704333D02*
X172332952Y-89704333D01*
X171752380Y-89994619D02*
X172091047Y-88978619D01*
X172429714Y-89994619D01*
X172768380Y-89607571D02*
X173542476Y-89607571D01*
X173155428Y-89994619D02*
X173155428Y-89220523D01*
X156923619Y-78032428D02*
X157068761Y-78080809D01*
X157117142Y-78129190D01*
X157165523Y-78225952D01*
X157165523Y-78371095D01*
X157117142Y-78467857D01*
X157068761Y-78516238D01*
X156972000Y-78564619D01*
X156584952Y-78564619D01*
X156584952Y-77548619D01*
X156923619Y-77548619D01*
X157020380Y-77597000D01*
X157068761Y-77645380D01*
X157117142Y-77742142D01*
X157117142Y-77838904D01*
X157068761Y-77935666D01*
X157020380Y-77984047D01*
X156923619Y-78032428D01*
X156584952Y-78032428D01*
X157600952Y-78177571D02*
X158375047Y-78177571D01*
X162003619Y-78032428D02*
X162148761Y-78080809D01*
X162197142Y-78129190D01*
X162245523Y-78225952D01*
X162245523Y-78371095D01*
X162197142Y-78467857D01*
X162148761Y-78516238D01*
X162052000Y-78564619D01*
X161664952Y-78564619D01*
X161664952Y-77548619D01*
X162003619Y-77548619D01*
X162100380Y-77597000D01*
X162148761Y-77645380D01*
X162197142Y-77742142D01*
X162197142Y-77838904D01*
X162148761Y-77935666D01*
X162100380Y-77984047D01*
X162003619Y-78032428D01*
X161664952Y-78032428D01*
X162680952Y-78177571D02*
X163455047Y-78177571D01*
X163068000Y-78564619D02*
X163068000Y-77790523D01*
X166769142Y-78274333D02*
X167252952Y-78274333D01*
X166672380Y-78564619D02*
X167011047Y-77548619D01*
X167349714Y-78564619D01*
X167688380Y-78177571D02*
X168462476Y-78177571D01*
X171849142Y-78274333D02*
X172332952Y-78274333D01*
X171752380Y-78564619D02*
X172091047Y-77548619D01*
X172429714Y-78564619D01*
X172768380Y-78177571D02*
X173542476Y-78177571D01*
X173155428Y-78564619D02*
X173155428Y-77790523D01*
D14*
X191135000Y-71755000D02*
X69850000Y-71755000D01*
X191135000Y-139065000D02*
X191135000Y-71755000D01*
X69850000Y-139065000D02*
X191135000Y-139065000D01*
X69850000Y-71755000D02*
X69850000Y-139065000D01*
D13*
X85452857Y-133809619D02*
X85452857Y-132793619D01*
X85888285Y-133809619D02*
X85888285Y-133277428D01*
X85839904Y-133180666D01*
X85743142Y-133132285D01*
X85598000Y-133132285D01*
X85501238Y-133180666D01*
X85452857Y-133229047D01*
X86226952Y-133132285D02*
X86614000Y-133132285D01*
X86372095Y-132793619D02*
X86372095Y-133664476D01*
X86420476Y-133761238D01*
X86517238Y-133809619D01*
X86614000Y-133809619D01*
X86807523Y-133132285D02*
X87194571Y-133132285D01*
X86952666Y-132793619D02*
X86952666Y-133664476D01*
X87001047Y-133761238D01*
X87097809Y-133809619D01*
X87194571Y-133809619D01*
X87533238Y-133132285D02*
X87533238Y-134148285D01*
X87533238Y-133180666D02*
X87630000Y-133132285D01*
X87823523Y-133132285D01*
X87920285Y-133180666D01*
X87968666Y-133229047D01*
X88017047Y-133325809D01*
X88017047Y-133616095D01*
X87968666Y-133712857D01*
X87920285Y-133761238D01*
X87823523Y-133809619D01*
X87630000Y-133809619D01*
X87533238Y-133761238D01*
X88404095Y-133761238D02*
X88500857Y-133809619D01*
X88694380Y-133809619D01*
X88791142Y-133761238D01*
X88839523Y-133664476D01*
X88839523Y-133616095D01*
X88791142Y-133519333D01*
X88694380Y-133470952D01*
X88549238Y-133470952D01*
X88452476Y-133422571D01*
X88404095Y-133325809D01*
X88404095Y-133277428D01*
X88452476Y-133180666D01*
X88549238Y-133132285D01*
X88694380Y-133132285D01*
X88791142Y-133180666D01*
X89274952Y-133712857D02*
X89323333Y-133761238D01*
X89274952Y-133809619D01*
X89226571Y-133761238D01*
X89274952Y-133712857D01*
X89274952Y-133809619D01*
X89274952Y-133180666D02*
X89323333Y-133229047D01*
X89274952Y-133277428D01*
X89226571Y-133229047D01*
X89274952Y-133180666D01*
X89274952Y-133277428D01*
X90484476Y-132745238D02*
X89613619Y-134051523D01*
X91548857Y-132745238D02*
X90678000Y-134051523D01*
X92322952Y-133132285D02*
X92322952Y-133954761D01*
X92274571Y-134051523D01*
X92226190Y-134099904D01*
X92129428Y-134148285D01*
X91984285Y-134148285D01*
X91887523Y-134099904D01*
X92322952Y-133761238D02*
X92226190Y-133809619D01*
X92032666Y-133809619D01*
X91935904Y-133761238D01*
X91887523Y-133712857D01*
X91839142Y-133616095D01*
X91839142Y-133325809D01*
X91887523Y-133229047D01*
X91935904Y-133180666D01*
X92032666Y-133132285D01*
X92226190Y-133132285D01*
X92322952Y-133180666D01*
X92806761Y-133809619D02*
X92806761Y-133132285D01*
X92806761Y-132793619D02*
X92758380Y-132842000D01*
X92806761Y-132890380D01*
X92855142Y-132842000D01*
X92806761Y-132793619D01*
X92806761Y-132890380D01*
X93145428Y-133132285D02*
X93532476Y-133132285D01*
X93290571Y-132793619D02*
X93290571Y-133664476D01*
X93338952Y-133761238D01*
X93435714Y-133809619D01*
X93532476Y-133809619D01*
X93871142Y-133809619D02*
X93871142Y-132793619D01*
X94306571Y-133809619D02*
X94306571Y-133277428D01*
X94258190Y-133180666D01*
X94161428Y-133132285D01*
X94016285Y-133132285D01*
X93919523Y-133180666D01*
X93871142Y-133229047D01*
X95225809Y-133132285D02*
X95225809Y-133809619D01*
X94790380Y-133132285D02*
X94790380Y-133664476D01*
X94838761Y-133761238D01*
X94935523Y-133809619D01*
X95080666Y-133809619D01*
X95177428Y-133761238D01*
X95225809Y-133712857D01*
X95709619Y-133809619D02*
X95709619Y-132793619D01*
X95709619Y-133180666D02*
X95806380Y-133132285D01*
X95999904Y-133132285D01*
X96096666Y-133180666D01*
X96145047Y-133229047D01*
X96193428Y-133325809D01*
X96193428Y-133616095D01*
X96145047Y-133712857D01*
X96096666Y-133761238D01*
X95999904Y-133809619D01*
X95806380Y-133809619D01*
X95709619Y-133761238D01*
X96628857Y-133712857D02*
X96677238Y-133761238D01*
X96628857Y-133809619D01*
X96580476Y-133761238D01*
X96628857Y-133712857D01*
X96628857Y-133809619D01*
X97548095Y-133761238D02*
X97451333Y-133809619D01*
X97257809Y-133809619D01*
X97161047Y-133761238D01*
X97112666Y-133712857D01*
X97064285Y-133616095D01*
X97064285Y-133325809D01*
X97112666Y-133229047D01*
X97161047Y-133180666D01*
X97257809Y-133132285D01*
X97451333Y-133132285D01*
X97548095Y-133180666D01*
X98128666Y-133809619D02*
X98031904Y-133761238D01*
X97983523Y-133712857D01*
X97935142Y-133616095D01*
X97935142Y-133325809D01*
X97983523Y-133229047D01*
X98031904Y-133180666D01*
X98128666Y-133132285D01*
X98273809Y-133132285D01*
X98370571Y-133180666D01*
X98418952Y-133229047D01*
X98467333Y-133325809D01*
X98467333Y-133616095D01*
X98418952Y-133712857D01*
X98370571Y-133761238D01*
X98273809Y-133809619D01*
X98128666Y-133809619D01*
X98902761Y-133809619D02*
X98902761Y-133132285D01*
X98902761Y-133229047D02*
X98951142Y-133180666D01*
X99047904Y-133132285D01*
X99193047Y-133132285D01*
X99289809Y-133180666D01*
X99338190Y-133277428D01*
X99338190Y-133809619D01*
X99338190Y-133277428D02*
X99386571Y-133180666D01*
X99483333Y-133132285D01*
X99628476Y-133132285D01*
X99725238Y-133180666D01*
X99773619Y-133277428D01*
X99773619Y-133809619D01*
X100983142Y-132745238D02*
X100112285Y-134051523D01*
X101321809Y-133132285D02*
X101321809Y-134003142D01*
X101273428Y-134099904D01*
X101176666Y-134148285D01*
X101128285Y-134148285D01*
X101321809Y-132793619D02*
X101273428Y-132842000D01*
X101321809Y-132890380D01*
X101370190Y-132842000D01*
X101321809Y-132793619D01*
X101321809Y-132890380D01*
X102241047Y-133809619D02*
X102241047Y-133277428D01*
X102192666Y-133180666D01*
X102095904Y-133132285D01*
X101902380Y-133132285D01*
X101805619Y-133180666D01*
X102241047Y-133761238D02*
X102144285Y-133809619D01*
X101902380Y-133809619D01*
X101805619Y-133761238D01*
X101757238Y-133664476D01*
X101757238Y-133567714D01*
X101805619Y-133470952D01*
X101902380Y-133422571D01*
X102144285Y-133422571D01*
X102241047Y-133374190D01*
X102724857Y-133132285D02*
X102724857Y-133809619D01*
X102724857Y-133229047D02*
X102773238Y-133180666D01*
X102870000Y-133132285D01*
X103015142Y-133132285D01*
X103111904Y-133180666D01*
X103160285Y-133277428D01*
X103160285Y-133809619D01*
X104031142Y-133761238D02*
X103934380Y-133809619D01*
X103740857Y-133809619D01*
X103644095Y-133761238D01*
X103595714Y-133664476D01*
X103595714Y-133277428D01*
X103644095Y-133180666D01*
X103740857Y-133132285D01*
X103934380Y-133132285D01*
X104031142Y-133180666D01*
X104079523Y-133277428D01*
X104079523Y-133374190D01*
X103595714Y-133470952D01*
X104660095Y-133809619D02*
X104563333Y-133761238D01*
X104514952Y-133664476D01*
X104514952Y-132793619D01*
X105047142Y-133809619D02*
X105047142Y-133132285D01*
X105047142Y-132793619D02*
X104998761Y-132842000D01*
X105047142Y-132890380D01*
X105095523Y-132842000D01*
X105047142Y-132793619D01*
X105047142Y-132890380D01*
X105966380Y-133809619D02*
X105966380Y-133277428D01*
X105918000Y-133180666D01*
X105821238Y-133132285D01*
X105627714Y-133132285D01*
X105530952Y-133180666D01*
X105966380Y-133761238D02*
X105869619Y-133809619D01*
X105627714Y-133809619D01*
X105530952Y-133761238D01*
X105482571Y-133664476D01*
X105482571Y-133567714D01*
X105530952Y-133470952D01*
X105627714Y-133422571D01*
X105869619Y-133422571D01*
X105966380Y-133374190D01*
X106450190Y-133422571D02*
X107224285Y-133422571D01*
X107708095Y-133809619D02*
X107708095Y-133132285D01*
X107708095Y-133229047D02*
X107756476Y-133180666D01*
X107853238Y-133132285D01*
X107998380Y-133132285D01*
X108095142Y-133180666D01*
X108143523Y-133277428D01*
X108143523Y-133809619D01*
X108143523Y-133277428D02*
X108191904Y-133180666D01*
X108288666Y-133132285D01*
X108433809Y-133132285D01*
X108530571Y-133180666D01*
X108578952Y-133277428D01*
X108578952Y-133809619D01*
X109207904Y-133809619D02*
X109111142Y-133761238D01*
X109062761Y-133712857D01*
X109014380Y-133616095D01*
X109014380Y-133325809D01*
X109062761Y-133229047D01*
X109111142Y-133180666D01*
X109207904Y-133132285D01*
X109353047Y-133132285D01*
X109449809Y-133180666D01*
X109498190Y-133229047D01*
X109546571Y-133325809D01*
X109546571Y-133616095D01*
X109498190Y-133712857D01*
X109449809Y-133761238D01*
X109353047Y-133809619D01*
X109207904Y-133809619D01*
X110417428Y-133809619D02*
X110417428Y-132793619D01*
X110417428Y-133761238D02*
X110320666Y-133809619D01*
X110127142Y-133809619D01*
X110030380Y-133761238D01*
X109982000Y-133712857D01*
X109933619Y-133616095D01*
X109933619Y-133325809D01*
X109982000Y-133229047D01*
X110030380Y-133180666D01*
X110127142Y-133132285D01*
X110320666Y-133132285D01*
X110417428Y-133180666D01*
X111336666Y-133132285D02*
X111336666Y-133809619D01*
X110901238Y-133132285D02*
X110901238Y-133664476D01*
X110949619Y-133761238D01*
X111046380Y-133809619D01*
X111191523Y-133809619D01*
X111288285Y-133761238D01*
X111336666Y-133712857D01*
X111965619Y-133809619D02*
X111868857Y-133761238D01*
X111820476Y-133664476D01*
X111820476Y-132793619D01*
X112788095Y-133809619D02*
X112788095Y-133277428D01*
X112739714Y-133180666D01*
X112642952Y-133132285D01*
X112449428Y-133132285D01*
X112352666Y-133180666D01*
X112788095Y-133761238D02*
X112691333Y-133809619D01*
X112449428Y-133809619D01*
X112352666Y-133761238D01*
X112304285Y-133664476D01*
X112304285Y-133567714D01*
X112352666Y-133470952D01*
X112449428Y-133422571D01*
X112691333Y-133422571D01*
X112788095Y-133374190D01*
X113271904Y-133809619D02*
X113271904Y-133132285D01*
X113271904Y-133325809D02*
X113320285Y-133229047D01*
X113368666Y-133180666D01*
X113465428Y-133132285D01*
X113562190Y-133132285D01*
X113900857Y-133422571D02*
X114674952Y-133422571D01*
X115594190Y-133809619D02*
X115594190Y-132793619D01*
X115594190Y-133761238D02*
X115497428Y-133809619D01*
X115303904Y-133809619D01*
X115207142Y-133761238D01*
X115158761Y-133712857D01*
X115110380Y-133616095D01*
X115110380Y-133325809D01*
X115158761Y-133229047D01*
X115207142Y-133180666D01*
X115303904Y-133132285D01*
X115497428Y-133132285D01*
X115594190Y-133180666D01*
X116465047Y-133761238D02*
X116368285Y-133809619D01*
X116174761Y-133809619D01*
X116078000Y-133761238D01*
X116029619Y-133664476D01*
X116029619Y-133277428D01*
X116078000Y-133180666D01*
X116174761Y-133132285D01*
X116368285Y-133132285D01*
X116465047Y-133180666D01*
X116513428Y-133277428D01*
X116513428Y-133374190D01*
X116029619Y-133470952D01*
X116852095Y-133132285D02*
X117094000Y-133809619D01*
X117335904Y-133132285D01*
X117722952Y-133809619D02*
X117722952Y-133132285D01*
X117722952Y-132793619D02*
X117674571Y-132842000D01*
X117722952Y-132890380D01*
X117771333Y-132842000D01*
X117722952Y-132793619D01*
X117722952Y-132890380D01*
X118642190Y-133761238D02*
X118545428Y-133809619D01*
X118351904Y-133809619D01*
X118255142Y-133761238D01*
X118206761Y-133712857D01*
X118158380Y-133616095D01*
X118158380Y-133325809D01*
X118206761Y-133229047D01*
X118255142Y-133180666D01*
X118351904Y-133132285D01*
X118545428Y-133132285D01*
X118642190Y-133180666D01*
X119464666Y-133761238D02*
X119367904Y-133809619D01*
X119174380Y-133809619D01*
X119077619Y-133761238D01*
X119029238Y-133664476D01*
X119029238Y-133277428D01*
X119077619Y-133180666D01*
X119174380Y-133132285D01*
X119367904Y-133132285D01*
X119464666Y-133180666D01*
X119513047Y-133277428D01*
X119513047Y-133374190D01*
X119029238Y-133470952D01*
X119900095Y-133761238D02*
X119996857Y-133809619D01*
X120190380Y-133809619D01*
X120287142Y-133761238D01*
X120335523Y-133664476D01*
X120335523Y-133616095D01*
X120287142Y-133519333D01*
X120190380Y-133470952D01*
X120045238Y-133470952D01*
X119948476Y-133422571D01*
X119900095Y-133325809D01*
X119900095Y-133277428D01*
X119948476Y-133180666D01*
X120045238Y-133132285D01*
X120190380Y-133132285D01*
X120287142Y-133180666D01*
D11*
X70436619Y-113804095D02*
X71162333Y-113804095D01*
X71307476Y-113852476D01*
X71404238Y-113949238D01*
X71452619Y-114094380D01*
X71452619Y-114191142D01*
X71452619Y-112884857D02*
X70920428Y-112884857D01*
X70823666Y-112933238D01*
X70775285Y-113030000D01*
X70775285Y-113223523D01*
X70823666Y-113320285D01*
X71404238Y-112884857D02*
X71452619Y-112981619D01*
X71452619Y-113223523D01*
X71404238Y-113320285D01*
X71307476Y-113368666D01*
X71210714Y-113368666D01*
X71113952Y-113320285D01*
X71065571Y-113223523D01*
X71065571Y-112981619D01*
X71017190Y-112884857D01*
X70775285Y-112401047D02*
X71452619Y-112401047D01*
X70872047Y-112401047D02*
X70823666Y-112352666D01*
X70775285Y-112255904D01*
X70775285Y-112110761D01*
X70823666Y-112014000D01*
X70920428Y-111965619D01*
X71452619Y-111965619D01*
X71404238Y-111094761D02*
X71452619Y-111191523D01*
X71452619Y-111385047D01*
X71404238Y-111481809D01*
X71307476Y-111530190D01*
X70920428Y-111530190D01*
X70823666Y-111481809D01*
X70775285Y-111385047D01*
X70775285Y-111191523D01*
X70823666Y-111094761D01*
X70920428Y-111046380D01*
X71017190Y-111046380D01*
X71113952Y-111530190D01*
X71452619Y-110465809D02*
X71404238Y-110562571D01*
X71307476Y-110610952D01*
X70436619Y-110610952D01*
X71452619Y-110078761D02*
X70775285Y-110078761D01*
X70436619Y-110078761D02*
X70485000Y-110127142D01*
X70533380Y-110078761D01*
X70485000Y-110030380D01*
X70436619Y-110078761D01*
X70533380Y-110078761D01*
X71452619Y-109159523D02*
X70920428Y-109159523D01*
X70823666Y-109207904D01*
X70775285Y-109304666D01*
X70775285Y-109498190D01*
X70823666Y-109594952D01*
X71404238Y-109159523D02*
X71452619Y-109256285D01*
X71452619Y-109498190D01*
X71404238Y-109594952D01*
X71307476Y-109643333D01*
X71210714Y-109643333D01*
X71113952Y-109594952D01*
X71065571Y-109498190D01*
X71065571Y-109256285D01*
X71017190Y-109159523D01*
X71452619Y-107901619D02*
X70436619Y-107901619D01*
X71162333Y-107562952D01*
X70436619Y-107224285D01*
X71452619Y-107224285D01*
X71452619Y-106595333D02*
X71404238Y-106692095D01*
X71355857Y-106740476D01*
X71259095Y-106788857D01*
X70968809Y-106788857D01*
X70872047Y-106740476D01*
X70823666Y-106692095D01*
X70775285Y-106595333D01*
X70775285Y-106450190D01*
X70823666Y-106353428D01*
X70872047Y-106305047D01*
X70968809Y-106256666D01*
X71259095Y-106256666D01*
X71355857Y-106305047D01*
X71404238Y-106353428D01*
X71452619Y-106450190D01*
X71452619Y-106595333D01*
X71452619Y-105385809D02*
X70436619Y-105385809D01*
X71404238Y-105385809D02*
X71452619Y-105482571D01*
X71452619Y-105676095D01*
X71404238Y-105772857D01*
X71355857Y-105821238D01*
X71259095Y-105869619D01*
X70968809Y-105869619D01*
X70872047Y-105821238D01*
X70823666Y-105772857D01*
X70775285Y-105676095D01*
X70775285Y-105482571D01*
X70823666Y-105385809D01*
X70775285Y-104466571D02*
X71452619Y-104466571D01*
X70775285Y-104902000D02*
X71307476Y-104902000D01*
X71404238Y-104853619D01*
X71452619Y-104756857D01*
X71452619Y-104611714D01*
X71404238Y-104514952D01*
X71355857Y-104466571D01*
X71452619Y-103837619D02*
X71404238Y-103934380D01*
X71307476Y-103982761D01*
X70436619Y-103982761D01*
X71452619Y-103015142D02*
X70920428Y-103015142D01*
X70823666Y-103063523D01*
X70775285Y-103160285D01*
X70775285Y-103353809D01*
X70823666Y-103450571D01*
X71404238Y-103015142D02*
X71452619Y-103111904D01*
X71452619Y-103353809D01*
X71404238Y-103450571D01*
X71307476Y-103498952D01*
X71210714Y-103498952D01*
X71113952Y-103450571D01*
X71065571Y-103353809D01*
X71065571Y-103111904D01*
X71017190Y-103015142D01*
X71452619Y-102531333D02*
X70775285Y-102531333D01*
X70968809Y-102531333D02*
X70872047Y-102482952D01*
X70823666Y-102434571D01*
X70775285Y-102337809D01*
X70775285Y-102241047D01*
X71452619Y-101128285D02*
X70436619Y-101128285D01*
X70436619Y-100886380D01*
X70485000Y-100741238D01*
X70581761Y-100644476D01*
X70678523Y-100596095D01*
X70872047Y-100547714D01*
X71017190Y-100547714D01*
X71210714Y-100596095D01*
X71307476Y-100644476D01*
X71404238Y-100741238D01*
X71452619Y-100886380D01*
X71452619Y-101128285D01*
X71404238Y-99725238D02*
X71452619Y-99822000D01*
X71452619Y-100015523D01*
X71404238Y-100112285D01*
X71307476Y-100160666D01*
X70920428Y-100160666D01*
X70823666Y-100112285D01*
X70775285Y-100015523D01*
X70775285Y-99822000D01*
X70823666Y-99725238D01*
X70920428Y-99676857D01*
X71017190Y-99676857D01*
X71113952Y-100160666D01*
X70775285Y-99338190D02*
X71452619Y-99096285D01*
X70775285Y-98854380D01*
X71452619Y-98467333D02*
X70775285Y-98467333D01*
X70436619Y-98467333D02*
X70485000Y-98515714D01*
X70533380Y-98467333D01*
X70485000Y-98418952D01*
X70436619Y-98467333D01*
X70533380Y-98467333D01*
X71404238Y-97548095D02*
X71452619Y-97644857D01*
X71452619Y-97838380D01*
X71404238Y-97935142D01*
X71355857Y-97983523D01*
X71259095Y-98031904D01*
X70968809Y-98031904D01*
X70872047Y-97983523D01*
X70823666Y-97935142D01*
X70775285Y-97838380D01*
X70775285Y-97644857D01*
X70823666Y-97548095D01*
X71404238Y-96725619D02*
X71452619Y-96822380D01*
X71452619Y-97015904D01*
X71404238Y-97112666D01*
X71307476Y-97161047D01*
X70920428Y-97161047D01*
X70823666Y-97112666D01*
X70775285Y-97015904D01*
X70775285Y-96822380D01*
X70823666Y-96725619D01*
X70920428Y-96677238D01*
X71017190Y-96677238D01*
X71113952Y-97161047D01*
X73182238Y-112110761D02*
X73230619Y-112014000D01*
X73230619Y-111820476D01*
X73182238Y-111723714D01*
X73085476Y-111675333D01*
X73037095Y-111675333D01*
X72940333Y-111723714D01*
X72891952Y-111820476D01*
X72891952Y-111965619D01*
X72843571Y-112062380D01*
X72746809Y-112110761D01*
X72698428Y-112110761D01*
X72601666Y-112062380D01*
X72553285Y-111965619D01*
X72553285Y-111820476D01*
X72601666Y-111723714D01*
X72553285Y-111385047D02*
X72553285Y-110998000D01*
X72214619Y-111239904D02*
X73085476Y-111239904D01*
X73182238Y-111191523D01*
X73230619Y-111094761D01*
X73230619Y-110998000D01*
X73182238Y-110272285D02*
X73230619Y-110369047D01*
X73230619Y-110562571D01*
X73182238Y-110659333D01*
X73085476Y-110707714D01*
X72698428Y-110707714D01*
X72601666Y-110659333D01*
X72553285Y-110562571D01*
X72553285Y-110369047D01*
X72601666Y-110272285D01*
X72698428Y-110223904D01*
X72795190Y-110223904D01*
X72891952Y-110707714D01*
X72553285Y-109788476D02*
X73569285Y-109788476D01*
X72601666Y-109788476D02*
X72553285Y-109691714D01*
X72553285Y-109498190D01*
X72601666Y-109401428D01*
X72650047Y-109353047D01*
X72746809Y-109304666D01*
X73037095Y-109304666D01*
X73133857Y-109353047D01*
X73182238Y-109401428D01*
X73230619Y-109498190D01*
X73230619Y-109691714D01*
X73182238Y-109788476D01*
X72553285Y-108869238D02*
X73569285Y-108869238D01*
X72601666Y-108869238D02*
X72553285Y-108772476D01*
X72553285Y-108578952D01*
X72601666Y-108482190D01*
X72650047Y-108433809D01*
X72746809Y-108385428D01*
X73037095Y-108385428D01*
X73133857Y-108433809D01*
X73182238Y-108482190D01*
X73230619Y-108578952D01*
X73230619Y-108772476D01*
X73182238Y-108869238D01*
X73182238Y-107562952D02*
X73230619Y-107659714D01*
X73230619Y-107853238D01*
X73182238Y-107950000D01*
X73085476Y-107998380D01*
X72698428Y-107998380D01*
X72601666Y-107950000D01*
X72553285Y-107853238D01*
X72553285Y-107659714D01*
X72601666Y-107562952D01*
X72698428Y-107514571D01*
X72795190Y-107514571D01*
X72891952Y-107998380D01*
X73230619Y-107079142D02*
X72553285Y-107079142D01*
X72746809Y-107079142D02*
X72650047Y-107030761D01*
X72601666Y-106982380D01*
X72553285Y-106885619D01*
X72553285Y-106788857D01*
X73327380Y-106692095D02*
X73327380Y-105918000D01*
X73182238Y-105240666D02*
X73230619Y-105337428D01*
X73230619Y-105530952D01*
X73182238Y-105627714D01*
X73133857Y-105676095D01*
X73037095Y-105724476D01*
X72746809Y-105724476D01*
X72650047Y-105676095D01*
X72601666Y-105627714D01*
X72553285Y-105530952D01*
X72553285Y-105337428D01*
X72601666Y-105240666D01*
X73230619Y-104660095D02*
X73182238Y-104756857D01*
X73133857Y-104805238D01*
X73037095Y-104853619D01*
X72746809Y-104853619D01*
X72650047Y-104805238D01*
X72601666Y-104756857D01*
X72553285Y-104660095D01*
X72553285Y-104514952D01*
X72601666Y-104418190D01*
X72650047Y-104369809D01*
X72746809Y-104321428D01*
X73037095Y-104321428D01*
X73133857Y-104369809D01*
X73182238Y-104418190D01*
X73230619Y-104514952D01*
X73230619Y-104660095D01*
X72553285Y-103886000D02*
X73230619Y-103886000D01*
X72650047Y-103886000D02*
X72601666Y-103837619D01*
X72553285Y-103740857D01*
X72553285Y-103595714D01*
X72601666Y-103498952D01*
X72698428Y-103450571D01*
X73230619Y-103450571D01*
X72553285Y-103111904D02*
X72553285Y-102724857D01*
X72214619Y-102966761D02*
X73085476Y-102966761D01*
X73182238Y-102918380D01*
X73230619Y-102821619D01*
X73230619Y-102724857D01*
X73230619Y-102386190D02*
X72553285Y-102386190D01*
X72746809Y-102386190D02*
X72650047Y-102337809D01*
X72601666Y-102289428D01*
X72553285Y-102192666D01*
X72553285Y-102095904D01*
X73230619Y-101612095D02*
X73182238Y-101708857D01*
X73133857Y-101757238D01*
X73037095Y-101805619D01*
X72746809Y-101805619D01*
X72650047Y-101757238D01*
X72601666Y-101708857D01*
X72553285Y-101612095D01*
X72553285Y-101466952D01*
X72601666Y-101370190D01*
X72650047Y-101321809D01*
X72746809Y-101273428D01*
X73037095Y-101273428D01*
X73133857Y-101321809D01*
X73182238Y-101370190D01*
X73230619Y-101466952D01*
X73230619Y-101612095D01*
X73230619Y-100692857D02*
X73182238Y-100789619D01*
X73085476Y-100838000D01*
X72214619Y-100838000D01*
X73230619Y-100160666D02*
X73182238Y-100257428D01*
X73085476Y-100305809D01*
X72214619Y-100305809D01*
X73182238Y-99386571D02*
X73230619Y-99483333D01*
X73230619Y-99676857D01*
X73182238Y-99773619D01*
X73085476Y-99822000D01*
X72698428Y-99822000D01*
X72601666Y-99773619D01*
X72553285Y-99676857D01*
X72553285Y-99483333D01*
X72601666Y-99386571D01*
X72698428Y-99338190D01*
X72795190Y-99338190D01*
X72891952Y-99822000D01*
X73230619Y-98902761D02*
X72553285Y-98902761D01*
X72746809Y-98902761D02*
X72650047Y-98854380D01*
X72601666Y-98806000D01*
X72553285Y-98709238D01*
X72553285Y-98612476D01*
X74331285Y-112449428D02*
X75347285Y-112449428D01*
X74379666Y-112449428D02*
X74331285Y-112352666D01*
X74331285Y-112159142D01*
X74379666Y-112062380D01*
X74428047Y-112014000D01*
X74524809Y-111965619D01*
X74815095Y-111965619D01*
X74911857Y-112014000D01*
X74960238Y-112062380D01*
X75008619Y-112159142D01*
X75008619Y-112352666D01*
X74960238Y-112449428D01*
X75008619Y-111094761D02*
X74476428Y-111094761D01*
X74379666Y-111143142D01*
X74331285Y-111239904D01*
X74331285Y-111433428D01*
X74379666Y-111530190D01*
X74960238Y-111094761D02*
X75008619Y-111191523D01*
X75008619Y-111433428D01*
X74960238Y-111530190D01*
X74863476Y-111578571D01*
X74766714Y-111578571D01*
X74669952Y-111530190D01*
X74621571Y-111433428D01*
X74621571Y-111191523D01*
X74573190Y-111094761D01*
X75008619Y-110610952D02*
X74331285Y-110610952D01*
X74524809Y-110610952D02*
X74428047Y-110562571D01*
X74379666Y-110514190D01*
X74331285Y-110417428D01*
X74331285Y-110320666D01*
X74331285Y-110127142D02*
X74331285Y-109740095D01*
X73992619Y-109982000D02*
X74863476Y-109982000D01*
X74960238Y-109933619D01*
X75008619Y-109836857D01*
X75008619Y-109740095D01*
X75105380Y-109643333D02*
X75105380Y-108869238D01*
X74331285Y-108627333D02*
X75008619Y-108627333D01*
X74428047Y-108627333D02*
X74379666Y-108578952D01*
X74331285Y-108482190D01*
X74331285Y-108337047D01*
X74379666Y-108240285D01*
X74476428Y-108191904D01*
X75008619Y-108191904D01*
X74331285Y-107272666D02*
X75008619Y-107272666D01*
X74331285Y-107708095D02*
X74863476Y-107708095D01*
X74960238Y-107659714D01*
X75008619Y-107562952D01*
X75008619Y-107417809D01*
X74960238Y-107321047D01*
X74911857Y-107272666D01*
X75008619Y-106788857D02*
X74331285Y-106788857D01*
X74428047Y-106788857D02*
X74379666Y-106740476D01*
X74331285Y-106643714D01*
X74331285Y-106498571D01*
X74379666Y-106401809D01*
X74476428Y-106353428D01*
X75008619Y-106353428D01*
X74476428Y-106353428D02*
X74379666Y-106305047D01*
X74331285Y-106208285D01*
X74331285Y-106063142D01*
X74379666Y-105966380D01*
X74476428Y-105918000D01*
X75008619Y-105918000D01*
X75008619Y-105434190D02*
X73992619Y-105434190D01*
X74379666Y-105434190D02*
X74331285Y-105337428D01*
X74331285Y-105143904D01*
X74379666Y-105047142D01*
X74428047Y-104998761D01*
X74524809Y-104950380D01*
X74815095Y-104950380D01*
X74911857Y-104998761D01*
X74960238Y-105047142D01*
X75008619Y-105143904D01*
X75008619Y-105337428D01*
X74960238Y-105434190D01*
X74960238Y-104127904D02*
X75008619Y-104224666D01*
X75008619Y-104418190D01*
X74960238Y-104514952D01*
X74863476Y-104563333D01*
X74476428Y-104563333D01*
X74379666Y-104514952D01*
X74331285Y-104418190D01*
X74331285Y-104224666D01*
X74379666Y-104127904D01*
X74476428Y-104079523D01*
X74573190Y-104079523D01*
X74669952Y-104563333D01*
X75008619Y-103644095D02*
X74331285Y-103644095D01*
X74524809Y-103644095D02*
X74428047Y-103595714D01*
X74379666Y-103547333D01*
X74331285Y-103450571D01*
X74331285Y-103353809D01*
X74911857Y-103015142D02*
X74960238Y-102966761D01*
X75008619Y-103015142D01*
X74960238Y-103063523D01*
X74911857Y-103015142D01*
X75008619Y-103015142D01*
X74379666Y-103015142D02*
X74428047Y-102966761D01*
X74476428Y-103015142D01*
X74428047Y-103063523D01*
X74379666Y-103015142D01*
X74476428Y-103015142D01*
X75008619Y-101225047D02*
X75008619Y-101805619D01*
X75008619Y-101515333D02*
X73992619Y-101515333D01*
X74137761Y-101612095D01*
X74234523Y-101708857D01*
X74282904Y-101805619D01*
X75008619Y-100257428D02*
X75008619Y-100838000D01*
X75008619Y-100547714D02*
X73992619Y-100547714D01*
X74137761Y-100644476D01*
X74234523Y-100741238D01*
X74282904Y-100838000D01*
X74331285Y-99386571D02*
X75008619Y-99386571D01*
X73944238Y-99628476D02*
X74669952Y-99870380D01*
X74669952Y-99241428D01*
X73992619Y-98660857D02*
X73992619Y-98564095D01*
X74041000Y-98467333D01*
X74089380Y-98418952D01*
X74186142Y-98370571D01*
X74379666Y-98322190D01*
X74621571Y-98322190D01*
X74815095Y-98370571D01*
X74911857Y-98418952D01*
X74960238Y-98467333D01*
X75008619Y-98564095D01*
X75008619Y-98660857D01*
X74960238Y-98757619D01*
X74911857Y-98805999D01*
X74815095Y-98854380D01*
X74621571Y-98902761D01*
X74379666Y-98902761D01*
X74186142Y-98854380D01*
X74089380Y-98805999D01*
X74041000Y-98757619D01*
X73992619Y-98660857D01*
X75770619Y-113296095D02*
X75770619Y-113199333D01*
X75819000Y-113102571D01*
X75867380Y-113054190D01*
X75964142Y-113005809D01*
X76157666Y-112957428D01*
X76399571Y-112957428D01*
X76593095Y-113005809D01*
X76689857Y-113054190D01*
X76738238Y-113102571D01*
X76786619Y-113199333D01*
X76786619Y-113296095D01*
X76738238Y-113392857D01*
X76689857Y-113441238D01*
X76593095Y-113489619D01*
X76399571Y-113538000D01*
X76157666Y-113538000D01*
X75964142Y-113489619D01*
X75867380Y-113441238D01*
X75819000Y-113392857D01*
X75770619Y-113296095D01*
X75770619Y-112086571D02*
X75770619Y-112280095D01*
X75819000Y-112376857D01*
X75867380Y-112425238D01*
X76012523Y-112522000D01*
X76206047Y-112570380D01*
X76593095Y-112570380D01*
X76689857Y-112522000D01*
X76738238Y-112473619D01*
X76786619Y-112376857D01*
X76786619Y-112183333D01*
X76738238Y-112086571D01*
X76689857Y-112038190D01*
X76593095Y-111989809D01*
X76351190Y-111989809D01*
X76254428Y-112038190D01*
X76206047Y-112086571D01*
X76157666Y-112183333D01*
X76157666Y-112376857D01*
X76206047Y-112473619D01*
X76254428Y-112522000D01*
X76351190Y-112570380D01*
X75722238Y-110828666D02*
X77028523Y-111699523D01*
X75867380Y-110538380D02*
X75819000Y-110490000D01*
X75770619Y-110393238D01*
X75770619Y-110151333D01*
X75819000Y-110054571D01*
X75867380Y-110006190D01*
X75964142Y-109957809D01*
X76060904Y-109957809D01*
X76206047Y-110006190D01*
X76786619Y-110586761D01*
X76786619Y-109957809D01*
X75770619Y-109328857D02*
X75770619Y-109232095D01*
X75819000Y-109135333D01*
X75867380Y-109086952D01*
X75964142Y-109038571D01*
X76157666Y-108990190D01*
X76399571Y-108990190D01*
X76593095Y-109038571D01*
X76689857Y-109086952D01*
X76738238Y-109135333D01*
X76786619Y-109232095D01*
X76786619Y-109328857D01*
X76738238Y-109425619D01*
X76689857Y-109474000D01*
X76593095Y-109522380D01*
X76399571Y-109570761D01*
X76157666Y-109570761D01*
X75964142Y-109522380D01*
X75867380Y-109474000D01*
X75819000Y-109425619D01*
X75770619Y-109328857D01*
X76786619Y-108022571D02*
X76786619Y-108603142D01*
X76786619Y-108312857D02*
X75770619Y-108312857D01*
X75915761Y-108409619D01*
X76012523Y-108506380D01*
X76060904Y-108603142D01*
X75770619Y-107683904D02*
X75770619Y-107006571D01*
X76786619Y-107442000D01*
X76109285Y-105942190D02*
X76786619Y-105700285D01*
X76109285Y-105458380D01*
X76738238Y-104684285D02*
X76786619Y-104781047D01*
X76786619Y-104974571D01*
X76738238Y-105071333D01*
X76641476Y-105119714D01*
X76254428Y-105119714D01*
X76157666Y-105071333D01*
X76109285Y-104974571D01*
X76109285Y-104781047D01*
X76157666Y-104684285D01*
X76254428Y-104635904D01*
X76351190Y-104635904D01*
X76447952Y-105119714D01*
X76786619Y-104200476D02*
X76109285Y-104200476D01*
X76302809Y-104200476D02*
X76206047Y-104152095D01*
X76157666Y-104103714D01*
X76109285Y-104006952D01*
X76109285Y-103910190D01*
X76786619Y-102265238D02*
X76786619Y-102845809D01*
X76786619Y-102555523D02*
X75770619Y-102555523D01*
X75915761Y-102652285D01*
X76012523Y-102749047D01*
X76060904Y-102845809D01*
X76689857Y-101829809D02*
X76738238Y-101781428D01*
X76786619Y-101829809D01*
X76738238Y-101878190D01*
X76689857Y-101829809D01*
X76786619Y-101829809D01*
X75770619Y-101152476D02*
X75770619Y-101055714D01*
X75819000Y-100958952D01*
X75867380Y-100910571D01*
X75964142Y-100862190D01*
X76157666Y-100813809D01*
X76399571Y-100813809D01*
X76593095Y-100862190D01*
X76689857Y-100910571D01*
X76738238Y-100958952D01*
X76786619Y-101055714D01*
X76786619Y-101152476D01*
X76738238Y-101249238D01*
X76689857Y-101297619D01*
X76593095Y-101346000D01*
X76399571Y-101394380D01*
X76157666Y-101394380D01*
X75964142Y-101346000D01*
X75867380Y-101297619D01*
X75819000Y-101249238D01*
X75770619Y-101152476D01*
X75770619Y-99120476D02*
X75770619Y-99604285D01*
X76254428Y-99652666D01*
X76206047Y-99604285D01*
X76157666Y-99507523D01*
X76157666Y-99265619D01*
X76206047Y-99168857D01*
X76254428Y-99120476D01*
X76351190Y-99072095D01*
X76593095Y-99072095D01*
X76689857Y-99120476D01*
X76738238Y-99168857D01*
X76786619Y-99265619D01*
X76786619Y-99507523D01*
X76738238Y-99604285D01*
X76689857Y-99652666D01*
X76786619Y-98733428D02*
X76109285Y-98201238D01*
X76109285Y-98733428D02*
X76786619Y-98201238D01*
X75770619Y-97910952D02*
X75770619Y-97282000D01*
X76157666Y-97620666D01*
X76157666Y-97475523D01*
X76206047Y-97378761D01*
X76254428Y-97330380D01*
X76351190Y-97282000D01*
X76593095Y-97282000D01*
X76689857Y-97330380D01*
X76738238Y-97378761D01*
X76786619Y-97475523D01*
X76786619Y-97765809D01*
X76738238Y-97862571D01*
X76689857Y-97910952D01*
D14*
X157734000Y-100965000D02*
G75*
G03X157734000Y-100965000I-254000J0D01*
G01*
X156464000Y-99695000D02*
G75*
G03X156464000Y-99695000I-254000J0D01*
G01*
X156464000Y-102235000D02*
G75*
G03X156464000Y-102235000I-254000J0D01*
G01*
X175260000Y-90805000D02*
X154940000Y-90805000D01*
X154940000Y-90805000D02*
X154940000Y-106045000D01*
X154940000Y-106045000D02*
X175260000Y-106045000D01*
X175260000Y-106045000D02*
X175260000Y-90805000D01*
X124714000Y-100965000D02*
G75*
G03X124714000Y-100965000I-254000J0D01*
G01*
X123444000Y-99695000D02*
G75*
G03X123444000Y-99695000I-254000J0D01*
G01*
X123444000Y-102235000D02*
G75*
G03X123444000Y-102235000I-254000J0D01*
G01*
X142240000Y-90805000D02*
X121920000Y-90805000D01*
X121920000Y-90805000D02*
X121920000Y-106045000D01*
X121920000Y-106045000D02*
X142240000Y-106045000D01*
X142240000Y-106045000D02*
X142240000Y-90805000D01*
X91694000Y-100965000D02*
G75*
G03X91694000Y-100965000I-254000J0D01*
G01*
X90424000Y-99695000D02*
G75*
G03X90424000Y-99695000I-254000J0D01*
G01*
X90424000Y-102235000D02*
G75*
G03X90424000Y-102235000I-254000J0D01*
G01*
X109220000Y-90805000D02*
X88900000Y-90805000D01*
X88900000Y-90805000D02*
X88900000Y-106045000D01*
X88900000Y-106045000D02*
X109220000Y-106045000D01*
X109220000Y-106045000D02*
X109220000Y-90805000D01*
X147701000Y-103251000D02*
X149352000Y-103251000D01*
X147193000Y-103124000D02*
X149860000Y-103124000D01*
X146812000Y-102997000D02*
X150241000Y-102997000D01*
X146558000Y-102870000D02*
X150495000Y-102870000D01*
X146304000Y-102743000D02*
X150876000Y-102743000D01*
X146050000Y-102616000D02*
X151003000Y-102616000D01*
X145923000Y-102489000D02*
X151257000Y-102489000D01*
X145669000Y-102362000D02*
X151384000Y-102362000D01*
X145542000Y-102235000D02*
X151638000Y-102235000D01*
X145288000Y-102108000D02*
X151765000Y-102108000D01*
X145161000Y-101981000D02*
X152019000Y-101981000D01*
X145034000Y-101854000D02*
X152146000Y-101854000D01*
D15*
X153590000Y-98425000D02*
G75*
G03X153590000Y-98425000I-5000000J0D01*
G01*
X143440000Y-103575000D02*
X153740000Y-103575000D01*
X153740000Y-94275000D02*
X153740000Y-103575000D01*
X152740000Y-93275000D02*
X153740000Y-94275000D01*
X144440000Y-93275000D02*
X152740000Y-93275000D01*
X143440000Y-94275000D02*
X144440000Y-93275000D01*
X143440000Y-103575000D02*
X143440000Y-94275000D01*
D14*
X114681000Y-103251000D02*
X116332000Y-103251000D01*
X114173000Y-103124000D02*
X116840000Y-103124000D01*
X113792000Y-102997000D02*
X117221000Y-102997000D01*
X113538000Y-102870000D02*
X117475000Y-102870000D01*
X113284000Y-102743000D02*
X117856000Y-102743000D01*
X113030000Y-102616000D02*
X117983000Y-102616000D01*
X112903000Y-102489000D02*
X118237000Y-102489000D01*
X112649000Y-102362000D02*
X118364000Y-102362000D01*
X112522000Y-102235000D02*
X118618000Y-102235000D01*
X112268000Y-102108000D02*
X118745000Y-102108000D01*
X112141000Y-101981000D02*
X118999000Y-101981000D01*
X112014000Y-101854000D02*
X119126000Y-101854000D01*
D15*
X120570000Y-98425000D02*
G75*
G03X120570000Y-98425000I-5000000J0D01*
G01*
X110420000Y-103575000D02*
X120720000Y-103575000D01*
X120720000Y-94275000D02*
X120720000Y-103575000D01*
X119720000Y-93275000D02*
X120720000Y-94275000D01*
X111420000Y-93275000D02*
X119720000Y-93275000D01*
X110420000Y-94275000D02*
X111420000Y-93275000D01*
X110420000Y-103575000D02*
X110420000Y-94275000D01*
D14*
X81661000Y-103251000D02*
X83312000Y-103251000D01*
X81153000Y-103124000D02*
X83820000Y-103124000D01*
X80772000Y-102997000D02*
X84201000Y-102997000D01*
X80518000Y-102870000D02*
X84455000Y-102870000D01*
X80264000Y-102743000D02*
X84836000Y-102743000D01*
X80010000Y-102616000D02*
X84963000Y-102616000D01*
X79883000Y-102489000D02*
X85217000Y-102489000D01*
X79629000Y-102362000D02*
X85344000Y-102362000D01*
X79502000Y-102235000D02*
X85598000Y-102235000D01*
X79248000Y-102108000D02*
X85725000Y-102108000D01*
X79121000Y-101981000D02*
X85979000Y-101981000D01*
X78994000Y-101854000D02*
X86106000Y-101854000D01*
D15*
X87550000Y-98425000D02*
G75*
G03X87550000Y-98425000I-5000000J0D01*
G01*
X77400000Y-103575000D02*
X87700000Y-103575000D01*
X87700000Y-94275000D02*
X87700000Y-103575000D01*
X86700000Y-93275000D02*
X87700000Y-94275000D01*
X78400000Y-93275000D02*
X86700000Y-93275000D01*
X77400000Y-94275000D02*
X78400000Y-93275000D01*
X77400000Y-103575000D02*
X77400000Y-94275000D01*
D14*
X167640000Y-135890000D02*
G75*
G03X167640000Y-135890000I-2540000J0D01*
G01*
X167640000Y-74930000D02*
G75*
G03X167640000Y-74930000I-2540000J0D01*
G01*
X76200000Y-130810000D02*
G75*
G03X76200000Y-130810000I-2540000J0D01*
G01*
X76200000Y-80010000D02*
G75*
G03X76200000Y-80010000I-2540000J0D01*
G01*
D16*
X177800000Y-100330000D02*
X177800000Y-110490000D01*
X177800000Y-110490000D02*
X191135000Y-110490000D01*
X177800000Y-100330000D02*
X191135000Y-100330000D01*
X191135000Y-100330000D02*
X191135000Y-110490000D01*
X153924000Y-88265000D02*
X176276000Y-88265000D01*
X153924000Y-88265000D02*
X153924000Y-79654400D01*
X153924000Y-79654400D02*
X176276000Y-79654400D01*
X176276000Y-88265000D02*
X176276000Y-79654400D01*
X165100000Y-86995000D02*
G75*
G03X170180000Y-86995000I2540000J2540000D01*
G01*
X160020000Y-86995000D02*
G75*
G03X165100000Y-86995000I2540000J2540000D01*
G01*
X175260000Y-80645000D02*
X175260000Y-86995000D01*
X154940000Y-80645000D02*
X175260000Y-80645000D01*
X154940000Y-86995000D02*
X154940000Y-80645000D01*
X154940000Y-86995000D02*
G75*
G03X160020000Y-86995000I2540000J2540000D01*
G01*
X170180000Y-86995000D02*
G75*
G03X175260000Y-86995000I2540000J2540000D01*
G01*
X172466000Y-126365000D02*
G75*
G03X169164000Y-126365000I-1651000J-1651000D01*
G01*
X172466000Y-121285000D02*
X171577000Y-121285000D01*
X171577000Y-121285000D02*
X171577000Y-120777000D01*
X171577000Y-120777000D02*
X172466000Y-120777000D01*
X172466000Y-120777000D02*
X172466000Y-120142000D01*
X172466000Y-120142000D02*
X169164000Y-120142000D01*
X169164000Y-120142000D02*
X169164000Y-120777000D01*
X169164000Y-120777000D02*
X170053000Y-120777000D01*
X170053000Y-120777000D02*
X170053000Y-121285000D01*
X170053000Y-121285000D02*
X169164000Y-121285000D01*
X169164000Y-126365000D02*
X169164000Y-121285000D01*
X172466000Y-126365000D02*
X172466000Y-121285000D01*
X168656000Y-121285000D02*
X167767000Y-121285000D01*
X167767000Y-121285000D02*
X167767000Y-120777000D01*
X167767000Y-120777000D02*
X168656000Y-120777000D01*
X168656000Y-120777000D02*
X168656000Y-120142000D01*
X168656000Y-120142000D02*
X165354000Y-120142000D01*
X165354000Y-120142000D02*
X165354000Y-120777000D01*
X165354000Y-120777000D02*
X166243000Y-120777000D01*
X166243000Y-120777000D02*
X166243000Y-121285000D01*
X166243000Y-121285000D02*
X165354000Y-121285000D01*
X168656000Y-126365000D02*
G75*
G03X165354000Y-126365000I-1651000J-1651000D01*
G01*
X168656000Y-126365000D02*
X168656000Y-121285000D01*
X165354000Y-126365000D02*
X165354000Y-121285000D01*
X164846000Y-121285000D02*
X163957000Y-121285000D01*
X163957000Y-121285000D02*
X163957000Y-120777000D01*
X163957000Y-120777000D02*
X164846000Y-120777000D01*
X164846000Y-120777000D02*
X164846000Y-120142000D01*
X164846000Y-120142000D02*
X161544000Y-120142000D01*
X161544000Y-120142000D02*
X161544000Y-120777000D01*
X161544000Y-120777000D02*
X162433000Y-120777000D01*
X162433000Y-120777000D02*
X162433000Y-121285000D01*
X162433000Y-121285000D02*
X161544000Y-121285000D01*
X160147000Y-121285000D02*
X160147000Y-120777000D01*
X160147000Y-120777000D02*
X161036000Y-120777000D01*
X161036000Y-120777000D02*
X161036000Y-120142000D01*
X161036000Y-120142000D02*
X157734000Y-120142000D01*
X157734000Y-120142000D02*
X157734000Y-120777000D01*
X157734000Y-120777000D02*
X158623000Y-120777000D01*
X158623000Y-120777000D02*
X158623000Y-121285000D01*
X158623000Y-121285000D02*
X157734000Y-121285000D01*
X161036000Y-121285000D02*
X160147000Y-121285000D01*
X164846000Y-126365000D02*
G75*
G03X161544000Y-126365000I-1651000J-1651000D01*
G01*
X161544000Y-126365000D02*
X161544000Y-121285000D01*
X164846000Y-126365000D02*
X164846000Y-121285000D01*
X161036000Y-126365000D02*
G75*
G03X157734000Y-126365000I-1651000J-1651000D01*
G01*
X157734000Y-126365000D02*
X157734000Y-121285000D01*
X161036000Y-126365000D02*
X161036000Y-121285000D01*
X173415000Y-126825000D02*
X173415000Y-119575000D01*
X156785000Y-119575000D02*
X173415000Y-119575000D01*
X156785000Y-126825000D02*
X156785000Y-119575000D01*
X156785000Y-126825000D02*
X173415000Y-126825000D01*
X137160000Y-86995000D02*
G75*
G03X142240000Y-86995000I2540000J2540000D01*
G01*
X121920000Y-86995000D02*
G75*
G03X127000000Y-86995000I2540000J2540000D01*
G01*
X121920000Y-86995000D02*
X121920000Y-80645000D01*
X121920000Y-80645000D02*
X142240000Y-80645000D01*
X142240000Y-80645000D02*
X142240000Y-86995000D01*
X127000000Y-86995000D02*
G75*
G03X132080000Y-86995000I2540000J2540000D01*
G01*
X132080000Y-86995000D02*
G75*
G03X137160000Y-86995000I2540000J2540000D01*
G01*
X143256000Y-88265000D02*
X143256000Y-79654400D01*
X120904000Y-79654400D02*
X143256000Y-79654400D01*
X120904000Y-88265000D02*
X120904000Y-79654400D01*
X120904000Y-88265000D02*
X143256000Y-88265000D01*
X123765000Y-126825000D02*
X140395000Y-126825000D01*
X123765000Y-126825000D02*
X123765000Y-119575000D01*
X123765000Y-119575000D02*
X140395000Y-119575000D01*
X140395000Y-126825000D02*
X140395000Y-119575000D01*
X128016000Y-126365000D02*
X128016000Y-121285000D01*
X124714000Y-126365000D02*
X124714000Y-121285000D01*
X128016000Y-126365000D02*
G75*
G03X124714000Y-126365000I-1651000J-1651000D01*
G01*
X131826000Y-126365000D02*
X131826000Y-121285000D01*
X128524000Y-126365000D02*
X128524000Y-121285000D01*
X131826000Y-126365000D02*
G75*
G03X128524000Y-126365000I-1651000J-1651000D01*
G01*
X128016000Y-121285000D02*
X127127000Y-121285000D01*
X125603000Y-121285000D02*
X124714000Y-121285000D01*
X125603000Y-120777000D02*
X125603000Y-121285000D01*
X124714000Y-120777000D02*
X125603000Y-120777000D01*
X124714000Y-120142000D02*
X124714000Y-120777000D01*
X128016000Y-120142000D02*
X124714000Y-120142000D01*
X128016000Y-120777000D02*
X128016000Y-120142000D01*
X127127000Y-120777000D02*
X128016000Y-120777000D01*
X127127000Y-121285000D02*
X127127000Y-120777000D01*
X129413000Y-121285000D02*
X128524000Y-121285000D01*
X129413000Y-120777000D02*
X129413000Y-121285000D01*
X128524000Y-120777000D02*
X129413000Y-120777000D01*
X128524000Y-120142000D02*
X128524000Y-120777000D01*
X131826000Y-120142000D02*
X128524000Y-120142000D01*
X131826000Y-120777000D02*
X131826000Y-120142000D01*
X130937000Y-120777000D02*
X131826000Y-120777000D01*
X130937000Y-121285000D02*
X130937000Y-120777000D01*
X131826000Y-121285000D02*
X130937000Y-121285000D01*
X132334000Y-126365000D02*
X132334000Y-121285000D01*
X135636000Y-126365000D02*
X135636000Y-121285000D01*
X135636000Y-126365000D02*
G75*
G03X132334000Y-126365000I-1651000J-1651000D01*
G01*
X133223000Y-121285000D02*
X132334000Y-121285000D01*
X133223000Y-120777000D02*
X133223000Y-121285000D01*
X132334000Y-120777000D02*
X133223000Y-120777000D01*
X132334000Y-120142000D02*
X132334000Y-120777000D01*
X135636000Y-120142000D02*
X132334000Y-120142000D01*
X135636000Y-120777000D02*
X135636000Y-120142000D01*
X134747000Y-120777000D02*
X135636000Y-120777000D01*
X134747000Y-121285000D02*
X134747000Y-120777000D01*
X135636000Y-121285000D02*
X134747000Y-121285000D01*
X139446000Y-126365000D02*
X139446000Y-121285000D01*
X136144000Y-126365000D02*
X136144000Y-121285000D01*
X137033000Y-121285000D02*
X136144000Y-121285000D01*
X137033000Y-120777000D02*
X137033000Y-121285000D01*
X136144000Y-120777000D02*
X137033000Y-120777000D01*
X136144000Y-120142000D02*
X136144000Y-120777000D01*
X139446000Y-120142000D02*
X136144000Y-120142000D01*
X139446000Y-120777000D02*
X139446000Y-120142000D01*
X138557000Y-120777000D02*
X139446000Y-120777000D01*
X138557000Y-121285000D02*
X138557000Y-120777000D01*
X139446000Y-121285000D02*
X138557000Y-121285000D01*
X139446000Y-126365000D02*
G75*
G03X136144000Y-126365000I-1651000J-1651000D01*
G01*
X87884000Y-88265000D02*
X110236000Y-88265000D01*
X87884000Y-88265000D02*
X87884000Y-79654400D01*
X87884000Y-79654400D02*
X110236000Y-79654400D01*
X110236000Y-88265000D02*
X110236000Y-79654400D01*
X99060000Y-86995000D02*
G75*
G03X104140000Y-86995000I2540000J2540000D01*
G01*
X93980000Y-86995000D02*
G75*
G03X99060000Y-86995000I2540000J2540000D01*
G01*
X109220000Y-80645000D02*
X109220000Y-86995000D01*
X88900000Y-80645000D02*
X109220000Y-80645000D01*
X88900000Y-86995000D02*
X88900000Y-80645000D01*
X88900000Y-86995000D02*
G75*
G03X93980000Y-86995000I2540000J2540000D01*
G01*
X104140000Y-86995000D02*
G75*
G03X109220000Y-86995000I2540000J2540000D01*
G01*
X90745000Y-126825000D02*
X107375000Y-126825000D01*
X90745000Y-126825000D02*
X90745000Y-119575000D01*
X90745000Y-119575000D02*
X107375000Y-119575000D01*
X107375000Y-126825000D02*
X107375000Y-119575000D01*
X94996000Y-126365000D02*
X94996000Y-121285000D01*
X91694000Y-126365000D02*
X91694000Y-121285000D01*
X94996000Y-126365000D02*
G75*
G03X91694000Y-126365000I-1651000J-1651000D01*
G01*
X98806000Y-126365000D02*
X98806000Y-121285000D01*
X95504000Y-126365000D02*
X95504000Y-121285000D01*
X98806000Y-126365000D02*
G75*
G03X95504000Y-126365000I-1651000J-1651000D01*
G01*
X94996000Y-121285000D02*
X94107000Y-121285000D01*
X92583000Y-121285000D02*
X91694000Y-121285000D01*
X92583000Y-120777000D02*
X92583000Y-121285000D01*
X91694000Y-120777000D02*
X92583000Y-120777000D01*
X91694000Y-120142000D02*
X91694000Y-120777000D01*
X94996000Y-120142000D02*
X91694000Y-120142000D01*
X94996000Y-120777000D02*
X94996000Y-120142000D01*
X94107000Y-120777000D02*
X94996000Y-120777000D01*
X94107000Y-121285000D02*
X94107000Y-120777000D01*
X96393000Y-121285000D02*
X95504000Y-121285000D01*
X96393000Y-120777000D02*
X96393000Y-121285000D01*
X95504000Y-120777000D02*
X96393000Y-120777000D01*
X95504000Y-120142000D02*
X95504000Y-120777000D01*
X98806000Y-120142000D02*
X95504000Y-120142000D01*
X98806000Y-120777000D02*
X98806000Y-120142000D01*
X97917000Y-120777000D02*
X98806000Y-120777000D01*
X97917000Y-121285000D02*
X97917000Y-120777000D01*
X98806000Y-121285000D02*
X97917000Y-121285000D01*
X99314000Y-126365000D02*
X99314000Y-121285000D01*
X102616000Y-126365000D02*
X102616000Y-121285000D01*
X102616000Y-126365000D02*
G75*
G03X99314000Y-126365000I-1651000J-1651000D01*
G01*
X100203000Y-121285000D02*
X99314000Y-121285000D01*
X100203000Y-120777000D02*
X100203000Y-121285000D01*
X99314000Y-120777000D02*
X100203000Y-120777000D01*
X99314000Y-120142000D02*
X99314000Y-120777000D01*
X102616000Y-120142000D02*
X99314000Y-120142000D01*
X102616000Y-120777000D02*
X102616000Y-120142000D01*
X101727000Y-120777000D02*
X102616000Y-120777000D01*
X101727000Y-121285000D02*
X101727000Y-120777000D01*
X102616000Y-121285000D02*
X101727000Y-121285000D01*
X106426000Y-126365000D02*
X106426000Y-121285000D01*
X103124000Y-126365000D02*
X103124000Y-121285000D01*
X104013000Y-121285000D02*
X103124000Y-121285000D01*
X104013000Y-120777000D02*
X104013000Y-121285000D01*
X103124000Y-120777000D02*
X104013000Y-120777000D01*
X103124000Y-120142000D02*
X103124000Y-120777000D01*
X106426000Y-120142000D02*
X103124000Y-120142000D01*
X106426000Y-120777000D02*
X106426000Y-120142000D01*
X105537000Y-120777000D02*
X106426000Y-120777000D01*
X105537000Y-121285000D02*
X105537000Y-120777000D01*
X106426000Y-121285000D02*
X105537000Y-121285000D01*
X106426000Y-126365000D02*
G75*
G03X103124000Y-126365000I-1651000J-1651000D01*
G01*
D15*
X117570000Y-113570000D02*
X117570000Y-117570000D01*
X117570000Y-117570000D02*
X113570000Y-117570000D01*
X113570000Y-117570000D02*
X113570000Y-113570000D01*
X113570000Y-113570000D02*
X117570000Y-113570000D01*
D11*
X151777095Y-106456238D02*
X151922238Y-106504619D01*
X152164142Y-106504619D01*
X152260904Y-106456238D01*
X152309285Y-106407857D01*
X152357666Y-106311095D01*
X152357666Y-106214333D01*
X152309285Y-106117571D01*
X152260904Y-106069190D01*
X152164142Y-106020809D01*
X151970619Y-105972428D01*
X151873857Y-105924047D01*
X151825476Y-105875666D01*
X151777095Y-105778904D01*
X151777095Y-105682142D01*
X151825476Y-105585380D01*
X151873857Y-105537000D01*
X151970619Y-105488619D01*
X152212523Y-105488619D01*
X152357666Y-105537000D01*
X152744714Y-106456238D02*
X152889857Y-106504619D01*
X153131761Y-106504619D01*
X153228523Y-106456238D01*
X153276904Y-106407857D01*
X153325285Y-106311095D01*
X153325285Y-106214333D01*
X153276904Y-106117571D01*
X153228523Y-106069190D01*
X153131761Y-106020809D01*
X152938238Y-105972428D01*
X152841476Y-105924047D01*
X152793095Y-105875666D01*
X152744714Y-105778904D01*
X152744714Y-105682142D01*
X152793095Y-105585380D01*
X152841476Y-105537000D01*
X152938238Y-105488619D01*
X153180142Y-105488619D01*
X153325285Y-105537000D01*
X154292904Y-106504619D02*
X153712333Y-106504619D01*
X154002619Y-106504619D02*
X154002619Y-105488619D01*
X153905857Y-105633761D01*
X153809095Y-105730523D01*
X153712333Y-105778904D01*
X173482000Y-96659095D02*
X173433619Y-96755857D01*
X173433619Y-96901000D01*
X173482000Y-97046142D01*
X173578761Y-97142904D01*
X173675523Y-97191285D01*
X173869047Y-97239666D01*
X174014190Y-97239666D01*
X174207714Y-97191285D01*
X174304476Y-97142904D01*
X174401238Y-97046142D01*
X174449619Y-96901000D01*
X174449619Y-96804238D01*
X174401238Y-96659095D01*
X174352857Y-96610714D01*
X174014190Y-96610714D01*
X174014190Y-96804238D01*
X174449619Y-96175285D02*
X173433619Y-96175285D01*
X174449619Y-95594714D01*
X173433619Y-95594714D01*
X174449619Y-95110904D02*
X173433619Y-95110904D01*
X173433619Y-94869000D01*
X173482000Y-94723857D01*
X173578761Y-94627095D01*
X173675523Y-94578714D01*
X173869047Y-94530333D01*
X174014190Y-94530333D01*
X174207714Y-94578714D01*
X174304476Y-94627095D01*
X174401238Y-94723857D01*
X174449619Y-94869000D01*
X174449619Y-95110904D01*
X170893619Y-96997761D02*
X171909619Y-96659095D01*
X170893619Y-96320428D01*
X171909619Y-95981761D02*
X170893619Y-95981761D01*
X170893619Y-95304428D02*
X170893619Y-95110904D01*
X170942000Y-95014142D01*
X171038761Y-94917380D01*
X171232285Y-94869000D01*
X171570952Y-94869000D01*
X171764476Y-94917380D01*
X171861238Y-95014142D01*
X171909619Y-95110904D01*
X171909619Y-95304428D01*
X171861238Y-95401190D01*
X171764476Y-95497952D01*
X171570952Y-95546333D01*
X171232285Y-95546333D01*
X171038761Y-95497952D01*
X170942000Y-95401190D01*
X170893619Y-95304428D01*
X169369619Y-97215476D02*
X168353619Y-97215476D01*
X169079333Y-96876809D01*
X168353619Y-96538142D01*
X169369619Y-96538142D01*
X169369619Y-95522142D02*
X169369619Y-96102714D01*
X169369619Y-95812428D02*
X168353619Y-95812428D01*
X168498761Y-95909190D01*
X168595523Y-96005952D01*
X168643904Y-96102714D01*
X168837428Y-94748047D02*
X168885809Y-94602904D01*
X168934190Y-94554523D01*
X169030952Y-94506142D01*
X169176095Y-94506142D01*
X169272857Y-94554523D01*
X169321238Y-94602904D01*
X169369619Y-94699666D01*
X169369619Y-95086714D01*
X168353619Y-95086714D01*
X168353619Y-94748047D01*
X168402000Y-94651285D01*
X168450380Y-94602904D01*
X168547142Y-94554523D01*
X168643904Y-94554523D01*
X168740666Y-94602904D01*
X168789047Y-94651285D01*
X168837428Y-94748047D01*
X168837428Y-95086714D01*
X166829619Y-97142904D02*
X165813619Y-97142904D01*
X166539333Y-96804238D01*
X165813619Y-96465571D01*
X166829619Y-96465571D01*
X166829619Y-95449571D02*
X166829619Y-96030142D01*
X166829619Y-95739857D02*
X165813619Y-95739857D01*
X165958761Y-95836619D01*
X166055523Y-95933380D01*
X166103904Y-96030142D01*
X166539333Y-95062523D02*
X166539333Y-94578714D01*
X166829619Y-95159285D02*
X165813619Y-94820619D01*
X166829619Y-94481952D01*
X164289619Y-97142904D02*
X163273619Y-97142904D01*
X163999333Y-96804238D01*
X163273619Y-96465571D01*
X164289619Y-96465571D01*
X163370380Y-96030142D02*
X163322000Y-95981761D01*
X163273619Y-95885000D01*
X163273619Y-95643095D01*
X163322000Y-95546333D01*
X163370380Y-95497952D01*
X163467142Y-95449571D01*
X163563904Y-95449571D01*
X163709047Y-95497952D01*
X164289619Y-96078523D01*
X164289619Y-95449571D01*
X163999333Y-95062523D02*
X163999333Y-94578714D01*
X164289619Y-95159285D02*
X163273619Y-94820619D01*
X164289619Y-94481952D01*
X161749619Y-97215476D02*
X160733619Y-97215476D01*
X161459333Y-96876809D01*
X160733619Y-96538142D01*
X161749619Y-96538142D01*
X160830380Y-96102714D02*
X160782000Y-96054333D01*
X160733619Y-95957571D01*
X160733619Y-95715666D01*
X160782000Y-95618904D01*
X160830380Y-95570523D01*
X160927142Y-95522142D01*
X161023904Y-95522142D01*
X161169047Y-95570523D01*
X161749619Y-96151095D01*
X161749619Y-95522142D01*
X161217428Y-94748047D02*
X161265809Y-94602904D01*
X161314190Y-94554523D01*
X161410952Y-94506142D01*
X161556095Y-94506142D01*
X161652857Y-94554523D01*
X161701238Y-94602904D01*
X161749619Y-94699666D01*
X161749619Y-95086714D01*
X160733619Y-95086714D01*
X160733619Y-94748047D01*
X160782000Y-94651285D01*
X160830380Y-94602904D01*
X160927142Y-94554523D01*
X161023904Y-94554523D01*
X161120666Y-94602904D01*
X161169047Y-94651285D01*
X161217428Y-94748047D01*
X161217428Y-95086714D01*
X158242000Y-96659095D02*
X158193619Y-96755857D01*
X158193619Y-96901000D01*
X158242000Y-97046142D01*
X158338761Y-97142904D01*
X158435523Y-97191285D01*
X158629047Y-97239666D01*
X158774190Y-97239666D01*
X158967714Y-97191285D01*
X159064476Y-97142904D01*
X159161238Y-97046142D01*
X159209619Y-96901000D01*
X159209619Y-96804238D01*
X159161238Y-96659095D01*
X159112857Y-96610714D01*
X158774190Y-96610714D01*
X158774190Y-96804238D01*
X159209619Y-96175285D02*
X158193619Y-96175285D01*
X159209619Y-95594714D01*
X158193619Y-95594714D01*
X159209619Y-95110904D02*
X158193619Y-95110904D01*
X158193619Y-94869000D01*
X158242000Y-94723857D01*
X158338761Y-94627095D01*
X158435523Y-94578714D01*
X158629047Y-94530333D01*
X158774190Y-94530333D01*
X158967714Y-94578714D01*
X159064476Y-94627095D01*
X159161238Y-94723857D01*
X159209619Y-94869000D01*
X159209619Y-95110904D01*
X155653619Y-96804238D02*
X156669619Y-96465571D01*
X155653619Y-96126904D01*
X156669619Y-95788238D02*
X155653619Y-95788238D01*
X156379333Y-95449571D01*
X155653619Y-95110904D01*
X156669619Y-95110904D01*
D13*
X156155571Y-101527428D02*
X156155571Y-101273428D01*
X156554714Y-101164571D02*
X156554714Y-101527428D01*
X155792714Y-101527428D01*
X155792714Y-101164571D01*
X156554714Y-100838000D02*
X155792714Y-100838000D01*
X156554714Y-100402571D01*
X155792714Y-100402571D01*
D11*
X159209619Y-102561571D02*
X158193619Y-102561571D01*
X158919333Y-102222904D01*
X158193619Y-101884238D01*
X159209619Y-101884238D01*
X158193619Y-101206904D02*
X158193619Y-101013380D01*
X158242000Y-100916619D01*
X158338761Y-100819857D01*
X158532285Y-100771476D01*
X158870952Y-100771476D01*
X159064476Y-100819857D01*
X159161238Y-100916619D01*
X159209619Y-101013380D01*
X159209619Y-101206904D01*
X159161238Y-101303666D01*
X159064476Y-101400428D01*
X158870952Y-101448809D01*
X158532285Y-101448809D01*
X158338761Y-101400428D01*
X158242000Y-101303666D01*
X158193619Y-101206904D01*
X159161238Y-100384428D02*
X159209619Y-100239285D01*
X159209619Y-99997380D01*
X159161238Y-99900619D01*
X159112857Y-99852238D01*
X159016095Y-99803857D01*
X158919333Y-99803857D01*
X158822571Y-99852238D01*
X158774190Y-99900619D01*
X158725809Y-99997380D01*
X158677428Y-100190904D01*
X158629047Y-100287666D01*
X158580666Y-100336047D01*
X158483904Y-100384428D01*
X158387142Y-100384428D01*
X158290380Y-100336047D01*
X158242000Y-100287666D01*
X158193619Y-100190904D01*
X158193619Y-99949000D01*
X158242000Y-99803857D01*
X159209619Y-99368428D02*
X158193619Y-99368428D01*
X161701238Y-102271285D02*
X161749619Y-102126142D01*
X161749619Y-101884238D01*
X161701238Y-101787476D01*
X161652857Y-101739095D01*
X161556095Y-101690714D01*
X161459333Y-101690714D01*
X161362571Y-101739095D01*
X161314190Y-101787476D01*
X161265809Y-101884238D01*
X161217428Y-102077761D01*
X161169047Y-102174523D01*
X161120666Y-102222904D01*
X161023904Y-102271285D01*
X160927142Y-102271285D01*
X160830380Y-102222904D01*
X160782000Y-102174523D01*
X160733619Y-102077761D01*
X160733619Y-101835857D01*
X160782000Y-101690714D01*
X161652857Y-100674714D02*
X161701238Y-100723095D01*
X161749619Y-100868238D01*
X161749619Y-100965000D01*
X161701238Y-101110142D01*
X161604476Y-101206904D01*
X161507714Y-101255285D01*
X161314190Y-101303666D01*
X161169047Y-101303666D01*
X160975523Y-101255285D01*
X160878761Y-101206904D01*
X160782000Y-101110142D01*
X160733619Y-100965000D01*
X160733619Y-100868238D01*
X160782000Y-100723095D01*
X160830380Y-100674714D01*
X161749619Y-100239285D02*
X160733619Y-100239285D01*
X161749619Y-99658714D02*
X161169047Y-100094142D01*
X160733619Y-99658714D02*
X161314190Y-100239285D01*
X164192857Y-101134333D02*
X164241238Y-101182714D01*
X164289619Y-101327857D01*
X164289619Y-101424619D01*
X164241238Y-101569761D01*
X164144476Y-101666523D01*
X164047714Y-101714904D01*
X163854190Y-101763285D01*
X163709047Y-101763285D01*
X163515523Y-101714904D01*
X163418761Y-101666523D01*
X163322000Y-101569761D01*
X163273619Y-101424619D01*
X163273619Y-101327857D01*
X163322000Y-101182714D01*
X163370380Y-101134333D01*
X164241238Y-100747285D02*
X164289619Y-100602142D01*
X164289619Y-100360238D01*
X164241238Y-100263476D01*
X164192857Y-100215095D01*
X164096095Y-100166714D01*
X163999333Y-100166714D01*
X163902571Y-100215095D01*
X163854190Y-100263476D01*
X163805809Y-100360238D01*
X163757428Y-100553761D01*
X163709047Y-100650523D01*
X163660666Y-100698904D01*
X163563904Y-100747285D01*
X163467142Y-100747285D01*
X163370380Y-100698904D01*
X163322000Y-100650523D01*
X163273619Y-100553761D01*
X163273619Y-100311857D01*
X163322000Y-100166714D01*
X166829619Y-102561571D02*
X165813619Y-102561571D01*
X166539333Y-102222904D01*
X165813619Y-101884238D01*
X166829619Y-101884238D01*
X166829619Y-101400428D02*
X165813619Y-101400428D01*
X166781238Y-100965000D02*
X166829619Y-100819857D01*
X166829619Y-100577952D01*
X166781238Y-100481190D01*
X166732857Y-100432809D01*
X166636095Y-100384428D01*
X166539333Y-100384428D01*
X166442571Y-100432809D01*
X166394190Y-100481190D01*
X166345809Y-100577952D01*
X166297428Y-100771476D01*
X166249047Y-100868238D01*
X166200666Y-100916619D01*
X166103904Y-100965000D01*
X166007142Y-100965000D01*
X165910380Y-100916619D01*
X165862000Y-100868238D01*
X165813619Y-100771476D01*
X165813619Y-100529571D01*
X165862000Y-100384428D01*
X165813619Y-99755476D02*
X165813619Y-99561952D01*
X165862000Y-99465190D01*
X165958761Y-99368428D01*
X166152285Y-99320047D01*
X166490952Y-99320047D01*
X166684476Y-99368428D01*
X166781238Y-99465190D01*
X166829619Y-99561952D01*
X166829619Y-99755476D01*
X166781238Y-99852238D01*
X166684476Y-99949000D01*
X166490952Y-99997380D01*
X166152285Y-99997380D01*
X165958761Y-99949000D01*
X165862000Y-99852238D01*
X165813619Y-99755476D01*
X169369619Y-101763285D02*
X168353619Y-101763285D01*
X169369619Y-101182714D01*
X168353619Y-101182714D01*
X169272857Y-100118333D02*
X169321238Y-100166714D01*
X169369619Y-100311857D01*
X169369619Y-100408619D01*
X169321238Y-100553761D01*
X169224476Y-100650523D01*
X169127714Y-100698904D01*
X168934190Y-100747285D01*
X168789047Y-100747285D01*
X168595523Y-100698904D01*
X168498761Y-100650523D01*
X168402000Y-100553761D01*
X168353619Y-100408619D01*
X168353619Y-100311857D01*
X168402000Y-100166714D01*
X168450380Y-100118333D01*
X171861238Y-102609952D02*
X171909619Y-102464809D01*
X171909619Y-102222904D01*
X171861238Y-102126142D01*
X171812857Y-102077761D01*
X171716095Y-102029380D01*
X171619333Y-102029380D01*
X171522571Y-102077761D01*
X171474190Y-102126142D01*
X171425809Y-102222904D01*
X171377428Y-102416428D01*
X171329047Y-102513190D01*
X171280666Y-102561571D01*
X171183904Y-102609952D01*
X171087142Y-102609952D01*
X170990380Y-102561571D01*
X170942000Y-102513190D01*
X170893619Y-102416428D01*
X170893619Y-102174523D01*
X170942000Y-102029380D01*
X170893619Y-101739095D02*
X170893619Y-101158523D01*
X171909619Y-101448809D02*
X170893619Y-101448809D01*
X171377428Y-100819857D02*
X171377428Y-100481190D01*
X171909619Y-100336047D02*
X171909619Y-100819857D01*
X170893619Y-100819857D01*
X170893619Y-100336047D01*
X171909619Y-99900619D02*
X170893619Y-99900619D01*
X170893619Y-99513571D01*
X170942000Y-99416809D01*
X170990380Y-99368428D01*
X171087142Y-99320047D01*
X171232285Y-99320047D01*
X171329047Y-99368428D01*
X171377428Y-99416809D01*
X171425809Y-99513571D01*
X171425809Y-99900619D01*
X174449619Y-101981000D02*
X173433619Y-101981000D01*
X173433619Y-101739095D01*
X173482000Y-101593952D01*
X173578761Y-101497190D01*
X173675523Y-101448809D01*
X173869047Y-101400428D01*
X174014190Y-101400428D01*
X174207714Y-101448809D01*
X174304476Y-101497190D01*
X174401238Y-101593952D01*
X174449619Y-101739095D01*
X174449619Y-101981000D01*
X174449619Y-100965000D02*
X173433619Y-100965000D01*
X174449619Y-99900619D02*
X173965809Y-100239285D01*
X174449619Y-100481190D02*
X173433619Y-100481190D01*
X173433619Y-100094142D01*
X173482000Y-99997380D01*
X173530380Y-99949000D01*
X173627142Y-99900619D01*
X173772285Y-99900619D01*
X173869047Y-99949000D01*
X173917428Y-99997380D01*
X173965809Y-100094142D01*
X173965809Y-100481190D01*
X118757095Y-106456238D02*
X118902238Y-106504619D01*
X119144142Y-106504619D01*
X119240904Y-106456238D01*
X119289285Y-106407857D01*
X119337666Y-106311095D01*
X119337666Y-106214333D01*
X119289285Y-106117571D01*
X119240904Y-106069190D01*
X119144142Y-106020809D01*
X118950619Y-105972428D01*
X118853857Y-105924047D01*
X118805476Y-105875666D01*
X118757095Y-105778904D01*
X118757095Y-105682142D01*
X118805476Y-105585380D01*
X118853857Y-105537000D01*
X118950619Y-105488619D01*
X119192523Y-105488619D01*
X119337666Y-105537000D01*
X119724714Y-106456238D02*
X119869857Y-106504619D01*
X120111761Y-106504619D01*
X120208523Y-106456238D01*
X120256904Y-106407857D01*
X120305285Y-106311095D01*
X120305285Y-106214333D01*
X120256904Y-106117571D01*
X120208523Y-106069190D01*
X120111761Y-106020809D01*
X119918238Y-105972428D01*
X119821476Y-105924047D01*
X119773095Y-105875666D01*
X119724714Y-105778904D01*
X119724714Y-105682142D01*
X119773095Y-105585380D01*
X119821476Y-105537000D01*
X119918238Y-105488619D01*
X120160142Y-105488619D01*
X120305285Y-105537000D01*
X120692333Y-105585380D02*
X120740714Y-105537000D01*
X120837476Y-105488619D01*
X121079380Y-105488619D01*
X121176142Y-105537000D01*
X121224523Y-105585380D01*
X121272904Y-105682142D01*
X121272904Y-105778904D01*
X121224523Y-105924047D01*
X120643952Y-106504619D01*
X121272904Y-106504619D01*
X140462000Y-96659095D02*
X140413619Y-96755857D01*
X140413619Y-96901000D01*
X140462000Y-97046142D01*
X140558761Y-97142904D01*
X140655523Y-97191285D01*
X140849047Y-97239666D01*
X140994190Y-97239666D01*
X141187714Y-97191285D01*
X141284476Y-97142904D01*
X141381238Y-97046142D01*
X141429619Y-96901000D01*
X141429619Y-96804238D01*
X141381238Y-96659095D01*
X141332857Y-96610714D01*
X140994190Y-96610714D01*
X140994190Y-96804238D01*
X141429619Y-96175285D02*
X140413619Y-96175285D01*
X141429619Y-95594714D01*
X140413619Y-95594714D01*
X141429619Y-95110904D02*
X140413619Y-95110904D01*
X140413619Y-94869000D01*
X140462000Y-94723857D01*
X140558761Y-94627095D01*
X140655523Y-94578714D01*
X140849047Y-94530333D01*
X140994190Y-94530333D01*
X141187714Y-94578714D01*
X141284476Y-94627095D01*
X141381238Y-94723857D01*
X141429619Y-94869000D01*
X141429619Y-95110904D01*
X137873619Y-96997761D02*
X138889619Y-96659095D01*
X137873619Y-96320428D01*
X138889619Y-95981761D02*
X137873619Y-95981761D01*
X137873619Y-95304428D02*
X137873619Y-95110904D01*
X137922000Y-95014142D01*
X138018761Y-94917380D01*
X138212285Y-94869000D01*
X138550952Y-94869000D01*
X138744476Y-94917380D01*
X138841238Y-95014142D01*
X138889619Y-95110904D01*
X138889619Y-95304428D01*
X138841238Y-95401190D01*
X138744476Y-95497952D01*
X138550952Y-95546333D01*
X138212285Y-95546333D01*
X138018761Y-95497952D01*
X137922000Y-95401190D01*
X137873619Y-95304428D01*
X136349619Y-97215476D02*
X135333619Y-97215476D01*
X136059333Y-96876809D01*
X135333619Y-96538142D01*
X136349619Y-96538142D01*
X136349619Y-95522142D02*
X136349619Y-96102714D01*
X136349619Y-95812428D02*
X135333619Y-95812428D01*
X135478761Y-95909190D01*
X135575523Y-96005952D01*
X135623904Y-96102714D01*
X135817428Y-94748047D02*
X135865809Y-94602904D01*
X135914190Y-94554523D01*
X136010952Y-94506142D01*
X136156095Y-94506142D01*
X136252857Y-94554523D01*
X136301238Y-94602904D01*
X136349619Y-94699666D01*
X136349619Y-95086714D01*
X135333619Y-95086714D01*
X135333619Y-94748047D01*
X135382000Y-94651285D01*
X135430380Y-94602904D01*
X135527142Y-94554523D01*
X135623904Y-94554523D01*
X135720666Y-94602904D01*
X135769047Y-94651285D01*
X135817428Y-94748047D01*
X135817428Y-95086714D01*
X133809619Y-97142904D02*
X132793619Y-97142904D01*
X133519333Y-96804238D01*
X132793619Y-96465571D01*
X133809619Y-96465571D01*
X133809619Y-95449571D02*
X133809619Y-96030142D01*
X133809619Y-95739857D02*
X132793619Y-95739857D01*
X132938761Y-95836619D01*
X133035523Y-95933380D01*
X133083904Y-96030142D01*
X133519333Y-95062523D02*
X133519333Y-94578714D01*
X133809619Y-95159285D02*
X132793619Y-94820619D01*
X133809619Y-94481952D01*
X131269619Y-97142904D02*
X130253619Y-97142904D01*
X130979333Y-96804238D01*
X130253619Y-96465571D01*
X131269619Y-96465571D01*
X130350380Y-96030142D02*
X130302000Y-95981761D01*
X130253619Y-95885000D01*
X130253619Y-95643095D01*
X130302000Y-95546333D01*
X130350380Y-95497952D01*
X130447142Y-95449571D01*
X130543904Y-95449571D01*
X130689047Y-95497952D01*
X131269619Y-96078523D01*
X131269619Y-95449571D01*
X130979333Y-95062523D02*
X130979333Y-94578714D01*
X131269619Y-95159285D02*
X130253619Y-94820619D01*
X131269619Y-94481952D01*
X128729619Y-97215476D02*
X127713619Y-97215476D01*
X128439333Y-96876809D01*
X127713619Y-96538142D01*
X128729619Y-96538142D01*
X127810380Y-96102714D02*
X127762000Y-96054333D01*
X127713619Y-95957571D01*
X127713619Y-95715666D01*
X127762000Y-95618904D01*
X127810380Y-95570523D01*
X127907142Y-95522142D01*
X128003904Y-95522142D01*
X128149047Y-95570523D01*
X128729619Y-96151095D01*
X128729619Y-95522142D01*
X128197428Y-94748047D02*
X128245809Y-94602904D01*
X128294190Y-94554523D01*
X128390952Y-94506142D01*
X128536095Y-94506142D01*
X128632857Y-94554523D01*
X128681238Y-94602904D01*
X128729619Y-94699666D01*
X128729619Y-95086714D01*
X127713619Y-95086714D01*
X127713619Y-94748047D01*
X127762000Y-94651285D01*
X127810380Y-94602904D01*
X127907142Y-94554523D01*
X128003904Y-94554523D01*
X128100666Y-94602904D01*
X128149047Y-94651285D01*
X128197428Y-94748047D01*
X128197428Y-95086714D01*
X125222000Y-96659095D02*
X125173619Y-96755857D01*
X125173619Y-96901000D01*
X125222000Y-97046142D01*
X125318761Y-97142904D01*
X125415523Y-97191285D01*
X125609047Y-97239666D01*
X125754190Y-97239666D01*
X125947714Y-97191285D01*
X126044476Y-97142904D01*
X126141238Y-97046142D01*
X126189619Y-96901000D01*
X126189619Y-96804238D01*
X126141238Y-96659095D01*
X126092857Y-96610714D01*
X125754190Y-96610714D01*
X125754190Y-96804238D01*
X126189619Y-96175285D02*
X125173619Y-96175285D01*
X126189619Y-95594714D01*
X125173619Y-95594714D01*
X126189619Y-95110904D02*
X125173619Y-95110904D01*
X125173619Y-94869000D01*
X125222000Y-94723857D01*
X125318761Y-94627095D01*
X125415523Y-94578714D01*
X125609047Y-94530333D01*
X125754190Y-94530333D01*
X125947714Y-94578714D01*
X126044476Y-94627095D01*
X126141238Y-94723857D01*
X126189619Y-94869000D01*
X126189619Y-95110904D01*
X122633619Y-96804238D02*
X123649619Y-96465571D01*
X122633619Y-96126904D01*
X123649619Y-95788238D02*
X122633619Y-95788238D01*
X123359333Y-95449571D01*
X122633619Y-95110904D01*
X123649619Y-95110904D01*
D13*
X123135571Y-101527428D02*
X123135571Y-101273428D01*
X123534714Y-101164571D02*
X123534714Y-101527428D01*
X122772714Y-101527428D01*
X122772714Y-101164571D01*
X123534714Y-100838000D02*
X122772714Y-100838000D01*
X123534714Y-100402571D01*
X122772714Y-100402571D01*
D11*
X126189619Y-102561571D02*
X125173619Y-102561571D01*
X125899333Y-102222904D01*
X125173619Y-101884238D01*
X126189619Y-101884238D01*
X125173619Y-101206904D02*
X125173619Y-101013380D01*
X125222000Y-100916619D01*
X125318761Y-100819857D01*
X125512285Y-100771476D01*
X125850952Y-100771476D01*
X126044476Y-100819857D01*
X126141238Y-100916619D01*
X126189619Y-101013380D01*
X126189619Y-101206904D01*
X126141238Y-101303666D01*
X126044476Y-101400428D01*
X125850952Y-101448809D01*
X125512285Y-101448809D01*
X125318761Y-101400428D01*
X125222000Y-101303666D01*
X125173619Y-101206904D01*
X126141238Y-100384428D02*
X126189619Y-100239285D01*
X126189619Y-99997380D01*
X126141238Y-99900619D01*
X126092857Y-99852238D01*
X125996095Y-99803857D01*
X125899333Y-99803857D01*
X125802571Y-99852238D01*
X125754190Y-99900619D01*
X125705809Y-99997380D01*
X125657428Y-100190904D01*
X125609047Y-100287666D01*
X125560666Y-100336047D01*
X125463904Y-100384428D01*
X125367142Y-100384428D01*
X125270380Y-100336047D01*
X125222000Y-100287666D01*
X125173619Y-100190904D01*
X125173619Y-99949000D01*
X125222000Y-99803857D01*
X126189619Y-99368428D02*
X125173619Y-99368428D01*
X128681238Y-102271285D02*
X128729619Y-102126142D01*
X128729619Y-101884238D01*
X128681238Y-101787476D01*
X128632857Y-101739095D01*
X128536095Y-101690714D01*
X128439333Y-101690714D01*
X128342571Y-101739095D01*
X128294190Y-101787476D01*
X128245809Y-101884238D01*
X128197428Y-102077761D01*
X128149047Y-102174523D01*
X128100666Y-102222904D01*
X128003904Y-102271285D01*
X127907142Y-102271285D01*
X127810380Y-102222904D01*
X127762000Y-102174523D01*
X127713619Y-102077761D01*
X127713619Y-101835857D01*
X127762000Y-101690714D01*
X128632857Y-100674714D02*
X128681238Y-100723095D01*
X128729619Y-100868238D01*
X128729619Y-100965000D01*
X128681238Y-101110142D01*
X128584476Y-101206904D01*
X128487714Y-101255285D01*
X128294190Y-101303666D01*
X128149047Y-101303666D01*
X127955523Y-101255285D01*
X127858761Y-101206904D01*
X127762000Y-101110142D01*
X127713619Y-100965000D01*
X127713619Y-100868238D01*
X127762000Y-100723095D01*
X127810380Y-100674714D01*
X128729619Y-100239285D02*
X127713619Y-100239285D01*
X128729619Y-99658714D02*
X128149047Y-100094142D01*
X127713619Y-99658714D02*
X128294190Y-100239285D01*
X131172857Y-101134333D02*
X131221238Y-101182714D01*
X131269619Y-101327857D01*
X131269619Y-101424619D01*
X131221238Y-101569761D01*
X131124476Y-101666523D01*
X131027714Y-101714904D01*
X130834190Y-101763285D01*
X130689047Y-101763285D01*
X130495523Y-101714904D01*
X130398761Y-101666523D01*
X130302000Y-101569761D01*
X130253619Y-101424619D01*
X130253619Y-101327857D01*
X130302000Y-101182714D01*
X130350380Y-101134333D01*
X131221238Y-100747285D02*
X131269619Y-100602142D01*
X131269619Y-100360238D01*
X131221238Y-100263476D01*
X131172857Y-100215095D01*
X131076095Y-100166714D01*
X130979333Y-100166714D01*
X130882571Y-100215095D01*
X130834190Y-100263476D01*
X130785809Y-100360238D01*
X130737428Y-100553761D01*
X130689047Y-100650523D01*
X130640666Y-100698904D01*
X130543904Y-100747285D01*
X130447142Y-100747285D01*
X130350380Y-100698904D01*
X130302000Y-100650523D01*
X130253619Y-100553761D01*
X130253619Y-100311857D01*
X130302000Y-100166714D01*
X133809619Y-102561571D02*
X132793619Y-102561571D01*
X133519333Y-102222904D01*
X132793619Y-101884238D01*
X133809619Y-101884238D01*
X133809619Y-101400428D02*
X132793619Y-101400428D01*
X133761238Y-100965000D02*
X133809619Y-100819857D01*
X133809619Y-100577952D01*
X133761238Y-100481190D01*
X133712857Y-100432809D01*
X133616095Y-100384428D01*
X133519333Y-100384428D01*
X133422571Y-100432809D01*
X133374190Y-100481190D01*
X133325809Y-100577952D01*
X133277428Y-100771476D01*
X133229047Y-100868238D01*
X133180666Y-100916619D01*
X133083904Y-100965000D01*
X132987142Y-100965000D01*
X132890380Y-100916619D01*
X132842000Y-100868238D01*
X132793619Y-100771476D01*
X132793619Y-100529571D01*
X132842000Y-100384428D01*
X132793619Y-99755476D02*
X132793619Y-99561952D01*
X132842000Y-99465190D01*
X132938761Y-99368428D01*
X133132285Y-99320047D01*
X133470952Y-99320047D01*
X133664476Y-99368428D01*
X133761238Y-99465190D01*
X133809619Y-99561952D01*
X133809619Y-99755476D01*
X133761238Y-99852238D01*
X133664476Y-99949000D01*
X133470952Y-99997380D01*
X133132285Y-99997380D01*
X132938761Y-99949000D01*
X132842000Y-99852238D01*
X132793619Y-99755476D01*
X136349619Y-101763285D02*
X135333619Y-101763285D01*
X136349619Y-101182714D01*
X135333619Y-101182714D01*
X136252857Y-100118333D02*
X136301238Y-100166714D01*
X136349619Y-100311857D01*
X136349619Y-100408619D01*
X136301238Y-100553761D01*
X136204476Y-100650523D01*
X136107714Y-100698904D01*
X135914190Y-100747285D01*
X135769047Y-100747285D01*
X135575523Y-100698904D01*
X135478761Y-100650523D01*
X135382000Y-100553761D01*
X135333619Y-100408619D01*
X135333619Y-100311857D01*
X135382000Y-100166714D01*
X135430380Y-100118333D01*
X138841238Y-102609952D02*
X138889619Y-102464809D01*
X138889619Y-102222904D01*
X138841238Y-102126142D01*
X138792857Y-102077761D01*
X138696095Y-102029380D01*
X138599333Y-102029380D01*
X138502571Y-102077761D01*
X138454190Y-102126142D01*
X138405809Y-102222904D01*
X138357428Y-102416428D01*
X138309047Y-102513190D01*
X138260666Y-102561571D01*
X138163904Y-102609952D01*
X138067142Y-102609952D01*
X137970380Y-102561571D01*
X137922000Y-102513190D01*
X137873619Y-102416428D01*
X137873619Y-102174523D01*
X137922000Y-102029380D01*
X137873619Y-101739095D02*
X137873619Y-101158523D01*
X138889619Y-101448809D02*
X137873619Y-101448809D01*
X138357428Y-100819857D02*
X138357428Y-100481190D01*
X138889619Y-100336047D02*
X138889619Y-100819857D01*
X137873619Y-100819857D01*
X137873619Y-100336047D01*
X138889619Y-99900619D02*
X137873619Y-99900619D01*
X137873619Y-99513571D01*
X137922000Y-99416809D01*
X137970380Y-99368428D01*
X138067142Y-99320047D01*
X138212285Y-99320047D01*
X138309047Y-99368428D01*
X138357428Y-99416809D01*
X138405809Y-99513571D01*
X138405809Y-99900619D01*
X141429619Y-101981000D02*
X140413619Y-101981000D01*
X140413619Y-101739095D01*
X140462000Y-101593952D01*
X140558761Y-101497190D01*
X140655523Y-101448809D01*
X140849047Y-101400428D01*
X140994190Y-101400428D01*
X141187714Y-101448809D01*
X141284476Y-101497190D01*
X141381238Y-101593952D01*
X141429619Y-101739095D01*
X141429619Y-101981000D01*
X141429619Y-100965000D02*
X140413619Y-100965000D01*
X141429619Y-99900619D02*
X140945809Y-100239285D01*
X141429619Y-100481190D02*
X140413619Y-100481190D01*
X140413619Y-100094142D01*
X140462000Y-99997380D01*
X140510380Y-99949000D01*
X140607142Y-99900619D01*
X140752285Y-99900619D01*
X140849047Y-99949000D01*
X140897428Y-99997380D01*
X140945809Y-100094142D01*
X140945809Y-100481190D01*
X85737095Y-106456238D02*
X85882238Y-106504619D01*
X86124142Y-106504619D01*
X86220904Y-106456238D01*
X86269285Y-106407857D01*
X86317666Y-106311095D01*
X86317666Y-106214333D01*
X86269285Y-106117571D01*
X86220904Y-106069190D01*
X86124142Y-106020809D01*
X85930619Y-105972428D01*
X85833857Y-105924047D01*
X85785476Y-105875666D01*
X85737095Y-105778904D01*
X85737095Y-105682142D01*
X85785476Y-105585380D01*
X85833857Y-105537000D01*
X85930619Y-105488619D01*
X86172523Y-105488619D01*
X86317666Y-105537000D01*
X86704714Y-106456238D02*
X86849857Y-106504619D01*
X87091761Y-106504619D01*
X87188523Y-106456238D01*
X87236904Y-106407857D01*
X87285285Y-106311095D01*
X87285285Y-106214333D01*
X87236904Y-106117571D01*
X87188523Y-106069190D01*
X87091761Y-106020809D01*
X86898238Y-105972428D01*
X86801476Y-105924047D01*
X86753095Y-105875666D01*
X86704714Y-105778904D01*
X86704714Y-105682142D01*
X86753095Y-105585380D01*
X86801476Y-105537000D01*
X86898238Y-105488619D01*
X87140142Y-105488619D01*
X87285285Y-105537000D01*
X87623952Y-105488619D02*
X88252904Y-105488619D01*
X87914238Y-105875666D01*
X88059380Y-105875666D01*
X88156142Y-105924047D01*
X88204523Y-105972428D01*
X88252904Y-106069190D01*
X88252904Y-106311095D01*
X88204523Y-106407857D01*
X88156142Y-106456238D01*
X88059380Y-106504619D01*
X87769095Y-106504619D01*
X87672333Y-106456238D01*
X87623952Y-106407857D01*
X107442000Y-96659095D02*
X107393619Y-96755857D01*
X107393619Y-96901000D01*
X107442000Y-97046142D01*
X107538761Y-97142904D01*
X107635523Y-97191285D01*
X107829047Y-97239666D01*
X107974190Y-97239666D01*
X108167714Y-97191285D01*
X108264476Y-97142904D01*
X108361238Y-97046142D01*
X108409619Y-96901000D01*
X108409619Y-96804238D01*
X108361238Y-96659095D01*
X108312857Y-96610714D01*
X107974190Y-96610714D01*
X107974190Y-96804238D01*
X108409619Y-96175285D02*
X107393619Y-96175285D01*
X108409619Y-95594714D01*
X107393619Y-95594714D01*
X108409619Y-95110904D02*
X107393619Y-95110904D01*
X107393619Y-94869000D01*
X107442000Y-94723857D01*
X107538761Y-94627095D01*
X107635523Y-94578714D01*
X107829047Y-94530333D01*
X107974190Y-94530333D01*
X108167714Y-94578714D01*
X108264476Y-94627095D01*
X108361238Y-94723857D01*
X108409619Y-94869000D01*
X108409619Y-95110904D01*
X104853619Y-96997761D02*
X105869619Y-96659095D01*
X104853619Y-96320428D01*
X105869619Y-95981761D02*
X104853619Y-95981761D01*
X104853619Y-95304428D02*
X104853619Y-95110904D01*
X104902000Y-95014142D01*
X104998761Y-94917380D01*
X105192285Y-94869000D01*
X105530952Y-94869000D01*
X105724476Y-94917380D01*
X105821238Y-95014142D01*
X105869619Y-95110904D01*
X105869619Y-95304428D01*
X105821238Y-95401190D01*
X105724476Y-95497952D01*
X105530952Y-95546333D01*
X105192285Y-95546333D01*
X104998761Y-95497952D01*
X104902000Y-95401190D01*
X104853619Y-95304428D01*
X103329619Y-97215476D02*
X102313619Y-97215476D01*
X103039333Y-96876809D01*
X102313619Y-96538142D01*
X103329619Y-96538142D01*
X103329619Y-95522142D02*
X103329619Y-96102714D01*
X103329619Y-95812428D02*
X102313619Y-95812428D01*
X102458761Y-95909190D01*
X102555523Y-96005952D01*
X102603904Y-96102714D01*
X102797428Y-94748047D02*
X102845809Y-94602904D01*
X102894190Y-94554523D01*
X102990952Y-94506142D01*
X103136095Y-94506142D01*
X103232857Y-94554523D01*
X103281238Y-94602904D01*
X103329619Y-94699666D01*
X103329619Y-95086714D01*
X102313619Y-95086714D01*
X102313619Y-94748047D01*
X102362000Y-94651285D01*
X102410380Y-94602904D01*
X102507142Y-94554523D01*
X102603904Y-94554523D01*
X102700666Y-94602904D01*
X102749047Y-94651285D01*
X102797428Y-94748047D01*
X102797428Y-95086714D01*
X100789619Y-97142904D02*
X99773619Y-97142904D01*
X100499333Y-96804238D01*
X99773619Y-96465571D01*
X100789619Y-96465571D01*
X100789619Y-95449571D02*
X100789619Y-96030142D01*
X100789619Y-95739857D02*
X99773619Y-95739857D01*
X99918761Y-95836619D01*
X100015523Y-95933380D01*
X100063904Y-96030142D01*
X100499333Y-95062523D02*
X100499333Y-94578714D01*
X100789619Y-95159285D02*
X99773619Y-94820619D01*
X100789619Y-94481952D01*
X98249619Y-97142904D02*
X97233619Y-97142904D01*
X97959333Y-96804238D01*
X97233619Y-96465571D01*
X98249619Y-96465571D01*
X97330380Y-96030142D02*
X97282000Y-95981761D01*
X97233619Y-95885000D01*
X97233619Y-95643095D01*
X97282000Y-95546333D01*
X97330380Y-95497952D01*
X97427142Y-95449571D01*
X97523904Y-95449571D01*
X97669047Y-95497952D01*
X98249619Y-96078523D01*
X98249619Y-95449571D01*
X97959333Y-95062523D02*
X97959333Y-94578714D01*
X98249619Y-95159285D02*
X97233619Y-94820619D01*
X98249619Y-94481952D01*
X95709619Y-97215476D02*
X94693619Y-97215476D01*
X95419333Y-96876809D01*
X94693619Y-96538142D01*
X95709619Y-96538142D01*
X94790380Y-96102714D02*
X94742000Y-96054333D01*
X94693619Y-95957571D01*
X94693619Y-95715666D01*
X94742000Y-95618904D01*
X94790380Y-95570523D01*
X94887142Y-95522142D01*
X94983904Y-95522142D01*
X95129047Y-95570523D01*
X95709619Y-96151095D01*
X95709619Y-95522142D01*
X95177428Y-94748047D02*
X95225809Y-94602904D01*
X95274190Y-94554523D01*
X95370952Y-94506142D01*
X95516095Y-94506142D01*
X95612857Y-94554523D01*
X95661238Y-94602904D01*
X95709619Y-94699666D01*
X95709619Y-95086714D01*
X94693619Y-95086714D01*
X94693619Y-94748047D01*
X94742000Y-94651285D01*
X94790380Y-94602904D01*
X94887142Y-94554523D01*
X94983904Y-94554523D01*
X95080666Y-94602904D01*
X95129047Y-94651285D01*
X95177428Y-94748047D01*
X95177428Y-95086714D01*
X92202000Y-96659095D02*
X92153619Y-96755857D01*
X92153619Y-96901000D01*
X92202000Y-97046142D01*
X92298761Y-97142904D01*
X92395523Y-97191285D01*
X92589047Y-97239666D01*
X92734190Y-97239666D01*
X92927714Y-97191285D01*
X93024476Y-97142904D01*
X93121238Y-97046142D01*
X93169619Y-96901000D01*
X93169619Y-96804238D01*
X93121238Y-96659095D01*
X93072857Y-96610714D01*
X92734190Y-96610714D01*
X92734190Y-96804238D01*
X93169619Y-96175285D02*
X92153619Y-96175285D01*
X93169619Y-95594714D01*
X92153619Y-95594714D01*
X93169619Y-95110904D02*
X92153619Y-95110904D01*
X92153619Y-94869000D01*
X92202000Y-94723857D01*
X92298761Y-94627095D01*
X92395523Y-94578714D01*
X92589047Y-94530333D01*
X92734190Y-94530333D01*
X92927714Y-94578714D01*
X93024476Y-94627095D01*
X93121238Y-94723857D01*
X93169619Y-94869000D01*
X93169619Y-95110904D01*
X89613619Y-96804238D02*
X90629619Y-96465571D01*
X89613619Y-96126904D01*
X90629619Y-95788238D02*
X89613619Y-95788238D01*
X90339333Y-95449571D01*
X89613619Y-95110904D01*
X90629619Y-95110904D01*
D13*
X90115571Y-101527428D02*
X90115571Y-101273428D01*
X90514714Y-101164571D02*
X90514714Y-101527428D01*
X89752714Y-101527428D01*
X89752714Y-101164571D01*
X90514714Y-100838000D02*
X89752714Y-100838000D01*
X90514714Y-100402571D01*
X89752714Y-100402571D01*
D11*
X93169619Y-102561571D02*
X92153619Y-102561571D01*
X92879333Y-102222904D01*
X92153619Y-101884238D01*
X93169619Y-101884238D01*
X92153619Y-101206904D02*
X92153619Y-101013380D01*
X92202000Y-100916619D01*
X92298761Y-100819857D01*
X92492285Y-100771476D01*
X92830952Y-100771476D01*
X93024476Y-100819857D01*
X93121238Y-100916619D01*
X93169619Y-101013380D01*
X93169619Y-101206904D01*
X93121238Y-101303666D01*
X93024476Y-101400428D01*
X92830952Y-101448809D01*
X92492285Y-101448809D01*
X92298761Y-101400428D01*
X92202000Y-101303666D01*
X92153619Y-101206904D01*
X93121238Y-100384428D02*
X93169619Y-100239285D01*
X93169619Y-99997380D01*
X93121238Y-99900619D01*
X93072857Y-99852238D01*
X92976095Y-99803857D01*
X92879333Y-99803857D01*
X92782571Y-99852238D01*
X92734190Y-99900619D01*
X92685809Y-99997380D01*
X92637428Y-100190904D01*
X92589047Y-100287666D01*
X92540666Y-100336047D01*
X92443904Y-100384428D01*
X92347142Y-100384428D01*
X92250380Y-100336047D01*
X92202000Y-100287666D01*
X92153619Y-100190904D01*
X92153619Y-99949000D01*
X92202000Y-99803857D01*
X93169619Y-99368428D02*
X92153619Y-99368428D01*
X95661238Y-102271285D02*
X95709619Y-102126142D01*
X95709619Y-101884238D01*
X95661238Y-101787476D01*
X95612857Y-101739095D01*
X95516095Y-101690714D01*
X95419333Y-101690714D01*
X95322571Y-101739095D01*
X95274190Y-101787476D01*
X95225809Y-101884238D01*
X95177428Y-102077761D01*
X95129047Y-102174523D01*
X95080666Y-102222904D01*
X94983904Y-102271285D01*
X94887142Y-102271285D01*
X94790380Y-102222904D01*
X94742000Y-102174523D01*
X94693619Y-102077761D01*
X94693619Y-101835857D01*
X94742000Y-101690714D01*
X95612857Y-100674714D02*
X95661238Y-100723095D01*
X95709619Y-100868238D01*
X95709619Y-100965000D01*
X95661238Y-101110142D01*
X95564476Y-101206904D01*
X95467714Y-101255285D01*
X95274190Y-101303666D01*
X95129047Y-101303666D01*
X94935523Y-101255285D01*
X94838761Y-101206904D01*
X94742000Y-101110142D01*
X94693619Y-100965000D01*
X94693619Y-100868238D01*
X94742000Y-100723095D01*
X94790380Y-100674714D01*
X95709619Y-100239285D02*
X94693619Y-100239285D01*
X95709619Y-99658714D02*
X95129047Y-100094142D01*
X94693619Y-99658714D02*
X95274190Y-100239285D01*
X98152857Y-101134333D02*
X98201238Y-101182714D01*
X98249619Y-101327857D01*
X98249619Y-101424619D01*
X98201238Y-101569761D01*
X98104476Y-101666523D01*
X98007714Y-101714904D01*
X97814190Y-101763285D01*
X97669047Y-101763285D01*
X97475523Y-101714904D01*
X97378761Y-101666523D01*
X97282000Y-101569761D01*
X97233619Y-101424619D01*
X97233619Y-101327857D01*
X97282000Y-101182714D01*
X97330380Y-101134333D01*
X98201238Y-100747285D02*
X98249619Y-100602142D01*
X98249619Y-100360238D01*
X98201238Y-100263476D01*
X98152857Y-100215095D01*
X98056095Y-100166714D01*
X97959333Y-100166714D01*
X97862571Y-100215095D01*
X97814190Y-100263476D01*
X97765809Y-100360238D01*
X97717428Y-100553761D01*
X97669047Y-100650523D01*
X97620666Y-100698904D01*
X97523904Y-100747285D01*
X97427142Y-100747285D01*
X97330380Y-100698904D01*
X97282000Y-100650523D01*
X97233619Y-100553761D01*
X97233619Y-100311857D01*
X97282000Y-100166714D01*
X100789619Y-102561571D02*
X99773619Y-102561571D01*
X100499333Y-102222904D01*
X99773619Y-101884238D01*
X100789619Y-101884238D01*
X100789619Y-101400428D02*
X99773619Y-101400428D01*
X100741238Y-100965000D02*
X100789619Y-100819857D01*
X100789619Y-100577952D01*
X100741238Y-100481190D01*
X100692857Y-100432809D01*
X100596095Y-100384428D01*
X100499333Y-100384428D01*
X100402571Y-100432809D01*
X100354190Y-100481190D01*
X100305809Y-100577952D01*
X100257428Y-100771476D01*
X100209047Y-100868238D01*
X100160666Y-100916619D01*
X100063904Y-100965000D01*
X99967142Y-100965000D01*
X99870380Y-100916619D01*
X99822000Y-100868238D01*
X99773619Y-100771476D01*
X99773619Y-100529571D01*
X99822000Y-100384428D01*
X99773619Y-99755476D02*
X99773619Y-99561952D01*
X99822000Y-99465190D01*
X99918761Y-99368428D01*
X100112285Y-99320047D01*
X100450952Y-99320047D01*
X100644476Y-99368428D01*
X100741238Y-99465190D01*
X100789619Y-99561952D01*
X100789619Y-99755476D01*
X100741238Y-99852238D01*
X100644476Y-99949000D01*
X100450952Y-99997380D01*
X100112285Y-99997380D01*
X99918761Y-99949000D01*
X99822000Y-99852238D01*
X99773619Y-99755476D01*
X103329619Y-101763285D02*
X102313619Y-101763285D01*
X103329619Y-101182714D01*
X102313619Y-101182714D01*
X103232857Y-100118333D02*
X103281238Y-100166714D01*
X103329619Y-100311857D01*
X103329619Y-100408619D01*
X103281238Y-100553761D01*
X103184476Y-100650523D01*
X103087714Y-100698904D01*
X102894190Y-100747285D01*
X102749047Y-100747285D01*
X102555523Y-100698904D01*
X102458761Y-100650523D01*
X102362000Y-100553761D01*
X102313619Y-100408619D01*
X102313619Y-100311857D01*
X102362000Y-100166714D01*
X102410380Y-100118333D01*
X105821238Y-102609952D02*
X105869619Y-102464809D01*
X105869619Y-102222904D01*
X105821238Y-102126142D01*
X105772857Y-102077761D01*
X105676095Y-102029380D01*
X105579333Y-102029380D01*
X105482571Y-102077761D01*
X105434190Y-102126142D01*
X105385809Y-102222904D01*
X105337428Y-102416428D01*
X105289047Y-102513190D01*
X105240666Y-102561571D01*
X105143904Y-102609952D01*
X105047142Y-102609952D01*
X104950380Y-102561571D01*
X104902000Y-102513190D01*
X104853619Y-102416428D01*
X104853619Y-102174523D01*
X104902000Y-102029380D01*
X104853619Y-101739095D02*
X104853619Y-101158523D01*
X105869619Y-101448809D02*
X104853619Y-101448809D01*
X105337428Y-100819857D02*
X105337428Y-100481190D01*
X105869619Y-100336047D02*
X105869619Y-100819857D01*
X104853619Y-100819857D01*
X104853619Y-100336047D01*
X105869619Y-99900619D02*
X104853619Y-99900619D01*
X104853619Y-99513571D01*
X104902000Y-99416809D01*
X104950380Y-99368428D01*
X105047142Y-99320047D01*
X105192285Y-99320047D01*
X105289047Y-99368428D01*
X105337428Y-99416809D01*
X105385809Y-99513571D01*
X105385809Y-99900619D01*
X108409619Y-101981000D02*
X107393619Y-101981000D01*
X107393619Y-101739095D01*
X107442000Y-101593952D01*
X107538761Y-101497190D01*
X107635523Y-101448809D01*
X107829047Y-101400428D01*
X107974190Y-101400428D01*
X108167714Y-101448809D01*
X108264476Y-101497190D01*
X108361238Y-101593952D01*
X108409619Y-101739095D01*
X108409619Y-101981000D01*
X108409619Y-100965000D02*
X107393619Y-100965000D01*
X108409619Y-99900619D02*
X107925809Y-100239285D01*
X108409619Y-100481190D02*
X107393619Y-100481190D01*
X107393619Y-100094142D01*
X107442000Y-99997380D01*
X107490380Y-99949000D01*
X107587142Y-99900619D01*
X107732285Y-99900619D01*
X107829047Y-99949000D01*
X107877428Y-99997380D01*
X107925809Y-100094142D01*
X107925809Y-100481190D01*
X151595666Y-92437857D02*
X151547285Y-92486238D01*
X151402142Y-92534619D01*
X151305380Y-92534619D01*
X151160238Y-92486238D01*
X151063476Y-92389476D01*
X151015095Y-92292714D01*
X150966714Y-92099190D01*
X150966714Y-91954047D01*
X151015095Y-91760523D01*
X151063476Y-91663761D01*
X151160238Y-91567000D01*
X151305380Y-91518619D01*
X151402142Y-91518619D01*
X151547285Y-91567000D01*
X151595666Y-91615380D01*
X151934333Y-91518619D02*
X152563285Y-91518619D01*
X152224619Y-91905666D01*
X152369761Y-91905666D01*
X152466523Y-91954047D01*
X152514904Y-92002428D01*
X152563285Y-92099190D01*
X152563285Y-92341095D01*
X152514904Y-92437857D01*
X152466523Y-92486238D01*
X152369761Y-92534619D01*
X152079476Y-92534619D01*
X151982714Y-92486238D01*
X151934333Y-92437857D01*
D17*
X146157142Y-95821428D02*
X146157142Y-94678571D01*
X146728571Y-95250000D02*
X145585714Y-95250000D01*
D11*
X118575666Y-92437857D02*
X118527285Y-92486238D01*
X118382142Y-92534619D01*
X118285380Y-92534619D01*
X118140238Y-92486238D01*
X118043476Y-92389476D01*
X117995095Y-92292714D01*
X117946714Y-92099190D01*
X117946714Y-91954047D01*
X117995095Y-91760523D01*
X118043476Y-91663761D01*
X118140238Y-91567000D01*
X118285380Y-91518619D01*
X118382142Y-91518619D01*
X118527285Y-91567000D01*
X118575666Y-91615380D01*
X119446523Y-91518619D02*
X119253000Y-91518619D01*
X119156238Y-91567000D01*
X119107857Y-91615380D01*
X119011095Y-91760523D01*
X118962714Y-91954047D01*
X118962714Y-92341095D01*
X119011095Y-92437857D01*
X119059476Y-92486238D01*
X119156238Y-92534619D01*
X119349761Y-92534619D01*
X119446523Y-92486238D01*
X119494904Y-92437857D01*
X119543285Y-92341095D01*
X119543285Y-92099190D01*
X119494904Y-92002428D01*
X119446523Y-91954047D01*
X119349761Y-91905666D01*
X119156238Y-91905666D01*
X119059476Y-91954047D01*
X119011095Y-92002428D01*
X118962714Y-92099190D01*
D17*
X113137142Y-95821428D02*
X113137142Y-94678571D01*
X113708571Y-95250000D02*
X112565714Y-95250000D01*
D11*
X85555666Y-92437857D02*
X85507285Y-92486238D01*
X85362142Y-92534619D01*
X85265380Y-92534619D01*
X85120238Y-92486238D01*
X85023476Y-92389476D01*
X84975095Y-92292714D01*
X84926714Y-92099190D01*
X84926714Y-91954047D01*
X84975095Y-91760523D01*
X85023476Y-91663761D01*
X85120238Y-91567000D01*
X85265380Y-91518619D01*
X85362142Y-91518619D01*
X85507285Y-91567000D01*
X85555666Y-91615380D01*
X86039476Y-92534619D02*
X86233000Y-92534619D01*
X86329761Y-92486238D01*
X86378142Y-92437857D01*
X86474904Y-92292714D01*
X86523285Y-92099190D01*
X86523285Y-91712142D01*
X86474904Y-91615380D01*
X86426523Y-91567000D01*
X86329761Y-91518619D01*
X86136238Y-91518619D01*
X86039476Y-91567000D01*
X85991095Y-91615380D01*
X85942714Y-91712142D01*
X85942714Y-91954047D01*
X85991095Y-92050809D01*
X86039476Y-92099190D01*
X86136238Y-92147571D01*
X86329761Y-92147571D01*
X86426523Y-92099190D01*
X86474904Y-92050809D01*
X86523285Y-91954047D01*
D17*
X80117142Y-95821428D02*
X80117142Y-94678571D01*
X80688571Y-95250000D02*
X79545714Y-95250000D01*
D11*
X189115095Y-112219619D02*
X189115095Y-111203619D01*
X189502142Y-111203619D01*
X189598904Y-111252000D01*
X189647285Y-111300380D01*
X189695666Y-111397142D01*
X189695666Y-111542285D01*
X189647285Y-111639047D01*
X189598904Y-111687428D01*
X189502142Y-111735809D01*
X189115095Y-111735809D01*
X190663285Y-112219619D02*
X190082714Y-112219619D01*
X190373000Y-112219619D02*
X190373000Y-111203619D01*
X190276238Y-111348761D01*
X190179476Y-111445523D01*
X190082714Y-111493904D01*
X175120904Y-88978619D02*
X175701476Y-88978619D01*
X175411190Y-89994619D02*
X175411190Y-88978619D01*
X176572333Y-89994619D02*
X175991761Y-89994619D01*
X176282047Y-89994619D02*
X176282047Y-88978619D01*
X176185285Y-89123761D01*
X176088523Y-89220523D01*
X175991761Y-89268904D01*
X172580904Y-127713619D02*
X173161476Y-127713619D01*
X172871190Y-128729619D02*
X172871190Y-127713619D01*
X173451761Y-127810380D02*
X173500142Y-127762000D01*
X173596904Y-127713619D01*
X173838809Y-127713619D01*
X173935571Y-127762000D01*
X173983952Y-127810380D01*
X174032333Y-127907142D01*
X174032333Y-128003904D01*
X173983952Y-128149047D01*
X173403380Y-128729619D01*
X174032333Y-128729619D01*
X142100904Y-88978619D02*
X142681476Y-88978619D01*
X142391190Y-89994619D02*
X142391190Y-88978619D01*
X142923380Y-88978619D02*
X143552333Y-88978619D01*
X143213666Y-89365666D01*
X143358809Y-89365666D01*
X143455571Y-89414047D01*
X143503952Y-89462428D01*
X143552333Y-89559190D01*
X143552333Y-89801095D01*
X143503952Y-89897857D01*
X143455571Y-89946238D01*
X143358809Y-89994619D01*
X143068523Y-89994619D01*
X142971761Y-89946238D01*
X142923380Y-89897857D01*
X139560904Y-127713619D02*
X140141476Y-127713619D01*
X139851190Y-128729619D02*
X139851190Y-127713619D01*
X140915571Y-128052285D02*
X140915571Y-128729619D01*
X140673666Y-127665238D02*
X140431761Y-128390952D01*
X141060714Y-128390952D01*
X109080904Y-88978619D02*
X109661476Y-88978619D01*
X109371190Y-89994619D02*
X109371190Y-88978619D01*
X110483952Y-88978619D02*
X110000142Y-88978619D01*
X109951761Y-89462428D01*
X110000142Y-89414047D01*
X110096904Y-89365666D01*
X110338809Y-89365666D01*
X110435571Y-89414047D01*
X110483952Y-89462428D01*
X110532333Y-89559190D01*
X110532333Y-89801095D01*
X110483952Y-89897857D01*
X110435571Y-89946238D01*
X110338809Y-89994619D01*
X110096904Y-89994619D01*
X110000142Y-89946238D01*
X109951761Y-89897857D01*
X106540904Y-127713619D02*
X107121476Y-127713619D01*
X106831190Y-128729619D02*
X106831190Y-127713619D01*
X107895571Y-127713619D02*
X107702047Y-127713619D01*
X107605285Y-127762000D01*
X107556904Y-127810380D01*
X107460142Y-127955523D01*
X107411761Y-128149047D01*
X107411761Y-128536095D01*
X107460142Y-128632857D01*
X107508523Y-128681238D01*
X107605285Y-128729619D01*
X107798809Y-128729619D01*
X107895571Y-128681238D01*
X107943952Y-128632857D01*
X107992333Y-128536095D01*
X107992333Y-128294190D01*
X107943952Y-128197428D01*
X107895571Y-128149047D01*
X107798809Y-128100666D01*
X107605285Y-128100666D01*
X107508523Y-128149047D01*
X107460142Y-128197428D01*
X107411761Y-128294190D01*
%LPC*%
D18*
X173990000Y-104775000D03*
X171450000Y-104775000D03*
X168910000Y-104775000D03*
X166370000Y-104775000D03*
X163830000Y-104775000D03*
X161290000Y-104775000D03*
X158750000Y-104775000D03*
X156210000Y-104775000D03*
X156210000Y-92075000D03*
X158750000Y-92075000D03*
X161290000Y-92075000D03*
X163830000Y-92075000D03*
X166370000Y-92075000D03*
X168910000Y-92075000D03*
X171450000Y-92075000D03*
X173990000Y-92075000D03*
X140970000Y-104775000D03*
X138430000Y-104775000D03*
X135890000Y-104775000D03*
X133350000Y-104775000D03*
X130810000Y-104775000D03*
X128270000Y-104775000D03*
X125730000Y-104775000D03*
X123190000Y-104775000D03*
X123190000Y-92075000D03*
X125730000Y-92075000D03*
X128270000Y-92075000D03*
X130810000Y-92075000D03*
X133350000Y-92075000D03*
X135890000Y-92075000D03*
X138430000Y-92075000D03*
X140970000Y-92075000D03*
X107950000Y-104775000D03*
X105410000Y-104775000D03*
X102870000Y-104775000D03*
X100330000Y-104775000D03*
X97790000Y-104775000D03*
X95250000Y-104775000D03*
X92710000Y-104775000D03*
X90170000Y-104775000D03*
X90170000Y-92075000D03*
X92710000Y-92075000D03*
X95250000Y-92075000D03*
X97790000Y-92075000D03*
X100330000Y-92075000D03*
X102870000Y-92075000D03*
X105410000Y-92075000D03*
X107950000Y-92075000D03*
D19*
X148590000Y-102775000D03*
X148590000Y-94075000D03*
X115570000Y-102775000D03*
X115570000Y-94075000D03*
X82550000Y-102775000D03*
X82550000Y-94075000D03*
D20*
X133350000Y-74930000D03*
X130810000Y-74930000D03*
X128270000Y-74930000D03*
X125730000Y-74930000D03*
X123190000Y-74930000D03*
X120650000Y-74930000D03*
X118110000Y-74930000D03*
X115570000Y-74930000D03*
X113030000Y-74930000D03*
X133350000Y-135890000D03*
X130810000Y-135890000D03*
X128270000Y-135890000D03*
X125730000Y-135890000D03*
X123190000Y-135890000D03*
X120650000Y-135890000D03*
X118110000Y-135890000D03*
X115570000Y-135890000D03*
X113030000Y-135890000D03*
D21*
X165100000Y-74930000D03*
X165100000Y-135890000D03*
X73660000Y-130810000D03*
X73660000Y-80010000D03*
D20*
X72390000Y-135890000D03*
X74930000Y-135890000D03*
X77470000Y-135890000D03*
X80010000Y-135890000D03*
X82550000Y-135890000D03*
X85090000Y-135890000D03*
X87630000Y-135890000D03*
X90170000Y-135890000D03*
X92710000Y-135890000D03*
X95250000Y-135890000D03*
X97790000Y-135890000D03*
X100330000Y-135890000D03*
X102870000Y-135890000D03*
X105410000Y-135890000D03*
X107950000Y-135890000D03*
X110490000Y-135890000D03*
X110490000Y-74930000D03*
X107950000Y-74930000D03*
X105410000Y-74930000D03*
X102870000Y-74930000D03*
X100330000Y-74930000D03*
X97790000Y-74930000D03*
X95250000Y-74930000D03*
X92710000Y-74930000D03*
X90170000Y-74930000D03*
X87630000Y-74930000D03*
X85090000Y-74930000D03*
X82550000Y-74930000D03*
X80010000Y-74930000D03*
D22*
X72390000Y-74930000D03*
D20*
X77470000Y-74930000D03*
X74930000Y-74930000D03*
D23*
X188137800Y-105410000D03*
D24*
X184632600Y-105410000D03*
D25*
X179146200Y-105410000D03*
D26*
X186131200Y-100914200D03*
X186131200Y-109905800D03*
D27*
X167640000Y-84455000D03*
X162560000Y-84455000D03*
X157480000Y-84455000D03*
X172720000Y-84455000D03*
D28*
X170815000Y-123825000D03*
X159385000Y-123825000D03*
X163195000Y-123825000D03*
X167005000Y-123825000D03*
D27*
X139700000Y-84455000D03*
X124460000Y-84455000D03*
X129540000Y-84455000D03*
X134620000Y-84455000D03*
D28*
X133985000Y-123825000D03*
X130175000Y-123825000D03*
X126365000Y-123825000D03*
X137795000Y-123825000D03*
D27*
X101600000Y-84455000D03*
X96520000Y-84455000D03*
X91440000Y-84455000D03*
X106680000Y-84455000D03*
D28*
X100965000Y-123825000D03*
X97155000Y-123825000D03*
X93345000Y-123825000D03*
X104775000Y-123825000D03*
D29*
X115570000Y-115570000D03*
M02*
