G04 #@! TF.GenerationSoftware,KiCad,Pcbnew,no-vcs-found-1466d0c~58~ubuntu16.04.1*
G04 #@! TF.CreationDate,2017-06-19T16:09:28-04:00*
G04 #@! TF.ProjectId,stepper_controller_5x3,737465707065725F636F6E74726F6C6C,1.0*
G04 #@! TF.SameCoordinates,Original
G04 #@! TF.FileFunction,Copper,L2,Bot,Signal*
G04 #@! TF.FilePolarity,Positive*
%FSLAX46Y46*%
G04 Gerber Fmt 4.6, Leading zero omitted, Abs format (unit mm)*
G04 Created by KiCad (PCBNEW no-vcs-found-1466d0c~58~ubuntu16.04.1) date Mon Jun 19 16:09:28 2017*
%MOMM*%
%LPD*%
G01*
G04 APERTURE LIST*
%ADD10C,0.100000*%
%ADD11C,0.228600*%
%ADD12O,2.032000X3.048000*%
%ADD13O,1.854200X2.540000*%
%ADD14C,3.556000*%
%ADD15R,1.854200X2.540000*%
%ADD16R,2.540000X1.270000*%
%ADD17R,1.270000X2.540000*%
%ADD18R,1.800000X2.000000*%
%ADD19R,3.800000X4.960000*%
%ADD20R,1.600000X1.440000*%
%ADD21C,1.930400*%
%ADD22O,4.572000X3.556000*%
%ADD23O,4.064000X5.080000*%
%ADD24O,5.080000X3.556000*%
%ADD25C,2.540000*%
%ADD26C,2.340000*%
%ADD27R,2.000000X0.250000*%
%ADD28R,0.250000X2.000000*%
%ADD29R,3.400000X3.400000*%
%ADD30R,0.558800X1.330960*%
%ADD31C,0.889000*%
%ADD32C,0.304800*%
%ADD33C,1.270000*%
%ADD34C,0.203200*%
G04 APERTURE END LIST*
D10*
D11*
X191135000Y-71755000D02*
X69850000Y-71755000D01*
X191135000Y-139065000D02*
X191135000Y-71755000D01*
X69850000Y-139065000D02*
X191135000Y-139065000D01*
X69850000Y-71755000D02*
X69850000Y-139065000D01*
D12*
X173990000Y-104775000D03*
X171450000Y-104775000D03*
X168910000Y-104775000D03*
X166370000Y-104775000D03*
X163830000Y-104775000D03*
X161290000Y-104775000D03*
X158750000Y-104775000D03*
X156210000Y-104775000D03*
X156210000Y-92075000D03*
X158750000Y-92075000D03*
X161290000Y-92075000D03*
X163830000Y-92075000D03*
X166370000Y-92075000D03*
X168910000Y-92075000D03*
X171450000Y-92075000D03*
X173990000Y-92075000D03*
X140970000Y-104775000D03*
X138430000Y-104775000D03*
X135890000Y-104775000D03*
X133350000Y-104775000D03*
X130810000Y-104775000D03*
X128270000Y-104775000D03*
X125730000Y-104775000D03*
X123190000Y-104775000D03*
X123190000Y-92075000D03*
X125730000Y-92075000D03*
X128270000Y-92075000D03*
X130810000Y-92075000D03*
X133350000Y-92075000D03*
X135890000Y-92075000D03*
X138430000Y-92075000D03*
X140970000Y-92075000D03*
X107950000Y-104775000D03*
X105410000Y-104775000D03*
X102870000Y-104775000D03*
X100330000Y-104775000D03*
X97790000Y-104775000D03*
X95250000Y-104775000D03*
X92710000Y-104775000D03*
X90170000Y-104775000D03*
X90170000Y-92075000D03*
X92710000Y-92075000D03*
X95250000Y-92075000D03*
X97790000Y-92075000D03*
X100330000Y-92075000D03*
X102870000Y-92075000D03*
X105410000Y-92075000D03*
X107950000Y-92075000D03*
D13*
X133350000Y-74930000D03*
X130810000Y-74930000D03*
X128270000Y-74930000D03*
X125730000Y-74930000D03*
X123190000Y-74930000D03*
X120650000Y-74930000D03*
X118110000Y-74930000D03*
X115570000Y-74930000D03*
X113030000Y-74930000D03*
X133350000Y-135890000D03*
X130810000Y-135890000D03*
X128270000Y-135890000D03*
X125730000Y-135890000D03*
X123190000Y-135890000D03*
X120650000Y-135890000D03*
X118110000Y-135890000D03*
X115570000Y-135890000D03*
X113030000Y-135890000D03*
D14*
X165100000Y-74930000D03*
X165100000Y-135890000D03*
X73660000Y-130810000D03*
X73660000Y-80010000D03*
D13*
X72390000Y-135890000D03*
X74930000Y-135890000D03*
X77470000Y-135890000D03*
X80010000Y-135890000D03*
X82550000Y-135890000D03*
X85090000Y-135890000D03*
X87630000Y-135890000D03*
X90170000Y-135890000D03*
X92710000Y-135890000D03*
X95250000Y-135890000D03*
X97790000Y-135890000D03*
X100330000Y-135890000D03*
X102870000Y-135890000D03*
X105410000Y-135890000D03*
X107950000Y-135890000D03*
X110490000Y-135890000D03*
X110490000Y-74930000D03*
X107950000Y-74930000D03*
X105410000Y-74930000D03*
X102870000Y-74930000D03*
X100330000Y-74930000D03*
X97790000Y-74930000D03*
X95250000Y-74930000D03*
X92710000Y-74930000D03*
X90170000Y-74930000D03*
X87630000Y-74930000D03*
X85090000Y-74930000D03*
X82550000Y-74930000D03*
X80010000Y-74930000D03*
D15*
X72390000Y-74930000D03*
D13*
X77470000Y-74930000D03*
X74930000Y-74930000D03*
D16*
X132715000Y-114046000D03*
X132715000Y-117094000D03*
X107950000Y-114046000D03*
X107950000Y-117094000D03*
D17*
X159004000Y-96520000D03*
X155956000Y-96520000D03*
D16*
X160020000Y-129794000D03*
X160020000Y-126746000D03*
D17*
X125984000Y-96520000D03*
X122936000Y-96520000D03*
D16*
X127000000Y-129794000D03*
X127000000Y-126746000D03*
D17*
X92964000Y-96520000D03*
X89916000Y-96520000D03*
D16*
X93980000Y-129794000D03*
X93980000Y-126746000D03*
D18*
X128270000Y-113470000D03*
X123190000Y-113470000D03*
X123190000Y-117670000D03*
X128270000Y-117670000D03*
D19*
X179070000Y-97405000D03*
D20*
X178005000Y-101205000D03*
X180135000Y-101205000D03*
D21*
X188137800Y-105410000D03*
D22*
X184632600Y-105410000D03*
D23*
X179146200Y-105410000D03*
D24*
X186131200Y-100914200D03*
X186131200Y-109905800D03*
D25*
X167640000Y-84455000D03*
X162560000Y-84455000D03*
X157480000Y-84455000D03*
X172720000Y-84455000D03*
D26*
X170815000Y-123825000D03*
X159385000Y-123825000D03*
X163195000Y-123825000D03*
X167005000Y-123825000D03*
D25*
X139700000Y-84455000D03*
X124460000Y-84455000D03*
X129540000Y-84455000D03*
X134620000Y-84455000D03*
D26*
X133985000Y-123825000D03*
X130175000Y-123825000D03*
X126365000Y-123825000D03*
X137795000Y-123825000D03*
D25*
X101600000Y-84455000D03*
X96520000Y-84455000D03*
X91440000Y-84455000D03*
X106680000Y-84455000D03*
D26*
X100965000Y-123825000D03*
X97155000Y-123825000D03*
X93345000Y-123825000D03*
X104775000Y-123825000D03*
D27*
X112570000Y-113820000D03*
X112570000Y-114320000D03*
X112570000Y-114820000D03*
X112570000Y-115320000D03*
X112570000Y-115820000D03*
X112570000Y-116320000D03*
X112570000Y-116820000D03*
X112570000Y-117320000D03*
X118570000Y-117320000D03*
X118570000Y-116820000D03*
X118570000Y-116320000D03*
X118570000Y-115820000D03*
X118570000Y-115320000D03*
X118570000Y-114820000D03*
X118570000Y-114320000D03*
X118570000Y-113820000D03*
D28*
X113820000Y-118570000D03*
X114320000Y-118570000D03*
X114820000Y-118570000D03*
X115320000Y-118570000D03*
X115820000Y-118570000D03*
X116320000Y-118570000D03*
X116820000Y-118570000D03*
X117320000Y-118570000D03*
X117320000Y-112570000D03*
X116820000Y-112570000D03*
X116320000Y-112570000D03*
X115820000Y-112570000D03*
X115320000Y-112570000D03*
X114820000Y-112570000D03*
X114320000Y-112570000D03*
X113820000Y-112570000D03*
D29*
X115570000Y-115570000D03*
D30*
X164785040Y-129468880D03*
X165735000Y-129468880D03*
X166684960Y-129468880D03*
X166684960Y-127071120D03*
X165735000Y-127071120D03*
X164785040Y-127071120D03*
X131130040Y-127071120D03*
X132080000Y-127071120D03*
X133029960Y-127071120D03*
X133029960Y-129468880D03*
X132080000Y-129468880D03*
X131130040Y-129468880D03*
X98110040Y-127071120D03*
X99060000Y-127071120D03*
X100009960Y-127071120D03*
X100009960Y-129468880D03*
X99060000Y-129468880D03*
X98110040Y-129468880D03*
D31*
X117049600Y-110356900D03*
X115212800Y-108491600D03*
X114307700Y-110624100D03*
X105242600Y-117657800D03*
X114160000Y-120139100D03*
X113169000Y-120146100D03*
X111769200Y-118027600D03*
X101180000Y-126925400D03*
X119879300Y-113209000D03*
X133888800Y-129621800D03*
X112274000Y-121358600D03*
X101320400Y-125555600D03*
X118671700Y-110581400D03*
D32*
X105410000Y-92075000D02*
X105410000Y-93878400D01*
X132715000Y-114046000D02*
X131165600Y-114046000D01*
X112570000Y-115320000D02*
X111290600Y-115320000D01*
X128853800Y-114046000D02*
X128849900Y-114049900D01*
X131165600Y-114046000D02*
X128853800Y-114046000D01*
X162189200Y-130413800D02*
X161569400Y-129794000D01*
X165735000Y-130413800D02*
X162189200Y-130413800D01*
X165735000Y-129941300D02*
X165735000Y-130413800D01*
X165735000Y-129941300D02*
X165735000Y-129468900D01*
X80010000Y-135890000D02*
X81216500Y-135890000D01*
X105410000Y-93878400D02*
X105410000Y-95351500D01*
X93980000Y-129794000D02*
X92430600Y-129794000D01*
X107950000Y-117094000D02*
X107950000Y-116179600D01*
X107800800Y-116179600D02*
X107950000Y-116179600D01*
X106425600Y-114804400D02*
X107800800Y-116179600D01*
X106425600Y-109554900D02*
X106425600Y-114804400D01*
X109237900Y-106742600D02*
X106425600Y-109554900D01*
X109237900Y-99179400D02*
X109237900Y-106742600D01*
X105410000Y-95351500D02*
X109237900Y-99179400D01*
X108809600Y-115320000D02*
X111290600Y-115320000D01*
X107950000Y-116179600D02*
X108809600Y-115320000D01*
X88493000Y-103572400D02*
X88493000Y-129489200D01*
X96713900Y-95351500D02*
X88493000Y-103572400D01*
X105410000Y-95351500D02*
X96713900Y-95351500D01*
X86879800Y-129489200D02*
X88493000Y-129489200D01*
X81216500Y-135152500D02*
X86879800Y-129489200D01*
X81216500Y-135890000D02*
X81216500Y-135152500D01*
X92125800Y-129489200D02*
X92430600Y-129794000D01*
X88493000Y-129489200D02*
X92125800Y-129489200D01*
X132080000Y-129468900D02*
X132080000Y-128591300D01*
X132080000Y-128591300D02*
X132080000Y-128542600D01*
X160794700Y-129794000D02*
X161569400Y-129794000D01*
X128270000Y-114629800D02*
X128270000Y-117670000D01*
X128849900Y-114049900D02*
X128270000Y-114629800D01*
X128270000Y-113470000D02*
X128849900Y-114049900D01*
X125836200Y-112215600D02*
X127090600Y-113470000D01*
X122178800Y-112215600D02*
X125836200Y-112215600D01*
X120256100Y-114138300D02*
X122178800Y-112215600D01*
X120256100Y-114549700D02*
X120256100Y-114138300D01*
X119985800Y-114820000D02*
X120256100Y-114549700D01*
X118570000Y-114820000D02*
X119985800Y-114820000D01*
X128270000Y-113470000D02*
X127090600Y-113470000D01*
X112570000Y-115320000D02*
X112570000Y-114820000D01*
X132715000Y-114046000D02*
X132715000Y-114960400D01*
X160794700Y-129794000D02*
X160020000Y-129794000D01*
X96149200Y-130413800D02*
X95529400Y-129794000D01*
X99060000Y-130413800D02*
X96149200Y-130413800D01*
X93980000Y-129794000D02*
X95529400Y-129794000D01*
X127000000Y-129794000D02*
X128549400Y-129794000D01*
X99060000Y-129468900D02*
X99060000Y-129941300D01*
X99060000Y-129941300D02*
X99060000Y-130413800D01*
X117112200Y-129794000D02*
X127000000Y-129794000D01*
X111760000Y-135146200D02*
X117112200Y-129794000D01*
X111760000Y-136636500D02*
X111760000Y-135146200D01*
X110483300Y-137913200D02*
X111760000Y-136636500D01*
X102817900Y-137913200D02*
X110483300Y-137913200D01*
X101600000Y-136695300D02*
X102817900Y-137913200D01*
X101600000Y-132953800D02*
X101600000Y-136695300D01*
X99060000Y-130413800D02*
X101600000Y-132953800D01*
X132943600Y-114960400D02*
X132715000Y-114960400D01*
X139222200Y-121239000D02*
X132943600Y-114960400D01*
X139222200Y-124462800D02*
X139222200Y-121239000D01*
X135142400Y-128542600D02*
X139222200Y-124462800D01*
X132080000Y-128542600D02*
X135142400Y-128542600D01*
X160020000Y-129794000D02*
X160020000Y-130708400D01*
X159906400Y-130822000D02*
X160020000Y-130708400D01*
X130900000Y-130822000D02*
X159906400Y-130822000D01*
X129673700Y-129595600D02*
X130900000Y-130822000D01*
X130726700Y-128542600D02*
X129673700Y-129595600D01*
X132080000Y-128542600D02*
X130726700Y-128542600D01*
X128747700Y-129595700D02*
X128549400Y-129794000D01*
X129673600Y-129595700D02*
X128747700Y-129595700D01*
X129673700Y-129595600D02*
X129673600Y-129595700D01*
X165496200Y-126126200D02*
X163195000Y-123825000D01*
X165735000Y-126126200D02*
X165496200Y-126126200D01*
X109773400Y-114320000D02*
X109499400Y-114046000D01*
X112570000Y-114320000D02*
X109773400Y-114320000D01*
X107950000Y-114046000D02*
X109499400Y-114046000D01*
X165735000Y-126712900D02*
X165735000Y-126126200D01*
X165735000Y-126712900D02*
X165735000Y-127071100D01*
X92964000Y-96520000D02*
X92964000Y-94970600D01*
X158750000Y-94716600D02*
X159004000Y-94970600D01*
X158750000Y-92075000D02*
X158750000Y-94716600D01*
X159004000Y-96520000D02*
X159004000Y-94970600D01*
X127355600Y-128016000D02*
X127000000Y-127660400D01*
X132080000Y-128016000D02*
X127355600Y-128016000D01*
X132080000Y-127071100D02*
X132080000Y-128016000D01*
X127000000Y-126746000D02*
X127000000Y-127660400D01*
X165735000Y-127071100D02*
X165735000Y-127901700D01*
X160020000Y-126746000D02*
X160020000Y-127660400D01*
X167085700Y-127991000D02*
X165735000Y-127991000D01*
X170815000Y-124261700D02*
X167085700Y-127991000D01*
X170815000Y-123825000D02*
X170815000Y-124261700D01*
X165735000Y-127901700D02*
X165735000Y-127991000D01*
X160350600Y-127991000D02*
X160020000Y-127660400D01*
X165735000Y-127991000D02*
X160350600Y-127991000D01*
X132715000Y-117094000D02*
X132715000Y-118008400D01*
X132715000Y-122400600D02*
X132715000Y-118008400D01*
X136370600Y-122400600D02*
X132715000Y-122400600D01*
X137795000Y-123825000D02*
X136370600Y-122400600D01*
X132715000Y-122400600D02*
X131130200Y-123985400D01*
X130969700Y-123825000D02*
X131130200Y-123985400D01*
X130175000Y-123825000D02*
X130969700Y-123825000D01*
X131764400Y-125810600D02*
X132080000Y-126126200D01*
X131764400Y-124619700D02*
X131764400Y-125810600D01*
X131130200Y-123985400D02*
X131764400Y-124619700D01*
X132080000Y-127071100D02*
X132080000Y-126126200D01*
X92710000Y-94716600D02*
X92710000Y-92075000D01*
X92964000Y-94970600D02*
X92710000Y-94716600D01*
X90793700Y-90271600D02*
X92710000Y-90271600D01*
X76136500Y-75614400D02*
X90793700Y-90271600D01*
X76136500Y-74930000D02*
X76136500Y-75614400D01*
X74930000Y-74930000D02*
X76136500Y-74930000D01*
X92710000Y-92075000D02*
X92710000Y-90271600D01*
X124369400Y-118019400D02*
X130175000Y-123825000D01*
X124369400Y-117670000D02*
X124369400Y-118019400D01*
X123190000Y-117670000D02*
X124369400Y-117670000D01*
X123190000Y-117670000D02*
X122010600Y-117670000D01*
X99060000Y-127475100D02*
X99060000Y-127071100D01*
X98544100Y-127991000D02*
X99060000Y-127475100D01*
X94310600Y-127991000D02*
X98544100Y-127991000D01*
X93980000Y-127660400D02*
X94310600Y-127991000D01*
X93980000Y-126746000D02*
X93980000Y-127660400D01*
X125730000Y-94716600D02*
X125984000Y-94970600D01*
X125730000Y-92075000D02*
X125730000Y-94716600D01*
X125984000Y-96520000D02*
X125984000Y-94970600D01*
X127076200Y-93878400D02*
X125984000Y-94970600D01*
X140970000Y-93878400D02*
X127076200Y-93878400D01*
X140970000Y-92075000D02*
X140970000Y-93878400D01*
X100353700Y-122399800D02*
X98041800Y-124711700D01*
X103349800Y-122399800D02*
X100353700Y-122399800D01*
X104775000Y-123825000D02*
X103349800Y-122399800D01*
X97155000Y-123825000D02*
X98041800Y-124711700D01*
X99060000Y-125730000D02*
X99060000Y-127071100D01*
X98041800Y-124711700D02*
X99060000Y-125730000D01*
X112570000Y-114320000D02*
X113849400Y-114320000D01*
X120660600Y-116320000D02*
X118570000Y-116320000D01*
X122010600Y-117670000D02*
X120660600Y-116320000D01*
X118570000Y-116320000D02*
X117290600Y-116320000D01*
X117290600Y-116320000D02*
X117290600Y-115570000D01*
X117290600Y-115570000D02*
X117290600Y-115320000D01*
X118570000Y-115320000D02*
X117290600Y-115320000D01*
X117290600Y-115570000D02*
X115570000Y-115570000D01*
X114320000Y-114320000D02*
X113849400Y-114320000D01*
X115570000Y-115570000D02*
X114320000Y-114320000D01*
X113849400Y-112599400D02*
X113820000Y-112570000D01*
X113849400Y-114320000D02*
X113849400Y-112599400D01*
X113415600Y-110886200D02*
X113820000Y-111290600D01*
X113415600Y-99344000D02*
X113415600Y-110886200D01*
X107950000Y-93878400D02*
X113415600Y-99344000D01*
X107950000Y-92075000D02*
X107950000Y-93878400D01*
X113820000Y-112570000D02*
X113820000Y-111290600D01*
D33*
X156083000Y-94488000D02*
X155956000Y-94488000D01*
X156210000Y-94361000D02*
X156083000Y-94488000D01*
X156210000Y-92075000D02*
X156210000Y-94361000D01*
X90043000Y-94488000D02*
X89916000Y-94488000D01*
X90170000Y-94361000D02*
X90043000Y-94488000D01*
X90170000Y-92075000D02*
X90170000Y-94361000D01*
X89916000Y-96520000D02*
X89916000Y-94488000D01*
X123063000Y-94488000D02*
X122936000Y-94488000D01*
X123190000Y-94361000D02*
X123063000Y-94488000D01*
X123190000Y-92075000D02*
X123190000Y-94361000D01*
X122936000Y-96520000D02*
X122936000Y-94488000D01*
X155956000Y-95859500D02*
X155956000Y-94488000D01*
X155956000Y-95859500D02*
X155956000Y-96520000D01*
X175236500Y-98576500D02*
X176408000Y-97405000D01*
X158099800Y-98576500D02*
X175236500Y-98576500D01*
X157353000Y-97829700D02*
X158099800Y-98576500D01*
X157353000Y-96520000D02*
X157353000Y-97829700D01*
X155956000Y-96520000D02*
X157353000Y-96520000D01*
X179070000Y-97405000D02*
X176408000Y-97405000D01*
D32*
X119849400Y-115631200D02*
X122010600Y-113470000D01*
X119849400Y-115820000D02*
X119849400Y-115631200D01*
X123190000Y-113470000D02*
X122010600Y-113470000D01*
X118570000Y-115820000D02*
X119849400Y-115820000D01*
D33*
X179146000Y-101205000D02*
X180135000Y-101205000D01*
X178005000Y-101205000D02*
X179070000Y-101205000D01*
X179070000Y-101205000D02*
X179146000Y-101205000D01*
X179070000Y-101281000D02*
X179070000Y-101205000D01*
X179146000Y-101205000D02*
X179070000Y-101281000D01*
X179146000Y-105410000D02*
X179146000Y-103307500D01*
X179146000Y-103307500D02*
X179146000Y-101205000D01*
X179146200Y-103307700D02*
X179146200Y-105410000D01*
X179146000Y-103307500D02*
X179146200Y-103307700D01*
D32*
X118570000Y-116820000D02*
X119849400Y-116820000D01*
X102870000Y-135890000D02*
X104076500Y-135890000D01*
X119849400Y-122699500D02*
X119849400Y-116820000D01*
X109220000Y-133328900D02*
X119849400Y-122699500D01*
X109220000Y-136635900D02*
X109220000Y-133328900D01*
X108408100Y-137447800D02*
X109220000Y-136635900D01*
X104896800Y-137447800D02*
X108408100Y-137447800D01*
X104076500Y-136627500D02*
X104896800Y-137447800D01*
X104076500Y-135890000D02*
X104076500Y-136627500D01*
X95250000Y-104775000D02*
X95250000Y-102971600D01*
X107950000Y-135890000D02*
X107950000Y-134340600D01*
X107950000Y-122914500D02*
X107950000Y-134340600D01*
X105999100Y-122914500D02*
X107950000Y-122914500D01*
X88899700Y-105815100D02*
X105999100Y-122914500D01*
X88899700Y-103740800D02*
X88899700Y-105815100D01*
X89668900Y-102971600D02*
X88899700Y-103740800D01*
X95250000Y-102971600D02*
X89668900Y-102971600D01*
X118570000Y-119249600D02*
X118570000Y-117320000D01*
X114905100Y-122914500D02*
X118570000Y-119249600D01*
X107950000Y-122914500D02*
X114905100Y-122914500D01*
X107950000Y-79596300D02*
X107950000Y-74930000D01*
X122046600Y-93692900D02*
X107950000Y-79596300D01*
X122046600Y-97909900D02*
X122046600Y-93692900D01*
X127108300Y-102971600D02*
X122046600Y-97909900D01*
X133350000Y-102971600D02*
X127108300Y-102971600D01*
X133350000Y-104775000D02*
X133350000Y-102971600D01*
X146646400Y-102971600D02*
X133350000Y-102971600D01*
X150253200Y-106578400D02*
X146646400Y-102971600D01*
X166370000Y-106578400D02*
X150253200Y-106578400D01*
X166370000Y-104775000D02*
X166370000Y-106578400D01*
X100330000Y-113767100D02*
X100330000Y-106578400D01*
X108664000Y-122101100D02*
X100330000Y-113767100D01*
X114425800Y-122101100D02*
X108664000Y-122101100D01*
X115820000Y-120706900D02*
X114425800Y-122101100D01*
X115820000Y-118570000D02*
X115820000Y-120706900D01*
X100330000Y-104775000D02*
X100330000Y-106578400D01*
X105410000Y-77989300D02*
X105410000Y-74930000D01*
X114038300Y-86617600D02*
X105410000Y-77989300D01*
X114038300Y-91279900D02*
X114038300Y-86617600D01*
X125730000Y-102971600D02*
X114038300Y-91279900D01*
X125730000Y-104775000D02*
X125730000Y-102971600D01*
X116820000Y-118570000D02*
X116820000Y-119849400D01*
X92710000Y-104775000D02*
X92710000Y-106578400D01*
X116820000Y-120352600D02*
X116820000Y-119849400D01*
X114664800Y-122507800D02*
X116820000Y-120352600D01*
X108495600Y-122507800D02*
X114664800Y-122507800D01*
X92710000Y-106722200D02*
X108495600Y-122507800D01*
X92710000Y-106578400D02*
X92710000Y-106722200D01*
X101536500Y-76136500D02*
X101536500Y-74930000D01*
X108343800Y-82943800D02*
X101536500Y-76136500D01*
X108343800Y-88125400D02*
X108343800Y-82943800D01*
X123190000Y-102971600D02*
X108343800Y-88125400D01*
X100330000Y-74930000D02*
X101536500Y-74930000D01*
X123190000Y-104775000D02*
X123190000Y-102971600D01*
X156210000Y-104775000D02*
X156210000Y-102971600D01*
X97790000Y-74930000D02*
X98996500Y-74930000D01*
X98996500Y-74192500D02*
X98996500Y-74930000D01*
X99805000Y-73384000D02*
X98996500Y-74192500D01*
X113564200Y-73384000D02*
X99805000Y-73384000D01*
X114300000Y-74119800D02*
X113564200Y-73384000D01*
X114300000Y-75691300D02*
X114300000Y-74119800D01*
X115282700Y-76674000D02*
X114300000Y-75691300D01*
X134080800Y-76674000D02*
X115282700Y-76674000D01*
X154406600Y-96999800D02*
X134080800Y-76674000D01*
X154406600Y-101168200D02*
X154406600Y-96999800D01*
X156210000Y-102971600D02*
X154406600Y-101168200D01*
X116320000Y-111086500D02*
X117049600Y-110356900D01*
X116320000Y-112570000D02*
X116320000Y-111086500D01*
X92710000Y-74930000D02*
X93916500Y-74930000D01*
X115212800Y-95911900D02*
X115212800Y-108491600D01*
X104753100Y-85452200D02*
X115212800Y-95911900D01*
X104753100Y-84877000D02*
X104753100Y-85452200D01*
X98597000Y-78720900D02*
X104753100Y-84877000D01*
X96969900Y-78720900D02*
X98597000Y-78720900D01*
X93916500Y-75667500D02*
X96969900Y-78720900D01*
X93916500Y-74930000D02*
X93916500Y-75667500D01*
X90170000Y-74930000D02*
X91376500Y-74930000D01*
X91376500Y-75684100D02*
X91376500Y-74930000D01*
X98138300Y-82445900D02*
X91376500Y-75684100D01*
X101746900Y-82445900D02*
X98138300Y-82445900D01*
X104202500Y-84901500D02*
X101746900Y-82445900D01*
X104202500Y-85546400D02*
X104202500Y-84901500D01*
X114307700Y-95651600D02*
X104202500Y-85546400D01*
X114307700Y-110624100D02*
X114307700Y-95651600D01*
X105242600Y-117864500D02*
X105242600Y-117657800D01*
X106994100Y-119616000D02*
X105242600Y-117864500D01*
X111539600Y-119616000D02*
X106994100Y-119616000D01*
X112797400Y-120873800D02*
X111539600Y-119616000D01*
X114413600Y-120873800D02*
X112797400Y-120873800D01*
X114858800Y-120428600D02*
X114413600Y-120873800D01*
X114858800Y-118608800D02*
X114858800Y-120428600D01*
X114820000Y-118570000D02*
X114858800Y-118608800D01*
D33*
X167386000Y-89789000D02*
X166370000Y-89789000D01*
X172720000Y-84455000D02*
X167386000Y-89789000D01*
X166370000Y-92075000D02*
X166370000Y-89789000D01*
X163830000Y-85725000D02*
X163830000Y-92075000D01*
X162560000Y-84455000D02*
X163830000Y-85725000D01*
X161290000Y-88265000D02*
X161290000Y-92075000D01*
X157480000Y-84455000D02*
X161290000Y-88265000D01*
D32*
X114320000Y-118570000D02*
X114320000Y-119849400D01*
X114160000Y-120009400D02*
X114160000Y-120139100D01*
X114320000Y-119849400D02*
X114160000Y-120009400D01*
X113169000Y-117919000D02*
X113169000Y-120146100D01*
X112570000Y-117320000D02*
X113169000Y-117919000D01*
X114820000Y-112570000D02*
X114820000Y-111290600D01*
X140970000Y-104775000D02*
X140970000Y-106578400D01*
X115006600Y-111104000D02*
X114820000Y-111290600D01*
X115006600Y-110228500D02*
X115006600Y-111104000D01*
X118656700Y-106578400D02*
X115006600Y-110228500D01*
X140970000Y-106578400D02*
X118656700Y-106578400D01*
X111290600Y-117549000D02*
X111769200Y-118027600D01*
X111290600Y-116820000D02*
X111290600Y-117549000D01*
X112570000Y-116820000D02*
X111290600Y-116820000D01*
D33*
X128270000Y-88265000D02*
X128270000Y-92075000D01*
X124460000Y-84455000D02*
X128270000Y-88265000D01*
X130810000Y-85725000D02*
X130810000Y-92075000D01*
X129540000Y-84455000D02*
X130810000Y-85725000D01*
X132563000Y-89002000D02*
X133350000Y-89789000D01*
X132563000Y-83634800D02*
X132563000Y-89002000D01*
X133788600Y-82409200D02*
X132563000Y-83634800D01*
X137654200Y-82409200D02*
X133788600Y-82409200D01*
X139700000Y-84455000D02*
X137654200Y-82409200D01*
X133350000Y-92075000D02*
X133350000Y-89789000D01*
X135890000Y-85725000D02*
X135890000Y-92075000D01*
X134620000Y-84455000D02*
X135890000Y-85725000D01*
X102870000Y-85725000D02*
X102870000Y-92075000D01*
X101600000Y-84455000D02*
X102870000Y-85725000D01*
X97790000Y-85725000D02*
X97790000Y-92075000D01*
X96520000Y-84455000D02*
X97790000Y-85725000D01*
X95250000Y-88265000D02*
X95250000Y-92075000D01*
X91440000Y-84455000D02*
X95250000Y-88265000D01*
D32*
X112570000Y-116320000D02*
X111290600Y-116320000D01*
X105410000Y-104775000D02*
X105410000Y-106578400D01*
X105410000Y-116836900D02*
X105410000Y-106578400D01*
X105941400Y-117368300D02*
X105410000Y-116836900D01*
X105941400Y-117925400D02*
X105941400Y-117368300D01*
X106408000Y-118392000D02*
X105941400Y-117925400D01*
X109528300Y-118392000D02*
X106408000Y-118392000D01*
X110142200Y-117778100D02*
X109528300Y-118392000D01*
X110142200Y-117367200D02*
X110142200Y-117778100D01*
X111189400Y-116320000D02*
X110142200Y-117367200D01*
X111290600Y-116320000D02*
X111189400Y-116320000D01*
X112570000Y-115820000D02*
X111290600Y-115820000D01*
X107950000Y-104775000D02*
X107950000Y-106578400D01*
X105981800Y-108546600D02*
X107950000Y-106578400D01*
X105981800Y-116833600D02*
X105981800Y-108546600D01*
X106348100Y-117199900D02*
X105981800Y-116833600D01*
X106348100Y-117757000D02*
X106348100Y-117199900D01*
X106574500Y-117983400D02*
X106348100Y-117757000D01*
X109348200Y-117983400D02*
X106574500Y-117983400D01*
X109714500Y-117617100D02*
X109348200Y-117983400D01*
X109714500Y-117118500D02*
X109714500Y-117617100D01*
X111013000Y-115820000D02*
X109714500Y-117118500D01*
X111290600Y-115820000D02*
X111013000Y-115820000D01*
X164785000Y-127071100D02*
X164785000Y-126126200D01*
X161686200Y-126126200D02*
X159385000Y-123825000D01*
X164785000Y-126126200D02*
X161686200Y-126126200D01*
X167005000Y-125806200D02*
X167005000Y-123825000D01*
X166685000Y-126126200D02*
X167005000Y-125806200D01*
X166685000Y-127071100D02*
X166685000Y-126126200D01*
X133030000Y-124780000D02*
X133985000Y-123825000D01*
X133030000Y-127071100D02*
X133030000Y-124780000D01*
X131130000Y-127071100D02*
X131130000Y-126126200D01*
X128666200Y-126126200D02*
X126365000Y-123825000D01*
X131130000Y-126126200D02*
X128666200Y-126126200D01*
X100010000Y-127071100D02*
X100010000Y-126126200D01*
X100010000Y-124780000D02*
X100010000Y-126126200D01*
X100965000Y-123825000D02*
X100010000Y-124780000D01*
X95646200Y-126126200D02*
X93345000Y-123825000D01*
X98110000Y-126126200D02*
X95646200Y-126126200D01*
X98110000Y-127071100D02*
X98110000Y-126126200D01*
X101180000Y-127276200D02*
X101180000Y-126925400D01*
X100465200Y-127991000D02*
X101180000Y-127276200D01*
X99545800Y-127991000D02*
X100465200Y-127991000D01*
X99012800Y-128524000D02*
X99545800Y-127991000D01*
X98110000Y-128524000D02*
X99012800Y-128524000D01*
X98110000Y-129468900D02*
X98110000Y-128524000D01*
X118570000Y-114320000D02*
X119849400Y-114320000D01*
X119849400Y-113238900D02*
X119879300Y-113209000D01*
X119849400Y-114320000D02*
X119849400Y-113238900D01*
X118570000Y-113441900D02*
X118570000Y-113820000D01*
X120238200Y-111773700D02*
X118570000Y-113441900D01*
X132737300Y-111773700D02*
X120238200Y-111773700D01*
X139648700Y-118685100D02*
X132737300Y-111773700D01*
X139648700Y-124854200D02*
X139648700Y-118685100D01*
X134089100Y-130413800D02*
X139648700Y-124854200D01*
X131130000Y-130413800D02*
X134089100Y-130413800D01*
X131130000Y-129468900D02*
X131130000Y-130413800D01*
X115320000Y-120613700D02*
X115320000Y-118570000D01*
X114575100Y-121358600D02*
X115320000Y-120613700D01*
X112274000Y-121358600D02*
X114575100Y-121358600D01*
X133735900Y-129468900D02*
X133888800Y-129621800D01*
X133030000Y-129468900D02*
X133735900Y-129468900D01*
X164785000Y-129468900D02*
X164785000Y-128524000D01*
X116820000Y-112570000D02*
X116820000Y-111290600D01*
X135531700Y-111290600D02*
X116820000Y-111290600D01*
X152765100Y-128524000D02*
X135531700Y-111290600D01*
X164785000Y-128524000D02*
X152765100Y-128524000D01*
X100010000Y-129468900D02*
X100010000Y-128524000D01*
X117726000Y-109635700D02*
X118671700Y-110581400D01*
X116749600Y-109635700D02*
X117726000Y-109635700D01*
X115913200Y-110472100D02*
X116749600Y-109635700D01*
X115913200Y-112476800D02*
X115913200Y-110472100D01*
X115820000Y-112570000D02*
X115913200Y-112476800D01*
X101878900Y-126114100D02*
X101320400Y-125555600D01*
X101878900Y-127245700D02*
X101878900Y-126114100D01*
X100600600Y-128524000D02*
X101878900Y-127245700D01*
X100010000Y-128524000D02*
X100600600Y-128524000D01*
X166685000Y-129468900D02*
X166685000Y-128524000D01*
X115320000Y-111585300D02*
X115320000Y-112570000D01*
X115413400Y-111491900D02*
X115320000Y-111585300D01*
X115413400Y-110396800D02*
X115413400Y-111491900D01*
X116581200Y-109229000D02*
X115413400Y-110396800D01*
X158273800Y-109229000D02*
X116581200Y-109229000D01*
X172282400Y-123237600D02*
X158273800Y-109229000D01*
X172282400Y-124378800D02*
X172282400Y-123237600D01*
X168137200Y-128524000D02*
X172282400Y-124378800D01*
X166685000Y-128524000D02*
X168137200Y-128524000D01*
D34*
G36*
X190715900Y-138645900D02*
X70269100Y-138645900D01*
X70269100Y-135516248D01*
X71158100Y-135516248D01*
X71158100Y-136263752D01*
X71251873Y-136735180D01*
X71518915Y-137134837D01*
X71918572Y-137401879D01*
X72390000Y-137495652D01*
X72861428Y-137401879D01*
X73261085Y-137134837D01*
X73528127Y-136735180D01*
X73621900Y-136263752D01*
X73621900Y-135516248D01*
X73698100Y-135516248D01*
X73698100Y-136263752D01*
X73791873Y-136735180D01*
X74058915Y-137134837D01*
X74458572Y-137401879D01*
X74930000Y-137495652D01*
X75401428Y-137401879D01*
X75801085Y-137134837D01*
X76068127Y-136735180D01*
X76161900Y-136263752D01*
X76161900Y-135516248D01*
X76238100Y-135516248D01*
X76238100Y-136263752D01*
X76331873Y-136735180D01*
X76598915Y-137134837D01*
X76998572Y-137401879D01*
X77470000Y-137495652D01*
X77941428Y-137401879D01*
X78341085Y-137134837D01*
X78608127Y-136735180D01*
X78701900Y-136263752D01*
X78701900Y-135516248D01*
X78778100Y-135516248D01*
X78778100Y-136263752D01*
X78871873Y-136735180D01*
X79138915Y-137134837D01*
X79538572Y-137401879D01*
X80010000Y-137495652D01*
X80481428Y-137401879D01*
X80881085Y-137134837D01*
X81148127Y-136735180D01*
X81225664Y-136345377D01*
X81330200Y-136324584D01*
X81411873Y-136735180D01*
X81678915Y-137134837D01*
X82078572Y-137401879D01*
X82550000Y-137495652D01*
X83021428Y-137401879D01*
X83421085Y-137134837D01*
X83688127Y-136735180D01*
X83781900Y-136263752D01*
X83781900Y-135516248D01*
X83858100Y-135516248D01*
X83858100Y-136263752D01*
X83951873Y-136735180D01*
X84218915Y-137134837D01*
X84618572Y-137401879D01*
X85090000Y-137495652D01*
X85561428Y-137401879D01*
X85961085Y-137134837D01*
X86228127Y-136735180D01*
X86321900Y-136263752D01*
X86321900Y-135516248D01*
X86398100Y-135516248D01*
X86398100Y-136263752D01*
X86491873Y-136735180D01*
X86758915Y-137134837D01*
X87158572Y-137401879D01*
X87630000Y-137495652D01*
X88101428Y-137401879D01*
X88501085Y-137134837D01*
X88768127Y-136735180D01*
X88861900Y-136263752D01*
X88861900Y-135516248D01*
X88938100Y-135516248D01*
X88938100Y-136263752D01*
X89031873Y-136735180D01*
X89298915Y-137134837D01*
X89698572Y-137401879D01*
X90170000Y-137495652D01*
X90641428Y-137401879D01*
X91041085Y-137134837D01*
X91308127Y-136735180D01*
X91401900Y-136263752D01*
X91401900Y-135516248D01*
X91478100Y-135516248D01*
X91478100Y-136263752D01*
X91571873Y-136735180D01*
X91838915Y-137134837D01*
X92238572Y-137401879D01*
X92710000Y-137495652D01*
X93181428Y-137401879D01*
X93581085Y-137134837D01*
X93848127Y-136735180D01*
X93941900Y-136263752D01*
X93941900Y-135516248D01*
X94018100Y-135516248D01*
X94018100Y-136263752D01*
X94111873Y-136735180D01*
X94378915Y-137134837D01*
X94778572Y-137401879D01*
X95250000Y-137495652D01*
X95721428Y-137401879D01*
X96121085Y-137134837D01*
X96388127Y-136735180D01*
X96481900Y-136263752D01*
X96481900Y-135516248D01*
X96558100Y-135516248D01*
X96558100Y-136263752D01*
X96651873Y-136735180D01*
X96918915Y-137134837D01*
X97318572Y-137401879D01*
X97790000Y-137495652D01*
X98261428Y-137401879D01*
X98661085Y-137134837D01*
X98928127Y-136735180D01*
X99021900Y-136263752D01*
X99021900Y-135516248D01*
X98928127Y-135044820D01*
X98661085Y-134645163D01*
X98261428Y-134378121D01*
X97790000Y-134284348D01*
X97318572Y-134378121D01*
X96918915Y-134645163D01*
X96651873Y-135044820D01*
X96558100Y-135516248D01*
X96481900Y-135516248D01*
X96388127Y-135044820D01*
X96121085Y-134645163D01*
X95721428Y-134378121D01*
X95250000Y-134284348D01*
X94778572Y-134378121D01*
X94378915Y-134645163D01*
X94111873Y-135044820D01*
X94018100Y-135516248D01*
X93941900Y-135516248D01*
X93848127Y-135044820D01*
X93581085Y-134645163D01*
X93181428Y-134378121D01*
X92710000Y-134284348D01*
X92238572Y-134378121D01*
X91838915Y-134645163D01*
X91571873Y-135044820D01*
X91478100Y-135516248D01*
X91401900Y-135516248D01*
X91308127Y-135044820D01*
X91041085Y-134645163D01*
X90641428Y-134378121D01*
X90170000Y-134284348D01*
X89698572Y-134378121D01*
X89298915Y-134645163D01*
X89031873Y-135044820D01*
X88938100Y-135516248D01*
X88861900Y-135516248D01*
X88768127Y-135044820D01*
X88501085Y-134645163D01*
X88101428Y-134378121D01*
X87630000Y-134284348D01*
X87158572Y-134378121D01*
X86758915Y-134645163D01*
X86491873Y-135044820D01*
X86398100Y-135516248D01*
X86321900Y-135516248D01*
X86228127Y-135044820D01*
X85961085Y-134645163D01*
X85561428Y-134378121D01*
X85090000Y-134284348D01*
X84618572Y-134378121D01*
X84218915Y-134645163D01*
X83951873Y-135044820D01*
X83858100Y-135516248D01*
X83781900Y-135516248D01*
X83688127Y-135044820D01*
X83421085Y-134645163D01*
X83021428Y-134378121D01*
X82701162Y-134314416D01*
X87069178Y-129946400D01*
X91936422Y-129946400D01*
X92107311Y-130117289D01*
X92255637Y-130216398D01*
X92399229Y-130244960D01*
X92399229Y-130429000D01*
X92422885Y-130547927D01*
X92490252Y-130648748D01*
X92591073Y-130716115D01*
X92710000Y-130739771D01*
X95250000Y-130739771D01*
X95368927Y-130716115D01*
X95469748Y-130648748D01*
X95537115Y-130547927D01*
X95553645Y-130464824D01*
X95825911Y-130737090D01*
X95952988Y-130822000D01*
X95974237Y-130836198D01*
X96149200Y-130871000D01*
X98870622Y-130871000D01*
X101142800Y-133143179D01*
X101142800Y-134606218D01*
X100801428Y-134378121D01*
X100330000Y-134284348D01*
X99858572Y-134378121D01*
X99458915Y-134645163D01*
X99191873Y-135044820D01*
X99098100Y-135516248D01*
X99098100Y-136263752D01*
X99191873Y-136735180D01*
X99458915Y-137134837D01*
X99858572Y-137401879D01*
X100330000Y-137495652D01*
X100801428Y-137401879D01*
X101201085Y-137134837D01*
X101277939Y-137019817D01*
X102494611Y-138236489D01*
X102642937Y-138335598D01*
X102817900Y-138370400D01*
X110483300Y-138370400D01*
X110658263Y-138335598D01*
X110806589Y-138236489D01*
X112058510Y-136984569D01*
X112158915Y-137134837D01*
X112558572Y-137401879D01*
X113030000Y-137495652D01*
X113501428Y-137401879D01*
X113901085Y-137134837D01*
X114168127Y-136735180D01*
X114261900Y-136263752D01*
X114261900Y-135516248D01*
X114338100Y-135516248D01*
X114338100Y-136263752D01*
X114431873Y-136735180D01*
X114698915Y-137134837D01*
X115098572Y-137401879D01*
X115570000Y-137495652D01*
X116041428Y-137401879D01*
X116441085Y-137134837D01*
X116708127Y-136735180D01*
X116801900Y-136263752D01*
X116801900Y-135516248D01*
X116878100Y-135516248D01*
X116878100Y-136263752D01*
X116971873Y-136735180D01*
X117238915Y-137134837D01*
X117638572Y-137401879D01*
X118110000Y-137495652D01*
X118581428Y-137401879D01*
X118981085Y-137134837D01*
X119248127Y-136735180D01*
X119341900Y-136263752D01*
X119341900Y-135516248D01*
X119418100Y-135516248D01*
X119418100Y-136263752D01*
X119511873Y-136735180D01*
X119778915Y-137134837D01*
X120178572Y-137401879D01*
X120650000Y-137495652D01*
X121121428Y-137401879D01*
X121521085Y-137134837D01*
X121788127Y-136735180D01*
X121881900Y-136263752D01*
X121881900Y-135516248D01*
X121958100Y-135516248D01*
X121958100Y-136263752D01*
X122051873Y-136735180D01*
X122318915Y-137134837D01*
X122718572Y-137401879D01*
X123190000Y-137495652D01*
X123661428Y-137401879D01*
X124061085Y-137134837D01*
X124328127Y-136735180D01*
X124421900Y-136263752D01*
X124421900Y-135516248D01*
X124498100Y-135516248D01*
X124498100Y-136263752D01*
X124591873Y-136735180D01*
X124858915Y-137134837D01*
X125258572Y-137401879D01*
X125730000Y-137495652D01*
X126201428Y-137401879D01*
X126601085Y-137134837D01*
X126868127Y-136735180D01*
X126961900Y-136263752D01*
X126961900Y-135516248D01*
X127038100Y-135516248D01*
X127038100Y-136263752D01*
X127131873Y-136735180D01*
X127398915Y-137134837D01*
X127798572Y-137401879D01*
X128270000Y-137495652D01*
X128741428Y-137401879D01*
X129141085Y-137134837D01*
X129408127Y-136735180D01*
X129501900Y-136263752D01*
X129501900Y-135516248D01*
X129578100Y-135516248D01*
X129578100Y-136263752D01*
X129671873Y-136735180D01*
X129938915Y-137134837D01*
X130338572Y-137401879D01*
X130810000Y-137495652D01*
X131281428Y-137401879D01*
X131681085Y-137134837D01*
X131948127Y-136735180D01*
X132041900Y-136263752D01*
X132041900Y-135516248D01*
X132118100Y-135516248D01*
X132118100Y-136263752D01*
X132211873Y-136735180D01*
X132478915Y-137134837D01*
X132878572Y-137401879D01*
X133350000Y-137495652D01*
X133821428Y-137401879D01*
X134221085Y-137134837D01*
X134488127Y-136735180D01*
X134574197Y-136302477D01*
X163016840Y-136302477D01*
X163333259Y-137068270D01*
X163918648Y-137654682D01*
X164683888Y-137972437D01*
X165512477Y-137973160D01*
X166278270Y-137656741D01*
X166864682Y-137071352D01*
X167182437Y-136306112D01*
X167183160Y-135477523D01*
X166866741Y-134711730D01*
X166281352Y-134125318D01*
X165516112Y-133807563D01*
X164687523Y-133806840D01*
X163921730Y-134123259D01*
X163335318Y-134708648D01*
X163017563Y-135473888D01*
X163016840Y-136302477D01*
X134574197Y-136302477D01*
X134581900Y-136263752D01*
X134581900Y-135516248D01*
X134488127Y-135044820D01*
X134221085Y-134645163D01*
X133821428Y-134378121D01*
X133350000Y-134284348D01*
X132878572Y-134378121D01*
X132478915Y-134645163D01*
X132211873Y-135044820D01*
X132118100Y-135516248D01*
X132041900Y-135516248D01*
X131948127Y-135044820D01*
X131681085Y-134645163D01*
X131281428Y-134378121D01*
X130810000Y-134284348D01*
X130338572Y-134378121D01*
X129938915Y-134645163D01*
X129671873Y-135044820D01*
X129578100Y-135516248D01*
X129501900Y-135516248D01*
X129408127Y-135044820D01*
X129141085Y-134645163D01*
X128741428Y-134378121D01*
X128270000Y-134284348D01*
X127798572Y-134378121D01*
X127398915Y-134645163D01*
X127131873Y-135044820D01*
X127038100Y-135516248D01*
X126961900Y-135516248D01*
X126868127Y-135044820D01*
X126601085Y-134645163D01*
X126201428Y-134378121D01*
X125730000Y-134284348D01*
X125258572Y-134378121D01*
X124858915Y-134645163D01*
X124591873Y-135044820D01*
X124498100Y-135516248D01*
X124421900Y-135516248D01*
X124328127Y-135044820D01*
X124061085Y-134645163D01*
X123661428Y-134378121D01*
X123190000Y-134284348D01*
X122718572Y-134378121D01*
X122318915Y-134645163D01*
X122051873Y-135044820D01*
X121958100Y-135516248D01*
X121881900Y-135516248D01*
X121788127Y-135044820D01*
X121521085Y-134645163D01*
X121121428Y-134378121D01*
X120650000Y-134284348D01*
X120178572Y-134378121D01*
X119778915Y-134645163D01*
X119511873Y-135044820D01*
X119418100Y-135516248D01*
X119341900Y-135516248D01*
X119248127Y-135044820D01*
X118981085Y-134645163D01*
X118581428Y-134378121D01*
X118110000Y-134284348D01*
X117638572Y-134378121D01*
X117238915Y-134645163D01*
X116971873Y-135044820D01*
X116878100Y-135516248D01*
X116801900Y-135516248D01*
X116708127Y-135044820D01*
X116441085Y-134645163D01*
X116041428Y-134378121D01*
X115570000Y-134284348D01*
X115098572Y-134378121D01*
X114698915Y-134645163D01*
X114431873Y-135044820D01*
X114338100Y-135516248D01*
X114261900Y-135516248D01*
X114168127Y-135044820D01*
X113901085Y-134645163D01*
X113501428Y-134378121D01*
X113228872Y-134323906D01*
X117301578Y-130251200D01*
X125419229Y-130251200D01*
X125419229Y-130429000D01*
X125442885Y-130547927D01*
X125510252Y-130648748D01*
X125611073Y-130716115D01*
X125730000Y-130739771D01*
X128270000Y-130739771D01*
X128388927Y-130716115D01*
X128489748Y-130648748D01*
X128557115Y-130547927D01*
X128580771Y-130429000D01*
X128580771Y-130244960D01*
X128724363Y-130216398D01*
X128872689Y-130117289D01*
X128937078Y-130052900D01*
X129484411Y-130052900D01*
X130576698Y-131145276D01*
X130576706Y-131145281D01*
X130576711Y-131145289D01*
X130650470Y-131194573D01*
X130725020Y-131244391D01*
X130725029Y-131244393D01*
X130725037Y-131244398D01*
X130810599Y-131261417D01*
X130899981Y-131279200D01*
X130899991Y-131279198D01*
X130900000Y-131279200D01*
X159906400Y-131279200D01*
X160081363Y-131244398D01*
X160229689Y-131145289D01*
X160343289Y-131031689D01*
X160442398Y-130883363D01*
X160470960Y-130739771D01*
X161290000Y-130739771D01*
X161408927Y-130716115D01*
X161509748Y-130648748D01*
X161577115Y-130547927D01*
X161593645Y-130464824D01*
X161865911Y-130737090D01*
X162014237Y-130836198D01*
X162189200Y-130871000D01*
X165735000Y-130871000D01*
X165909963Y-130836198D01*
X166058289Y-130737089D01*
X166157398Y-130588763D01*
X166192200Y-130413800D01*
X166192200Y-130382137D01*
X166209980Y-130370257D01*
X166286633Y-130421475D01*
X166405560Y-130445131D01*
X166964360Y-130445131D01*
X167083287Y-130421475D01*
X167184108Y-130354108D01*
X167251475Y-130253287D01*
X167275131Y-130134360D01*
X167275131Y-128981200D01*
X168137200Y-128981200D01*
X168312163Y-128946398D01*
X168460489Y-128847289D01*
X172605689Y-124702089D01*
X172704798Y-124553763D01*
X172739600Y-124378800D01*
X172739600Y-123237600D01*
X172704798Y-123062637D01*
X172605689Y-122914311D01*
X159597178Y-109905800D01*
X183230667Y-109905800D01*
X183389211Y-110702853D01*
X183840705Y-111378562D01*
X184516414Y-111830056D01*
X185313467Y-111988600D01*
X186948933Y-111988600D01*
X187745986Y-111830056D01*
X188421695Y-111378562D01*
X188873189Y-110702853D01*
X189031733Y-109905800D01*
X188873189Y-109108747D01*
X188421695Y-108433038D01*
X187745986Y-107981544D01*
X186948933Y-107823000D01*
X185313467Y-107823000D01*
X184516414Y-107981544D01*
X183840705Y-108433038D01*
X183389211Y-109108747D01*
X183230667Y-109905800D01*
X159597178Y-109905800D01*
X158597089Y-108905711D01*
X158448763Y-108806602D01*
X158273800Y-108771800D01*
X117109878Y-108771800D01*
X118846078Y-107035600D01*
X140970000Y-107035600D01*
X141144963Y-107000798D01*
X141293289Y-106901689D01*
X141392398Y-106753363D01*
X141427200Y-106578400D01*
X141427200Y-106548685D01*
X141475448Y-106539088D01*
X141903947Y-106252775D01*
X142190260Y-105824276D01*
X142290800Y-105318828D01*
X142290800Y-104231172D01*
X142190260Y-103725724D01*
X141991862Y-103428800D01*
X146457022Y-103428800D01*
X149929910Y-106901689D01*
X150062862Y-106990525D01*
X150078237Y-107000798D01*
X150253200Y-107035600D01*
X166370000Y-107035600D01*
X166544963Y-107000798D01*
X166693289Y-106901689D01*
X166792398Y-106753363D01*
X166827200Y-106578400D01*
X166827200Y-106548685D01*
X166875448Y-106539088D01*
X167303947Y-106252775D01*
X167590260Y-105824276D01*
X167640000Y-105574216D01*
X167689740Y-105824276D01*
X167976053Y-106252775D01*
X168404552Y-106539088D01*
X168910000Y-106639628D01*
X169415448Y-106539088D01*
X169843947Y-106252775D01*
X170130260Y-105824276D01*
X170180000Y-105574216D01*
X170229740Y-105824276D01*
X170516053Y-106252775D01*
X170944552Y-106539088D01*
X171450000Y-106639628D01*
X171955448Y-106539088D01*
X172383947Y-106252775D01*
X172670260Y-105824276D01*
X172720000Y-105574216D01*
X172769740Y-105824276D01*
X173056053Y-106252775D01*
X173484552Y-106539088D01*
X173990000Y-106639628D01*
X174495448Y-106539088D01*
X174923947Y-106252775D01*
X175210260Y-105824276D01*
X175310800Y-105318828D01*
X175310800Y-104231172D01*
X175210260Y-103725724D01*
X174923947Y-103297225D01*
X174495448Y-103010912D01*
X173990000Y-102910372D01*
X173484552Y-103010912D01*
X173056053Y-103297225D01*
X172769740Y-103725724D01*
X172720000Y-103975784D01*
X172670260Y-103725724D01*
X172383947Y-103297225D01*
X171955448Y-103010912D01*
X171450000Y-102910372D01*
X170944552Y-103010912D01*
X170516053Y-103297225D01*
X170229740Y-103725724D01*
X170180000Y-103975784D01*
X170130260Y-103725724D01*
X169843947Y-103297225D01*
X169415448Y-103010912D01*
X168910000Y-102910372D01*
X168404552Y-103010912D01*
X167976053Y-103297225D01*
X167689740Y-103725724D01*
X167640000Y-103975784D01*
X167590260Y-103725724D01*
X167303947Y-103297225D01*
X166875448Y-103010912D01*
X166370000Y-102910372D01*
X165864552Y-103010912D01*
X165436053Y-103297225D01*
X165149740Y-103725724D01*
X165100000Y-103975784D01*
X165050260Y-103725724D01*
X164763947Y-103297225D01*
X164335448Y-103010912D01*
X163830000Y-102910372D01*
X163324552Y-103010912D01*
X162896053Y-103297225D01*
X162609740Y-103725724D01*
X162560000Y-103975784D01*
X162510260Y-103725724D01*
X162223947Y-103297225D01*
X161795448Y-103010912D01*
X161290000Y-102910372D01*
X160784552Y-103010912D01*
X160356053Y-103297225D01*
X160069740Y-103725724D01*
X160020000Y-103975784D01*
X159970260Y-103725724D01*
X159683947Y-103297225D01*
X159255448Y-103010912D01*
X158750000Y-102910372D01*
X158244552Y-103010912D01*
X157816053Y-103297225D01*
X157529740Y-103725724D01*
X157480000Y-103975784D01*
X157430260Y-103725724D01*
X157143947Y-103297225D01*
X156715448Y-103010912D01*
X156667200Y-103001315D01*
X156667200Y-102971600D01*
X156632398Y-102796637D01*
X156533289Y-102648311D01*
X154863800Y-100978822D01*
X154863800Y-96999800D01*
X154828998Y-96824837D01*
X154729889Y-96676511D01*
X149584550Y-91531172D01*
X154889200Y-91531172D01*
X154889200Y-92618828D01*
X154989740Y-93124276D01*
X155270200Y-93544015D01*
X155270200Y-93855280D01*
X155087738Y-94128354D01*
X155016200Y-94488000D01*
X155016200Y-95219982D01*
X155010229Y-95250000D01*
X155010229Y-97790000D01*
X155033885Y-97908927D01*
X155101252Y-98009748D01*
X155202073Y-98077115D01*
X155321000Y-98100771D01*
X156467119Y-98100771D01*
X156484738Y-98189346D01*
X156688461Y-98494239D01*
X157435261Y-99241039D01*
X157740154Y-99444762D01*
X158099800Y-99516300D01*
X175236500Y-99516300D01*
X175596146Y-99444762D01*
X175901039Y-99241039D01*
X176797278Y-98344800D01*
X176859229Y-98344800D01*
X176859229Y-99885000D01*
X176882885Y-100003927D01*
X176950252Y-100104748D01*
X177051073Y-100172115D01*
X177133350Y-100188481D01*
X177086073Y-100197885D01*
X176985252Y-100265252D01*
X176917885Y-100366073D01*
X176894229Y-100485000D01*
X176894229Y-101925000D01*
X176917885Y-102043927D01*
X176985252Y-102144748D01*
X177086073Y-102212115D01*
X177205000Y-102235771D01*
X178206200Y-102235771D01*
X178206200Y-102717911D01*
X177493833Y-103193900D01*
X176987278Y-103952012D01*
X176809400Y-104846267D01*
X176809400Y-105973733D01*
X176987278Y-106867988D01*
X177493833Y-107626100D01*
X178251945Y-108132655D01*
X179146200Y-108310533D01*
X180040455Y-108132655D01*
X180798567Y-107626100D01*
X181305122Y-106867988D01*
X181483000Y-105973733D01*
X181483000Y-105933265D01*
X181795045Y-105933265D01*
X181860425Y-106182896D01*
X182328549Y-106990525D01*
X183070106Y-107557534D01*
X183972200Y-107797600D01*
X184480200Y-107797600D01*
X184480200Y-105562400D01*
X181894602Y-105562400D01*
X181795045Y-105933265D01*
X181483000Y-105933265D01*
X181483000Y-104886735D01*
X181795045Y-104886735D01*
X181894602Y-105257600D01*
X184480200Y-105257600D01*
X184480200Y-103022400D01*
X184785000Y-103022400D01*
X184785000Y-105257600D01*
X184805000Y-105257600D01*
X184805000Y-105562400D01*
X184785000Y-105562400D01*
X184785000Y-107797600D01*
X185293000Y-107797600D01*
X186195094Y-107557534D01*
X186936651Y-106990525D01*
X187298277Y-106366632D01*
X187417463Y-106486026D01*
X187884073Y-106679779D01*
X188389310Y-106680220D01*
X188856258Y-106487282D01*
X189213826Y-106130337D01*
X189407579Y-105663727D01*
X189408020Y-105158490D01*
X189215082Y-104691542D01*
X188858137Y-104333974D01*
X188391527Y-104140221D01*
X187886290Y-104139780D01*
X187419342Y-104332718D01*
X187298352Y-104453498D01*
X186936651Y-103829475D01*
X186195094Y-103262466D01*
X185293000Y-103022400D01*
X184785000Y-103022400D01*
X184480200Y-103022400D01*
X183972200Y-103022400D01*
X183070106Y-103262466D01*
X182328549Y-103829475D01*
X181860425Y-104637104D01*
X181795045Y-104886735D01*
X181483000Y-104886735D01*
X181483000Y-104846267D01*
X181305122Y-103952012D01*
X180798567Y-103193900D01*
X180085800Y-102717644D01*
X180085800Y-102235771D01*
X180935000Y-102235771D01*
X181053927Y-102212115D01*
X181154748Y-102144748D01*
X181222115Y-102043927D01*
X181245771Y-101925000D01*
X181245771Y-100914200D01*
X183230667Y-100914200D01*
X183389211Y-101711253D01*
X183840705Y-102386962D01*
X184516414Y-102838456D01*
X185313467Y-102997000D01*
X186948933Y-102997000D01*
X187745986Y-102838456D01*
X188421695Y-102386962D01*
X188873189Y-101711253D01*
X189031733Y-100914200D01*
X188873189Y-100117147D01*
X188421695Y-99441438D01*
X187745986Y-98989944D01*
X186948933Y-98831400D01*
X185313467Y-98831400D01*
X184516414Y-98989944D01*
X183840705Y-99441438D01*
X183389211Y-100117147D01*
X183230667Y-100914200D01*
X181245771Y-100914200D01*
X181245771Y-100485000D01*
X181222115Y-100366073D01*
X181154748Y-100265252D01*
X181053927Y-100197885D01*
X181006650Y-100188481D01*
X181088927Y-100172115D01*
X181189748Y-100104748D01*
X181257115Y-100003927D01*
X181280771Y-99885000D01*
X181280771Y-94925000D01*
X181257115Y-94806073D01*
X181189748Y-94705252D01*
X181088927Y-94637885D01*
X180970000Y-94614229D01*
X177170000Y-94614229D01*
X177051073Y-94637885D01*
X176950252Y-94705252D01*
X176882885Y-94806073D01*
X176859229Y-94925000D01*
X176859229Y-96465200D01*
X176408000Y-96465200D01*
X176048354Y-96536738D01*
X175743461Y-96740461D01*
X174847222Y-97636700D01*
X160248600Y-97636700D01*
X160248600Y-96824800D01*
X160096200Y-96672400D01*
X159156400Y-96672400D01*
X159156400Y-96692400D01*
X158851600Y-96692400D01*
X158851600Y-96672400D01*
X158831600Y-96672400D01*
X158831600Y-96367600D01*
X158851600Y-96367600D01*
X158851600Y-94792800D01*
X159156400Y-94792800D01*
X159156400Y-96367600D01*
X160096200Y-96367600D01*
X160248600Y-96215200D01*
X160248600Y-95128743D01*
X160155794Y-94904689D01*
X159984311Y-94733206D01*
X159760257Y-94640400D01*
X159308800Y-94640400D01*
X159156400Y-94792800D01*
X158851600Y-94792800D01*
X158699200Y-94640400D01*
X158247743Y-94640400D01*
X158023689Y-94733206D01*
X157852206Y-94904689D01*
X157759400Y-95128743D01*
X157759400Y-95682978D01*
X157712646Y-95651738D01*
X157353000Y-95580200D01*
X156901771Y-95580200D01*
X156901771Y-95250000D01*
X156895800Y-95219982D01*
X156895800Y-94993720D01*
X157078262Y-94720646D01*
X157149800Y-94361000D01*
X157149800Y-93544015D01*
X157298970Y-93320766D01*
X157306462Y-93345889D01*
X157708290Y-93840236D01*
X158268709Y-94143180D01*
X158346297Y-94157674D01*
X158597600Y-94048296D01*
X158597600Y-92227400D01*
X158577600Y-92227400D01*
X158577600Y-91922600D01*
X158597600Y-91922600D01*
X158597600Y-90101704D01*
X158346297Y-89992326D01*
X158268709Y-90006820D01*
X157708290Y-90309764D01*
X157306462Y-90804111D01*
X157298970Y-90829234D01*
X157143947Y-90597225D01*
X156715448Y-90310912D01*
X156210000Y-90210372D01*
X155704552Y-90310912D01*
X155276053Y-90597225D01*
X154989740Y-91025724D01*
X154889200Y-91531172D01*
X149584550Y-91531172D01*
X142820251Y-84766873D01*
X155904927Y-84766873D01*
X156144171Y-85345887D01*
X156586783Y-85789272D01*
X157165379Y-86029526D01*
X157725937Y-86030015D01*
X160350200Y-88654278D01*
X160350200Y-90605985D01*
X160201030Y-90829234D01*
X160193538Y-90804111D01*
X159791710Y-90309764D01*
X159231291Y-90006820D01*
X159153703Y-89992326D01*
X158902400Y-90101704D01*
X158902400Y-91922600D01*
X158922400Y-91922600D01*
X158922400Y-92227400D01*
X158902400Y-92227400D01*
X158902400Y-94048296D01*
X159153703Y-94157674D01*
X159231291Y-94143180D01*
X159791710Y-93840236D01*
X160193538Y-93345889D01*
X160201030Y-93320766D01*
X160356053Y-93552775D01*
X160784552Y-93839088D01*
X161290000Y-93939628D01*
X161795448Y-93839088D01*
X162223947Y-93552775D01*
X162510260Y-93124276D01*
X162560000Y-92874216D01*
X162609740Y-93124276D01*
X162896053Y-93552775D01*
X163324552Y-93839088D01*
X163830000Y-93939628D01*
X164335448Y-93839088D01*
X164763947Y-93552775D01*
X165050260Y-93124276D01*
X165100000Y-92874216D01*
X165149740Y-93124276D01*
X165436053Y-93552775D01*
X165864552Y-93839088D01*
X166370000Y-93939628D01*
X166875448Y-93839088D01*
X167303947Y-93552775D01*
X167590260Y-93124276D01*
X167640000Y-92874216D01*
X167689740Y-93124276D01*
X167976053Y-93552775D01*
X168404552Y-93839088D01*
X168910000Y-93939628D01*
X169415448Y-93839088D01*
X169843947Y-93552775D01*
X170130260Y-93124276D01*
X170180000Y-92874216D01*
X170229740Y-93124276D01*
X170516053Y-93552775D01*
X170944552Y-93839088D01*
X171450000Y-93939628D01*
X171955448Y-93839088D01*
X172383947Y-93552775D01*
X172538970Y-93320766D01*
X172546462Y-93345889D01*
X172948290Y-93840236D01*
X173508709Y-94143180D01*
X173586297Y-94157674D01*
X173837600Y-94048296D01*
X173837600Y-92227400D01*
X174142400Y-92227400D01*
X174142400Y-94048296D01*
X174393703Y-94157674D01*
X174471291Y-94143180D01*
X175031710Y-93840236D01*
X175433538Y-93345889D01*
X175615600Y-92735400D01*
X175615600Y-92227400D01*
X174142400Y-92227400D01*
X173837600Y-92227400D01*
X173817600Y-92227400D01*
X173817600Y-91922600D01*
X173837600Y-91922600D01*
X173837600Y-90101704D01*
X174142400Y-90101704D01*
X174142400Y-91922600D01*
X175615600Y-91922600D01*
X175615600Y-91414600D01*
X175433538Y-90804111D01*
X175031710Y-90309764D01*
X174471291Y-90006820D01*
X174393703Y-89992326D01*
X174142400Y-90101704D01*
X173837600Y-90101704D01*
X173586297Y-89992326D01*
X173508709Y-90006820D01*
X172948290Y-90309764D01*
X172546462Y-90804111D01*
X172538970Y-90829234D01*
X172383947Y-90597225D01*
X171955448Y-90310912D01*
X171450000Y-90210372D01*
X170944552Y-90310912D01*
X170516053Y-90597225D01*
X170229740Y-91025724D01*
X170180000Y-91275784D01*
X170130260Y-91025724D01*
X169843947Y-90597225D01*
X169415448Y-90310912D01*
X168910000Y-90210372D01*
X168404552Y-90310912D01*
X167976053Y-90597225D01*
X167689740Y-91025724D01*
X167640000Y-91275784D01*
X167590260Y-91025724D01*
X167391175Y-90727771D01*
X167745646Y-90657262D01*
X168050539Y-90453539D01*
X172474492Y-86029586D01*
X173031873Y-86030073D01*
X173610887Y-85790829D01*
X174054272Y-85348217D01*
X174294526Y-84769621D01*
X174295073Y-84143127D01*
X174055829Y-83564113D01*
X173613217Y-83120728D01*
X173034621Y-82880474D01*
X172408127Y-82879927D01*
X171829113Y-83119171D01*
X171385728Y-83561783D01*
X171145474Y-84140379D01*
X171144985Y-84700937D01*
X166996722Y-88849200D01*
X166370000Y-88849200D01*
X166010354Y-88920738D01*
X165705461Y-89124461D01*
X165501738Y-89429354D01*
X165430200Y-89789000D01*
X165430200Y-90605985D01*
X165149740Y-91025724D01*
X165100000Y-91275784D01*
X165050260Y-91025724D01*
X164769800Y-90605985D01*
X164769800Y-85725000D01*
X164698262Y-85365354D01*
X164494539Y-85060461D01*
X164200951Y-84766873D01*
X166064927Y-84766873D01*
X166304171Y-85345887D01*
X166746783Y-85789272D01*
X167325379Y-86029526D01*
X167951873Y-86030073D01*
X168530887Y-85790829D01*
X168974272Y-85348217D01*
X169214526Y-84769621D01*
X169215073Y-84143127D01*
X168975829Y-83564113D01*
X168533217Y-83120728D01*
X167954621Y-82880474D01*
X167328127Y-82879927D01*
X166749113Y-83119171D01*
X166305728Y-83561783D01*
X166065474Y-84140379D01*
X166064927Y-84766873D01*
X164200951Y-84766873D01*
X164134586Y-84700508D01*
X164135073Y-84143127D01*
X163895829Y-83564113D01*
X163453217Y-83120728D01*
X162874621Y-82880474D01*
X162248127Y-82879927D01*
X161669113Y-83119171D01*
X161225728Y-83561783D01*
X160985474Y-84140379D01*
X160984927Y-84766873D01*
X161224171Y-85345887D01*
X161666783Y-85789272D01*
X162245379Y-86029526D01*
X162805937Y-86030015D01*
X162890200Y-86114278D01*
X162890200Y-90605985D01*
X162609740Y-91025724D01*
X162560000Y-91275784D01*
X162510260Y-91025724D01*
X162229800Y-90605985D01*
X162229800Y-88265000D01*
X162158262Y-87905354D01*
X161954539Y-87600461D01*
X159054586Y-84700508D01*
X159055073Y-84143127D01*
X158815829Y-83564113D01*
X158373217Y-83120728D01*
X157794621Y-82880474D01*
X157168127Y-82879927D01*
X156589113Y-83119171D01*
X156145728Y-83561783D01*
X155905474Y-84140379D01*
X155904927Y-84766873D01*
X142820251Y-84766873D01*
X134404089Y-76350711D01*
X134255763Y-76251602D01*
X134140508Y-76228677D01*
X134221085Y-76174837D01*
X134488127Y-75775180D01*
X134574197Y-75342477D01*
X163016840Y-75342477D01*
X163333259Y-76108270D01*
X163918648Y-76694682D01*
X164683888Y-77012437D01*
X165512477Y-77013160D01*
X166278270Y-76696741D01*
X166864682Y-76111352D01*
X167182437Y-75346112D01*
X167183160Y-74517523D01*
X166866741Y-73751730D01*
X166281352Y-73165318D01*
X165516112Y-72847563D01*
X164687523Y-72846840D01*
X163921730Y-73163259D01*
X163335318Y-73748648D01*
X163017563Y-74513888D01*
X163016840Y-75342477D01*
X134574197Y-75342477D01*
X134581900Y-75303752D01*
X134581900Y-74556248D01*
X134488127Y-74084820D01*
X134221085Y-73685163D01*
X133821428Y-73418121D01*
X133350000Y-73324348D01*
X132878572Y-73418121D01*
X132478915Y-73685163D01*
X132211873Y-74084820D01*
X132118100Y-74556248D01*
X132118100Y-75303752D01*
X132211873Y-75775180D01*
X132478915Y-76174837D01*
X132541717Y-76216800D01*
X131618283Y-76216800D01*
X131681085Y-76174837D01*
X131948127Y-75775180D01*
X132041900Y-75303752D01*
X132041900Y-74556248D01*
X131948127Y-74084820D01*
X131681085Y-73685163D01*
X131281428Y-73418121D01*
X130810000Y-73324348D01*
X130338572Y-73418121D01*
X129938915Y-73685163D01*
X129671873Y-74084820D01*
X129578100Y-74556248D01*
X129578100Y-75303752D01*
X129671873Y-75775180D01*
X129938915Y-76174837D01*
X130001717Y-76216800D01*
X129078283Y-76216800D01*
X129141085Y-76174837D01*
X129408127Y-75775180D01*
X129501900Y-75303752D01*
X129501900Y-74556248D01*
X129408127Y-74084820D01*
X129141085Y-73685163D01*
X128741428Y-73418121D01*
X128270000Y-73324348D01*
X127798572Y-73418121D01*
X127398915Y-73685163D01*
X127131873Y-74084820D01*
X127038100Y-74556248D01*
X127038100Y-75303752D01*
X127131873Y-75775180D01*
X127398915Y-76174837D01*
X127461717Y-76216800D01*
X126538283Y-76216800D01*
X126601085Y-76174837D01*
X126868127Y-75775180D01*
X126961900Y-75303752D01*
X126961900Y-74556248D01*
X126868127Y-74084820D01*
X126601085Y-73685163D01*
X126201428Y-73418121D01*
X125730000Y-73324348D01*
X125258572Y-73418121D01*
X124858915Y-73685163D01*
X124591873Y-74084820D01*
X124498100Y-74556248D01*
X124498100Y-75303752D01*
X124591873Y-75775180D01*
X124858915Y-76174837D01*
X124921717Y-76216800D01*
X123998283Y-76216800D01*
X124061085Y-76174837D01*
X124328127Y-75775180D01*
X124421900Y-75303752D01*
X124421900Y-74556248D01*
X124328127Y-74084820D01*
X124061085Y-73685163D01*
X123661428Y-73418121D01*
X123190000Y-73324348D01*
X122718572Y-73418121D01*
X122318915Y-73685163D01*
X122051873Y-74084820D01*
X121958100Y-74556248D01*
X121958100Y-75303752D01*
X122051873Y-75775180D01*
X122318915Y-76174837D01*
X122381717Y-76216800D01*
X121458283Y-76216800D01*
X121521085Y-76174837D01*
X121788127Y-75775180D01*
X121881900Y-75303752D01*
X121881900Y-74556248D01*
X121788127Y-74084820D01*
X121521085Y-73685163D01*
X121121428Y-73418121D01*
X120650000Y-73324348D01*
X120178572Y-73418121D01*
X119778915Y-73685163D01*
X119511873Y-74084820D01*
X119418100Y-74556248D01*
X119418100Y-75303752D01*
X119511873Y-75775180D01*
X119778915Y-76174837D01*
X119841717Y-76216800D01*
X118918283Y-76216800D01*
X118981085Y-76174837D01*
X119248127Y-75775180D01*
X119341900Y-75303752D01*
X119341900Y-74556248D01*
X119248127Y-74084820D01*
X118981085Y-73685163D01*
X118581428Y-73418121D01*
X118110000Y-73324348D01*
X117638572Y-73418121D01*
X117238915Y-73685163D01*
X116971873Y-74084820D01*
X116878100Y-74556248D01*
X116878100Y-75303752D01*
X116971873Y-75775180D01*
X117238915Y-76174837D01*
X117301717Y-76216800D01*
X116378283Y-76216800D01*
X116441085Y-76174837D01*
X116708127Y-75775180D01*
X116801900Y-75303752D01*
X116801900Y-74556248D01*
X116708127Y-74084820D01*
X116441085Y-73685163D01*
X116041428Y-73418121D01*
X115570000Y-73324348D01*
X115098572Y-73418121D01*
X114698915Y-73685163D01*
X114623902Y-73797428D01*
X114623289Y-73796511D01*
X113887489Y-73060711D01*
X113739163Y-72961602D01*
X113564200Y-72926800D01*
X99805000Y-72926800D01*
X99630037Y-72961602D01*
X99481711Y-73060711D01*
X98739661Y-73802761D01*
X98661085Y-73685163D01*
X98261428Y-73418121D01*
X97790000Y-73324348D01*
X97318572Y-73418121D01*
X96918915Y-73685163D01*
X96651873Y-74084820D01*
X96558100Y-74556248D01*
X96558100Y-75303752D01*
X96651873Y-75775180D01*
X96918915Y-76174837D01*
X97318572Y-76441879D01*
X97790000Y-76535652D01*
X98261428Y-76441879D01*
X98661085Y-76174837D01*
X98928127Y-75775180D01*
X99005664Y-75385377D01*
X99110200Y-75364584D01*
X99191873Y-75775180D01*
X99458915Y-76174837D01*
X99858572Y-76441879D01*
X100330000Y-76535652D01*
X100801428Y-76441879D01*
X101100318Y-76242167D01*
X101114102Y-76311463D01*
X101213211Y-76459789D01*
X107886600Y-83133178D01*
X107886600Y-83434658D01*
X107573217Y-83120728D01*
X106994621Y-82880474D01*
X106368127Y-82879927D01*
X105789113Y-83119171D01*
X105345728Y-83561783D01*
X105105474Y-84140379D01*
X105105076Y-84596643D01*
X105076389Y-84553711D01*
X98920289Y-78397611D01*
X98771963Y-78298502D01*
X98597000Y-78263700D01*
X97159278Y-78263700D01*
X95401162Y-76505584D01*
X95721428Y-76441879D01*
X96121085Y-76174837D01*
X96388127Y-75775180D01*
X96481900Y-75303752D01*
X96481900Y-74556248D01*
X96388127Y-74084820D01*
X96121085Y-73685163D01*
X95721428Y-73418121D01*
X95250000Y-73324348D01*
X94778572Y-73418121D01*
X94378915Y-73685163D01*
X94111873Y-74084820D01*
X94030200Y-74495416D01*
X93925664Y-74474623D01*
X93848127Y-74084820D01*
X93581085Y-73685163D01*
X93181428Y-73418121D01*
X92710000Y-73324348D01*
X92238572Y-73418121D01*
X91838915Y-73685163D01*
X91571873Y-74084820D01*
X91490200Y-74495416D01*
X91385664Y-74474623D01*
X91308127Y-74084820D01*
X91041085Y-73685163D01*
X90641428Y-73418121D01*
X90170000Y-73324348D01*
X89698572Y-73418121D01*
X89298915Y-73685163D01*
X89031873Y-74084820D01*
X88938100Y-74556248D01*
X88938100Y-75303752D01*
X89031873Y-75775180D01*
X89298915Y-76174837D01*
X89698572Y-76441879D01*
X90170000Y-76535652D01*
X90641428Y-76441879D01*
X91041085Y-76174837D01*
X91113012Y-76067190D01*
X97815011Y-82769189D01*
X97963337Y-82868298D01*
X98138300Y-82903100D01*
X101232044Y-82903100D01*
X100709113Y-83119171D01*
X100265728Y-83561783D01*
X100025474Y-84140379D01*
X100024927Y-84766873D01*
X100264171Y-85345887D01*
X100706783Y-85789272D01*
X101285379Y-86029526D01*
X101845937Y-86030015D01*
X101930200Y-86114278D01*
X101930200Y-90605985D01*
X101649740Y-91025724D01*
X101600000Y-91275784D01*
X101550260Y-91025724D01*
X101263947Y-90597225D01*
X100835448Y-90310912D01*
X100330000Y-90210372D01*
X99824552Y-90310912D01*
X99396053Y-90597225D01*
X99109740Y-91025724D01*
X99060000Y-91275784D01*
X99010260Y-91025724D01*
X98729800Y-90605985D01*
X98729800Y-85725000D01*
X98658262Y-85365354D01*
X98454539Y-85060461D01*
X98094586Y-84700508D01*
X98095073Y-84143127D01*
X97855829Y-83564113D01*
X97413217Y-83120728D01*
X96834621Y-82880474D01*
X96208127Y-82879927D01*
X95629113Y-83119171D01*
X95185728Y-83561783D01*
X94945474Y-84140379D01*
X94944927Y-84766873D01*
X95184171Y-85345887D01*
X95626783Y-85789272D01*
X96205379Y-86029526D01*
X96765937Y-86030015D01*
X96850200Y-86114278D01*
X96850200Y-90605985D01*
X96569740Y-91025724D01*
X96520000Y-91275784D01*
X96470260Y-91025724D01*
X96189800Y-90605985D01*
X96189800Y-88265000D01*
X96118262Y-87905354D01*
X95914539Y-87600461D01*
X93014586Y-84700508D01*
X93015073Y-84143127D01*
X92775829Y-83564113D01*
X92333217Y-83120728D01*
X91754621Y-82880474D01*
X91128127Y-82879927D01*
X90549113Y-83119171D01*
X90105728Y-83561783D01*
X89865474Y-84140379D01*
X89864927Y-84766873D01*
X90104171Y-85345887D01*
X90546783Y-85789272D01*
X91125379Y-86029526D01*
X91685937Y-86030015D01*
X94310200Y-88654278D01*
X94310200Y-90605985D01*
X94161030Y-90829234D01*
X94153538Y-90804111D01*
X93751710Y-90309764D01*
X93191291Y-90006820D01*
X93113703Y-89992326D01*
X92862400Y-90101704D01*
X92862400Y-91922600D01*
X92882400Y-91922600D01*
X92882400Y-92227400D01*
X92862400Y-92227400D01*
X92862400Y-94048296D01*
X93113703Y-94157674D01*
X93191291Y-94143180D01*
X93751710Y-93840236D01*
X94153538Y-93345889D01*
X94161030Y-93320766D01*
X94316053Y-93552775D01*
X94744552Y-93839088D01*
X95250000Y-93939628D01*
X95755448Y-93839088D01*
X96183947Y-93552775D01*
X96470260Y-93124276D01*
X96520000Y-92874216D01*
X96569740Y-93124276D01*
X96856053Y-93552775D01*
X97284552Y-93839088D01*
X97790000Y-93939628D01*
X98295448Y-93839088D01*
X98723947Y-93552775D01*
X99010260Y-93124276D01*
X99060000Y-92874216D01*
X99109740Y-93124276D01*
X99396053Y-93552775D01*
X99824552Y-93839088D01*
X100330000Y-93939628D01*
X100835448Y-93839088D01*
X101263947Y-93552775D01*
X101550260Y-93124276D01*
X101600000Y-92874216D01*
X101649740Y-93124276D01*
X101936053Y-93552775D01*
X102364552Y-93839088D01*
X102870000Y-93939628D01*
X103375448Y-93839088D01*
X103803947Y-93552775D01*
X104090260Y-93124276D01*
X104140000Y-92874216D01*
X104189740Y-93124276D01*
X104476053Y-93552775D01*
X104904552Y-93839088D01*
X104952800Y-93848685D01*
X104952800Y-94894300D01*
X96713900Y-94894300D01*
X96538937Y-94929102D01*
X96390611Y-95028211D01*
X94208600Y-97210222D01*
X94208600Y-96824800D01*
X94056200Y-96672400D01*
X93116400Y-96672400D01*
X93116400Y-98247200D01*
X93144011Y-98274811D01*
X88169711Y-103249111D01*
X88070602Y-103397437D01*
X88035800Y-103572400D01*
X88035800Y-129032000D01*
X86879800Y-129032000D01*
X86704837Y-129066802D01*
X86556511Y-129165911D01*
X80959661Y-134762761D01*
X80881085Y-134645163D01*
X80481428Y-134378121D01*
X80010000Y-134284348D01*
X79538572Y-134378121D01*
X79138915Y-134645163D01*
X78871873Y-135044820D01*
X78778100Y-135516248D01*
X78701900Y-135516248D01*
X78608127Y-135044820D01*
X78341085Y-134645163D01*
X77941428Y-134378121D01*
X77470000Y-134284348D01*
X76998572Y-134378121D01*
X76598915Y-134645163D01*
X76331873Y-135044820D01*
X76238100Y-135516248D01*
X76161900Y-135516248D01*
X76068127Y-135044820D01*
X75801085Y-134645163D01*
X75401428Y-134378121D01*
X74930000Y-134284348D01*
X74458572Y-134378121D01*
X74058915Y-134645163D01*
X73791873Y-135044820D01*
X73698100Y-135516248D01*
X73621900Y-135516248D01*
X73528127Y-135044820D01*
X73261085Y-134645163D01*
X72861428Y-134378121D01*
X72390000Y-134284348D01*
X71918572Y-134378121D01*
X71518915Y-134645163D01*
X71251873Y-135044820D01*
X71158100Y-135516248D01*
X70269100Y-135516248D01*
X70269100Y-131222477D01*
X71576840Y-131222477D01*
X71893259Y-131988270D01*
X72478648Y-132574682D01*
X73243888Y-132892437D01*
X74072477Y-132893160D01*
X74838270Y-132576741D01*
X75424682Y-131991352D01*
X75742437Y-131226112D01*
X75743160Y-130397523D01*
X75426741Y-129631730D01*
X74841352Y-129045318D01*
X74076112Y-128727563D01*
X73247523Y-128726840D01*
X72481730Y-129043259D01*
X71895318Y-129628648D01*
X71577563Y-130393888D01*
X71576840Y-131222477D01*
X70269100Y-131222477D01*
X70269100Y-91531172D01*
X88849200Y-91531172D01*
X88849200Y-92618828D01*
X88949740Y-93124276D01*
X89230200Y-93544015D01*
X89230200Y-93855280D01*
X89047738Y-94128354D01*
X88976200Y-94488000D01*
X88976200Y-95219982D01*
X88970229Y-95250000D01*
X88970229Y-97790000D01*
X88993885Y-97908927D01*
X89061252Y-98009748D01*
X89162073Y-98077115D01*
X89281000Y-98100771D01*
X90551000Y-98100771D01*
X90669927Y-98077115D01*
X90770748Y-98009748D01*
X90838115Y-97908927D01*
X90861771Y-97790000D01*
X90861771Y-96824800D01*
X91719400Y-96824800D01*
X91719400Y-97911257D01*
X91812206Y-98135311D01*
X91983689Y-98306794D01*
X92207743Y-98399600D01*
X92659200Y-98399600D01*
X92811600Y-98247200D01*
X92811600Y-96672400D01*
X91871800Y-96672400D01*
X91719400Y-96824800D01*
X90861771Y-96824800D01*
X90861771Y-95250000D01*
X90855800Y-95219982D01*
X90855800Y-95128743D01*
X91719400Y-95128743D01*
X91719400Y-96215200D01*
X91871800Y-96367600D01*
X92811600Y-96367600D01*
X92811600Y-94792800D01*
X93116400Y-94792800D01*
X93116400Y-96367600D01*
X94056200Y-96367600D01*
X94208600Y-96215200D01*
X94208600Y-95128743D01*
X94115794Y-94904689D01*
X93944311Y-94733206D01*
X93720257Y-94640400D01*
X93268800Y-94640400D01*
X93116400Y-94792800D01*
X92811600Y-94792800D01*
X92659200Y-94640400D01*
X92207743Y-94640400D01*
X91983689Y-94733206D01*
X91812206Y-94904689D01*
X91719400Y-95128743D01*
X90855800Y-95128743D01*
X90855800Y-94993720D01*
X91038262Y-94720646D01*
X91109800Y-94361000D01*
X91109800Y-93544015D01*
X91258970Y-93320766D01*
X91266462Y-93345889D01*
X91668290Y-93840236D01*
X92228709Y-94143180D01*
X92306297Y-94157674D01*
X92557600Y-94048296D01*
X92557600Y-92227400D01*
X92537600Y-92227400D01*
X92537600Y-91922600D01*
X92557600Y-91922600D01*
X92557600Y-90101704D01*
X92306297Y-89992326D01*
X92228709Y-90006820D01*
X91668290Y-90309764D01*
X91266462Y-90804111D01*
X91258970Y-90829234D01*
X91103947Y-90597225D01*
X90675448Y-90310912D01*
X90170000Y-90210372D01*
X89664552Y-90310912D01*
X89236053Y-90597225D01*
X88949740Y-91025724D01*
X88849200Y-91531172D01*
X70269100Y-91531172D01*
X70269100Y-80422477D01*
X71576840Y-80422477D01*
X71893259Y-81188270D01*
X72478648Y-81774682D01*
X73243888Y-82092437D01*
X74072477Y-82093160D01*
X74838270Y-81776741D01*
X75424682Y-81191352D01*
X75742437Y-80426112D01*
X75743160Y-79597523D01*
X75426741Y-78831730D01*
X74841352Y-78245318D01*
X74076112Y-77927563D01*
X73247523Y-77926840D01*
X72481730Y-78243259D01*
X71895318Y-78828648D01*
X71577563Y-79593888D01*
X71576840Y-80422477D01*
X70269100Y-80422477D01*
X70269100Y-73660000D01*
X71152129Y-73660000D01*
X71152129Y-76200000D01*
X71175785Y-76318927D01*
X71243152Y-76419748D01*
X71343973Y-76487115D01*
X71462900Y-76510771D01*
X73317100Y-76510771D01*
X73436027Y-76487115D01*
X73536848Y-76419748D01*
X73604215Y-76318927D01*
X73627871Y-76200000D01*
X73627871Y-76073898D01*
X73951152Y-76467274D01*
X74482730Y-76750947D01*
X74540269Y-76759357D01*
X74777600Y-76648785D01*
X74777600Y-75082400D01*
X74757600Y-75082400D01*
X74757600Y-74777600D01*
X74777600Y-74777600D01*
X74777600Y-73211215D01*
X75082400Y-73211215D01*
X75082400Y-74777600D01*
X75102400Y-74777600D01*
X75102400Y-75082400D01*
X75082400Y-75082400D01*
X75082400Y-76648785D01*
X75319731Y-76759357D01*
X75377270Y-76750947D01*
X75908848Y-76467274D01*
X76291405Y-76001769D01*
X76351414Y-75804425D01*
X76598915Y-76174837D01*
X76998572Y-76441879D01*
X77470000Y-76535652D01*
X77941428Y-76441879D01*
X78341085Y-76174837D01*
X78608127Y-75775180D01*
X78701900Y-75303752D01*
X78701900Y-74556248D01*
X78778100Y-74556248D01*
X78778100Y-75303752D01*
X78871873Y-75775180D01*
X79138915Y-76174837D01*
X79538572Y-76441879D01*
X80010000Y-76535652D01*
X80481428Y-76441879D01*
X80881085Y-76174837D01*
X81148127Y-75775180D01*
X81241900Y-75303752D01*
X81241900Y-74556248D01*
X81318100Y-74556248D01*
X81318100Y-75303752D01*
X81411873Y-75775180D01*
X81678915Y-76174837D01*
X82078572Y-76441879D01*
X82550000Y-76535652D01*
X83021428Y-76441879D01*
X83421085Y-76174837D01*
X83688127Y-75775180D01*
X83781900Y-75303752D01*
X83781900Y-74556248D01*
X83858100Y-74556248D01*
X83858100Y-75303752D01*
X83951873Y-75775180D01*
X84218915Y-76174837D01*
X84618572Y-76441879D01*
X85090000Y-76535652D01*
X85561428Y-76441879D01*
X85961085Y-76174837D01*
X86228127Y-75775180D01*
X86321900Y-75303752D01*
X86321900Y-74556248D01*
X86398100Y-74556248D01*
X86398100Y-75303752D01*
X86491873Y-75775180D01*
X86758915Y-76174837D01*
X87158572Y-76441879D01*
X87630000Y-76535652D01*
X88101428Y-76441879D01*
X88501085Y-76174837D01*
X88768127Y-75775180D01*
X88861900Y-75303752D01*
X88861900Y-74556248D01*
X88768127Y-74084820D01*
X88501085Y-73685163D01*
X88101428Y-73418121D01*
X87630000Y-73324348D01*
X87158572Y-73418121D01*
X86758915Y-73685163D01*
X86491873Y-74084820D01*
X86398100Y-74556248D01*
X86321900Y-74556248D01*
X86228127Y-74084820D01*
X85961085Y-73685163D01*
X85561428Y-73418121D01*
X85090000Y-73324348D01*
X84618572Y-73418121D01*
X84218915Y-73685163D01*
X83951873Y-74084820D01*
X83858100Y-74556248D01*
X83781900Y-74556248D01*
X83688127Y-74084820D01*
X83421085Y-73685163D01*
X83021428Y-73418121D01*
X82550000Y-73324348D01*
X82078572Y-73418121D01*
X81678915Y-73685163D01*
X81411873Y-74084820D01*
X81318100Y-74556248D01*
X81241900Y-74556248D01*
X81148127Y-74084820D01*
X80881085Y-73685163D01*
X80481428Y-73418121D01*
X80010000Y-73324348D01*
X79538572Y-73418121D01*
X79138915Y-73685163D01*
X78871873Y-74084820D01*
X78778100Y-74556248D01*
X78701900Y-74556248D01*
X78608127Y-74084820D01*
X78341085Y-73685163D01*
X77941428Y-73418121D01*
X77470000Y-73324348D01*
X76998572Y-73418121D01*
X76598915Y-73685163D01*
X76351414Y-74055575D01*
X76291405Y-73858231D01*
X75908848Y-73392726D01*
X75377270Y-73109053D01*
X75319731Y-73100643D01*
X75082400Y-73211215D01*
X74777600Y-73211215D01*
X74540269Y-73100643D01*
X74482730Y-73109053D01*
X73951152Y-73392726D01*
X73627871Y-73786102D01*
X73627871Y-73660000D01*
X73604215Y-73541073D01*
X73536848Y-73440252D01*
X73436027Y-73372885D01*
X73317100Y-73349229D01*
X71462900Y-73349229D01*
X71343973Y-73372885D01*
X71243152Y-73440252D01*
X71175785Y-73541073D01*
X71152129Y-73660000D01*
X70269100Y-73660000D01*
X70269100Y-72174100D01*
X190715900Y-72174100D01*
X190715900Y-138645900D01*
X190715900Y-138645900D01*
G37*
X190715900Y-138645900D02*
X70269100Y-138645900D01*
X70269100Y-135516248D01*
X71158100Y-135516248D01*
X71158100Y-136263752D01*
X71251873Y-136735180D01*
X71518915Y-137134837D01*
X71918572Y-137401879D01*
X72390000Y-137495652D01*
X72861428Y-137401879D01*
X73261085Y-137134837D01*
X73528127Y-136735180D01*
X73621900Y-136263752D01*
X73621900Y-135516248D01*
X73698100Y-135516248D01*
X73698100Y-136263752D01*
X73791873Y-136735180D01*
X74058915Y-137134837D01*
X74458572Y-137401879D01*
X74930000Y-137495652D01*
X75401428Y-137401879D01*
X75801085Y-137134837D01*
X76068127Y-136735180D01*
X76161900Y-136263752D01*
X76161900Y-135516248D01*
X76238100Y-135516248D01*
X76238100Y-136263752D01*
X76331873Y-136735180D01*
X76598915Y-137134837D01*
X76998572Y-137401879D01*
X77470000Y-137495652D01*
X77941428Y-137401879D01*
X78341085Y-137134837D01*
X78608127Y-136735180D01*
X78701900Y-136263752D01*
X78701900Y-135516248D01*
X78778100Y-135516248D01*
X78778100Y-136263752D01*
X78871873Y-136735180D01*
X79138915Y-137134837D01*
X79538572Y-137401879D01*
X80010000Y-137495652D01*
X80481428Y-137401879D01*
X80881085Y-137134837D01*
X81148127Y-136735180D01*
X81225664Y-136345377D01*
X81330200Y-136324584D01*
X81411873Y-136735180D01*
X81678915Y-137134837D01*
X82078572Y-137401879D01*
X82550000Y-137495652D01*
X83021428Y-137401879D01*
X83421085Y-137134837D01*
X83688127Y-136735180D01*
X83781900Y-136263752D01*
X83781900Y-135516248D01*
X83858100Y-135516248D01*
X83858100Y-136263752D01*
X83951873Y-136735180D01*
X84218915Y-137134837D01*
X84618572Y-137401879D01*
X85090000Y-137495652D01*
X85561428Y-137401879D01*
X85961085Y-137134837D01*
X86228127Y-136735180D01*
X86321900Y-136263752D01*
X86321900Y-135516248D01*
X86398100Y-135516248D01*
X86398100Y-136263752D01*
X86491873Y-136735180D01*
X86758915Y-137134837D01*
X87158572Y-137401879D01*
X87630000Y-137495652D01*
X88101428Y-137401879D01*
X88501085Y-137134837D01*
X88768127Y-136735180D01*
X88861900Y-136263752D01*
X88861900Y-135516248D01*
X88938100Y-135516248D01*
X88938100Y-136263752D01*
X89031873Y-136735180D01*
X89298915Y-137134837D01*
X89698572Y-137401879D01*
X90170000Y-137495652D01*
X90641428Y-137401879D01*
X91041085Y-137134837D01*
X91308127Y-136735180D01*
X91401900Y-136263752D01*
X91401900Y-135516248D01*
X91478100Y-135516248D01*
X91478100Y-136263752D01*
X91571873Y-136735180D01*
X91838915Y-137134837D01*
X92238572Y-137401879D01*
X92710000Y-137495652D01*
X93181428Y-137401879D01*
X93581085Y-137134837D01*
X93848127Y-136735180D01*
X93941900Y-136263752D01*
X93941900Y-135516248D01*
X94018100Y-135516248D01*
X94018100Y-136263752D01*
X94111873Y-136735180D01*
X94378915Y-137134837D01*
X94778572Y-137401879D01*
X95250000Y-137495652D01*
X95721428Y-137401879D01*
X96121085Y-137134837D01*
X96388127Y-136735180D01*
X96481900Y-136263752D01*
X96481900Y-135516248D01*
X96558100Y-135516248D01*
X96558100Y-136263752D01*
X96651873Y-136735180D01*
X96918915Y-137134837D01*
X97318572Y-137401879D01*
X97790000Y-137495652D01*
X98261428Y-137401879D01*
X98661085Y-137134837D01*
X98928127Y-136735180D01*
X99021900Y-136263752D01*
X99021900Y-135516248D01*
X98928127Y-135044820D01*
X98661085Y-134645163D01*
X98261428Y-134378121D01*
X97790000Y-134284348D01*
X97318572Y-134378121D01*
X96918915Y-134645163D01*
X96651873Y-135044820D01*
X96558100Y-135516248D01*
X96481900Y-135516248D01*
X96388127Y-135044820D01*
X96121085Y-134645163D01*
X95721428Y-134378121D01*
X95250000Y-134284348D01*
X94778572Y-134378121D01*
X94378915Y-134645163D01*
X94111873Y-135044820D01*
X94018100Y-135516248D01*
X93941900Y-135516248D01*
X93848127Y-135044820D01*
X93581085Y-134645163D01*
X93181428Y-134378121D01*
X92710000Y-134284348D01*
X92238572Y-134378121D01*
X91838915Y-134645163D01*
X91571873Y-135044820D01*
X91478100Y-135516248D01*
X91401900Y-135516248D01*
X91308127Y-135044820D01*
X91041085Y-134645163D01*
X90641428Y-134378121D01*
X90170000Y-134284348D01*
X89698572Y-134378121D01*
X89298915Y-134645163D01*
X89031873Y-135044820D01*
X88938100Y-135516248D01*
X88861900Y-135516248D01*
X88768127Y-135044820D01*
X88501085Y-134645163D01*
X88101428Y-134378121D01*
X87630000Y-134284348D01*
X87158572Y-134378121D01*
X86758915Y-134645163D01*
X86491873Y-135044820D01*
X86398100Y-135516248D01*
X86321900Y-135516248D01*
X86228127Y-135044820D01*
X85961085Y-134645163D01*
X85561428Y-134378121D01*
X85090000Y-134284348D01*
X84618572Y-134378121D01*
X84218915Y-134645163D01*
X83951873Y-135044820D01*
X83858100Y-135516248D01*
X83781900Y-135516248D01*
X83688127Y-135044820D01*
X83421085Y-134645163D01*
X83021428Y-134378121D01*
X82701162Y-134314416D01*
X87069178Y-129946400D01*
X91936422Y-129946400D01*
X92107311Y-130117289D01*
X92255637Y-130216398D01*
X92399229Y-130244960D01*
X92399229Y-130429000D01*
X92422885Y-130547927D01*
X92490252Y-130648748D01*
X92591073Y-130716115D01*
X92710000Y-130739771D01*
X95250000Y-130739771D01*
X95368927Y-130716115D01*
X95469748Y-130648748D01*
X95537115Y-130547927D01*
X95553645Y-130464824D01*
X95825911Y-130737090D01*
X95952988Y-130822000D01*
X95974237Y-130836198D01*
X96149200Y-130871000D01*
X98870622Y-130871000D01*
X101142800Y-133143179D01*
X101142800Y-134606218D01*
X100801428Y-134378121D01*
X100330000Y-134284348D01*
X99858572Y-134378121D01*
X99458915Y-134645163D01*
X99191873Y-135044820D01*
X99098100Y-135516248D01*
X99098100Y-136263752D01*
X99191873Y-136735180D01*
X99458915Y-137134837D01*
X99858572Y-137401879D01*
X100330000Y-137495652D01*
X100801428Y-137401879D01*
X101201085Y-137134837D01*
X101277939Y-137019817D01*
X102494611Y-138236489D01*
X102642937Y-138335598D01*
X102817900Y-138370400D01*
X110483300Y-138370400D01*
X110658263Y-138335598D01*
X110806589Y-138236489D01*
X112058510Y-136984569D01*
X112158915Y-137134837D01*
X112558572Y-137401879D01*
X113030000Y-137495652D01*
X113501428Y-137401879D01*
X113901085Y-137134837D01*
X114168127Y-136735180D01*
X114261900Y-136263752D01*
X114261900Y-135516248D01*
X114338100Y-135516248D01*
X114338100Y-136263752D01*
X114431873Y-136735180D01*
X114698915Y-137134837D01*
X115098572Y-137401879D01*
X115570000Y-137495652D01*
X116041428Y-137401879D01*
X116441085Y-137134837D01*
X116708127Y-136735180D01*
X116801900Y-136263752D01*
X116801900Y-135516248D01*
X116878100Y-135516248D01*
X116878100Y-136263752D01*
X116971873Y-136735180D01*
X117238915Y-137134837D01*
X117638572Y-137401879D01*
X118110000Y-137495652D01*
X118581428Y-137401879D01*
X118981085Y-137134837D01*
X119248127Y-136735180D01*
X119341900Y-136263752D01*
X119341900Y-135516248D01*
X119418100Y-135516248D01*
X119418100Y-136263752D01*
X119511873Y-136735180D01*
X119778915Y-137134837D01*
X120178572Y-137401879D01*
X120650000Y-137495652D01*
X121121428Y-137401879D01*
X121521085Y-137134837D01*
X121788127Y-136735180D01*
X121881900Y-136263752D01*
X121881900Y-135516248D01*
X121958100Y-135516248D01*
X121958100Y-136263752D01*
X122051873Y-136735180D01*
X122318915Y-137134837D01*
X122718572Y-137401879D01*
X123190000Y-137495652D01*
X123661428Y-137401879D01*
X124061085Y-137134837D01*
X124328127Y-136735180D01*
X124421900Y-136263752D01*
X124421900Y-135516248D01*
X124498100Y-135516248D01*
X124498100Y-136263752D01*
X124591873Y-136735180D01*
X124858915Y-137134837D01*
X125258572Y-137401879D01*
X125730000Y-137495652D01*
X126201428Y-137401879D01*
X126601085Y-137134837D01*
X126868127Y-136735180D01*
X126961900Y-136263752D01*
X126961900Y-135516248D01*
X127038100Y-135516248D01*
X127038100Y-136263752D01*
X127131873Y-136735180D01*
X127398915Y-137134837D01*
X127798572Y-137401879D01*
X128270000Y-137495652D01*
X128741428Y-137401879D01*
X129141085Y-137134837D01*
X129408127Y-136735180D01*
X129501900Y-136263752D01*
X129501900Y-135516248D01*
X129578100Y-135516248D01*
X129578100Y-136263752D01*
X129671873Y-136735180D01*
X129938915Y-137134837D01*
X130338572Y-137401879D01*
X130810000Y-137495652D01*
X131281428Y-137401879D01*
X131681085Y-137134837D01*
X131948127Y-136735180D01*
X132041900Y-136263752D01*
X132041900Y-135516248D01*
X132118100Y-135516248D01*
X132118100Y-136263752D01*
X132211873Y-136735180D01*
X132478915Y-137134837D01*
X132878572Y-137401879D01*
X133350000Y-137495652D01*
X133821428Y-137401879D01*
X134221085Y-137134837D01*
X134488127Y-136735180D01*
X134574197Y-136302477D01*
X163016840Y-136302477D01*
X163333259Y-137068270D01*
X163918648Y-137654682D01*
X164683888Y-137972437D01*
X165512477Y-137973160D01*
X166278270Y-137656741D01*
X166864682Y-137071352D01*
X167182437Y-136306112D01*
X167183160Y-135477523D01*
X166866741Y-134711730D01*
X166281352Y-134125318D01*
X165516112Y-133807563D01*
X164687523Y-133806840D01*
X163921730Y-134123259D01*
X163335318Y-134708648D01*
X163017563Y-135473888D01*
X163016840Y-136302477D01*
X134574197Y-136302477D01*
X134581900Y-136263752D01*
X134581900Y-135516248D01*
X134488127Y-135044820D01*
X134221085Y-134645163D01*
X133821428Y-134378121D01*
X133350000Y-134284348D01*
X132878572Y-134378121D01*
X132478915Y-134645163D01*
X132211873Y-135044820D01*
X132118100Y-135516248D01*
X132041900Y-135516248D01*
X131948127Y-135044820D01*
X131681085Y-134645163D01*
X131281428Y-134378121D01*
X130810000Y-134284348D01*
X130338572Y-134378121D01*
X129938915Y-134645163D01*
X129671873Y-135044820D01*
X129578100Y-135516248D01*
X129501900Y-135516248D01*
X129408127Y-135044820D01*
X129141085Y-134645163D01*
X128741428Y-134378121D01*
X128270000Y-134284348D01*
X127798572Y-134378121D01*
X127398915Y-134645163D01*
X127131873Y-135044820D01*
X127038100Y-135516248D01*
X126961900Y-135516248D01*
X126868127Y-135044820D01*
X126601085Y-134645163D01*
X126201428Y-134378121D01*
X125730000Y-134284348D01*
X125258572Y-134378121D01*
X124858915Y-134645163D01*
X124591873Y-135044820D01*
X124498100Y-135516248D01*
X124421900Y-135516248D01*
X124328127Y-135044820D01*
X124061085Y-134645163D01*
X123661428Y-134378121D01*
X123190000Y-134284348D01*
X122718572Y-134378121D01*
X122318915Y-134645163D01*
X122051873Y-135044820D01*
X121958100Y-135516248D01*
X121881900Y-135516248D01*
X121788127Y-135044820D01*
X121521085Y-134645163D01*
X121121428Y-134378121D01*
X120650000Y-134284348D01*
X120178572Y-134378121D01*
X119778915Y-134645163D01*
X119511873Y-135044820D01*
X119418100Y-135516248D01*
X119341900Y-135516248D01*
X119248127Y-135044820D01*
X118981085Y-134645163D01*
X118581428Y-134378121D01*
X118110000Y-134284348D01*
X117638572Y-134378121D01*
X117238915Y-134645163D01*
X116971873Y-135044820D01*
X116878100Y-135516248D01*
X116801900Y-135516248D01*
X116708127Y-135044820D01*
X116441085Y-134645163D01*
X116041428Y-134378121D01*
X115570000Y-134284348D01*
X115098572Y-134378121D01*
X114698915Y-134645163D01*
X114431873Y-135044820D01*
X114338100Y-135516248D01*
X114261900Y-135516248D01*
X114168127Y-135044820D01*
X113901085Y-134645163D01*
X113501428Y-134378121D01*
X113228872Y-134323906D01*
X117301578Y-130251200D01*
X125419229Y-130251200D01*
X125419229Y-130429000D01*
X125442885Y-130547927D01*
X125510252Y-130648748D01*
X125611073Y-130716115D01*
X125730000Y-130739771D01*
X128270000Y-130739771D01*
X128388927Y-130716115D01*
X128489748Y-130648748D01*
X128557115Y-130547927D01*
X128580771Y-130429000D01*
X128580771Y-130244960D01*
X128724363Y-130216398D01*
X128872689Y-130117289D01*
X128937078Y-130052900D01*
X129484411Y-130052900D01*
X130576698Y-131145276D01*
X130576706Y-131145281D01*
X130576711Y-131145289D01*
X130650470Y-131194573D01*
X130725020Y-131244391D01*
X130725029Y-131244393D01*
X130725037Y-131244398D01*
X130810599Y-131261417D01*
X130899981Y-131279200D01*
X130899991Y-131279198D01*
X130900000Y-131279200D01*
X159906400Y-131279200D01*
X160081363Y-131244398D01*
X160229689Y-131145289D01*
X160343289Y-131031689D01*
X160442398Y-130883363D01*
X160470960Y-130739771D01*
X161290000Y-130739771D01*
X161408927Y-130716115D01*
X161509748Y-130648748D01*
X161577115Y-130547927D01*
X161593645Y-130464824D01*
X161865911Y-130737090D01*
X162014237Y-130836198D01*
X162189200Y-130871000D01*
X165735000Y-130871000D01*
X165909963Y-130836198D01*
X166058289Y-130737089D01*
X166157398Y-130588763D01*
X166192200Y-130413800D01*
X166192200Y-130382137D01*
X166209980Y-130370257D01*
X166286633Y-130421475D01*
X166405560Y-130445131D01*
X166964360Y-130445131D01*
X167083287Y-130421475D01*
X167184108Y-130354108D01*
X167251475Y-130253287D01*
X167275131Y-130134360D01*
X167275131Y-128981200D01*
X168137200Y-128981200D01*
X168312163Y-128946398D01*
X168460489Y-128847289D01*
X172605689Y-124702089D01*
X172704798Y-124553763D01*
X172739600Y-124378800D01*
X172739600Y-123237600D01*
X172704798Y-123062637D01*
X172605689Y-122914311D01*
X159597178Y-109905800D01*
X183230667Y-109905800D01*
X183389211Y-110702853D01*
X183840705Y-111378562D01*
X184516414Y-111830056D01*
X185313467Y-111988600D01*
X186948933Y-111988600D01*
X187745986Y-111830056D01*
X188421695Y-111378562D01*
X188873189Y-110702853D01*
X189031733Y-109905800D01*
X188873189Y-109108747D01*
X188421695Y-108433038D01*
X187745986Y-107981544D01*
X186948933Y-107823000D01*
X185313467Y-107823000D01*
X184516414Y-107981544D01*
X183840705Y-108433038D01*
X183389211Y-109108747D01*
X183230667Y-109905800D01*
X159597178Y-109905800D01*
X158597089Y-108905711D01*
X158448763Y-108806602D01*
X158273800Y-108771800D01*
X117109878Y-108771800D01*
X118846078Y-107035600D01*
X140970000Y-107035600D01*
X141144963Y-107000798D01*
X141293289Y-106901689D01*
X141392398Y-106753363D01*
X141427200Y-106578400D01*
X141427200Y-106548685D01*
X141475448Y-106539088D01*
X141903947Y-106252775D01*
X142190260Y-105824276D01*
X142290800Y-105318828D01*
X142290800Y-104231172D01*
X142190260Y-103725724D01*
X141991862Y-103428800D01*
X146457022Y-103428800D01*
X149929910Y-106901689D01*
X150062862Y-106990525D01*
X150078237Y-107000798D01*
X150253200Y-107035600D01*
X166370000Y-107035600D01*
X166544963Y-107000798D01*
X166693289Y-106901689D01*
X166792398Y-106753363D01*
X166827200Y-106578400D01*
X166827200Y-106548685D01*
X166875448Y-106539088D01*
X167303947Y-106252775D01*
X167590260Y-105824276D01*
X167640000Y-105574216D01*
X167689740Y-105824276D01*
X167976053Y-106252775D01*
X168404552Y-106539088D01*
X168910000Y-106639628D01*
X169415448Y-106539088D01*
X169843947Y-106252775D01*
X170130260Y-105824276D01*
X170180000Y-105574216D01*
X170229740Y-105824276D01*
X170516053Y-106252775D01*
X170944552Y-106539088D01*
X171450000Y-106639628D01*
X171955448Y-106539088D01*
X172383947Y-106252775D01*
X172670260Y-105824276D01*
X172720000Y-105574216D01*
X172769740Y-105824276D01*
X173056053Y-106252775D01*
X173484552Y-106539088D01*
X173990000Y-106639628D01*
X174495448Y-106539088D01*
X174923947Y-106252775D01*
X175210260Y-105824276D01*
X175310800Y-105318828D01*
X175310800Y-104231172D01*
X175210260Y-103725724D01*
X174923947Y-103297225D01*
X174495448Y-103010912D01*
X173990000Y-102910372D01*
X173484552Y-103010912D01*
X173056053Y-103297225D01*
X172769740Y-103725724D01*
X172720000Y-103975784D01*
X172670260Y-103725724D01*
X172383947Y-103297225D01*
X171955448Y-103010912D01*
X171450000Y-102910372D01*
X170944552Y-103010912D01*
X170516053Y-103297225D01*
X170229740Y-103725724D01*
X170180000Y-103975784D01*
X170130260Y-103725724D01*
X169843947Y-103297225D01*
X169415448Y-103010912D01*
X168910000Y-102910372D01*
X168404552Y-103010912D01*
X167976053Y-103297225D01*
X167689740Y-103725724D01*
X167640000Y-103975784D01*
X167590260Y-103725724D01*
X167303947Y-103297225D01*
X166875448Y-103010912D01*
X166370000Y-102910372D01*
X165864552Y-103010912D01*
X165436053Y-103297225D01*
X165149740Y-103725724D01*
X165100000Y-103975784D01*
X165050260Y-103725724D01*
X164763947Y-103297225D01*
X164335448Y-103010912D01*
X163830000Y-102910372D01*
X163324552Y-103010912D01*
X162896053Y-103297225D01*
X162609740Y-103725724D01*
X162560000Y-103975784D01*
X162510260Y-103725724D01*
X162223947Y-103297225D01*
X161795448Y-103010912D01*
X161290000Y-102910372D01*
X160784552Y-103010912D01*
X160356053Y-103297225D01*
X160069740Y-103725724D01*
X160020000Y-103975784D01*
X159970260Y-103725724D01*
X159683947Y-103297225D01*
X159255448Y-103010912D01*
X158750000Y-102910372D01*
X158244552Y-103010912D01*
X157816053Y-103297225D01*
X157529740Y-103725724D01*
X157480000Y-103975784D01*
X157430260Y-103725724D01*
X157143947Y-103297225D01*
X156715448Y-103010912D01*
X156667200Y-103001315D01*
X156667200Y-102971600D01*
X156632398Y-102796637D01*
X156533289Y-102648311D01*
X154863800Y-100978822D01*
X154863800Y-96999800D01*
X154828998Y-96824837D01*
X154729889Y-96676511D01*
X149584550Y-91531172D01*
X154889200Y-91531172D01*
X154889200Y-92618828D01*
X154989740Y-93124276D01*
X155270200Y-93544015D01*
X155270200Y-93855280D01*
X155087738Y-94128354D01*
X155016200Y-94488000D01*
X155016200Y-95219982D01*
X155010229Y-95250000D01*
X155010229Y-97790000D01*
X155033885Y-97908927D01*
X155101252Y-98009748D01*
X155202073Y-98077115D01*
X155321000Y-98100771D01*
X156467119Y-98100771D01*
X156484738Y-98189346D01*
X156688461Y-98494239D01*
X157435261Y-99241039D01*
X157740154Y-99444762D01*
X158099800Y-99516300D01*
X175236500Y-99516300D01*
X175596146Y-99444762D01*
X175901039Y-99241039D01*
X176797278Y-98344800D01*
X176859229Y-98344800D01*
X176859229Y-99885000D01*
X176882885Y-100003927D01*
X176950252Y-100104748D01*
X177051073Y-100172115D01*
X177133350Y-100188481D01*
X177086073Y-100197885D01*
X176985252Y-100265252D01*
X176917885Y-100366073D01*
X176894229Y-100485000D01*
X176894229Y-101925000D01*
X176917885Y-102043927D01*
X176985252Y-102144748D01*
X177086073Y-102212115D01*
X177205000Y-102235771D01*
X178206200Y-102235771D01*
X178206200Y-102717911D01*
X177493833Y-103193900D01*
X176987278Y-103952012D01*
X176809400Y-104846267D01*
X176809400Y-105973733D01*
X176987278Y-106867988D01*
X177493833Y-107626100D01*
X178251945Y-108132655D01*
X179146200Y-108310533D01*
X180040455Y-108132655D01*
X180798567Y-107626100D01*
X181305122Y-106867988D01*
X181483000Y-105973733D01*
X181483000Y-105933265D01*
X181795045Y-105933265D01*
X181860425Y-106182896D01*
X182328549Y-106990525D01*
X183070106Y-107557534D01*
X183972200Y-107797600D01*
X184480200Y-107797600D01*
X184480200Y-105562400D01*
X181894602Y-105562400D01*
X181795045Y-105933265D01*
X181483000Y-105933265D01*
X181483000Y-104886735D01*
X181795045Y-104886735D01*
X181894602Y-105257600D01*
X184480200Y-105257600D01*
X184480200Y-103022400D01*
X184785000Y-103022400D01*
X184785000Y-105257600D01*
X184805000Y-105257600D01*
X184805000Y-105562400D01*
X184785000Y-105562400D01*
X184785000Y-107797600D01*
X185293000Y-107797600D01*
X186195094Y-107557534D01*
X186936651Y-106990525D01*
X187298277Y-106366632D01*
X187417463Y-106486026D01*
X187884073Y-106679779D01*
X188389310Y-106680220D01*
X188856258Y-106487282D01*
X189213826Y-106130337D01*
X189407579Y-105663727D01*
X189408020Y-105158490D01*
X189215082Y-104691542D01*
X188858137Y-104333974D01*
X188391527Y-104140221D01*
X187886290Y-104139780D01*
X187419342Y-104332718D01*
X187298352Y-104453498D01*
X186936651Y-103829475D01*
X186195094Y-103262466D01*
X185293000Y-103022400D01*
X184785000Y-103022400D01*
X184480200Y-103022400D01*
X183972200Y-103022400D01*
X183070106Y-103262466D01*
X182328549Y-103829475D01*
X181860425Y-104637104D01*
X181795045Y-104886735D01*
X181483000Y-104886735D01*
X181483000Y-104846267D01*
X181305122Y-103952012D01*
X180798567Y-103193900D01*
X180085800Y-102717644D01*
X180085800Y-102235771D01*
X180935000Y-102235771D01*
X181053927Y-102212115D01*
X181154748Y-102144748D01*
X181222115Y-102043927D01*
X181245771Y-101925000D01*
X181245771Y-100914200D01*
X183230667Y-100914200D01*
X183389211Y-101711253D01*
X183840705Y-102386962D01*
X184516414Y-102838456D01*
X185313467Y-102997000D01*
X186948933Y-102997000D01*
X187745986Y-102838456D01*
X188421695Y-102386962D01*
X188873189Y-101711253D01*
X189031733Y-100914200D01*
X188873189Y-100117147D01*
X188421695Y-99441438D01*
X187745986Y-98989944D01*
X186948933Y-98831400D01*
X185313467Y-98831400D01*
X184516414Y-98989944D01*
X183840705Y-99441438D01*
X183389211Y-100117147D01*
X183230667Y-100914200D01*
X181245771Y-100914200D01*
X181245771Y-100485000D01*
X181222115Y-100366073D01*
X181154748Y-100265252D01*
X181053927Y-100197885D01*
X181006650Y-100188481D01*
X181088927Y-100172115D01*
X181189748Y-100104748D01*
X181257115Y-100003927D01*
X181280771Y-99885000D01*
X181280771Y-94925000D01*
X181257115Y-94806073D01*
X181189748Y-94705252D01*
X181088927Y-94637885D01*
X180970000Y-94614229D01*
X177170000Y-94614229D01*
X177051073Y-94637885D01*
X176950252Y-94705252D01*
X176882885Y-94806073D01*
X176859229Y-94925000D01*
X176859229Y-96465200D01*
X176408000Y-96465200D01*
X176048354Y-96536738D01*
X175743461Y-96740461D01*
X174847222Y-97636700D01*
X160248600Y-97636700D01*
X160248600Y-96824800D01*
X160096200Y-96672400D01*
X159156400Y-96672400D01*
X159156400Y-96692400D01*
X158851600Y-96692400D01*
X158851600Y-96672400D01*
X158831600Y-96672400D01*
X158831600Y-96367600D01*
X158851600Y-96367600D01*
X158851600Y-94792800D01*
X159156400Y-94792800D01*
X159156400Y-96367600D01*
X160096200Y-96367600D01*
X160248600Y-96215200D01*
X160248600Y-95128743D01*
X160155794Y-94904689D01*
X159984311Y-94733206D01*
X159760257Y-94640400D01*
X159308800Y-94640400D01*
X159156400Y-94792800D01*
X158851600Y-94792800D01*
X158699200Y-94640400D01*
X158247743Y-94640400D01*
X158023689Y-94733206D01*
X157852206Y-94904689D01*
X157759400Y-95128743D01*
X157759400Y-95682978D01*
X157712646Y-95651738D01*
X157353000Y-95580200D01*
X156901771Y-95580200D01*
X156901771Y-95250000D01*
X156895800Y-95219982D01*
X156895800Y-94993720D01*
X157078262Y-94720646D01*
X157149800Y-94361000D01*
X157149800Y-93544015D01*
X157298970Y-93320766D01*
X157306462Y-93345889D01*
X157708290Y-93840236D01*
X158268709Y-94143180D01*
X158346297Y-94157674D01*
X158597600Y-94048296D01*
X158597600Y-92227400D01*
X158577600Y-92227400D01*
X158577600Y-91922600D01*
X158597600Y-91922600D01*
X158597600Y-90101704D01*
X158346297Y-89992326D01*
X158268709Y-90006820D01*
X157708290Y-90309764D01*
X157306462Y-90804111D01*
X157298970Y-90829234D01*
X157143947Y-90597225D01*
X156715448Y-90310912D01*
X156210000Y-90210372D01*
X155704552Y-90310912D01*
X155276053Y-90597225D01*
X154989740Y-91025724D01*
X154889200Y-91531172D01*
X149584550Y-91531172D01*
X142820251Y-84766873D01*
X155904927Y-84766873D01*
X156144171Y-85345887D01*
X156586783Y-85789272D01*
X157165379Y-86029526D01*
X157725937Y-86030015D01*
X160350200Y-88654278D01*
X160350200Y-90605985D01*
X160201030Y-90829234D01*
X160193538Y-90804111D01*
X159791710Y-90309764D01*
X159231291Y-90006820D01*
X159153703Y-89992326D01*
X158902400Y-90101704D01*
X158902400Y-91922600D01*
X158922400Y-91922600D01*
X158922400Y-92227400D01*
X158902400Y-92227400D01*
X158902400Y-94048296D01*
X159153703Y-94157674D01*
X159231291Y-94143180D01*
X159791710Y-93840236D01*
X160193538Y-93345889D01*
X160201030Y-93320766D01*
X160356053Y-93552775D01*
X160784552Y-93839088D01*
X161290000Y-93939628D01*
X161795448Y-93839088D01*
X162223947Y-93552775D01*
X162510260Y-93124276D01*
X162560000Y-92874216D01*
X162609740Y-93124276D01*
X162896053Y-93552775D01*
X163324552Y-93839088D01*
X163830000Y-93939628D01*
X164335448Y-93839088D01*
X164763947Y-93552775D01*
X165050260Y-93124276D01*
X165100000Y-92874216D01*
X165149740Y-93124276D01*
X165436053Y-93552775D01*
X165864552Y-93839088D01*
X166370000Y-93939628D01*
X166875448Y-93839088D01*
X167303947Y-93552775D01*
X167590260Y-93124276D01*
X167640000Y-92874216D01*
X167689740Y-93124276D01*
X167976053Y-93552775D01*
X168404552Y-93839088D01*
X168910000Y-93939628D01*
X169415448Y-93839088D01*
X169843947Y-93552775D01*
X170130260Y-93124276D01*
X170180000Y-92874216D01*
X170229740Y-93124276D01*
X170516053Y-93552775D01*
X170944552Y-93839088D01*
X171450000Y-93939628D01*
X171955448Y-93839088D01*
X172383947Y-93552775D01*
X172538970Y-93320766D01*
X172546462Y-93345889D01*
X172948290Y-93840236D01*
X173508709Y-94143180D01*
X173586297Y-94157674D01*
X173837600Y-94048296D01*
X173837600Y-92227400D01*
X174142400Y-92227400D01*
X174142400Y-94048296D01*
X174393703Y-94157674D01*
X174471291Y-94143180D01*
X175031710Y-93840236D01*
X175433538Y-93345889D01*
X175615600Y-92735400D01*
X175615600Y-92227400D01*
X174142400Y-92227400D01*
X173837600Y-92227400D01*
X173817600Y-92227400D01*
X173817600Y-91922600D01*
X173837600Y-91922600D01*
X173837600Y-90101704D01*
X174142400Y-90101704D01*
X174142400Y-91922600D01*
X175615600Y-91922600D01*
X175615600Y-91414600D01*
X175433538Y-90804111D01*
X175031710Y-90309764D01*
X174471291Y-90006820D01*
X174393703Y-89992326D01*
X174142400Y-90101704D01*
X173837600Y-90101704D01*
X173586297Y-89992326D01*
X173508709Y-90006820D01*
X172948290Y-90309764D01*
X172546462Y-90804111D01*
X172538970Y-90829234D01*
X172383947Y-90597225D01*
X171955448Y-90310912D01*
X171450000Y-90210372D01*
X170944552Y-90310912D01*
X170516053Y-90597225D01*
X170229740Y-91025724D01*
X170180000Y-91275784D01*
X170130260Y-91025724D01*
X169843947Y-90597225D01*
X169415448Y-90310912D01*
X168910000Y-90210372D01*
X168404552Y-90310912D01*
X167976053Y-90597225D01*
X167689740Y-91025724D01*
X167640000Y-91275784D01*
X167590260Y-91025724D01*
X167391175Y-90727771D01*
X167745646Y-90657262D01*
X168050539Y-90453539D01*
X172474492Y-86029586D01*
X173031873Y-86030073D01*
X173610887Y-85790829D01*
X174054272Y-85348217D01*
X174294526Y-84769621D01*
X174295073Y-84143127D01*
X174055829Y-83564113D01*
X173613217Y-83120728D01*
X173034621Y-82880474D01*
X172408127Y-82879927D01*
X171829113Y-83119171D01*
X171385728Y-83561783D01*
X171145474Y-84140379D01*
X171144985Y-84700937D01*
X166996722Y-88849200D01*
X166370000Y-88849200D01*
X166010354Y-88920738D01*
X165705461Y-89124461D01*
X165501738Y-89429354D01*
X165430200Y-89789000D01*
X165430200Y-90605985D01*
X165149740Y-91025724D01*
X165100000Y-91275784D01*
X165050260Y-91025724D01*
X164769800Y-90605985D01*
X164769800Y-85725000D01*
X164698262Y-85365354D01*
X164494539Y-85060461D01*
X164200951Y-84766873D01*
X166064927Y-84766873D01*
X166304171Y-85345887D01*
X166746783Y-85789272D01*
X167325379Y-86029526D01*
X167951873Y-86030073D01*
X168530887Y-85790829D01*
X168974272Y-85348217D01*
X169214526Y-84769621D01*
X169215073Y-84143127D01*
X168975829Y-83564113D01*
X168533217Y-83120728D01*
X167954621Y-82880474D01*
X167328127Y-82879927D01*
X166749113Y-83119171D01*
X166305728Y-83561783D01*
X166065474Y-84140379D01*
X166064927Y-84766873D01*
X164200951Y-84766873D01*
X164134586Y-84700508D01*
X164135073Y-84143127D01*
X163895829Y-83564113D01*
X163453217Y-83120728D01*
X162874621Y-82880474D01*
X162248127Y-82879927D01*
X161669113Y-83119171D01*
X161225728Y-83561783D01*
X160985474Y-84140379D01*
X160984927Y-84766873D01*
X161224171Y-85345887D01*
X161666783Y-85789272D01*
X162245379Y-86029526D01*
X162805937Y-86030015D01*
X162890200Y-86114278D01*
X162890200Y-90605985D01*
X162609740Y-91025724D01*
X162560000Y-91275784D01*
X162510260Y-91025724D01*
X162229800Y-90605985D01*
X162229800Y-88265000D01*
X162158262Y-87905354D01*
X161954539Y-87600461D01*
X159054586Y-84700508D01*
X159055073Y-84143127D01*
X158815829Y-83564113D01*
X158373217Y-83120728D01*
X157794621Y-82880474D01*
X157168127Y-82879927D01*
X156589113Y-83119171D01*
X156145728Y-83561783D01*
X155905474Y-84140379D01*
X155904927Y-84766873D01*
X142820251Y-84766873D01*
X134404089Y-76350711D01*
X134255763Y-76251602D01*
X134140508Y-76228677D01*
X134221085Y-76174837D01*
X134488127Y-75775180D01*
X134574197Y-75342477D01*
X163016840Y-75342477D01*
X163333259Y-76108270D01*
X163918648Y-76694682D01*
X164683888Y-77012437D01*
X165512477Y-77013160D01*
X166278270Y-76696741D01*
X166864682Y-76111352D01*
X167182437Y-75346112D01*
X167183160Y-74517523D01*
X166866741Y-73751730D01*
X166281352Y-73165318D01*
X165516112Y-72847563D01*
X164687523Y-72846840D01*
X163921730Y-73163259D01*
X163335318Y-73748648D01*
X163017563Y-74513888D01*
X163016840Y-75342477D01*
X134574197Y-75342477D01*
X134581900Y-75303752D01*
X134581900Y-74556248D01*
X134488127Y-74084820D01*
X134221085Y-73685163D01*
X133821428Y-73418121D01*
X133350000Y-73324348D01*
X132878572Y-73418121D01*
X132478915Y-73685163D01*
X132211873Y-74084820D01*
X132118100Y-74556248D01*
X132118100Y-75303752D01*
X132211873Y-75775180D01*
X132478915Y-76174837D01*
X132541717Y-76216800D01*
X131618283Y-76216800D01*
X131681085Y-76174837D01*
X131948127Y-75775180D01*
X132041900Y-75303752D01*
X132041900Y-74556248D01*
X131948127Y-74084820D01*
X131681085Y-73685163D01*
X131281428Y-73418121D01*
X130810000Y-73324348D01*
X130338572Y-73418121D01*
X129938915Y-73685163D01*
X129671873Y-74084820D01*
X129578100Y-74556248D01*
X129578100Y-75303752D01*
X129671873Y-75775180D01*
X129938915Y-76174837D01*
X130001717Y-76216800D01*
X129078283Y-76216800D01*
X129141085Y-76174837D01*
X129408127Y-75775180D01*
X129501900Y-75303752D01*
X129501900Y-74556248D01*
X129408127Y-74084820D01*
X129141085Y-73685163D01*
X128741428Y-73418121D01*
X128270000Y-73324348D01*
X127798572Y-73418121D01*
X127398915Y-73685163D01*
X127131873Y-74084820D01*
X127038100Y-74556248D01*
X127038100Y-75303752D01*
X127131873Y-75775180D01*
X127398915Y-76174837D01*
X127461717Y-76216800D01*
X126538283Y-76216800D01*
X126601085Y-76174837D01*
X126868127Y-75775180D01*
X126961900Y-75303752D01*
X126961900Y-74556248D01*
X126868127Y-74084820D01*
X126601085Y-73685163D01*
X126201428Y-73418121D01*
X125730000Y-73324348D01*
X125258572Y-73418121D01*
X124858915Y-73685163D01*
X124591873Y-74084820D01*
X124498100Y-74556248D01*
X124498100Y-75303752D01*
X124591873Y-75775180D01*
X124858915Y-76174837D01*
X124921717Y-76216800D01*
X123998283Y-76216800D01*
X124061085Y-76174837D01*
X124328127Y-75775180D01*
X124421900Y-75303752D01*
X124421900Y-74556248D01*
X124328127Y-74084820D01*
X124061085Y-73685163D01*
X123661428Y-73418121D01*
X123190000Y-73324348D01*
X122718572Y-73418121D01*
X122318915Y-73685163D01*
X122051873Y-74084820D01*
X121958100Y-74556248D01*
X121958100Y-75303752D01*
X122051873Y-75775180D01*
X122318915Y-76174837D01*
X122381717Y-76216800D01*
X121458283Y-76216800D01*
X121521085Y-76174837D01*
X121788127Y-75775180D01*
X121881900Y-75303752D01*
X121881900Y-74556248D01*
X121788127Y-74084820D01*
X121521085Y-73685163D01*
X121121428Y-73418121D01*
X120650000Y-73324348D01*
X120178572Y-73418121D01*
X119778915Y-73685163D01*
X119511873Y-74084820D01*
X119418100Y-74556248D01*
X119418100Y-75303752D01*
X119511873Y-75775180D01*
X119778915Y-76174837D01*
X119841717Y-76216800D01*
X118918283Y-76216800D01*
X118981085Y-76174837D01*
X119248127Y-75775180D01*
X119341900Y-75303752D01*
X119341900Y-74556248D01*
X119248127Y-74084820D01*
X118981085Y-73685163D01*
X118581428Y-73418121D01*
X118110000Y-73324348D01*
X117638572Y-73418121D01*
X117238915Y-73685163D01*
X116971873Y-74084820D01*
X116878100Y-74556248D01*
X116878100Y-75303752D01*
X116971873Y-75775180D01*
X117238915Y-76174837D01*
X117301717Y-76216800D01*
X116378283Y-76216800D01*
X116441085Y-76174837D01*
X116708127Y-75775180D01*
X116801900Y-75303752D01*
X116801900Y-74556248D01*
X116708127Y-74084820D01*
X116441085Y-73685163D01*
X116041428Y-73418121D01*
X115570000Y-73324348D01*
X115098572Y-73418121D01*
X114698915Y-73685163D01*
X114623902Y-73797428D01*
X114623289Y-73796511D01*
X113887489Y-73060711D01*
X113739163Y-72961602D01*
X113564200Y-72926800D01*
X99805000Y-72926800D01*
X99630037Y-72961602D01*
X99481711Y-73060711D01*
X98739661Y-73802761D01*
X98661085Y-73685163D01*
X98261428Y-73418121D01*
X97790000Y-73324348D01*
X97318572Y-73418121D01*
X96918915Y-73685163D01*
X96651873Y-74084820D01*
X96558100Y-74556248D01*
X96558100Y-75303752D01*
X96651873Y-75775180D01*
X96918915Y-76174837D01*
X97318572Y-76441879D01*
X97790000Y-76535652D01*
X98261428Y-76441879D01*
X98661085Y-76174837D01*
X98928127Y-75775180D01*
X99005664Y-75385377D01*
X99110200Y-75364584D01*
X99191873Y-75775180D01*
X99458915Y-76174837D01*
X99858572Y-76441879D01*
X100330000Y-76535652D01*
X100801428Y-76441879D01*
X101100318Y-76242167D01*
X101114102Y-76311463D01*
X101213211Y-76459789D01*
X107886600Y-83133178D01*
X107886600Y-83434658D01*
X107573217Y-83120728D01*
X106994621Y-82880474D01*
X106368127Y-82879927D01*
X105789113Y-83119171D01*
X105345728Y-83561783D01*
X105105474Y-84140379D01*
X105105076Y-84596643D01*
X105076389Y-84553711D01*
X98920289Y-78397611D01*
X98771963Y-78298502D01*
X98597000Y-78263700D01*
X97159278Y-78263700D01*
X95401162Y-76505584D01*
X95721428Y-76441879D01*
X96121085Y-76174837D01*
X96388127Y-75775180D01*
X96481900Y-75303752D01*
X96481900Y-74556248D01*
X96388127Y-74084820D01*
X96121085Y-73685163D01*
X95721428Y-73418121D01*
X95250000Y-73324348D01*
X94778572Y-73418121D01*
X94378915Y-73685163D01*
X94111873Y-74084820D01*
X94030200Y-74495416D01*
X93925664Y-74474623D01*
X93848127Y-74084820D01*
X93581085Y-73685163D01*
X93181428Y-73418121D01*
X92710000Y-73324348D01*
X92238572Y-73418121D01*
X91838915Y-73685163D01*
X91571873Y-74084820D01*
X91490200Y-74495416D01*
X91385664Y-74474623D01*
X91308127Y-74084820D01*
X91041085Y-73685163D01*
X90641428Y-73418121D01*
X90170000Y-73324348D01*
X89698572Y-73418121D01*
X89298915Y-73685163D01*
X89031873Y-74084820D01*
X88938100Y-74556248D01*
X88938100Y-75303752D01*
X89031873Y-75775180D01*
X89298915Y-76174837D01*
X89698572Y-76441879D01*
X90170000Y-76535652D01*
X90641428Y-76441879D01*
X91041085Y-76174837D01*
X91113012Y-76067190D01*
X97815011Y-82769189D01*
X97963337Y-82868298D01*
X98138300Y-82903100D01*
X101232044Y-82903100D01*
X100709113Y-83119171D01*
X100265728Y-83561783D01*
X100025474Y-84140379D01*
X100024927Y-84766873D01*
X100264171Y-85345887D01*
X100706783Y-85789272D01*
X101285379Y-86029526D01*
X101845937Y-86030015D01*
X101930200Y-86114278D01*
X101930200Y-90605985D01*
X101649740Y-91025724D01*
X101600000Y-91275784D01*
X101550260Y-91025724D01*
X101263947Y-90597225D01*
X100835448Y-90310912D01*
X100330000Y-90210372D01*
X99824552Y-90310912D01*
X99396053Y-90597225D01*
X99109740Y-91025724D01*
X99060000Y-91275784D01*
X99010260Y-91025724D01*
X98729800Y-90605985D01*
X98729800Y-85725000D01*
X98658262Y-85365354D01*
X98454539Y-85060461D01*
X98094586Y-84700508D01*
X98095073Y-84143127D01*
X97855829Y-83564113D01*
X97413217Y-83120728D01*
X96834621Y-82880474D01*
X96208127Y-82879927D01*
X95629113Y-83119171D01*
X95185728Y-83561783D01*
X94945474Y-84140379D01*
X94944927Y-84766873D01*
X95184171Y-85345887D01*
X95626783Y-85789272D01*
X96205379Y-86029526D01*
X96765937Y-86030015D01*
X96850200Y-86114278D01*
X96850200Y-90605985D01*
X96569740Y-91025724D01*
X96520000Y-91275784D01*
X96470260Y-91025724D01*
X96189800Y-90605985D01*
X96189800Y-88265000D01*
X96118262Y-87905354D01*
X95914539Y-87600461D01*
X93014586Y-84700508D01*
X93015073Y-84143127D01*
X92775829Y-83564113D01*
X92333217Y-83120728D01*
X91754621Y-82880474D01*
X91128127Y-82879927D01*
X90549113Y-83119171D01*
X90105728Y-83561783D01*
X89865474Y-84140379D01*
X89864927Y-84766873D01*
X90104171Y-85345887D01*
X90546783Y-85789272D01*
X91125379Y-86029526D01*
X91685937Y-86030015D01*
X94310200Y-88654278D01*
X94310200Y-90605985D01*
X94161030Y-90829234D01*
X94153538Y-90804111D01*
X93751710Y-90309764D01*
X93191291Y-90006820D01*
X93113703Y-89992326D01*
X92862400Y-90101704D01*
X92862400Y-91922600D01*
X92882400Y-91922600D01*
X92882400Y-92227400D01*
X92862400Y-92227400D01*
X92862400Y-94048296D01*
X93113703Y-94157674D01*
X93191291Y-94143180D01*
X93751710Y-93840236D01*
X94153538Y-93345889D01*
X94161030Y-93320766D01*
X94316053Y-93552775D01*
X94744552Y-93839088D01*
X95250000Y-93939628D01*
X95755448Y-93839088D01*
X96183947Y-93552775D01*
X96470260Y-93124276D01*
X96520000Y-92874216D01*
X96569740Y-93124276D01*
X96856053Y-93552775D01*
X97284552Y-93839088D01*
X97790000Y-93939628D01*
X98295448Y-93839088D01*
X98723947Y-93552775D01*
X99010260Y-93124276D01*
X99060000Y-92874216D01*
X99109740Y-93124276D01*
X99396053Y-93552775D01*
X99824552Y-93839088D01*
X100330000Y-93939628D01*
X100835448Y-93839088D01*
X101263947Y-93552775D01*
X101550260Y-93124276D01*
X101600000Y-92874216D01*
X101649740Y-93124276D01*
X101936053Y-93552775D01*
X102364552Y-93839088D01*
X102870000Y-93939628D01*
X103375448Y-93839088D01*
X103803947Y-93552775D01*
X104090260Y-93124276D01*
X104140000Y-92874216D01*
X104189740Y-93124276D01*
X104476053Y-93552775D01*
X104904552Y-93839088D01*
X104952800Y-93848685D01*
X104952800Y-94894300D01*
X96713900Y-94894300D01*
X96538937Y-94929102D01*
X96390611Y-95028211D01*
X94208600Y-97210222D01*
X94208600Y-96824800D01*
X94056200Y-96672400D01*
X93116400Y-96672400D01*
X93116400Y-98247200D01*
X93144011Y-98274811D01*
X88169711Y-103249111D01*
X88070602Y-103397437D01*
X88035800Y-103572400D01*
X88035800Y-129032000D01*
X86879800Y-129032000D01*
X86704837Y-129066802D01*
X86556511Y-129165911D01*
X80959661Y-134762761D01*
X80881085Y-134645163D01*
X80481428Y-134378121D01*
X80010000Y-134284348D01*
X79538572Y-134378121D01*
X79138915Y-134645163D01*
X78871873Y-135044820D01*
X78778100Y-135516248D01*
X78701900Y-135516248D01*
X78608127Y-135044820D01*
X78341085Y-134645163D01*
X77941428Y-134378121D01*
X77470000Y-134284348D01*
X76998572Y-134378121D01*
X76598915Y-134645163D01*
X76331873Y-135044820D01*
X76238100Y-135516248D01*
X76161900Y-135516248D01*
X76068127Y-135044820D01*
X75801085Y-134645163D01*
X75401428Y-134378121D01*
X74930000Y-134284348D01*
X74458572Y-134378121D01*
X74058915Y-134645163D01*
X73791873Y-135044820D01*
X73698100Y-135516248D01*
X73621900Y-135516248D01*
X73528127Y-135044820D01*
X73261085Y-134645163D01*
X72861428Y-134378121D01*
X72390000Y-134284348D01*
X71918572Y-134378121D01*
X71518915Y-134645163D01*
X71251873Y-135044820D01*
X71158100Y-135516248D01*
X70269100Y-135516248D01*
X70269100Y-131222477D01*
X71576840Y-131222477D01*
X71893259Y-131988270D01*
X72478648Y-132574682D01*
X73243888Y-132892437D01*
X74072477Y-132893160D01*
X74838270Y-132576741D01*
X75424682Y-131991352D01*
X75742437Y-131226112D01*
X75743160Y-130397523D01*
X75426741Y-129631730D01*
X74841352Y-129045318D01*
X74076112Y-128727563D01*
X73247523Y-128726840D01*
X72481730Y-129043259D01*
X71895318Y-129628648D01*
X71577563Y-130393888D01*
X71576840Y-131222477D01*
X70269100Y-131222477D01*
X70269100Y-91531172D01*
X88849200Y-91531172D01*
X88849200Y-92618828D01*
X88949740Y-93124276D01*
X89230200Y-93544015D01*
X89230200Y-93855280D01*
X89047738Y-94128354D01*
X88976200Y-94488000D01*
X88976200Y-95219982D01*
X88970229Y-95250000D01*
X88970229Y-97790000D01*
X88993885Y-97908927D01*
X89061252Y-98009748D01*
X89162073Y-98077115D01*
X89281000Y-98100771D01*
X90551000Y-98100771D01*
X90669927Y-98077115D01*
X90770748Y-98009748D01*
X90838115Y-97908927D01*
X90861771Y-97790000D01*
X90861771Y-96824800D01*
X91719400Y-96824800D01*
X91719400Y-97911257D01*
X91812206Y-98135311D01*
X91983689Y-98306794D01*
X92207743Y-98399600D01*
X92659200Y-98399600D01*
X92811600Y-98247200D01*
X92811600Y-96672400D01*
X91871800Y-96672400D01*
X91719400Y-96824800D01*
X90861771Y-96824800D01*
X90861771Y-95250000D01*
X90855800Y-95219982D01*
X90855800Y-95128743D01*
X91719400Y-95128743D01*
X91719400Y-96215200D01*
X91871800Y-96367600D01*
X92811600Y-96367600D01*
X92811600Y-94792800D01*
X93116400Y-94792800D01*
X93116400Y-96367600D01*
X94056200Y-96367600D01*
X94208600Y-96215200D01*
X94208600Y-95128743D01*
X94115794Y-94904689D01*
X93944311Y-94733206D01*
X93720257Y-94640400D01*
X93268800Y-94640400D01*
X93116400Y-94792800D01*
X92811600Y-94792800D01*
X92659200Y-94640400D01*
X92207743Y-94640400D01*
X91983689Y-94733206D01*
X91812206Y-94904689D01*
X91719400Y-95128743D01*
X90855800Y-95128743D01*
X90855800Y-94993720D01*
X91038262Y-94720646D01*
X91109800Y-94361000D01*
X91109800Y-93544015D01*
X91258970Y-93320766D01*
X91266462Y-93345889D01*
X91668290Y-93840236D01*
X92228709Y-94143180D01*
X92306297Y-94157674D01*
X92557600Y-94048296D01*
X92557600Y-92227400D01*
X92537600Y-92227400D01*
X92537600Y-91922600D01*
X92557600Y-91922600D01*
X92557600Y-90101704D01*
X92306297Y-89992326D01*
X92228709Y-90006820D01*
X91668290Y-90309764D01*
X91266462Y-90804111D01*
X91258970Y-90829234D01*
X91103947Y-90597225D01*
X90675448Y-90310912D01*
X90170000Y-90210372D01*
X89664552Y-90310912D01*
X89236053Y-90597225D01*
X88949740Y-91025724D01*
X88849200Y-91531172D01*
X70269100Y-91531172D01*
X70269100Y-80422477D01*
X71576840Y-80422477D01*
X71893259Y-81188270D01*
X72478648Y-81774682D01*
X73243888Y-82092437D01*
X74072477Y-82093160D01*
X74838270Y-81776741D01*
X75424682Y-81191352D01*
X75742437Y-80426112D01*
X75743160Y-79597523D01*
X75426741Y-78831730D01*
X74841352Y-78245318D01*
X74076112Y-77927563D01*
X73247523Y-77926840D01*
X72481730Y-78243259D01*
X71895318Y-78828648D01*
X71577563Y-79593888D01*
X71576840Y-80422477D01*
X70269100Y-80422477D01*
X70269100Y-73660000D01*
X71152129Y-73660000D01*
X71152129Y-76200000D01*
X71175785Y-76318927D01*
X71243152Y-76419748D01*
X71343973Y-76487115D01*
X71462900Y-76510771D01*
X73317100Y-76510771D01*
X73436027Y-76487115D01*
X73536848Y-76419748D01*
X73604215Y-76318927D01*
X73627871Y-76200000D01*
X73627871Y-76073898D01*
X73951152Y-76467274D01*
X74482730Y-76750947D01*
X74540269Y-76759357D01*
X74777600Y-76648785D01*
X74777600Y-75082400D01*
X74757600Y-75082400D01*
X74757600Y-74777600D01*
X74777600Y-74777600D01*
X74777600Y-73211215D01*
X75082400Y-73211215D01*
X75082400Y-74777600D01*
X75102400Y-74777600D01*
X75102400Y-75082400D01*
X75082400Y-75082400D01*
X75082400Y-76648785D01*
X75319731Y-76759357D01*
X75377270Y-76750947D01*
X75908848Y-76467274D01*
X76291405Y-76001769D01*
X76351414Y-75804425D01*
X76598915Y-76174837D01*
X76998572Y-76441879D01*
X77470000Y-76535652D01*
X77941428Y-76441879D01*
X78341085Y-76174837D01*
X78608127Y-75775180D01*
X78701900Y-75303752D01*
X78701900Y-74556248D01*
X78778100Y-74556248D01*
X78778100Y-75303752D01*
X78871873Y-75775180D01*
X79138915Y-76174837D01*
X79538572Y-76441879D01*
X80010000Y-76535652D01*
X80481428Y-76441879D01*
X80881085Y-76174837D01*
X81148127Y-75775180D01*
X81241900Y-75303752D01*
X81241900Y-74556248D01*
X81318100Y-74556248D01*
X81318100Y-75303752D01*
X81411873Y-75775180D01*
X81678915Y-76174837D01*
X82078572Y-76441879D01*
X82550000Y-76535652D01*
X83021428Y-76441879D01*
X83421085Y-76174837D01*
X83688127Y-75775180D01*
X83781900Y-75303752D01*
X83781900Y-74556248D01*
X83858100Y-74556248D01*
X83858100Y-75303752D01*
X83951873Y-75775180D01*
X84218915Y-76174837D01*
X84618572Y-76441879D01*
X85090000Y-76535652D01*
X85561428Y-76441879D01*
X85961085Y-76174837D01*
X86228127Y-75775180D01*
X86321900Y-75303752D01*
X86321900Y-74556248D01*
X86398100Y-74556248D01*
X86398100Y-75303752D01*
X86491873Y-75775180D01*
X86758915Y-76174837D01*
X87158572Y-76441879D01*
X87630000Y-76535652D01*
X88101428Y-76441879D01*
X88501085Y-76174837D01*
X88768127Y-75775180D01*
X88861900Y-75303752D01*
X88861900Y-74556248D01*
X88768127Y-74084820D01*
X88501085Y-73685163D01*
X88101428Y-73418121D01*
X87630000Y-73324348D01*
X87158572Y-73418121D01*
X86758915Y-73685163D01*
X86491873Y-74084820D01*
X86398100Y-74556248D01*
X86321900Y-74556248D01*
X86228127Y-74084820D01*
X85961085Y-73685163D01*
X85561428Y-73418121D01*
X85090000Y-73324348D01*
X84618572Y-73418121D01*
X84218915Y-73685163D01*
X83951873Y-74084820D01*
X83858100Y-74556248D01*
X83781900Y-74556248D01*
X83688127Y-74084820D01*
X83421085Y-73685163D01*
X83021428Y-73418121D01*
X82550000Y-73324348D01*
X82078572Y-73418121D01*
X81678915Y-73685163D01*
X81411873Y-74084820D01*
X81318100Y-74556248D01*
X81241900Y-74556248D01*
X81148127Y-74084820D01*
X80881085Y-73685163D01*
X80481428Y-73418121D01*
X80010000Y-73324348D01*
X79538572Y-73418121D01*
X79138915Y-73685163D01*
X78871873Y-74084820D01*
X78778100Y-74556248D01*
X78701900Y-74556248D01*
X78608127Y-74084820D01*
X78341085Y-73685163D01*
X77941428Y-73418121D01*
X77470000Y-73324348D01*
X76998572Y-73418121D01*
X76598915Y-73685163D01*
X76351414Y-74055575D01*
X76291405Y-73858231D01*
X75908848Y-73392726D01*
X75377270Y-73109053D01*
X75319731Y-73100643D01*
X75082400Y-73211215D01*
X74777600Y-73211215D01*
X74540269Y-73100643D01*
X74482730Y-73109053D01*
X73951152Y-73392726D01*
X73627871Y-73786102D01*
X73627871Y-73660000D01*
X73604215Y-73541073D01*
X73536848Y-73440252D01*
X73436027Y-73372885D01*
X73317100Y-73349229D01*
X71462900Y-73349229D01*
X71343973Y-73372885D01*
X71243152Y-73440252D01*
X71175785Y-73541073D01*
X71152129Y-73660000D01*
X70269100Y-73660000D01*
X70269100Y-72174100D01*
X190715900Y-72174100D01*
X190715900Y-138645900D01*
G36*
X104494226Y-122056204D02*
X104341634Y-122063048D01*
X103835548Y-122272676D01*
X103712458Y-122546931D01*
X104775000Y-123609474D01*
X104789143Y-123595332D01*
X105004669Y-123810858D01*
X104990526Y-123825000D01*
X106053069Y-124887542D01*
X106327324Y-124764452D01*
X106568673Y-124098891D01*
X106536952Y-123391634D01*
X106528695Y-123371700D01*
X107492800Y-123371700D01*
X107492800Y-134375291D01*
X107478572Y-134378121D01*
X107078915Y-134645163D01*
X106811873Y-135044820D01*
X106718100Y-135516248D01*
X106718100Y-136263752D01*
X106811873Y-136735180D01*
X106982539Y-136990600D01*
X106377461Y-136990600D01*
X106548127Y-136735180D01*
X106641900Y-136263752D01*
X106641900Y-135516248D01*
X106548127Y-135044820D01*
X106281085Y-134645163D01*
X105881428Y-134378121D01*
X105410000Y-134284348D01*
X104938572Y-134378121D01*
X104538915Y-134645163D01*
X104271873Y-135044820D01*
X104190200Y-135455416D01*
X104085664Y-135434623D01*
X104008127Y-135044820D01*
X103741085Y-134645163D01*
X103341428Y-134378121D01*
X102870000Y-134284348D01*
X102398572Y-134378121D01*
X102057200Y-134606218D01*
X102057200Y-132953800D01*
X102022398Y-132778837D01*
X101923289Y-132630510D01*
X99737909Y-130445131D01*
X100289360Y-130445131D01*
X100408287Y-130421475D01*
X100509108Y-130354108D01*
X100576475Y-130253287D01*
X100600131Y-130134360D01*
X100600131Y-128981200D01*
X100600600Y-128981200D01*
X100775563Y-128946398D01*
X100923889Y-128847289D01*
X102202189Y-127568989D01*
X102301298Y-127420663D01*
X102336100Y-127245700D01*
X102336100Y-126114100D01*
X102301298Y-125939137D01*
X102202189Y-125790811D01*
X102069611Y-125658233D01*
X102069830Y-125407209D01*
X101955996Y-125131710D01*
X101927406Y-125103069D01*
X103712458Y-125103069D01*
X103835548Y-125377324D01*
X104501109Y-125618673D01*
X105208366Y-125586952D01*
X105714452Y-125377324D01*
X105837542Y-125103069D01*
X104775000Y-124040526D01*
X103712458Y-125103069D01*
X101927406Y-125103069D01*
X101849940Y-125025468D01*
X102214546Y-124661498D01*
X102439543Y-124119643D01*
X102440039Y-123551109D01*
X102981327Y-123551109D01*
X103013048Y-124258366D01*
X103222676Y-124764452D01*
X103496931Y-124887542D01*
X104559474Y-123825000D01*
X103496931Y-122762458D01*
X103222676Y-122885548D01*
X102981327Y-123551109D01*
X102440039Y-123551109D01*
X102440055Y-123532931D01*
X102216004Y-122990684D01*
X101801498Y-122575454D01*
X101259643Y-122350457D01*
X100672931Y-122349945D01*
X100130684Y-122573996D01*
X99715454Y-122988502D01*
X99490457Y-123530357D01*
X99489945Y-124117069D01*
X99651843Y-124508894D01*
X99587602Y-124605037D01*
X99552800Y-124780000D01*
X99552800Y-125834207D01*
X99460657Y-125796040D01*
X99352100Y-125796040D01*
X99199700Y-125948440D01*
X99199700Y-126918720D01*
X99232400Y-126918720D01*
X99232400Y-127223520D01*
X99199700Y-127223520D01*
X99199700Y-127243520D01*
X98920300Y-127243520D01*
X98920300Y-127223520D01*
X98887600Y-127223520D01*
X98887600Y-126918720D01*
X98920300Y-126918720D01*
X98920300Y-125948440D01*
X98767900Y-125796040D01*
X98659343Y-125796040D01*
X98478696Y-125870866D01*
X98433289Y-125802911D01*
X98284963Y-125703802D01*
X98110000Y-125669000D01*
X95835578Y-125669000D01*
X95269647Y-125103069D01*
X96092458Y-125103069D01*
X96215548Y-125377324D01*
X96881109Y-125618673D01*
X97588366Y-125586952D01*
X98094452Y-125377324D01*
X98217542Y-125103069D01*
X97155000Y-124040526D01*
X96092458Y-125103069D01*
X95269647Y-125103069D01*
X94663065Y-124496487D01*
X94819543Y-124119643D01*
X94820039Y-123551109D01*
X95361327Y-123551109D01*
X95393048Y-124258366D01*
X95602676Y-124764452D01*
X95876931Y-124887542D01*
X96939474Y-123825000D01*
X97370526Y-123825000D01*
X98433069Y-124887542D01*
X98707324Y-124764452D01*
X98948673Y-124098891D01*
X98916952Y-123391634D01*
X98707324Y-122885548D01*
X98433069Y-122762458D01*
X97370526Y-123825000D01*
X96939474Y-123825000D01*
X95876931Y-122762458D01*
X95602676Y-122885548D01*
X95361327Y-123551109D01*
X94820039Y-123551109D01*
X94820055Y-123532931D01*
X94596004Y-122990684D01*
X94181498Y-122575454D01*
X94112807Y-122546931D01*
X96092458Y-122546931D01*
X97155000Y-123609474D01*
X98217542Y-122546931D01*
X98094452Y-122272676D01*
X97428891Y-122031327D01*
X96721634Y-122063048D01*
X96215548Y-122272676D01*
X96092458Y-122546931D01*
X94112807Y-122546931D01*
X93639643Y-122350457D01*
X93052931Y-122349945D01*
X92510684Y-122573996D01*
X92095454Y-122988502D01*
X91870457Y-123530357D01*
X91869945Y-124117069D01*
X92093996Y-124659316D01*
X92508502Y-125074546D01*
X93050357Y-125299543D01*
X93637069Y-125300055D01*
X94016641Y-125143219D01*
X94374822Y-125501400D01*
X94284800Y-125501400D01*
X94132400Y-125653800D01*
X94132400Y-126593600D01*
X95707200Y-126593600D01*
X95717400Y-126583400D01*
X97519869Y-126583400D01*
X97519869Y-127736600D01*
X97543525Y-127855527D01*
X97610892Y-127956348D01*
X97711713Y-128023715D01*
X97830640Y-128047371D01*
X98249499Y-128047371D01*
X98257547Y-128066800D01*
X98110000Y-128066800D01*
X97935037Y-128101602D01*
X97786711Y-128200711D01*
X97687602Y-128349037D01*
X97652800Y-128524000D01*
X97652800Y-128555650D01*
X97610892Y-128583652D01*
X97543525Y-128684473D01*
X97519869Y-128803400D01*
X97519869Y-129956600D01*
X96338579Y-129956600D01*
X95852689Y-129470711D01*
X95704363Y-129371602D01*
X95560771Y-129343040D01*
X95560771Y-129159000D01*
X95537115Y-129040073D01*
X95469748Y-128939252D01*
X95368927Y-128871885D01*
X95250000Y-128848229D01*
X92710000Y-128848229D01*
X92591073Y-128871885D01*
X92490252Y-128939252D01*
X92422885Y-129040073D01*
X92403865Y-129135693D01*
X92300763Y-129066802D01*
X92125800Y-129032000D01*
X88950200Y-129032000D01*
X88950200Y-127050800D01*
X92100400Y-127050800D01*
X92100400Y-127502257D01*
X92193206Y-127726311D01*
X92364689Y-127897794D01*
X92588743Y-127990600D01*
X93675200Y-127990600D01*
X93827600Y-127838200D01*
X93827600Y-126898400D01*
X94132400Y-126898400D01*
X94132400Y-127838200D01*
X94284800Y-127990600D01*
X95371257Y-127990600D01*
X95595311Y-127897794D01*
X95766794Y-127726311D01*
X95859600Y-127502257D01*
X95859600Y-127050800D01*
X95707200Y-126898400D01*
X94132400Y-126898400D01*
X93827600Y-126898400D01*
X92252800Y-126898400D01*
X92100400Y-127050800D01*
X88950200Y-127050800D01*
X88950200Y-125989743D01*
X92100400Y-125989743D01*
X92100400Y-126441200D01*
X92252800Y-126593600D01*
X93827600Y-126593600D01*
X93827600Y-125653800D01*
X93675200Y-125501400D01*
X92588743Y-125501400D01*
X92364689Y-125594206D01*
X92193206Y-125765689D01*
X92100400Y-125989743D01*
X88950200Y-125989743D01*
X88950200Y-106512178D01*
X104494226Y-122056204D01*
X104494226Y-122056204D01*
G37*
X104494226Y-122056204D02*
X104341634Y-122063048D01*
X103835548Y-122272676D01*
X103712458Y-122546931D01*
X104775000Y-123609474D01*
X104789143Y-123595332D01*
X105004669Y-123810858D01*
X104990526Y-123825000D01*
X106053069Y-124887542D01*
X106327324Y-124764452D01*
X106568673Y-124098891D01*
X106536952Y-123391634D01*
X106528695Y-123371700D01*
X107492800Y-123371700D01*
X107492800Y-134375291D01*
X107478572Y-134378121D01*
X107078915Y-134645163D01*
X106811873Y-135044820D01*
X106718100Y-135516248D01*
X106718100Y-136263752D01*
X106811873Y-136735180D01*
X106982539Y-136990600D01*
X106377461Y-136990600D01*
X106548127Y-136735180D01*
X106641900Y-136263752D01*
X106641900Y-135516248D01*
X106548127Y-135044820D01*
X106281085Y-134645163D01*
X105881428Y-134378121D01*
X105410000Y-134284348D01*
X104938572Y-134378121D01*
X104538915Y-134645163D01*
X104271873Y-135044820D01*
X104190200Y-135455416D01*
X104085664Y-135434623D01*
X104008127Y-135044820D01*
X103741085Y-134645163D01*
X103341428Y-134378121D01*
X102870000Y-134284348D01*
X102398572Y-134378121D01*
X102057200Y-134606218D01*
X102057200Y-132953800D01*
X102022398Y-132778837D01*
X101923289Y-132630510D01*
X99737909Y-130445131D01*
X100289360Y-130445131D01*
X100408287Y-130421475D01*
X100509108Y-130354108D01*
X100576475Y-130253287D01*
X100600131Y-130134360D01*
X100600131Y-128981200D01*
X100600600Y-128981200D01*
X100775563Y-128946398D01*
X100923889Y-128847289D01*
X102202189Y-127568989D01*
X102301298Y-127420663D01*
X102336100Y-127245700D01*
X102336100Y-126114100D01*
X102301298Y-125939137D01*
X102202189Y-125790811D01*
X102069611Y-125658233D01*
X102069830Y-125407209D01*
X101955996Y-125131710D01*
X101927406Y-125103069D01*
X103712458Y-125103069D01*
X103835548Y-125377324D01*
X104501109Y-125618673D01*
X105208366Y-125586952D01*
X105714452Y-125377324D01*
X105837542Y-125103069D01*
X104775000Y-124040526D01*
X103712458Y-125103069D01*
X101927406Y-125103069D01*
X101849940Y-125025468D01*
X102214546Y-124661498D01*
X102439543Y-124119643D01*
X102440039Y-123551109D01*
X102981327Y-123551109D01*
X103013048Y-124258366D01*
X103222676Y-124764452D01*
X103496931Y-124887542D01*
X104559474Y-123825000D01*
X103496931Y-122762458D01*
X103222676Y-122885548D01*
X102981327Y-123551109D01*
X102440039Y-123551109D01*
X102440055Y-123532931D01*
X102216004Y-122990684D01*
X101801498Y-122575454D01*
X101259643Y-122350457D01*
X100672931Y-122349945D01*
X100130684Y-122573996D01*
X99715454Y-122988502D01*
X99490457Y-123530357D01*
X99489945Y-124117069D01*
X99651843Y-124508894D01*
X99587602Y-124605037D01*
X99552800Y-124780000D01*
X99552800Y-125834207D01*
X99460657Y-125796040D01*
X99352100Y-125796040D01*
X99199700Y-125948440D01*
X99199700Y-126918720D01*
X99232400Y-126918720D01*
X99232400Y-127223520D01*
X99199700Y-127223520D01*
X99199700Y-127243520D01*
X98920300Y-127243520D01*
X98920300Y-127223520D01*
X98887600Y-127223520D01*
X98887600Y-126918720D01*
X98920300Y-126918720D01*
X98920300Y-125948440D01*
X98767900Y-125796040D01*
X98659343Y-125796040D01*
X98478696Y-125870866D01*
X98433289Y-125802911D01*
X98284963Y-125703802D01*
X98110000Y-125669000D01*
X95835578Y-125669000D01*
X95269647Y-125103069D01*
X96092458Y-125103069D01*
X96215548Y-125377324D01*
X96881109Y-125618673D01*
X97588366Y-125586952D01*
X98094452Y-125377324D01*
X98217542Y-125103069D01*
X97155000Y-124040526D01*
X96092458Y-125103069D01*
X95269647Y-125103069D01*
X94663065Y-124496487D01*
X94819543Y-124119643D01*
X94820039Y-123551109D01*
X95361327Y-123551109D01*
X95393048Y-124258366D01*
X95602676Y-124764452D01*
X95876931Y-124887542D01*
X96939474Y-123825000D01*
X97370526Y-123825000D01*
X98433069Y-124887542D01*
X98707324Y-124764452D01*
X98948673Y-124098891D01*
X98916952Y-123391634D01*
X98707324Y-122885548D01*
X98433069Y-122762458D01*
X97370526Y-123825000D01*
X96939474Y-123825000D01*
X95876931Y-122762458D01*
X95602676Y-122885548D01*
X95361327Y-123551109D01*
X94820039Y-123551109D01*
X94820055Y-123532931D01*
X94596004Y-122990684D01*
X94181498Y-122575454D01*
X94112807Y-122546931D01*
X96092458Y-122546931D01*
X97155000Y-123609474D01*
X98217542Y-122546931D01*
X98094452Y-122272676D01*
X97428891Y-122031327D01*
X96721634Y-122063048D01*
X96215548Y-122272676D01*
X96092458Y-122546931D01*
X94112807Y-122546931D01*
X93639643Y-122350457D01*
X93052931Y-122349945D01*
X92510684Y-122573996D01*
X92095454Y-122988502D01*
X91870457Y-123530357D01*
X91869945Y-124117069D01*
X92093996Y-124659316D01*
X92508502Y-125074546D01*
X93050357Y-125299543D01*
X93637069Y-125300055D01*
X94016641Y-125143219D01*
X94374822Y-125501400D01*
X94284800Y-125501400D01*
X94132400Y-125653800D01*
X94132400Y-126593600D01*
X95707200Y-126593600D01*
X95717400Y-126583400D01*
X97519869Y-126583400D01*
X97519869Y-127736600D01*
X97543525Y-127855527D01*
X97610892Y-127956348D01*
X97711713Y-128023715D01*
X97830640Y-128047371D01*
X98249499Y-128047371D01*
X98257547Y-128066800D01*
X98110000Y-128066800D01*
X97935037Y-128101602D01*
X97786711Y-128200711D01*
X97687602Y-128349037D01*
X97652800Y-128524000D01*
X97652800Y-128555650D01*
X97610892Y-128583652D01*
X97543525Y-128684473D01*
X97519869Y-128803400D01*
X97519869Y-129956600D01*
X96338579Y-129956600D01*
X95852689Y-129470711D01*
X95704363Y-129371602D01*
X95560771Y-129343040D01*
X95560771Y-129159000D01*
X95537115Y-129040073D01*
X95469748Y-128939252D01*
X95368927Y-128871885D01*
X95250000Y-128848229D01*
X92710000Y-128848229D01*
X92591073Y-128871885D01*
X92490252Y-128939252D01*
X92422885Y-129040073D01*
X92403865Y-129135693D01*
X92300763Y-129066802D01*
X92125800Y-129032000D01*
X88950200Y-129032000D01*
X88950200Y-127050800D01*
X92100400Y-127050800D01*
X92100400Y-127502257D01*
X92193206Y-127726311D01*
X92364689Y-127897794D01*
X92588743Y-127990600D01*
X93675200Y-127990600D01*
X93827600Y-127838200D01*
X93827600Y-126898400D01*
X94132400Y-126898400D01*
X94132400Y-127838200D01*
X94284800Y-127990600D01*
X95371257Y-127990600D01*
X95595311Y-127897794D01*
X95766794Y-127726311D01*
X95859600Y-127502257D01*
X95859600Y-127050800D01*
X95707200Y-126898400D01*
X94132400Y-126898400D01*
X93827600Y-126898400D01*
X92252800Y-126898400D01*
X92100400Y-127050800D01*
X88950200Y-127050800D01*
X88950200Y-125989743D01*
X92100400Y-125989743D01*
X92100400Y-126441200D01*
X92252800Y-126593600D01*
X93827600Y-126593600D01*
X93827600Y-125653800D01*
X93675200Y-125501400D01*
X92588743Y-125501400D01*
X92364689Y-125594206D01*
X92193206Y-125765689D01*
X92100400Y-125989743D01*
X88950200Y-125989743D01*
X88950200Y-106512178D01*
X104494226Y-122056204D01*
G36*
X126767310Y-113793289D02*
X126883668Y-113871037D01*
X126915637Y-113892398D01*
X127059229Y-113920960D01*
X127059229Y-114470000D01*
X127082885Y-114588927D01*
X127150252Y-114689748D01*
X127251073Y-114757115D01*
X127370000Y-114780771D01*
X127812800Y-114780771D01*
X127812800Y-116359229D01*
X127370000Y-116359229D01*
X127251073Y-116382885D01*
X127150252Y-116450252D01*
X127082885Y-116551073D01*
X127059229Y-116670000D01*
X127059229Y-118670000D01*
X127082885Y-118788927D01*
X127150252Y-118889748D01*
X127251073Y-118957115D01*
X127370000Y-118980771D01*
X129170000Y-118980771D01*
X129288927Y-118957115D01*
X129389748Y-118889748D01*
X129457115Y-118788927D01*
X129480771Y-118670000D01*
X129480771Y-117398800D01*
X130835400Y-117398800D01*
X130835400Y-117850257D01*
X130928206Y-118074311D01*
X131099689Y-118245794D01*
X131323743Y-118338600D01*
X132410200Y-118338600D01*
X132562600Y-118186200D01*
X132562600Y-117246400D01*
X130987800Y-117246400D01*
X130835400Y-117398800D01*
X129480771Y-117398800D01*
X129480771Y-116670000D01*
X129457115Y-116551073D01*
X129389748Y-116450252D01*
X129288927Y-116382885D01*
X129170000Y-116359229D01*
X128727200Y-116359229D01*
X128727200Y-116337743D01*
X130835400Y-116337743D01*
X130835400Y-116789200D01*
X130987800Y-116941600D01*
X132562600Y-116941600D01*
X132562600Y-116001800D01*
X132410200Y-115849400D01*
X131323743Y-115849400D01*
X131099689Y-115942206D01*
X130928206Y-116113689D01*
X130835400Y-116337743D01*
X128727200Y-116337743D01*
X128727200Y-114819178D01*
X128765607Y-114780771D01*
X129170000Y-114780771D01*
X129288927Y-114757115D01*
X129389748Y-114689748D01*
X129457115Y-114588927D01*
X129474167Y-114503200D01*
X131134229Y-114503200D01*
X131134229Y-114681000D01*
X131157885Y-114799927D01*
X131225252Y-114900748D01*
X131326073Y-114968115D01*
X131445000Y-114991771D01*
X132264040Y-114991771D01*
X132292602Y-115135363D01*
X132391711Y-115283689D01*
X132540037Y-115382798D01*
X132715000Y-115417600D01*
X132754222Y-115417600D01*
X133186022Y-115849400D01*
X133019800Y-115849400D01*
X132867400Y-116001800D01*
X132867400Y-116941600D01*
X132887400Y-116941600D01*
X132887400Y-117246400D01*
X132867400Y-117246400D01*
X132867400Y-118186200D01*
X133019800Y-118338600D01*
X134106257Y-118338600D01*
X134330311Y-118245794D01*
X134501794Y-118074311D01*
X134594600Y-117850257D01*
X134594600Y-117398800D01*
X134442202Y-117246402D01*
X134583024Y-117246402D01*
X138765000Y-121428378D01*
X138765000Y-122340740D01*
X138734452Y-122272676D01*
X138068891Y-122031327D01*
X137361634Y-122063048D01*
X136855548Y-122272676D01*
X136732458Y-122546931D01*
X137795000Y-123609474D01*
X137809142Y-123595331D01*
X138024669Y-123810858D01*
X138010526Y-123825000D01*
X138024669Y-123839142D01*
X137809142Y-124054669D01*
X137795000Y-124040526D01*
X136732458Y-125103069D01*
X136855548Y-125377324D01*
X137446723Y-125591699D01*
X134953022Y-128085400D01*
X132872705Y-128085400D01*
X132876194Y-128081911D01*
X132890501Y-128047371D01*
X133309360Y-128047371D01*
X133428287Y-128023715D01*
X133529108Y-127956348D01*
X133596475Y-127855527D01*
X133620131Y-127736600D01*
X133620131Y-126405640D01*
X133596475Y-126286713D01*
X133529108Y-126185892D01*
X133487200Y-126157890D01*
X133487200Y-125215185D01*
X133690357Y-125299543D01*
X134277069Y-125300055D01*
X134819316Y-125076004D01*
X135234546Y-124661498D01*
X135459543Y-124119643D01*
X135460039Y-123551109D01*
X136001327Y-123551109D01*
X136033048Y-124258366D01*
X136242676Y-124764452D01*
X136516931Y-124887542D01*
X137579474Y-123825000D01*
X136516931Y-122762458D01*
X136242676Y-122885548D01*
X136001327Y-123551109D01*
X135460039Y-123551109D01*
X135460055Y-123532931D01*
X135236004Y-122990684D01*
X134821498Y-122575454D01*
X134279643Y-122350457D01*
X133692931Y-122349945D01*
X133150684Y-122573996D01*
X132735454Y-122988502D01*
X132510457Y-123530357D01*
X132509945Y-124117069D01*
X132671843Y-124508894D01*
X132607602Y-124605037D01*
X132572800Y-124780000D01*
X132572800Y-125834207D01*
X132480657Y-125796040D01*
X132372100Y-125796040D01*
X132219700Y-125948440D01*
X132219700Y-126918720D01*
X132252400Y-126918720D01*
X132252400Y-127223520D01*
X132219700Y-127223520D01*
X132219700Y-127243520D01*
X131940300Y-127243520D01*
X131940300Y-127223520D01*
X131907600Y-127223520D01*
X131907600Y-126918720D01*
X131940300Y-126918720D01*
X131940300Y-125948440D01*
X131787900Y-125796040D01*
X131679343Y-125796040D01*
X131498696Y-125870866D01*
X131453289Y-125802911D01*
X131304963Y-125703802D01*
X131130000Y-125669000D01*
X128855578Y-125669000D01*
X128289647Y-125103069D01*
X129112458Y-125103069D01*
X129235548Y-125377324D01*
X129901109Y-125618673D01*
X130608366Y-125586952D01*
X131114452Y-125377324D01*
X131237542Y-125103069D01*
X130175000Y-124040526D01*
X129112458Y-125103069D01*
X128289647Y-125103069D01*
X127683065Y-124496487D01*
X127839543Y-124119643D01*
X127840039Y-123551109D01*
X128381327Y-123551109D01*
X128413048Y-124258366D01*
X128622676Y-124764452D01*
X128896931Y-124887542D01*
X129959474Y-123825000D01*
X130390526Y-123825000D01*
X131453069Y-124887542D01*
X131727324Y-124764452D01*
X131968673Y-124098891D01*
X131936952Y-123391634D01*
X131727324Y-122885548D01*
X131453069Y-122762458D01*
X130390526Y-123825000D01*
X129959474Y-123825000D01*
X128896931Y-122762458D01*
X128622676Y-122885548D01*
X128381327Y-123551109D01*
X127840039Y-123551109D01*
X127840055Y-123532931D01*
X127616004Y-122990684D01*
X127201498Y-122575454D01*
X127132807Y-122546931D01*
X129112458Y-122546931D01*
X130175000Y-123609474D01*
X131237542Y-122546931D01*
X131114452Y-122272676D01*
X130448891Y-122031327D01*
X129741634Y-122063048D01*
X129235548Y-122272676D01*
X129112458Y-122546931D01*
X127132807Y-122546931D01*
X126659643Y-122350457D01*
X126072931Y-122349945D01*
X125530684Y-122573996D01*
X125115454Y-122988502D01*
X124890457Y-123530357D01*
X124889945Y-124117069D01*
X125113996Y-124659316D01*
X125528502Y-125074546D01*
X126070357Y-125299543D01*
X126657069Y-125300055D01*
X127036641Y-125143219D01*
X127394822Y-125501400D01*
X127304800Y-125501400D01*
X127152400Y-125653800D01*
X127152400Y-126593600D01*
X128727200Y-126593600D01*
X128737400Y-126583400D01*
X130539869Y-126583400D01*
X130539869Y-127736600D01*
X130563525Y-127855527D01*
X130630892Y-127956348D01*
X130731713Y-128023715D01*
X130850640Y-128047371D01*
X131269499Y-128047371D01*
X131283806Y-128081911D01*
X131287295Y-128085400D01*
X130726700Y-128085400D01*
X130551737Y-128120202D01*
X130403411Y-128219311D01*
X129484222Y-129138500D01*
X128747700Y-129138500D01*
X128580771Y-129171704D01*
X128580771Y-129159000D01*
X128557115Y-129040073D01*
X128489748Y-128939252D01*
X128388927Y-128871885D01*
X128270000Y-128848229D01*
X125730000Y-128848229D01*
X125611073Y-128871885D01*
X125510252Y-128939252D01*
X125442885Y-129040073D01*
X125419229Y-129159000D01*
X125419229Y-129336800D01*
X117112200Y-129336800D01*
X116937237Y-129371602D01*
X116788911Y-129470711D01*
X111462572Y-134797050D01*
X111361085Y-134645163D01*
X110961428Y-134378121D01*
X110490000Y-134284348D01*
X110018572Y-134378121D01*
X109677200Y-134606218D01*
X109677200Y-133518278D01*
X116144678Y-127050800D01*
X125120400Y-127050800D01*
X125120400Y-127502257D01*
X125213206Y-127726311D01*
X125384689Y-127897794D01*
X125608743Y-127990600D01*
X126695200Y-127990600D01*
X126847600Y-127838200D01*
X126847600Y-126898400D01*
X127152400Y-126898400D01*
X127152400Y-127838200D01*
X127304800Y-127990600D01*
X128391257Y-127990600D01*
X128615311Y-127897794D01*
X128786794Y-127726311D01*
X128879600Y-127502257D01*
X128879600Y-127050800D01*
X128727200Y-126898400D01*
X127152400Y-126898400D01*
X126847600Y-126898400D01*
X125272800Y-126898400D01*
X125120400Y-127050800D01*
X116144678Y-127050800D01*
X117205735Y-125989743D01*
X125120400Y-125989743D01*
X125120400Y-126441200D01*
X125272800Y-126593600D01*
X126847600Y-126593600D01*
X126847600Y-125653800D01*
X126695200Y-125501400D01*
X125608743Y-125501400D01*
X125384689Y-125594206D01*
X125213206Y-125765689D01*
X125120400Y-125989743D01*
X117205735Y-125989743D01*
X120172689Y-123022789D01*
X120271798Y-122874463D01*
X120306600Y-122699500D01*
X120306600Y-117974800D01*
X121680400Y-117974800D01*
X121680400Y-118791257D01*
X121773206Y-119015311D01*
X121944689Y-119186794D01*
X122168743Y-119279600D01*
X122885200Y-119279600D01*
X123037600Y-119127200D01*
X123037600Y-117822400D01*
X123342400Y-117822400D01*
X123342400Y-119127200D01*
X123494800Y-119279600D01*
X124211257Y-119279600D01*
X124435311Y-119186794D01*
X124606794Y-119015311D01*
X124699600Y-118791257D01*
X124699600Y-117974800D01*
X124547200Y-117822400D01*
X123342400Y-117822400D01*
X123037600Y-117822400D01*
X121832800Y-117822400D01*
X121680400Y-117974800D01*
X120306600Y-117974800D01*
X120306600Y-116820000D01*
X120271798Y-116645037D01*
X120207456Y-116548743D01*
X121680400Y-116548743D01*
X121680400Y-117365200D01*
X121832800Y-117517600D01*
X123037600Y-117517600D01*
X123037600Y-116212800D01*
X123342400Y-116212800D01*
X123342400Y-117517600D01*
X124547200Y-117517600D01*
X124699600Y-117365200D01*
X124699600Y-116548743D01*
X124606794Y-116324689D01*
X124435311Y-116153206D01*
X124211257Y-116060400D01*
X123494800Y-116060400D01*
X123342400Y-116212800D01*
X123037600Y-116212800D01*
X122885200Y-116060400D01*
X122168743Y-116060400D01*
X121944689Y-116153206D01*
X121773206Y-116324689D01*
X121680400Y-116548743D01*
X120207456Y-116548743D01*
X120172689Y-116496711D01*
X120078426Y-116433726D01*
X120027200Y-116382500D01*
X119948439Y-116382500D01*
X119849400Y-116362800D01*
X118570000Y-116362800D01*
X118462268Y-116384229D01*
X118417600Y-116384229D01*
X118417600Y-116382500D01*
X118397600Y-116382500D01*
X118397600Y-116257500D01*
X118417600Y-116257500D01*
X118417600Y-116255771D01*
X118462268Y-116255771D01*
X118570000Y-116277200D01*
X119849400Y-116277200D01*
X119948439Y-116257500D01*
X120027200Y-116257500D01*
X120078426Y-116206274D01*
X120172689Y-116143289D01*
X120271798Y-115994963D01*
X120306456Y-115820722D01*
X121979229Y-114147949D01*
X121979229Y-114470000D01*
X122002885Y-114588927D01*
X122070252Y-114689748D01*
X122171073Y-114757115D01*
X122290000Y-114780771D01*
X124090000Y-114780771D01*
X124208927Y-114757115D01*
X124309748Y-114689748D01*
X124377115Y-114588927D01*
X124400771Y-114470000D01*
X124400771Y-112672800D01*
X125646822Y-112672800D01*
X126767310Y-113793289D01*
X126767310Y-113793289D01*
G37*
X126767310Y-113793289D02*
X126883668Y-113871037D01*
X126915637Y-113892398D01*
X127059229Y-113920960D01*
X127059229Y-114470000D01*
X127082885Y-114588927D01*
X127150252Y-114689748D01*
X127251073Y-114757115D01*
X127370000Y-114780771D01*
X127812800Y-114780771D01*
X127812800Y-116359229D01*
X127370000Y-116359229D01*
X127251073Y-116382885D01*
X127150252Y-116450252D01*
X127082885Y-116551073D01*
X127059229Y-116670000D01*
X127059229Y-118670000D01*
X127082885Y-118788927D01*
X127150252Y-118889748D01*
X127251073Y-118957115D01*
X127370000Y-118980771D01*
X129170000Y-118980771D01*
X129288927Y-118957115D01*
X129389748Y-118889748D01*
X129457115Y-118788927D01*
X129480771Y-118670000D01*
X129480771Y-117398800D01*
X130835400Y-117398800D01*
X130835400Y-117850257D01*
X130928206Y-118074311D01*
X131099689Y-118245794D01*
X131323743Y-118338600D01*
X132410200Y-118338600D01*
X132562600Y-118186200D01*
X132562600Y-117246400D01*
X130987800Y-117246400D01*
X130835400Y-117398800D01*
X129480771Y-117398800D01*
X129480771Y-116670000D01*
X129457115Y-116551073D01*
X129389748Y-116450252D01*
X129288927Y-116382885D01*
X129170000Y-116359229D01*
X128727200Y-116359229D01*
X128727200Y-116337743D01*
X130835400Y-116337743D01*
X130835400Y-116789200D01*
X130987800Y-116941600D01*
X132562600Y-116941600D01*
X132562600Y-116001800D01*
X132410200Y-115849400D01*
X131323743Y-115849400D01*
X131099689Y-115942206D01*
X130928206Y-116113689D01*
X130835400Y-116337743D01*
X128727200Y-116337743D01*
X128727200Y-114819178D01*
X128765607Y-114780771D01*
X129170000Y-114780771D01*
X129288927Y-114757115D01*
X129389748Y-114689748D01*
X129457115Y-114588927D01*
X129474167Y-114503200D01*
X131134229Y-114503200D01*
X131134229Y-114681000D01*
X131157885Y-114799927D01*
X131225252Y-114900748D01*
X131326073Y-114968115D01*
X131445000Y-114991771D01*
X132264040Y-114991771D01*
X132292602Y-115135363D01*
X132391711Y-115283689D01*
X132540037Y-115382798D01*
X132715000Y-115417600D01*
X132754222Y-115417600D01*
X133186022Y-115849400D01*
X133019800Y-115849400D01*
X132867400Y-116001800D01*
X132867400Y-116941600D01*
X132887400Y-116941600D01*
X132887400Y-117246400D01*
X132867400Y-117246400D01*
X132867400Y-118186200D01*
X133019800Y-118338600D01*
X134106257Y-118338600D01*
X134330311Y-118245794D01*
X134501794Y-118074311D01*
X134594600Y-117850257D01*
X134594600Y-117398800D01*
X134442202Y-117246402D01*
X134583024Y-117246402D01*
X138765000Y-121428378D01*
X138765000Y-122340740D01*
X138734452Y-122272676D01*
X138068891Y-122031327D01*
X137361634Y-122063048D01*
X136855548Y-122272676D01*
X136732458Y-122546931D01*
X137795000Y-123609474D01*
X137809142Y-123595331D01*
X138024669Y-123810858D01*
X138010526Y-123825000D01*
X138024669Y-123839142D01*
X137809142Y-124054669D01*
X137795000Y-124040526D01*
X136732458Y-125103069D01*
X136855548Y-125377324D01*
X137446723Y-125591699D01*
X134953022Y-128085400D01*
X132872705Y-128085400D01*
X132876194Y-128081911D01*
X132890501Y-128047371D01*
X133309360Y-128047371D01*
X133428287Y-128023715D01*
X133529108Y-127956348D01*
X133596475Y-127855527D01*
X133620131Y-127736600D01*
X133620131Y-126405640D01*
X133596475Y-126286713D01*
X133529108Y-126185892D01*
X133487200Y-126157890D01*
X133487200Y-125215185D01*
X133690357Y-125299543D01*
X134277069Y-125300055D01*
X134819316Y-125076004D01*
X135234546Y-124661498D01*
X135459543Y-124119643D01*
X135460039Y-123551109D01*
X136001327Y-123551109D01*
X136033048Y-124258366D01*
X136242676Y-124764452D01*
X136516931Y-124887542D01*
X137579474Y-123825000D01*
X136516931Y-122762458D01*
X136242676Y-122885548D01*
X136001327Y-123551109D01*
X135460039Y-123551109D01*
X135460055Y-123532931D01*
X135236004Y-122990684D01*
X134821498Y-122575454D01*
X134279643Y-122350457D01*
X133692931Y-122349945D01*
X133150684Y-122573996D01*
X132735454Y-122988502D01*
X132510457Y-123530357D01*
X132509945Y-124117069D01*
X132671843Y-124508894D01*
X132607602Y-124605037D01*
X132572800Y-124780000D01*
X132572800Y-125834207D01*
X132480657Y-125796040D01*
X132372100Y-125796040D01*
X132219700Y-125948440D01*
X132219700Y-126918720D01*
X132252400Y-126918720D01*
X132252400Y-127223520D01*
X132219700Y-127223520D01*
X132219700Y-127243520D01*
X131940300Y-127243520D01*
X131940300Y-127223520D01*
X131907600Y-127223520D01*
X131907600Y-126918720D01*
X131940300Y-126918720D01*
X131940300Y-125948440D01*
X131787900Y-125796040D01*
X131679343Y-125796040D01*
X131498696Y-125870866D01*
X131453289Y-125802911D01*
X131304963Y-125703802D01*
X131130000Y-125669000D01*
X128855578Y-125669000D01*
X128289647Y-125103069D01*
X129112458Y-125103069D01*
X129235548Y-125377324D01*
X129901109Y-125618673D01*
X130608366Y-125586952D01*
X131114452Y-125377324D01*
X131237542Y-125103069D01*
X130175000Y-124040526D01*
X129112458Y-125103069D01*
X128289647Y-125103069D01*
X127683065Y-124496487D01*
X127839543Y-124119643D01*
X127840039Y-123551109D01*
X128381327Y-123551109D01*
X128413048Y-124258366D01*
X128622676Y-124764452D01*
X128896931Y-124887542D01*
X129959474Y-123825000D01*
X130390526Y-123825000D01*
X131453069Y-124887542D01*
X131727324Y-124764452D01*
X131968673Y-124098891D01*
X131936952Y-123391634D01*
X131727324Y-122885548D01*
X131453069Y-122762458D01*
X130390526Y-123825000D01*
X129959474Y-123825000D01*
X128896931Y-122762458D01*
X128622676Y-122885548D01*
X128381327Y-123551109D01*
X127840039Y-123551109D01*
X127840055Y-123532931D01*
X127616004Y-122990684D01*
X127201498Y-122575454D01*
X127132807Y-122546931D01*
X129112458Y-122546931D01*
X130175000Y-123609474D01*
X131237542Y-122546931D01*
X131114452Y-122272676D01*
X130448891Y-122031327D01*
X129741634Y-122063048D01*
X129235548Y-122272676D01*
X129112458Y-122546931D01*
X127132807Y-122546931D01*
X126659643Y-122350457D01*
X126072931Y-122349945D01*
X125530684Y-122573996D01*
X125115454Y-122988502D01*
X124890457Y-123530357D01*
X124889945Y-124117069D01*
X125113996Y-124659316D01*
X125528502Y-125074546D01*
X126070357Y-125299543D01*
X126657069Y-125300055D01*
X127036641Y-125143219D01*
X127394822Y-125501400D01*
X127304800Y-125501400D01*
X127152400Y-125653800D01*
X127152400Y-126593600D01*
X128727200Y-126593600D01*
X128737400Y-126583400D01*
X130539869Y-126583400D01*
X130539869Y-127736600D01*
X130563525Y-127855527D01*
X130630892Y-127956348D01*
X130731713Y-128023715D01*
X130850640Y-128047371D01*
X131269499Y-128047371D01*
X131283806Y-128081911D01*
X131287295Y-128085400D01*
X130726700Y-128085400D01*
X130551737Y-128120202D01*
X130403411Y-128219311D01*
X129484222Y-129138500D01*
X128747700Y-129138500D01*
X128580771Y-129171704D01*
X128580771Y-129159000D01*
X128557115Y-129040073D01*
X128489748Y-128939252D01*
X128388927Y-128871885D01*
X128270000Y-128848229D01*
X125730000Y-128848229D01*
X125611073Y-128871885D01*
X125510252Y-128939252D01*
X125442885Y-129040073D01*
X125419229Y-129159000D01*
X125419229Y-129336800D01*
X117112200Y-129336800D01*
X116937237Y-129371602D01*
X116788911Y-129470711D01*
X111462572Y-134797050D01*
X111361085Y-134645163D01*
X110961428Y-134378121D01*
X110490000Y-134284348D01*
X110018572Y-134378121D01*
X109677200Y-134606218D01*
X109677200Y-133518278D01*
X116144678Y-127050800D01*
X125120400Y-127050800D01*
X125120400Y-127502257D01*
X125213206Y-127726311D01*
X125384689Y-127897794D01*
X125608743Y-127990600D01*
X126695200Y-127990600D01*
X126847600Y-127838200D01*
X126847600Y-126898400D01*
X127152400Y-126898400D01*
X127152400Y-127838200D01*
X127304800Y-127990600D01*
X128391257Y-127990600D01*
X128615311Y-127897794D01*
X128786794Y-127726311D01*
X128879600Y-127502257D01*
X128879600Y-127050800D01*
X128727200Y-126898400D01*
X127152400Y-126898400D01*
X126847600Y-126898400D01*
X125272800Y-126898400D01*
X125120400Y-127050800D01*
X116144678Y-127050800D01*
X117205735Y-125989743D01*
X125120400Y-125989743D01*
X125120400Y-126441200D01*
X125272800Y-126593600D01*
X126847600Y-126593600D01*
X126847600Y-125653800D01*
X126695200Y-125501400D01*
X125608743Y-125501400D01*
X125384689Y-125594206D01*
X125213206Y-125765689D01*
X125120400Y-125989743D01*
X117205735Y-125989743D01*
X120172689Y-123022789D01*
X120271798Y-122874463D01*
X120306600Y-122699500D01*
X120306600Y-117974800D01*
X121680400Y-117974800D01*
X121680400Y-118791257D01*
X121773206Y-119015311D01*
X121944689Y-119186794D01*
X122168743Y-119279600D01*
X122885200Y-119279600D01*
X123037600Y-119127200D01*
X123037600Y-117822400D01*
X123342400Y-117822400D01*
X123342400Y-119127200D01*
X123494800Y-119279600D01*
X124211257Y-119279600D01*
X124435311Y-119186794D01*
X124606794Y-119015311D01*
X124699600Y-118791257D01*
X124699600Y-117974800D01*
X124547200Y-117822400D01*
X123342400Y-117822400D01*
X123037600Y-117822400D01*
X121832800Y-117822400D01*
X121680400Y-117974800D01*
X120306600Y-117974800D01*
X120306600Y-116820000D01*
X120271798Y-116645037D01*
X120207456Y-116548743D01*
X121680400Y-116548743D01*
X121680400Y-117365200D01*
X121832800Y-117517600D01*
X123037600Y-117517600D01*
X123037600Y-116212800D01*
X123342400Y-116212800D01*
X123342400Y-117517600D01*
X124547200Y-117517600D01*
X124699600Y-117365200D01*
X124699600Y-116548743D01*
X124606794Y-116324689D01*
X124435311Y-116153206D01*
X124211257Y-116060400D01*
X123494800Y-116060400D01*
X123342400Y-116212800D01*
X123037600Y-116212800D01*
X122885200Y-116060400D01*
X122168743Y-116060400D01*
X121944689Y-116153206D01*
X121773206Y-116324689D01*
X121680400Y-116548743D01*
X120207456Y-116548743D01*
X120172689Y-116496711D01*
X120078426Y-116433726D01*
X120027200Y-116382500D01*
X119948439Y-116382500D01*
X119849400Y-116362800D01*
X118570000Y-116362800D01*
X118462268Y-116384229D01*
X118417600Y-116384229D01*
X118417600Y-116382500D01*
X118397600Y-116382500D01*
X118397600Y-116257500D01*
X118417600Y-116257500D01*
X118417600Y-116255771D01*
X118462268Y-116255771D01*
X118570000Y-116277200D01*
X119849400Y-116277200D01*
X119948439Y-116257500D01*
X120027200Y-116257500D01*
X120078426Y-116206274D01*
X120172689Y-116143289D01*
X120271798Y-115994963D01*
X120306456Y-115820722D01*
X121979229Y-114147949D01*
X121979229Y-114470000D01*
X122002885Y-114588927D01*
X122070252Y-114689748D01*
X122171073Y-114757115D01*
X122290000Y-114780771D01*
X124090000Y-114780771D01*
X124208927Y-114757115D01*
X124309748Y-114689748D01*
X124377115Y-114588927D01*
X124400771Y-114470000D01*
X124400771Y-112672800D01*
X125646822Y-112672800D01*
X126767310Y-113793289D01*
G36*
X170457852Y-122059630D02*
X170381634Y-122063048D01*
X169875548Y-122272676D01*
X169752458Y-122546931D01*
X170815000Y-123609474D01*
X170829143Y-123595332D01*
X171044669Y-123810858D01*
X171030526Y-123825000D01*
X171044669Y-123839143D01*
X170829143Y-124054669D01*
X170815000Y-124040526D01*
X169752458Y-125103069D01*
X169875548Y-125377324D01*
X170434579Y-125580043D01*
X167947822Y-128066800D01*
X166685000Y-128066800D01*
X166511867Y-128101238D01*
X166531194Y-128081911D01*
X166545501Y-128047371D01*
X166964360Y-128047371D01*
X167083287Y-128023715D01*
X167184108Y-127956348D01*
X167251475Y-127855527D01*
X167275131Y-127736600D01*
X167275131Y-126405640D01*
X167251475Y-126286713D01*
X167219267Y-126238511D01*
X167328289Y-126129489D01*
X167427398Y-125981163D01*
X167427731Y-125979490D01*
X167462200Y-125806200D01*
X167462200Y-125231825D01*
X167839316Y-125076004D01*
X168254546Y-124661498D01*
X168479543Y-124119643D01*
X168480039Y-123551109D01*
X169021327Y-123551109D01*
X169053048Y-124258366D01*
X169262676Y-124764452D01*
X169536931Y-124887542D01*
X170599474Y-123825000D01*
X169536931Y-122762458D01*
X169262676Y-122885548D01*
X169021327Y-123551109D01*
X168480039Y-123551109D01*
X168480055Y-123532931D01*
X168256004Y-122990684D01*
X167841498Y-122575454D01*
X167299643Y-122350457D01*
X166712931Y-122349945D01*
X166170684Y-122573996D01*
X165755454Y-122988502D01*
X165530457Y-123530357D01*
X165529945Y-124117069D01*
X165753996Y-124659316D01*
X166168502Y-125074546D01*
X166547800Y-125232044D01*
X166547800Y-125616822D01*
X166361711Y-125802911D01*
X166316304Y-125870866D01*
X166135657Y-125796040D01*
X166027100Y-125796040D01*
X165874700Y-125948440D01*
X165874700Y-126918720D01*
X165907400Y-126918720D01*
X165907400Y-127223520D01*
X165874700Y-127223520D01*
X165874700Y-128193800D01*
X166027100Y-128346200D01*
X166135657Y-128346200D01*
X166313803Y-128272410D01*
X166262602Y-128349037D01*
X166227800Y-128524000D01*
X166227800Y-128555596D01*
X166209980Y-128567503D01*
X166133327Y-128516285D01*
X166014400Y-128492629D01*
X165455600Y-128492629D01*
X165336673Y-128516285D01*
X165260020Y-128567503D01*
X165242200Y-128555596D01*
X165242200Y-128524000D01*
X165207398Y-128349037D01*
X165156197Y-128272410D01*
X165334343Y-128346200D01*
X165442900Y-128346200D01*
X165595300Y-128193800D01*
X165595300Y-127223520D01*
X165562600Y-127223520D01*
X165562600Y-126918720D01*
X165595300Y-126918720D01*
X165595300Y-125948440D01*
X165442900Y-125796040D01*
X165334343Y-125796040D01*
X165153696Y-125870866D01*
X165108289Y-125802911D01*
X164959963Y-125703802D01*
X164785000Y-125669000D01*
X161875578Y-125669000D01*
X161309647Y-125103069D01*
X162132458Y-125103069D01*
X162255548Y-125377324D01*
X162921109Y-125618673D01*
X163628366Y-125586952D01*
X164134452Y-125377324D01*
X164257542Y-125103069D01*
X163195000Y-124040526D01*
X162132458Y-125103069D01*
X161309647Y-125103069D01*
X160703065Y-124496487D01*
X160859543Y-124119643D01*
X160860039Y-123551109D01*
X161401327Y-123551109D01*
X161433048Y-124258366D01*
X161642676Y-124764452D01*
X161916931Y-124887542D01*
X162979474Y-123825000D01*
X163410526Y-123825000D01*
X164473069Y-124887542D01*
X164747324Y-124764452D01*
X164988673Y-124098891D01*
X164956952Y-123391634D01*
X164747324Y-122885548D01*
X164473069Y-122762458D01*
X163410526Y-123825000D01*
X162979474Y-123825000D01*
X161916931Y-122762458D01*
X161642676Y-122885548D01*
X161401327Y-123551109D01*
X160860039Y-123551109D01*
X160860055Y-123532931D01*
X160636004Y-122990684D01*
X160221498Y-122575454D01*
X160152807Y-122546931D01*
X162132458Y-122546931D01*
X163195000Y-123609474D01*
X164257542Y-122546931D01*
X164134452Y-122272676D01*
X163468891Y-122031327D01*
X162761634Y-122063048D01*
X162255548Y-122272676D01*
X162132458Y-122546931D01*
X160152807Y-122546931D01*
X159679643Y-122350457D01*
X159092931Y-122349945D01*
X158550684Y-122573996D01*
X158135454Y-122988502D01*
X157910457Y-123530357D01*
X157909945Y-124117069D01*
X158133996Y-124659316D01*
X158548502Y-125074546D01*
X159090357Y-125299543D01*
X159677069Y-125300055D01*
X160056641Y-125143219D01*
X160414822Y-125501400D01*
X160324800Y-125501400D01*
X160172400Y-125653800D01*
X160172400Y-126593600D01*
X161747200Y-126593600D01*
X161757400Y-126583400D01*
X164194869Y-126583400D01*
X164194869Y-127736600D01*
X164218525Y-127855527D01*
X164285892Y-127956348D01*
X164386713Y-128023715D01*
X164505640Y-128047371D01*
X164924499Y-128047371D01*
X164938806Y-128081911D01*
X164958133Y-128101238D01*
X164785000Y-128066800D01*
X152954478Y-128066800D01*
X151938478Y-127050800D01*
X158140400Y-127050800D01*
X158140400Y-127502257D01*
X158233206Y-127726311D01*
X158404689Y-127897794D01*
X158628743Y-127990600D01*
X159715200Y-127990600D01*
X159867600Y-127838200D01*
X159867600Y-126898400D01*
X160172400Y-126898400D01*
X160172400Y-127838200D01*
X160324800Y-127990600D01*
X161411257Y-127990600D01*
X161635311Y-127897794D01*
X161806794Y-127726311D01*
X161899600Y-127502257D01*
X161899600Y-127050800D01*
X161747200Y-126898400D01*
X160172400Y-126898400D01*
X159867600Y-126898400D01*
X158292800Y-126898400D01*
X158140400Y-127050800D01*
X151938478Y-127050800D01*
X150877421Y-125989743D01*
X158140400Y-125989743D01*
X158140400Y-126441200D01*
X158292800Y-126593600D01*
X159867600Y-126593600D01*
X159867600Y-125653800D01*
X159715200Y-125501400D01*
X158628743Y-125501400D01*
X158404689Y-125594206D01*
X158233206Y-125765689D01*
X158140400Y-125989743D01*
X150877421Y-125989743D01*
X135854989Y-110967311D01*
X135706663Y-110868202D01*
X135531700Y-110833400D01*
X119378391Y-110833400D01*
X119420870Y-110731099D01*
X119421130Y-110433009D01*
X119307296Y-110157510D01*
X119096699Y-109946544D01*
X118821399Y-109832230D01*
X118568888Y-109832010D01*
X118423078Y-109686200D01*
X158084422Y-109686200D01*
X170457852Y-122059630D01*
X170457852Y-122059630D01*
G37*
X170457852Y-122059630D02*
X170381634Y-122063048D01*
X169875548Y-122272676D01*
X169752458Y-122546931D01*
X170815000Y-123609474D01*
X170829143Y-123595332D01*
X171044669Y-123810858D01*
X171030526Y-123825000D01*
X171044669Y-123839143D01*
X170829143Y-124054669D01*
X170815000Y-124040526D01*
X169752458Y-125103069D01*
X169875548Y-125377324D01*
X170434579Y-125580043D01*
X167947822Y-128066800D01*
X166685000Y-128066800D01*
X166511867Y-128101238D01*
X166531194Y-128081911D01*
X166545501Y-128047371D01*
X166964360Y-128047371D01*
X167083287Y-128023715D01*
X167184108Y-127956348D01*
X167251475Y-127855527D01*
X167275131Y-127736600D01*
X167275131Y-126405640D01*
X167251475Y-126286713D01*
X167219267Y-126238511D01*
X167328289Y-126129489D01*
X167427398Y-125981163D01*
X167427731Y-125979490D01*
X167462200Y-125806200D01*
X167462200Y-125231825D01*
X167839316Y-125076004D01*
X168254546Y-124661498D01*
X168479543Y-124119643D01*
X168480039Y-123551109D01*
X169021327Y-123551109D01*
X169053048Y-124258366D01*
X169262676Y-124764452D01*
X169536931Y-124887542D01*
X170599474Y-123825000D01*
X169536931Y-122762458D01*
X169262676Y-122885548D01*
X169021327Y-123551109D01*
X168480039Y-123551109D01*
X168480055Y-123532931D01*
X168256004Y-122990684D01*
X167841498Y-122575454D01*
X167299643Y-122350457D01*
X166712931Y-122349945D01*
X166170684Y-122573996D01*
X165755454Y-122988502D01*
X165530457Y-123530357D01*
X165529945Y-124117069D01*
X165753996Y-124659316D01*
X166168502Y-125074546D01*
X166547800Y-125232044D01*
X166547800Y-125616822D01*
X166361711Y-125802911D01*
X166316304Y-125870866D01*
X166135657Y-125796040D01*
X166027100Y-125796040D01*
X165874700Y-125948440D01*
X165874700Y-126918720D01*
X165907400Y-126918720D01*
X165907400Y-127223520D01*
X165874700Y-127223520D01*
X165874700Y-128193800D01*
X166027100Y-128346200D01*
X166135657Y-128346200D01*
X166313803Y-128272410D01*
X166262602Y-128349037D01*
X166227800Y-128524000D01*
X166227800Y-128555596D01*
X166209980Y-128567503D01*
X166133327Y-128516285D01*
X166014400Y-128492629D01*
X165455600Y-128492629D01*
X165336673Y-128516285D01*
X165260020Y-128567503D01*
X165242200Y-128555596D01*
X165242200Y-128524000D01*
X165207398Y-128349037D01*
X165156197Y-128272410D01*
X165334343Y-128346200D01*
X165442900Y-128346200D01*
X165595300Y-128193800D01*
X165595300Y-127223520D01*
X165562600Y-127223520D01*
X165562600Y-126918720D01*
X165595300Y-126918720D01*
X165595300Y-125948440D01*
X165442900Y-125796040D01*
X165334343Y-125796040D01*
X165153696Y-125870866D01*
X165108289Y-125802911D01*
X164959963Y-125703802D01*
X164785000Y-125669000D01*
X161875578Y-125669000D01*
X161309647Y-125103069D01*
X162132458Y-125103069D01*
X162255548Y-125377324D01*
X162921109Y-125618673D01*
X163628366Y-125586952D01*
X164134452Y-125377324D01*
X164257542Y-125103069D01*
X163195000Y-124040526D01*
X162132458Y-125103069D01*
X161309647Y-125103069D01*
X160703065Y-124496487D01*
X160859543Y-124119643D01*
X160860039Y-123551109D01*
X161401327Y-123551109D01*
X161433048Y-124258366D01*
X161642676Y-124764452D01*
X161916931Y-124887542D01*
X162979474Y-123825000D01*
X163410526Y-123825000D01*
X164473069Y-124887542D01*
X164747324Y-124764452D01*
X164988673Y-124098891D01*
X164956952Y-123391634D01*
X164747324Y-122885548D01*
X164473069Y-122762458D01*
X163410526Y-123825000D01*
X162979474Y-123825000D01*
X161916931Y-122762458D01*
X161642676Y-122885548D01*
X161401327Y-123551109D01*
X160860039Y-123551109D01*
X160860055Y-123532931D01*
X160636004Y-122990684D01*
X160221498Y-122575454D01*
X160152807Y-122546931D01*
X162132458Y-122546931D01*
X163195000Y-123609474D01*
X164257542Y-122546931D01*
X164134452Y-122272676D01*
X163468891Y-122031327D01*
X162761634Y-122063048D01*
X162255548Y-122272676D01*
X162132458Y-122546931D01*
X160152807Y-122546931D01*
X159679643Y-122350457D01*
X159092931Y-122349945D01*
X158550684Y-122573996D01*
X158135454Y-122988502D01*
X157910457Y-123530357D01*
X157909945Y-124117069D01*
X158133996Y-124659316D01*
X158548502Y-125074546D01*
X159090357Y-125299543D01*
X159677069Y-125300055D01*
X160056641Y-125143219D01*
X160414822Y-125501400D01*
X160324800Y-125501400D01*
X160172400Y-125653800D01*
X160172400Y-126593600D01*
X161747200Y-126593600D01*
X161757400Y-126583400D01*
X164194869Y-126583400D01*
X164194869Y-127736600D01*
X164218525Y-127855527D01*
X164285892Y-127956348D01*
X164386713Y-128023715D01*
X164505640Y-128047371D01*
X164924499Y-128047371D01*
X164938806Y-128081911D01*
X164958133Y-128101238D01*
X164785000Y-128066800D01*
X152954478Y-128066800D01*
X151938478Y-127050800D01*
X158140400Y-127050800D01*
X158140400Y-127502257D01*
X158233206Y-127726311D01*
X158404689Y-127897794D01*
X158628743Y-127990600D01*
X159715200Y-127990600D01*
X159867600Y-127838200D01*
X159867600Y-126898400D01*
X160172400Y-126898400D01*
X160172400Y-127838200D01*
X160324800Y-127990600D01*
X161411257Y-127990600D01*
X161635311Y-127897794D01*
X161806794Y-127726311D01*
X161899600Y-127502257D01*
X161899600Y-127050800D01*
X161747200Y-126898400D01*
X160172400Y-126898400D01*
X159867600Y-126898400D01*
X158292800Y-126898400D01*
X158140400Y-127050800D01*
X151938478Y-127050800D01*
X150877421Y-125989743D01*
X158140400Y-125989743D01*
X158140400Y-126441200D01*
X158292800Y-126593600D01*
X159867600Y-126593600D01*
X159867600Y-125653800D01*
X159715200Y-125501400D01*
X158628743Y-125501400D01*
X158404689Y-125594206D01*
X158233206Y-125765689D01*
X158140400Y-125989743D01*
X150877421Y-125989743D01*
X135854989Y-110967311D01*
X135706663Y-110868202D01*
X135531700Y-110833400D01*
X119378391Y-110833400D01*
X119420870Y-110731099D01*
X119421130Y-110433009D01*
X119307296Y-110157510D01*
X119096699Y-109946544D01*
X118821399Y-109832230D01*
X118568888Y-109832010D01*
X118423078Y-109686200D01*
X158084422Y-109686200D01*
X170457852Y-122059630D01*
G36*
X115722400Y-115417600D02*
X115742400Y-115417600D01*
X115742400Y-115722400D01*
X115722400Y-115722400D01*
X115722400Y-115742400D01*
X115417600Y-115742400D01*
X115417600Y-115722400D01*
X115397600Y-115722400D01*
X115397600Y-115417600D01*
X115417600Y-115417600D01*
X115417600Y-115397600D01*
X115722400Y-115397600D01*
X115722400Y-115417600D01*
X115722400Y-115417600D01*
G37*
X115722400Y-115417600D02*
X115742400Y-115417600D01*
X115742400Y-115722400D01*
X115722400Y-115722400D01*
X115722400Y-115742400D01*
X115417600Y-115742400D01*
X115417600Y-115722400D01*
X115397600Y-115722400D01*
X115397600Y-115417600D01*
X115417600Y-115417600D01*
X115417600Y-115397600D01*
X115722400Y-115397600D01*
X115722400Y-115417600D01*
G36*
X103879211Y-85869689D02*
X108108549Y-90099027D01*
X108102400Y-90101704D01*
X108102400Y-91922600D01*
X109575600Y-91922600D01*
X109575600Y-91566078D01*
X113850500Y-95840978D01*
X113850500Y-110021756D01*
X113672844Y-110199101D01*
X113558530Y-110474401D01*
X113558270Y-110772491D01*
X113657609Y-111012909D01*
X113605100Y-110960400D01*
X113573743Y-110960400D01*
X113349689Y-111053206D01*
X113178206Y-111224689D01*
X113085400Y-111448743D01*
X113085400Y-112265200D01*
X113237800Y-112417600D01*
X113757500Y-112417600D01*
X113757500Y-112397600D01*
X113882500Y-112397600D01*
X113882500Y-112417600D01*
X113884229Y-112417600D01*
X113884229Y-112722400D01*
X113882500Y-112722400D01*
X113882500Y-112742400D01*
X113757500Y-112742400D01*
X113757500Y-112722400D01*
X113237800Y-112722400D01*
X113085400Y-112874800D01*
X113085400Y-113384229D01*
X111570000Y-113384229D01*
X111451073Y-113407885D01*
X111350252Y-113475252D01*
X111282885Y-113576073D01*
X111265971Y-113661107D01*
X111224689Y-113678206D01*
X111053206Y-113849689D01*
X110960400Y-114073743D01*
X110960400Y-114105100D01*
X111112800Y-114257500D01*
X112417600Y-114257500D01*
X112417600Y-114255771D01*
X112722400Y-114255771D01*
X112722400Y-114257500D01*
X112742400Y-114257500D01*
X112742400Y-114382500D01*
X112722400Y-114382500D01*
X112722400Y-114384229D01*
X112677732Y-114384229D01*
X112570000Y-114362800D01*
X112462268Y-114384229D01*
X112417600Y-114384229D01*
X112417600Y-114382500D01*
X111112800Y-114382500D01*
X110960400Y-114534900D01*
X110960400Y-114566257D01*
X111053206Y-114790311D01*
X111125695Y-114862800D01*
X109804522Y-114862800D01*
X109829600Y-114802257D01*
X109829600Y-114350800D01*
X109677200Y-114198400D01*
X108102400Y-114198400D01*
X108102400Y-115138200D01*
X108223611Y-115259411D01*
X107875400Y-115607622D01*
X107558379Y-115290600D01*
X107645200Y-115290600D01*
X107797600Y-115138200D01*
X107797600Y-114198400D01*
X107777600Y-114198400D01*
X107777600Y-113893600D01*
X107797600Y-113893600D01*
X107797600Y-112953800D01*
X108102400Y-112953800D01*
X108102400Y-113893600D01*
X109677200Y-113893600D01*
X109829600Y-113741200D01*
X109829600Y-113289743D01*
X109736794Y-113065689D01*
X109565311Y-112894206D01*
X109341257Y-112801400D01*
X108254800Y-112801400D01*
X108102400Y-112953800D01*
X107797600Y-112953800D01*
X107645200Y-112801400D01*
X106882800Y-112801400D01*
X106882800Y-109744278D01*
X109561189Y-107065889D01*
X109660298Y-106917563D01*
X109695100Y-106742600D01*
X109695100Y-99179400D01*
X109660298Y-99004437D01*
X109561189Y-98856111D01*
X105867200Y-95162122D01*
X105867200Y-93848685D01*
X105915448Y-93839088D01*
X106343947Y-93552775D01*
X106498970Y-93320766D01*
X106506462Y-93345889D01*
X106908290Y-93840236D01*
X107468709Y-94143180D01*
X107546297Y-94157674D01*
X107797600Y-94048296D01*
X107797600Y-92227400D01*
X108102400Y-92227400D01*
X108102400Y-94048296D01*
X108353703Y-94157674D01*
X108431291Y-94143180D01*
X108991710Y-93840236D01*
X109393538Y-93345889D01*
X109575600Y-92735400D01*
X109575600Y-92227400D01*
X108102400Y-92227400D01*
X107797600Y-92227400D01*
X107777600Y-92227400D01*
X107777600Y-91922600D01*
X107797600Y-91922600D01*
X107797600Y-90101704D01*
X107546297Y-89992326D01*
X107468709Y-90006820D01*
X106908290Y-90309764D01*
X106506462Y-90804111D01*
X106498970Y-90829234D01*
X106343947Y-90597225D01*
X105915448Y-90310912D01*
X105410000Y-90210372D01*
X104904552Y-90310912D01*
X104476053Y-90597225D01*
X104189740Y-91025724D01*
X104140000Y-91275784D01*
X104090260Y-91025724D01*
X103809800Y-90605985D01*
X103809800Y-85765809D01*
X103879211Y-85869689D01*
X103879211Y-85869689D01*
G37*
X103879211Y-85869689D02*
X108108549Y-90099027D01*
X108102400Y-90101704D01*
X108102400Y-91922600D01*
X109575600Y-91922600D01*
X109575600Y-91566078D01*
X113850500Y-95840978D01*
X113850500Y-110021756D01*
X113672844Y-110199101D01*
X113558530Y-110474401D01*
X113558270Y-110772491D01*
X113657609Y-111012909D01*
X113605100Y-110960400D01*
X113573743Y-110960400D01*
X113349689Y-111053206D01*
X113178206Y-111224689D01*
X113085400Y-111448743D01*
X113085400Y-112265200D01*
X113237800Y-112417600D01*
X113757500Y-112417600D01*
X113757500Y-112397600D01*
X113882500Y-112397600D01*
X113882500Y-112417600D01*
X113884229Y-112417600D01*
X113884229Y-112722400D01*
X113882500Y-112722400D01*
X113882500Y-112742400D01*
X113757500Y-112742400D01*
X113757500Y-112722400D01*
X113237800Y-112722400D01*
X113085400Y-112874800D01*
X113085400Y-113384229D01*
X111570000Y-113384229D01*
X111451073Y-113407885D01*
X111350252Y-113475252D01*
X111282885Y-113576073D01*
X111265971Y-113661107D01*
X111224689Y-113678206D01*
X111053206Y-113849689D01*
X110960400Y-114073743D01*
X110960400Y-114105100D01*
X111112800Y-114257500D01*
X112417600Y-114257500D01*
X112417600Y-114255771D01*
X112722400Y-114255771D01*
X112722400Y-114257500D01*
X112742400Y-114257500D01*
X112742400Y-114382500D01*
X112722400Y-114382500D01*
X112722400Y-114384229D01*
X112677732Y-114384229D01*
X112570000Y-114362800D01*
X112462268Y-114384229D01*
X112417600Y-114384229D01*
X112417600Y-114382500D01*
X111112800Y-114382500D01*
X110960400Y-114534900D01*
X110960400Y-114566257D01*
X111053206Y-114790311D01*
X111125695Y-114862800D01*
X109804522Y-114862800D01*
X109829600Y-114802257D01*
X109829600Y-114350800D01*
X109677200Y-114198400D01*
X108102400Y-114198400D01*
X108102400Y-115138200D01*
X108223611Y-115259411D01*
X107875400Y-115607622D01*
X107558379Y-115290600D01*
X107645200Y-115290600D01*
X107797600Y-115138200D01*
X107797600Y-114198400D01*
X107777600Y-114198400D01*
X107777600Y-113893600D01*
X107797600Y-113893600D01*
X107797600Y-112953800D01*
X108102400Y-112953800D01*
X108102400Y-113893600D01*
X109677200Y-113893600D01*
X109829600Y-113741200D01*
X109829600Y-113289743D01*
X109736794Y-113065689D01*
X109565311Y-112894206D01*
X109341257Y-112801400D01*
X108254800Y-112801400D01*
X108102400Y-112953800D01*
X107797600Y-112953800D01*
X107645200Y-112801400D01*
X106882800Y-112801400D01*
X106882800Y-109744278D01*
X109561189Y-107065889D01*
X109660298Y-106917563D01*
X109695100Y-106742600D01*
X109695100Y-99179400D01*
X109660298Y-99004437D01*
X109561189Y-98856111D01*
X105867200Y-95162122D01*
X105867200Y-93848685D01*
X105915448Y-93839088D01*
X106343947Y-93552775D01*
X106498970Y-93320766D01*
X106506462Y-93345889D01*
X106908290Y-93840236D01*
X107468709Y-94143180D01*
X107546297Y-94157674D01*
X107797600Y-94048296D01*
X107797600Y-92227400D01*
X108102400Y-92227400D01*
X108102400Y-94048296D01*
X108353703Y-94157674D01*
X108431291Y-94143180D01*
X108991710Y-93840236D01*
X109393538Y-93345889D01*
X109575600Y-92735400D01*
X109575600Y-92227400D01*
X108102400Y-92227400D01*
X107797600Y-92227400D01*
X107777600Y-92227400D01*
X107777600Y-91922600D01*
X107797600Y-91922600D01*
X107797600Y-90101704D01*
X107546297Y-89992326D01*
X107468709Y-90006820D01*
X106908290Y-90309764D01*
X106506462Y-90804111D01*
X106498970Y-90829234D01*
X106343947Y-90597225D01*
X105915448Y-90310912D01*
X105410000Y-90210372D01*
X104904552Y-90310912D01*
X104476053Y-90597225D01*
X104189740Y-91025724D01*
X104140000Y-91275784D01*
X104090260Y-91025724D01*
X103809800Y-90605985D01*
X103809800Y-85765809D01*
X103879211Y-85869689D01*
G36*
X118570000Y-115277200D02*
X118742400Y-115277200D01*
X118742400Y-115362800D01*
X118570000Y-115362800D01*
X118462268Y-115384229D01*
X118417600Y-115384229D01*
X118417600Y-115382500D01*
X118397600Y-115382500D01*
X118397600Y-115257500D01*
X118417600Y-115257500D01*
X118417600Y-115255771D01*
X118462268Y-115255771D01*
X118570000Y-115277200D01*
X118570000Y-115277200D01*
G37*
X118570000Y-115277200D02*
X118742400Y-115277200D01*
X118742400Y-115362800D01*
X118570000Y-115362800D01*
X118462268Y-115384229D01*
X118417600Y-115384229D01*
X118417600Y-115382500D01*
X118397600Y-115382500D01*
X118397600Y-115257500D01*
X118417600Y-115257500D01*
X118417600Y-115255771D01*
X118462268Y-115255771D01*
X118570000Y-115277200D01*
G36*
X109351873Y-74084820D02*
X109258100Y-74556248D01*
X109258100Y-75303752D01*
X109351873Y-75775180D01*
X109618915Y-76174837D01*
X110018572Y-76441879D01*
X110490000Y-76535652D01*
X110961428Y-76441879D01*
X111361085Y-76174837D01*
X111628127Y-75775180D01*
X111721900Y-75303752D01*
X111721900Y-74556248D01*
X111628127Y-74084820D01*
X111465345Y-73841200D01*
X112054655Y-73841200D01*
X111891873Y-74084820D01*
X111798100Y-74556248D01*
X111798100Y-75303752D01*
X111891873Y-75775180D01*
X112158915Y-76174837D01*
X112558572Y-76441879D01*
X113030000Y-76535652D01*
X113501428Y-76441879D01*
X113901085Y-76174837D01*
X113995563Y-76033441D01*
X114959411Y-76997289D01*
X115107737Y-77096398D01*
X115282700Y-77131200D01*
X133891422Y-77131200D01*
X139640369Y-82880147D01*
X139454063Y-82879985D01*
X138318739Y-81744661D01*
X138013846Y-81540938D01*
X137654200Y-81469400D01*
X133788600Y-81469400D01*
X133428954Y-81540938D01*
X133124061Y-81744661D01*
X131898461Y-82970261D01*
X131694738Y-83275154D01*
X131623200Y-83634800D01*
X131623200Y-85282948D01*
X131474539Y-85060461D01*
X131114586Y-84700508D01*
X131115073Y-84143127D01*
X130875829Y-83564113D01*
X130433217Y-83120728D01*
X129854621Y-82880474D01*
X129228127Y-82879927D01*
X128649113Y-83119171D01*
X128205728Y-83561783D01*
X127965474Y-84140379D01*
X127964927Y-84766873D01*
X128204171Y-85345887D01*
X128646783Y-85789272D01*
X129225379Y-86029526D01*
X129785937Y-86030015D01*
X129870200Y-86114278D01*
X129870200Y-90605985D01*
X129589740Y-91025724D01*
X129540000Y-91275784D01*
X129490260Y-91025724D01*
X129209800Y-90605985D01*
X129209800Y-88265000D01*
X129138262Y-87905354D01*
X128934539Y-87600461D01*
X126034586Y-84700508D01*
X126035073Y-84143127D01*
X125795829Y-83564113D01*
X125353217Y-83120728D01*
X124774621Y-82880474D01*
X124148127Y-82879927D01*
X123569113Y-83119171D01*
X123125728Y-83561783D01*
X122885474Y-84140379D01*
X122884927Y-84766873D01*
X123124171Y-85345887D01*
X123566783Y-85789272D01*
X124145379Y-86029526D01*
X124705937Y-86030015D01*
X127330200Y-88654278D01*
X127330200Y-90605985D01*
X127181030Y-90829234D01*
X127173538Y-90804111D01*
X126771710Y-90309764D01*
X126211291Y-90006820D01*
X126133703Y-89992326D01*
X125882400Y-90101704D01*
X125882400Y-91922600D01*
X125902400Y-91922600D01*
X125902400Y-92227400D01*
X125882400Y-92227400D01*
X125882400Y-94048296D01*
X126133703Y-94157674D01*
X126211291Y-94143180D01*
X126771710Y-93840236D01*
X127173538Y-93345889D01*
X127181030Y-93320766D01*
X127336053Y-93552775D01*
X127764552Y-93839088D01*
X128270000Y-93939628D01*
X128775448Y-93839088D01*
X129203947Y-93552775D01*
X129490260Y-93124276D01*
X129540000Y-92874216D01*
X129589740Y-93124276D01*
X129876053Y-93552775D01*
X130304552Y-93839088D01*
X130810000Y-93939628D01*
X131315448Y-93839088D01*
X131743947Y-93552775D01*
X132030260Y-93124276D01*
X132080000Y-92874216D01*
X132129740Y-93124276D01*
X132416053Y-93552775D01*
X132844552Y-93839088D01*
X133350000Y-93939628D01*
X133855448Y-93839088D01*
X134283947Y-93552775D01*
X134570260Y-93124276D01*
X134620000Y-92874216D01*
X134669740Y-93124276D01*
X134956053Y-93552775D01*
X135384552Y-93839088D01*
X135890000Y-93939628D01*
X136395448Y-93839088D01*
X136823947Y-93552775D01*
X137110260Y-93124276D01*
X137160000Y-92874216D01*
X137209740Y-93124276D01*
X137496053Y-93552775D01*
X137924552Y-93839088D01*
X138430000Y-93939628D01*
X138935448Y-93839088D01*
X139363947Y-93552775D01*
X139518970Y-93320766D01*
X139526462Y-93345889D01*
X139928290Y-93840236D01*
X140488709Y-94143180D01*
X140566297Y-94157674D01*
X140817600Y-94048296D01*
X140817600Y-92227400D01*
X141122400Y-92227400D01*
X141122400Y-94048296D01*
X141373703Y-94157674D01*
X141451291Y-94143180D01*
X142011710Y-93840236D01*
X142413538Y-93345889D01*
X142595600Y-92735400D01*
X142595600Y-92227400D01*
X141122400Y-92227400D01*
X140817600Y-92227400D01*
X140797600Y-92227400D01*
X140797600Y-91922600D01*
X140817600Y-91922600D01*
X140817600Y-90101704D01*
X141122400Y-90101704D01*
X141122400Y-91922600D01*
X142595600Y-91922600D01*
X142595600Y-91414600D01*
X142413538Y-90804111D01*
X142011710Y-90309764D01*
X141451291Y-90006820D01*
X141373703Y-89992326D01*
X141122400Y-90101704D01*
X140817600Y-90101704D01*
X140566297Y-89992326D01*
X140488709Y-90006820D01*
X139928290Y-90309764D01*
X139526462Y-90804111D01*
X139518970Y-90829234D01*
X139363947Y-90597225D01*
X138935448Y-90310912D01*
X138430000Y-90210372D01*
X137924552Y-90310912D01*
X137496053Y-90597225D01*
X137209740Y-91025724D01*
X137160000Y-91275784D01*
X137110260Y-91025724D01*
X136829800Y-90605985D01*
X136829800Y-85725000D01*
X136758262Y-85365354D01*
X136554539Y-85060461D01*
X136194586Y-84700508D01*
X136195073Y-84143127D01*
X135955829Y-83564113D01*
X135741091Y-83349000D01*
X137264922Y-83349000D01*
X138125414Y-84209492D01*
X138124927Y-84766873D01*
X138364171Y-85345887D01*
X138806783Y-85789272D01*
X139385379Y-86029526D01*
X140011873Y-86030073D01*
X140590887Y-85790829D01*
X141034272Y-85348217D01*
X141274526Y-84769621D01*
X141274749Y-84514527D01*
X153949400Y-97189178D01*
X153949400Y-101168200D01*
X153984202Y-101343163D01*
X154083311Y-101491489D01*
X155643516Y-103051694D01*
X155276053Y-103297225D01*
X154989740Y-103725724D01*
X154889200Y-104231172D01*
X154889200Y-105318828D01*
X154989740Y-105824276D01*
X155188138Y-106121200D01*
X150442579Y-106121200D01*
X146969689Y-102648311D01*
X146821363Y-102549202D01*
X146646400Y-102514400D01*
X127297678Y-102514400D01*
X122884049Y-98100771D01*
X123571000Y-98100771D01*
X123689927Y-98077115D01*
X123790748Y-98009748D01*
X123858115Y-97908927D01*
X123881771Y-97790000D01*
X123881771Y-96824800D01*
X124739400Y-96824800D01*
X124739400Y-97911257D01*
X124832206Y-98135311D01*
X125003689Y-98306794D01*
X125227743Y-98399600D01*
X125679200Y-98399600D01*
X125831600Y-98247200D01*
X125831600Y-96672400D01*
X126136400Y-96672400D01*
X126136400Y-98247200D01*
X126288800Y-98399600D01*
X126740257Y-98399600D01*
X126964311Y-98306794D01*
X127135794Y-98135311D01*
X127228600Y-97911257D01*
X127228600Y-96824800D01*
X127076200Y-96672400D01*
X126136400Y-96672400D01*
X125831600Y-96672400D01*
X124891800Y-96672400D01*
X124739400Y-96824800D01*
X123881771Y-96824800D01*
X123881771Y-95250000D01*
X123875800Y-95219982D01*
X123875800Y-95128743D01*
X124739400Y-95128743D01*
X124739400Y-96215200D01*
X124891800Y-96367600D01*
X125831600Y-96367600D01*
X125831600Y-94792800D01*
X126136400Y-94792800D01*
X126136400Y-96367600D01*
X127076200Y-96367600D01*
X127228600Y-96215200D01*
X127228600Y-95128743D01*
X127135794Y-94904689D01*
X126964311Y-94733206D01*
X126740257Y-94640400D01*
X126288800Y-94640400D01*
X126136400Y-94792800D01*
X125831600Y-94792800D01*
X125679200Y-94640400D01*
X125227743Y-94640400D01*
X125003689Y-94733206D01*
X124832206Y-94904689D01*
X124739400Y-95128743D01*
X123875800Y-95128743D01*
X123875800Y-94993720D01*
X124058262Y-94720646D01*
X124129800Y-94361000D01*
X124129800Y-93544015D01*
X124278970Y-93320766D01*
X124286462Y-93345889D01*
X124688290Y-93840236D01*
X125248709Y-94143180D01*
X125326297Y-94157674D01*
X125577600Y-94048296D01*
X125577600Y-92227400D01*
X125557600Y-92227400D01*
X125557600Y-91922600D01*
X125577600Y-91922600D01*
X125577600Y-90101704D01*
X125326297Y-89992326D01*
X125248709Y-90006820D01*
X124688290Y-90309764D01*
X124286462Y-90804111D01*
X124278970Y-90829234D01*
X124123947Y-90597225D01*
X123695448Y-90310912D01*
X123190000Y-90210372D01*
X122684552Y-90310912D01*
X122256053Y-90597225D01*
X121969740Y-91025724D01*
X121869200Y-91531172D01*
X121869200Y-92618828D01*
X121931299Y-92931021D01*
X108407200Y-79406922D01*
X108407200Y-76444709D01*
X108421428Y-76441879D01*
X108821085Y-76174837D01*
X109088127Y-75775180D01*
X109181900Y-75303752D01*
X109181900Y-74556248D01*
X109088127Y-74084820D01*
X108925345Y-73841200D01*
X109514655Y-73841200D01*
X109351873Y-74084820D01*
X109351873Y-74084820D01*
G37*
X109351873Y-74084820D02*
X109258100Y-74556248D01*
X109258100Y-75303752D01*
X109351873Y-75775180D01*
X109618915Y-76174837D01*
X110018572Y-76441879D01*
X110490000Y-76535652D01*
X110961428Y-76441879D01*
X111361085Y-76174837D01*
X111628127Y-75775180D01*
X111721900Y-75303752D01*
X111721900Y-74556248D01*
X111628127Y-74084820D01*
X111465345Y-73841200D01*
X112054655Y-73841200D01*
X111891873Y-74084820D01*
X111798100Y-74556248D01*
X111798100Y-75303752D01*
X111891873Y-75775180D01*
X112158915Y-76174837D01*
X112558572Y-76441879D01*
X113030000Y-76535652D01*
X113501428Y-76441879D01*
X113901085Y-76174837D01*
X113995563Y-76033441D01*
X114959411Y-76997289D01*
X115107737Y-77096398D01*
X115282700Y-77131200D01*
X133891422Y-77131200D01*
X139640369Y-82880147D01*
X139454063Y-82879985D01*
X138318739Y-81744661D01*
X138013846Y-81540938D01*
X137654200Y-81469400D01*
X133788600Y-81469400D01*
X133428954Y-81540938D01*
X133124061Y-81744661D01*
X131898461Y-82970261D01*
X131694738Y-83275154D01*
X131623200Y-83634800D01*
X131623200Y-85282948D01*
X131474539Y-85060461D01*
X131114586Y-84700508D01*
X131115073Y-84143127D01*
X130875829Y-83564113D01*
X130433217Y-83120728D01*
X129854621Y-82880474D01*
X129228127Y-82879927D01*
X128649113Y-83119171D01*
X128205728Y-83561783D01*
X127965474Y-84140379D01*
X127964927Y-84766873D01*
X128204171Y-85345887D01*
X128646783Y-85789272D01*
X129225379Y-86029526D01*
X129785937Y-86030015D01*
X129870200Y-86114278D01*
X129870200Y-90605985D01*
X129589740Y-91025724D01*
X129540000Y-91275784D01*
X129490260Y-91025724D01*
X129209800Y-90605985D01*
X129209800Y-88265000D01*
X129138262Y-87905354D01*
X128934539Y-87600461D01*
X126034586Y-84700508D01*
X126035073Y-84143127D01*
X125795829Y-83564113D01*
X125353217Y-83120728D01*
X124774621Y-82880474D01*
X124148127Y-82879927D01*
X123569113Y-83119171D01*
X123125728Y-83561783D01*
X122885474Y-84140379D01*
X122884927Y-84766873D01*
X123124171Y-85345887D01*
X123566783Y-85789272D01*
X124145379Y-86029526D01*
X124705937Y-86030015D01*
X127330200Y-88654278D01*
X127330200Y-90605985D01*
X127181030Y-90829234D01*
X127173538Y-90804111D01*
X126771710Y-90309764D01*
X126211291Y-90006820D01*
X126133703Y-89992326D01*
X125882400Y-90101704D01*
X125882400Y-91922600D01*
X125902400Y-91922600D01*
X125902400Y-92227400D01*
X125882400Y-92227400D01*
X125882400Y-94048296D01*
X126133703Y-94157674D01*
X126211291Y-94143180D01*
X126771710Y-93840236D01*
X127173538Y-93345889D01*
X127181030Y-93320766D01*
X127336053Y-93552775D01*
X127764552Y-93839088D01*
X128270000Y-93939628D01*
X128775448Y-93839088D01*
X129203947Y-93552775D01*
X129490260Y-93124276D01*
X129540000Y-92874216D01*
X129589740Y-93124276D01*
X129876053Y-93552775D01*
X130304552Y-93839088D01*
X130810000Y-93939628D01*
X131315448Y-93839088D01*
X131743947Y-93552775D01*
X132030260Y-93124276D01*
X132080000Y-92874216D01*
X132129740Y-93124276D01*
X132416053Y-93552775D01*
X132844552Y-93839088D01*
X133350000Y-93939628D01*
X133855448Y-93839088D01*
X134283947Y-93552775D01*
X134570260Y-93124276D01*
X134620000Y-92874216D01*
X134669740Y-93124276D01*
X134956053Y-93552775D01*
X135384552Y-93839088D01*
X135890000Y-93939628D01*
X136395448Y-93839088D01*
X136823947Y-93552775D01*
X137110260Y-93124276D01*
X137160000Y-92874216D01*
X137209740Y-93124276D01*
X137496053Y-93552775D01*
X137924552Y-93839088D01*
X138430000Y-93939628D01*
X138935448Y-93839088D01*
X139363947Y-93552775D01*
X139518970Y-93320766D01*
X139526462Y-93345889D01*
X139928290Y-93840236D01*
X140488709Y-94143180D01*
X140566297Y-94157674D01*
X140817600Y-94048296D01*
X140817600Y-92227400D01*
X141122400Y-92227400D01*
X141122400Y-94048296D01*
X141373703Y-94157674D01*
X141451291Y-94143180D01*
X142011710Y-93840236D01*
X142413538Y-93345889D01*
X142595600Y-92735400D01*
X142595600Y-92227400D01*
X141122400Y-92227400D01*
X140817600Y-92227400D01*
X140797600Y-92227400D01*
X140797600Y-91922600D01*
X140817600Y-91922600D01*
X140817600Y-90101704D01*
X141122400Y-90101704D01*
X141122400Y-91922600D01*
X142595600Y-91922600D01*
X142595600Y-91414600D01*
X142413538Y-90804111D01*
X142011710Y-90309764D01*
X141451291Y-90006820D01*
X141373703Y-89992326D01*
X141122400Y-90101704D01*
X140817600Y-90101704D01*
X140566297Y-89992326D01*
X140488709Y-90006820D01*
X139928290Y-90309764D01*
X139526462Y-90804111D01*
X139518970Y-90829234D01*
X139363947Y-90597225D01*
X138935448Y-90310912D01*
X138430000Y-90210372D01*
X137924552Y-90310912D01*
X137496053Y-90597225D01*
X137209740Y-91025724D01*
X137160000Y-91275784D01*
X137110260Y-91025724D01*
X136829800Y-90605985D01*
X136829800Y-85725000D01*
X136758262Y-85365354D01*
X136554539Y-85060461D01*
X136194586Y-84700508D01*
X136195073Y-84143127D01*
X135955829Y-83564113D01*
X135741091Y-83349000D01*
X137264922Y-83349000D01*
X138125414Y-84209492D01*
X138124927Y-84766873D01*
X138364171Y-85345887D01*
X138806783Y-85789272D01*
X139385379Y-86029526D01*
X140011873Y-86030073D01*
X140590887Y-85790829D01*
X141034272Y-85348217D01*
X141274526Y-84769621D01*
X141274749Y-84514527D01*
X153949400Y-97189178D01*
X153949400Y-101168200D01*
X153984202Y-101343163D01*
X154083311Y-101491489D01*
X155643516Y-103051694D01*
X155276053Y-103297225D01*
X154989740Y-103725724D01*
X154889200Y-104231172D01*
X154889200Y-105318828D01*
X154989740Y-105824276D01*
X155188138Y-106121200D01*
X150442579Y-106121200D01*
X146969689Y-102648311D01*
X146821363Y-102549202D01*
X146646400Y-102514400D01*
X127297678Y-102514400D01*
X122884049Y-98100771D01*
X123571000Y-98100771D01*
X123689927Y-98077115D01*
X123790748Y-98009748D01*
X123858115Y-97908927D01*
X123881771Y-97790000D01*
X123881771Y-96824800D01*
X124739400Y-96824800D01*
X124739400Y-97911257D01*
X124832206Y-98135311D01*
X125003689Y-98306794D01*
X125227743Y-98399600D01*
X125679200Y-98399600D01*
X125831600Y-98247200D01*
X125831600Y-96672400D01*
X126136400Y-96672400D01*
X126136400Y-98247200D01*
X126288800Y-98399600D01*
X126740257Y-98399600D01*
X126964311Y-98306794D01*
X127135794Y-98135311D01*
X127228600Y-97911257D01*
X127228600Y-96824800D01*
X127076200Y-96672400D01*
X126136400Y-96672400D01*
X125831600Y-96672400D01*
X124891800Y-96672400D01*
X124739400Y-96824800D01*
X123881771Y-96824800D01*
X123881771Y-95250000D01*
X123875800Y-95219982D01*
X123875800Y-95128743D01*
X124739400Y-95128743D01*
X124739400Y-96215200D01*
X124891800Y-96367600D01*
X125831600Y-96367600D01*
X125831600Y-94792800D01*
X126136400Y-94792800D01*
X126136400Y-96367600D01*
X127076200Y-96367600D01*
X127228600Y-96215200D01*
X127228600Y-95128743D01*
X127135794Y-94904689D01*
X126964311Y-94733206D01*
X126740257Y-94640400D01*
X126288800Y-94640400D01*
X126136400Y-94792800D01*
X125831600Y-94792800D01*
X125679200Y-94640400D01*
X125227743Y-94640400D01*
X125003689Y-94733206D01*
X124832206Y-94904689D01*
X124739400Y-95128743D01*
X123875800Y-95128743D01*
X123875800Y-94993720D01*
X124058262Y-94720646D01*
X124129800Y-94361000D01*
X124129800Y-93544015D01*
X124278970Y-93320766D01*
X124286462Y-93345889D01*
X124688290Y-93840236D01*
X125248709Y-94143180D01*
X125326297Y-94157674D01*
X125577600Y-94048296D01*
X125577600Y-92227400D01*
X125557600Y-92227400D01*
X125557600Y-91922600D01*
X125577600Y-91922600D01*
X125577600Y-90101704D01*
X125326297Y-89992326D01*
X125248709Y-90006820D01*
X124688290Y-90309764D01*
X124286462Y-90804111D01*
X124278970Y-90829234D01*
X124123947Y-90597225D01*
X123695448Y-90310912D01*
X123190000Y-90210372D01*
X122684552Y-90310912D01*
X122256053Y-90597225D01*
X121969740Y-91025724D01*
X121869200Y-91531172D01*
X121869200Y-92618828D01*
X121931299Y-92931021D01*
X108407200Y-79406922D01*
X108407200Y-76444709D01*
X108421428Y-76441879D01*
X108821085Y-76174837D01*
X109088127Y-75775180D01*
X109181900Y-75303752D01*
X109181900Y-74556248D01*
X109088127Y-74084820D01*
X108925345Y-73841200D01*
X109514655Y-73841200D01*
X109351873Y-74084820D01*
M02*
