%TF.GenerationSoftware,KiCad,Pcbnew,5.1.0-unknown-e90452d~82~ubuntu18.04.1*%
%TF.CreationDate,2019-04-11T14:53:50-04:00*%
%TF.ProjectId,stepper_controller_5x3,73746570-7065-4725-9f63-6f6e74726f6c,1.3*%
%TF.SameCoordinates,Original*%
%TF.FileFunction,Legend,Bot*%
%TF.FilePolarity,Positive*%
%FSLAX46Y46*%
G04 Gerber Fmt 4.6, Leading zero omitted, Abs format (unit mm)*
G04 Created by KiCad (PCBNEW 5.1.0-unknown-e90452d~82~ubuntu18.04.1) date 2019-04-11 14:53:50*
%MOMM*%
%LPD*%
G04 APERTURE LIST*
%ADD10C,0.228600*%
%ADD11C,0.127000*%
%ADD12C,0.381000*%
%ADD13C,0.250000*%
%ADD14C,0.150000*%
%ADD15C,0.190500*%
%ADD16C,0.254000*%
%ADD17C,0.125000*%
%ADD18R,1.600200X0.787400*%
%ADD19R,0.787400X1.600200*%
%ADD20R,0.558800X1.330960*%
%ADD21O,2.032000X3.048000*%
%ADD22R,1.600000X1.440000*%
%ADD23R,3.800000X4.960000*%
%ADD24C,0.100000*%
%ADD25C,3.400001*%
%ADD26C,0.300000*%
%ADD27O,1.854200X2.540000*%
%ADD28C,3.556000*%
%ADD29R,1.854200X2.540000*%
%ADD30R,2.000000X1.800000*%
%ADD31O,5.080000X3.556000*%
%ADD32O,4.064000X5.080000*%
%ADD33O,4.572000X3.556000*%
%ADD34C,1.930400*%
%ADD35O,1.524000X2.540000*%
%ADD36R,1.100000X0.600000*%
%ADD37C,2.540000*%
%ADD38C,2.340000*%
%ADD39R,0.600000X1.100000*%
%ADD40R,2.000000X0.600000*%
%ADD41R,0.640000X1.910000*%
G04 APERTURE END LIST*
D10*
X191135000Y-71755000D02*
X69850000Y-71755000D01*
X191135000Y-139065000D02*
X191135000Y-71755000D01*
X69850000Y-139065000D02*
X191135000Y-139065000D01*
X69850000Y-71755000D02*
X69850000Y-139065000D01*
D11*
%TO.C,C1*%
X104521000Y-111506000D02*
X104521000Y-112395000D01*
X106299000Y-111506000D02*
X104521000Y-111506000D01*
X106299000Y-112395000D02*
X106299000Y-111506000D01*
X104521000Y-114554000D02*
X104521000Y-113665000D01*
X106299000Y-114554000D02*
X104521000Y-114554000D01*
X106299000Y-113665000D02*
X106299000Y-114554000D01*
%TO.C,C4*%
X134239000Y-114554000D02*
X134239000Y-113665000D01*
X132461000Y-114554000D02*
X134239000Y-114554000D01*
X132461000Y-113665000D02*
X132461000Y-114554000D01*
X134239000Y-111506000D02*
X134239000Y-112395000D01*
X132461000Y-111506000D02*
X134239000Y-111506000D01*
X132461000Y-112395000D02*
X132461000Y-111506000D01*
%TO.C,C5*%
X77851000Y-109474000D02*
X78740000Y-109474000D01*
X77851000Y-107696000D02*
X77851000Y-109474000D01*
X78740000Y-107696000D02*
X77851000Y-107696000D01*
X80899000Y-109474000D02*
X80010000Y-109474000D01*
X80899000Y-107696000D02*
X80899000Y-109474000D01*
X80010000Y-107696000D02*
X80899000Y-107696000D01*
%TO.C,C8*%
X162179000Y-132969000D02*
X162179000Y-132080000D01*
X160401000Y-132969000D02*
X162179000Y-132969000D01*
X160401000Y-132080000D02*
X160401000Y-132969000D01*
X162179000Y-129921000D02*
X162179000Y-130810000D01*
X160401000Y-129921000D02*
X162179000Y-129921000D01*
X160401000Y-130810000D02*
X160401000Y-129921000D01*
%TO.C,C9*%
X159004000Y-132969000D02*
X159004000Y-132080000D01*
X157226000Y-132969000D02*
X159004000Y-132969000D01*
X157226000Y-132080000D02*
X157226000Y-132969000D01*
X159004000Y-129921000D02*
X159004000Y-130810000D01*
X157226000Y-129921000D02*
X159004000Y-129921000D01*
X157226000Y-130810000D02*
X157226000Y-129921000D01*
%TO.C,C10*%
X155829000Y-132969000D02*
X155829000Y-132080000D01*
X154051000Y-132969000D02*
X155829000Y-132969000D01*
X154051000Y-132080000D02*
X154051000Y-132969000D01*
X155829000Y-129921000D02*
X155829000Y-130810000D01*
X154051000Y-129921000D02*
X155829000Y-129921000D01*
X154051000Y-130810000D02*
X154051000Y-129921000D01*
%TO.C,C11*%
X152654000Y-125349000D02*
X152654000Y-124460000D01*
X150876000Y-125349000D02*
X152654000Y-125349000D01*
X150876000Y-124460000D02*
X150876000Y-125349000D01*
X152654000Y-122301000D02*
X152654000Y-123190000D01*
X150876000Y-122301000D02*
X152654000Y-122301000D01*
X150876000Y-123190000D02*
X150876000Y-122301000D01*
%TO.C,C14*%
X129159000Y-132969000D02*
X129159000Y-132080000D01*
X127381000Y-132969000D02*
X129159000Y-132969000D01*
X127381000Y-132080000D02*
X127381000Y-132969000D01*
X129159000Y-129921000D02*
X129159000Y-130810000D01*
X127381000Y-129921000D02*
X129159000Y-129921000D01*
X127381000Y-130810000D02*
X127381000Y-129921000D01*
%TO.C,C15*%
X125984000Y-132969000D02*
X125984000Y-132080000D01*
X124206000Y-132969000D02*
X125984000Y-132969000D01*
X124206000Y-132080000D02*
X124206000Y-132969000D01*
X125984000Y-129921000D02*
X125984000Y-130810000D01*
X124206000Y-129921000D02*
X125984000Y-129921000D01*
X124206000Y-130810000D02*
X124206000Y-129921000D01*
%TO.C,C16*%
X122809000Y-132969000D02*
X122809000Y-132080000D01*
X121031000Y-132969000D02*
X122809000Y-132969000D01*
X121031000Y-132080000D02*
X121031000Y-132969000D01*
X122809000Y-129921000D02*
X122809000Y-130810000D01*
X121031000Y-129921000D02*
X122809000Y-129921000D01*
X121031000Y-130810000D02*
X121031000Y-129921000D01*
%TO.C,C17*%
X119634000Y-125349000D02*
X119634000Y-124460000D01*
X117856000Y-125349000D02*
X119634000Y-125349000D01*
X117856000Y-124460000D02*
X117856000Y-125349000D01*
X119634000Y-122301000D02*
X119634000Y-123190000D01*
X117856000Y-122301000D02*
X119634000Y-122301000D01*
X117856000Y-123190000D02*
X117856000Y-122301000D01*
%TO.C,C20*%
X96139000Y-132969000D02*
X96139000Y-132080000D01*
X94361000Y-132969000D02*
X96139000Y-132969000D01*
X94361000Y-132080000D02*
X94361000Y-132969000D01*
X96139000Y-129921000D02*
X96139000Y-130810000D01*
X94361000Y-129921000D02*
X96139000Y-129921000D01*
X94361000Y-130810000D02*
X94361000Y-129921000D01*
%TO.C,C21*%
X92964000Y-132969000D02*
X92964000Y-132080000D01*
X91186000Y-132969000D02*
X92964000Y-132969000D01*
X91186000Y-132080000D02*
X91186000Y-132969000D01*
X92964000Y-129921000D02*
X92964000Y-130810000D01*
X91186000Y-129921000D02*
X92964000Y-129921000D01*
X91186000Y-130810000D02*
X91186000Y-129921000D01*
%TO.C,C22*%
X89789000Y-132969000D02*
X89789000Y-132080000D01*
X88011000Y-132969000D02*
X89789000Y-132969000D01*
X88011000Y-132080000D02*
X88011000Y-132969000D01*
X89789000Y-129921000D02*
X89789000Y-130810000D01*
X88011000Y-129921000D02*
X89789000Y-129921000D01*
X88011000Y-130810000D02*
X88011000Y-129921000D01*
%TO.C,C23*%
X86614000Y-125349000D02*
X86614000Y-124460000D01*
X84836000Y-125349000D02*
X86614000Y-125349000D01*
X84836000Y-124460000D02*
X84836000Y-125349000D01*
X86614000Y-122301000D02*
X86614000Y-123190000D01*
X84836000Y-122301000D02*
X86614000Y-122301000D01*
X84836000Y-123190000D02*
X84836000Y-122301000D01*
%TO.C,R3*%
X160909000Y-126111000D02*
X160020000Y-126111000D01*
X160909000Y-127889000D02*
X160909000Y-126111000D01*
X160020000Y-127889000D02*
X160909000Y-127889000D01*
X157861000Y-126111000D02*
X158750000Y-126111000D01*
X157861000Y-127889000D02*
X157861000Y-126111000D01*
X158750000Y-127889000D02*
X157861000Y-127889000D01*
%TO.C,R4*%
X162306000Y-118491000D02*
X162306000Y-119380000D01*
X164084000Y-118491000D02*
X162306000Y-118491000D01*
X164084000Y-119380000D02*
X164084000Y-118491000D01*
X162306000Y-121539000D02*
X162306000Y-120650000D01*
X164084000Y-121539000D02*
X162306000Y-121539000D01*
X164084000Y-120650000D02*
X164084000Y-121539000D01*
%TO.C,R5*%
X169291000Y-127889000D02*
X170180000Y-127889000D01*
X169291000Y-126111000D02*
X169291000Y-127889000D01*
X170180000Y-126111000D02*
X169291000Y-126111000D01*
X172339000Y-127889000D02*
X171450000Y-127889000D01*
X172339000Y-126111000D02*
X172339000Y-127889000D01*
X171450000Y-126111000D02*
X172339000Y-126111000D01*
%TO.C,R6*%
X169926000Y-118491000D02*
X169926000Y-119380000D01*
X171704000Y-118491000D02*
X169926000Y-118491000D01*
X171704000Y-119380000D02*
X171704000Y-118491000D01*
X169926000Y-121539000D02*
X169926000Y-120650000D01*
X171704000Y-121539000D02*
X169926000Y-121539000D01*
X171704000Y-120650000D02*
X171704000Y-121539000D01*
%TO.C,R8*%
X127889000Y-126111000D02*
X127000000Y-126111000D01*
X127889000Y-127889000D02*
X127889000Y-126111000D01*
X127000000Y-127889000D02*
X127889000Y-127889000D01*
X124841000Y-126111000D02*
X125730000Y-126111000D01*
X124841000Y-127889000D02*
X124841000Y-126111000D01*
X125730000Y-127889000D02*
X124841000Y-127889000D01*
%TO.C,R9*%
X129286000Y-118491000D02*
X129286000Y-119380000D01*
X131064000Y-118491000D02*
X129286000Y-118491000D01*
X131064000Y-119380000D02*
X131064000Y-118491000D01*
X129286000Y-121539000D02*
X129286000Y-120650000D01*
X131064000Y-121539000D02*
X129286000Y-121539000D01*
X131064000Y-120650000D02*
X131064000Y-121539000D01*
%TO.C,R10*%
X136271000Y-127889000D02*
X137160000Y-127889000D01*
X136271000Y-126111000D02*
X136271000Y-127889000D01*
X137160000Y-126111000D02*
X136271000Y-126111000D01*
X139319000Y-127889000D02*
X138430000Y-127889000D01*
X139319000Y-126111000D02*
X139319000Y-127889000D01*
X138430000Y-126111000D02*
X139319000Y-126111000D01*
%TO.C,R11*%
X136906000Y-118491000D02*
X136906000Y-119380000D01*
X138684000Y-118491000D02*
X136906000Y-118491000D01*
X138684000Y-119380000D02*
X138684000Y-118491000D01*
X136906000Y-121539000D02*
X136906000Y-120650000D01*
X138684000Y-121539000D02*
X136906000Y-121539000D01*
X138684000Y-120650000D02*
X138684000Y-121539000D01*
%TO.C,R13*%
X94869000Y-126111000D02*
X93980000Y-126111000D01*
X94869000Y-127889000D02*
X94869000Y-126111000D01*
X93980000Y-127889000D02*
X94869000Y-127889000D01*
X91821000Y-126111000D02*
X92710000Y-126111000D01*
X91821000Y-127889000D02*
X91821000Y-126111000D01*
X92710000Y-127889000D02*
X91821000Y-127889000D01*
%TO.C,R14*%
X96266000Y-118491000D02*
X96266000Y-119380000D01*
X98044000Y-118491000D02*
X96266000Y-118491000D01*
X98044000Y-119380000D02*
X98044000Y-118491000D01*
X96266000Y-121539000D02*
X96266000Y-120650000D01*
X98044000Y-121539000D02*
X96266000Y-121539000D01*
X98044000Y-120650000D02*
X98044000Y-121539000D01*
%TO.C,R15*%
X103251000Y-127889000D02*
X104140000Y-127889000D01*
X103251000Y-126111000D02*
X103251000Y-127889000D01*
X104140000Y-126111000D02*
X103251000Y-126111000D01*
X106299000Y-127889000D02*
X105410000Y-127889000D01*
X106299000Y-126111000D02*
X106299000Y-127889000D01*
X105410000Y-126111000D02*
X106299000Y-126111000D01*
%TO.C,R16*%
X103886000Y-118491000D02*
X103886000Y-119380000D01*
X105664000Y-118491000D02*
X103886000Y-118491000D01*
X105664000Y-119380000D02*
X105664000Y-118491000D01*
X103886000Y-121539000D02*
X103886000Y-120650000D01*
X105664000Y-121539000D02*
X103886000Y-121539000D01*
X105664000Y-120650000D02*
X105664000Y-121539000D01*
%TO.C,C2*%
X75819000Y-119761000D02*
X74930000Y-119761000D01*
X75819000Y-121539000D02*
X75819000Y-119761000D01*
X74930000Y-121539000D02*
X75819000Y-121539000D01*
X72771000Y-119761000D02*
X73660000Y-119761000D01*
X72771000Y-121539000D02*
X72771000Y-119761000D01*
X73660000Y-121539000D02*
X72771000Y-121539000D01*
%TO.C,C3*%
X76581000Y-121539000D02*
X77470000Y-121539000D01*
X76581000Y-119761000D02*
X76581000Y-121539000D01*
X77470000Y-119761000D02*
X76581000Y-119761000D01*
X79629000Y-121539000D02*
X78740000Y-121539000D01*
X79629000Y-119761000D02*
X79629000Y-121539000D01*
X78740000Y-119761000D02*
X79629000Y-119761000D01*
%TO.C,C7*%
X159004000Y-94996000D02*
X158115000Y-94996000D01*
X159004000Y-96774000D02*
X159004000Y-94996000D01*
X158115000Y-96774000D02*
X159004000Y-96774000D01*
X155956000Y-94996000D02*
X156845000Y-94996000D01*
X155956000Y-96774000D02*
X155956000Y-94996000D01*
X156845000Y-96774000D02*
X155956000Y-96774000D01*
%TO.C,C13*%
X125984000Y-94996000D02*
X125095000Y-94996000D01*
X125984000Y-96774000D02*
X125984000Y-94996000D01*
X125095000Y-96774000D02*
X125984000Y-96774000D01*
X122936000Y-94996000D02*
X123825000Y-94996000D01*
X122936000Y-96774000D02*
X122936000Y-94996000D01*
X123825000Y-96774000D02*
X122936000Y-96774000D01*
%TO.C,C19*%
X92964000Y-94996000D02*
X92075000Y-94996000D01*
X92964000Y-96774000D02*
X92964000Y-94996000D01*
X92075000Y-96774000D02*
X92964000Y-96774000D01*
X89916000Y-94996000D02*
X90805000Y-94996000D01*
X89916000Y-96774000D02*
X89916000Y-94996000D01*
X90805000Y-96774000D02*
X89916000Y-96774000D01*
%TO.C,R2*%
X166624000Y-94996000D02*
X165735000Y-94996000D01*
X166624000Y-96774000D02*
X166624000Y-94996000D01*
X165735000Y-96774000D02*
X166624000Y-96774000D01*
X163576000Y-94996000D02*
X164465000Y-94996000D01*
X163576000Y-96774000D02*
X163576000Y-94996000D01*
X164465000Y-96774000D02*
X163576000Y-96774000D01*
%TO.C,R7*%
X133604000Y-94996000D02*
X132715000Y-94996000D01*
X133604000Y-96774000D02*
X133604000Y-94996000D01*
X132715000Y-96774000D02*
X133604000Y-96774000D01*
X130556000Y-94996000D02*
X131445000Y-94996000D01*
X130556000Y-96774000D02*
X130556000Y-94996000D01*
X131445000Y-96774000D02*
X130556000Y-96774000D01*
%TO.C,R12*%
X100584000Y-94996000D02*
X99695000Y-94996000D01*
X100584000Y-96774000D02*
X100584000Y-94996000D01*
X99695000Y-96774000D02*
X100584000Y-96774000D01*
X97536000Y-94996000D02*
X98425000Y-94996000D01*
X97536000Y-96774000D02*
X97536000Y-94996000D01*
X98425000Y-96774000D02*
X97536000Y-96774000D01*
%TO.C,R1*%
X120269000Y-105664000D02*
X120269000Y-104775000D01*
X118491000Y-105664000D02*
X120269000Y-105664000D01*
X118491000Y-104775000D02*
X118491000Y-105664000D01*
X120269000Y-102616000D02*
X120269000Y-103505000D01*
X118491000Y-102616000D02*
X120269000Y-102616000D01*
X118491000Y-103505000D02*
X118491000Y-102616000D01*
D10*
%TO.C,U5*%
X156972000Y-125095000D02*
X156464000Y-125095000D01*
X156718000Y-125349000D02*
X156718000Y-124841000D01*
D12*
X155956000Y-123825000D02*
X153924000Y-123825000D01*
D10*
%TO.C,U8*%
X123952000Y-125095000D02*
X123444000Y-125095000D01*
X123698000Y-125349000D02*
X123698000Y-124841000D01*
D12*
X122936000Y-123825000D02*
X120904000Y-123825000D01*
D10*
%TO.C,U11*%
X90932000Y-125095000D02*
X90424000Y-125095000D01*
X90678000Y-125349000D02*
X90678000Y-124841000D01*
D12*
X89916000Y-123825000D02*
X87884000Y-123825000D01*
D10*
%TO.C,D1*%
X70725000Y-83880000D02*
X70725000Y-91380000D01*
X75325000Y-83880000D02*
X70725000Y-83880000D01*
X75325000Y-91380000D02*
X75325000Y-83880000D01*
X70725000Y-91380000D02*
X75325000Y-91380000D01*
D13*
%TO.C,U1*%
X116415000Y-110530000D02*
G75*
G03X116415000Y-110530000I-250000J0D01*
G01*
X111165000Y-110530000D02*
X111165000Y-111030000D01*
X111665000Y-110530000D02*
X111165000Y-110530000D01*
X111165000Y-115530000D02*
X111665000Y-115530000D01*
X111165000Y-115030000D02*
X111165000Y-115530000D01*
X116165000Y-115530000D02*
X115665000Y-115530000D01*
X116165000Y-115030000D02*
X116165000Y-115530000D01*
X115665000Y-110530000D02*
X116165000Y-111030000D01*
D12*
%TO.C,MDB1*%
X71120000Y-76200000D02*
X134620000Y-76200000D01*
X71120000Y-73660000D02*
X134620000Y-73660000D01*
X71120000Y-137160000D02*
X134620000Y-137160000D01*
X71120000Y-134620000D02*
X134620000Y-134620000D01*
X134620000Y-76200000D02*
X134620000Y-73660000D01*
X71120000Y-73660000D02*
X71120000Y-76200000D01*
X134620000Y-137160000D02*
X134620000Y-134620000D01*
X71120000Y-134620000D02*
X71120000Y-137160000D01*
%TO.C,CLK1*%
X130373553Y-112030000D02*
G75*
G03X130373553Y-112030000I-353553J0D01*
G01*
X125770000Y-109530000D02*
X130770000Y-109530000D01*
X130770000Y-109530000D02*
X130770000Y-116530000D01*
X130770000Y-116530000D02*
X125770000Y-116530000D01*
X125770000Y-116530000D02*
X125770000Y-109530000D01*
D14*
%TO.C,U4*%
X165400000Y-98695000D02*
G75*
G03X165400000Y-98695000I-100000J0D01*
G01*
X164600000Y-98195000D02*
X165600000Y-98195000D01*
X164600000Y-101195000D02*
X164600000Y-98195000D01*
X165600000Y-101195000D02*
X164600000Y-101195000D01*
X165600000Y-98195000D02*
X165600000Y-101195000D01*
%TO.C,U7*%
X132380000Y-98695000D02*
G75*
G03X132380000Y-98695000I-100000J0D01*
G01*
X131580000Y-98195000D02*
X132580000Y-98195000D01*
X131580000Y-101195000D02*
X131580000Y-98195000D01*
X132580000Y-101195000D02*
X131580000Y-101195000D01*
X132580000Y-98195000D02*
X132580000Y-101195000D01*
%TO.C,U10*%
X99360000Y-98695000D02*
G75*
G03X99360000Y-98695000I-100000J0D01*
G01*
X98560000Y-98195000D02*
X99560000Y-98195000D01*
X98560000Y-101195000D02*
X98560000Y-98195000D01*
X99560000Y-101195000D02*
X98560000Y-101195000D01*
X99560000Y-98195000D02*
X99560000Y-101195000D01*
%TO.C,U2*%
X116670000Y-104340000D02*
G75*
G03X116670000Y-104340000I-100000J0D01*
G01*
X117070000Y-103640000D02*
X117070000Y-104640000D01*
X114070000Y-103640000D02*
X117070000Y-103640000D01*
X114070000Y-104640000D02*
X114070000Y-103640000D01*
X117070000Y-104640000D02*
X114070000Y-104640000D01*
D12*
%TO.C,U3*%
X83125000Y-105560000D02*
X75625000Y-105560000D01*
X83125000Y-92560000D02*
X83125000Y-105560000D01*
X75625000Y-92560000D02*
X83125000Y-92560000D01*
X75625000Y-105560000D02*
X75625000Y-92560000D01*
X77470000Y-104140000D02*
G75*
G03X77470000Y-104140000I-635000J0D01*
G01*
%TO.C,U6*%
X167640000Y-131508500D02*
X167640000Y-127571500D01*
X162560000Y-131508500D02*
X162560000Y-127571500D01*
X163830000Y-128651000D02*
G75*
G03X163830000Y-128651000I-381000J0D01*
G01*
%TO.C,U9*%
X134620000Y-131508500D02*
X134620000Y-127571500D01*
X129540000Y-131508500D02*
X129540000Y-127571500D01*
X130810000Y-128651000D02*
G75*
G03X130810000Y-128651000I-381000J0D01*
G01*
%TO.C,U12*%
X101600000Y-131508500D02*
X101600000Y-127571500D01*
X96520000Y-131508500D02*
X96520000Y-127571500D01*
X97790000Y-128651000D02*
G75*
G03X97790000Y-128651000I-381000J0D01*
G01*
%TD*%
%TO.C,C1*%
D15*
X105537000Y-115461142D02*
X105573285Y-115497428D01*
X105682142Y-115533714D01*
X105754714Y-115533714D01*
X105863571Y-115497428D01*
X105936142Y-115424857D01*
X105972428Y-115352285D01*
X106008714Y-115207142D01*
X106008714Y-115098285D01*
X105972428Y-114953142D01*
X105936142Y-114880571D01*
X105863571Y-114808000D01*
X105754714Y-114771714D01*
X105682142Y-114771714D01*
X105573285Y-114808000D01*
X105537000Y-114844285D01*
X104811285Y-115533714D02*
X105246714Y-115533714D01*
X105029000Y-115533714D02*
X105029000Y-114771714D01*
X105101571Y-114880571D01*
X105174142Y-114953142D01*
X105246714Y-114989428D01*
X106661857Y-110362714D02*
X106589285Y-110362714D01*
X106516714Y-110399000D01*
X106480428Y-110435285D01*
X106444142Y-110507857D01*
X106407857Y-110653000D01*
X106407857Y-110834428D01*
X106444142Y-110979571D01*
X106480428Y-111052142D01*
X106516714Y-111088428D01*
X106589285Y-111124714D01*
X106661857Y-111124714D01*
X106734428Y-111088428D01*
X106770714Y-111052142D01*
X106807000Y-110979571D01*
X106843285Y-110834428D01*
X106843285Y-110653000D01*
X106807000Y-110507857D01*
X106770714Y-110435285D01*
X106734428Y-110399000D01*
X106661857Y-110362714D01*
X106081285Y-111052142D02*
X106045000Y-111088428D01*
X106081285Y-111124714D01*
X106117571Y-111088428D01*
X106081285Y-111052142D01*
X106081285Y-111124714D01*
X105319285Y-111124714D02*
X105754714Y-111124714D01*
X105537000Y-111124714D02*
X105537000Y-110362714D01*
X105609571Y-110471571D01*
X105682142Y-110544142D01*
X105754714Y-110580428D01*
X104666142Y-110616714D02*
X104666142Y-111124714D01*
X104992714Y-110616714D02*
X104992714Y-111015857D01*
X104956428Y-111088428D01*
X104883857Y-111124714D01*
X104775000Y-111124714D01*
X104702428Y-111088428D01*
X104666142Y-111052142D01*
X104049285Y-110725571D02*
X104303285Y-110725571D01*
X104303285Y-111124714D02*
X104303285Y-110362714D01*
X103940428Y-110362714D01*
%TO.C,C4*%
X133477000Y-111143142D02*
X133513285Y-111179428D01*
X133622142Y-111215714D01*
X133694714Y-111215714D01*
X133803571Y-111179428D01*
X133876142Y-111106857D01*
X133912428Y-111034285D01*
X133948714Y-110889142D01*
X133948714Y-110780285D01*
X133912428Y-110635142D01*
X133876142Y-110562571D01*
X133803571Y-110490000D01*
X133694714Y-110453714D01*
X133622142Y-110453714D01*
X133513285Y-110490000D01*
X133477000Y-110526285D01*
X132823857Y-110707714D02*
X132823857Y-111215714D01*
X133005285Y-110417428D02*
X133186714Y-110961714D01*
X132715000Y-110961714D01*
X134601857Y-114862714D02*
X134529285Y-114862714D01*
X134456714Y-114899000D01*
X134420428Y-114935285D01*
X134384142Y-115007857D01*
X134347857Y-115153000D01*
X134347857Y-115334428D01*
X134384142Y-115479571D01*
X134420428Y-115552142D01*
X134456714Y-115588428D01*
X134529285Y-115624714D01*
X134601857Y-115624714D01*
X134674428Y-115588428D01*
X134710714Y-115552142D01*
X134747000Y-115479571D01*
X134783285Y-115334428D01*
X134783285Y-115153000D01*
X134747000Y-115007857D01*
X134710714Y-114935285D01*
X134674428Y-114899000D01*
X134601857Y-114862714D01*
X134021285Y-115552142D02*
X133985000Y-115588428D01*
X134021285Y-115624714D01*
X134057571Y-115588428D01*
X134021285Y-115552142D01*
X134021285Y-115624714D01*
X133259285Y-115624714D02*
X133694714Y-115624714D01*
X133477000Y-115624714D02*
X133477000Y-114862714D01*
X133549571Y-114971571D01*
X133622142Y-115044142D01*
X133694714Y-115080428D01*
X132606142Y-115116714D02*
X132606142Y-115624714D01*
X132932714Y-115116714D02*
X132932714Y-115515857D01*
X132896428Y-115588428D01*
X132823857Y-115624714D01*
X132715000Y-115624714D01*
X132642428Y-115588428D01*
X132606142Y-115552142D01*
X131989285Y-115225571D02*
X132243285Y-115225571D01*
X132243285Y-115624714D02*
X132243285Y-114862714D01*
X131880428Y-114862714D01*
%TO.C,C5*%
X81806142Y-108458000D02*
X81842428Y-108421714D01*
X81878714Y-108312857D01*
X81878714Y-108240285D01*
X81842428Y-108131428D01*
X81769857Y-108058857D01*
X81697285Y-108022571D01*
X81552142Y-107986285D01*
X81443285Y-107986285D01*
X81298142Y-108022571D01*
X81225571Y-108058857D01*
X81153000Y-108131428D01*
X81116714Y-108240285D01*
X81116714Y-108312857D01*
X81153000Y-108421714D01*
X81189285Y-108458000D01*
X81116714Y-109147428D02*
X81116714Y-108784571D01*
X81479571Y-108748285D01*
X81443285Y-108784571D01*
X81407000Y-108857142D01*
X81407000Y-109038571D01*
X81443285Y-109111142D01*
X81479571Y-109147428D01*
X81552142Y-109183714D01*
X81733571Y-109183714D01*
X81806142Y-109147428D01*
X81842428Y-109111142D01*
X81878714Y-109038571D01*
X81878714Y-108857142D01*
X81842428Y-108784571D01*
X81806142Y-108748285D01*
X76707714Y-107333142D02*
X76707714Y-107405714D01*
X76744000Y-107478285D01*
X76780285Y-107514571D01*
X76852857Y-107550857D01*
X76998000Y-107587142D01*
X77179428Y-107587142D01*
X77324571Y-107550857D01*
X77397142Y-107514571D01*
X77433428Y-107478285D01*
X77469714Y-107405714D01*
X77469714Y-107333142D01*
X77433428Y-107260571D01*
X77397142Y-107224285D01*
X77324571Y-107188000D01*
X77179428Y-107151714D01*
X76998000Y-107151714D01*
X76852857Y-107188000D01*
X76780285Y-107224285D01*
X76744000Y-107260571D01*
X76707714Y-107333142D01*
X77397142Y-107913714D02*
X77433428Y-107950000D01*
X77469714Y-107913714D01*
X77433428Y-107877428D01*
X77397142Y-107913714D01*
X77469714Y-107913714D01*
X77469714Y-108675714D02*
X77469714Y-108240285D01*
X77469714Y-108458000D02*
X76707714Y-108458000D01*
X76816571Y-108385428D01*
X76889142Y-108312857D01*
X76925428Y-108240285D01*
X76961714Y-109328857D02*
X77469714Y-109328857D01*
X76961714Y-109002285D02*
X77360857Y-109002285D01*
X77433428Y-109038571D01*
X77469714Y-109111142D01*
X77469714Y-109220000D01*
X77433428Y-109292571D01*
X77397142Y-109328857D01*
X77070571Y-109945714D02*
X77070571Y-109691714D01*
X77469714Y-109691714D02*
X76707714Y-109691714D01*
X76707714Y-110054571D01*
%TO.C,C8*%
X161417000Y-129558142D02*
X161453285Y-129594428D01*
X161562142Y-129630714D01*
X161634714Y-129630714D01*
X161743571Y-129594428D01*
X161816142Y-129521857D01*
X161852428Y-129449285D01*
X161888714Y-129304142D01*
X161888714Y-129195285D01*
X161852428Y-129050142D01*
X161816142Y-128977571D01*
X161743571Y-128905000D01*
X161634714Y-128868714D01*
X161562142Y-128868714D01*
X161453285Y-128905000D01*
X161417000Y-128941285D01*
X160981571Y-129195285D02*
X161054142Y-129159000D01*
X161090428Y-129122714D01*
X161126714Y-129050142D01*
X161126714Y-129013857D01*
X161090428Y-128941285D01*
X161054142Y-128905000D01*
X160981571Y-128868714D01*
X160836428Y-128868714D01*
X160763857Y-128905000D01*
X160727571Y-128941285D01*
X160691285Y-129013857D01*
X160691285Y-129050142D01*
X160727571Y-129122714D01*
X160763857Y-129159000D01*
X160836428Y-129195285D01*
X160981571Y-129195285D01*
X161054142Y-129231571D01*
X161090428Y-129267857D01*
X161126714Y-129340428D01*
X161126714Y-129485571D01*
X161090428Y-129558142D01*
X161054142Y-129594428D01*
X160981571Y-129630714D01*
X160836428Y-129630714D01*
X160763857Y-129594428D01*
X160727571Y-129558142D01*
X160691285Y-129485571D01*
X160691285Y-129340428D01*
X160727571Y-129267857D01*
X160763857Y-129231571D01*
X160836428Y-129195285D01*
X162541857Y-133277714D02*
X162469285Y-133277714D01*
X162396714Y-133314000D01*
X162360428Y-133350285D01*
X162324142Y-133422857D01*
X162287857Y-133568000D01*
X162287857Y-133749428D01*
X162324142Y-133894571D01*
X162360428Y-133967142D01*
X162396714Y-134003428D01*
X162469285Y-134039714D01*
X162541857Y-134039714D01*
X162614428Y-134003428D01*
X162650714Y-133967142D01*
X162687000Y-133894571D01*
X162723285Y-133749428D01*
X162723285Y-133568000D01*
X162687000Y-133422857D01*
X162650714Y-133350285D01*
X162614428Y-133314000D01*
X162541857Y-133277714D01*
X161961285Y-133967142D02*
X161925000Y-134003428D01*
X161961285Y-134039714D01*
X161997571Y-134003428D01*
X161961285Y-133967142D01*
X161961285Y-134039714D01*
X161199285Y-134039714D02*
X161634714Y-134039714D01*
X161417000Y-134039714D02*
X161417000Y-133277714D01*
X161489571Y-133386571D01*
X161562142Y-133459142D01*
X161634714Y-133495428D01*
X160546142Y-133531714D02*
X160546142Y-134039714D01*
X160872714Y-133531714D02*
X160872714Y-133930857D01*
X160836428Y-134003428D01*
X160763857Y-134039714D01*
X160655000Y-134039714D01*
X160582428Y-134003428D01*
X160546142Y-133967142D01*
X159929285Y-133640571D02*
X160183285Y-133640571D01*
X160183285Y-134039714D02*
X160183285Y-133277714D01*
X159820428Y-133277714D01*
%TO.C,C9*%
X158242000Y-129558142D02*
X158278285Y-129594428D01*
X158387142Y-129630714D01*
X158459714Y-129630714D01*
X158568571Y-129594428D01*
X158641142Y-129521857D01*
X158677428Y-129449285D01*
X158713714Y-129304142D01*
X158713714Y-129195285D01*
X158677428Y-129050142D01*
X158641142Y-128977571D01*
X158568571Y-128905000D01*
X158459714Y-128868714D01*
X158387142Y-128868714D01*
X158278285Y-128905000D01*
X158242000Y-128941285D01*
X157879142Y-129630714D02*
X157734000Y-129630714D01*
X157661428Y-129594428D01*
X157625142Y-129558142D01*
X157552571Y-129449285D01*
X157516285Y-129304142D01*
X157516285Y-129013857D01*
X157552571Y-128941285D01*
X157588857Y-128905000D01*
X157661428Y-128868714D01*
X157806571Y-128868714D01*
X157879142Y-128905000D01*
X157915428Y-128941285D01*
X157951714Y-129013857D01*
X157951714Y-129195285D01*
X157915428Y-129267857D01*
X157879142Y-129304142D01*
X157806571Y-129340428D01*
X157661428Y-129340428D01*
X157588857Y-129304142D01*
X157552571Y-129267857D01*
X157516285Y-129195285D01*
X159366857Y-133277714D02*
X159294285Y-133277714D01*
X159221714Y-133314000D01*
X159185428Y-133350285D01*
X159149142Y-133422857D01*
X159112857Y-133568000D01*
X159112857Y-133749428D01*
X159149142Y-133894571D01*
X159185428Y-133967142D01*
X159221714Y-134003428D01*
X159294285Y-134039714D01*
X159366857Y-134039714D01*
X159439428Y-134003428D01*
X159475714Y-133967142D01*
X159512000Y-133894571D01*
X159548285Y-133749428D01*
X159548285Y-133568000D01*
X159512000Y-133422857D01*
X159475714Y-133350285D01*
X159439428Y-133314000D01*
X159366857Y-133277714D01*
X158786285Y-133967142D02*
X158750000Y-134003428D01*
X158786285Y-134039714D01*
X158822571Y-134003428D01*
X158786285Y-133967142D01*
X158786285Y-134039714D01*
X158024285Y-134039714D02*
X158459714Y-134039714D01*
X158242000Y-134039714D02*
X158242000Y-133277714D01*
X158314571Y-133386571D01*
X158387142Y-133459142D01*
X158459714Y-133495428D01*
X157371142Y-133531714D02*
X157371142Y-134039714D01*
X157697714Y-133531714D02*
X157697714Y-133930857D01*
X157661428Y-134003428D01*
X157588857Y-134039714D01*
X157480000Y-134039714D01*
X157407428Y-134003428D01*
X157371142Y-133967142D01*
X156754285Y-133640571D02*
X157008285Y-133640571D01*
X157008285Y-134039714D02*
X157008285Y-133277714D01*
X156645428Y-133277714D01*
%TO.C,C10*%
X155429857Y-129558142D02*
X155466142Y-129594428D01*
X155575000Y-129630714D01*
X155647571Y-129630714D01*
X155756428Y-129594428D01*
X155829000Y-129521857D01*
X155865285Y-129449285D01*
X155901571Y-129304142D01*
X155901571Y-129195285D01*
X155865285Y-129050142D01*
X155829000Y-128977571D01*
X155756428Y-128905000D01*
X155647571Y-128868714D01*
X155575000Y-128868714D01*
X155466142Y-128905000D01*
X155429857Y-128941285D01*
X154704142Y-129630714D02*
X155139571Y-129630714D01*
X154921857Y-129630714D02*
X154921857Y-128868714D01*
X154994428Y-128977571D01*
X155067000Y-129050142D01*
X155139571Y-129086428D01*
X154232428Y-128868714D02*
X154159857Y-128868714D01*
X154087285Y-128905000D01*
X154051000Y-128941285D01*
X154014714Y-129013857D01*
X153978428Y-129159000D01*
X153978428Y-129340428D01*
X154014714Y-129485571D01*
X154051000Y-129558142D01*
X154087285Y-129594428D01*
X154159857Y-129630714D01*
X154232428Y-129630714D01*
X154305000Y-129594428D01*
X154341285Y-129558142D01*
X154377571Y-129485571D01*
X154413857Y-129340428D01*
X154413857Y-129159000D01*
X154377571Y-129013857D01*
X154341285Y-128941285D01*
X154305000Y-128905000D01*
X154232428Y-128868714D01*
X156191857Y-133277714D02*
X156119285Y-133277714D01*
X156046714Y-133314000D01*
X156010428Y-133350285D01*
X155974142Y-133422857D01*
X155937857Y-133568000D01*
X155937857Y-133749428D01*
X155974142Y-133894571D01*
X156010428Y-133967142D01*
X156046714Y-134003428D01*
X156119285Y-134039714D01*
X156191857Y-134039714D01*
X156264428Y-134003428D01*
X156300714Y-133967142D01*
X156337000Y-133894571D01*
X156373285Y-133749428D01*
X156373285Y-133568000D01*
X156337000Y-133422857D01*
X156300714Y-133350285D01*
X156264428Y-133314000D01*
X156191857Y-133277714D01*
X155611285Y-133967142D02*
X155575000Y-134003428D01*
X155611285Y-134039714D01*
X155647571Y-134003428D01*
X155611285Y-133967142D01*
X155611285Y-134039714D01*
X154849285Y-134039714D02*
X155284714Y-134039714D01*
X155067000Y-134039714D02*
X155067000Y-133277714D01*
X155139571Y-133386571D01*
X155212142Y-133459142D01*
X155284714Y-133495428D01*
X154196142Y-133531714D02*
X154196142Y-134039714D01*
X154522714Y-133531714D02*
X154522714Y-133930857D01*
X154486428Y-134003428D01*
X154413857Y-134039714D01*
X154305000Y-134039714D01*
X154232428Y-134003428D01*
X154196142Y-133967142D01*
X153579285Y-133640571D02*
X153833285Y-133640571D01*
X153833285Y-134039714D02*
X153833285Y-133277714D01*
X153470428Y-133277714D01*
%TO.C,C11*%
X152254857Y-121938142D02*
X152291142Y-121974428D01*
X152400000Y-122010714D01*
X152472571Y-122010714D01*
X152581428Y-121974428D01*
X152654000Y-121901857D01*
X152690285Y-121829285D01*
X152726571Y-121684142D01*
X152726571Y-121575285D01*
X152690285Y-121430142D01*
X152654000Y-121357571D01*
X152581428Y-121285000D01*
X152472571Y-121248714D01*
X152400000Y-121248714D01*
X152291142Y-121285000D01*
X152254857Y-121321285D01*
X151529142Y-122010714D02*
X151964571Y-122010714D01*
X151746857Y-122010714D02*
X151746857Y-121248714D01*
X151819428Y-121357571D01*
X151892000Y-121430142D01*
X151964571Y-121466428D01*
X150803428Y-122010714D02*
X151238857Y-122010714D01*
X151021142Y-122010714D02*
X151021142Y-121248714D01*
X151093714Y-121357571D01*
X151166285Y-121430142D01*
X151238857Y-121466428D01*
X153016857Y-125657714D02*
X152944285Y-125657714D01*
X152871714Y-125694000D01*
X152835428Y-125730285D01*
X152799142Y-125802857D01*
X152762857Y-125948000D01*
X152762857Y-126129428D01*
X152799142Y-126274571D01*
X152835428Y-126347142D01*
X152871714Y-126383428D01*
X152944285Y-126419714D01*
X153016857Y-126419714D01*
X153089428Y-126383428D01*
X153125714Y-126347142D01*
X153162000Y-126274571D01*
X153198285Y-126129428D01*
X153198285Y-125948000D01*
X153162000Y-125802857D01*
X153125714Y-125730285D01*
X153089428Y-125694000D01*
X153016857Y-125657714D01*
X152436285Y-126347142D02*
X152400000Y-126383428D01*
X152436285Y-126419714D01*
X152472571Y-126383428D01*
X152436285Y-126347142D01*
X152436285Y-126419714D01*
X151674285Y-126419714D02*
X152109714Y-126419714D01*
X151892000Y-126419714D02*
X151892000Y-125657714D01*
X151964571Y-125766571D01*
X152037142Y-125839142D01*
X152109714Y-125875428D01*
X151021142Y-125911714D02*
X151021142Y-126419714D01*
X151347714Y-125911714D02*
X151347714Y-126310857D01*
X151311428Y-126383428D01*
X151238857Y-126419714D01*
X151130000Y-126419714D01*
X151057428Y-126383428D01*
X151021142Y-126347142D01*
X150404285Y-126020571D02*
X150658285Y-126020571D01*
X150658285Y-126419714D02*
X150658285Y-125657714D01*
X150295428Y-125657714D01*
%TO.C,C14*%
X128759857Y-129558142D02*
X128796142Y-129594428D01*
X128905000Y-129630714D01*
X128977571Y-129630714D01*
X129086428Y-129594428D01*
X129159000Y-129521857D01*
X129195285Y-129449285D01*
X129231571Y-129304142D01*
X129231571Y-129195285D01*
X129195285Y-129050142D01*
X129159000Y-128977571D01*
X129086428Y-128905000D01*
X128977571Y-128868714D01*
X128905000Y-128868714D01*
X128796142Y-128905000D01*
X128759857Y-128941285D01*
X128034142Y-129630714D02*
X128469571Y-129630714D01*
X128251857Y-129630714D02*
X128251857Y-128868714D01*
X128324428Y-128977571D01*
X128397000Y-129050142D01*
X128469571Y-129086428D01*
X127381000Y-129122714D02*
X127381000Y-129630714D01*
X127562428Y-128832428D02*
X127743857Y-129376714D01*
X127272142Y-129376714D01*
X129521857Y-133277714D02*
X129449285Y-133277714D01*
X129376714Y-133314000D01*
X129340428Y-133350285D01*
X129304142Y-133422857D01*
X129267857Y-133568000D01*
X129267857Y-133749428D01*
X129304142Y-133894571D01*
X129340428Y-133967142D01*
X129376714Y-134003428D01*
X129449285Y-134039714D01*
X129521857Y-134039714D01*
X129594428Y-134003428D01*
X129630714Y-133967142D01*
X129667000Y-133894571D01*
X129703285Y-133749428D01*
X129703285Y-133568000D01*
X129667000Y-133422857D01*
X129630714Y-133350285D01*
X129594428Y-133314000D01*
X129521857Y-133277714D01*
X128941285Y-133967142D02*
X128905000Y-134003428D01*
X128941285Y-134039714D01*
X128977571Y-134003428D01*
X128941285Y-133967142D01*
X128941285Y-134039714D01*
X128179285Y-134039714D02*
X128614714Y-134039714D01*
X128397000Y-134039714D02*
X128397000Y-133277714D01*
X128469571Y-133386571D01*
X128542142Y-133459142D01*
X128614714Y-133495428D01*
X127526142Y-133531714D02*
X127526142Y-134039714D01*
X127852714Y-133531714D02*
X127852714Y-133930857D01*
X127816428Y-134003428D01*
X127743857Y-134039714D01*
X127635000Y-134039714D01*
X127562428Y-134003428D01*
X127526142Y-133967142D01*
X126909285Y-133640571D02*
X127163285Y-133640571D01*
X127163285Y-134039714D02*
X127163285Y-133277714D01*
X126800428Y-133277714D01*
%TO.C,C15*%
X125584857Y-129558142D02*
X125621142Y-129594428D01*
X125730000Y-129630714D01*
X125802571Y-129630714D01*
X125911428Y-129594428D01*
X125984000Y-129521857D01*
X126020285Y-129449285D01*
X126056571Y-129304142D01*
X126056571Y-129195285D01*
X126020285Y-129050142D01*
X125984000Y-128977571D01*
X125911428Y-128905000D01*
X125802571Y-128868714D01*
X125730000Y-128868714D01*
X125621142Y-128905000D01*
X125584857Y-128941285D01*
X124859142Y-129630714D02*
X125294571Y-129630714D01*
X125076857Y-129630714D02*
X125076857Y-128868714D01*
X125149428Y-128977571D01*
X125222000Y-129050142D01*
X125294571Y-129086428D01*
X124169714Y-128868714D02*
X124532571Y-128868714D01*
X124568857Y-129231571D01*
X124532571Y-129195285D01*
X124460000Y-129159000D01*
X124278571Y-129159000D01*
X124206000Y-129195285D01*
X124169714Y-129231571D01*
X124133428Y-129304142D01*
X124133428Y-129485571D01*
X124169714Y-129558142D01*
X124206000Y-129594428D01*
X124278571Y-129630714D01*
X124460000Y-129630714D01*
X124532571Y-129594428D01*
X124568857Y-129558142D01*
X126346857Y-133277714D02*
X126274285Y-133277714D01*
X126201714Y-133314000D01*
X126165428Y-133350285D01*
X126129142Y-133422857D01*
X126092857Y-133568000D01*
X126092857Y-133749428D01*
X126129142Y-133894571D01*
X126165428Y-133967142D01*
X126201714Y-134003428D01*
X126274285Y-134039714D01*
X126346857Y-134039714D01*
X126419428Y-134003428D01*
X126455714Y-133967142D01*
X126492000Y-133894571D01*
X126528285Y-133749428D01*
X126528285Y-133568000D01*
X126492000Y-133422857D01*
X126455714Y-133350285D01*
X126419428Y-133314000D01*
X126346857Y-133277714D01*
X125766285Y-133967142D02*
X125730000Y-134003428D01*
X125766285Y-134039714D01*
X125802571Y-134003428D01*
X125766285Y-133967142D01*
X125766285Y-134039714D01*
X125004285Y-134039714D02*
X125439714Y-134039714D01*
X125222000Y-134039714D02*
X125222000Y-133277714D01*
X125294571Y-133386571D01*
X125367142Y-133459142D01*
X125439714Y-133495428D01*
X124351142Y-133531714D02*
X124351142Y-134039714D01*
X124677714Y-133531714D02*
X124677714Y-133930857D01*
X124641428Y-134003428D01*
X124568857Y-134039714D01*
X124460000Y-134039714D01*
X124387428Y-134003428D01*
X124351142Y-133967142D01*
X123734285Y-133640571D02*
X123988285Y-133640571D01*
X123988285Y-134039714D02*
X123988285Y-133277714D01*
X123625428Y-133277714D01*
%TO.C,C16*%
X122409857Y-129558142D02*
X122446142Y-129594428D01*
X122555000Y-129630714D01*
X122627571Y-129630714D01*
X122736428Y-129594428D01*
X122809000Y-129521857D01*
X122845285Y-129449285D01*
X122881571Y-129304142D01*
X122881571Y-129195285D01*
X122845285Y-129050142D01*
X122809000Y-128977571D01*
X122736428Y-128905000D01*
X122627571Y-128868714D01*
X122555000Y-128868714D01*
X122446142Y-128905000D01*
X122409857Y-128941285D01*
X121684142Y-129630714D02*
X122119571Y-129630714D01*
X121901857Y-129630714D02*
X121901857Y-128868714D01*
X121974428Y-128977571D01*
X122047000Y-129050142D01*
X122119571Y-129086428D01*
X121031000Y-128868714D02*
X121176142Y-128868714D01*
X121248714Y-128905000D01*
X121285000Y-128941285D01*
X121357571Y-129050142D01*
X121393857Y-129195285D01*
X121393857Y-129485571D01*
X121357571Y-129558142D01*
X121321285Y-129594428D01*
X121248714Y-129630714D01*
X121103571Y-129630714D01*
X121031000Y-129594428D01*
X120994714Y-129558142D01*
X120958428Y-129485571D01*
X120958428Y-129304142D01*
X120994714Y-129231571D01*
X121031000Y-129195285D01*
X121103571Y-129159000D01*
X121248714Y-129159000D01*
X121321285Y-129195285D01*
X121357571Y-129231571D01*
X121393857Y-129304142D01*
X123171857Y-133277714D02*
X123099285Y-133277714D01*
X123026714Y-133314000D01*
X122990428Y-133350285D01*
X122954142Y-133422857D01*
X122917857Y-133568000D01*
X122917857Y-133749428D01*
X122954142Y-133894571D01*
X122990428Y-133967142D01*
X123026714Y-134003428D01*
X123099285Y-134039714D01*
X123171857Y-134039714D01*
X123244428Y-134003428D01*
X123280714Y-133967142D01*
X123317000Y-133894571D01*
X123353285Y-133749428D01*
X123353285Y-133568000D01*
X123317000Y-133422857D01*
X123280714Y-133350285D01*
X123244428Y-133314000D01*
X123171857Y-133277714D01*
X122591285Y-133967142D02*
X122555000Y-134003428D01*
X122591285Y-134039714D01*
X122627571Y-134003428D01*
X122591285Y-133967142D01*
X122591285Y-134039714D01*
X121829285Y-134039714D02*
X122264714Y-134039714D01*
X122047000Y-134039714D02*
X122047000Y-133277714D01*
X122119571Y-133386571D01*
X122192142Y-133459142D01*
X122264714Y-133495428D01*
X121176142Y-133531714D02*
X121176142Y-134039714D01*
X121502714Y-133531714D02*
X121502714Y-133930857D01*
X121466428Y-134003428D01*
X121393857Y-134039714D01*
X121285000Y-134039714D01*
X121212428Y-134003428D01*
X121176142Y-133967142D01*
X120559285Y-133640571D02*
X120813285Y-133640571D01*
X120813285Y-134039714D02*
X120813285Y-133277714D01*
X120450428Y-133277714D01*
%TO.C,C17*%
X119234857Y-121938142D02*
X119271142Y-121974428D01*
X119380000Y-122010714D01*
X119452571Y-122010714D01*
X119561428Y-121974428D01*
X119634000Y-121901857D01*
X119670285Y-121829285D01*
X119706571Y-121684142D01*
X119706571Y-121575285D01*
X119670285Y-121430142D01*
X119634000Y-121357571D01*
X119561428Y-121285000D01*
X119452571Y-121248714D01*
X119380000Y-121248714D01*
X119271142Y-121285000D01*
X119234857Y-121321285D01*
X118509142Y-122010714D02*
X118944571Y-122010714D01*
X118726857Y-122010714D02*
X118726857Y-121248714D01*
X118799428Y-121357571D01*
X118872000Y-121430142D01*
X118944571Y-121466428D01*
X118255142Y-121248714D02*
X117747142Y-121248714D01*
X118073714Y-122010714D01*
X119996857Y-125657714D02*
X119924285Y-125657714D01*
X119851714Y-125694000D01*
X119815428Y-125730285D01*
X119779142Y-125802857D01*
X119742857Y-125948000D01*
X119742857Y-126129428D01*
X119779142Y-126274571D01*
X119815428Y-126347142D01*
X119851714Y-126383428D01*
X119924285Y-126419714D01*
X119996857Y-126419714D01*
X120069428Y-126383428D01*
X120105714Y-126347142D01*
X120142000Y-126274571D01*
X120178285Y-126129428D01*
X120178285Y-125948000D01*
X120142000Y-125802857D01*
X120105714Y-125730285D01*
X120069428Y-125694000D01*
X119996857Y-125657714D01*
X119416285Y-126347142D02*
X119380000Y-126383428D01*
X119416285Y-126419714D01*
X119452571Y-126383428D01*
X119416285Y-126347142D01*
X119416285Y-126419714D01*
X118654285Y-126419714D02*
X119089714Y-126419714D01*
X118872000Y-126419714D02*
X118872000Y-125657714D01*
X118944571Y-125766571D01*
X119017142Y-125839142D01*
X119089714Y-125875428D01*
X118001142Y-125911714D02*
X118001142Y-126419714D01*
X118327714Y-125911714D02*
X118327714Y-126310857D01*
X118291428Y-126383428D01*
X118218857Y-126419714D01*
X118110000Y-126419714D01*
X118037428Y-126383428D01*
X118001142Y-126347142D01*
X117384285Y-126020571D02*
X117638285Y-126020571D01*
X117638285Y-126419714D02*
X117638285Y-125657714D01*
X117275428Y-125657714D01*
%TO.C,C20*%
X95739857Y-129558142D02*
X95776142Y-129594428D01*
X95885000Y-129630714D01*
X95957571Y-129630714D01*
X96066428Y-129594428D01*
X96139000Y-129521857D01*
X96175285Y-129449285D01*
X96211571Y-129304142D01*
X96211571Y-129195285D01*
X96175285Y-129050142D01*
X96139000Y-128977571D01*
X96066428Y-128905000D01*
X95957571Y-128868714D01*
X95885000Y-128868714D01*
X95776142Y-128905000D01*
X95739857Y-128941285D01*
X95449571Y-128941285D02*
X95413285Y-128905000D01*
X95340714Y-128868714D01*
X95159285Y-128868714D01*
X95086714Y-128905000D01*
X95050428Y-128941285D01*
X95014142Y-129013857D01*
X95014142Y-129086428D01*
X95050428Y-129195285D01*
X95485857Y-129630714D01*
X95014142Y-129630714D01*
X94542428Y-128868714D02*
X94469857Y-128868714D01*
X94397285Y-128905000D01*
X94361000Y-128941285D01*
X94324714Y-129013857D01*
X94288428Y-129159000D01*
X94288428Y-129340428D01*
X94324714Y-129485571D01*
X94361000Y-129558142D01*
X94397285Y-129594428D01*
X94469857Y-129630714D01*
X94542428Y-129630714D01*
X94615000Y-129594428D01*
X94651285Y-129558142D01*
X94687571Y-129485571D01*
X94723857Y-129340428D01*
X94723857Y-129159000D01*
X94687571Y-129013857D01*
X94651285Y-128941285D01*
X94615000Y-128905000D01*
X94542428Y-128868714D01*
X96501857Y-133277714D02*
X96429285Y-133277714D01*
X96356714Y-133314000D01*
X96320428Y-133350285D01*
X96284142Y-133422857D01*
X96247857Y-133568000D01*
X96247857Y-133749428D01*
X96284142Y-133894571D01*
X96320428Y-133967142D01*
X96356714Y-134003428D01*
X96429285Y-134039714D01*
X96501857Y-134039714D01*
X96574428Y-134003428D01*
X96610714Y-133967142D01*
X96647000Y-133894571D01*
X96683285Y-133749428D01*
X96683285Y-133568000D01*
X96647000Y-133422857D01*
X96610714Y-133350285D01*
X96574428Y-133314000D01*
X96501857Y-133277714D01*
X95921285Y-133967142D02*
X95885000Y-134003428D01*
X95921285Y-134039714D01*
X95957571Y-134003428D01*
X95921285Y-133967142D01*
X95921285Y-134039714D01*
X95159285Y-134039714D02*
X95594714Y-134039714D01*
X95377000Y-134039714D02*
X95377000Y-133277714D01*
X95449571Y-133386571D01*
X95522142Y-133459142D01*
X95594714Y-133495428D01*
X94506142Y-133531714D02*
X94506142Y-134039714D01*
X94832714Y-133531714D02*
X94832714Y-133930857D01*
X94796428Y-134003428D01*
X94723857Y-134039714D01*
X94615000Y-134039714D01*
X94542428Y-134003428D01*
X94506142Y-133967142D01*
X93889285Y-133640571D02*
X94143285Y-133640571D01*
X94143285Y-134039714D02*
X94143285Y-133277714D01*
X93780428Y-133277714D01*
%TO.C,C21*%
X92564857Y-129558142D02*
X92601142Y-129594428D01*
X92710000Y-129630714D01*
X92782571Y-129630714D01*
X92891428Y-129594428D01*
X92964000Y-129521857D01*
X93000285Y-129449285D01*
X93036571Y-129304142D01*
X93036571Y-129195285D01*
X93000285Y-129050142D01*
X92964000Y-128977571D01*
X92891428Y-128905000D01*
X92782571Y-128868714D01*
X92710000Y-128868714D01*
X92601142Y-128905000D01*
X92564857Y-128941285D01*
X92274571Y-128941285D02*
X92238285Y-128905000D01*
X92165714Y-128868714D01*
X91984285Y-128868714D01*
X91911714Y-128905000D01*
X91875428Y-128941285D01*
X91839142Y-129013857D01*
X91839142Y-129086428D01*
X91875428Y-129195285D01*
X92310857Y-129630714D01*
X91839142Y-129630714D01*
X91113428Y-129630714D02*
X91548857Y-129630714D01*
X91331142Y-129630714D02*
X91331142Y-128868714D01*
X91403714Y-128977571D01*
X91476285Y-129050142D01*
X91548857Y-129086428D01*
X93326857Y-133277714D02*
X93254285Y-133277714D01*
X93181714Y-133314000D01*
X93145428Y-133350285D01*
X93109142Y-133422857D01*
X93072857Y-133568000D01*
X93072857Y-133749428D01*
X93109142Y-133894571D01*
X93145428Y-133967142D01*
X93181714Y-134003428D01*
X93254285Y-134039714D01*
X93326857Y-134039714D01*
X93399428Y-134003428D01*
X93435714Y-133967142D01*
X93472000Y-133894571D01*
X93508285Y-133749428D01*
X93508285Y-133568000D01*
X93472000Y-133422857D01*
X93435714Y-133350285D01*
X93399428Y-133314000D01*
X93326857Y-133277714D01*
X92746285Y-133967142D02*
X92710000Y-134003428D01*
X92746285Y-134039714D01*
X92782571Y-134003428D01*
X92746285Y-133967142D01*
X92746285Y-134039714D01*
X91984285Y-134039714D02*
X92419714Y-134039714D01*
X92202000Y-134039714D02*
X92202000Y-133277714D01*
X92274571Y-133386571D01*
X92347142Y-133459142D01*
X92419714Y-133495428D01*
X91331142Y-133531714D02*
X91331142Y-134039714D01*
X91657714Y-133531714D02*
X91657714Y-133930857D01*
X91621428Y-134003428D01*
X91548857Y-134039714D01*
X91440000Y-134039714D01*
X91367428Y-134003428D01*
X91331142Y-133967142D01*
X90714285Y-133640571D02*
X90968285Y-133640571D01*
X90968285Y-134039714D02*
X90968285Y-133277714D01*
X90605428Y-133277714D01*
%TO.C,C22*%
X89389857Y-129558142D02*
X89426142Y-129594428D01*
X89535000Y-129630714D01*
X89607571Y-129630714D01*
X89716428Y-129594428D01*
X89789000Y-129521857D01*
X89825285Y-129449285D01*
X89861571Y-129304142D01*
X89861571Y-129195285D01*
X89825285Y-129050142D01*
X89789000Y-128977571D01*
X89716428Y-128905000D01*
X89607571Y-128868714D01*
X89535000Y-128868714D01*
X89426142Y-128905000D01*
X89389857Y-128941285D01*
X89099571Y-128941285D02*
X89063285Y-128905000D01*
X88990714Y-128868714D01*
X88809285Y-128868714D01*
X88736714Y-128905000D01*
X88700428Y-128941285D01*
X88664142Y-129013857D01*
X88664142Y-129086428D01*
X88700428Y-129195285D01*
X89135857Y-129630714D01*
X88664142Y-129630714D01*
X88373857Y-128941285D02*
X88337571Y-128905000D01*
X88265000Y-128868714D01*
X88083571Y-128868714D01*
X88011000Y-128905000D01*
X87974714Y-128941285D01*
X87938428Y-129013857D01*
X87938428Y-129086428D01*
X87974714Y-129195285D01*
X88410142Y-129630714D01*
X87938428Y-129630714D01*
X90151857Y-133277714D02*
X90079285Y-133277714D01*
X90006714Y-133314000D01*
X89970428Y-133350285D01*
X89934142Y-133422857D01*
X89897857Y-133568000D01*
X89897857Y-133749428D01*
X89934142Y-133894571D01*
X89970428Y-133967142D01*
X90006714Y-134003428D01*
X90079285Y-134039714D01*
X90151857Y-134039714D01*
X90224428Y-134003428D01*
X90260714Y-133967142D01*
X90297000Y-133894571D01*
X90333285Y-133749428D01*
X90333285Y-133568000D01*
X90297000Y-133422857D01*
X90260714Y-133350285D01*
X90224428Y-133314000D01*
X90151857Y-133277714D01*
X89571285Y-133967142D02*
X89535000Y-134003428D01*
X89571285Y-134039714D01*
X89607571Y-134003428D01*
X89571285Y-133967142D01*
X89571285Y-134039714D01*
X88809285Y-134039714D02*
X89244714Y-134039714D01*
X89027000Y-134039714D02*
X89027000Y-133277714D01*
X89099571Y-133386571D01*
X89172142Y-133459142D01*
X89244714Y-133495428D01*
X88156142Y-133531714D02*
X88156142Y-134039714D01*
X88482714Y-133531714D02*
X88482714Y-133930857D01*
X88446428Y-134003428D01*
X88373857Y-134039714D01*
X88265000Y-134039714D01*
X88192428Y-134003428D01*
X88156142Y-133967142D01*
X87539285Y-133640571D02*
X87793285Y-133640571D01*
X87793285Y-134039714D02*
X87793285Y-133277714D01*
X87430428Y-133277714D01*
%TO.C,C23*%
X86214857Y-121938142D02*
X86251142Y-121974428D01*
X86360000Y-122010714D01*
X86432571Y-122010714D01*
X86541428Y-121974428D01*
X86614000Y-121901857D01*
X86650285Y-121829285D01*
X86686571Y-121684142D01*
X86686571Y-121575285D01*
X86650285Y-121430142D01*
X86614000Y-121357571D01*
X86541428Y-121285000D01*
X86432571Y-121248714D01*
X86360000Y-121248714D01*
X86251142Y-121285000D01*
X86214857Y-121321285D01*
X85924571Y-121321285D02*
X85888285Y-121285000D01*
X85815714Y-121248714D01*
X85634285Y-121248714D01*
X85561714Y-121285000D01*
X85525428Y-121321285D01*
X85489142Y-121393857D01*
X85489142Y-121466428D01*
X85525428Y-121575285D01*
X85960857Y-122010714D01*
X85489142Y-122010714D01*
X85235142Y-121248714D02*
X84763428Y-121248714D01*
X85017428Y-121539000D01*
X84908571Y-121539000D01*
X84836000Y-121575285D01*
X84799714Y-121611571D01*
X84763428Y-121684142D01*
X84763428Y-121865571D01*
X84799714Y-121938142D01*
X84836000Y-121974428D01*
X84908571Y-122010714D01*
X85126285Y-122010714D01*
X85198857Y-121974428D01*
X85235142Y-121938142D01*
X86976857Y-125657714D02*
X86904285Y-125657714D01*
X86831714Y-125694000D01*
X86795428Y-125730285D01*
X86759142Y-125802857D01*
X86722857Y-125948000D01*
X86722857Y-126129428D01*
X86759142Y-126274571D01*
X86795428Y-126347142D01*
X86831714Y-126383428D01*
X86904285Y-126419714D01*
X86976857Y-126419714D01*
X87049428Y-126383428D01*
X87085714Y-126347142D01*
X87122000Y-126274571D01*
X87158285Y-126129428D01*
X87158285Y-125948000D01*
X87122000Y-125802857D01*
X87085714Y-125730285D01*
X87049428Y-125694000D01*
X86976857Y-125657714D01*
X86396285Y-126347142D02*
X86360000Y-126383428D01*
X86396285Y-126419714D01*
X86432571Y-126383428D01*
X86396285Y-126347142D01*
X86396285Y-126419714D01*
X85634285Y-126419714D02*
X86069714Y-126419714D01*
X85852000Y-126419714D02*
X85852000Y-125657714D01*
X85924571Y-125766571D01*
X85997142Y-125839142D01*
X86069714Y-125875428D01*
X84981142Y-125911714D02*
X84981142Y-126419714D01*
X85307714Y-125911714D02*
X85307714Y-126310857D01*
X85271428Y-126383428D01*
X85198857Y-126419714D01*
X85090000Y-126419714D01*
X85017428Y-126383428D01*
X84981142Y-126347142D01*
X84364285Y-126020571D02*
X84618285Y-126020571D01*
X84618285Y-126419714D02*
X84618285Y-125657714D01*
X84255428Y-125657714D01*
%TO.C,R3*%
X156881285Y-127127000D02*
X157244142Y-127381000D01*
X156881285Y-127562428D02*
X157643285Y-127562428D01*
X157643285Y-127272142D01*
X157607000Y-127199571D01*
X157570714Y-127163285D01*
X157498142Y-127127000D01*
X157389285Y-127127000D01*
X157316714Y-127163285D01*
X157280428Y-127199571D01*
X157244142Y-127272142D01*
X157244142Y-127562428D01*
X157643285Y-126873000D02*
X157643285Y-126401285D01*
X157353000Y-126655285D01*
X157353000Y-126546428D01*
X157316714Y-126473857D01*
X157280428Y-126437571D01*
X157207857Y-126401285D01*
X157026428Y-126401285D01*
X156953857Y-126437571D01*
X156917571Y-126473857D01*
X156881285Y-126546428D01*
X156881285Y-126764142D01*
X156917571Y-126836714D01*
X156953857Y-126873000D01*
X161725714Y-127798285D02*
X161762000Y-127870857D01*
X161798285Y-127907142D01*
X161870857Y-127943428D01*
X161907142Y-127943428D01*
X161979714Y-127907142D01*
X162016000Y-127870857D01*
X162052285Y-127798285D01*
X162052285Y-127653142D01*
X162016000Y-127580571D01*
X161979714Y-127544285D01*
X161907142Y-127508000D01*
X161870857Y-127508000D01*
X161798285Y-127544285D01*
X161762000Y-127580571D01*
X161725714Y-127653142D01*
X161725714Y-127798285D01*
X161689428Y-127870857D01*
X161653142Y-127907142D01*
X161580571Y-127943428D01*
X161435428Y-127943428D01*
X161362857Y-127907142D01*
X161326571Y-127870857D01*
X161290285Y-127798285D01*
X161290285Y-127653142D01*
X161326571Y-127580571D01*
X161362857Y-127544285D01*
X161435428Y-127508000D01*
X161580571Y-127508000D01*
X161653142Y-127544285D01*
X161689428Y-127580571D01*
X161725714Y-127653142D01*
X161798285Y-126854857D02*
X161290285Y-126854857D01*
X162088571Y-127036285D02*
X161544285Y-127217714D01*
X161544285Y-126746000D01*
X162052285Y-126092857D02*
X162052285Y-126455714D01*
X161689428Y-126492000D01*
X161725714Y-126455714D01*
X161762000Y-126383142D01*
X161762000Y-126201714D01*
X161725714Y-126129142D01*
X161689428Y-126092857D01*
X161616857Y-126056571D01*
X161435428Y-126056571D01*
X161362857Y-126092857D01*
X161326571Y-126129142D01*
X161290285Y-126201714D01*
X161290285Y-126383142D01*
X161326571Y-126455714D01*
X161362857Y-126492000D01*
%TO.C,R4*%
X163322000Y-122518714D02*
X163576000Y-122155857D01*
X163757428Y-122518714D02*
X163757428Y-121756714D01*
X163467142Y-121756714D01*
X163394571Y-121793000D01*
X163358285Y-121829285D01*
X163322000Y-121901857D01*
X163322000Y-122010714D01*
X163358285Y-122083285D01*
X163394571Y-122119571D01*
X163467142Y-122155857D01*
X163757428Y-122155857D01*
X162668857Y-122010714D02*
X162668857Y-122518714D01*
X162850285Y-121720428D02*
X163031714Y-122264714D01*
X162560000Y-122264714D01*
X163993285Y-117674285D02*
X164065857Y-117638000D01*
X164102142Y-117601714D01*
X164138428Y-117529142D01*
X164138428Y-117492857D01*
X164102142Y-117420285D01*
X164065857Y-117384000D01*
X163993285Y-117347714D01*
X163848142Y-117347714D01*
X163775571Y-117384000D01*
X163739285Y-117420285D01*
X163703000Y-117492857D01*
X163703000Y-117529142D01*
X163739285Y-117601714D01*
X163775571Y-117638000D01*
X163848142Y-117674285D01*
X163993285Y-117674285D01*
X164065857Y-117710571D01*
X164102142Y-117746857D01*
X164138428Y-117819428D01*
X164138428Y-117964571D01*
X164102142Y-118037142D01*
X164065857Y-118073428D01*
X163993285Y-118109714D01*
X163848142Y-118109714D01*
X163775571Y-118073428D01*
X163739285Y-118037142D01*
X163703000Y-117964571D01*
X163703000Y-117819428D01*
X163739285Y-117746857D01*
X163775571Y-117710571D01*
X163848142Y-117674285D01*
X163049857Y-117601714D02*
X163049857Y-118109714D01*
X163231285Y-117311428D02*
X163412714Y-117855714D01*
X162941000Y-117855714D01*
X162287857Y-117347714D02*
X162650714Y-117347714D01*
X162687000Y-117710571D01*
X162650714Y-117674285D01*
X162578142Y-117638000D01*
X162396714Y-117638000D01*
X162324142Y-117674285D01*
X162287857Y-117710571D01*
X162251571Y-117783142D01*
X162251571Y-117964571D01*
X162287857Y-118037142D01*
X162324142Y-118073428D01*
X162396714Y-118109714D01*
X162578142Y-118109714D01*
X162650714Y-118073428D01*
X162687000Y-118037142D01*
%TO.C,R5*%
X173318714Y-126873000D02*
X172955857Y-126619000D01*
X173318714Y-126437571D02*
X172556714Y-126437571D01*
X172556714Y-126727857D01*
X172593000Y-126800428D01*
X172629285Y-126836714D01*
X172701857Y-126873000D01*
X172810714Y-126873000D01*
X172883285Y-126836714D01*
X172919571Y-126800428D01*
X172955857Y-126727857D01*
X172955857Y-126437571D01*
X172556714Y-127562428D02*
X172556714Y-127199571D01*
X172919571Y-127163285D01*
X172883285Y-127199571D01*
X172847000Y-127272142D01*
X172847000Y-127453571D01*
X172883285Y-127526142D01*
X172919571Y-127562428D01*
X172992142Y-127598714D01*
X173173571Y-127598714D01*
X173246142Y-127562428D01*
X173282428Y-127526142D01*
X173318714Y-127453571D01*
X173318714Y-127272142D01*
X173282428Y-127199571D01*
X173246142Y-127163285D01*
X168474285Y-126201714D02*
X168438000Y-126129142D01*
X168401714Y-126092857D01*
X168329142Y-126056571D01*
X168292857Y-126056571D01*
X168220285Y-126092857D01*
X168184000Y-126129142D01*
X168147714Y-126201714D01*
X168147714Y-126346857D01*
X168184000Y-126419428D01*
X168220285Y-126455714D01*
X168292857Y-126492000D01*
X168329142Y-126492000D01*
X168401714Y-126455714D01*
X168438000Y-126419428D01*
X168474285Y-126346857D01*
X168474285Y-126201714D01*
X168510571Y-126129142D01*
X168546857Y-126092857D01*
X168619428Y-126056571D01*
X168764571Y-126056571D01*
X168837142Y-126092857D01*
X168873428Y-126129142D01*
X168909714Y-126201714D01*
X168909714Y-126346857D01*
X168873428Y-126419428D01*
X168837142Y-126455714D01*
X168764571Y-126492000D01*
X168619428Y-126492000D01*
X168546857Y-126455714D01*
X168510571Y-126419428D01*
X168474285Y-126346857D01*
X168401714Y-127145142D02*
X168909714Y-127145142D01*
X168111428Y-126963714D02*
X168655714Y-126782285D01*
X168655714Y-127254000D01*
X168147714Y-127907142D02*
X168147714Y-127544285D01*
X168510571Y-127508000D01*
X168474285Y-127544285D01*
X168438000Y-127616857D01*
X168438000Y-127798285D01*
X168474285Y-127870857D01*
X168510571Y-127907142D01*
X168583142Y-127943428D01*
X168764571Y-127943428D01*
X168837142Y-127907142D01*
X168873428Y-127870857D01*
X168909714Y-127798285D01*
X168909714Y-127616857D01*
X168873428Y-127544285D01*
X168837142Y-127508000D01*
%TO.C,R6*%
X170942000Y-122518714D02*
X171196000Y-122155857D01*
X171377428Y-122518714D02*
X171377428Y-121756714D01*
X171087142Y-121756714D01*
X171014571Y-121793000D01*
X170978285Y-121829285D01*
X170942000Y-121901857D01*
X170942000Y-122010714D01*
X170978285Y-122083285D01*
X171014571Y-122119571D01*
X171087142Y-122155857D01*
X171377428Y-122155857D01*
X170288857Y-121756714D02*
X170434000Y-121756714D01*
X170506571Y-121793000D01*
X170542857Y-121829285D01*
X170615428Y-121938142D01*
X170651714Y-122083285D01*
X170651714Y-122373571D01*
X170615428Y-122446142D01*
X170579142Y-122482428D01*
X170506571Y-122518714D01*
X170361428Y-122518714D01*
X170288857Y-122482428D01*
X170252571Y-122446142D01*
X170216285Y-122373571D01*
X170216285Y-122192142D01*
X170252571Y-122119571D01*
X170288857Y-122083285D01*
X170361428Y-122047000D01*
X170506571Y-122047000D01*
X170579142Y-122083285D01*
X170615428Y-122119571D01*
X170651714Y-122192142D01*
X171613285Y-117674285D02*
X171685857Y-117638000D01*
X171722142Y-117601714D01*
X171758428Y-117529142D01*
X171758428Y-117492857D01*
X171722142Y-117420285D01*
X171685857Y-117384000D01*
X171613285Y-117347714D01*
X171468142Y-117347714D01*
X171395571Y-117384000D01*
X171359285Y-117420285D01*
X171323000Y-117492857D01*
X171323000Y-117529142D01*
X171359285Y-117601714D01*
X171395571Y-117638000D01*
X171468142Y-117674285D01*
X171613285Y-117674285D01*
X171685857Y-117710571D01*
X171722142Y-117746857D01*
X171758428Y-117819428D01*
X171758428Y-117964571D01*
X171722142Y-118037142D01*
X171685857Y-118073428D01*
X171613285Y-118109714D01*
X171468142Y-118109714D01*
X171395571Y-118073428D01*
X171359285Y-118037142D01*
X171323000Y-117964571D01*
X171323000Y-117819428D01*
X171359285Y-117746857D01*
X171395571Y-117710571D01*
X171468142Y-117674285D01*
X170669857Y-117601714D02*
X170669857Y-118109714D01*
X170851285Y-117311428D02*
X171032714Y-117855714D01*
X170561000Y-117855714D01*
X169907857Y-117347714D02*
X170270714Y-117347714D01*
X170307000Y-117710571D01*
X170270714Y-117674285D01*
X170198142Y-117638000D01*
X170016714Y-117638000D01*
X169944142Y-117674285D01*
X169907857Y-117710571D01*
X169871571Y-117783142D01*
X169871571Y-117964571D01*
X169907857Y-118037142D01*
X169944142Y-118073428D01*
X170016714Y-118109714D01*
X170198142Y-118109714D01*
X170270714Y-118073428D01*
X170307000Y-118037142D01*
%TO.C,R8*%
X123861285Y-127127000D02*
X124224142Y-127381000D01*
X123861285Y-127562428D02*
X124623285Y-127562428D01*
X124623285Y-127272142D01*
X124587000Y-127199571D01*
X124550714Y-127163285D01*
X124478142Y-127127000D01*
X124369285Y-127127000D01*
X124296714Y-127163285D01*
X124260428Y-127199571D01*
X124224142Y-127272142D01*
X124224142Y-127562428D01*
X124296714Y-126691571D02*
X124333000Y-126764142D01*
X124369285Y-126800428D01*
X124441857Y-126836714D01*
X124478142Y-126836714D01*
X124550714Y-126800428D01*
X124587000Y-126764142D01*
X124623285Y-126691571D01*
X124623285Y-126546428D01*
X124587000Y-126473857D01*
X124550714Y-126437571D01*
X124478142Y-126401285D01*
X124441857Y-126401285D01*
X124369285Y-126437571D01*
X124333000Y-126473857D01*
X124296714Y-126546428D01*
X124296714Y-126691571D01*
X124260428Y-126764142D01*
X124224142Y-126800428D01*
X124151571Y-126836714D01*
X124006428Y-126836714D01*
X123933857Y-126800428D01*
X123897571Y-126764142D01*
X123861285Y-126691571D01*
X123861285Y-126546428D01*
X123897571Y-126473857D01*
X123933857Y-126437571D01*
X124006428Y-126401285D01*
X124151571Y-126401285D01*
X124224142Y-126437571D01*
X124260428Y-126473857D01*
X124296714Y-126546428D01*
X128705714Y-127798285D02*
X128742000Y-127870857D01*
X128778285Y-127907142D01*
X128850857Y-127943428D01*
X128887142Y-127943428D01*
X128959714Y-127907142D01*
X128996000Y-127870857D01*
X129032285Y-127798285D01*
X129032285Y-127653142D01*
X128996000Y-127580571D01*
X128959714Y-127544285D01*
X128887142Y-127508000D01*
X128850857Y-127508000D01*
X128778285Y-127544285D01*
X128742000Y-127580571D01*
X128705714Y-127653142D01*
X128705714Y-127798285D01*
X128669428Y-127870857D01*
X128633142Y-127907142D01*
X128560571Y-127943428D01*
X128415428Y-127943428D01*
X128342857Y-127907142D01*
X128306571Y-127870857D01*
X128270285Y-127798285D01*
X128270285Y-127653142D01*
X128306571Y-127580571D01*
X128342857Y-127544285D01*
X128415428Y-127508000D01*
X128560571Y-127508000D01*
X128633142Y-127544285D01*
X128669428Y-127580571D01*
X128705714Y-127653142D01*
X128778285Y-126854857D02*
X128270285Y-126854857D01*
X129068571Y-127036285D02*
X128524285Y-127217714D01*
X128524285Y-126746000D01*
X129032285Y-126092857D02*
X129032285Y-126455714D01*
X128669428Y-126492000D01*
X128705714Y-126455714D01*
X128742000Y-126383142D01*
X128742000Y-126201714D01*
X128705714Y-126129142D01*
X128669428Y-126092857D01*
X128596857Y-126056571D01*
X128415428Y-126056571D01*
X128342857Y-126092857D01*
X128306571Y-126129142D01*
X128270285Y-126201714D01*
X128270285Y-126383142D01*
X128306571Y-126455714D01*
X128342857Y-126492000D01*
%TO.C,R9*%
X130302000Y-122518714D02*
X130556000Y-122155857D01*
X130737428Y-122518714D02*
X130737428Y-121756714D01*
X130447142Y-121756714D01*
X130374571Y-121793000D01*
X130338285Y-121829285D01*
X130302000Y-121901857D01*
X130302000Y-122010714D01*
X130338285Y-122083285D01*
X130374571Y-122119571D01*
X130447142Y-122155857D01*
X130737428Y-122155857D01*
X129939142Y-122518714D02*
X129794000Y-122518714D01*
X129721428Y-122482428D01*
X129685142Y-122446142D01*
X129612571Y-122337285D01*
X129576285Y-122192142D01*
X129576285Y-121901857D01*
X129612571Y-121829285D01*
X129648857Y-121793000D01*
X129721428Y-121756714D01*
X129866571Y-121756714D01*
X129939142Y-121793000D01*
X129975428Y-121829285D01*
X130011714Y-121901857D01*
X130011714Y-122083285D01*
X129975428Y-122155857D01*
X129939142Y-122192142D01*
X129866571Y-122228428D01*
X129721428Y-122228428D01*
X129648857Y-122192142D01*
X129612571Y-122155857D01*
X129576285Y-122083285D01*
X130973285Y-117674285D02*
X131045857Y-117638000D01*
X131082142Y-117601714D01*
X131118428Y-117529142D01*
X131118428Y-117492857D01*
X131082142Y-117420285D01*
X131045857Y-117384000D01*
X130973285Y-117347714D01*
X130828142Y-117347714D01*
X130755571Y-117384000D01*
X130719285Y-117420285D01*
X130683000Y-117492857D01*
X130683000Y-117529142D01*
X130719285Y-117601714D01*
X130755571Y-117638000D01*
X130828142Y-117674285D01*
X130973285Y-117674285D01*
X131045857Y-117710571D01*
X131082142Y-117746857D01*
X131118428Y-117819428D01*
X131118428Y-117964571D01*
X131082142Y-118037142D01*
X131045857Y-118073428D01*
X130973285Y-118109714D01*
X130828142Y-118109714D01*
X130755571Y-118073428D01*
X130719285Y-118037142D01*
X130683000Y-117964571D01*
X130683000Y-117819428D01*
X130719285Y-117746857D01*
X130755571Y-117710571D01*
X130828142Y-117674285D01*
X130029857Y-117601714D02*
X130029857Y-118109714D01*
X130211285Y-117311428D02*
X130392714Y-117855714D01*
X129921000Y-117855714D01*
X129267857Y-117347714D02*
X129630714Y-117347714D01*
X129667000Y-117710571D01*
X129630714Y-117674285D01*
X129558142Y-117638000D01*
X129376714Y-117638000D01*
X129304142Y-117674285D01*
X129267857Y-117710571D01*
X129231571Y-117783142D01*
X129231571Y-117964571D01*
X129267857Y-118037142D01*
X129304142Y-118073428D01*
X129376714Y-118109714D01*
X129558142Y-118109714D01*
X129630714Y-118073428D01*
X129667000Y-118037142D01*
%TO.C,R10*%
X140298714Y-126510142D02*
X139935857Y-126256142D01*
X140298714Y-126074714D02*
X139536714Y-126074714D01*
X139536714Y-126365000D01*
X139573000Y-126437571D01*
X139609285Y-126473857D01*
X139681857Y-126510142D01*
X139790714Y-126510142D01*
X139863285Y-126473857D01*
X139899571Y-126437571D01*
X139935857Y-126365000D01*
X139935857Y-126074714D01*
X140298714Y-127235857D02*
X140298714Y-126800428D01*
X140298714Y-127018142D02*
X139536714Y-127018142D01*
X139645571Y-126945571D01*
X139718142Y-126873000D01*
X139754428Y-126800428D01*
X139536714Y-127707571D02*
X139536714Y-127780142D01*
X139573000Y-127852714D01*
X139609285Y-127889000D01*
X139681857Y-127925285D01*
X139827000Y-127961571D01*
X140008428Y-127961571D01*
X140153571Y-127925285D01*
X140226142Y-127889000D01*
X140262428Y-127852714D01*
X140298714Y-127780142D01*
X140298714Y-127707571D01*
X140262428Y-127635000D01*
X140226142Y-127598714D01*
X140153571Y-127562428D01*
X140008428Y-127526142D01*
X139827000Y-127526142D01*
X139681857Y-127562428D01*
X139609285Y-127598714D01*
X139573000Y-127635000D01*
X139536714Y-127707571D01*
X135454285Y-126201714D02*
X135418000Y-126129142D01*
X135381714Y-126092857D01*
X135309142Y-126056571D01*
X135272857Y-126056571D01*
X135200285Y-126092857D01*
X135164000Y-126129142D01*
X135127714Y-126201714D01*
X135127714Y-126346857D01*
X135164000Y-126419428D01*
X135200285Y-126455714D01*
X135272857Y-126492000D01*
X135309142Y-126492000D01*
X135381714Y-126455714D01*
X135418000Y-126419428D01*
X135454285Y-126346857D01*
X135454285Y-126201714D01*
X135490571Y-126129142D01*
X135526857Y-126092857D01*
X135599428Y-126056571D01*
X135744571Y-126056571D01*
X135817142Y-126092857D01*
X135853428Y-126129142D01*
X135889714Y-126201714D01*
X135889714Y-126346857D01*
X135853428Y-126419428D01*
X135817142Y-126455714D01*
X135744571Y-126492000D01*
X135599428Y-126492000D01*
X135526857Y-126455714D01*
X135490571Y-126419428D01*
X135454285Y-126346857D01*
X135381714Y-127145142D02*
X135889714Y-127145142D01*
X135091428Y-126963714D02*
X135635714Y-126782285D01*
X135635714Y-127254000D01*
X135127714Y-127907142D02*
X135127714Y-127544285D01*
X135490571Y-127508000D01*
X135454285Y-127544285D01*
X135418000Y-127616857D01*
X135418000Y-127798285D01*
X135454285Y-127870857D01*
X135490571Y-127907142D01*
X135563142Y-127943428D01*
X135744571Y-127943428D01*
X135817142Y-127907142D01*
X135853428Y-127870857D01*
X135889714Y-127798285D01*
X135889714Y-127616857D01*
X135853428Y-127544285D01*
X135817142Y-127508000D01*
%TO.C,R11*%
X138284857Y-122518714D02*
X138538857Y-122155857D01*
X138720285Y-122518714D02*
X138720285Y-121756714D01*
X138430000Y-121756714D01*
X138357428Y-121793000D01*
X138321142Y-121829285D01*
X138284857Y-121901857D01*
X138284857Y-122010714D01*
X138321142Y-122083285D01*
X138357428Y-122119571D01*
X138430000Y-122155857D01*
X138720285Y-122155857D01*
X137559142Y-122518714D02*
X137994571Y-122518714D01*
X137776857Y-122518714D02*
X137776857Y-121756714D01*
X137849428Y-121865571D01*
X137922000Y-121938142D01*
X137994571Y-121974428D01*
X136833428Y-122518714D02*
X137268857Y-122518714D01*
X137051142Y-122518714D02*
X137051142Y-121756714D01*
X137123714Y-121865571D01*
X137196285Y-121938142D01*
X137268857Y-121974428D01*
X138593285Y-117674285D02*
X138665857Y-117638000D01*
X138702142Y-117601714D01*
X138738428Y-117529142D01*
X138738428Y-117492857D01*
X138702142Y-117420285D01*
X138665857Y-117384000D01*
X138593285Y-117347714D01*
X138448142Y-117347714D01*
X138375571Y-117384000D01*
X138339285Y-117420285D01*
X138303000Y-117492857D01*
X138303000Y-117529142D01*
X138339285Y-117601714D01*
X138375571Y-117638000D01*
X138448142Y-117674285D01*
X138593285Y-117674285D01*
X138665857Y-117710571D01*
X138702142Y-117746857D01*
X138738428Y-117819428D01*
X138738428Y-117964571D01*
X138702142Y-118037142D01*
X138665857Y-118073428D01*
X138593285Y-118109714D01*
X138448142Y-118109714D01*
X138375571Y-118073428D01*
X138339285Y-118037142D01*
X138303000Y-117964571D01*
X138303000Y-117819428D01*
X138339285Y-117746857D01*
X138375571Y-117710571D01*
X138448142Y-117674285D01*
X137649857Y-117601714D02*
X137649857Y-118109714D01*
X137831285Y-117311428D02*
X138012714Y-117855714D01*
X137541000Y-117855714D01*
X136887857Y-117347714D02*
X137250714Y-117347714D01*
X137287000Y-117710571D01*
X137250714Y-117674285D01*
X137178142Y-117638000D01*
X136996714Y-117638000D01*
X136924142Y-117674285D01*
X136887857Y-117710571D01*
X136851571Y-117783142D01*
X136851571Y-117964571D01*
X136887857Y-118037142D01*
X136924142Y-118073428D01*
X136996714Y-118109714D01*
X137178142Y-118109714D01*
X137250714Y-118073428D01*
X137287000Y-118037142D01*
%TO.C,R13*%
X90841285Y-127489857D02*
X91204142Y-127743857D01*
X90841285Y-127925285D02*
X91603285Y-127925285D01*
X91603285Y-127635000D01*
X91567000Y-127562428D01*
X91530714Y-127526142D01*
X91458142Y-127489857D01*
X91349285Y-127489857D01*
X91276714Y-127526142D01*
X91240428Y-127562428D01*
X91204142Y-127635000D01*
X91204142Y-127925285D01*
X90841285Y-126764142D02*
X90841285Y-127199571D01*
X90841285Y-126981857D02*
X91603285Y-126981857D01*
X91494428Y-127054428D01*
X91421857Y-127127000D01*
X91385571Y-127199571D01*
X91603285Y-126510142D02*
X91603285Y-126038428D01*
X91313000Y-126292428D01*
X91313000Y-126183571D01*
X91276714Y-126111000D01*
X91240428Y-126074714D01*
X91167857Y-126038428D01*
X90986428Y-126038428D01*
X90913857Y-126074714D01*
X90877571Y-126111000D01*
X90841285Y-126183571D01*
X90841285Y-126401285D01*
X90877571Y-126473857D01*
X90913857Y-126510142D01*
X95685714Y-127798285D02*
X95722000Y-127870857D01*
X95758285Y-127907142D01*
X95830857Y-127943428D01*
X95867142Y-127943428D01*
X95939714Y-127907142D01*
X95976000Y-127870857D01*
X96012285Y-127798285D01*
X96012285Y-127653142D01*
X95976000Y-127580571D01*
X95939714Y-127544285D01*
X95867142Y-127508000D01*
X95830857Y-127508000D01*
X95758285Y-127544285D01*
X95722000Y-127580571D01*
X95685714Y-127653142D01*
X95685714Y-127798285D01*
X95649428Y-127870857D01*
X95613142Y-127907142D01*
X95540571Y-127943428D01*
X95395428Y-127943428D01*
X95322857Y-127907142D01*
X95286571Y-127870857D01*
X95250285Y-127798285D01*
X95250285Y-127653142D01*
X95286571Y-127580571D01*
X95322857Y-127544285D01*
X95395428Y-127508000D01*
X95540571Y-127508000D01*
X95613142Y-127544285D01*
X95649428Y-127580571D01*
X95685714Y-127653142D01*
X95758285Y-126854857D02*
X95250285Y-126854857D01*
X96048571Y-127036285D02*
X95504285Y-127217714D01*
X95504285Y-126746000D01*
X96012285Y-126092857D02*
X96012285Y-126455714D01*
X95649428Y-126492000D01*
X95685714Y-126455714D01*
X95722000Y-126383142D01*
X95722000Y-126201714D01*
X95685714Y-126129142D01*
X95649428Y-126092857D01*
X95576857Y-126056571D01*
X95395428Y-126056571D01*
X95322857Y-126092857D01*
X95286571Y-126129142D01*
X95250285Y-126201714D01*
X95250285Y-126383142D01*
X95286571Y-126455714D01*
X95322857Y-126492000D01*
%TO.C,R14*%
X97644857Y-122518714D02*
X97898857Y-122155857D01*
X98080285Y-122518714D02*
X98080285Y-121756714D01*
X97790000Y-121756714D01*
X97717428Y-121793000D01*
X97681142Y-121829285D01*
X97644857Y-121901857D01*
X97644857Y-122010714D01*
X97681142Y-122083285D01*
X97717428Y-122119571D01*
X97790000Y-122155857D01*
X98080285Y-122155857D01*
X96919142Y-122518714D02*
X97354571Y-122518714D01*
X97136857Y-122518714D02*
X97136857Y-121756714D01*
X97209428Y-121865571D01*
X97282000Y-121938142D01*
X97354571Y-121974428D01*
X96266000Y-122010714D02*
X96266000Y-122518714D01*
X96447428Y-121720428D02*
X96628857Y-122264714D01*
X96157142Y-122264714D01*
X97953285Y-117674285D02*
X98025857Y-117638000D01*
X98062142Y-117601714D01*
X98098428Y-117529142D01*
X98098428Y-117492857D01*
X98062142Y-117420285D01*
X98025857Y-117384000D01*
X97953285Y-117347714D01*
X97808142Y-117347714D01*
X97735571Y-117384000D01*
X97699285Y-117420285D01*
X97663000Y-117492857D01*
X97663000Y-117529142D01*
X97699285Y-117601714D01*
X97735571Y-117638000D01*
X97808142Y-117674285D01*
X97953285Y-117674285D01*
X98025857Y-117710571D01*
X98062142Y-117746857D01*
X98098428Y-117819428D01*
X98098428Y-117964571D01*
X98062142Y-118037142D01*
X98025857Y-118073428D01*
X97953285Y-118109714D01*
X97808142Y-118109714D01*
X97735571Y-118073428D01*
X97699285Y-118037142D01*
X97663000Y-117964571D01*
X97663000Y-117819428D01*
X97699285Y-117746857D01*
X97735571Y-117710571D01*
X97808142Y-117674285D01*
X97009857Y-117601714D02*
X97009857Y-118109714D01*
X97191285Y-117311428D02*
X97372714Y-117855714D01*
X96901000Y-117855714D01*
X96247857Y-117347714D02*
X96610714Y-117347714D01*
X96647000Y-117710571D01*
X96610714Y-117674285D01*
X96538142Y-117638000D01*
X96356714Y-117638000D01*
X96284142Y-117674285D01*
X96247857Y-117710571D01*
X96211571Y-117783142D01*
X96211571Y-117964571D01*
X96247857Y-118037142D01*
X96284142Y-118073428D01*
X96356714Y-118109714D01*
X96538142Y-118109714D01*
X96610714Y-118073428D01*
X96647000Y-118037142D01*
%TO.C,R15*%
X107278714Y-126510142D02*
X106915857Y-126256142D01*
X107278714Y-126074714D02*
X106516714Y-126074714D01*
X106516714Y-126365000D01*
X106553000Y-126437571D01*
X106589285Y-126473857D01*
X106661857Y-126510142D01*
X106770714Y-126510142D01*
X106843285Y-126473857D01*
X106879571Y-126437571D01*
X106915857Y-126365000D01*
X106915857Y-126074714D01*
X107278714Y-127235857D02*
X107278714Y-126800428D01*
X107278714Y-127018142D02*
X106516714Y-127018142D01*
X106625571Y-126945571D01*
X106698142Y-126873000D01*
X106734428Y-126800428D01*
X106516714Y-127925285D02*
X106516714Y-127562428D01*
X106879571Y-127526142D01*
X106843285Y-127562428D01*
X106807000Y-127635000D01*
X106807000Y-127816428D01*
X106843285Y-127889000D01*
X106879571Y-127925285D01*
X106952142Y-127961571D01*
X107133571Y-127961571D01*
X107206142Y-127925285D01*
X107242428Y-127889000D01*
X107278714Y-127816428D01*
X107278714Y-127635000D01*
X107242428Y-127562428D01*
X107206142Y-127526142D01*
X102434285Y-126201714D02*
X102398000Y-126129142D01*
X102361714Y-126092857D01*
X102289142Y-126056571D01*
X102252857Y-126056571D01*
X102180285Y-126092857D01*
X102144000Y-126129142D01*
X102107714Y-126201714D01*
X102107714Y-126346857D01*
X102144000Y-126419428D01*
X102180285Y-126455714D01*
X102252857Y-126492000D01*
X102289142Y-126492000D01*
X102361714Y-126455714D01*
X102398000Y-126419428D01*
X102434285Y-126346857D01*
X102434285Y-126201714D01*
X102470571Y-126129142D01*
X102506857Y-126092857D01*
X102579428Y-126056571D01*
X102724571Y-126056571D01*
X102797142Y-126092857D01*
X102833428Y-126129142D01*
X102869714Y-126201714D01*
X102869714Y-126346857D01*
X102833428Y-126419428D01*
X102797142Y-126455714D01*
X102724571Y-126492000D01*
X102579428Y-126492000D01*
X102506857Y-126455714D01*
X102470571Y-126419428D01*
X102434285Y-126346857D01*
X102361714Y-127145142D02*
X102869714Y-127145142D01*
X102071428Y-126963714D02*
X102615714Y-126782285D01*
X102615714Y-127254000D01*
X102107714Y-127907142D02*
X102107714Y-127544285D01*
X102470571Y-127508000D01*
X102434285Y-127544285D01*
X102398000Y-127616857D01*
X102398000Y-127798285D01*
X102434285Y-127870857D01*
X102470571Y-127907142D01*
X102543142Y-127943428D01*
X102724571Y-127943428D01*
X102797142Y-127907142D01*
X102833428Y-127870857D01*
X102869714Y-127798285D01*
X102869714Y-127616857D01*
X102833428Y-127544285D01*
X102797142Y-127508000D01*
%TO.C,R16*%
X105264857Y-122518714D02*
X105518857Y-122155857D01*
X105700285Y-122518714D02*
X105700285Y-121756714D01*
X105410000Y-121756714D01*
X105337428Y-121793000D01*
X105301142Y-121829285D01*
X105264857Y-121901857D01*
X105264857Y-122010714D01*
X105301142Y-122083285D01*
X105337428Y-122119571D01*
X105410000Y-122155857D01*
X105700285Y-122155857D01*
X104539142Y-122518714D02*
X104974571Y-122518714D01*
X104756857Y-122518714D02*
X104756857Y-121756714D01*
X104829428Y-121865571D01*
X104902000Y-121938142D01*
X104974571Y-121974428D01*
X103886000Y-121756714D02*
X104031142Y-121756714D01*
X104103714Y-121793000D01*
X104140000Y-121829285D01*
X104212571Y-121938142D01*
X104248857Y-122083285D01*
X104248857Y-122373571D01*
X104212571Y-122446142D01*
X104176285Y-122482428D01*
X104103714Y-122518714D01*
X103958571Y-122518714D01*
X103886000Y-122482428D01*
X103849714Y-122446142D01*
X103813428Y-122373571D01*
X103813428Y-122192142D01*
X103849714Y-122119571D01*
X103886000Y-122083285D01*
X103958571Y-122047000D01*
X104103714Y-122047000D01*
X104176285Y-122083285D01*
X104212571Y-122119571D01*
X104248857Y-122192142D01*
X105573285Y-117674285D02*
X105645857Y-117638000D01*
X105682142Y-117601714D01*
X105718428Y-117529142D01*
X105718428Y-117492857D01*
X105682142Y-117420285D01*
X105645857Y-117384000D01*
X105573285Y-117347714D01*
X105428142Y-117347714D01*
X105355571Y-117384000D01*
X105319285Y-117420285D01*
X105283000Y-117492857D01*
X105283000Y-117529142D01*
X105319285Y-117601714D01*
X105355571Y-117638000D01*
X105428142Y-117674285D01*
X105573285Y-117674285D01*
X105645857Y-117710571D01*
X105682142Y-117746857D01*
X105718428Y-117819428D01*
X105718428Y-117964571D01*
X105682142Y-118037142D01*
X105645857Y-118073428D01*
X105573285Y-118109714D01*
X105428142Y-118109714D01*
X105355571Y-118073428D01*
X105319285Y-118037142D01*
X105283000Y-117964571D01*
X105283000Y-117819428D01*
X105319285Y-117746857D01*
X105355571Y-117710571D01*
X105428142Y-117674285D01*
X104629857Y-117601714D02*
X104629857Y-118109714D01*
X104811285Y-117311428D02*
X104992714Y-117855714D01*
X104521000Y-117855714D01*
X103867857Y-117347714D02*
X104230714Y-117347714D01*
X104267000Y-117710571D01*
X104230714Y-117674285D01*
X104158142Y-117638000D01*
X103976714Y-117638000D01*
X103904142Y-117674285D01*
X103867857Y-117710571D01*
X103831571Y-117783142D01*
X103831571Y-117964571D01*
X103867857Y-118037142D01*
X103904142Y-118073428D01*
X103976714Y-118109714D01*
X104158142Y-118109714D01*
X104230714Y-118073428D01*
X104267000Y-118037142D01*
%TO.C,C2*%
X71863857Y-120777000D02*
X71827571Y-120813285D01*
X71791285Y-120922142D01*
X71791285Y-120994714D01*
X71827571Y-121103571D01*
X71900142Y-121176142D01*
X71972714Y-121212428D01*
X72117857Y-121248714D01*
X72226714Y-121248714D01*
X72371857Y-121212428D01*
X72444428Y-121176142D01*
X72517000Y-121103571D01*
X72553285Y-120994714D01*
X72553285Y-120922142D01*
X72517000Y-120813285D01*
X72480714Y-120777000D01*
X72480714Y-120486714D02*
X72517000Y-120450428D01*
X72553285Y-120377857D01*
X72553285Y-120196428D01*
X72517000Y-120123857D01*
X72480714Y-120087571D01*
X72408142Y-120051285D01*
X72335571Y-120051285D01*
X72226714Y-120087571D01*
X71791285Y-120523000D01*
X71791285Y-120051285D01*
X75111428Y-119089714D02*
X75546857Y-119089714D01*
X75329142Y-119089714D02*
X75329142Y-118327714D01*
X75401714Y-118436571D01*
X75474285Y-118509142D01*
X75546857Y-118545428D01*
X74639714Y-118327714D02*
X74567142Y-118327714D01*
X74494571Y-118364000D01*
X74458285Y-118400285D01*
X74422000Y-118472857D01*
X74385714Y-118618000D01*
X74385714Y-118799428D01*
X74422000Y-118944571D01*
X74458285Y-119017142D01*
X74494571Y-119053428D01*
X74567142Y-119089714D01*
X74639714Y-119089714D01*
X74712285Y-119053428D01*
X74748571Y-119017142D01*
X74784857Y-118944571D01*
X74821142Y-118799428D01*
X74821142Y-118618000D01*
X74784857Y-118472857D01*
X74748571Y-118400285D01*
X74712285Y-118364000D01*
X74639714Y-118327714D01*
X73732571Y-118581714D02*
X73732571Y-119089714D01*
X74059142Y-118581714D02*
X74059142Y-118980857D01*
X74022857Y-119053428D01*
X73950285Y-119089714D01*
X73841428Y-119089714D01*
X73768857Y-119053428D01*
X73732571Y-119017142D01*
X73115714Y-118690571D02*
X73369714Y-118690571D01*
X73369714Y-119089714D02*
X73369714Y-118327714D01*
X73006857Y-118327714D01*
%TO.C,C3*%
X80536142Y-120523000D02*
X80572428Y-120486714D01*
X80608714Y-120377857D01*
X80608714Y-120305285D01*
X80572428Y-120196428D01*
X80499857Y-120123857D01*
X80427285Y-120087571D01*
X80282142Y-120051285D01*
X80173285Y-120051285D01*
X80028142Y-120087571D01*
X79955571Y-120123857D01*
X79883000Y-120196428D01*
X79846714Y-120305285D01*
X79846714Y-120377857D01*
X79883000Y-120486714D01*
X79919285Y-120523000D01*
X79846714Y-120777000D02*
X79846714Y-121248714D01*
X80137000Y-120994714D01*
X80137000Y-121103571D01*
X80173285Y-121176142D01*
X80209571Y-121212428D01*
X80282142Y-121248714D01*
X80463571Y-121248714D01*
X80536142Y-121212428D01*
X80572428Y-121176142D01*
X80608714Y-121103571D01*
X80608714Y-120885857D01*
X80572428Y-120813285D01*
X80536142Y-120777000D01*
X78921428Y-119089714D02*
X79356857Y-119089714D01*
X79139142Y-119089714D02*
X79139142Y-118327714D01*
X79211714Y-118436571D01*
X79284285Y-118509142D01*
X79356857Y-118545428D01*
X78449714Y-118327714D02*
X78377142Y-118327714D01*
X78304571Y-118364000D01*
X78268285Y-118400285D01*
X78232000Y-118472857D01*
X78195714Y-118618000D01*
X78195714Y-118799428D01*
X78232000Y-118944571D01*
X78268285Y-119017142D01*
X78304571Y-119053428D01*
X78377142Y-119089714D01*
X78449714Y-119089714D01*
X78522285Y-119053428D01*
X78558571Y-119017142D01*
X78594857Y-118944571D01*
X78631142Y-118799428D01*
X78631142Y-118618000D01*
X78594857Y-118472857D01*
X78558571Y-118400285D01*
X78522285Y-118364000D01*
X78449714Y-118327714D01*
X77542571Y-118581714D02*
X77542571Y-119089714D01*
X77869142Y-118581714D02*
X77869142Y-118980857D01*
X77832857Y-119053428D01*
X77760285Y-119089714D01*
X77651428Y-119089714D01*
X77578857Y-119053428D01*
X77542571Y-119017142D01*
X76925714Y-118690571D02*
X77179714Y-118690571D01*
X77179714Y-119089714D02*
X77179714Y-118327714D01*
X76816857Y-118327714D01*
%TO.C,C7*%
X155048857Y-96012000D02*
X155012571Y-96048285D01*
X154976285Y-96157142D01*
X154976285Y-96229714D01*
X155012571Y-96338571D01*
X155085142Y-96411142D01*
X155157714Y-96447428D01*
X155302857Y-96483714D01*
X155411714Y-96483714D01*
X155556857Y-96447428D01*
X155629428Y-96411142D01*
X155702000Y-96338571D01*
X155738285Y-96229714D01*
X155738285Y-96157142D01*
X155702000Y-96048285D01*
X155665714Y-96012000D01*
X155738285Y-95758000D02*
X155738285Y-95250000D01*
X154976285Y-95576571D01*
X159385285Y-96701428D02*
X159385285Y-97136857D01*
X159385285Y-96919142D02*
X160147285Y-96919142D01*
X160038428Y-96991714D01*
X159965857Y-97064285D01*
X159929571Y-97136857D01*
X160147285Y-96229714D02*
X160147285Y-96157142D01*
X160111000Y-96084571D01*
X160074714Y-96048285D01*
X160002142Y-96012000D01*
X159857000Y-95975714D01*
X159675571Y-95975714D01*
X159530428Y-96012000D01*
X159457857Y-96048285D01*
X159421571Y-96084571D01*
X159385285Y-96157142D01*
X159385285Y-96229714D01*
X159421571Y-96302285D01*
X159457857Y-96338571D01*
X159530428Y-96374857D01*
X159675571Y-96411142D01*
X159857000Y-96411142D01*
X160002142Y-96374857D01*
X160074714Y-96338571D01*
X160111000Y-96302285D01*
X160147285Y-96229714D01*
X159893285Y-95322571D02*
X159385285Y-95322571D01*
X159893285Y-95649142D02*
X159494142Y-95649142D01*
X159421571Y-95612857D01*
X159385285Y-95540285D01*
X159385285Y-95431428D01*
X159421571Y-95358857D01*
X159457857Y-95322571D01*
X159784428Y-94705714D02*
X159784428Y-94959714D01*
X159385285Y-94959714D02*
X160147285Y-94959714D01*
X160147285Y-94596857D01*
%TO.C,C13*%
X122028857Y-96374857D02*
X121992571Y-96411142D01*
X121956285Y-96520000D01*
X121956285Y-96592571D01*
X121992571Y-96701428D01*
X122065142Y-96774000D01*
X122137714Y-96810285D01*
X122282857Y-96846571D01*
X122391714Y-96846571D01*
X122536857Y-96810285D01*
X122609428Y-96774000D01*
X122682000Y-96701428D01*
X122718285Y-96592571D01*
X122718285Y-96520000D01*
X122682000Y-96411142D01*
X122645714Y-96374857D01*
X121956285Y-95649142D02*
X121956285Y-96084571D01*
X121956285Y-95866857D02*
X122718285Y-95866857D01*
X122609428Y-95939428D01*
X122536857Y-96012000D01*
X122500571Y-96084571D01*
X122718285Y-95395142D02*
X122718285Y-94923428D01*
X122428000Y-95177428D01*
X122428000Y-95068571D01*
X122391714Y-94996000D01*
X122355428Y-94959714D01*
X122282857Y-94923428D01*
X122101428Y-94923428D01*
X122028857Y-94959714D01*
X121992571Y-94996000D01*
X121956285Y-95068571D01*
X121956285Y-95286285D01*
X121992571Y-95358857D01*
X122028857Y-95395142D01*
X126365285Y-96701428D02*
X126365285Y-97136857D01*
X126365285Y-96919142D02*
X127127285Y-96919142D01*
X127018428Y-96991714D01*
X126945857Y-97064285D01*
X126909571Y-97136857D01*
X127127285Y-96229714D02*
X127127285Y-96157142D01*
X127091000Y-96084571D01*
X127054714Y-96048285D01*
X126982142Y-96012000D01*
X126837000Y-95975714D01*
X126655571Y-95975714D01*
X126510428Y-96012000D01*
X126437857Y-96048285D01*
X126401571Y-96084571D01*
X126365285Y-96157142D01*
X126365285Y-96229714D01*
X126401571Y-96302285D01*
X126437857Y-96338571D01*
X126510428Y-96374857D01*
X126655571Y-96411142D01*
X126837000Y-96411142D01*
X126982142Y-96374857D01*
X127054714Y-96338571D01*
X127091000Y-96302285D01*
X127127285Y-96229714D01*
X126873285Y-95322571D02*
X126365285Y-95322571D01*
X126873285Y-95649142D02*
X126474142Y-95649142D01*
X126401571Y-95612857D01*
X126365285Y-95540285D01*
X126365285Y-95431428D01*
X126401571Y-95358857D01*
X126437857Y-95322571D01*
X126764428Y-94705714D02*
X126764428Y-94959714D01*
X126365285Y-94959714D02*
X127127285Y-94959714D01*
X127127285Y-94596857D01*
%TO.C,C19*%
X89008857Y-96374857D02*
X88972571Y-96411142D01*
X88936285Y-96520000D01*
X88936285Y-96592571D01*
X88972571Y-96701428D01*
X89045142Y-96774000D01*
X89117714Y-96810285D01*
X89262857Y-96846571D01*
X89371714Y-96846571D01*
X89516857Y-96810285D01*
X89589428Y-96774000D01*
X89662000Y-96701428D01*
X89698285Y-96592571D01*
X89698285Y-96520000D01*
X89662000Y-96411142D01*
X89625714Y-96374857D01*
X88936285Y-95649142D02*
X88936285Y-96084571D01*
X88936285Y-95866857D02*
X89698285Y-95866857D01*
X89589428Y-95939428D01*
X89516857Y-96012000D01*
X89480571Y-96084571D01*
X88936285Y-95286285D02*
X88936285Y-95141142D01*
X88972571Y-95068571D01*
X89008857Y-95032285D01*
X89117714Y-94959714D01*
X89262857Y-94923428D01*
X89553142Y-94923428D01*
X89625714Y-94959714D01*
X89662000Y-94996000D01*
X89698285Y-95068571D01*
X89698285Y-95213714D01*
X89662000Y-95286285D01*
X89625714Y-95322571D01*
X89553142Y-95358857D01*
X89371714Y-95358857D01*
X89299142Y-95322571D01*
X89262857Y-95286285D01*
X89226571Y-95213714D01*
X89226571Y-95068571D01*
X89262857Y-94996000D01*
X89299142Y-94959714D01*
X89371714Y-94923428D01*
X93345285Y-96701428D02*
X93345285Y-97136857D01*
X93345285Y-96919142D02*
X94107285Y-96919142D01*
X93998428Y-96991714D01*
X93925857Y-97064285D01*
X93889571Y-97136857D01*
X94107285Y-96229714D02*
X94107285Y-96157142D01*
X94071000Y-96084571D01*
X94034714Y-96048285D01*
X93962142Y-96012000D01*
X93817000Y-95975714D01*
X93635571Y-95975714D01*
X93490428Y-96012000D01*
X93417857Y-96048285D01*
X93381571Y-96084571D01*
X93345285Y-96157142D01*
X93345285Y-96229714D01*
X93381571Y-96302285D01*
X93417857Y-96338571D01*
X93490428Y-96374857D01*
X93635571Y-96411142D01*
X93817000Y-96411142D01*
X93962142Y-96374857D01*
X94034714Y-96338571D01*
X94071000Y-96302285D01*
X94107285Y-96229714D01*
X93853285Y-95322571D02*
X93345285Y-95322571D01*
X93853285Y-95649142D02*
X93454142Y-95649142D01*
X93381571Y-95612857D01*
X93345285Y-95540285D01*
X93345285Y-95431428D01*
X93381571Y-95358857D01*
X93417857Y-95322571D01*
X93744428Y-94705714D02*
X93744428Y-94959714D01*
X93345285Y-94959714D02*
X94107285Y-94959714D01*
X94107285Y-94596857D01*
%TO.C,R2*%
X162596285Y-96012000D02*
X162959142Y-96266000D01*
X162596285Y-96447428D02*
X163358285Y-96447428D01*
X163358285Y-96157142D01*
X163322000Y-96084571D01*
X163285714Y-96048285D01*
X163213142Y-96012000D01*
X163104285Y-96012000D01*
X163031714Y-96048285D01*
X162995428Y-96084571D01*
X162959142Y-96157142D01*
X162959142Y-96447428D01*
X163285714Y-95721714D02*
X163322000Y-95685428D01*
X163358285Y-95612857D01*
X163358285Y-95431428D01*
X163322000Y-95358857D01*
X163285714Y-95322571D01*
X163213142Y-95286285D01*
X163140571Y-95286285D01*
X163031714Y-95322571D01*
X162596285Y-95758000D01*
X162596285Y-95286285D01*
X167005285Y-96882857D02*
X167005285Y-97318285D01*
X167005285Y-97100571D02*
X167767285Y-97100571D01*
X167658428Y-97173142D01*
X167585857Y-97245714D01*
X167549571Y-97318285D01*
X167767285Y-96411142D02*
X167767285Y-96338571D01*
X167731000Y-96266000D01*
X167694714Y-96229714D01*
X167622142Y-96193428D01*
X167477000Y-96157142D01*
X167295571Y-96157142D01*
X167150428Y-96193428D01*
X167077857Y-96229714D01*
X167041571Y-96266000D01*
X167005285Y-96338571D01*
X167005285Y-96411142D01*
X167041571Y-96483714D01*
X167077857Y-96520000D01*
X167150428Y-96556285D01*
X167295571Y-96592571D01*
X167477000Y-96592571D01*
X167622142Y-96556285D01*
X167694714Y-96520000D01*
X167731000Y-96483714D01*
X167767285Y-96411142D01*
X167077857Y-95830571D02*
X167041571Y-95794285D01*
X167005285Y-95830571D01*
X167041571Y-95866857D01*
X167077857Y-95830571D01*
X167005285Y-95830571D01*
X167767285Y-95322571D02*
X167767285Y-95250000D01*
X167731000Y-95177428D01*
X167694714Y-95141142D01*
X167622142Y-95104857D01*
X167477000Y-95068571D01*
X167295571Y-95068571D01*
X167150428Y-95104857D01*
X167077857Y-95141142D01*
X167041571Y-95177428D01*
X167005285Y-95250000D01*
X167005285Y-95322571D01*
X167041571Y-95395142D01*
X167077857Y-95431428D01*
X167150428Y-95467714D01*
X167295571Y-95504000D01*
X167477000Y-95504000D01*
X167622142Y-95467714D01*
X167694714Y-95431428D01*
X167731000Y-95395142D01*
X167767285Y-95322571D01*
X167005285Y-94742000D02*
X167767285Y-94742000D01*
X167295571Y-94669428D02*
X167005285Y-94451714D01*
X167513285Y-94451714D02*
X167223000Y-94742000D01*
%TO.C,R7*%
X129576285Y-96012000D02*
X129939142Y-96266000D01*
X129576285Y-96447428D02*
X130338285Y-96447428D01*
X130338285Y-96157142D01*
X130302000Y-96084571D01*
X130265714Y-96048285D01*
X130193142Y-96012000D01*
X130084285Y-96012000D01*
X130011714Y-96048285D01*
X129975428Y-96084571D01*
X129939142Y-96157142D01*
X129939142Y-96447428D01*
X130338285Y-95758000D02*
X130338285Y-95250000D01*
X129576285Y-95576571D01*
X133985285Y-96882857D02*
X133985285Y-97318285D01*
X133985285Y-97100571D02*
X134747285Y-97100571D01*
X134638428Y-97173142D01*
X134565857Y-97245714D01*
X134529571Y-97318285D01*
X134747285Y-96411142D02*
X134747285Y-96338571D01*
X134711000Y-96266000D01*
X134674714Y-96229714D01*
X134602142Y-96193428D01*
X134457000Y-96157142D01*
X134275571Y-96157142D01*
X134130428Y-96193428D01*
X134057857Y-96229714D01*
X134021571Y-96266000D01*
X133985285Y-96338571D01*
X133985285Y-96411142D01*
X134021571Y-96483714D01*
X134057857Y-96520000D01*
X134130428Y-96556285D01*
X134275571Y-96592571D01*
X134457000Y-96592571D01*
X134602142Y-96556285D01*
X134674714Y-96520000D01*
X134711000Y-96483714D01*
X134747285Y-96411142D01*
X134057857Y-95830571D02*
X134021571Y-95794285D01*
X133985285Y-95830571D01*
X134021571Y-95866857D01*
X134057857Y-95830571D01*
X133985285Y-95830571D01*
X134747285Y-95322571D02*
X134747285Y-95250000D01*
X134711000Y-95177428D01*
X134674714Y-95141142D01*
X134602142Y-95104857D01*
X134457000Y-95068571D01*
X134275571Y-95068571D01*
X134130428Y-95104857D01*
X134057857Y-95141142D01*
X134021571Y-95177428D01*
X133985285Y-95250000D01*
X133985285Y-95322571D01*
X134021571Y-95395142D01*
X134057857Y-95431428D01*
X134130428Y-95467714D01*
X134275571Y-95504000D01*
X134457000Y-95504000D01*
X134602142Y-95467714D01*
X134674714Y-95431428D01*
X134711000Y-95395142D01*
X134747285Y-95322571D01*
X133985285Y-94742000D02*
X134747285Y-94742000D01*
X134275571Y-94669428D02*
X133985285Y-94451714D01*
X134493285Y-94451714D02*
X134203000Y-94742000D01*
%TO.C,R12*%
X96556285Y-96374857D02*
X96919142Y-96628857D01*
X96556285Y-96810285D02*
X97318285Y-96810285D01*
X97318285Y-96520000D01*
X97282000Y-96447428D01*
X97245714Y-96411142D01*
X97173142Y-96374857D01*
X97064285Y-96374857D01*
X96991714Y-96411142D01*
X96955428Y-96447428D01*
X96919142Y-96520000D01*
X96919142Y-96810285D01*
X96556285Y-95649142D02*
X96556285Y-96084571D01*
X96556285Y-95866857D02*
X97318285Y-95866857D01*
X97209428Y-95939428D01*
X97136857Y-96012000D01*
X97100571Y-96084571D01*
X97245714Y-95358857D02*
X97282000Y-95322571D01*
X97318285Y-95250000D01*
X97318285Y-95068571D01*
X97282000Y-94996000D01*
X97245714Y-94959714D01*
X97173142Y-94923428D01*
X97100571Y-94923428D01*
X96991714Y-94959714D01*
X96556285Y-95395142D01*
X96556285Y-94923428D01*
X100965285Y-96882857D02*
X100965285Y-97318285D01*
X100965285Y-97100571D02*
X101727285Y-97100571D01*
X101618428Y-97173142D01*
X101545857Y-97245714D01*
X101509571Y-97318285D01*
X101727285Y-96411142D02*
X101727285Y-96338571D01*
X101691000Y-96266000D01*
X101654714Y-96229714D01*
X101582142Y-96193428D01*
X101437000Y-96157142D01*
X101255571Y-96157142D01*
X101110428Y-96193428D01*
X101037857Y-96229714D01*
X101001571Y-96266000D01*
X100965285Y-96338571D01*
X100965285Y-96411142D01*
X101001571Y-96483714D01*
X101037857Y-96520000D01*
X101110428Y-96556285D01*
X101255571Y-96592571D01*
X101437000Y-96592571D01*
X101582142Y-96556285D01*
X101654714Y-96520000D01*
X101691000Y-96483714D01*
X101727285Y-96411142D01*
X101037857Y-95830571D02*
X101001571Y-95794285D01*
X100965285Y-95830571D01*
X101001571Y-95866857D01*
X101037857Y-95830571D01*
X100965285Y-95830571D01*
X101727285Y-95322571D02*
X101727285Y-95250000D01*
X101691000Y-95177428D01*
X101654714Y-95141142D01*
X101582142Y-95104857D01*
X101437000Y-95068571D01*
X101255571Y-95068571D01*
X101110428Y-95104857D01*
X101037857Y-95141142D01*
X101001571Y-95177428D01*
X100965285Y-95250000D01*
X100965285Y-95322571D01*
X101001571Y-95395142D01*
X101037857Y-95431428D01*
X101110428Y-95467714D01*
X101255571Y-95504000D01*
X101437000Y-95504000D01*
X101582142Y-95467714D01*
X101654714Y-95431428D01*
X101691000Y-95395142D01*
X101727285Y-95322571D01*
X100965285Y-94742000D02*
X101727285Y-94742000D01*
X101255571Y-94669428D02*
X100965285Y-94451714D01*
X101473285Y-94451714D02*
X101183000Y-94742000D01*
%TO.C,R1*%
X119507000Y-102325714D02*
X119761000Y-101962857D01*
X119942428Y-102325714D02*
X119942428Y-101563714D01*
X119652142Y-101563714D01*
X119579571Y-101600000D01*
X119543285Y-101636285D01*
X119507000Y-101708857D01*
X119507000Y-101817714D01*
X119543285Y-101890285D01*
X119579571Y-101926571D01*
X119652142Y-101962857D01*
X119942428Y-101962857D01*
X118781285Y-102325714D02*
X119216714Y-102325714D01*
X118999000Y-102325714D02*
X118999000Y-101563714D01*
X119071571Y-101672571D01*
X119144142Y-101745142D01*
X119216714Y-101781428D01*
X118200714Y-103269142D02*
X118200714Y-102833714D01*
X118200714Y-103051428D02*
X117438714Y-103051428D01*
X117547571Y-102978857D01*
X117620142Y-102906285D01*
X117656428Y-102833714D01*
X117438714Y-103740857D02*
X117438714Y-103813428D01*
X117475000Y-103886000D01*
X117511285Y-103922285D01*
X117583857Y-103958571D01*
X117729000Y-103994857D01*
X117910428Y-103994857D01*
X118055571Y-103958571D01*
X118128142Y-103922285D01*
X118164428Y-103886000D01*
X118200714Y-103813428D01*
X118200714Y-103740857D01*
X118164428Y-103668285D01*
X118128142Y-103632000D01*
X118055571Y-103595714D01*
X117910428Y-103559428D01*
X117729000Y-103559428D01*
X117583857Y-103595714D01*
X117511285Y-103632000D01*
X117475000Y-103668285D01*
X117438714Y-103740857D01*
X118128142Y-104321428D02*
X118164428Y-104357714D01*
X118200714Y-104321428D01*
X118164428Y-104285142D01*
X118128142Y-104321428D01*
X118200714Y-104321428D01*
X117438714Y-104829428D02*
X117438714Y-104902000D01*
X117475000Y-104974571D01*
X117511285Y-105010857D01*
X117583857Y-105047142D01*
X117729000Y-105083428D01*
X117910428Y-105083428D01*
X118055571Y-105047142D01*
X118128142Y-105010857D01*
X118164428Y-104974571D01*
X118200714Y-104902000D01*
X118200714Y-104829428D01*
X118164428Y-104756857D01*
X118128142Y-104720571D01*
X118055571Y-104684285D01*
X117910428Y-104648000D01*
X117729000Y-104648000D01*
X117583857Y-104684285D01*
X117511285Y-104720571D01*
X117475000Y-104756857D01*
X117438714Y-104829428D01*
X118200714Y-105410000D02*
X117438714Y-105410000D01*
X117910428Y-105482571D02*
X118200714Y-105700285D01*
X117692714Y-105700285D02*
X117983000Y-105410000D01*
%TO.C,U5*%
D11*
X156439809Y-122167952D02*
X156851047Y-122167952D01*
X156899428Y-122192142D01*
X156923619Y-122216333D01*
X156947809Y-122264714D01*
X156947809Y-122361476D01*
X156923619Y-122409857D01*
X156899428Y-122434047D01*
X156851047Y-122458238D01*
X156439809Y-122458238D01*
X156439809Y-122942047D02*
X156439809Y-122700142D01*
X156681714Y-122675952D01*
X156657523Y-122700142D01*
X156633333Y-122748523D01*
X156633333Y-122869476D01*
X156657523Y-122917857D01*
X156681714Y-122942047D01*
X156730095Y-122966238D01*
X156851047Y-122966238D01*
X156899428Y-122942047D01*
X156923619Y-122917857D01*
X156947809Y-122869476D01*
X156947809Y-122748523D01*
X156923619Y-122700142D01*
X156899428Y-122675952D01*
%TO.C,U8*%
X123419809Y-122167952D02*
X123831047Y-122167952D01*
X123879428Y-122192142D01*
X123903619Y-122216333D01*
X123927809Y-122264714D01*
X123927809Y-122361476D01*
X123903619Y-122409857D01*
X123879428Y-122434047D01*
X123831047Y-122458238D01*
X123419809Y-122458238D01*
X123637523Y-122772714D02*
X123613333Y-122724333D01*
X123589142Y-122700142D01*
X123540761Y-122675952D01*
X123516571Y-122675952D01*
X123468190Y-122700142D01*
X123444000Y-122724333D01*
X123419809Y-122772714D01*
X123419809Y-122869476D01*
X123444000Y-122917857D01*
X123468190Y-122942047D01*
X123516571Y-122966238D01*
X123540761Y-122966238D01*
X123589142Y-122942047D01*
X123613333Y-122917857D01*
X123637523Y-122869476D01*
X123637523Y-122772714D01*
X123661714Y-122724333D01*
X123685904Y-122700142D01*
X123734285Y-122675952D01*
X123831047Y-122675952D01*
X123879428Y-122700142D01*
X123903619Y-122724333D01*
X123927809Y-122772714D01*
X123927809Y-122869476D01*
X123903619Y-122917857D01*
X123879428Y-122942047D01*
X123831047Y-122966238D01*
X123734285Y-122966238D01*
X123685904Y-122942047D01*
X123661714Y-122917857D01*
X123637523Y-122869476D01*
%TO.C,U11*%
X90399809Y-121926047D02*
X90811047Y-121926047D01*
X90859428Y-121950238D01*
X90883619Y-121974428D01*
X90907809Y-122022809D01*
X90907809Y-122119571D01*
X90883619Y-122167952D01*
X90859428Y-122192142D01*
X90811047Y-122216333D01*
X90399809Y-122216333D01*
X90907809Y-122724333D02*
X90907809Y-122434047D01*
X90907809Y-122579190D02*
X90399809Y-122579190D01*
X90472380Y-122530809D01*
X90520761Y-122482428D01*
X90544952Y-122434047D01*
X90907809Y-123208142D02*
X90907809Y-122917857D01*
X90907809Y-123063000D02*
X90399809Y-123063000D01*
X90472380Y-123014619D01*
X90520761Y-122966238D01*
X90544952Y-122917857D01*
%TO.C,D1*%
D16*
X73774904Y-83489619D02*
X73774904Y-82473619D01*
X73533000Y-82473619D01*
X73387857Y-82522000D01*
X73291095Y-82618761D01*
X73242714Y-82715523D01*
X73194333Y-82909047D01*
X73194333Y-83054190D01*
X73242714Y-83247714D01*
X73291095Y-83344476D01*
X73387857Y-83441238D01*
X73533000Y-83489619D01*
X73774904Y-83489619D01*
X72226714Y-83489619D02*
X72807285Y-83489619D01*
X72517000Y-83489619D02*
X72517000Y-82473619D01*
X72613761Y-82618761D01*
X72710523Y-82715523D01*
X72807285Y-82763904D01*
%TO.C,U1*%
X114439095Y-115973619D02*
X114439095Y-116796095D01*
X114390714Y-116892857D01*
X114342333Y-116941238D01*
X114245571Y-116989619D01*
X114052047Y-116989619D01*
X113955285Y-116941238D01*
X113906904Y-116892857D01*
X113858523Y-116796095D01*
X113858523Y-115973619D01*
X112842523Y-116989619D02*
X113423095Y-116989619D01*
X113132809Y-116989619D02*
X113132809Y-115973619D01*
X113229571Y-116118761D01*
X113326333Y-116215523D01*
X113423095Y-116263904D01*
%TO.C,CLK1*%
X124882857Y-111941428D02*
X124931238Y-111893047D01*
X124979619Y-111747904D01*
X124979619Y-111651142D01*
X124931238Y-111506000D01*
X124834476Y-111409238D01*
X124737714Y-111360857D01*
X124544190Y-111312476D01*
X124399047Y-111312476D01*
X124205523Y-111360857D01*
X124108761Y-111409238D01*
X124012000Y-111506000D01*
X123963619Y-111651142D01*
X123963619Y-111747904D01*
X124012000Y-111893047D01*
X124060380Y-111941428D01*
X124979619Y-112860666D02*
X124979619Y-112376857D01*
X123963619Y-112376857D01*
X124979619Y-113199333D02*
X123963619Y-113199333D01*
X124979619Y-113779904D02*
X124399047Y-113344476D01*
X123963619Y-113779904D02*
X124544190Y-113199333D01*
X124979619Y-114747523D02*
X124979619Y-114166952D01*
X124979619Y-114457238D02*
X123963619Y-114457238D01*
X124108761Y-114360476D01*
X124205523Y-114263714D01*
X124253904Y-114166952D01*
D17*
X128448571Y-111637142D02*
X128472380Y-111613333D01*
X128496190Y-111541904D01*
X128496190Y-111494285D01*
X128472380Y-111422857D01*
X128424761Y-111375238D01*
X128377142Y-111351428D01*
X128281904Y-111327619D01*
X128210476Y-111327619D01*
X128115238Y-111351428D01*
X128067619Y-111375238D01*
X128020000Y-111422857D01*
X127996190Y-111494285D01*
X127996190Y-111541904D01*
X128020000Y-111613333D01*
X128043809Y-111637142D01*
X127996190Y-111780000D02*
X127996190Y-112065714D01*
X128496190Y-111922857D02*
X127996190Y-111922857D01*
X128472380Y-112208571D02*
X128496190Y-112280000D01*
X128496190Y-112399047D01*
X128472380Y-112446666D01*
X128448571Y-112470476D01*
X128400952Y-112494285D01*
X128353333Y-112494285D01*
X128305714Y-112470476D01*
X128281904Y-112446666D01*
X128258095Y-112399047D01*
X128234285Y-112303809D01*
X128210476Y-112256190D01*
X128186666Y-112232380D01*
X128139047Y-112208571D01*
X128091428Y-112208571D01*
X128043809Y-112232380D01*
X128020000Y-112256190D01*
X127996190Y-112303809D01*
X127996190Y-112422857D01*
X128020000Y-112494285D01*
X127996190Y-112780000D02*
X128115238Y-112780000D01*
X128067619Y-112660952D02*
X128115238Y-112780000D01*
X128067619Y-112899047D01*
X128210476Y-112708571D02*
X128115238Y-112780000D01*
X128210476Y-112851428D01*
X127996190Y-113160952D02*
X128115238Y-113160952D01*
X128067619Y-113041904D02*
X128115238Y-113160952D01*
X128067619Y-113280000D01*
X128210476Y-113089523D02*
X128115238Y-113160952D01*
X128210476Y-113232380D01*
X128448571Y-113756190D02*
X128472380Y-113732380D01*
X128496190Y-113660952D01*
X128496190Y-113613333D01*
X128472380Y-113541904D01*
X128424761Y-113494285D01*
X128377142Y-113470476D01*
X128281904Y-113446666D01*
X128210476Y-113446666D01*
X128115238Y-113470476D01*
X128067619Y-113494285D01*
X128020000Y-113541904D01*
X127996190Y-113613333D01*
X127996190Y-113660952D01*
X128020000Y-113732380D01*
X128043809Y-113756190D01*
X128234285Y-114137142D02*
X128258095Y-114208571D01*
X128281904Y-114232380D01*
X128329523Y-114256190D01*
X128400952Y-114256190D01*
X128448571Y-114232380D01*
X128472380Y-114208571D01*
X128496190Y-114160952D01*
X128496190Y-113970476D01*
X127996190Y-113970476D01*
X127996190Y-114137142D01*
X128020000Y-114184761D01*
X128043809Y-114208571D01*
X128091428Y-114232380D01*
X128139047Y-114232380D01*
X128186666Y-114208571D01*
X128210476Y-114184761D01*
X128234285Y-114137142D01*
X128234285Y-113970476D01*
X127996190Y-114422857D02*
X127996190Y-114732380D01*
X128186666Y-114565714D01*
X128186666Y-114637142D01*
X128210476Y-114684761D01*
X128234285Y-114708571D01*
X128281904Y-114732380D01*
X128400952Y-114732380D01*
X128448571Y-114708571D01*
X128472380Y-114684761D01*
X128496190Y-114637142D01*
X128496190Y-114494285D01*
X128472380Y-114446666D01*
X128448571Y-114422857D01*
%TO.C,U4*%
D11*
X165487047Y-101448809D02*
X165487047Y-101860047D01*
X165462857Y-101908428D01*
X165438666Y-101932619D01*
X165390285Y-101956809D01*
X165293523Y-101956809D01*
X165245142Y-101932619D01*
X165220952Y-101908428D01*
X165196761Y-101860047D01*
X165196761Y-101448809D01*
X164737142Y-101618142D02*
X164737142Y-101956809D01*
X164858095Y-101424619D02*
X164979047Y-101787476D01*
X164664571Y-101787476D01*
%TO.C,U7*%
X132467047Y-101448809D02*
X132467047Y-101860047D01*
X132442857Y-101908428D01*
X132418666Y-101932619D01*
X132370285Y-101956809D01*
X132273523Y-101956809D01*
X132225142Y-101932619D01*
X132200952Y-101908428D01*
X132176761Y-101860047D01*
X132176761Y-101448809D01*
X131983238Y-101448809D02*
X131644571Y-101448809D01*
X131862285Y-101956809D01*
%TO.C,U10*%
X99688952Y-101448809D02*
X99688952Y-101860047D01*
X99664761Y-101908428D01*
X99640571Y-101932619D01*
X99592190Y-101956809D01*
X99495428Y-101956809D01*
X99447047Y-101932619D01*
X99422857Y-101908428D01*
X99398666Y-101860047D01*
X99398666Y-101448809D01*
X98890666Y-101956809D02*
X99180952Y-101956809D01*
X99035809Y-101956809D02*
X99035809Y-101448809D01*
X99084190Y-101521380D01*
X99132571Y-101569761D01*
X99180952Y-101593952D01*
X98576190Y-101448809D02*
X98527809Y-101448809D01*
X98479428Y-101473000D01*
X98455238Y-101497190D01*
X98431047Y-101545571D01*
X98406857Y-101642333D01*
X98406857Y-101763285D01*
X98431047Y-101860047D01*
X98455238Y-101908428D01*
X98479428Y-101932619D01*
X98527809Y-101956809D01*
X98576190Y-101956809D01*
X98624571Y-101932619D01*
X98648761Y-101908428D01*
X98672952Y-101860047D01*
X98697142Y-101763285D01*
X98697142Y-101642333D01*
X98672952Y-101545571D01*
X98648761Y-101497190D01*
X98624571Y-101473000D01*
X98576190Y-101448809D01*
%TO.C,U2*%
X113259809Y-103752952D02*
X113671047Y-103752952D01*
X113719428Y-103777142D01*
X113743619Y-103801333D01*
X113767809Y-103849714D01*
X113767809Y-103946476D01*
X113743619Y-103994857D01*
X113719428Y-104019047D01*
X113671047Y-104043238D01*
X113259809Y-104043238D01*
X113308190Y-104260952D02*
X113284000Y-104285142D01*
X113259809Y-104333523D01*
X113259809Y-104454476D01*
X113284000Y-104502857D01*
X113308190Y-104527047D01*
X113356571Y-104551238D01*
X113404952Y-104551238D01*
X113477523Y-104527047D01*
X113767809Y-104236761D01*
X113767809Y-104551238D01*
%TO.C,U3*%
D16*
X80149095Y-106123619D02*
X80149095Y-106946095D01*
X80100714Y-107042857D01*
X80052333Y-107091238D01*
X79955571Y-107139619D01*
X79762047Y-107139619D01*
X79665285Y-107091238D01*
X79616904Y-107042857D01*
X79568523Y-106946095D01*
X79568523Y-106123619D01*
X79181476Y-106123619D02*
X78552523Y-106123619D01*
X78891190Y-106510666D01*
X78746047Y-106510666D01*
X78649285Y-106559047D01*
X78600904Y-106607428D01*
X78552523Y-106704190D01*
X78552523Y-106946095D01*
X78600904Y-107042857D01*
X78649285Y-107091238D01*
X78746047Y-107139619D01*
X79036333Y-107139619D01*
X79133095Y-107091238D01*
X79181476Y-107042857D01*
%TO.C,U6*%
X169156380Y-130314095D02*
X168333904Y-130314095D01*
X168237142Y-130265714D01*
X168188761Y-130217333D01*
X168140380Y-130120571D01*
X168140380Y-129927047D01*
X168188761Y-129830285D01*
X168237142Y-129781904D01*
X168333904Y-129733523D01*
X169156380Y-129733523D01*
X169156380Y-128814285D02*
X169156380Y-129007809D01*
X169108000Y-129104571D01*
X169059619Y-129152952D01*
X168914476Y-129249714D01*
X168720952Y-129298095D01*
X168333904Y-129298095D01*
X168237142Y-129249714D01*
X168188761Y-129201333D01*
X168140380Y-129104571D01*
X168140380Y-128911047D01*
X168188761Y-128814285D01*
X168237142Y-128765904D01*
X168333904Y-128717523D01*
X168575809Y-128717523D01*
X168672571Y-128765904D01*
X168720952Y-128814285D01*
X168769333Y-128911047D01*
X168769333Y-129104571D01*
X168720952Y-129201333D01*
X168672571Y-129249714D01*
X168575809Y-129298095D01*
%TO.C,U9*%
X135023619Y-128765904D02*
X135846095Y-128765904D01*
X135942857Y-128814285D01*
X135991238Y-128862666D01*
X136039619Y-128959428D01*
X136039619Y-129152952D01*
X135991238Y-129249714D01*
X135942857Y-129298095D01*
X135846095Y-129346476D01*
X135023619Y-129346476D01*
X136039619Y-129878666D02*
X136039619Y-130072190D01*
X135991238Y-130168952D01*
X135942857Y-130217333D01*
X135797714Y-130314095D01*
X135604190Y-130362476D01*
X135217142Y-130362476D01*
X135120380Y-130314095D01*
X135072000Y-130265714D01*
X135023619Y-130168952D01*
X135023619Y-129975428D01*
X135072000Y-129878666D01*
X135120380Y-129830285D01*
X135217142Y-129781904D01*
X135459047Y-129781904D01*
X135555809Y-129830285D01*
X135604190Y-129878666D01*
X135652571Y-129975428D01*
X135652571Y-130168952D01*
X135604190Y-130265714D01*
X135555809Y-130314095D01*
X135459047Y-130362476D01*
%TO.C,U12*%
X102003619Y-128282095D02*
X102826095Y-128282095D01*
X102922857Y-128330476D01*
X102971238Y-128378857D01*
X103019619Y-128475619D01*
X103019619Y-128669142D01*
X102971238Y-128765904D01*
X102922857Y-128814285D01*
X102826095Y-128862666D01*
X102003619Y-128862666D01*
X103019619Y-129878666D02*
X103019619Y-129298095D01*
X103019619Y-129588380D02*
X102003619Y-129588380D01*
X102148761Y-129491619D01*
X102245523Y-129394857D01*
X102293904Y-129298095D01*
X102100380Y-130265714D02*
X102052000Y-130314095D01*
X102003619Y-130410857D01*
X102003619Y-130652761D01*
X102052000Y-130749523D01*
X102100380Y-130797904D01*
X102197142Y-130846285D01*
X102293904Y-130846285D01*
X102439047Y-130797904D01*
X103019619Y-130217333D01*
X103019619Y-130846285D01*
%TD*%
%LPC*%
D18*
%TO.C,C1*%
X105410000Y-111988600D03*
X105410000Y-114071400D03*
%TD*%
%TO.C,C4*%
X133350000Y-114071400D03*
X133350000Y-111988600D03*
%TD*%
D19*
%TO.C,C5*%
X78333600Y-108585000D03*
X80416400Y-108585000D03*
%TD*%
D18*
%TO.C,C8*%
X161290000Y-132486400D03*
X161290000Y-130403600D03*
%TD*%
%TO.C,C9*%
X158115000Y-132486400D03*
X158115000Y-130403600D03*
%TD*%
%TO.C,C10*%
X154940000Y-132486400D03*
X154940000Y-130403600D03*
%TD*%
%TO.C,C11*%
X151765000Y-124866400D03*
X151765000Y-122783600D03*
%TD*%
%TO.C,C14*%
X128270000Y-132486400D03*
X128270000Y-130403600D03*
%TD*%
%TO.C,C15*%
X125095000Y-132486400D03*
X125095000Y-130403600D03*
%TD*%
%TO.C,C16*%
X121920000Y-132486400D03*
X121920000Y-130403600D03*
%TD*%
%TO.C,C17*%
X118745000Y-124866400D03*
X118745000Y-122783600D03*
%TD*%
%TO.C,C20*%
X95250000Y-132486400D03*
X95250000Y-130403600D03*
%TD*%
%TO.C,C21*%
X92075000Y-132486400D03*
X92075000Y-130403600D03*
%TD*%
%TO.C,C22*%
X88900000Y-132486400D03*
X88900000Y-130403600D03*
%TD*%
%TO.C,C23*%
X85725000Y-124866400D03*
X85725000Y-122783600D03*
%TD*%
D19*
%TO.C,R3*%
X160426400Y-127000000D03*
X158343600Y-127000000D03*
%TD*%
D18*
%TO.C,R4*%
X163195000Y-118973600D03*
X163195000Y-121056400D03*
%TD*%
D19*
%TO.C,R5*%
X169773600Y-127000000D03*
X171856400Y-127000000D03*
%TD*%
D18*
%TO.C,R6*%
X170815000Y-118973600D03*
X170815000Y-121056400D03*
%TD*%
D19*
%TO.C,R8*%
X127406400Y-127000000D03*
X125323600Y-127000000D03*
%TD*%
D18*
%TO.C,R9*%
X130175000Y-118973600D03*
X130175000Y-121056400D03*
%TD*%
D19*
%TO.C,R10*%
X136753600Y-127000000D03*
X138836400Y-127000000D03*
%TD*%
D18*
%TO.C,R11*%
X137795000Y-118973600D03*
X137795000Y-121056400D03*
%TD*%
D19*
%TO.C,R13*%
X94386400Y-127000000D03*
X92303600Y-127000000D03*
%TD*%
D18*
%TO.C,R14*%
X97155000Y-118973600D03*
X97155000Y-121056400D03*
%TD*%
D19*
%TO.C,R15*%
X103733600Y-127000000D03*
X105816400Y-127000000D03*
%TD*%
D18*
%TO.C,R16*%
X104775000Y-118973600D03*
X104775000Y-121056400D03*
%TD*%
D19*
%TO.C,C2*%
X75336400Y-120650000D03*
X73253600Y-120650000D03*
%TD*%
%TO.C,C3*%
X77063600Y-120650000D03*
X79146400Y-120650000D03*
%TD*%
%TO.C,C7*%
X158521400Y-95885000D03*
X156438600Y-95885000D03*
%TD*%
%TO.C,C13*%
X125501400Y-95885000D03*
X123418600Y-95885000D03*
%TD*%
%TO.C,C19*%
X92481400Y-95885000D03*
X90398600Y-95885000D03*
%TD*%
%TO.C,R2*%
X166141400Y-95885000D03*
X164058600Y-95885000D03*
%TD*%
%TO.C,R7*%
X133121400Y-95885000D03*
X131038600Y-95885000D03*
%TD*%
%TO.C,R12*%
X100101400Y-95885000D03*
X98018600Y-95885000D03*
%TD*%
D18*
%TO.C,R1*%
X119380000Y-105181400D03*
X119380000Y-103098600D03*
%TD*%
D20*
%TO.C,U5*%
X155889960Y-122626120D03*
X154940000Y-122626120D03*
X153990040Y-122626120D03*
X153990040Y-125023880D03*
X154940000Y-125023880D03*
X155889960Y-125023880D03*
%TD*%
%TO.C,U8*%
X122869960Y-122626120D03*
X121920000Y-122626120D03*
X120970040Y-122626120D03*
X120970040Y-125023880D03*
X121920000Y-125023880D03*
X122869960Y-125023880D03*
%TD*%
%TO.C,U11*%
X89849960Y-122626120D03*
X88900000Y-122626120D03*
X87950040Y-122626120D03*
X87950040Y-125023880D03*
X88900000Y-125023880D03*
X89849960Y-125023880D03*
%TD*%
D21*
%TO.C,SS1*%
X173990000Y-105410000D03*
X171450000Y-105410000D03*
X168910000Y-105410000D03*
X166370000Y-105410000D03*
X163830000Y-105410000D03*
X161290000Y-105410000D03*
X158750000Y-105410000D03*
X156210000Y-105410000D03*
X156210000Y-92710000D03*
X158750000Y-92710000D03*
X161290000Y-92710000D03*
X163830000Y-92710000D03*
X166370000Y-92710000D03*
X168910000Y-92710000D03*
X171450000Y-92710000D03*
X173990000Y-92710000D03*
%TD*%
%TO.C,SS2*%
X140970000Y-105410000D03*
X138430000Y-105410000D03*
X135890000Y-105410000D03*
X133350000Y-105410000D03*
X130810000Y-105410000D03*
X128270000Y-105410000D03*
X125730000Y-105410000D03*
X123190000Y-105410000D03*
X123190000Y-92710000D03*
X125730000Y-92710000D03*
X128270000Y-92710000D03*
X130810000Y-92710000D03*
X133350000Y-92710000D03*
X135890000Y-92710000D03*
X138430000Y-92710000D03*
X140970000Y-92710000D03*
%TD*%
%TO.C,SS3*%
X107950000Y-105410000D03*
X105410000Y-105410000D03*
X102870000Y-105410000D03*
X100330000Y-105410000D03*
X97790000Y-105410000D03*
X95250000Y-105410000D03*
X92710000Y-105410000D03*
X90170000Y-105410000D03*
X90170000Y-92710000D03*
X92710000Y-92710000D03*
X95250000Y-92710000D03*
X97790000Y-92710000D03*
X100330000Y-92710000D03*
X102870000Y-92710000D03*
X105410000Y-92710000D03*
X107950000Y-92710000D03*
%TD*%
D22*
%TO.C,D1*%
X74090000Y-90410000D03*
X71960000Y-90410000D03*
D23*
X73025000Y-86610000D03*
%TD*%
D24*
%TO.C,U1*%
G36*
X115058326Y-111331637D02*
G01*
X115091331Y-111336533D01*
X115123697Y-111344640D01*
X115155112Y-111355881D01*
X115185275Y-111370147D01*
X115213894Y-111387300D01*
X115240694Y-111407176D01*
X115265416Y-111429584D01*
X115287824Y-111454306D01*
X115307700Y-111481106D01*
X115324853Y-111509725D01*
X115339119Y-111539888D01*
X115350360Y-111571303D01*
X115358467Y-111603669D01*
X115363363Y-111636674D01*
X115365000Y-111670000D01*
X115365000Y-114390000D01*
X115363363Y-114423326D01*
X115358467Y-114456331D01*
X115350360Y-114488697D01*
X115339119Y-114520112D01*
X115324853Y-114550275D01*
X115307700Y-114578894D01*
X115287824Y-114605694D01*
X115265416Y-114630416D01*
X115240694Y-114652824D01*
X115213894Y-114672700D01*
X115185275Y-114689853D01*
X115155112Y-114704119D01*
X115123697Y-114715360D01*
X115091331Y-114723467D01*
X115058326Y-114728363D01*
X115025000Y-114730000D01*
X112305000Y-114730000D01*
X112271674Y-114728363D01*
X112238669Y-114723467D01*
X112206303Y-114715360D01*
X112174888Y-114704119D01*
X112144725Y-114689853D01*
X112116106Y-114672700D01*
X112089306Y-114652824D01*
X112064584Y-114630416D01*
X112042176Y-114605694D01*
X112022300Y-114578894D01*
X112005147Y-114550275D01*
X111990881Y-114520112D01*
X111979640Y-114488697D01*
X111971533Y-114456331D01*
X111966637Y-114423326D01*
X111965000Y-114390000D01*
X111965000Y-111670000D01*
X111966637Y-111636674D01*
X111971533Y-111603669D01*
X111979640Y-111571303D01*
X111990881Y-111539888D01*
X112005147Y-111509725D01*
X112022300Y-111481106D01*
X112042176Y-111454306D01*
X112064584Y-111429584D01*
X112089306Y-111407176D01*
X112116106Y-111387300D01*
X112144725Y-111370147D01*
X112174888Y-111355881D01*
X112206303Y-111344640D01*
X112238669Y-111336533D01*
X112271674Y-111331637D01*
X112305000Y-111330000D01*
X115025000Y-111330000D01*
X115058326Y-111331637D01*
X115058326Y-111331637D01*
G37*
D25*
X113665000Y-113030000D03*
D24*
G36*
X111929704Y-110280722D02*
G01*
X111944265Y-110282882D01*
X111958544Y-110286459D01*
X111972404Y-110291418D01*
X111985711Y-110297712D01*
X111998337Y-110305280D01*
X112010160Y-110314048D01*
X112021067Y-110323934D01*
X112030953Y-110334841D01*
X112039721Y-110346664D01*
X112047289Y-110359290D01*
X112053583Y-110372597D01*
X112058542Y-110386457D01*
X112062119Y-110400736D01*
X112064279Y-110415297D01*
X112065001Y-110430000D01*
X112065001Y-110830000D01*
X112064279Y-110844703D01*
X112062119Y-110859264D01*
X112058542Y-110873543D01*
X112053583Y-110887403D01*
X112047289Y-110900710D01*
X112039721Y-110913336D01*
X112030953Y-110925159D01*
X112021067Y-110936066D01*
X112010160Y-110945952D01*
X111998337Y-110954720D01*
X111985711Y-110962288D01*
X111972404Y-110968582D01*
X111958544Y-110973541D01*
X111944265Y-110977118D01*
X111929704Y-110979278D01*
X111915001Y-110980000D01*
X111914999Y-110980000D01*
X111900296Y-110979278D01*
X111885735Y-110977118D01*
X111871456Y-110973541D01*
X111857596Y-110968582D01*
X111844289Y-110962288D01*
X111831663Y-110954720D01*
X111819840Y-110945952D01*
X111808933Y-110936066D01*
X111799047Y-110925159D01*
X111790279Y-110913336D01*
X111782711Y-110900710D01*
X111776417Y-110887403D01*
X111771458Y-110873543D01*
X111767881Y-110859264D01*
X111765721Y-110844703D01*
X111764999Y-110830000D01*
X111764999Y-110430000D01*
X111765721Y-110415297D01*
X111767881Y-110400736D01*
X111771458Y-110386457D01*
X111776417Y-110372597D01*
X111782711Y-110359290D01*
X111790279Y-110346664D01*
X111799047Y-110334841D01*
X111808933Y-110323934D01*
X111819840Y-110314048D01*
X111831663Y-110305280D01*
X111844289Y-110297712D01*
X111857596Y-110291418D01*
X111871456Y-110286459D01*
X111885735Y-110282882D01*
X111900296Y-110280722D01*
X111914999Y-110280000D01*
X111915001Y-110280000D01*
X111929704Y-110280722D01*
X111929704Y-110280722D01*
G37*
D26*
X111915000Y-110630000D03*
D24*
G36*
X112429704Y-110280722D02*
G01*
X112444265Y-110282882D01*
X112458544Y-110286459D01*
X112472404Y-110291418D01*
X112485711Y-110297712D01*
X112498337Y-110305280D01*
X112510160Y-110314048D01*
X112521067Y-110323934D01*
X112530953Y-110334841D01*
X112539721Y-110346664D01*
X112547289Y-110359290D01*
X112553583Y-110372597D01*
X112558542Y-110386457D01*
X112562119Y-110400736D01*
X112564279Y-110415297D01*
X112565001Y-110430000D01*
X112565001Y-110830000D01*
X112564279Y-110844703D01*
X112562119Y-110859264D01*
X112558542Y-110873543D01*
X112553583Y-110887403D01*
X112547289Y-110900710D01*
X112539721Y-110913336D01*
X112530953Y-110925159D01*
X112521067Y-110936066D01*
X112510160Y-110945952D01*
X112498337Y-110954720D01*
X112485711Y-110962288D01*
X112472404Y-110968582D01*
X112458544Y-110973541D01*
X112444265Y-110977118D01*
X112429704Y-110979278D01*
X112415001Y-110980000D01*
X112414999Y-110980000D01*
X112400296Y-110979278D01*
X112385735Y-110977118D01*
X112371456Y-110973541D01*
X112357596Y-110968582D01*
X112344289Y-110962288D01*
X112331663Y-110954720D01*
X112319840Y-110945952D01*
X112308933Y-110936066D01*
X112299047Y-110925159D01*
X112290279Y-110913336D01*
X112282711Y-110900710D01*
X112276417Y-110887403D01*
X112271458Y-110873543D01*
X112267881Y-110859264D01*
X112265721Y-110844703D01*
X112264999Y-110830000D01*
X112264999Y-110430000D01*
X112265721Y-110415297D01*
X112267881Y-110400736D01*
X112271458Y-110386457D01*
X112276417Y-110372597D01*
X112282711Y-110359290D01*
X112290279Y-110346664D01*
X112299047Y-110334841D01*
X112308933Y-110323934D01*
X112319840Y-110314048D01*
X112331663Y-110305280D01*
X112344289Y-110297712D01*
X112357596Y-110291418D01*
X112371456Y-110286459D01*
X112385735Y-110282882D01*
X112400296Y-110280722D01*
X112414999Y-110280000D01*
X112415001Y-110280000D01*
X112429704Y-110280722D01*
X112429704Y-110280722D01*
G37*
D26*
X112415000Y-110630000D03*
D24*
G36*
X112929704Y-110280722D02*
G01*
X112944265Y-110282882D01*
X112958544Y-110286459D01*
X112972404Y-110291418D01*
X112985711Y-110297712D01*
X112998337Y-110305280D01*
X113010160Y-110314048D01*
X113021067Y-110323934D01*
X113030953Y-110334841D01*
X113039721Y-110346664D01*
X113047289Y-110359290D01*
X113053583Y-110372597D01*
X113058542Y-110386457D01*
X113062119Y-110400736D01*
X113064279Y-110415297D01*
X113065001Y-110430000D01*
X113065001Y-110830000D01*
X113064279Y-110844703D01*
X113062119Y-110859264D01*
X113058542Y-110873543D01*
X113053583Y-110887403D01*
X113047289Y-110900710D01*
X113039721Y-110913336D01*
X113030953Y-110925159D01*
X113021067Y-110936066D01*
X113010160Y-110945952D01*
X112998337Y-110954720D01*
X112985711Y-110962288D01*
X112972404Y-110968582D01*
X112958544Y-110973541D01*
X112944265Y-110977118D01*
X112929704Y-110979278D01*
X112915001Y-110980000D01*
X112914999Y-110980000D01*
X112900296Y-110979278D01*
X112885735Y-110977118D01*
X112871456Y-110973541D01*
X112857596Y-110968582D01*
X112844289Y-110962288D01*
X112831663Y-110954720D01*
X112819840Y-110945952D01*
X112808933Y-110936066D01*
X112799047Y-110925159D01*
X112790279Y-110913336D01*
X112782711Y-110900710D01*
X112776417Y-110887403D01*
X112771458Y-110873543D01*
X112767881Y-110859264D01*
X112765721Y-110844703D01*
X112764999Y-110830000D01*
X112764999Y-110430000D01*
X112765721Y-110415297D01*
X112767881Y-110400736D01*
X112771458Y-110386457D01*
X112776417Y-110372597D01*
X112782711Y-110359290D01*
X112790279Y-110346664D01*
X112799047Y-110334841D01*
X112808933Y-110323934D01*
X112819840Y-110314048D01*
X112831663Y-110305280D01*
X112844289Y-110297712D01*
X112857596Y-110291418D01*
X112871456Y-110286459D01*
X112885735Y-110282882D01*
X112900296Y-110280722D01*
X112914999Y-110280000D01*
X112915001Y-110280000D01*
X112929704Y-110280722D01*
X112929704Y-110280722D01*
G37*
D26*
X112915000Y-110630000D03*
D24*
G36*
X113429704Y-110280722D02*
G01*
X113444265Y-110282882D01*
X113458544Y-110286459D01*
X113472404Y-110291418D01*
X113485711Y-110297712D01*
X113498337Y-110305280D01*
X113510160Y-110314048D01*
X113521067Y-110323934D01*
X113530953Y-110334841D01*
X113539721Y-110346664D01*
X113547289Y-110359290D01*
X113553583Y-110372597D01*
X113558542Y-110386457D01*
X113562119Y-110400736D01*
X113564279Y-110415297D01*
X113565001Y-110430000D01*
X113565001Y-110830000D01*
X113564279Y-110844703D01*
X113562119Y-110859264D01*
X113558542Y-110873543D01*
X113553583Y-110887403D01*
X113547289Y-110900710D01*
X113539721Y-110913336D01*
X113530953Y-110925159D01*
X113521067Y-110936066D01*
X113510160Y-110945952D01*
X113498337Y-110954720D01*
X113485711Y-110962288D01*
X113472404Y-110968582D01*
X113458544Y-110973541D01*
X113444265Y-110977118D01*
X113429704Y-110979278D01*
X113415001Y-110980000D01*
X113414999Y-110980000D01*
X113400296Y-110979278D01*
X113385735Y-110977118D01*
X113371456Y-110973541D01*
X113357596Y-110968582D01*
X113344289Y-110962288D01*
X113331663Y-110954720D01*
X113319840Y-110945952D01*
X113308933Y-110936066D01*
X113299047Y-110925159D01*
X113290279Y-110913336D01*
X113282711Y-110900710D01*
X113276417Y-110887403D01*
X113271458Y-110873543D01*
X113267881Y-110859264D01*
X113265721Y-110844703D01*
X113264999Y-110830000D01*
X113264999Y-110430000D01*
X113265721Y-110415297D01*
X113267881Y-110400736D01*
X113271458Y-110386457D01*
X113276417Y-110372597D01*
X113282711Y-110359290D01*
X113290279Y-110346664D01*
X113299047Y-110334841D01*
X113308933Y-110323934D01*
X113319840Y-110314048D01*
X113331663Y-110305280D01*
X113344289Y-110297712D01*
X113357596Y-110291418D01*
X113371456Y-110286459D01*
X113385735Y-110282882D01*
X113400296Y-110280722D01*
X113414999Y-110280000D01*
X113415001Y-110280000D01*
X113429704Y-110280722D01*
X113429704Y-110280722D01*
G37*
D26*
X113415000Y-110630000D03*
D24*
G36*
X113929704Y-110280722D02*
G01*
X113944265Y-110282882D01*
X113958544Y-110286459D01*
X113972404Y-110291418D01*
X113985711Y-110297712D01*
X113998337Y-110305280D01*
X114010160Y-110314048D01*
X114021067Y-110323934D01*
X114030953Y-110334841D01*
X114039721Y-110346664D01*
X114047289Y-110359290D01*
X114053583Y-110372597D01*
X114058542Y-110386457D01*
X114062119Y-110400736D01*
X114064279Y-110415297D01*
X114065001Y-110430000D01*
X114065001Y-110830000D01*
X114064279Y-110844703D01*
X114062119Y-110859264D01*
X114058542Y-110873543D01*
X114053583Y-110887403D01*
X114047289Y-110900710D01*
X114039721Y-110913336D01*
X114030953Y-110925159D01*
X114021067Y-110936066D01*
X114010160Y-110945952D01*
X113998337Y-110954720D01*
X113985711Y-110962288D01*
X113972404Y-110968582D01*
X113958544Y-110973541D01*
X113944265Y-110977118D01*
X113929704Y-110979278D01*
X113915001Y-110980000D01*
X113914999Y-110980000D01*
X113900296Y-110979278D01*
X113885735Y-110977118D01*
X113871456Y-110973541D01*
X113857596Y-110968582D01*
X113844289Y-110962288D01*
X113831663Y-110954720D01*
X113819840Y-110945952D01*
X113808933Y-110936066D01*
X113799047Y-110925159D01*
X113790279Y-110913336D01*
X113782711Y-110900710D01*
X113776417Y-110887403D01*
X113771458Y-110873543D01*
X113767881Y-110859264D01*
X113765721Y-110844703D01*
X113764999Y-110830000D01*
X113764999Y-110430000D01*
X113765721Y-110415297D01*
X113767881Y-110400736D01*
X113771458Y-110386457D01*
X113776417Y-110372597D01*
X113782711Y-110359290D01*
X113790279Y-110346664D01*
X113799047Y-110334841D01*
X113808933Y-110323934D01*
X113819840Y-110314048D01*
X113831663Y-110305280D01*
X113844289Y-110297712D01*
X113857596Y-110291418D01*
X113871456Y-110286459D01*
X113885735Y-110282882D01*
X113900296Y-110280722D01*
X113914999Y-110280000D01*
X113915001Y-110280000D01*
X113929704Y-110280722D01*
X113929704Y-110280722D01*
G37*
D26*
X113915000Y-110630000D03*
D24*
G36*
X114429704Y-110280722D02*
G01*
X114444265Y-110282882D01*
X114458544Y-110286459D01*
X114472404Y-110291418D01*
X114485711Y-110297712D01*
X114498337Y-110305280D01*
X114510160Y-110314048D01*
X114521067Y-110323934D01*
X114530953Y-110334841D01*
X114539721Y-110346664D01*
X114547289Y-110359290D01*
X114553583Y-110372597D01*
X114558542Y-110386457D01*
X114562119Y-110400736D01*
X114564279Y-110415297D01*
X114565001Y-110430000D01*
X114565001Y-110830000D01*
X114564279Y-110844703D01*
X114562119Y-110859264D01*
X114558542Y-110873543D01*
X114553583Y-110887403D01*
X114547289Y-110900710D01*
X114539721Y-110913336D01*
X114530953Y-110925159D01*
X114521067Y-110936066D01*
X114510160Y-110945952D01*
X114498337Y-110954720D01*
X114485711Y-110962288D01*
X114472404Y-110968582D01*
X114458544Y-110973541D01*
X114444265Y-110977118D01*
X114429704Y-110979278D01*
X114415001Y-110980000D01*
X114414999Y-110980000D01*
X114400296Y-110979278D01*
X114385735Y-110977118D01*
X114371456Y-110973541D01*
X114357596Y-110968582D01*
X114344289Y-110962288D01*
X114331663Y-110954720D01*
X114319840Y-110945952D01*
X114308933Y-110936066D01*
X114299047Y-110925159D01*
X114290279Y-110913336D01*
X114282711Y-110900710D01*
X114276417Y-110887403D01*
X114271458Y-110873543D01*
X114267881Y-110859264D01*
X114265721Y-110844703D01*
X114264999Y-110830000D01*
X114264999Y-110430000D01*
X114265721Y-110415297D01*
X114267881Y-110400736D01*
X114271458Y-110386457D01*
X114276417Y-110372597D01*
X114282711Y-110359290D01*
X114290279Y-110346664D01*
X114299047Y-110334841D01*
X114308933Y-110323934D01*
X114319840Y-110314048D01*
X114331663Y-110305280D01*
X114344289Y-110297712D01*
X114357596Y-110291418D01*
X114371456Y-110286459D01*
X114385735Y-110282882D01*
X114400296Y-110280722D01*
X114414999Y-110280000D01*
X114415001Y-110280000D01*
X114429704Y-110280722D01*
X114429704Y-110280722D01*
G37*
D26*
X114415000Y-110630000D03*
D24*
G36*
X114929704Y-110280722D02*
G01*
X114944265Y-110282882D01*
X114958544Y-110286459D01*
X114972404Y-110291418D01*
X114985711Y-110297712D01*
X114998337Y-110305280D01*
X115010160Y-110314048D01*
X115021067Y-110323934D01*
X115030953Y-110334841D01*
X115039721Y-110346664D01*
X115047289Y-110359290D01*
X115053583Y-110372597D01*
X115058542Y-110386457D01*
X115062119Y-110400736D01*
X115064279Y-110415297D01*
X115065001Y-110430000D01*
X115065001Y-110830000D01*
X115064279Y-110844703D01*
X115062119Y-110859264D01*
X115058542Y-110873543D01*
X115053583Y-110887403D01*
X115047289Y-110900710D01*
X115039721Y-110913336D01*
X115030953Y-110925159D01*
X115021067Y-110936066D01*
X115010160Y-110945952D01*
X114998337Y-110954720D01*
X114985711Y-110962288D01*
X114972404Y-110968582D01*
X114958544Y-110973541D01*
X114944265Y-110977118D01*
X114929704Y-110979278D01*
X114915001Y-110980000D01*
X114914999Y-110980000D01*
X114900296Y-110979278D01*
X114885735Y-110977118D01*
X114871456Y-110973541D01*
X114857596Y-110968582D01*
X114844289Y-110962288D01*
X114831663Y-110954720D01*
X114819840Y-110945952D01*
X114808933Y-110936066D01*
X114799047Y-110925159D01*
X114790279Y-110913336D01*
X114782711Y-110900710D01*
X114776417Y-110887403D01*
X114771458Y-110873543D01*
X114767881Y-110859264D01*
X114765721Y-110844703D01*
X114764999Y-110830000D01*
X114764999Y-110430000D01*
X114765721Y-110415297D01*
X114767881Y-110400736D01*
X114771458Y-110386457D01*
X114776417Y-110372597D01*
X114782711Y-110359290D01*
X114790279Y-110346664D01*
X114799047Y-110334841D01*
X114808933Y-110323934D01*
X114819840Y-110314048D01*
X114831663Y-110305280D01*
X114844289Y-110297712D01*
X114857596Y-110291418D01*
X114871456Y-110286459D01*
X114885735Y-110282882D01*
X114900296Y-110280722D01*
X114914999Y-110280000D01*
X114915001Y-110280000D01*
X114929704Y-110280722D01*
X114929704Y-110280722D01*
G37*
D26*
X114915000Y-110630000D03*
D24*
G36*
X115429704Y-110280722D02*
G01*
X115444265Y-110282882D01*
X115458544Y-110286459D01*
X115472404Y-110291418D01*
X115485711Y-110297712D01*
X115498337Y-110305280D01*
X115510160Y-110314048D01*
X115521067Y-110323934D01*
X115530953Y-110334841D01*
X115539721Y-110346664D01*
X115547289Y-110359290D01*
X115553583Y-110372597D01*
X115558542Y-110386457D01*
X115562119Y-110400736D01*
X115564279Y-110415297D01*
X115565001Y-110430000D01*
X115565001Y-110830000D01*
X115564279Y-110844703D01*
X115562119Y-110859264D01*
X115558542Y-110873543D01*
X115553583Y-110887403D01*
X115547289Y-110900710D01*
X115539721Y-110913336D01*
X115530953Y-110925159D01*
X115521067Y-110936066D01*
X115510160Y-110945952D01*
X115498337Y-110954720D01*
X115485711Y-110962288D01*
X115472404Y-110968582D01*
X115458544Y-110973541D01*
X115444265Y-110977118D01*
X115429704Y-110979278D01*
X115415001Y-110980000D01*
X115414999Y-110980000D01*
X115400296Y-110979278D01*
X115385735Y-110977118D01*
X115371456Y-110973541D01*
X115357596Y-110968582D01*
X115344289Y-110962288D01*
X115331663Y-110954720D01*
X115319840Y-110945952D01*
X115308933Y-110936066D01*
X115299047Y-110925159D01*
X115290279Y-110913336D01*
X115282711Y-110900710D01*
X115276417Y-110887403D01*
X115271458Y-110873543D01*
X115267881Y-110859264D01*
X115265721Y-110844703D01*
X115264999Y-110830000D01*
X115264999Y-110430000D01*
X115265721Y-110415297D01*
X115267881Y-110400736D01*
X115271458Y-110386457D01*
X115276417Y-110372597D01*
X115282711Y-110359290D01*
X115290279Y-110346664D01*
X115299047Y-110334841D01*
X115308933Y-110323934D01*
X115319840Y-110314048D01*
X115331663Y-110305280D01*
X115344289Y-110297712D01*
X115357596Y-110291418D01*
X115371456Y-110286459D01*
X115385735Y-110282882D01*
X115400296Y-110280722D01*
X115414999Y-110280000D01*
X115415001Y-110280000D01*
X115429704Y-110280722D01*
X115429704Y-110280722D01*
G37*
D26*
X115415000Y-110630000D03*
D24*
G36*
X115429704Y-115080722D02*
G01*
X115444265Y-115082882D01*
X115458544Y-115086459D01*
X115472404Y-115091418D01*
X115485711Y-115097712D01*
X115498337Y-115105280D01*
X115510160Y-115114048D01*
X115521067Y-115123934D01*
X115530953Y-115134841D01*
X115539721Y-115146664D01*
X115547289Y-115159290D01*
X115553583Y-115172597D01*
X115558542Y-115186457D01*
X115562119Y-115200736D01*
X115564279Y-115215297D01*
X115565001Y-115230000D01*
X115565001Y-115630000D01*
X115564279Y-115644703D01*
X115562119Y-115659264D01*
X115558542Y-115673543D01*
X115553583Y-115687403D01*
X115547289Y-115700710D01*
X115539721Y-115713336D01*
X115530953Y-115725159D01*
X115521067Y-115736066D01*
X115510160Y-115745952D01*
X115498337Y-115754720D01*
X115485711Y-115762288D01*
X115472404Y-115768582D01*
X115458544Y-115773541D01*
X115444265Y-115777118D01*
X115429704Y-115779278D01*
X115415001Y-115780000D01*
X115414999Y-115780000D01*
X115400296Y-115779278D01*
X115385735Y-115777118D01*
X115371456Y-115773541D01*
X115357596Y-115768582D01*
X115344289Y-115762288D01*
X115331663Y-115754720D01*
X115319840Y-115745952D01*
X115308933Y-115736066D01*
X115299047Y-115725159D01*
X115290279Y-115713336D01*
X115282711Y-115700710D01*
X115276417Y-115687403D01*
X115271458Y-115673543D01*
X115267881Y-115659264D01*
X115265721Y-115644703D01*
X115264999Y-115630000D01*
X115264999Y-115230000D01*
X115265721Y-115215297D01*
X115267881Y-115200736D01*
X115271458Y-115186457D01*
X115276417Y-115172597D01*
X115282711Y-115159290D01*
X115290279Y-115146664D01*
X115299047Y-115134841D01*
X115308933Y-115123934D01*
X115319840Y-115114048D01*
X115331663Y-115105280D01*
X115344289Y-115097712D01*
X115357596Y-115091418D01*
X115371456Y-115086459D01*
X115385735Y-115082882D01*
X115400296Y-115080722D01*
X115414999Y-115080000D01*
X115415001Y-115080000D01*
X115429704Y-115080722D01*
X115429704Y-115080722D01*
G37*
D26*
X115415000Y-115430000D03*
D24*
G36*
X114929704Y-115080722D02*
G01*
X114944265Y-115082882D01*
X114958544Y-115086459D01*
X114972404Y-115091418D01*
X114985711Y-115097712D01*
X114998337Y-115105280D01*
X115010160Y-115114048D01*
X115021067Y-115123934D01*
X115030953Y-115134841D01*
X115039721Y-115146664D01*
X115047289Y-115159290D01*
X115053583Y-115172597D01*
X115058542Y-115186457D01*
X115062119Y-115200736D01*
X115064279Y-115215297D01*
X115065001Y-115230000D01*
X115065001Y-115630000D01*
X115064279Y-115644703D01*
X115062119Y-115659264D01*
X115058542Y-115673543D01*
X115053583Y-115687403D01*
X115047289Y-115700710D01*
X115039721Y-115713336D01*
X115030953Y-115725159D01*
X115021067Y-115736066D01*
X115010160Y-115745952D01*
X114998337Y-115754720D01*
X114985711Y-115762288D01*
X114972404Y-115768582D01*
X114958544Y-115773541D01*
X114944265Y-115777118D01*
X114929704Y-115779278D01*
X114915001Y-115780000D01*
X114914999Y-115780000D01*
X114900296Y-115779278D01*
X114885735Y-115777118D01*
X114871456Y-115773541D01*
X114857596Y-115768582D01*
X114844289Y-115762288D01*
X114831663Y-115754720D01*
X114819840Y-115745952D01*
X114808933Y-115736066D01*
X114799047Y-115725159D01*
X114790279Y-115713336D01*
X114782711Y-115700710D01*
X114776417Y-115687403D01*
X114771458Y-115673543D01*
X114767881Y-115659264D01*
X114765721Y-115644703D01*
X114764999Y-115630000D01*
X114764999Y-115230000D01*
X114765721Y-115215297D01*
X114767881Y-115200736D01*
X114771458Y-115186457D01*
X114776417Y-115172597D01*
X114782711Y-115159290D01*
X114790279Y-115146664D01*
X114799047Y-115134841D01*
X114808933Y-115123934D01*
X114819840Y-115114048D01*
X114831663Y-115105280D01*
X114844289Y-115097712D01*
X114857596Y-115091418D01*
X114871456Y-115086459D01*
X114885735Y-115082882D01*
X114900296Y-115080722D01*
X114914999Y-115080000D01*
X114915001Y-115080000D01*
X114929704Y-115080722D01*
X114929704Y-115080722D01*
G37*
D26*
X114915000Y-115430000D03*
D24*
G36*
X114429704Y-115080722D02*
G01*
X114444265Y-115082882D01*
X114458544Y-115086459D01*
X114472404Y-115091418D01*
X114485711Y-115097712D01*
X114498337Y-115105280D01*
X114510160Y-115114048D01*
X114521067Y-115123934D01*
X114530953Y-115134841D01*
X114539721Y-115146664D01*
X114547289Y-115159290D01*
X114553583Y-115172597D01*
X114558542Y-115186457D01*
X114562119Y-115200736D01*
X114564279Y-115215297D01*
X114565001Y-115230000D01*
X114565001Y-115630000D01*
X114564279Y-115644703D01*
X114562119Y-115659264D01*
X114558542Y-115673543D01*
X114553583Y-115687403D01*
X114547289Y-115700710D01*
X114539721Y-115713336D01*
X114530953Y-115725159D01*
X114521067Y-115736066D01*
X114510160Y-115745952D01*
X114498337Y-115754720D01*
X114485711Y-115762288D01*
X114472404Y-115768582D01*
X114458544Y-115773541D01*
X114444265Y-115777118D01*
X114429704Y-115779278D01*
X114415001Y-115780000D01*
X114414999Y-115780000D01*
X114400296Y-115779278D01*
X114385735Y-115777118D01*
X114371456Y-115773541D01*
X114357596Y-115768582D01*
X114344289Y-115762288D01*
X114331663Y-115754720D01*
X114319840Y-115745952D01*
X114308933Y-115736066D01*
X114299047Y-115725159D01*
X114290279Y-115713336D01*
X114282711Y-115700710D01*
X114276417Y-115687403D01*
X114271458Y-115673543D01*
X114267881Y-115659264D01*
X114265721Y-115644703D01*
X114264999Y-115630000D01*
X114264999Y-115230000D01*
X114265721Y-115215297D01*
X114267881Y-115200736D01*
X114271458Y-115186457D01*
X114276417Y-115172597D01*
X114282711Y-115159290D01*
X114290279Y-115146664D01*
X114299047Y-115134841D01*
X114308933Y-115123934D01*
X114319840Y-115114048D01*
X114331663Y-115105280D01*
X114344289Y-115097712D01*
X114357596Y-115091418D01*
X114371456Y-115086459D01*
X114385735Y-115082882D01*
X114400296Y-115080722D01*
X114414999Y-115080000D01*
X114415001Y-115080000D01*
X114429704Y-115080722D01*
X114429704Y-115080722D01*
G37*
D26*
X114415000Y-115430000D03*
D24*
G36*
X113929704Y-115080722D02*
G01*
X113944265Y-115082882D01*
X113958544Y-115086459D01*
X113972404Y-115091418D01*
X113985711Y-115097712D01*
X113998337Y-115105280D01*
X114010160Y-115114048D01*
X114021067Y-115123934D01*
X114030953Y-115134841D01*
X114039721Y-115146664D01*
X114047289Y-115159290D01*
X114053583Y-115172597D01*
X114058542Y-115186457D01*
X114062119Y-115200736D01*
X114064279Y-115215297D01*
X114065001Y-115230000D01*
X114065001Y-115630000D01*
X114064279Y-115644703D01*
X114062119Y-115659264D01*
X114058542Y-115673543D01*
X114053583Y-115687403D01*
X114047289Y-115700710D01*
X114039721Y-115713336D01*
X114030953Y-115725159D01*
X114021067Y-115736066D01*
X114010160Y-115745952D01*
X113998337Y-115754720D01*
X113985711Y-115762288D01*
X113972404Y-115768582D01*
X113958544Y-115773541D01*
X113944265Y-115777118D01*
X113929704Y-115779278D01*
X113915001Y-115780000D01*
X113914999Y-115780000D01*
X113900296Y-115779278D01*
X113885735Y-115777118D01*
X113871456Y-115773541D01*
X113857596Y-115768582D01*
X113844289Y-115762288D01*
X113831663Y-115754720D01*
X113819840Y-115745952D01*
X113808933Y-115736066D01*
X113799047Y-115725159D01*
X113790279Y-115713336D01*
X113782711Y-115700710D01*
X113776417Y-115687403D01*
X113771458Y-115673543D01*
X113767881Y-115659264D01*
X113765721Y-115644703D01*
X113764999Y-115630000D01*
X113764999Y-115230000D01*
X113765721Y-115215297D01*
X113767881Y-115200736D01*
X113771458Y-115186457D01*
X113776417Y-115172597D01*
X113782711Y-115159290D01*
X113790279Y-115146664D01*
X113799047Y-115134841D01*
X113808933Y-115123934D01*
X113819840Y-115114048D01*
X113831663Y-115105280D01*
X113844289Y-115097712D01*
X113857596Y-115091418D01*
X113871456Y-115086459D01*
X113885735Y-115082882D01*
X113900296Y-115080722D01*
X113914999Y-115080000D01*
X113915001Y-115080000D01*
X113929704Y-115080722D01*
X113929704Y-115080722D01*
G37*
D26*
X113915000Y-115430000D03*
D24*
G36*
X113429704Y-115080722D02*
G01*
X113444265Y-115082882D01*
X113458544Y-115086459D01*
X113472404Y-115091418D01*
X113485711Y-115097712D01*
X113498337Y-115105280D01*
X113510160Y-115114048D01*
X113521067Y-115123934D01*
X113530953Y-115134841D01*
X113539721Y-115146664D01*
X113547289Y-115159290D01*
X113553583Y-115172597D01*
X113558542Y-115186457D01*
X113562119Y-115200736D01*
X113564279Y-115215297D01*
X113565001Y-115230000D01*
X113565001Y-115630000D01*
X113564279Y-115644703D01*
X113562119Y-115659264D01*
X113558542Y-115673543D01*
X113553583Y-115687403D01*
X113547289Y-115700710D01*
X113539721Y-115713336D01*
X113530953Y-115725159D01*
X113521067Y-115736066D01*
X113510160Y-115745952D01*
X113498337Y-115754720D01*
X113485711Y-115762288D01*
X113472404Y-115768582D01*
X113458544Y-115773541D01*
X113444265Y-115777118D01*
X113429704Y-115779278D01*
X113415001Y-115780000D01*
X113414999Y-115780000D01*
X113400296Y-115779278D01*
X113385735Y-115777118D01*
X113371456Y-115773541D01*
X113357596Y-115768582D01*
X113344289Y-115762288D01*
X113331663Y-115754720D01*
X113319840Y-115745952D01*
X113308933Y-115736066D01*
X113299047Y-115725159D01*
X113290279Y-115713336D01*
X113282711Y-115700710D01*
X113276417Y-115687403D01*
X113271458Y-115673543D01*
X113267881Y-115659264D01*
X113265721Y-115644703D01*
X113264999Y-115630000D01*
X113264999Y-115230000D01*
X113265721Y-115215297D01*
X113267881Y-115200736D01*
X113271458Y-115186457D01*
X113276417Y-115172597D01*
X113282711Y-115159290D01*
X113290279Y-115146664D01*
X113299047Y-115134841D01*
X113308933Y-115123934D01*
X113319840Y-115114048D01*
X113331663Y-115105280D01*
X113344289Y-115097712D01*
X113357596Y-115091418D01*
X113371456Y-115086459D01*
X113385735Y-115082882D01*
X113400296Y-115080722D01*
X113414999Y-115080000D01*
X113415001Y-115080000D01*
X113429704Y-115080722D01*
X113429704Y-115080722D01*
G37*
D26*
X113415000Y-115430000D03*
D24*
G36*
X112929704Y-115080722D02*
G01*
X112944265Y-115082882D01*
X112958544Y-115086459D01*
X112972404Y-115091418D01*
X112985711Y-115097712D01*
X112998337Y-115105280D01*
X113010160Y-115114048D01*
X113021067Y-115123934D01*
X113030953Y-115134841D01*
X113039721Y-115146664D01*
X113047289Y-115159290D01*
X113053583Y-115172597D01*
X113058542Y-115186457D01*
X113062119Y-115200736D01*
X113064279Y-115215297D01*
X113065001Y-115230000D01*
X113065001Y-115630000D01*
X113064279Y-115644703D01*
X113062119Y-115659264D01*
X113058542Y-115673543D01*
X113053583Y-115687403D01*
X113047289Y-115700710D01*
X113039721Y-115713336D01*
X113030953Y-115725159D01*
X113021067Y-115736066D01*
X113010160Y-115745952D01*
X112998337Y-115754720D01*
X112985711Y-115762288D01*
X112972404Y-115768582D01*
X112958544Y-115773541D01*
X112944265Y-115777118D01*
X112929704Y-115779278D01*
X112915001Y-115780000D01*
X112914999Y-115780000D01*
X112900296Y-115779278D01*
X112885735Y-115777118D01*
X112871456Y-115773541D01*
X112857596Y-115768582D01*
X112844289Y-115762288D01*
X112831663Y-115754720D01*
X112819840Y-115745952D01*
X112808933Y-115736066D01*
X112799047Y-115725159D01*
X112790279Y-115713336D01*
X112782711Y-115700710D01*
X112776417Y-115687403D01*
X112771458Y-115673543D01*
X112767881Y-115659264D01*
X112765721Y-115644703D01*
X112764999Y-115630000D01*
X112764999Y-115230000D01*
X112765721Y-115215297D01*
X112767881Y-115200736D01*
X112771458Y-115186457D01*
X112776417Y-115172597D01*
X112782711Y-115159290D01*
X112790279Y-115146664D01*
X112799047Y-115134841D01*
X112808933Y-115123934D01*
X112819840Y-115114048D01*
X112831663Y-115105280D01*
X112844289Y-115097712D01*
X112857596Y-115091418D01*
X112871456Y-115086459D01*
X112885735Y-115082882D01*
X112900296Y-115080722D01*
X112914999Y-115080000D01*
X112915001Y-115080000D01*
X112929704Y-115080722D01*
X112929704Y-115080722D01*
G37*
D26*
X112915000Y-115430000D03*
D24*
G36*
X112429704Y-115080722D02*
G01*
X112444265Y-115082882D01*
X112458544Y-115086459D01*
X112472404Y-115091418D01*
X112485711Y-115097712D01*
X112498337Y-115105280D01*
X112510160Y-115114048D01*
X112521067Y-115123934D01*
X112530953Y-115134841D01*
X112539721Y-115146664D01*
X112547289Y-115159290D01*
X112553583Y-115172597D01*
X112558542Y-115186457D01*
X112562119Y-115200736D01*
X112564279Y-115215297D01*
X112565001Y-115230000D01*
X112565001Y-115630000D01*
X112564279Y-115644703D01*
X112562119Y-115659264D01*
X112558542Y-115673543D01*
X112553583Y-115687403D01*
X112547289Y-115700710D01*
X112539721Y-115713336D01*
X112530953Y-115725159D01*
X112521067Y-115736066D01*
X112510160Y-115745952D01*
X112498337Y-115754720D01*
X112485711Y-115762288D01*
X112472404Y-115768582D01*
X112458544Y-115773541D01*
X112444265Y-115777118D01*
X112429704Y-115779278D01*
X112415001Y-115780000D01*
X112414999Y-115780000D01*
X112400296Y-115779278D01*
X112385735Y-115777118D01*
X112371456Y-115773541D01*
X112357596Y-115768582D01*
X112344289Y-115762288D01*
X112331663Y-115754720D01*
X112319840Y-115745952D01*
X112308933Y-115736066D01*
X112299047Y-115725159D01*
X112290279Y-115713336D01*
X112282711Y-115700710D01*
X112276417Y-115687403D01*
X112271458Y-115673543D01*
X112267881Y-115659264D01*
X112265721Y-115644703D01*
X112264999Y-115630000D01*
X112264999Y-115230000D01*
X112265721Y-115215297D01*
X112267881Y-115200736D01*
X112271458Y-115186457D01*
X112276417Y-115172597D01*
X112282711Y-115159290D01*
X112290279Y-115146664D01*
X112299047Y-115134841D01*
X112308933Y-115123934D01*
X112319840Y-115114048D01*
X112331663Y-115105280D01*
X112344289Y-115097712D01*
X112357596Y-115091418D01*
X112371456Y-115086459D01*
X112385735Y-115082882D01*
X112400296Y-115080722D01*
X112414999Y-115080000D01*
X112415001Y-115080000D01*
X112429704Y-115080722D01*
X112429704Y-115080722D01*
G37*
D26*
X112415000Y-115430000D03*
D24*
G36*
X111929704Y-115080722D02*
G01*
X111944265Y-115082882D01*
X111958544Y-115086459D01*
X111972404Y-115091418D01*
X111985711Y-115097712D01*
X111998337Y-115105280D01*
X112010160Y-115114048D01*
X112021067Y-115123934D01*
X112030953Y-115134841D01*
X112039721Y-115146664D01*
X112047289Y-115159290D01*
X112053583Y-115172597D01*
X112058542Y-115186457D01*
X112062119Y-115200736D01*
X112064279Y-115215297D01*
X112065001Y-115230000D01*
X112065001Y-115630000D01*
X112064279Y-115644703D01*
X112062119Y-115659264D01*
X112058542Y-115673543D01*
X112053583Y-115687403D01*
X112047289Y-115700710D01*
X112039721Y-115713336D01*
X112030953Y-115725159D01*
X112021067Y-115736066D01*
X112010160Y-115745952D01*
X111998337Y-115754720D01*
X111985711Y-115762288D01*
X111972404Y-115768582D01*
X111958544Y-115773541D01*
X111944265Y-115777118D01*
X111929704Y-115779278D01*
X111915001Y-115780000D01*
X111914999Y-115780000D01*
X111900296Y-115779278D01*
X111885735Y-115777118D01*
X111871456Y-115773541D01*
X111857596Y-115768582D01*
X111844289Y-115762288D01*
X111831663Y-115754720D01*
X111819840Y-115745952D01*
X111808933Y-115736066D01*
X111799047Y-115725159D01*
X111790279Y-115713336D01*
X111782711Y-115700710D01*
X111776417Y-115687403D01*
X111771458Y-115673543D01*
X111767881Y-115659264D01*
X111765721Y-115644703D01*
X111764999Y-115630000D01*
X111764999Y-115230000D01*
X111765721Y-115215297D01*
X111767881Y-115200736D01*
X111771458Y-115186457D01*
X111776417Y-115172597D01*
X111782711Y-115159290D01*
X111790279Y-115146664D01*
X111799047Y-115134841D01*
X111808933Y-115123934D01*
X111819840Y-115114048D01*
X111831663Y-115105280D01*
X111844289Y-115097712D01*
X111857596Y-115091418D01*
X111871456Y-115086459D01*
X111885735Y-115082882D01*
X111900296Y-115080722D01*
X111914999Y-115080000D01*
X111915001Y-115080000D01*
X111929704Y-115080722D01*
X111929704Y-115080722D01*
G37*
D26*
X111915000Y-115430000D03*
D24*
G36*
X116279703Y-111130721D02*
G01*
X116294264Y-111132881D01*
X116308543Y-111136458D01*
X116322403Y-111141417D01*
X116335710Y-111147711D01*
X116348336Y-111155279D01*
X116360159Y-111164047D01*
X116371066Y-111173933D01*
X116380952Y-111184840D01*
X116389720Y-111196663D01*
X116397288Y-111209289D01*
X116403582Y-111222596D01*
X116408541Y-111236456D01*
X116412118Y-111250735D01*
X116414278Y-111265296D01*
X116415000Y-111279999D01*
X116415000Y-111280001D01*
X116414278Y-111294704D01*
X116412118Y-111309265D01*
X116408541Y-111323544D01*
X116403582Y-111337404D01*
X116397288Y-111350711D01*
X116389720Y-111363337D01*
X116380952Y-111375160D01*
X116371066Y-111386067D01*
X116360159Y-111395953D01*
X116348336Y-111404721D01*
X116335710Y-111412289D01*
X116322403Y-111418583D01*
X116308543Y-111423542D01*
X116294264Y-111427119D01*
X116279703Y-111429279D01*
X116265000Y-111430001D01*
X115865000Y-111430001D01*
X115850297Y-111429279D01*
X115835736Y-111427119D01*
X115821457Y-111423542D01*
X115807597Y-111418583D01*
X115794290Y-111412289D01*
X115781664Y-111404721D01*
X115769841Y-111395953D01*
X115758934Y-111386067D01*
X115749048Y-111375160D01*
X115740280Y-111363337D01*
X115732712Y-111350711D01*
X115726418Y-111337404D01*
X115721459Y-111323544D01*
X115717882Y-111309265D01*
X115715722Y-111294704D01*
X115715000Y-111280001D01*
X115715000Y-111279999D01*
X115715722Y-111265296D01*
X115717882Y-111250735D01*
X115721459Y-111236456D01*
X115726418Y-111222596D01*
X115732712Y-111209289D01*
X115740280Y-111196663D01*
X115749048Y-111184840D01*
X115758934Y-111173933D01*
X115769841Y-111164047D01*
X115781664Y-111155279D01*
X115794290Y-111147711D01*
X115807597Y-111141417D01*
X115821457Y-111136458D01*
X115835736Y-111132881D01*
X115850297Y-111130721D01*
X115865000Y-111129999D01*
X116265000Y-111129999D01*
X116279703Y-111130721D01*
X116279703Y-111130721D01*
G37*
D26*
X116065000Y-111280000D03*
D24*
G36*
X116279703Y-111630721D02*
G01*
X116294264Y-111632881D01*
X116308543Y-111636458D01*
X116322403Y-111641417D01*
X116335710Y-111647711D01*
X116348336Y-111655279D01*
X116360159Y-111664047D01*
X116371066Y-111673933D01*
X116380952Y-111684840D01*
X116389720Y-111696663D01*
X116397288Y-111709289D01*
X116403582Y-111722596D01*
X116408541Y-111736456D01*
X116412118Y-111750735D01*
X116414278Y-111765296D01*
X116415000Y-111779999D01*
X116415000Y-111780001D01*
X116414278Y-111794704D01*
X116412118Y-111809265D01*
X116408541Y-111823544D01*
X116403582Y-111837404D01*
X116397288Y-111850711D01*
X116389720Y-111863337D01*
X116380952Y-111875160D01*
X116371066Y-111886067D01*
X116360159Y-111895953D01*
X116348336Y-111904721D01*
X116335710Y-111912289D01*
X116322403Y-111918583D01*
X116308543Y-111923542D01*
X116294264Y-111927119D01*
X116279703Y-111929279D01*
X116265000Y-111930001D01*
X115865000Y-111930001D01*
X115850297Y-111929279D01*
X115835736Y-111927119D01*
X115821457Y-111923542D01*
X115807597Y-111918583D01*
X115794290Y-111912289D01*
X115781664Y-111904721D01*
X115769841Y-111895953D01*
X115758934Y-111886067D01*
X115749048Y-111875160D01*
X115740280Y-111863337D01*
X115732712Y-111850711D01*
X115726418Y-111837404D01*
X115721459Y-111823544D01*
X115717882Y-111809265D01*
X115715722Y-111794704D01*
X115715000Y-111780001D01*
X115715000Y-111779999D01*
X115715722Y-111765296D01*
X115717882Y-111750735D01*
X115721459Y-111736456D01*
X115726418Y-111722596D01*
X115732712Y-111709289D01*
X115740280Y-111696663D01*
X115749048Y-111684840D01*
X115758934Y-111673933D01*
X115769841Y-111664047D01*
X115781664Y-111655279D01*
X115794290Y-111647711D01*
X115807597Y-111641417D01*
X115821457Y-111636458D01*
X115835736Y-111632881D01*
X115850297Y-111630721D01*
X115865000Y-111629999D01*
X116265000Y-111629999D01*
X116279703Y-111630721D01*
X116279703Y-111630721D01*
G37*
D26*
X116065000Y-111780000D03*
D24*
G36*
X116279703Y-112130721D02*
G01*
X116294264Y-112132881D01*
X116308543Y-112136458D01*
X116322403Y-112141417D01*
X116335710Y-112147711D01*
X116348336Y-112155279D01*
X116360159Y-112164047D01*
X116371066Y-112173933D01*
X116380952Y-112184840D01*
X116389720Y-112196663D01*
X116397288Y-112209289D01*
X116403582Y-112222596D01*
X116408541Y-112236456D01*
X116412118Y-112250735D01*
X116414278Y-112265296D01*
X116415000Y-112279999D01*
X116415000Y-112280001D01*
X116414278Y-112294704D01*
X116412118Y-112309265D01*
X116408541Y-112323544D01*
X116403582Y-112337404D01*
X116397288Y-112350711D01*
X116389720Y-112363337D01*
X116380952Y-112375160D01*
X116371066Y-112386067D01*
X116360159Y-112395953D01*
X116348336Y-112404721D01*
X116335710Y-112412289D01*
X116322403Y-112418583D01*
X116308543Y-112423542D01*
X116294264Y-112427119D01*
X116279703Y-112429279D01*
X116265000Y-112430001D01*
X115865000Y-112430001D01*
X115850297Y-112429279D01*
X115835736Y-112427119D01*
X115821457Y-112423542D01*
X115807597Y-112418583D01*
X115794290Y-112412289D01*
X115781664Y-112404721D01*
X115769841Y-112395953D01*
X115758934Y-112386067D01*
X115749048Y-112375160D01*
X115740280Y-112363337D01*
X115732712Y-112350711D01*
X115726418Y-112337404D01*
X115721459Y-112323544D01*
X115717882Y-112309265D01*
X115715722Y-112294704D01*
X115715000Y-112280001D01*
X115715000Y-112279999D01*
X115715722Y-112265296D01*
X115717882Y-112250735D01*
X115721459Y-112236456D01*
X115726418Y-112222596D01*
X115732712Y-112209289D01*
X115740280Y-112196663D01*
X115749048Y-112184840D01*
X115758934Y-112173933D01*
X115769841Y-112164047D01*
X115781664Y-112155279D01*
X115794290Y-112147711D01*
X115807597Y-112141417D01*
X115821457Y-112136458D01*
X115835736Y-112132881D01*
X115850297Y-112130721D01*
X115865000Y-112129999D01*
X116265000Y-112129999D01*
X116279703Y-112130721D01*
X116279703Y-112130721D01*
G37*
D26*
X116065000Y-112280000D03*
D24*
G36*
X116279703Y-112630721D02*
G01*
X116294264Y-112632881D01*
X116308543Y-112636458D01*
X116322403Y-112641417D01*
X116335710Y-112647711D01*
X116348336Y-112655279D01*
X116360159Y-112664047D01*
X116371066Y-112673933D01*
X116380952Y-112684840D01*
X116389720Y-112696663D01*
X116397288Y-112709289D01*
X116403582Y-112722596D01*
X116408541Y-112736456D01*
X116412118Y-112750735D01*
X116414278Y-112765296D01*
X116415000Y-112779999D01*
X116415000Y-112780001D01*
X116414278Y-112794704D01*
X116412118Y-112809265D01*
X116408541Y-112823544D01*
X116403582Y-112837404D01*
X116397288Y-112850711D01*
X116389720Y-112863337D01*
X116380952Y-112875160D01*
X116371066Y-112886067D01*
X116360159Y-112895953D01*
X116348336Y-112904721D01*
X116335710Y-112912289D01*
X116322403Y-112918583D01*
X116308543Y-112923542D01*
X116294264Y-112927119D01*
X116279703Y-112929279D01*
X116265000Y-112930001D01*
X115865000Y-112930001D01*
X115850297Y-112929279D01*
X115835736Y-112927119D01*
X115821457Y-112923542D01*
X115807597Y-112918583D01*
X115794290Y-112912289D01*
X115781664Y-112904721D01*
X115769841Y-112895953D01*
X115758934Y-112886067D01*
X115749048Y-112875160D01*
X115740280Y-112863337D01*
X115732712Y-112850711D01*
X115726418Y-112837404D01*
X115721459Y-112823544D01*
X115717882Y-112809265D01*
X115715722Y-112794704D01*
X115715000Y-112780001D01*
X115715000Y-112779999D01*
X115715722Y-112765296D01*
X115717882Y-112750735D01*
X115721459Y-112736456D01*
X115726418Y-112722596D01*
X115732712Y-112709289D01*
X115740280Y-112696663D01*
X115749048Y-112684840D01*
X115758934Y-112673933D01*
X115769841Y-112664047D01*
X115781664Y-112655279D01*
X115794290Y-112647711D01*
X115807597Y-112641417D01*
X115821457Y-112636458D01*
X115835736Y-112632881D01*
X115850297Y-112630721D01*
X115865000Y-112629999D01*
X116265000Y-112629999D01*
X116279703Y-112630721D01*
X116279703Y-112630721D01*
G37*
D26*
X116065000Y-112780000D03*
D24*
G36*
X116279703Y-113130721D02*
G01*
X116294264Y-113132881D01*
X116308543Y-113136458D01*
X116322403Y-113141417D01*
X116335710Y-113147711D01*
X116348336Y-113155279D01*
X116360159Y-113164047D01*
X116371066Y-113173933D01*
X116380952Y-113184840D01*
X116389720Y-113196663D01*
X116397288Y-113209289D01*
X116403582Y-113222596D01*
X116408541Y-113236456D01*
X116412118Y-113250735D01*
X116414278Y-113265296D01*
X116415000Y-113279999D01*
X116415000Y-113280001D01*
X116414278Y-113294704D01*
X116412118Y-113309265D01*
X116408541Y-113323544D01*
X116403582Y-113337404D01*
X116397288Y-113350711D01*
X116389720Y-113363337D01*
X116380952Y-113375160D01*
X116371066Y-113386067D01*
X116360159Y-113395953D01*
X116348336Y-113404721D01*
X116335710Y-113412289D01*
X116322403Y-113418583D01*
X116308543Y-113423542D01*
X116294264Y-113427119D01*
X116279703Y-113429279D01*
X116265000Y-113430001D01*
X115865000Y-113430001D01*
X115850297Y-113429279D01*
X115835736Y-113427119D01*
X115821457Y-113423542D01*
X115807597Y-113418583D01*
X115794290Y-113412289D01*
X115781664Y-113404721D01*
X115769841Y-113395953D01*
X115758934Y-113386067D01*
X115749048Y-113375160D01*
X115740280Y-113363337D01*
X115732712Y-113350711D01*
X115726418Y-113337404D01*
X115721459Y-113323544D01*
X115717882Y-113309265D01*
X115715722Y-113294704D01*
X115715000Y-113280001D01*
X115715000Y-113279999D01*
X115715722Y-113265296D01*
X115717882Y-113250735D01*
X115721459Y-113236456D01*
X115726418Y-113222596D01*
X115732712Y-113209289D01*
X115740280Y-113196663D01*
X115749048Y-113184840D01*
X115758934Y-113173933D01*
X115769841Y-113164047D01*
X115781664Y-113155279D01*
X115794290Y-113147711D01*
X115807597Y-113141417D01*
X115821457Y-113136458D01*
X115835736Y-113132881D01*
X115850297Y-113130721D01*
X115865000Y-113129999D01*
X116265000Y-113129999D01*
X116279703Y-113130721D01*
X116279703Y-113130721D01*
G37*
D26*
X116065000Y-113280000D03*
D24*
G36*
X116279703Y-113630721D02*
G01*
X116294264Y-113632881D01*
X116308543Y-113636458D01*
X116322403Y-113641417D01*
X116335710Y-113647711D01*
X116348336Y-113655279D01*
X116360159Y-113664047D01*
X116371066Y-113673933D01*
X116380952Y-113684840D01*
X116389720Y-113696663D01*
X116397288Y-113709289D01*
X116403582Y-113722596D01*
X116408541Y-113736456D01*
X116412118Y-113750735D01*
X116414278Y-113765296D01*
X116415000Y-113779999D01*
X116415000Y-113780001D01*
X116414278Y-113794704D01*
X116412118Y-113809265D01*
X116408541Y-113823544D01*
X116403582Y-113837404D01*
X116397288Y-113850711D01*
X116389720Y-113863337D01*
X116380952Y-113875160D01*
X116371066Y-113886067D01*
X116360159Y-113895953D01*
X116348336Y-113904721D01*
X116335710Y-113912289D01*
X116322403Y-113918583D01*
X116308543Y-113923542D01*
X116294264Y-113927119D01*
X116279703Y-113929279D01*
X116265000Y-113930001D01*
X115865000Y-113930001D01*
X115850297Y-113929279D01*
X115835736Y-113927119D01*
X115821457Y-113923542D01*
X115807597Y-113918583D01*
X115794290Y-113912289D01*
X115781664Y-113904721D01*
X115769841Y-113895953D01*
X115758934Y-113886067D01*
X115749048Y-113875160D01*
X115740280Y-113863337D01*
X115732712Y-113850711D01*
X115726418Y-113837404D01*
X115721459Y-113823544D01*
X115717882Y-113809265D01*
X115715722Y-113794704D01*
X115715000Y-113780001D01*
X115715000Y-113779999D01*
X115715722Y-113765296D01*
X115717882Y-113750735D01*
X115721459Y-113736456D01*
X115726418Y-113722596D01*
X115732712Y-113709289D01*
X115740280Y-113696663D01*
X115749048Y-113684840D01*
X115758934Y-113673933D01*
X115769841Y-113664047D01*
X115781664Y-113655279D01*
X115794290Y-113647711D01*
X115807597Y-113641417D01*
X115821457Y-113636458D01*
X115835736Y-113632881D01*
X115850297Y-113630721D01*
X115865000Y-113629999D01*
X116265000Y-113629999D01*
X116279703Y-113630721D01*
X116279703Y-113630721D01*
G37*
D26*
X116065000Y-113780000D03*
D24*
G36*
X116279703Y-114130721D02*
G01*
X116294264Y-114132881D01*
X116308543Y-114136458D01*
X116322403Y-114141417D01*
X116335710Y-114147711D01*
X116348336Y-114155279D01*
X116360159Y-114164047D01*
X116371066Y-114173933D01*
X116380952Y-114184840D01*
X116389720Y-114196663D01*
X116397288Y-114209289D01*
X116403582Y-114222596D01*
X116408541Y-114236456D01*
X116412118Y-114250735D01*
X116414278Y-114265296D01*
X116415000Y-114279999D01*
X116415000Y-114280001D01*
X116414278Y-114294704D01*
X116412118Y-114309265D01*
X116408541Y-114323544D01*
X116403582Y-114337404D01*
X116397288Y-114350711D01*
X116389720Y-114363337D01*
X116380952Y-114375160D01*
X116371066Y-114386067D01*
X116360159Y-114395953D01*
X116348336Y-114404721D01*
X116335710Y-114412289D01*
X116322403Y-114418583D01*
X116308543Y-114423542D01*
X116294264Y-114427119D01*
X116279703Y-114429279D01*
X116265000Y-114430001D01*
X115865000Y-114430001D01*
X115850297Y-114429279D01*
X115835736Y-114427119D01*
X115821457Y-114423542D01*
X115807597Y-114418583D01*
X115794290Y-114412289D01*
X115781664Y-114404721D01*
X115769841Y-114395953D01*
X115758934Y-114386067D01*
X115749048Y-114375160D01*
X115740280Y-114363337D01*
X115732712Y-114350711D01*
X115726418Y-114337404D01*
X115721459Y-114323544D01*
X115717882Y-114309265D01*
X115715722Y-114294704D01*
X115715000Y-114280001D01*
X115715000Y-114279999D01*
X115715722Y-114265296D01*
X115717882Y-114250735D01*
X115721459Y-114236456D01*
X115726418Y-114222596D01*
X115732712Y-114209289D01*
X115740280Y-114196663D01*
X115749048Y-114184840D01*
X115758934Y-114173933D01*
X115769841Y-114164047D01*
X115781664Y-114155279D01*
X115794290Y-114147711D01*
X115807597Y-114141417D01*
X115821457Y-114136458D01*
X115835736Y-114132881D01*
X115850297Y-114130721D01*
X115865000Y-114129999D01*
X116265000Y-114129999D01*
X116279703Y-114130721D01*
X116279703Y-114130721D01*
G37*
D26*
X116065000Y-114280000D03*
D24*
G36*
X116279703Y-114630721D02*
G01*
X116294264Y-114632881D01*
X116308543Y-114636458D01*
X116322403Y-114641417D01*
X116335710Y-114647711D01*
X116348336Y-114655279D01*
X116360159Y-114664047D01*
X116371066Y-114673933D01*
X116380952Y-114684840D01*
X116389720Y-114696663D01*
X116397288Y-114709289D01*
X116403582Y-114722596D01*
X116408541Y-114736456D01*
X116412118Y-114750735D01*
X116414278Y-114765296D01*
X116415000Y-114779999D01*
X116415000Y-114780001D01*
X116414278Y-114794704D01*
X116412118Y-114809265D01*
X116408541Y-114823544D01*
X116403582Y-114837404D01*
X116397288Y-114850711D01*
X116389720Y-114863337D01*
X116380952Y-114875160D01*
X116371066Y-114886067D01*
X116360159Y-114895953D01*
X116348336Y-114904721D01*
X116335710Y-114912289D01*
X116322403Y-114918583D01*
X116308543Y-114923542D01*
X116294264Y-114927119D01*
X116279703Y-114929279D01*
X116265000Y-114930001D01*
X115865000Y-114930001D01*
X115850297Y-114929279D01*
X115835736Y-114927119D01*
X115821457Y-114923542D01*
X115807597Y-114918583D01*
X115794290Y-114912289D01*
X115781664Y-114904721D01*
X115769841Y-114895953D01*
X115758934Y-114886067D01*
X115749048Y-114875160D01*
X115740280Y-114863337D01*
X115732712Y-114850711D01*
X115726418Y-114837404D01*
X115721459Y-114823544D01*
X115717882Y-114809265D01*
X115715722Y-114794704D01*
X115715000Y-114780001D01*
X115715000Y-114779999D01*
X115715722Y-114765296D01*
X115717882Y-114750735D01*
X115721459Y-114736456D01*
X115726418Y-114722596D01*
X115732712Y-114709289D01*
X115740280Y-114696663D01*
X115749048Y-114684840D01*
X115758934Y-114673933D01*
X115769841Y-114664047D01*
X115781664Y-114655279D01*
X115794290Y-114647711D01*
X115807597Y-114641417D01*
X115821457Y-114636458D01*
X115835736Y-114632881D01*
X115850297Y-114630721D01*
X115865000Y-114629999D01*
X116265000Y-114629999D01*
X116279703Y-114630721D01*
X116279703Y-114630721D01*
G37*
D26*
X116065000Y-114780000D03*
D24*
G36*
X111479703Y-114630721D02*
G01*
X111494264Y-114632881D01*
X111508543Y-114636458D01*
X111522403Y-114641417D01*
X111535710Y-114647711D01*
X111548336Y-114655279D01*
X111560159Y-114664047D01*
X111571066Y-114673933D01*
X111580952Y-114684840D01*
X111589720Y-114696663D01*
X111597288Y-114709289D01*
X111603582Y-114722596D01*
X111608541Y-114736456D01*
X111612118Y-114750735D01*
X111614278Y-114765296D01*
X111615000Y-114779999D01*
X111615000Y-114780001D01*
X111614278Y-114794704D01*
X111612118Y-114809265D01*
X111608541Y-114823544D01*
X111603582Y-114837404D01*
X111597288Y-114850711D01*
X111589720Y-114863337D01*
X111580952Y-114875160D01*
X111571066Y-114886067D01*
X111560159Y-114895953D01*
X111548336Y-114904721D01*
X111535710Y-114912289D01*
X111522403Y-114918583D01*
X111508543Y-114923542D01*
X111494264Y-114927119D01*
X111479703Y-114929279D01*
X111465000Y-114930001D01*
X111065000Y-114930001D01*
X111050297Y-114929279D01*
X111035736Y-114927119D01*
X111021457Y-114923542D01*
X111007597Y-114918583D01*
X110994290Y-114912289D01*
X110981664Y-114904721D01*
X110969841Y-114895953D01*
X110958934Y-114886067D01*
X110949048Y-114875160D01*
X110940280Y-114863337D01*
X110932712Y-114850711D01*
X110926418Y-114837404D01*
X110921459Y-114823544D01*
X110917882Y-114809265D01*
X110915722Y-114794704D01*
X110915000Y-114780001D01*
X110915000Y-114779999D01*
X110915722Y-114765296D01*
X110917882Y-114750735D01*
X110921459Y-114736456D01*
X110926418Y-114722596D01*
X110932712Y-114709289D01*
X110940280Y-114696663D01*
X110949048Y-114684840D01*
X110958934Y-114673933D01*
X110969841Y-114664047D01*
X110981664Y-114655279D01*
X110994290Y-114647711D01*
X111007597Y-114641417D01*
X111021457Y-114636458D01*
X111035736Y-114632881D01*
X111050297Y-114630721D01*
X111065000Y-114629999D01*
X111465000Y-114629999D01*
X111479703Y-114630721D01*
X111479703Y-114630721D01*
G37*
D26*
X111265000Y-114780000D03*
D24*
G36*
X111479703Y-114130721D02*
G01*
X111494264Y-114132881D01*
X111508543Y-114136458D01*
X111522403Y-114141417D01*
X111535710Y-114147711D01*
X111548336Y-114155279D01*
X111560159Y-114164047D01*
X111571066Y-114173933D01*
X111580952Y-114184840D01*
X111589720Y-114196663D01*
X111597288Y-114209289D01*
X111603582Y-114222596D01*
X111608541Y-114236456D01*
X111612118Y-114250735D01*
X111614278Y-114265296D01*
X111615000Y-114279999D01*
X111615000Y-114280001D01*
X111614278Y-114294704D01*
X111612118Y-114309265D01*
X111608541Y-114323544D01*
X111603582Y-114337404D01*
X111597288Y-114350711D01*
X111589720Y-114363337D01*
X111580952Y-114375160D01*
X111571066Y-114386067D01*
X111560159Y-114395953D01*
X111548336Y-114404721D01*
X111535710Y-114412289D01*
X111522403Y-114418583D01*
X111508543Y-114423542D01*
X111494264Y-114427119D01*
X111479703Y-114429279D01*
X111465000Y-114430001D01*
X111065000Y-114430001D01*
X111050297Y-114429279D01*
X111035736Y-114427119D01*
X111021457Y-114423542D01*
X111007597Y-114418583D01*
X110994290Y-114412289D01*
X110981664Y-114404721D01*
X110969841Y-114395953D01*
X110958934Y-114386067D01*
X110949048Y-114375160D01*
X110940280Y-114363337D01*
X110932712Y-114350711D01*
X110926418Y-114337404D01*
X110921459Y-114323544D01*
X110917882Y-114309265D01*
X110915722Y-114294704D01*
X110915000Y-114280001D01*
X110915000Y-114279999D01*
X110915722Y-114265296D01*
X110917882Y-114250735D01*
X110921459Y-114236456D01*
X110926418Y-114222596D01*
X110932712Y-114209289D01*
X110940280Y-114196663D01*
X110949048Y-114184840D01*
X110958934Y-114173933D01*
X110969841Y-114164047D01*
X110981664Y-114155279D01*
X110994290Y-114147711D01*
X111007597Y-114141417D01*
X111021457Y-114136458D01*
X111035736Y-114132881D01*
X111050297Y-114130721D01*
X111065000Y-114129999D01*
X111465000Y-114129999D01*
X111479703Y-114130721D01*
X111479703Y-114130721D01*
G37*
D26*
X111265000Y-114280000D03*
D24*
G36*
X111479703Y-113630721D02*
G01*
X111494264Y-113632881D01*
X111508543Y-113636458D01*
X111522403Y-113641417D01*
X111535710Y-113647711D01*
X111548336Y-113655279D01*
X111560159Y-113664047D01*
X111571066Y-113673933D01*
X111580952Y-113684840D01*
X111589720Y-113696663D01*
X111597288Y-113709289D01*
X111603582Y-113722596D01*
X111608541Y-113736456D01*
X111612118Y-113750735D01*
X111614278Y-113765296D01*
X111615000Y-113779999D01*
X111615000Y-113780001D01*
X111614278Y-113794704D01*
X111612118Y-113809265D01*
X111608541Y-113823544D01*
X111603582Y-113837404D01*
X111597288Y-113850711D01*
X111589720Y-113863337D01*
X111580952Y-113875160D01*
X111571066Y-113886067D01*
X111560159Y-113895953D01*
X111548336Y-113904721D01*
X111535710Y-113912289D01*
X111522403Y-113918583D01*
X111508543Y-113923542D01*
X111494264Y-113927119D01*
X111479703Y-113929279D01*
X111465000Y-113930001D01*
X111065000Y-113930001D01*
X111050297Y-113929279D01*
X111035736Y-113927119D01*
X111021457Y-113923542D01*
X111007597Y-113918583D01*
X110994290Y-113912289D01*
X110981664Y-113904721D01*
X110969841Y-113895953D01*
X110958934Y-113886067D01*
X110949048Y-113875160D01*
X110940280Y-113863337D01*
X110932712Y-113850711D01*
X110926418Y-113837404D01*
X110921459Y-113823544D01*
X110917882Y-113809265D01*
X110915722Y-113794704D01*
X110915000Y-113780001D01*
X110915000Y-113779999D01*
X110915722Y-113765296D01*
X110917882Y-113750735D01*
X110921459Y-113736456D01*
X110926418Y-113722596D01*
X110932712Y-113709289D01*
X110940280Y-113696663D01*
X110949048Y-113684840D01*
X110958934Y-113673933D01*
X110969841Y-113664047D01*
X110981664Y-113655279D01*
X110994290Y-113647711D01*
X111007597Y-113641417D01*
X111021457Y-113636458D01*
X111035736Y-113632881D01*
X111050297Y-113630721D01*
X111065000Y-113629999D01*
X111465000Y-113629999D01*
X111479703Y-113630721D01*
X111479703Y-113630721D01*
G37*
D26*
X111265000Y-113780000D03*
D24*
G36*
X111479703Y-113130721D02*
G01*
X111494264Y-113132881D01*
X111508543Y-113136458D01*
X111522403Y-113141417D01*
X111535710Y-113147711D01*
X111548336Y-113155279D01*
X111560159Y-113164047D01*
X111571066Y-113173933D01*
X111580952Y-113184840D01*
X111589720Y-113196663D01*
X111597288Y-113209289D01*
X111603582Y-113222596D01*
X111608541Y-113236456D01*
X111612118Y-113250735D01*
X111614278Y-113265296D01*
X111615000Y-113279999D01*
X111615000Y-113280001D01*
X111614278Y-113294704D01*
X111612118Y-113309265D01*
X111608541Y-113323544D01*
X111603582Y-113337404D01*
X111597288Y-113350711D01*
X111589720Y-113363337D01*
X111580952Y-113375160D01*
X111571066Y-113386067D01*
X111560159Y-113395953D01*
X111548336Y-113404721D01*
X111535710Y-113412289D01*
X111522403Y-113418583D01*
X111508543Y-113423542D01*
X111494264Y-113427119D01*
X111479703Y-113429279D01*
X111465000Y-113430001D01*
X111065000Y-113430001D01*
X111050297Y-113429279D01*
X111035736Y-113427119D01*
X111021457Y-113423542D01*
X111007597Y-113418583D01*
X110994290Y-113412289D01*
X110981664Y-113404721D01*
X110969841Y-113395953D01*
X110958934Y-113386067D01*
X110949048Y-113375160D01*
X110940280Y-113363337D01*
X110932712Y-113350711D01*
X110926418Y-113337404D01*
X110921459Y-113323544D01*
X110917882Y-113309265D01*
X110915722Y-113294704D01*
X110915000Y-113280001D01*
X110915000Y-113279999D01*
X110915722Y-113265296D01*
X110917882Y-113250735D01*
X110921459Y-113236456D01*
X110926418Y-113222596D01*
X110932712Y-113209289D01*
X110940280Y-113196663D01*
X110949048Y-113184840D01*
X110958934Y-113173933D01*
X110969841Y-113164047D01*
X110981664Y-113155279D01*
X110994290Y-113147711D01*
X111007597Y-113141417D01*
X111021457Y-113136458D01*
X111035736Y-113132881D01*
X111050297Y-113130721D01*
X111065000Y-113129999D01*
X111465000Y-113129999D01*
X111479703Y-113130721D01*
X111479703Y-113130721D01*
G37*
D26*
X111265000Y-113280000D03*
D24*
G36*
X111479703Y-112630721D02*
G01*
X111494264Y-112632881D01*
X111508543Y-112636458D01*
X111522403Y-112641417D01*
X111535710Y-112647711D01*
X111548336Y-112655279D01*
X111560159Y-112664047D01*
X111571066Y-112673933D01*
X111580952Y-112684840D01*
X111589720Y-112696663D01*
X111597288Y-112709289D01*
X111603582Y-112722596D01*
X111608541Y-112736456D01*
X111612118Y-112750735D01*
X111614278Y-112765296D01*
X111615000Y-112779999D01*
X111615000Y-112780001D01*
X111614278Y-112794704D01*
X111612118Y-112809265D01*
X111608541Y-112823544D01*
X111603582Y-112837404D01*
X111597288Y-112850711D01*
X111589720Y-112863337D01*
X111580952Y-112875160D01*
X111571066Y-112886067D01*
X111560159Y-112895953D01*
X111548336Y-112904721D01*
X111535710Y-112912289D01*
X111522403Y-112918583D01*
X111508543Y-112923542D01*
X111494264Y-112927119D01*
X111479703Y-112929279D01*
X111465000Y-112930001D01*
X111065000Y-112930001D01*
X111050297Y-112929279D01*
X111035736Y-112927119D01*
X111021457Y-112923542D01*
X111007597Y-112918583D01*
X110994290Y-112912289D01*
X110981664Y-112904721D01*
X110969841Y-112895953D01*
X110958934Y-112886067D01*
X110949048Y-112875160D01*
X110940280Y-112863337D01*
X110932712Y-112850711D01*
X110926418Y-112837404D01*
X110921459Y-112823544D01*
X110917882Y-112809265D01*
X110915722Y-112794704D01*
X110915000Y-112780001D01*
X110915000Y-112779999D01*
X110915722Y-112765296D01*
X110917882Y-112750735D01*
X110921459Y-112736456D01*
X110926418Y-112722596D01*
X110932712Y-112709289D01*
X110940280Y-112696663D01*
X110949048Y-112684840D01*
X110958934Y-112673933D01*
X110969841Y-112664047D01*
X110981664Y-112655279D01*
X110994290Y-112647711D01*
X111007597Y-112641417D01*
X111021457Y-112636458D01*
X111035736Y-112632881D01*
X111050297Y-112630721D01*
X111065000Y-112629999D01*
X111465000Y-112629999D01*
X111479703Y-112630721D01*
X111479703Y-112630721D01*
G37*
D26*
X111265000Y-112780000D03*
D24*
G36*
X111479703Y-112130721D02*
G01*
X111494264Y-112132881D01*
X111508543Y-112136458D01*
X111522403Y-112141417D01*
X111535710Y-112147711D01*
X111548336Y-112155279D01*
X111560159Y-112164047D01*
X111571066Y-112173933D01*
X111580952Y-112184840D01*
X111589720Y-112196663D01*
X111597288Y-112209289D01*
X111603582Y-112222596D01*
X111608541Y-112236456D01*
X111612118Y-112250735D01*
X111614278Y-112265296D01*
X111615000Y-112279999D01*
X111615000Y-112280001D01*
X111614278Y-112294704D01*
X111612118Y-112309265D01*
X111608541Y-112323544D01*
X111603582Y-112337404D01*
X111597288Y-112350711D01*
X111589720Y-112363337D01*
X111580952Y-112375160D01*
X111571066Y-112386067D01*
X111560159Y-112395953D01*
X111548336Y-112404721D01*
X111535710Y-112412289D01*
X111522403Y-112418583D01*
X111508543Y-112423542D01*
X111494264Y-112427119D01*
X111479703Y-112429279D01*
X111465000Y-112430001D01*
X111065000Y-112430001D01*
X111050297Y-112429279D01*
X111035736Y-112427119D01*
X111021457Y-112423542D01*
X111007597Y-112418583D01*
X110994290Y-112412289D01*
X110981664Y-112404721D01*
X110969841Y-112395953D01*
X110958934Y-112386067D01*
X110949048Y-112375160D01*
X110940280Y-112363337D01*
X110932712Y-112350711D01*
X110926418Y-112337404D01*
X110921459Y-112323544D01*
X110917882Y-112309265D01*
X110915722Y-112294704D01*
X110915000Y-112280001D01*
X110915000Y-112279999D01*
X110915722Y-112265296D01*
X110917882Y-112250735D01*
X110921459Y-112236456D01*
X110926418Y-112222596D01*
X110932712Y-112209289D01*
X110940280Y-112196663D01*
X110949048Y-112184840D01*
X110958934Y-112173933D01*
X110969841Y-112164047D01*
X110981664Y-112155279D01*
X110994290Y-112147711D01*
X111007597Y-112141417D01*
X111021457Y-112136458D01*
X111035736Y-112132881D01*
X111050297Y-112130721D01*
X111065000Y-112129999D01*
X111465000Y-112129999D01*
X111479703Y-112130721D01*
X111479703Y-112130721D01*
G37*
D26*
X111265000Y-112280000D03*
D24*
G36*
X111479703Y-111630721D02*
G01*
X111494264Y-111632881D01*
X111508543Y-111636458D01*
X111522403Y-111641417D01*
X111535710Y-111647711D01*
X111548336Y-111655279D01*
X111560159Y-111664047D01*
X111571066Y-111673933D01*
X111580952Y-111684840D01*
X111589720Y-111696663D01*
X111597288Y-111709289D01*
X111603582Y-111722596D01*
X111608541Y-111736456D01*
X111612118Y-111750735D01*
X111614278Y-111765296D01*
X111615000Y-111779999D01*
X111615000Y-111780001D01*
X111614278Y-111794704D01*
X111612118Y-111809265D01*
X111608541Y-111823544D01*
X111603582Y-111837404D01*
X111597288Y-111850711D01*
X111589720Y-111863337D01*
X111580952Y-111875160D01*
X111571066Y-111886067D01*
X111560159Y-111895953D01*
X111548336Y-111904721D01*
X111535710Y-111912289D01*
X111522403Y-111918583D01*
X111508543Y-111923542D01*
X111494264Y-111927119D01*
X111479703Y-111929279D01*
X111465000Y-111930001D01*
X111065000Y-111930001D01*
X111050297Y-111929279D01*
X111035736Y-111927119D01*
X111021457Y-111923542D01*
X111007597Y-111918583D01*
X110994290Y-111912289D01*
X110981664Y-111904721D01*
X110969841Y-111895953D01*
X110958934Y-111886067D01*
X110949048Y-111875160D01*
X110940280Y-111863337D01*
X110932712Y-111850711D01*
X110926418Y-111837404D01*
X110921459Y-111823544D01*
X110917882Y-111809265D01*
X110915722Y-111794704D01*
X110915000Y-111780001D01*
X110915000Y-111779999D01*
X110915722Y-111765296D01*
X110917882Y-111750735D01*
X110921459Y-111736456D01*
X110926418Y-111722596D01*
X110932712Y-111709289D01*
X110940280Y-111696663D01*
X110949048Y-111684840D01*
X110958934Y-111673933D01*
X110969841Y-111664047D01*
X110981664Y-111655279D01*
X110994290Y-111647711D01*
X111007597Y-111641417D01*
X111021457Y-111636458D01*
X111035736Y-111632881D01*
X111050297Y-111630721D01*
X111065000Y-111629999D01*
X111465000Y-111629999D01*
X111479703Y-111630721D01*
X111479703Y-111630721D01*
G37*
D26*
X111265000Y-111780000D03*
D24*
G36*
X111479703Y-111130721D02*
G01*
X111494264Y-111132881D01*
X111508543Y-111136458D01*
X111522403Y-111141417D01*
X111535710Y-111147711D01*
X111548336Y-111155279D01*
X111560159Y-111164047D01*
X111571066Y-111173933D01*
X111580952Y-111184840D01*
X111589720Y-111196663D01*
X111597288Y-111209289D01*
X111603582Y-111222596D01*
X111608541Y-111236456D01*
X111612118Y-111250735D01*
X111614278Y-111265296D01*
X111615000Y-111279999D01*
X111615000Y-111280001D01*
X111614278Y-111294704D01*
X111612118Y-111309265D01*
X111608541Y-111323544D01*
X111603582Y-111337404D01*
X111597288Y-111350711D01*
X111589720Y-111363337D01*
X111580952Y-111375160D01*
X111571066Y-111386067D01*
X111560159Y-111395953D01*
X111548336Y-111404721D01*
X111535710Y-111412289D01*
X111522403Y-111418583D01*
X111508543Y-111423542D01*
X111494264Y-111427119D01*
X111479703Y-111429279D01*
X111465000Y-111430001D01*
X111065000Y-111430001D01*
X111050297Y-111429279D01*
X111035736Y-111427119D01*
X111021457Y-111423542D01*
X111007597Y-111418583D01*
X110994290Y-111412289D01*
X110981664Y-111404721D01*
X110969841Y-111395953D01*
X110958934Y-111386067D01*
X110949048Y-111375160D01*
X110940280Y-111363337D01*
X110932712Y-111350711D01*
X110926418Y-111337404D01*
X110921459Y-111323544D01*
X110917882Y-111309265D01*
X110915722Y-111294704D01*
X110915000Y-111280001D01*
X110915000Y-111279999D01*
X110915722Y-111265296D01*
X110917882Y-111250735D01*
X110921459Y-111236456D01*
X110926418Y-111222596D01*
X110932712Y-111209289D01*
X110940280Y-111196663D01*
X110949048Y-111184840D01*
X110958934Y-111173933D01*
X110969841Y-111164047D01*
X110981664Y-111155279D01*
X110994290Y-111147711D01*
X111007597Y-111141417D01*
X111021457Y-111136458D01*
X111035736Y-111132881D01*
X111050297Y-111130721D01*
X111065000Y-111129999D01*
X111465000Y-111129999D01*
X111479703Y-111130721D01*
X111479703Y-111130721D01*
G37*
D26*
X111265000Y-111280000D03*
%TD*%
D27*
%TO.C,MDB1*%
X133350000Y-74930000D03*
X130810000Y-74930000D03*
X128270000Y-74930000D03*
X125730000Y-74930000D03*
X123190000Y-74930000D03*
X120650000Y-74930000D03*
X118110000Y-74930000D03*
X115570000Y-74930000D03*
X113030000Y-74930000D03*
X133350000Y-135890000D03*
X130810000Y-135890000D03*
X128270000Y-135890000D03*
X125730000Y-135890000D03*
X123190000Y-135890000D03*
X120650000Y-135890000D03*
X118110000Y-135890000D03*
X115570000Y-135890000D03*
X113030000Y-135890000D03*
D28*
X165100000Y-74930000D03*
X165100000Y-135890000D03*
X73660000Y-130810000D03*
X73660000Y-80010000D03*
D27*
X72390000Y-135890000D03*
X74930000Y-135890000D03*
X77470000Y-135890000D03*
X80010000Y-135890000D03*
X82550000Y-135890000D03*
X85090000Y-135890000D03*
X87630000Y-135890000D03*
X90170000Y-135890000D03*
X92710000Y-135890000D03*
X95250000Y-135890000D03*
X97790000Y-135890000D03*
X100330000Y-135890000D03*
X102870000Y-135890000D03*
X105410000Y-135890000D03*
X107950000Y-135890000D03*
X110490000Y-135890000D03*
X110490000Y-74930000D03*
X107950000Y-74930000D03*
X105410000Y-74930000D03*
X102870000Y-74930000D03*
X100330000Y-74930000D03*
X97790000Y-74930000D03*
X95250000Y-74930000D03*
X92710000Y-74930000D03*
X90170000Y-74930000D03*
X87630000Y-74930000D03*
X85090000Y-74930000D03*
X82550000Y-74930000D03*
X80010000Y-74930000D03*
D29*
X72390000Y-74930000D03*
D27*
X77470000Y-74930000D03*
X74930000Y-74930000D03*
%TD*%
D30*
%TO.C,CLK1*%
X130370000Y-110490000D03*
X130370000Y-115570000D03*
X126170000Y-115570000D03*
X126170000Y-110490000D03*
%TD*%
D31*
%TO.C,P1*%
X186131200Y-109905800D03*
X186131200Y-100914200D03*
D32*
X179146200Y-105410000D03*
D33*
X184632600Y-105410000D03*
D34*
X188137800Y-105410000D03*
%TD*%
D35*
%TO.C,REG1*%
X73660000Y-123190000D03*
X78740000Y-123190000D03*
X76200000Y-123190000D03*
%TD*%
D36*
%TO.C,U4*%
X163800000Y-98745000D03*
X163800000Y-100645000D03*
X166400000Y-100645000D03*
X166400000Y-99695000D03*
X166400000Y-98745000D03*
%TD*%
%TO.C,U7*%
X130780000Y-98745000D03*
X130780000Y-100645000D03*
X133380000Y-100645000D03*
X133380000Y-99695000D03*
X133380000Y-98745000D03*
%TD*%
%TO.C,U10*%
X97760000Y-98745000D03*
X97760000Y-100645000D03*
X100360000Y-100645000D03*
X100360000Y-99695000D03*
X100360000Y-98745000D03*
%TD*%
D37*
%TO.C,T1*%
X172720000Y-83820000D03*
X157480000Y-83820000D03*
X162560000Y-83820000D03*
X167640000Y-83820000D03*
%TD*%
D38*
%TO.C,T2*%
X170815000Y-123825000D03*
X159385000Y-123825000D03*
X163195000Y-123825000D03*
X167005000Y-123825000D03*
%TD*%
D37*
%TO.C,T3*%
X139700000Y-83820000D03*
X124460000Y-83820000D03*
X129540000Y-83820000D03*
X134620000Y-83820000D03*
%TD*%
D38*
%TO.C,T4*%
X137795000Y-123825000D03*
X126365000Y-123825000D03*
X130175000Y-123825000D03*
X133985000Y-123825000D03*
%TD*%
D37*
%TO.C,T5*%
X106680000Y-83820000D03*
X91440000Y-83820000D03*
X96520000Y-83820000D03*
X101600000Y-83820000D03*
%TD*%
D38*
%TO.C,T6*%
X104775000Y-123825000D03*
X93345000Y-123825000D03*
X97155000Y-123825000D03*
X100965000Y-123825000D03*
%TD*%
D39*
%TO.C,U2*%
X116520000Y-102840000D03*
X114620000Y-102840000D03*
X114620000Y-105440000D03*
X115570000Y-105440000D03*
X116520000Y-105440000D03*
%TD*%
D40*
%TO.C,U3*%
X74725000Y-104775000D03*
X74725000Y-103505000D03*
X74725000Y-102235000D03*
X74725000Y-100965000D03*
X74725000Y-99695000D03*
X74725000Y-98425000D03*
X74725000Y-97155000D03*
X74725000Y-95885000D03*
X74725000Y-94615000D03*
X74725000Y-93345000D03*
X84025000Y-93345000D03*
X84025000Y-94615000D03*
X84025000Y-95885000D03*
X84025000Y-97155000D03*
X84025000Y-98425000D03*
X84025000Y-99695000D03*
X84025000Y-100965000D03*
X84025000Y-102235000D03*
X84025000Y-103505000D03*
X84025000Y-104775000D03*
%TD*%
D41*
%TO.C,U6*%
X163195000Y-132330000D03*
X164465000Y-132330000D03*
X165735000Y-132330000D03*
X167005000Y-132330000D03*
X167005000Y-126750000D03*
X165735000Y-126750000D03*
X164465000Y-126750000D03*
X163195000Y-126750000D03*
%TD*%
%TO.C,U9*%
X130175000Y-132330000D03*
X131445000Y-132330000D03*
X132715000Y-132330000D03*
X133985000Y-132330000D03*
X133985000Y-126750000D03*
X132715000Y-126750000D03*
X131445000Y-126750000D03*
X130175000Y-126750000D03*
%TD*%
%TO.C,U12*%
X97155000Y-132330000D03*
X98425000Y-132330000D03*
X99695000Y-132330000D03*
X100965000Y-132330000D03*
X100965000Y-126750000D03*
X99695000Y-126750000D03*
X98425000Y-126750000D03*
X97155000Y-126750000D03*
%TD*%
M02*
