M48
;DRILL file {KiCad no-vcs-found-1929727~60~ubuntu16.04.1} date Wed Oct 25 16:34:51 2017
;FORMAT={-:-/ absolute / inch / decimal}
FMAT,2
INCH,TZ
T1C0.025
T2C0.039
T3C0.043
T4C0.047
T5C0.055
T6C0.061
T7C0.063
T8C0.079
T9C0.106
T10C0.124
T11C0.130
%
G90
G05
M72
T1
X3.4122Y-4.4644
X3.4241Y-4.2589
X3.436Y-4.5077
X3.4492Y-4.5572
X3.4689Y-4.2511
X3.5501Y-4.2495
X3.7569Y-4.8919
X3.8195Y-4.2513
X4.0589Y-4.7257
X4.1473Y-4.5842
X4.1731Y-4.5164
X4.3381Y-4.5775
X4.3616Y-4.423
X4.3657Y-4.4852
X4.3757Y-3.5762
X4.4544Y-4.3602
X4.5228Y-4.6935
X4.53Y-4.3131
X4.6182Y-4.679
X4.6622Y-4.6396
X4.6832Y-4.6994
X4.717Y-4.4018
X4.7455Y-4.6599
X4.7558Y-4.4384
X5.2784Y-5.0948
X5.3785Y-4.3271
T2
X2.9Y-4.85
X3.Y-4.85
X3.1Y-4.85
T3
X2.85Y-2.95
X2.85Y-5.35
X2.95Y-2.95
X2.95Y-5.35
X3.05Y-2.95
X3.05Y-5.35
X3.15Y-2.95
X3.15Y-5.35
X3.25Y-2.95
X3.25Y-5.35
X3.35Y-2.95
X3.35Y-5.35
X3.45Y-2.95
X3.45Y-5.35
X3.55Y-2.95
X3.55Y-5.35
X3.65Y-2.95
X3.65Y-5.35
X3.75Y-2.95
X3.75Y-5.35
X3.85Y-2.95
X3.85Y-5.35
X3.95Y-2.95
X3.95Y-5.35
X4.05Y-2.95
X4.05Y-5.35
X4.15Y-2.95
X4.15Y-5.35
X4.25Y-2.95
X4.25Y-5.35
X4.35Y-2.95
X4.35Y-5.35
X4.45Y-2.95
X4.45Y-5.35
X4.55Y-2.95
X4.55Y-5.35
X4.65Y-2.95
X4.65Y-5.35
X4.75Y-2.95
X4.75Y-5.35
X4.85Y-2.95
X4.85Y-5.35
X4.95Y-2.95
X4.95Y-5.35
X5.05Y-2.95
X5.05Y-5.35
X5.15Y-2.95
X5.15Y-5.35
X5.25Y-2.95
X5.25Y-5.35
T4
X3.675Y-4.875
X3.825Y-4.875
X3.975Y-4.875
X4.125Y-4.875
X4.975Y-4.875
X5.125Y-4.875
X5.275Y-4.875
X5.425Y-4.875
X6.275Y-4.875
X6.425Y-4.875
X6.575Y-4.875
X6.725Y-4.875
T5
X3.6Y-3.3
X3.8Y-3.3
X4.Y-3.3
X4.2Y-3.3
X4.9Y-3.3
X5.1Y-3.3
X5.3Y-3.3
X5.5Y-3.3
X6.2Y-3.3
X6.4Y-3.3
X6.6Y-3.3
X6.8Y-3.3
T6
X3.55Y-3.65
X3.55Y-4.15
X3.65Y-3.65
X3.65Y-4.15
X3.75Y-3.65
X3.75Y-4.15
X3.85Y-3.65
X3.85Y-4.15
X3.95Y-3.65
X3.95Y-4.15
X4.05Y-3.65
X4.05Y-4.15
X4.15Y-3.65
X4.15Y-4.15
X4.25Y-3.65
X4.25Y-4.15
X6.15Y-3.65
X6.15Y-4.15
X6.25Y-3.65
X6.25Y-4.15
X6.35Y-3.65
X6.35Y-4.15
X6.45Y-3.65
X6.45Y-4.15
X6.55Y-3.65
X6.55Y-4.15
X6.65Y-3.65
X6.65Y-4.15
X6.75Y-3.65
X6.75Y-4.15
X6.85Y-3.65
X6.85Y-4.15
X4.85Y-3.65
X4.85Y-4.15
X4.95Y-3.65
X4.95Y-4.15
X5.05Y-3.65
X5.05Y-4.15
X5.15Y-3.65
X5.15Y-4.15
X5.25Y-3.65
X5.25Y-4.15
X5.35Y-3.65
X5.35Y-4.15
X5.45Y-3.65
X5.45Y-4.15
X5.55Y-3.65
X5.55Y-4.15
T7
X7.407Y-4.15
T8
X4.55Y-4.5
T9
X7.289Y-4.15
X7.328Y-3.973
X7.328Y-4.327
T10
X7.053Y-4.15
T11
X2.9Y-3.15
X2.9Y-5.15
X6.5Y-2.95
X6.5Y-5.35
T0
M30
