%TF.GenerationSoftware,KiCad,Pcbnew,5.1.0-unknown-2447933~82~ubuntu18.04.1*%
%TF.CreationDate,2019-04-02T11:04:36-04:00*%
%TF.ProjectId,stepper_controller_5x3,73746570-7065-4725-9f63-6f6e74726f6c,1.2*%
%TF.SameCoordinates,Original*%
%TF.FileFunction,Paste,Bot*%
%TF.FilePolarity,Positive*%
%FSLAX46Y46*%
G04 Gerber Fmt 4.6, Leading zero omitted, Abs format (unit mm)*
G04 Created by KiCad (PCBNEW 5.1.0-unknown-2447933~82~ubuntu18.04.1) date 2019-04-02 11:04:36*
%MOMM*%
%LPD*%
G04 APERTURE LIST*
%ADD10C,0.228600*%
%ADD11C,0.100000*%
%ADD12C,2.587201*%
%ADD13C,0.300000*%
%ADD14R,2.540000X1.270000*%
%ADD15R,1.270000X2.540000*%
%ADD16R,1.800000X2.000000*%
%ADD17R,1.600000X1.440000*%
%ADD18R,3.800000X4.960000*%
%ADD19R,1.600200X0.787400*%
%ADD20R,0.787400X1.600200*%
%ADD21R,1.100000X0.600000*%
%ADD22R,1.910000X0.640000*%
%ADD23R,0.558800X1.330960*%
%ADD24R,0.600000X1.100000*%
%ADD25R,0.600000X2.000000*%
G04 APERTURE END LIST*
D10*
X191135000Y-71755000D02*
X69850000Y-71755000D01*
X191135000Y-139065000D02*
X191135000Y-71755000D01*
X69850000Y-139065000D02*
X191135000Y-139065000D01*
X69850000Y-71755000D02*
X69850000Y-139065000D01*
D11*
%TO.C,U1*%
G36*
X116630239Y-113007646D02*
G01*
X116655354Y-113011371D01*
X116679982Y-113017540D01*
X116703888Y-113026094D01*
X116726840Y-113036949D01*
X116748617Y-113050002D01*
X116769010Y-113065127D01*
X116787823Y-113082177D01*
X116804873Y-113100990D01*
X116819998Y-113121383D01*
X116833051Y-113143160D01*
X116843906Y-113166112D01*
X116852460Y-113190018D01*
X116858629Y-113214646D01*
X116862354Y-113239761D01*
X116863600Y-113265120D01*
X116863600Y-115334880D01*
X116862354Y-115360239D01*
X116858629Y-115385354D01*
X116852460Y-115409982D01*
X116843906Y-115433888D01*
X116833051Y-115456840D01*
X116819998Y-115478617D01*
X116804873Y-115499010D01*
X116787823Y-115517823D01*
X116769010Y-115534873D01*
X116748617Y-115549998D01*
X116726840Y-115563051D01*
X116703888Y-115573906D01*
X116679982Y-115582460D01*
X116655354Y-115588629D01*
X116630239Y-115592354D01*
X116604880Y-115593600D01*
X114535120Y-115593600D01*
X114509761Y-115592354D01*
X114484646Y-115588629D01*
X114460018Y-115582460D01*
X114436112Y-115573906D01*
X114413160Y-115563051D01*
X114391383Y-115549998D01*
X114370990Y-115534873D01*
X114352177Y-115517823D01*
X114335127Y-115499010D01*
X114320002Y-115478617D01*
X114306949Y-115456840D01*
X114296094Y-115433888D01*
X114287540Y-115409982D01*
X114281371Y-115385354D01*
X114277646Y-115360239D01*
X114276400Y-115334880D01*
X114276400Y-113265120D01*
X114277646Y-113239761D01*
X114281371Y-113214646D01*
X114287540Y-113190018D01*
X114296094Y-113166112D01*
X114306949Y-113143160D01*
X114320002Y-113121383D01*
X114335127Y-113100990D01*
X114352177Y-113082177D01*
X114370990Y-113065127D01*
X114391383Y-113050002D01*
X114413160Y-113036949D01*
X114436112Y-113026094D01*
X114460018Y-113017540D01*
X114484646Y-113011371D01*
X114509761Y-113007646D01*
X114535120Y-113006400D01*
X116604880Y-113006400D01*
X116630239Y-113007646D01*
X116630239Y-113007646D01*
G37*
D12*
X115570000Y-114300000D03*
D11*
G36*
X113834704Y-111550722D02*
G01*
X113849265Y-111552882D01*
X113863544Y-111556459D01*
X113877404Y-111561418D01*
X113890711Y-111567712D01*
X113903337Y-111575280D01*
X113915160Y-111584048D01*
X113926067Y-111593934D01*
X113935953Y-111604841D01*
X113944721Y-111616664D01*
X113952289Y-111629290D01*
X113958583Y-111642597D01*
X113963542Y-111656457D01*
X113967119Y-111670736D01*
X113969279Y-111685297D01*
X113970001Y-111700000D01*
X113970001Y-112100000D01*
X113969279Y-112114703D01*
X113967119Y-112129264D01*
X113963542Y-112143543D01*
X113958583Y-112157403D01*
X113952289Y-112170710D01*
X113944721Y-112183336D01*
X113935953Y-112195159D01*
X113926067Y-112206066D01*
X113915160Y-112215952D01*
X113903337Y-112224720D01*
X113890711Y-112232288D01*
X113877404Y-112238582D01*
X113863544Y-112243541D01*
X113849265Y-112247118D01*
X113834704Y-112249278D01*
X113820001Y-112250000D01*
X113819999Y-112250000D01*
X113805296Y-112249278D01*
X113790735Y-112247118D01*
X113776456Y-112243541D01*
X113762596Y-112238582D01*
X113749289Y-112232288D01*
X113736663Y-112224720D01*
X113724840Y-112215952D01*
X113713933Y-112206066D01*
X113704047Y-112195159D01*
X113695279Y-112183336D01*
X113687711Y-112170710D01*
X113681417Y-112157403D01*
X113676458Y-112143543D01*
X113672881Y-112129264D01*
X113670721Y-112114703D01*
X113669999Y-112100000D01*
X113669999Y-111700000D01*
X113670721Y-111685297D01*
X113672881Y-111670736D01*
X113676458Y-111656457D01*
X113681417Y-111642597D01*
X113687711Y-111629290D01*
X113695279Y-111616664D01*
X113704047Y-111604841D01*
X113713933Y-111593934D01*
X113724840Y-111584048D01*
X113736663Y-111575280D01*
X113749289Y-111567712D01*
X113762596Y-111561418D01*
X113776456Y-111556459D01*
X113790735Y-111552882D01*
X113805296Y-111550722D01*
X113819999Y-111550000D01*
X113820001Y-111550000D01*
X113834704Y-111550722D01*
X113834704Y-111550722D01*
G37*
D13*
X113820000Y-111900000D03*
D11*
G36*
X114334704Y-111550722D02*
G01*
X114349265Y-111552882D01*
X114363544Y-111556459D01*
X114377404Y-111561418D01*
X114390711Y-111567712D01*
X114403337Y-111575280D01*
X114415160Y-111584048D01*
X114426067Y-111593934D01*
X114435953Y-111604841D01*
X114444721Y-111616664D01*
X114452289Y-111629290D01*
X114458583Y-111642597D01*
X114463542Y-111656457D01*
X114467119Y-111670736D01*
X114469279Y-111685297D01*
X114470001Y-111700000D01*
X114470001Y-112100000D01*
X114469279Y-112114703D01*
X114467119Y-112129264D01*
X114463542Y-112143543D01*
X114458583Y-112157403D01*
X114452289Y-112170710D01*
X114444721Y-112183336D01*
X114435953Y-112195159D01*
X114426067Y-112206066D01*
X114415160Y-112215952D01*
X114403337Y-112224720D01*
X114390711Y-112232288D01*
X114377404Y-112238582D01*
X114363544Y-112243541D01*
X114349265Y-112247118D01*
X114334704Y-112249278D01*
X114320001Y-112250000D01*
X114319999Y-112250000D01*
X114305296Y-112249278D01*
X114290735Y-112247118D01*
X114276456Y-112243541D01*
X114262596Y-112238582D01*
X114249289Y-112232288D01*
X114236663Y-112224720D01*
X114224840Y-112215952D01*
X114213933Y-112206066D01*
X114204047Y-112195159D01*
X114195279Y-112183336D01*
X114187711Y-112170710D01*
X114181417Y-112157403D01*
X114176458Y-112143543D01*
X114172881Y-112129264D01*
X114170721Y-112114703D01*
X114169999Y-112100000D01*
X114169999Y-111700000D01*
X114170721Y-111685297D01*
X114172881Y-111670736D01*
X114176458Y-111656457D01*
X114181417Y-111642597D01*
X114187711Y-111629290D01*
X114195279Y-111616664D01*
X114204047Y-111604841D01*
X114213933Y-111593934D01*
X114224840Y-111584048D01*
X114236663Y-111575280D01*
X114249289Y-111567712D01*
X114262596Y-111561418D01*
X114276456Y-111556459D01*
X114290735Y-111552882D01*
X114305296Y-111550722D01*
X114319999Y-111550000D01*
X114320001Y-111550000D01*
X114334704Y-111550722D01*
X114334704Y-111550722D01*
G37*
D13*
X114320000Y-111900000D03*
D11*
G36*
X114834704Y-111550722D02*
G01*
X114849265Y-111552882D01*
X114863544Y-111556459D01*
X114877404Y-111561418D01*
X114890711Y-111567712D01*
X114903337Y-111575280D01*
X114915160Y-111584048D01*
X114926067Y-111593934D01*
X114935953Y-111604841D01*
X114944721Y-111616664D01*
X114952289Y-111629290D01*
X114958583Y-111642597D01*
X114963542Y-111656457D01*
X114967119Y-111670736D01*
X114969279Y-111685297D01*
X114970001Y-111700000D01*
X114970001Y-112100000D01*
X114969279Y-112114703D01*
X114967119Y-112129264D01*
X114963542Y-112143543D01*
X114958583Y-112157403D01*
X114952289Y-112170710D01*
X114944721Y-112183336D01*
X114935953Y-112195159D01*
X114926067Y-112206066D01*
X114915160Y-112215952D01*
X114903337Y-112224720D01*
X114890711Y-112232288D01*
X114877404Y-112238582D01*
X114863544Y-112243541D01*
X114849265Y-112247118D01*
X114834704Y-112249278D01*
X114820001Y-112250000D01*
X114819999Y-112250000D01*
X114805296Y-112249278D01*
X114790735Y-112247118D01*
X114776456Y-112243541D01*
X114762596Y-112238582D01*
X114749289Y-112232288D01*
X114736663Y-112224720D01*
X114724840Y-112215952D01*
X114713933Y-112206066D01*
X114704047Y-112195159D01*
X114695279Y-112183336D01*
X114687711Y-112170710D01*
X114681417Y-112157403D01*
X114676458Y-112143543D01*
X114672881Y-112129264D01*
X114670721Y-112114703D01*
X114669999Y-112100000D01*
X114669999Y-111700000D01*
X114670721Y-111685297D01*
X114672881Y-111670736D01*
X114676458Y-111656457D01*
X114681417Y-111642597D01*
X114687711Y-111629290D01*
X114695279Y-111616664D01*
X114704047Y-111604841D01*
X114713933Y-111593934D01*
X114724840Y-111584048D01*
X114736663Y-111575280D01*
X114749289Y-111567712D01*
X114762596Y-111561418D01*
X114776456Y-111556459D01*
X114790735Y-111552882D01*
X114805296Y-111550722D01*
X114819999Y-111550000D01*
X114820001Y-111550000D01*
X114834704Y-111550722D01*
X114834704Y-111550722D01*
G37*
D13*
X114820000Y-111900000D03*
D11*
G36*
X115334704Y-111550722D02*
G01*
X115349265Y-111552882D01*
X115363544Y-111556459D01*
X115377404Y-111561418D01*
X115390711Y-111567712D01*
X115403337Y-111575280D01*
X115415160Y-111584048D01*
X115426067Y-111593934D01*
X115435953Y-111604841D01*
X115444721Y-111616664D01*
X115452289Y-111629290D01*
X115458583Y-111642597D01*
X115463542Y-111656457D01*
X115467119Y-111670736D01*
X115469279Y-111685297D01*
X115470001Y-111700000D01*
X115470001Y-112100000D01*
X115469279Y-112114703D01*
X115467119Y-112129264D01*
X115463542Y-112143543D01*
X115458583Y-112157403D01*
X115452289Y-112170710D01*
X115444721Y-112183336D01*
X115435953Y-112195159D01*
X115426067Y-112206066D01*
X115415160Y-112215952D01*
X115403337Y-112224720D01*
X115390711Y-112232288D01*
X115377404Y-112238582D01*
X115363544Y-112243541D01*
X115349265Y-112247118D01*
X115334704Y-112249278D01*
X115320001Y-112250000D01*
X115319999Y-112250000D01*
X115305296Y-112249278D01*
X115290735Y-112247118D01*
X115276456Y-112243541D01*
X115262596Y-112238582D01*
X115249289Y-112232288D01*
X115236663Y-112224720D01*
X115224840Y-112215952D01*
X115213933Y-112206066D01*
X115204047Y-112195159D01*
X115195279Y-112183336D01*
X115187711Y-112170710D01*
X115181417Y-112157403D01*
X115176458Y-112143543D01*
X115172881Y-112129264D01*
X115170721Y-112114703D01*
X115169999Y-112100000D01*
X115169999Y-111700000D01*
X115170721Y-111685297D01*
X115172881Y-111670736D01*
X115176458Y-111656457D01*
X115181417Y-111642597D01*
X115187711Y-111629290D01*
X115195279Y-111616664D01*
X115204047Y-111604841D01*
X115213933Y-111593934D01*
X115224840Y-111584048D01*
X115236663Y-111575280D01*
X115249289Y-111567712D01*
X115262596Y-111561418D01*
X115276456Y-111556459D01*
X115290735Y-111552882D01*
X115305296Y-111550722D01*
X115319999Y-111550000D01*
X115320001Y-111550000D01*
X115334704Y-111550722D01*
X115334704Y-111550722D01*
G37*
D13*
X115320000Y-111900000D03*
D11*
G36*
X115834704Y-111550722D02*
G01*
X115849265Y-111552882D01*
X115863544Y-111556459D01*
X115877404Y-111561418D01*
X115890711Y-111567712D01*
X115903337Y-111575280D01*
X115915160Y-111584048D01*
X115926067Y-111593934D01*
X115935953Y-111604841D01*
X115944721Y-111616664D01*
X115952289Y-111629290D01*
X115958583Y-111642597D01*
X115963542Y-111656457D01*
X115967119Y-111670736D01*
X115969279Y-111685297D01*
X115970001Y-111700000D01*
X115970001Y-112100000D01*
X115969279Y-112114703D01*
X115967119Y-112129264D01*
X115963542Y-112143543D01*
X115958583Y-112157403D01*
X115952289Y-112170710D01*
X115944721Y-112183336D01*
X115935953Y-112195159D01*
X115926067Y-112206066D01*
X115915160Y-112215952D01*
X115903337Y-112224720D01*
X115890711Y-112232288D01*
X115877404Y-112238582D01*
X115863544Y-112243541D01*
X115849265Y-112247118D01*
X115834704Y-112249278D01*
X115820001Y-112250000D01*
X115819999Y-112250000D01*
X115805296Y-112249278D01*
X115790735Y-112247118D01*
X115776456Y-112243541D01*
X115762596Y-112238582D01*
X115749289Y-112232288D01*
X115736663Y-112224720D01*
X115724840Y-112215952D01*
X115713933Y-112206066D01*
X115704047Y-112195159D01*
X115695279Y-112183336D01*
X115687711Y-112170710D01*
X115681417Y-112157403D01*
X115676458Y-112143543D01*
X115672881Y-112129264D01*
X115670721Y-112114703D01*
X115669999Y-112100000D01*
X115669999Y-111700000D01*
X115670721Y-111685297D01*
X115672881Y-111670736D01*
X115676458Y-111656457D01*
X115681417Y-111642597D01*
X115687711Y-111629290D01*
X115695279Y-111616664D01*
X115704047Y-111604841D01*
X115713933Y-111593934D01*
X115724840Y-111584048D01*
X115736663Y-111575280D01*
X115749289Y-111567712D01*
X115762596Y-111561418D01*
X115776456Y-111556459D01*
X115790735Y-111552882D01*
X115805296Y-111550722D01*
X115819999Y-111550000D01*
X115820001Y-111550000D01*
X115834704Y-111550722D01*
X115834704Y-111550722D01*
G37*
D13*
X115820000Y-111900000D03*
D11*
G36*
X116334704Y-111550722D02*
G01*
X116349265Y-111552882D01*
X116363544Y-111556459D01*
X116377404Y-111561418D01*
X116390711Y-111567712D01*
X116403337Y-111575280D01*
X116415160Y-111584048D01*
X116426067Y-111593934D01*
X116435953Y-111604841D01*
X116444721Y-111616664D01*
X116452289Y-111629290D01*
X116458583Y-111642597D01*
X116463542Y-111656457D01*
X116467119Y-111670736D01*
X116469279Y-111685297D01*
X116470001Y-111700000D01*
X116470001Y-112100000D01*
X116469279Y-112114703D01*
X116467119Y-112129264D01*
X116463542Y-112143543D01*
X116458583Y-112157403D01*
X116452289Y-112170710D01*
X116444721Y-112183336D01*
X116435953Y-112195159D01*
X116426067Y-112206066D01*
X116415160Y-112215952D01*
X116403337Y-112224720D01*
X116390711Y-112232288D01*
X116377404Y-112238582D01*
X116363544Y-112243541D01*
X116349265Y-112247118D01*
X116334704Y-112249278D01*
X116320001Y-112250000D01*
X116319999Y-112250000D01*
X116305296Y-112249278D01*
X116290735Y-112247118D01*
X116276456Y-112243541D01*
X116262596Y-112238582D01*
X116249289Y-112232288D01*
X116236663Y-112224720D01*
X116224840Y-112215952D01*
X116213933Y-112206066D01*
X116204047Y-112195159D01*
X116195279Y-112183336D01*
X116187711Y-112170710D01*
X116181417Y-112157403D01*
X116176458Y-112143543D01*
X116172881Y-112129264D01*
X116170721Y-112114703D01*
X116169999Y-112100000D01*
X116169999Y-111700000D01*
X116170721Y-111685297D01*
X116172881Y-111670736D01*
X116176458Y-111656457D01*
X116181417Y-111642597D01*
X116187711Y-111629290D01*
X116195279Y-111616664D01*
X116204047Y-111604841D01*
X116213933Y-111593934D01*
X116224840Y-111584048D01*
X116236663Y-111575280D01*
X116249289Y-111567712D01*
X116262596Y-111561418D01*
X116276456Y-111556459D01*
X116290735Y-111552882D01*
X116305296Y-111550722D01*
X116319999Y-111550000D01*
X116320001Y-111550000D01*
X116334704Y-111550722D01*
X116334704Y-111550722D01*
G37*
D13*
X116320000Y-111900000D03*
D11*
G36*
X116834704Y-111550722D02*
G01*
X116849265Y-111552882D01*
X116863544Y-111556459D01*
X116877404Y-111561418D01*
X116890711Y-111567712D01*
X116903337Y-111575280D01*
X116915160Y-111584048D01*
X116926067Y-111593934D01*
X116935953Y-111604841D01*
X116944721Y-111616664D01*
X116952289Y-111629290D01*
X116958583Y-111642597D01*
X116963542Y-111656457D01*
X116967119Y-111670736D01*
X116969279Y-111685297D01*
X116970001Y-111700000D01*
X116970001Y-112100000D01*
X116969279Y-112114703D01*
X116967119Y-112129264D01*
X116963542Y-112143543D01*
X116958583Y-112157403D01*
X116952289Y-112170710D01*
X116944721Y-112183336D01*
X116935953Y-112195159D01*
X116926067Y-112206066D01*
X116915160Y-112215952D01*
X116903337Y-112224720D01*
X116890711Y-112232288D01*
X116877404Y-112238582D01*
X116863544Y-112243541D01*
X116849265Y-112247118D01*
X116834704Y-112249278D01*
X116820001Y-112250000D01*
X116819999Y-112250000D01*
X116805296Y-112249278D01*
X116790735Y-112247118D01*
X116776456Y-112243541D01*
X116762596Y-112238582D01*
X116749289Y-112232288D01*
X116736663Y-112224720D01*
X116724840Y-112215952D01*
X116713933Y-112206066D01*
X116704047Y-112195159D01*
X116695279Y-112183336D01*
X116687711Y-112170710D01*
X116681417Y-112157403D01*
X116676458Y-112143543D01*
X116672881Y-112129264D01*
X116670721Y-112114703D01*
X116669999Y-112100000D01*
X116669999Y-111700000D01*
X116670721Y-111685297D01*
X116672881Y-111670736D01*
X116676458Y-111656457D01*
X116681417Y-111642597D01*
X116687711Y-111629290D01*
X116695279Y-111616664D01*
X116704047Y-111604841D01*
X116713933Y-111593934D01*
X116724840Y-111584048D01*
X116736663Y-111575280D01*
X116749289Y-111567712D01*
X116762596Y-111561418D01*
X116776456Y-111556459D01*
X116790735Y-111552882D01*
X116805296Y-111550722D01*
X116819999Y-111550000D01*
X116820001Y-111550000D01*
X116834704Y-111550722D01*
X116834704Y-111550722D01*
G37*
D13*
X116820000Y-111900000D03*
D11*
G36*
X117334704Y-111550722D02*
G01*
X117349265Y-111552882D01*
X117363544Y-111556459D01*
X117377404Y-111561418D01*
X117390711Y-111567712D01*
X117403337Y-111575280D01*
X117415160Y-111584048D01*
X117426067Y-111593934D01*
X117435953Y-111604841D01*
X117444721Y-111616664D01*
X117452289Y-111629290D01*
X117458583Y-111642597D01*
X117463542Y-111656457D01*
X117467119Y-111670736D01*
X117469279Y-111685297D01*
X117470001Y-111700000D01*
X117470001Y-112100000D01*
X117469279Y-112114703D01*
X117467119Y-112129264D01*
X117463542Y-112143543D01*
X117458583Y-112157403D01*
X117452289Y-112170710D01*
X117444721Y-112183336D01*
X117435953Y-112195159D01*
X117426067Y-112206066D01*
X117415160Y-112215952D01*
X117403337Y-112224720D01*
X117390711Y-112232288D01*
X117377404Y-112238582D01*
X117363544Y-112243541D01*
X117349265Y-112247118D01*
X117334704Y-112249278D01*
X117320001Y-112250000D01*
X117319999Y-112250000D01*
X117305296Y-112249278D01*
X117290735Y-112247118D01*
X117276456Y-112243541D01*
X117262596Y-112238582D01*
X117249289Y-112232288D01*
X117236663Y-112224720D01*
X117224840Y-112215952D01*
X117213933Y-112206066D01*
X117204047Y-112195159D01*
X117195279Y-112183336D01*
X117187711Y-112170710D01*
X117181417Y-112157403D01*
X117176458Y-112143543D01*
X117172881Y-112129264D01*
X117170721Y-112114703D01*
X117169999Y-112100000D01*
X117169999Y-111700000D01*
X117170721Y-111685297D01*
X117172881Y-111670736D01*
X117176458Y-111656457D01*
X117181417Y-111642597D01*
X117187711Y-111629290D01*
X117195279Y-111616664D01*
X117204047Y-111604841D01*
X117213933Y-111593934D01*
X117224840Y-111584048D01*
X117236663Y-111575280D01*
X117249289Y-111567712D01*
X117262596Y-111561418D01*
X117276456Y-111556459D01*
X117290735Y-111552882D01*
X117305296Y-111550722D01*
X117319999Y-111550000D01*
X117320001Y-111550000D01*
X117334704Y-111550722D01*
X117334704Y-111550722D01*
G37*
D13*
X117320000Y-111900000D03*
D11*
G36*
X117334704Y-116350722D02*
G01*
X117349265Y-116352882D01*
X117363544Y-116356459D01*
X117377404Y-116361418D01*
X117390711Y-116367712D01*
X117403337Y-116375280D01*
X117415160Y-116384048D01*
X117426067Y-116393934D01*
X117435953Y-116404841D01*
X117444721Y-116416664D01*
X117452289Y-116429290D01*
X117458583Y-116442597D01*
X117463542Y-116456457D01*
X117467119Y-116470736D01*
X117469279Y-116485297D01*
X117470001Y-116500000D01*
X117470001Y-116900000D01*
X117469279Y-116914703D01*
X117467119Y-116929264D01*
X117463542Y-116943543D01*
X117458583Y-116957403D01*
X117452289Y-116970710D01*
X117444721Y-116983336D01*
X117435953Y-116995159D01*
X117426067Y-117006066D01*
X117415160Y-117015952D01*
X117403337Y-117024720D01*
X117390711Y-117032288D01*
X117377404Y-117038582D01*
X117363544Y-117043541D01*
X117349265Y-117047118D01*
X117334704Y-117049278D01*
X117320001Y-117050000D01*
X117319999Y-117050000D01*
X117305296Y-117049278D01*
X117290735Y-117047118D01*
X117276456Y-117043541D01*
X117262596Y-117038582D01*
X117249289Y-117032288D01*
X117236663Y-117024720D01*
X117224840Y-117015952D01*
X117213933Y-117006066D01*
X117204047Y-116995159D01*
X117195279Y-116983336D01*
X117187711Y-116970710D01*
X117181417Y-116957403D01*
X117176458Y-116943543D01*
X117172881Y-116929264D01*
X117170721Y-116914703D01*
X117169999Y-116900000D01*
X117169999Y-116500000D01*
X117170721Y-116485297D01*
X117172881Y-116470736D01*
X117176458Y-116456457D01*
X117181417Y-116442597D01*
X117187711Y-116429290D01*
X117195279Y-116416664D01*
X117204047Y-116404841D01*
X117213933Y-116393934D01*
X117224840Y-116384048D01*
X117236663Y-116375280D01*
X117249289Y-116367712D01*
X117262596Y-116361418D01*
X117276456Y-116356459D01*
X117290735Y-116352882D01*
X117305296Y-116350722D01*
X117319999Y-116350000D01*
X117320001Y-116350000D01*
X117334704Y-116350722D01*
X117334704Y-116350722D01*
G37*
D13*
X117320000Y-116700000D03*
D11*
G36*
X116834704Y-116350722D02*
G01*
X116849265Y-116352882D01*
X116863544Y-116356459D01*
X116877404Y-116361418D01*
X116890711Y-116367712D01*
X116903337Y-116375280D01*
X116915160Y-116384048D01*
X116926067Y-116393934D01*
X116935953Y-116404841D01*
X116944721Y-116416664D01*
X116952289Y-116429290D01*
X116958583Y-116442597D01*
X116963542Y-116456457D01*
X116967119Y-116470736D01*
X116969279Y-116485297D01*
X116970001Y-116500000D01*
X116970001Y-116900000D01*
X116969279Y-116914703D01*
X116967119Y-116929264D01*
X116963542Y-116943543D01*
X116958583Y-116957403D01*
X116952289Y-116970710D01*
X116944721Y-116983336D01*
X116935953Y-116995159D01*
X116926067Y-117006066D01*
X116915160Y-117015952D01*
X116903337Y-117024720D01*
X116890711Y-117032288D01*
X116877404Y-117038582D01*
X116863544Y-117043541D01*
X116849265Y-117047118D01*
X116834704Y-117049278D01*
X116820001Y-117050000D01*
X116819999Y-117050000D01*
X116805296Y-117049278D01*
X116790735Y-117047118D01*
X116776456Y-117043541D01*
X116762596Y-117038582D01*
X116749289Y-117032288D01*
X116736663Y-117024720D01*
X116724840Y-117015952D01*
X116713933Y-117006066D01*
X116704047Y-116995159D01*
X116695279Y-116983336D01*
X116687711Y-116970710D01*
X116681417Y-116957403D01*
X116676458Y-116943543D01*
X116672881Y-116929264D01*
X116670721Y-116914703D01*
X116669999Y-116900000D01*
X116669999Y-116500000D01*
X116670721Y-116485297D01*
X116672881Y-116470736D01*
X116676458Y-116456457D01*
X116681417Y-116442597D01*
X116687711Y-116429290D01*
X116695279Y-116416664D01*
X116704047Y-116404841D01*
X116713933Y-116393934D01*
X116724840Y-116384048D01*
X116736663Y-116375280D01*
X116749289Y-116367712D01*
X116762596Y-116361418D01*
X116776456Y-116356459D01*
X116790735Y-116352882D01*
X116805296Y-116350722D01*
X116819999Y-116350000D01*
X116820001Y-116350000D01*
X116834704Y-116350722D01*
X116834704Y-116350722D01*
G37*
D13*
X116820000Y-116700000D03*
D11*
G36*
X116334704Y-116350722D02*
G01*
X116349265Y-116352882D01*
X116363544Y-116356459D01*
X116377404Y-116361418D01*
X116390711Y-116367712D01*
X116403337Y-116375280D01*
X116415160Y-116384048D01*
X116426067Y-116393934D01*
X116435953Y-116404841D01*
X116444721Y-116416664D01*
X116452289Y-116429290D01*
X116458583Y-116442597D01*
X116463542Y-116456457D01*
X116467119Y-116470736D01*
X116469279Y-116485297D01*
X116470001Y-116500000D01*
X116470001Y-116900000D01*
X116469279Y-116914703D01*
X116467119Y-116929264D01*
X116463542Y-116943543D01*
X116458583Y-116957403D01*
X116452289Y-116970710D01*
X116444721Y-116983336D01*
X116435953Y-116995159D01*
X116426067Y-117006066D01*
X116415160Y-117015952D01*
X116403337Y-117024720D01*
X116390711Y-117032288D01*
X116377404Y-117038582D01*
X116363544Y-117043541D01*
X116349265Y-117047118D01*
X116334704Y-117049278D01*
X116320001Y-117050000D01*
X116319999Y-117050000D01*
X116305296Y-117049278D01*
X116290735Y-117047118D01*
X116276456Y-117043541D01*
X116262596Y-117038582D01*
X116249289Y-117032288D01*
X116236663Y-117024720D01*
X116224840Y-117015952D01*
X116213933Y-117006066D01*
X116204047Y-116995159D01*
X116195279Y-116983336D01*
X116187711Y-116970710D01*
X116181417Y-116957403D01*
X116176458Y-116943543D01*
X116172881Y-116929264D01*
X116170721Y-116914703D01*
X116169999Y-116900000D01*
X116169999Y-116500000D01*
X116170721Y-116485297D01*
X116172881Y-116470736D01*
X116176458Y-116456457D01*
X116181417Y-116442597D01*
X116187711Y-116429290D01*
X116195279Y-116416664D01*
X116204047Y-116404841D01*
X116213933Y-116393934D01*
X116224840Y-116384048D01*
X116236663Y-116375280D01*
X116249289Y-116367712D01*
X116262596Y-116361418D01*
X116276456Y-116356459D01*
X116290735Y-116352882D01*
X116305296Y-116350722D01*
X116319999Y-116350000D01*
X116320001Y-116350000D01*
X116334704Y-116350722D01*
X116334704Y-116350722D01*
G37*
D13*
X116320000Y-116700000D03*
D11*
G36*
X115834704Y-116350722D02*
G01*
X115849265Y-116352882D01*
X115863544Y-116356459D01*
X115877404Y-116361418D01*
X115890711Y-116367712D01*
X115903337Y-116375280D01*
X115915160Y-116384048D01*
X115926067Y-116393934D01*
X115935953Y-116404841D01*
X115944721Y-116416664D01*
X115952289Y-116429290D01*
X115958583Y-116442597D01*
X115963542Y-116456457D01*
X115967119Y-116470736D01*
X115969279Y-116485297D01*
X115970001Y-116500000D01*
X115970001Y-116900000D01*
X115969279Y-116914703D01*
X115967119Y-116929264D01*
X115963542Y-116943543D01*
X115958583Y-116957403D01*
X115952289Y-116970710D01*
X115944721Y-116983336D01*
X115935953Y-116995159D01*
X115926067Y-117006066D01*
X115915160Y-117015952D01*
X115903337Y-117024720D01*
X115890711Y-117032288D01*
X115877404Y-117038582D01*
X115863544Y-117043541D01*
X115849265Y-117047118D01*
X115834704Y-117049278D01*
X115820001Y-117050000D01*
X115819999Y-117050000D01*
X115805296Y-117049278D01*
X115790735Y-117047118D01*
X115776456Y-117043541D01*
X115762596Y-117038582D01*
X115749289Y-117032288D01*
X115736663Y-117024720D01*
X115724840Y-117015952D01*
X115713933Y-117006066D01*
X115704047Y-116995159D01*
X115695279Y-116983336D01*
X115687711Y-116970710D01*
X115681417Y-116957403D01*
X115676458Y-116943543D01*
X115672881Y-116929264D01*
X115670721Y-116914703D01*
X115669999Y-116900000D01*
X115669999Y-116500000D01*
X115670721Y-116485297D01*
X115672881Y-116470736D01*
X115676458Y-116456457D01*
X115681417Y-116442597D01*
X115687711Y-116429290D01*
X115695279Y-116416664D01*
X115704047Y-116404841D01*
X115713933Y-116393934D01*
X115724840Y-116384048D01*
X115736663Y-116375280D01*
X115749289Y-116367712D01*
X115762596Y-116361418D01*
X115776456Y-116356459D01*
X115790735Y-116352882D01*
X115805296Y-116350722D01*
X115819999Y-116350000D01*
X115820001Y-116350000D01*
X115834704Y-116350722D01*
X115834704Y-116350722D01*
G37*
D13*
X115820000Y-116700000D03*
D11*
G36*
X115334704Y-116350722D02*
G01*
X115349265Y-116352882D01*
X115363544Y-116356459D01*
X115377404Y-116361418D01*
X115390711Y-116367712D01*
X115403337Y-116375280D01*
X115415160Y-116384048D01*
X115426067Y-116393934D01*
X115435953Y-116404841D01*
X115444721Y-116416664D01*
X115452289Y-116429290D01*
X115458583Y-116442597D01*
X115463542Y-116456457D01*
X115467119Y-116470736D01*
X115469279Y-116485297D01*
X115470001Y-116500000D01*
X115470001Y-116900000D01*
X115469279Y-116914703D01*
X115467119Y-116929264D01*
X115463542Y-116943543D01*
X115458583Y-116957403D01*
X115452289Y-116970710D01*
X115444721Y-116983336D01*
X115435953Y-116995159D01*
X115426067Y-117006066D01*
X115415160Y-117015952D01*
X115403337Y-117024720D01*
X115390711Y-117032288D01*
X115377404Y-117038582D01*
X115363544Y-117043541D01*
X115349265Y-117047118D01*
X115334704Y-117049278D01*
X115320001Y-117050000D01*
X115319999Y-117050000D01*
X115305296Y-117049278D01*
X115290735Y-117047118D01*
X115276456Y-117043541D01*
X115262596Y-117038582D01*
X115249289Y-117032288D01*
X115236663Y-117024720D01*
X115224840Y-117015952D01*
X115213933Y-117006066D01*
X115204047Y-116995159D01*
X115195279Y-116983336D01*
X115187711Y-116970710D01*
X115181417Y-116957403D01*
X115176458Y-116943543D01*
X115172881Y-116929264D01*
X115170721Y-116914703D01*
X115169999Y-116900000D01*
X115169999Y-116500000D01*
X115170721Y-116485297D01*
X115172881Y-116470736D01*
X115176458Y-116456457D01*
X115181417Y-116442597D01*
X115187711Y-116429290D01*
X115195279Y-116416664D01*
X115204047Y-116404841D01*
X115213933Y-116393934D01*
X115224840Y-116384048D01*
X115236663Y-116375280D01*
X115249289Y-116367712D01*
X115262596Y-116361418D01*
X115276456Y-116356459D01*
X115290735Y-116352882D01*
X115305296Y-116350722D01*
X115319999Y-116350000D01*
X115320001Y-116350000D01*
X115334704Y-116350722D01*
X115334704Y-116350722D01*
G37*
D13*
X115320000Y-116700000D03*
D11*
G36*
X114834704Y-116350722D02*
G01*
X114849265Y-116352882D01*
X114863544Y-116356459D01*
X114877404Y-116361418D01*
X114890711Y-116367712D01*
X114903337Y-116375280D01*
X114915160Y-116384048D01*
X114926067Y-116393934D01*
X114935953Y-116404841D01*
X114944721Y-116416664D01*
X114952289Y-116429290D01*
X114958583Y-116442597D01*
X114963542Y-116456457D01*
X114967119Y-116470736D01*
X114969279Y-116485297D01*
X114970001Y-116500000D01*
X114970001Y-116900000D01*
X114969279Y-116914703D01*
X114967119Y-116929264D01*
X114963542Y-116943543D01*
X114958583Y-116957403D01*
X114952289Y-116970710D01*
X114944721Y-116983336D01*
X114935953Y-116995159D01*
X114926067Y-117006066D01*
X114915160Y-117015952D01*
X114903337Y-117024720D01*
X114890711Y-117032288D01*
X114877404Y-117038582D01*
X114863544Y-117043541D01*
X114849265Y-117047118D01*
X114834704Y-117049278D01*
X114820001Y-117050000D01*
X114819999Y-117050000D01*
X114805296Y-117049278D01*
X114790735Y-117047118D01*
X114776456Y-117043541D01*
X114762596Y-117038582D01*
X114749289Y-117032288D01*
X114736663Y-117024720D01*
X114724840Y-117015952D01*
X114713933Y-117006066D01*
X114704047Y-116995159D01*
X114695279Y-116983336D01*
X114687711Y-116970710D01*
X114681417Y-116957403D01*
X114676458Y-116943543D01*
X114672881Y-116929264D01*
X114670721Y-116914703D01*
X114669999Y-116900000D01*
X114669999Y-116500000D01*
X114670721Y-116485297D01*
X114672881Y-116470736D01*
X114676458Y-116456457D01*
X114681417Y-116442597D01*
X114687711Y-116429290D01*
X114695279Y-116416664D01*
X114704047Y-116404841D01*
X114713933Y-116393934D01*
X114724840Y-116384048D01*
X114736663Y-116375280D01*
X114749289Y-116367712D01*
X114762596Y-116361418D01*
X114776456Y-116356459D01*
X114790735Y-116352882D01*
X114805296Y-116350722D01*
X114819999Y-116350000D01*
X114820001Y-116350000D01*
X114834704Y-116350722D01*
X114834704Y-116350722D01*
G37*
D13*
X114820000Y-116700000D03*
D11*
G36*
X114334704Y-116350722D02*
G01*
X114349265Y-116352882D01*
X114363544Y-116356459D01*
X114377404Y-116361418D01*
X114390711Y-116367712D01*
X114403337Y-116375280D01*
X114415160Y-116384048D01*
X114426067Y-116393934D01*
X114435953Y-116404841D01*
X114444721Y-116416664D01*
X114452289Y-116429290D01*
X114458583Y-116442597D01*
X114463542Y-116456457D01*
X114467119Y-116470736D01*
X114469279Y-116485297D01*
X114470001Y-116500000D01*
X114470001Y-116900000D01*
X114469279Y-116914703D01*
X114467119Y-116929264D01*
X114463542Y-116943543D01*
X114458583Y-116957403D01*
X114452289Y-116970710D01*
X114444721Y-116983336D01*
X114435953Y-116995159D01*
X114426067Y-117006066D01*
X114415160Y-117015952D01*
X114403337Y-117024720D01*
X114390711Y-117032288D01*
X114377404Y-117038582D01*
X114363544Y-117043541D01*
X114349265Y-117047118D01*
X114334704Y-117049278D01*
X114320001Y-117050000D01*
X114319999Y-117050000D01*
X114305296Y-117049278D01*
X114290735Y-117047118D01*
X114276456Y-117043541D01*
X114262596Y-117038582D01*
X114249289Y-117032288D01*
X114236663Y-117024720D01*
X114224840Y-117015952D01*
X114213933Y-117006066D01*
X114204047Y-116995159D01*
X114195279Y-116983336D01*
X114187711Y-116970710D01*
X114181417Y-116957403D01*
X114176458Y-116943543D01*
X114172881Y-116929264D01*
X114170721Y-116914703D01*
X114169999Y-116900000D01*
X114169999Y-116500000D01*
X114170721Y-116485297D01*
X114172881Y-116470736D01*
X114176458Y-116456457D01*
X114181417Y-116442597D01*
X114187711Y-116429290D01*
X114195279Y-116416664D01*
X114204047Y-116404841D01*
X114213933Y-116393934D01*
X114224840Y-116384048D01*
X114236663Y-116375280D01*
X114249289Y-116367712D01*
X114262596Y-116361418D01*
X114276456Y-116356459D01*
X114290735Y-116352882D01*
X114305296Y-116350722D01*
X114319999Y-116350000D01*
X114320001Y-116350000D01*
X114334704Y-116350722D01*
X114334704Y-116350722D01*
G37*
D13*
X114320000Y-116700000D03*
D11*
G36*
X113834704Y-116350722D02*
G01*
X113849265Y-116352882D01*
X113863544Y-116356459D01*
X113877404Y-116361418D01*
X113890711Y-116367712D01*
X113903337Y-116375280D01*
X113915160Y-116384048D01*
X113926067Y-116393934D01*
X113935953Y-116404841D01*
X113944721Y-116416664D01*
X113952289Y-116429290D01*
X113958583Y-116442597D01*
X113963542Y-116456457D01*
X113967119Y-116470736D01*
X113969279Y-116485297D01*
X113970001Y-116500000D01*
X113970001Y-116900000D01*
X113969279Y-116914703D01*
X113967119Y-116929264D01*
X113963542Y-116943543D01*
X113958583Y-116957403D01*
X113952289Y-116970710D01*
X113944721Y-116983336D01*
X113935953Y-116995159D01*
X113926067Y-117006066D01*
X113915160Y-117015952D01*
X113903337Y-117024720D01*
X113890711Y-117032288D01*
X113877404Y-117038582D01*
X113863544Y-117043541D01*
X113849265Y-117047118D01*
X113834704Y-117049278D01*
X113820001Y-117050000D01*
X113819999Y-117050000D01*
X113805296Y-117049278D01*
X113790735Y-117047118D01*
X113776456Y-117043541D01*
X113762596Y-117038582D01*
X113749289Y-117032288D01*
X113736663Y-117024720D01*
X113724840Y-117015952D01*
X113713933Y-117006066D01*
X113704047Y-116995159D01*
X113695279Y-116983336D01*
X113687711Y-116970710D01*
X113681417Y-116957403D01*
X113676458Y-116943543D01*
X113672881Y-116929264D01*
X113670721Y-116914703D01*
X113669999Y-116900000D01*
X113669999Y-116500000D01*
X113670721Y-116485297D01*
X113672881Y-116470736D01*
X113676458Y-116456457D01*
X113681417Y-116442597D01*
X113687711Y-116429290D01*
X113695279Y-116416664D01*
X113704047Y-116404841D01*
X113713933Y-116393934D01*
X113724840Y-116384048D01*
X113736663Y-116375280D01*
X113749289Y-116367712D01*
X113762596Y-116361418D01*
X113776456Y-116356459D01*
X113790735Y-116352882D01*
X113805296Y-116350722D01*
X113819999Y-116350000D01*
X113820001Y-116350000D01*
X113834704Y-116350722D01*
X113834704Y-116350722D01*
G37*
D13*
X113820000Y-116700000D03*
D11*
G36*
X118184703Y-112400721D02*
G01*
X118199264Y-112402881D01*
X118213543Y-112406458D01*
X118227403Y-112411417D01*
X118240710Y-112417711D01*
X118253336Y-112425279D01*
X118265159Y-112434047D01*
X118276066Y-112443933D01*
X118285952Y-112454840D01*
X118294720Y-112466663D01*
X118302288Y-112479289D01*
X118308582Y-112492596D01*
X118313541Y-112506456D01*
X118317118Y-112520735D01*
X118319278Y-112535296D01*
X118320000Y-112549999D01*
X118320000Y-112550001D01*
X118319278Y-112564704D01*
X118317118Y-112579265D01*
X118313541Y-112593544D01*
X118308582Y-112607404D01*
X118302288Y-112620711D01*
X118294720Y-112633337D01*
X118285952Y-112645160D01*
X118276066Y-112656067D01*
X118265159Y-112665953D01*
X118253336Y-112674721D01*
X118240710Y-112682289D01*
X118227403Y-112688583D01*
X118213543Y-112693542D01*
X118199264Y-112697119D01*
X118184703Y-112699279D01*
X118170000Y-112700001D01*
X117770000Y-112700001D01*
X117755297Y-112699279D01*
X117740736Y-112697119D01*
X117726457Y-112693542D01*
X117712597Y-112688583D01*
X117699290Y-112682289D01*
X117686664Y-112674721D01*
X117674841Y-112665953D01*
X117663934Y-112656067D01*
X117654048Y-112645160D01*
X117645280Y-112633337D01*
X117637712Y-112620711D01*
X117631418Y-112607404D01*
X117626459Y-112593544D01*
X117622882Y-112579265D01*
X117620722Y-112564704D01*
X117620000Y-112550001D01*
X117620000Y-112549999D01*
X117620722Y-112535296D01*
X117622882Y-112520735D01*
X117626459Y-112506456D01*
X117631418Y-112492596D01*
X117637712Y-112479289D01*
X117645280Y-112466663D01*
X117654048Y-112454840D01*
X117663934Y-112443933D01*
X117674841Y-112434047D01*
X117686664Y-112425279D01*
X117699290Y-112417711D01*
X117712597Y-112411417D01*
X117726457Y-112406458D01*
X117740736Y-112402881D01*
X117755297Y-112400721D01*
X117770000Y-112399999D01*
X118170000Y-112399999D01*
X118184703Y-112400721D01*
X118184703Y-112400721D01*
G37*
D13*
X117970000Y-112550000D03*
D11*
G36*
X118184703Y-112900721D02*
G01*
X118199264Y-112902881D01*
X118213543Y-112906458D01*
X118227403Y-112911417D01*
X118240710Y-112917711D01*
X118253336Y-112925279D01*
X118265159Y-112934047D01*
X118276066Y-112943933D01*
X118285952Y-112954840D01*
X118294720Y-112966663D01*
X118302288Y-112979289D01*
X118308582Y-112992596D01*
X118313541Y-113006456D01*
X118317118Y-113020735D01*
X118319278Y-113035296D01*
X118320000Y-113049999D01*
X118320000Y-113050001D01*
X118319278Y-113064704D01*
X118317118Y-113079265D01*
X118313541Y-113093544D01*
X118308582Y-113107404D01*
X118302288Y-113120711D01*
X118294720Y-113133337D01*
X118285952Y-113145160D01*
X118276066Y-113156067D01*
X118265159Y-113165953D01*
X118253336Y-113174721D01*
X118240710Y-113182289D01*
X118227403Y-113188583D01*
X118213543Y-113193542D01*
X118199264Y-113197119D01*
X118184703Y-113199279D01*
X118170000Y-113200001D01*
X117770000Y-113200001D01*
X117755297Y-113199279D01*
X117740736Y-113197119D01*
X117726457Y-113193542D01*
X117712597Y-113188583D01*
X117699290Y-113182289D01*
X117686664Y-113174721D01*
X117674841Y-113165953D01*
X117663934Y-113156067D01*
X117654048Y-113145160D01*
X117645280Y-113133337D01*
X117637712Y-113120711D01*
X117631418Y-113107404D01*
X117626459Y-113093544D01*
X117622882Y-113079265D01*
X117620722Y-113064704D01*
X117620000Y-113050001D01*
X117620000Y-113049999D01*
X117620722Y-113035296D01*
X117622882Y-113020735D01*
X117626459Y-113006456D01*
X117631418Y-112992596D01*
X117637712Y-112979289D01*
X117645280Y-112966663D01*
X117654048Y-112954840D01*
X117663934Y-112943933D01*
X117674841Y-112934047D01*
X117686664Y-112925279D01*
X117699290Y-112917711D01*
X117712597Y-112911417D01*
X117726457Y-112906458D01*
X117740736Y-112902881D01*
X117755297Y-112900721D01*
X117770000Y-112899999D01*
X118170000Y-112899999D01*
X118184703Y-112900721D01*
X118184703Y-112900721D01*
G37*
D13*
X117970000Y-113050000D03*
D11*
G36*
X118184703Y-113400721D02*
G01*
X118199264Y-113402881D01*
X118213543Y-113406458D01*
X118227403Y-113411417D01*
X118240710Y-113417711D01*
X118253336Y-113425279D01*
X118265159Y-113434047D01*
X118276066Y-113443933D01*
X118285952Y-113454840D01*
X118294720Y-113466663D01*
X118302288Y-113479289D01*
X118308582Y-113492596D01*
X118313541Y-113506456D01*
X118317118Y-113520735D01*
X118319278Y-113535296D01*
X118320000Y-113549999D01*
X118320000Y-113550001D01*
X118319278Y-113564704D01*
X118317118Y-113579265D01*
X118313541Y-113593544D01*
X118308582Y-113607404D01*
X118302288Y-113620711D01*
X118294720Y-113633337D01*
X118285952Y-113645160D01*
X118276066Y-113656067D01*
X118265159Y-113665953D01*
X118253336Y-113674721D01*
X118240710Y-113682289D01*
X118227403Y-113688583D01*
X118213543Y-113693542D01*
X118199264Y-113697119D01*
X118184703Y-113699279D01*
X118170000Y-113700001D01*
X117770000Y-113700001D01*
X117755297Y-113699279D01*
X117740736Y-113697119D01*
X117726457Y-113693542D01*
X117712597Y-113688583D01*
X117699290Y-113682289D01*
X117686664Y-113674721D01*
X117674841Y-113665953D01*
X117663934Y-113656067D01*
X117654048Y-113645160D01*
X117645280Y-113633337D01*
X117637712Y-113620711D01*
X117631418Y-113607404D01*
X117626459Y-113593544D01*
X117622882Y-113579265D01*
X117620722Y-113564704D01*
X117620000Y-113550001D01*
X117620000Y-113549999D01*
X117620722Y-113535296D01*
X117622882Y-113520735D01*
X117626459Y-113506456D01*
X117631418Y-113492596D01*
X117637712Y-113479289D01*
X117645280Y-113466663D01*
X117654048Y-113454840D01*
X117663934Y-113443933D01*
X117674841Y-113434047D01*
X117686664Y-113425279D01*
X117699290Y-113417711D01*
X117712597Y-113411417D01*
X117726457Y-113406458D01*
X117740736Y-113402881D01*
X117755297Y-113400721D01*
X117770000Y-113399999D01*
X118170000Y-113399999D01*
X118184703Y-113400721D01*
X118184703Y-113400721D01*
G37*
D13*
X117970000Y-113550000D03*
D11*
G36*
X118184703Y-113900721D02*
G01*
X118199264Y-113902881D01*
X118213543Y-113906458D01*
X118227403Y-113911417D01*
X118240710Y-113917711D01*
X118253336Y-113925279D01*
X118265159Y-113934047D01*
X118276066Y-113943933D01*
X118285952Y-113954840D01*
X118294720Y-113966663D01*
X118302288Y-113979289D01*
X118308582Y-113992596D01*
X118313541Y-114006456D01*
X118317118Y-114020735D01*
X118319278Y-114035296D01*
X118320000Y-114049999D01*
X118320000Y-114050001D01*
X118319278Y-114064704D01*
X118317118Y-114079265D01*
X118313541Y-114093544D01*
X118308582Y-114107404D01*
X118302288Y-114120711D01*
X118294720Y-114133337D01*
X118285952Y-114145160D01*
X118276066Y-114156067D01*
X118265159Y-114165953D01*
X118253336Y-114174721D01*
X118240710Y-114182289D01*
X118227403Y-114188583D01*
X118213543Y-114193542D01*
X118199264Y-114197119D01*
X118184703Y-114199279D01*
X118170000Y-114200001D01*
X117770000Y-114200001D01*
X117755297Y-114199279D01*
X117740736Y-114197119D01*
X117726457Y-114193542D01*
X117712597Y-114188583D01*
X117699290Y-114182289D01*
X117686664Y-114174721D01*
X117674841Y-114165953D01*
X117663934Y-114156067D01*
X117654048Y-114145160D01*
X117645280Y-114133337D01*
X117637712Y-114120711D01*
X117631418Y-114107404D01*
X117626459Y-114093544D01*
X117622882Y-114079265D01*
X117620722Y-114064704D01*
X117620000Y-114050001D01*
X117620000Y-114049999D01*
X117620722Y-114035296D01*
X117622882Y-114020735D01*
X117626459Y-114006456D01*
X117631418Y-113992596D01*
X117637712Y-113979289D01*
X117645280Y-113966663D01*
X117654048Y-113954840D01*
X117663934Y-113943933D01*
X117674841Y-113934047D01*
X117686664Y-113925279D01*
X117699290Y-113917711D01*
X117712597Y-113911417D01*
X117726457Y-113906458D01*
X117740736Y-113902881D01*
X117755297Y-113900721D01*
X117770000Y-113899999D01*
X118170000Y-113899999D01*
X118184703Y-113900721D01*
X118184703Y-113900721D01*
G37*
D13*
X117970000Y-114050000D03*
D11*
G36*
X118184703Y-114400721D02*
G01*
X118199264Y-114402881D01*
X118213543Y-114406458D01*
X118227403Y-114411417D01*
X118240710Y-114417711D01*
X118253336Y-114425279D01*
X118265159Y-114434047D01*
X118276066Y-114443933D01*
X118285952Y-114454840D01*
X118294720Y-114466663D01*
X118302288Y-114479289D01*
X118308582Y-114492596D01*
X118313541Y-114506456D01*
X118317118Y-114520735D01*
X118319278Y-114535296D01*
X118320000Y-114549999D01*
X118320000Y-114550001D01*
X118319278Y-114564704D01*
X118317118Y-114579265D01*
X118313541Y-114593544D01*
X118308582Y-114607404D01*
X118302288Y-114620711D01*
X118294720Y-114633337D01*
X118285952Y-114645160D01*
X118276066Y-114656067D01*
X118265159Y-114665953D01*
X118253336Y-114674721D01*
X118240710Y-114682289D01*
X118227403Y-114688583D01*
X118213543Y-114693542D01*
X118199264Y-114697119D01*
X118184703Y-114699279D01*
X118170000Y-114700001D01*
X117770000Y-114700001D01*
X117755297Y-114699279D01*
X117740736Y-114697119D01*
X117726457Y-114693542D01*
X117712597Y-114688583D01*
X117699290Y-114682289D01*
X117686664Y-114674721D01*
X117674841Y-114665953D01*
X117663934Y-114656067D01*
X117654048Y-114645160D01*
X117645280Y-114633337D01*
X117637712Y-114620711D01*
X117631418Y-114607404D01*
X117626459Y-114593544D01*
X117622882Y-114579265D01*
X117620722Y-114564704D01*
X117620000Y-114550001D01*
X117620000Y-114549999D01*
X117620722Y-114535296D01*
X117622882Y-114520735D01*
X117626459Y-114506456D01*
X117631418Y-114492596D01*
X117637712Y-114479289D01*
X117645280Y-114466663D01*
X117654048Y-114454840D01*
X117663934Y-114443933D01*
X117674841Y-114434047D01*
X117686664Y-114425279D01*
X117699290Y-114417711D01*
X117712597Y-114411417D01*
X117726457Y-114406458D01*
X117740736Y-114402881D01*
X117755297Y-114400721D01*
X117770000Y-114399999D01*
X118170000Y-114399999D01*
X118184703Y-114400721D01*
X118184703Y-114400721D01*
G37*
D13*
X117970000Y-114550000D03*
D11*
G36*
X118184703Y-114900721D02*
G01*
X118199264Y-114902881D01*
X118213543Y-114906458D01*
X118227403Y-114911417D01*
X118240710Y-114917711D01*
X118253336Y-114925279D01*
X118265159Y-114934047D01*
X118276066Y-114943933D01*
X118285952Y-114954840D01*
X118294720Y-114966663D01*
X118302288Y-114979289D01*
X118308582Y-114992596D01*
X118313541Y-115006456D01*
X118317118Y-115020735D01*
X118319278Y-115035296D01*
X118320000Y-115049999D01*
X118320000Y-115050001D01*
X118319278Y-115064704D01*
X118317118Y-115079265D01*
X118313541Y-115093544D01*
X118308582Y-115107404D01*
X118302288Y-115120711D01*
X118294720Y-115133337D01*
X118285952Y-115145160D01*
X118276066Y-115156067D01*
X118265159Y-115165953D01*
X118253336Y-115174721D01*
X118240710Y-115182289D01*
X118227403Y-115188583D01*
X118213543Y-115193542D01*
X118199264Y-115197119D01*
X118184703Y-115199279D01*
X118170000Y-115200001D01*
X117770000Y-115200001D01*
X117755297Y-115199279D01*
X117740736Y-115197119D01*
X117726457Y-115193542D01*
X117712597Y-115188583D01*
X117699290Y-115182289D01*
X117686664Y-115174721D01*
X117674841Y-115165953D01*
X117663934Y-115156067D01*
X117654048Y-115145160D01*
X117645280Y-115133337D01*
X117637712Y-115120711D01*
X117631418Y-115107404D01*
X117626459Y-115093544D01*
X117622882Y-115079265D01*
X117620722Y-115064704D01*
X117620000Y-115050001D01*
X117620000Y-115049999D01*
X117620722Y-115035296D01*
X117622882Y-115020735D01*
X117626459Y-115006456D01*
X117631418Y-114992596D01*
X117637712Y-114979289D01*
X117645280Y-114966663D01*
X117654048Y-114954840D01*
X117663934Y-114943933D01*
X117674841Y-114934047D01*
X117686664Y-114925279D01*
X117699290Y-114917711D01*
X117712597Y-114911417D01*
X117726457Y-114906458D01*
X117740736Y-114902881D01*
X117755297Y-114900721D01*
X117770000Y-114899999D01*
X118170000Y-114899999D01*
X118184703Y-114900721D01*
X118184703Y-114900721D01*
G37*
D13*
X117970000Y-115050000D03*
D11*
G36*
X118184703Y-115400721D02*
G01*
X118199264Y-115402881D01*
X118213543Y-115406458D01*
X118227403Y-115411417D01*
X118240710Y-115417711D01*
X118253336Y-115425279D01*
X118265159Y-115434047D01*
X118276066Y-115443933D01*
X118285952Y-115454840D01*
X118294720Y-115466663D01*
X118302288Y-115479289D01*
X118308582Y-115492596D01*
X118313541Y-115506456D01*
X118317118Y-115520735D01*
X118319278Y-115535296D01*
X118320000Y-115549999D01*
X118320000Y-115550001D01*
X118319278Y-115564704D01*
X118317118Y-115579265D01*
X118313541Y-115593544D01*
X118308582Y-115607404D01*
X118302288Y-115620711D01*
X118294720Y-115633337D01*
X118285952Y-115645160D01*
X118276066Y-115656067D01*
X118265159Y-115665953D01*
X118253336Y-115674721D01*
X118240710Y-115682289D01*
X118227403Y-115688583D01*
X118213543Y-115693542D01*
X118199264Y-115697119D01*
X118184703Y-115699279D01*
X118170000Y-115700001D01*
X117770000Y-115700001D01*
X117755297Y-115699279D01*
X117740736Y-115697119D01*
X117726457Y-115693542D01*
X117712597Y-115688583D01*
X117699290Y-115682289D01*
X117686664Y-115674721D01*
X117674841Y-115665953D01*
X117663934Y-115656067D01*
X117654048Y-115645160D01*
X117645280Y-115633337D01*
X117637712Y-115620711D01*
X117631418Y-115607404D01*
X117626459Y-115593544D01*
X117622882Y-115579265D01*
X117620722Y-115564704D01*
X117620000Y-115550001D01*
X117620000Y-115549999D01*
X117620722Y-115535296D01*
X117622882Y-115520735D01*
X117626459Y-115506456D01*
X117631418Y-115492596D01*
X117637712Y-115479289D01*
X117645280Y-115466663D01*
X117654048Y-115454840D01*
X117663934Y-115443933D01*
X117674841Y-115434047D01*
X117686664Y-115425279D01*
X117699290Y-115417711D01*
X117712597Y-115411417D01*
X117726457Y-115406458D01*
X117740736Y-115402881D01*
X117755297Y-115400721D01*
X117770000Y-115399999D01*
X118170000Y-115399999D01*
X118184703Y-115400721D01*
X118184703Y-115400721D01*
G37*
D13*
X117970000Y-115550000D03*
D11*
G36*
X118184703Y-115900721D02*
G01*
X118199264Y-115902881D01*
X118213543Y-115906458D01*
X118227403Y-115911417D01*
X118240710Y-115917711D01*
X118253336Y-115925279D01*
X118265159Y-115934047D01*
X118276066Y-115943933D01*
X118285952Y-115954840D01*
X118294720Y-115966663D01*
X118302288Y-115979289D01*
X118308582Y-115992596D01*
X118313541Y-116006456D01*
X118317118Y-116020735D01*
X118319278Y-116035296D01*
X118320000Y-116049999D01*
X118320000Y-116050001D01*
X118319278Y-116064704D01*
X118317118Y-116079265D01*
X118313541Y-116093544D01*
X118308582Y-116107404D01*
X118302288Y-116120711D01*
X118294720Y-116133337D01*
X118285952Y-116145160D01*
X118276066Y-116156067D01*
X118265159Y-116165953D01*
X118253336Y-116174721D01*
X118240710Y-116182289D01*
X118227403Y-116188583D01*
X118213543Y-116193542D01*
X118199264Y-116197119D01*
X118184703Y-116199279D01*
X118170000Y-116200001D01*
X117770000Y-116200001D01*
X117755297Y-116199279D01*
X117740736Y-116197119D01*
X117726457Y-116193542D01*
X117712597Y-116188583D01*
X117699290Y-116182289D01*
X117686664Y-116174721D01*
X117674841Y-116165953D01*
X117663934Y-116156067D01*
X117654048Y-116145160D01*
X117645280Y-116133337D01*
X117637712Y-116120711D01*
X117631418Y-116107404D01*
X117626459Y-116093544D01*
X117622882Y-116079265D01*
X117620722Y-116064704D01*
X117620000Y-116050001D01*
X117620000Y-116049999D01*
X117620722Y-116035296D01*
X117622882Y-116020735D01*
X117626459Y-116006456D01*
X117631418Y-115992596D01*
X117637712Y-115979289D01*
X117645280Y-115966663D01*
X117654048Y-115954840D01*
X117663934Y-115943933D01*
X117674841Y-115934047D01*
X117686664Y-115925279D01*
X117699290Y-115917711D01*
X117712597Y-115911417D01*
X117726457Y-115906458D01*
X117740736Y-115902881D01*
X117755297Y-115900721D01*
X117770000Y-115899999D01*
X118170000Y-115899999D01*
X118184703Y-115900721D01*
X118184703Y-115900721D01*
G37*
D13*
X117970000Y-116050000D03*
D11*
G36*
X113384703Y-115900721D02*
G01*
X113399264Y-115902881D01*
X113413543Y-115906458D01*
X113427403Y-115911417D01*
X113440710Y-115917711D01*
X113453336Y-115925279D01*
X113465159Y-115934047D01*
X113476066Y-115943933D01*
X113485952Y-115954840D01*
X113494720Y-115966663D01*
X113502288Y-115979289D01*
X113508582Y-115992596D01*
X113513541Y-116006456D01*
X113517118Y-116020735D01*
X113519278Y-116035296D01*
X113520000Y-116049999D01*
X113520000Y-116050001D01*
X113519278Y-116064704D01*
X113517118Y-116079265D01*
X113513541Y-116093544D01*
X113508582Y-116107404D01*
X113502288Y-116120711D01*
X113494720Y-116133337D01*
X113485952Y-116145160D01*
X113476066Y-116156067D01*
X113465159Y-116165953D01*
X113453336Y-116174721D01*
X113440710Y-116182289D01*
X113427403Y-116188583D01*
X113413543Y-116193542D01*
X113399264Y-116197119D01*
X113384703Y-116199279D01*
X113370000Y-116200001D01*
X112970000Y-116200001D01*
X112955297Y-116199279D01*
X112940736Y-116197119D01*
X112926457Y-116193542D01*
X112912597Y-116188583D01*
X112899290Y-116182289D01*
X112886664Y-116174721D01*
X112874841Y-116165953D01*
X112863934Y-116156067D01*
X112854048Y-116145160D01*
X112845280Y-116133337D01*
X112837712Y-116120711D01*
X112831418Y-116107404D01*
X112826459Y-116093544D01*
X112822882Y-116079265D01*
X112820722Y-116064704D01*
X112820000Y-116050001D01*
X112820000Y-116049999D01*
X112820722Y-116035296D01*
X112822882Y-116020735D01*
X112826459Y-116006456D01*
X112831418Y-115992596D01*
X112837712Y-115979289D01*
X112845280Y-115966663D01*
X112854048Y-115954840D01*
X112863934Y-115943933D01*
X112874841Y-115934047D01*
X112886664Y-115925279D01*
X112899290Y-115917711D01*
X112912597Y-115911417D01*
X112926457Y-115906458D01*
X112940736Y-115902881D01*
X112955297Y-115900721D01*
X112970000Y-115899999D01*
X113370000Y-115899999D01*
X113384703Y-115900721D01*
X113384703Y-115900721D01*
G37*
D13*
X113170000Y-116050000D03*
D11*
G36*
X113384703Y-115400721D02*
G01*
X113399264Y-115402881D01*
X113413543Y-115406458D01*
X113427403Y-115411417D01*
X113440710Y-115417711D01*
X113453336Y-115425279D01*
X113465159Y-115434047D01*
X113476066Y-115443933D01*
X113485952Y-115454840D01*
X113494720Y-115466663D01*
X113502288Y-115479289D01*
X113508582Y-115492596D01*
X113513541Y-115506456D01*
X113517118Y-115520735D01*
X113519278Y-115535296D01*
X113520000Y-115549999D01*
X113520000Y-115550001D01*
X113519278Y-115564704D01*
X113517118Y-115579265D01*
X113513541Y-115593544D01*
X113508582Y-115607404D01*
X113502288Y-115620711D01*
X113494720Y-115633337D01*
X113485952Y-115645160D01*
X113476066Y-115656067D01*
X113465159Y-115665953D01*
X113453336Y-115674721D01*
X113440710Y-115682289D01*
X113427403Y-115688583D01*
X113413543Y-115693542D01*
X113399264Y-115697119D01*
X113384703Y-115699279D01*
X113370000Y-115700001D01*
X112970000Y-115700001D01*
X112955297Y-115699279D01*
X112940736Y-115697119D01*
X112926457Y-115693542D01*
X112912597Y-115688583D01*
X112899290Y-115682289D01*
X112886664Y-115674721D01*
X112874841Y-115665953D01*
X112863934Y-115656067D01*
X112854048Y-115645160D01*
X112845280Y-115633337D01*
X112837712Y-115620711D01*
X112831418Y-115607404D01*
X112826459Y-115593544D01*
X112822882Y-115579265D01*
X112820722Y-115564704D01*
X112820000Y-115550001D01*
X112820000Y-115549999D01*
X112820722Y-115535296D01*
X112822882Y-115520735D01*
X112826459Y-115506456D01*
X112831418Y-115492596D01*
X112837712Y-115479289D01*
X112845280Y-115466663D01*
X112854048Y-115454840D01*
X112863934Y-115443933D01*
X112874841Y-115434047D01*
X112886664Y-115425279D01*
X112899290Y-115417711D01*
X112912597Y-115411417D01*
X112926457Y-115406458D01*
X112940736Y-115402881D01*
X112955297Y-115400721D01*
X112970000Y-115399999D01*
X113370000Y-115399999D01*
X113384703Y-115400721D01*
X113384703Y-115400721D01*
G37*
D13*
X113170000Y-115550000D03*
D11*
G36*
X113384703Y-114900721D02*
G01*
X113399264Y-114902881D01*
X113413543Y-114906458D01*
X113427403Y-114911417D01*
X113440710Y-114917711D01*
X113453336Y-114925279D01*
X113465159Y-114934047D01*
X113476066Y-114943933D01*
X113485952Y-114954840D01*
X113494720Y-114966663D01*
X113502288Y-114979289D01*
X113508582Y-114992596D01*
X113513541Y-115006456D01*
X113517118Y-115020735D01*
X113519278Y-115035296D01*
X113520000Y-115049999D01*
X113520000Y-115050001D01*
X113519278Y-115064704D01*
X113517118Y-115079265D01*
X113513541Y-115093544D01*
X113508582Y-115107404D01*
X113502288Y-115120711D01*
X113494720Y-115133337D01*
X113485952Y-115145160D01*
X113476066Y-115156067D01*
X113465159Y-115165953D01*
X113453336Y-115174721D01*
X113440710Y-115182289D01*
X113427403Y-115188583D01*
X113413543Y-115193542D01*
X113399264Y-115197119D01*
X113384703Y-115199279D01*
X113370000Y-115200001D01*
X112970000Y-115200001D01*
X112955297Y-115199279D01*
X112940736Y-115197119D01*
X112926457Y-115193542D01*
X112912597Y-115188583D01*
X112899290Y-115182289D01*
X112886664Y-115174721D01*
X112874841Y-115165953D01*
X112863934Y-115156067D01*
X112854048Y-115145160D01*
X112845280Y-115133337D01*
X112837712Y-115120711D01*
X112831418Y-115107404D01*
X112826459Y-115093544D01*
X112822882Y-115079265D01*
X112820722Y-115064704D01*
X112820000Y-115050001D01*
X112820000Y-115049999D01*
X112820722Y-115035296D01*
X112822882Y-115020735D01*
X112826459Y-115006456D01*
X112831418Y-114992596D01*
X112837712Y-114979289D01*
X112845280Y-114966663D01*
X112854048Y-114954840D01*
X112863934Y-114943933D01*
X112874841Y-114934047D01*
X112886664Y-114925279D01*
X112899290Y-114917711D01*
X112912597Y-114911417D01*
X112926457Y-114906458D01*
X112940736Y-114902881D01*
X112955297Y-114900721D01*
X112970000Y-114899999D01*
X113370000Y-114899999D01*
X113384703Y-114900721D01*
X113384703Y-114900721D01*
G37*
D13*
X113170000Y-115050000D03*
D11*
G36*
X113384703Y-114400721D02*
G01*
X113399264Y-114402881D01*
X113413543Y-114406458D01*
X113427403Y-114411417D01*
X113440710Y-114417711D01*
X113453336Y-114425279D01*
X113465159Y-114434047D01*
X113476066Y-114443933D01*
X113485952Y-114454840D01*
X113494720Y-114466663D01*
X113502288Y-114479289D01*
X113508582Y-114492596D01*
X113513541Y-114506456D01*
X113517118Y-114520735D01*
X113519278Y-114535296D01*
X113520000Y-114549999D01*
X113520000Y-114550001D01*
X113519278Y-114564704D01*
X113517118Y-114579265D01*
X113513541Y-114593544D01*
X113508582Y-114607404D01*
X113502288Y-114620711D01*
X113494720Y-114633337D01*
X113485952Y-114645160D01*
X113476066Y-114656067D01*
X113465159Y-114665953D01*
X113453336Y-114674721D01*
X113440710Y-114682289D01*
X113427403Y-114688583D01*
X113413543Y-114693542D01*
X113399264Y-114697119D01*
X113384703Y-114699279D01*
X113370000Y-114700001D01*
X112970000Y-114700001D01*
X112955297Y-114699279D01*
X112940736Y-114697119D01*
X112926457Y-114693542D01*
X112912597Y-114688583D01*
X112899290Y-114682289D01*
X112886664Y-114674721D01*
X112874841Y-114665953D01*
X112863934Y-114656067D01*
X112854048Y-114645160D01*
X112845280Y-114633337D01*
X112837712Y-114620711D01*
X112831418Y-114607404D01*
X112826459Y-114593544D01*
X112822882Y-114579265D01*
X112820722Y-114564704D01*
X112820000Y-114550001D01*
X112820000Y-114549999D01*
X112820722Y-114535296D01*
X112822882Y-114520735D01*
X112826459Y-114506456D01*
X112831418Y-114492596D01*
X112837712Y-114479289D01*
X112845280Y-114466663D01*
X112854048Y-114454840D01*
X112863934Y-114443933D01*
X112874841Y-114434047D01*
X112886664Y-114425279D01*
X112899290Y-114417711D01*
X112912597Y-114411417D01*
X112926457Y-114406458D01*
X112940736Y-114402881D01*
X112955297Y-114400721D01*
X112970000Y-114399999D01*
X113370000Y-114399999D01*
X113384703Y-114400721D01*
X113384703Y-114400721D01*
G37*
D13*
X113170000Y-114550000D03*
D11*
G36*
X113384703Y-113900721D02*
G01*
X113399264Y-113902881D01*
X113413543Y-113906458D01*
X113427403Y-113911417D01*
X113440710Y-113917711D01*
X113453336Y-113925279D01*
X113465159Y-113934047D01*
X113476066Y-113943933D01*
X113485952Y-113954840D01*
X113494720Y-113966663D01*
X113502288Y-113979289D01*
X113508582Y-113992596D01*
X113513541Y-114006456D01*
X113517118Y-114020735D01*
X113519278Y-114035296D01*
X113520000Y-114049999D01*
X113520000Y-114050001D01*
X113519278Y-114064704D01*
X113517118Y-114079265D01*
X113513541Y-114093544D01*
X113508582Y-114107404D01*
X113502288Y-114120711D01*
X113494720Y-114133337D01*
X113485952Y-114145160D01*
X113476066Y-114156067D01*
X113465159Y-114165953D01*
X113453336Y-114174721D01*
X113440710Y-114182289D01*
X113427403Y-114188583D01*
X113413543Y-114193542D01*
X113399264Y-114197119D01*
X113384703Y-114199279D01*
X113370000Y-114200001D01*
X112970000Y-114200001D01*
X112955297Y-114199279D01*
X112940736Y-114197119D01*
X112926457Y-114193542D01*
X112912597Y-114188583D01*
X112899290Y-114182289D01*
X112886664Y-114174721D01*
X112874841Y-114165953D01*
X112863934Y-114156067D01*
X112854048Y-114145160D01*
X112845280Y-114133337D01*
X112837712Y-114120711D01*
X112831418Y-114107404D01*
X112826459Y-114093544D01*
X112822882Y-114079265D01*
X112820722Y-114064704D01*
X112820000Y-114050001D01*
X112820000Y-114049999D01*
X112820722Y-114035296D01*
X112822882Y-114020735D01*
X112826459Y-114006456D01*
X112831418Y-113992596D01*
X112837712Y-113979289D01*
X112845280Y-113966663D01*
X112854048Y-113954840D01*
X112863934Y-113943933D01*
X112874841Y-113934047D01*
X112886664Y-113925279D01*
X112899290Y-113917711D01*
X112912597Y-113911417D01*
X112926457Y-113906458D01*
X112940736Y-113902881D01*
X112955297Y-113900721D01*
X112970000Y-113899999D01*
X113370000Y-113899999D01*
X113384703Y-113900721D01*
X113384703Y-113900721D01*
G37*
D13*
X113170000Y-114050000D03*
D11*
G36*
X113384703Y-113400721D02*
G01*
X113399264Y-113402881D01*
X113413543Y-113406458D01*
X113427403Y-113411417D01*
X113440710Y-113417711D01*
X113453336Y-113425279D01*
X113465159Y-113434047D01*
X113476066Y-113443933D01*
X113485952Y-113454840D01*
X113494720Y-113466663D01*
X113502288Y-113479289D01*
X113508582Y-113492596D01*
X113513541Y-113506456D01*
X113517118Y-113520735D01*
X113519278Y-113535296D01*
X113520000Y-113549999D01*
X113520000Y-113550001D01*
X113519278Y-113564704D01*
X113517118Y-113579265D01*
X113513541Y-113593544D01*
X113508582Y-113607404D01*
X113502288Y-113620711D01*
X113494720Y-113633337D01*
X113485952Y-113645160D01*
X113476066Y-113656067D01*
X113465159Y-113665953D01*
X113453336Y-113674721D01*
X113440710Y-113682289D01*
X113427403Y-113688583D01*
X113413543Y-113693542D01*
X113399264Y-113697119D01*
X113384703Y-113699279D01*
X113370000Y-113700001D01*
X112970000Y-113700001D01*
X112955297Y-113699279D01*
X112940736Y-113697119D01*
X112926457Y-113693542D01*
X112912597Y-113688583D01*
X112899290Y-113682289D01*
X112886664Y-113674721D01*
X112874841Y-113665953D01*
X112863934Y-113656067D01*
X112854048Y-113645160D01*
X112845280Y-113633337D01*
X112837712Y-113620711D01*
X112831418Y-113607404D01*
X112826459Y-113593544D01*
X112822882Y-113579265D01*
X112820722Y-113564704D01*
X112820000Y-113550001D01*
X112820000Y-113549999D01*
X112820722Y-113535296D01*
X112822882Y-113520735D01*
X112826459Y-113506456D01*
X112831418Y-113492596D01*
X112837712Y-113479289D01*
X112845280Y-113466663D01*
X112854048Y-113454840D01*
X112863934Y-113443933D01*
X112874841Y-113434047D01*
X112886664Y-113425279D01*
X112899290Y-113417711D01*
X112912597Y-113411417D01*
X112926457Y-113406458D01*
X112940736Y-113402881D01*
X112955297Y-113400721D01*
X112970000Y-113399999D01*
X113370000Y-113399999D01*
X113384703Y-113400721D01*
X113384703Y-113400721D01*
G37*
D13*
X113170000Y-113550000D03*
D11*
G36*
X113384703Y-112900721D02*
G01*
X113399264Y-112902881D01*
X113413543Y-112906458D01*
X113427403Y-112911417D01*
X113440710Y-112917711D01*
X113453336Y-112925279D01*
X113465159Y-112934047D01*
X113476066Y-112943933D01*
X113485952Y-112954840D01*
X113494720Y-112966663D01*
X113502288Y-112979289D01*
X113508582Y-112992596D01*
X113513541Y-113006456D01*
X113517118Y-113020735D01*
X113519278Y-113035296D01*
X113520000Y-113049999D01*
X113520000Y-113050001D01*
X113519278Y-113064704D01*
X113517118Y-113079265D01*
X113513541Y-113093544D01*
X113508582Y-113107404D01*
X113502288Y-113120711D01*
X113494720Y-113133337D01*
X113485952Y-113145160D01*
X113476066Y-113156067D01*
X113465159Y-113165953D01*
X113453336Y-113174721D01*
X113440710Y-113182289D01*
X113427403Y-113188583D01*
X113413543Y-113193542D01*
X113399264Y-113197119D01*
X113384703Y-113199279D01*
X113370000Y-113200001D01*
X112970000Y-113200001D01*
X112955297Y-113199279D01*
X112940736Y-113197119D01*
X112926457Y-113193542D01*
X112912597Y-113188583D01*
X112899290Y-113182289D01*
X112886664Y-113174721D01*
X112874841Y-113165953D01*
X112863934Y-113156067D01*
X112854048Y-113145160D01*
X112845280Y-113133337D01*
X112837712Y-113120711D01*
X112831418Y-113107404D01*
X112826459Y-113093544D01*
X112822882Y-113079265D01*
X112820722Y-113064704D01*
X112820000Y-113050001D01*
X112820000Y-113049999D01*
X112820722Y-113035296D01*
X112822882Y-113020735D01*
X112826459Y-113006456D01*
X112831418Y-112992596D01*
X112837712Y-112979289D01*
X112845280Y-112966663D01*
X112854048Y-112954840D01*
X112863934Y-112943933D01*
X112874841Y-112934047D01*
X112886664Y-112925279D01*
X112899290Y-112917711D01*
X112912597Y-112911417D01*
X112926457Y-112906458D01*
X112940736Y-112902881D01*
X112955297Y-112900721D01*
X112970000Y-112899999D01*
X113370000Y-112899999D01*
X113384703Y-112900721D01*
X113384703Y-112900721D01*
G37*
D13*
X113170000Y-113050000D03*
D11*
G36*
X113384703Y-112400721D02*
G01*
X113399264Y-112402881D01*
X113413543Y-112406458D01*
X113427403Y-112411417D01*
X113440710Y-112417711D01*
X113453336Y-112425279D01*
X113465159Y-112434047D01*
X113476066Y-112443933D01*
X113485952Y-112454840D01*
X113494720Y-112466663D01*
X113502288Y-112479289D01*
X113508582Y-112492596D01*
X113513541Y-112506456D01*
X113517118Y-112520735D01*
X113519278Y-112535296D01*
X113520000Y-112549999D01*
X113520000Y-112550001D01*
X113519278Y-112564704D01*
X113517118Y-112579265D01*
X113513541Y-112593544D01*
X113508582Y-112607404D01*
X113502288Y-112620711D01*
X113494720Y-112633337D01*
X113485952Y-112645160D01*
X113476066Y-112656067D01*
X113465159Y-112665953D01*
X113453336Y-112674721D01*
X113440710Y-112682289D01*
X113427403Y-112688583D01*
X113413543Y-112693542D01*
X113399264Y-112697119D01*
X113384703Y-112699279D01*
X113370000Y-112700001D01*
X112970000Y-112700001D01*
X112955297Y-112699279D01*
X112940736Y-112697119D01*
X112926457Y-112693542D01*
X112912597Y-112688583D01*
X112899290Y-112682289D01*
X112886664Y-112674721D01*
X112874841Y-112665953D01*
X112863934Y-112656067D01*
X112854048Y-112645160D01*
X112845280Y-112633337D01*
X112837712Y-112620711D01*
X112831418Y-112607404D01*
X112826459Y-112593544D01*
X112822882Y-112579265D01*
X112820722Y-112564704D01*
X112820000Y-112550001D01*
X112820000Y-112549999D01*
X112820722Y-112535296D01*
X112822882Y-112520735D01*
X112826459Y-112506456D01*
X112831418Y-112492596D01*
X112837712Y-112479289D01*
X112845280Y-112466663D01*
X112854048Y-112454840D01*
X112863934Y-112443933D01*
X112874841Y-112434047D01*
X112886664Y-112425279D01*
X112899290Y-112417711D01*
X112912597Y-112411417D01*
X112926457Y-112406458D01*
X112940736Y-112402881D01*
X112955297Y-112400721D01*
X112970000Y-112399999D01*
X113370000Y-112399999D01*
X113384703Y-112400721D01*
X113384703Y-112400721D01*
G37*
D13*
X113170000Y-112550000D03*
%TD*%
D14*
%TO.C,C1*%
X132715000Y-115824000D03*
X132715000Y-112776000D03*
%TD*%
D15*
%TO.C,C2*%
X76454000Y-126365000D03*
X73406000Y-126365000D03*
%TD*%
D14*
%TO.C,C4*%
X108585000Y-112776000D03*
X108585000Y-115824000D03*
%TD*%
%TO.C,C5*%
X98425000Y-115824000D03*
X98425000Y-112776000D03*
%TD*%
D15*
%TO.C,C7*%
X159004000Y-97790000D03*
X155956000Y-97790000D03*
%TD*%
D16*
%TO.C,CLK1*%
X128270000Y-116400000D03*
X123190000Y-116400000D03*
X123190000Y-112200000D03*
X128270000Y-112200000D03*
%TD*%
D17*
%TO.C,D1*%
X74725000Y-92315000D03*
X72595000Y-92315000D03*
D18*
X73660000Y-88515000D03*
%TD*%
D15*
%TO.C,C3*%
X75946000Y-120015000D03*
X78994000Y-120015000D03*
%TD*%
D14*
%TO.C,C12*%
X125095000Y-131064000D03*
X125095000Y-128016000D03*
%TD*%
%TO.C,C8*%
X158115000Y-131064000D03*
X158115000Y-128016000D03*
%TD*%
%TO.C,C9*%
X147955000Y-131064000D03*
X147955000Y-128016000D03*
%TD*%
D15*
%TO.C,C11*%
X125984000Y-97790000D03*
X122936000Y-97790000D03*
%TD*%
D14*
%TO.C,C13*%
X114935000Y-131064000D03*
X114935000Y-128016000D03*
%TD*%
D15*
%TO.C,C15*%
X92964000Y-97790000D03*
X89916000Y-97790000D03*
%TD*%
D14*
%TO.C,C16*%
X92075000Y-131064000D03*
X92075000Y-128016000D03*
%TD*%
%TO.C,C17*%
X81915000Y-131064000D03*
X81915000Y-128016000D03*
%TD*%
D19*
%TO.C,R1*%
X111760000Y-121513600D03*
X111760000Y-123596400D03*
%TD*%
D20*
%TO.C,R2*%
X166141400Y-95885000D03*
X164058600Y-95885000D03*
%TD*%
%TO.C,R3*%
X169773600Y-127635000D03*
X171856400Y-127635000D03*
%TD*%
D19*
%TO.C,R4*%
X163195000Y-118973600D03*
X163195000Y-121056400D03*
%TD*%
D20*
%TO.C,R5*%
X169773600Y-131445000D03*
X171856400Y-131445000D03*
%TD*%
D19*
%TO.C,R6*%
X170815000Y-118973600D03*
X170815000Y-121056400D03*
%TD*%
D20*
%TO.C,R7*%
X133121400Y-95885000D03*
X131038600Y-95885000D03*
%TD*%
%TO.C,R8*%
X136753600Y-127635000D03*
X138836400Y-127635000D03*
%TD*%
D19*
%TO.C,R9*%
X130175000Y-118973600D03*
X130175000Y-121056400D03*
%TD*%
D20*
%TO.C,R10*%
X136753600Y-131445000D03*
X138836400Y-131445000D03*
%TD*%
D19*
%TO.C,R11*%
X137795000Y-118973600D03*
X137795000Y-121056400D03*
%TD*%
D20*
%TO.C,R12*%
X100101400Y-95885000D03*
X98018600Y-95885000D03*
%TD*%
%TO.C,R13*%
X103733600Y-127635000D03*
X105816400Y-127635000D03*
%TD*%
D19*
%TO.C,R14*%
X97155000Y-118973600D03*
X97155000Y-121056400D03*
%TD*%
D20*
%TO.C,R15*%
X103733600Y-131445000D03*
X105816400Y-131445000D03*
%TD*%
D19*
%TO.C,R16*%
X104775000Y-118973600D03*
X104775000Y-121056400D03*
%TD*%
D21*
%TO.C,U4*%
X163800000Y-98745000D03*
X163800000Y-100645000D03*
X166400000Y-100645000D03*
X166400000Y-99695000D03*
X166400000Y-98745000D03*
%TD*%
D22*
%TO.C,U5*%
X162310000Y-127635000D03*
X162310000Y-128905000D03*
X162310000Y-130175000D03*
X162310000Y-131445000D03*
X167890000Y-131445000D03*
X167890000Y-130175000D03*
X167890000Y-128905000D03*
X167890000Y-127635000D03*
%TD*%
D23*
%TO.C,U6*%
X153984960Y-128341120D03*
X153035000Y-128341120D03*
X152085040Y-128341120D03*
X152085040Y-130738880D03*
X153035000Y-130738880D03*
X153984960Y-130738880D03*
%TD*%
D21*
%TO.C,U7*%
X130780000Y-98745000D03*
X130780000Y-100645000D03*
X133380000Y-100645000D03*
X133380000Y-99695000D03*
X133380000Y-98745000D03*
%TD*%
D22*
%TO.C,U8*%
X129290000Y-127635000D03*
X129290000Y-128905000D03*
X129290000Y-130175000D03*
X129290000Y-131445000D03*
X134870000Y-131445000D03*
X134870000Y-130175000D03*
X134870000Y-128905000D03*
X134870000Y-127635000D03*
%TD*%
D23*
%TO.C,U9*%
X120964960Y-128341120D03*
X120015000Y-128341120D03*
X119065040Y-128341120D03*
X119065040Y-130738880D03*
X120015000Y-130738880D03*
X120964960Y-130738880D03*
%TD*%
D21*
%TO.C,U10*%
X97760000Y-98745000D03*
X97760000Y-100645000D03*
X100360000Y-100645000D03*
X100360000Y-99695000D03*
X100360000Y-98745000D03*
%TD*%
D22*
%TO.C,U11*%
X96270000Y-127635000D03*
X96270000Y-128905000D03*
X96270000Y-130175000D03*
X96270000Y-131445000D03*
X101850000Y-131445000D03*
X101850000Y-130175000D03*
X101850000Y-128905000D03*
X101850000Y-127635000D03*
%TD*%
D23*
%TO.C,U12*%
X87944960Y-128341120D03*
X86995000Y-128341120D03*
X86045040Y-128341120D03*
X86045040Y-130738880D03*
X86995000Y-130738880D03*
X87944960Y-130738880D03*
%TD*%
D24*
%TO.C,U2*%
X114620000Y-123855000D03*
X116520000Y-123855000D03*
X116520000Y-121255000D03*
X115570000Y-121255000D03*
X114620000Y-121255000D03*
%TD*%
D25*
%TO.C,U3*%
X94615000Y-118950000D03*
X93345000Y-118950000D03*
X92075000Y-118950000D03*
X90805000Y-118950000D03*
X89535000Y-118950000D03*
X88265000Y-118950000D03*
X86995000Y-118950000D03*
X85725000Y-118950000D03*
X84455000Y-118950000D03*
X83185000Y-118950000D03*
X83185000Y-109650000D03*
X84455000Y-109650000D03*
X85725000Y-109650000D03*
X86995000Y-109650000D03*
X88265000Y-109650000D03*
X89535000Y-109650000D03*
X90805000Y-109650000D03*
X92075000Y-109650000D03*
X93345000Y-109650000D03*
X94615000Y-109650000D03*
%TD*%
M02*
