G04 #@! TF.GenerationSoftware,KiCad,Pcbnew,no-vcs-found-1466d0c~58~ubuntu16.04.1*
G04 #@! TF.CreationDate,2017-06-19T16:09:28-04:00*
G04 #@! TF.ProjectId,stepper_controller_5x3,737465707065725F636F6E74726F6C6C,1.0*
G04 #@! TF.SameCoordinates,Original
G04 #@! TF.FileFunction,Copper,L1,Top,Signal*
G04 #@! TF.FilePolarity,Positive*
%FSLAX46Y46*%
G04 Gerber Fmt 4.6, Leading zero omitted, Abs format (unit mm)*
G04 Created by KiCad (PCBNEW no-vcs-found-1466d0c~58~ubuntu16.04.1) date Mon Jun 19 16:09:28 2017*
%MOMM*%
%LPD*%
G01*
G04 APERTURE LIST*
%ADD10C,0.100000*%
%ADD11C,0.228600*%
%ADD12O,2.032000X3.048000*%
%ADD13R,2.000000X4.100000*%
%ADD14O,1.854200X2.540000*%
%ADD15C,3.556000*%
%ADD16R,1.854200X2.540000*%
%ADD17C,1.930400*%
%ADD18O,4.572000X3.556000*%
%ADD19O,4.064000X5.080000*%
%ADD20O,5.080000X3.556000*%
%ADD21C,2.540000*%
%ADD22C,2.340000*%
%ADD23R,3.400000X3.400000*%
%ADD24C,0.889000*%
%ADD25C,0.304800*%
%ADD26C,1.270000*%
%ADD27C,0.203200*%
G04 APERTURE END LIST*
D10*
D11*
X191135000Y-71755000D02*
X69850000Y-71755000D01*
X191135000Y-139065000D02*
X191135000Y-71755000D01*
X69850000Y-139065000D02*
X191135000Y-139065000D01*
X69850000Y-71755000D02*
X69850000Y-139065000D01*
D12*
X173990000Y-104775000D03*
X171450000Y-104775000D03*
X168910000Y-104775000D03*
X166370000Y-104775000D03*
X163830000Y-104775000D03*
X161290000Y-104775000D03*
X158750000Y-104775000D03*
X156210000Y-104775000D03*
X156210000Y-92075000D03*
X158750000Y-92075000D03*
X161290000Y-92075000D03*
X163830000Y-92075000D03*
X166370000Y-92075000D03*
X168910000Y-92075000D03*
X171450000Y-92075000D03*
X173990000Y-92075000D03*
X140970000Y-104775000D03*
X138430000Y-104775000D03*
X135890000Y-104775000D03*
X133350000Y-104775000D03*
X130810000Y-104775000D03*
X128270000Y-104775000D03*
X125730000Y-104775000D03*
X123190000Y-104775000D03*
X123190000Y-92075000D03*
X125730000Y-92075000D03*
X128270000Y-92075000D03*
X130810000Y-92075000D03*
X133350000Y-92075000D03*
X135890000Y-92075000D03*
X138430000Y-92075000D03*
X140970000Y-92075000D03*
X107950000Y-104775000D03*
X105410000Y-104775000D03*
X102870000Y-104775000D03*
X100330000Y-104775000D03*
X97790000Y-104775000D03*
X95250000Y-104775000D03*
X92710000Y-104775000D03*
X90170000Y-104775000D03*
X90170000Y-92075000D03*
X92710000Y-92075000D03*
X95250000Y-92075000D03*
X97790000Y-92075000D03*
X100330000Y-92075000D03*
X102870000Y-92075000D03*
X105410000Y-92075000D03*
X107950000Y-92075000D03*
D13*
X148590000Y-102775000D03*
X148590000Y-94075000D03*
X115570000Y-102775000D03*
X115570000Y-94075000D03*
X82550000Y-102775000D03*
X82550000Y-94075000D03*
D14*
X133350000Y-74930000D03*
X130810000Y-74930000D03*
X128270000Y-74930000D03*
X125730000Y-74930000D03*
X123190000Y-74930000D03*
X120650000Y-74930000D03*
X118110000Y-74930000D03*
X115570000Y-74930000D03*
X113030000Y-74930000D03*
X133350000Y-135890000D03*
X130810000Y-135890000D03*
X128270000Y-135890000D03*
X125730000Y-135890000D03*
X123190000Y-135890000D03*
X120650000Y-135890000D03*
X118110000Y-135890000D03*
X115570000Y-135890000D03*
X113030000Y-135890000D03*
D15*
X165100000Y-74930000D03*
X165100000Y-135890000D03*
X73660000Y-130810000D03*
X73660000Y-80010000D03*
D14*
X72390000Y-135890000D03*
X74930000Y-135890000D03*
X77470000Y-135890000D03*
X80010000Y-135890000D03*
X82550000Y-135890000D03*
X85090000Y-135890000D03*
X87630000Y-135890000D03*
X90170000Y-135890000D03*
X92710000Y-135890000D03*
X95250000Y-135890000D03*
X97790000Y-135890000D03*
X100330000Y-135890000D03*
X102870000Y-135890000D03*
X105410000Y-135890000D03*
X107950000Y-135890000D03*
X110490000Y-135890000D03*
X110490000Y-74930000D03*
X107950000Y-74930000D03*
X105410000Y-74930000D03*
X102870000Y-74930000D03*
X100330000Y-74930000D03*
X97790000Y-74930000D03*
X95250000Y-74930000D03*
X92710000Y-74930000D03*
X90170000Y-74930000D03*
X87630000Y-74930000D03*
X85090000Y-74930000D03*
X82550000Y-74930000D03*
X80010000Y-74930000D03*
D16*
X72390000Y-74930000D03*
D14*
X77470000Y-74930000D03*
X74930000Y-74930000D03*
D17*
X188137800Y-105410000D03*
D18*
X184632600Y-105410000D03*
D19*
X179146200Y-105410000D03*
D20*
X186131200Y-100914200D03*
X186131200Y-109905800D03*
D21*
X167640000Y-84455000D03*
X162560000Y-84455000D03*
X157480000Y-84455000D03*
X172720000Y-84455000D03*
D22*
X170815000Y-123825000D03*
X159385000Y-123825000D03*
X163195000Y-123825000D03*
X167005000Y-123825000D03*
D21*
X139700000Y-84455000D03*
X124460000Y-84455000D03*
X129540000Y-84455000D03*
X134620000Y-84455000D03*
D22*
X133985000Y-123825000D03*
X130175000Y-123825000D03*
X126365000Y-123825000D03*
X137795000Y-123825000D03*
D21*
X101600000Y-84455000D03*
X96520000Y-84455000D03*
X91440000Y-84455000D03*
X106680000Y-84455000D03*
D22*
X100965000Y-123825000D03*
X97155000Y-123825000D03*
X93345000Y-123825000D03*
X104775000Y-123825000D03*
D23*
X115570000Y-115570000D03*
D24*
X117049600Y-110356900D03*
X115212800Y-108491600D03*
X114307700Y-110624100D03*
X105242600Y-117657800D03*
X114160000Y-120139100D03*
X113169000Y-120146100D03*
X111769200Y-118027600D03*
X101180000Y-126925400D03*
X119879300Y-113209000D03*
X133888800Y-129621800D03*
X112274000Y-121358600D03*
X101320400Y-125555600D03*
X118671700Y-110581400D03*
D25*
X105410000Y-92075000D02*
X105410000Y-90271600D01*
X138430000Y-92075000D02*
X138430000Y-90271600D01*
X138014300Y-89855900D02*
X138430000Y-90271600D01*
X105825700Y-89855900D02*
X138014300Y-89855900D01*
X105410000Y-90271600D02*
X105825700Y-89855900D01*
X171450000Y-86056400D02*
X171450000Y-92075000D01*
X168290700Y-82897100D02*
X171450000Y-86056400D01*
X145804500Y-82897100D02*
X168290700Y-82897100D01*
X138430000Y-90271600D02*
X145804500Y-82897100D01*
X107950000Y-90271600D02*
X125730000Y-90271600D01*
X107950000Y-92075000D02*
X107950000Y-90271600D01*
X125730000Y-92075000D02*
X125730000Y-90271600D01*
X173990000Y-92075000D02*
X173990000Y-93764100D01*
X107950000Y-92075000D02*
X107950000Y-93878400D01*
X107950000Y-93878400D02*
X92710000Y-93878400D01*
X92710000Y-92075000D02*
X92710000Y-93878400D01*
X149869400Y-102759000D02*
X149869400Y-102775000D01*
X158750000Y-93878400D02*
X149869400Y-102759000D01*
X148590000Y-102775000D02*
X149869400Y-102775000D01*
X158750000Y-92075000D02*
X158750000Y-93764100D01*
X158750000Y-93764100D02*
X158750000Y-93853400D01*
X158750000Y-93853400D02*
X158750000Y-93878400D01*
X140970000Y-90271600D02*
X158750000Y-90271600D01*
X140970000Y-92075000D02*
X140970000Y-90271600D01*
X158750000Y-92075000D02*
X158750000Y-90271600D01*
X83829400Y-110499400D02*
X97155000Y-123825000D01*
X83829400Y-102775000D02*
X83829400Y-110499400D01*
X82550000Y-102775000D02*
X83829400Y-102775000D01*
X115570000Y-102775000D02*
X116849400Y-102775000D01*
X148590000Y-102775000D02*
X147310600Y-102775000D01*
X117874400Y-101750000D02*
X116849400Y-102775000D01*
X146285600Y-101750000D02*
X117874400Y-101750000D01*
X147310600Y-102775000D02*
X146285600Y-101750000D01*
X173990000Y-93764100D02*
X173990000Y-93808700D01*
X173945300Y-93853400D02*
X158750000Y-93853400D01*
X173990000Y-93808700D02*
X173945300Y-93853400D01*
X183533900Y-103352600D02*
X185140600Y-103352600D01*
X173990000Y-93808700D02*
X183533900Y-103352600D01*
X185140600Y-105410000D02*
X185140600Y-103352600D01*
X184907000Y-107467400D02*
X185140600Y-107467400D01*
X170815000Y-121559400D02*
X184907000Y-107467400D01*
X170815000Y-123825000D02*
X170815000Y-121559400D01*
X185140600Y-105410000D02*
X185140600Y-107467400D01*
X113030000Y-115570000D02*
X115570000Y-115570000D01*
X104775000Y-123825000D02*
X113030000Y-115570000D01*
D26*
X115570000Y-94075000D02*
X117332000Y-94075000D01*
X150638000Y-94361000D02*
X156210000Y-94361000D01*
X150352000Y-94075000D02*
X150638000Y-94361000D01*
X156210000Y-92075000D02*
X156210000Y-94361000D01*
X148590000Y-94075000D02*
X150352000Y-94075000D01*
X123190000Y-92075000D02*
X123190000Y-94221300D01*
X146087500Y-94815500D02*
X146828000Y-94075000D01*
X123784200Y-94815500D02*
X146087500Y-94815500D01*
X123190000Y-94221300D02*
X123784200Y-94815500D01*
X148590000Y-94075000D02*
X146828000Y-94075000D01*
X117478300Y-94221300D02*
X123190000Y-94221300D01*
X117332000Y-94075000D02*
X117478300Y-94221300D01*
X82550000Y-94075000D02*
X83431000Y-94075000D01*
X83431000Y-94075000D02*
X84312000Y-94075000D01*
X74169800Y-76962000D02*
X72390000Y-76962000D01*
X83431000Y-86223200D02*
X74169800Y-76962000D01*
X83431000Y-94075000D02*
X83431000Y-86223200D01*
X72390000Y-74930000D02*
X72390000Y-76962000D01*
X90170000Y-92075000D02*
X90170000Y-94005400D01*
X115570000Y-94075000D02*
X113808000Y-94075000D01*
X84312000Y-94075000D02*
X90170000Y-94075000D01*
X90170000Y-94005400D02*
X90170000Y-94075000D01*
X113093500Y-94789500D02*
X113808000Y-94075000D01*
X90884500Y-94789500D02*
X113093500Y-94789500D01*
X90170000Y-94075000D02*
X90884500Y-94789500D01*
D25*
X95250000Y-130483500D02*
X95250000Y-135890000D01*
X98583700Y-127149800D02*
X95250000Y-130483500D01*
X98583700Y-107372100D02*
X98583700Y-127149800D01*
X97790000Y-106578400D02*
X98583700Y-107372100D01*
X97790000Y-104775000D02*
X97790000Y-106578400D01*
X132614900Y-102970100D02*
X130810000Y-104775000D01*
X141488100Y-102970100D02*
X132614900Y-102970100D01*
X142257100Y-103739100D02*
X141488100Y-102970100D01*
X142257100Y-105799500D02*
X142257100Y-103739100D01*
X129622200Y-118434400D02*
X142257100Y-105799500D01*
X113243300Y-118434400D02*
X129622200Y-118434400D01*
X97790000Y-133887700D02*
X113243300Y-118434400D01*
X97790000Y-135890000D02*
X97790000Y-133887700D01*
X163830000Y-104775000D02*
X163830000Y-106578400D01*
X151519300Y-118889100D02*
X163830000Y-106578400D01*
X113387400Y-118889100D02*
X151519300Y-118889100D01*
X100330000Y-131946500D02*
X113387400Y-118889100D01*
X100330000Y-135890000D02*
X100330000Y-131946500D01*
X128270000Y-104775000D02*
X128270000Y-105010400D01*
X161290000Y-104775000D02*
X161290000Y-106578400D01*
X130717000Y-102563400D02*
X128270000Y-105010400D01*
X141868000Y-102563400D02*
X130717000Y-102563400D01*
X146306300Y-107001700D02*
X141868000Y-102563400D01*
X160866700Y-107001700D02*
X146306300Y-107001700D01*
X161290000Y-106578400D02*
X160866700Y-107001700D01*
X126293800Y-106986600D02*
X128270000Y-105010400D01*
X113461400Y-106986600D02*
X126293800Y-106986600D01*
X109447400Y-102972600D02*
X113461400Y-106986600D01*
X97052400Y-102972600D02*
X109447400Y-102972600D01*
X95250000Y-104775000D02*
X97052400Y-102972600D01*
X132535000Y-107393400D02*
X133350000Y-106578400D01*
X101145000Y-107393400D02*
X132535000Y-107393400D01*
X100330000Y-106578400D02*
X101145000Y-107393400D01*
X100330000Y-104775000D02*
X100330000Y-106578400D01*
X133350000Y-104775000D02*
X133350000Y-106578400D01*
X125730000Y-104775000D02*
X125730000Y-102971600D01*
X158750000Y-104775000D02*
X158750000Y-106578400D01*
X126544900Y-102156700D02*
X125730000Y-102971600D01*
X142611400Y-102156700D02*
X126544900Y-102156700D01*
X147033100Y-106578400D02*
X142611400Y-102156700D01*
X158750000Y-106578400D02*
X147033100Y-106578400D01*
X114612400Y-106578400D02*
X125730000Y-106578400D01*
X110599800Y-102565800D02*
X114612400Y-106578400D01*
X93115800Y-102565800D02*
X110599800Y-102565800D01*
X92710000Y-102971600D02*
X93115800Y-102565800D01*
X92710000Y-104775000D02*
X92710000Y-102971600D01*
X125730000Y-104775000D02*
X125730000Y-106578400D01*
X101663500Y-74192600D02*
X101663500Y-74930000D01*
X100849800Y-73378900D02*
X101663500Y-74192600D01*
X71335200Y-73378900D02*
X100849800Y-73378900D01*
X71208500Y-73505600D02*
X71335200Y-73378900D01*
X71208500Y-86200600D02*
X71208500Y-73505600D01*
X87979500Y-102971600D02*
X71208500Y-86200600D01*
X90170000Y-102971600D02*
X87979500Y-102971600D01*
X90170000Y-104775000D02*
X90170000Y-102971600D01*
X102870000Y-74930000D02*
X101663500Y-74930000D01*
X117049600Y-110328400D02*
X115212800Y-108491600D01*
X117049600Y-110356900D02*
X117049600Y-110328400D01*
X112276300Y-110624100D02*
X105242600Y-117657800D01*
X114307700Y-110624100D02*
X112276300Y-110624100D01*
D26*
X168910000Y-85725000D02*
X168910000Y-92075000D01*
X167640000Y-84455000D02*
X168910000Y-85725000D01*
D25*
X171450000Y-104775000D02*
X171450000Y-106578400D01*
X157889300Y-120139100D02*
X114160000Y-120139100D01*
X171450000Y-106578400D02*
X157889300Y-120139100D01*
X173990000Y-104775000D02*
X173990000Y-106578400D01*
X113886400Y-120863500D02*
X113169000Y-120146100D01*
X159704900Y-120863500D02*
X113886400Y-120863500D01*
X173990000Y-106578400D02*
X159704900Y-120863500D01*
X138430000Y-104775000D02*
X138430000Y-106578400D01*
X126980800Y-118027600D02*
X111769200Y-118027600D01*
X138430000Y-106578400D02*
X126980800Y-118027600D01*
D26*
X101346000Y-89789000D02*
X100330000Y-89789000D01*
X106680000Y-84455000D02*
X101346000Y-89789000D01*
X100330000Y-92075000D02*
X100330000Y-89789000D01*
D25*
X113341700Y-113209000D02*
X119879300Y-113209000D01*
X102870100Y-123680600D02*
X113341700Y-113209000D01*
X102870100Y-125235300D02*
X102870100Y-123680600D01*
X101180000Y-126925400D02*
X102870100Y-125235300D01*
X120537200Y-129621800D02*
X112274000Y-121358600D01*
X133888800Y-129621800D02*
X120537200Y-129621800D01*
X117582100Y-111671000D02*
X118671700Y-110581400D01*
X114263600Y-111671000D02*
X117582100Y-111671000D01*
X102389400Y-123545200D02*
X114263600Y-111671000D01*
X102389400Y-124486600D02*
X102389400Y-123545200D01*
X101320400Y-125555600D02*
X102389400Y-124486600D01*
D27*
G36*
X190715900Y-138645900D02*
X70269100Y-138645900D01*
X70269100Y-135516248D01*
X71158100Y-135516248D01*
X71158100Y-136263752D01*
X71251873Y-136735180D01*
X71518915Y-137134837D01*
X71918572Y-137401879D01*
X72390000Y-137495652D01*
X72861428Y-137401879D01*
X73261085Y-137134837D01*
X73528127Y-136735180D01*
X73621900Y-136263752D01*
X73621900Y-135516248D01*
X73698100Y-135516248D01*
X73698100Y-136263752D01*
X73791873Y-136735180D01*
X74058915Y-137134837D01*
X74458572Y-137401879D01*
X74930000Y-137495652D01*
X75401428Y-137401879D01*
X75801085Y-137134837D01*
X76068127Y-136735180D01*
X76161900Y-136263752D01*
X76161900Y-135516248D01*
X76238100Y-135516248D01*
X76238100Y-136263752D01*
X76331873Y-136735180D01*
X76598915Y-137134837D01*
X76998572Y-137401879D01*
X77470000Y-137495652D01*
X77941428Y-137401879D01*
X78341085Y-137134837D01*
X78608127Y-136735180D01*
X78701900Y-136263752D01*
X78701900Y-135516248D01*
X78778100Y-135516248D01*
X78778100Y-136263752D01*
X78871873Y-136735180D01*
X79138915Y-137134837D01*
X79538572Y-137401879D01*
X80010000Y-137495652D01*
X80481428Y-137401879D01*
X80881085Y-137134837D01*
X81148127Y-136735180D01*
X81241900Y-136263752D01*
X81241900Y-135516248D01*
X81318100Y-135516248D01*
X81318100Y-136263752D01*
X81411873Y-136735180D01*
X81678915Y-137134837D01*
X82078572Y-137401879D01*
X82550000Y-137495652D01*
X83021428Y-137401879D01*
X83421085Y-137134837D01*
X83688127Y-136735180D01*
X83781900Y-136263752D01*
X83781900Y-135516248D01*
X83858100Y-135516248D01*
X83858100Y-136263752D01*
X83951873Y-136735180D01*
X84218915Y-137134837D01*
X84618572Y-137401879D01*
X85090000Y-137495652D01*
X85561428Y-137401879D01*
X85961085Y-137134837D01*
X86228127Y-136735180D01*
X86321900Y-136263752D01*
X86321900Y-135516248D01*
X86398100Y-135516248D01*
X86398100Y-136263752D01*
X86491873Y-136735180D01*
X86758915Y-137134837D01*
X87158572Y-137401879D01*
X87630000Y-137495652D01*
X88101428Y-137401879D01*
X88501085Y-137134837D01*
X88768127Y-136735180D01*
X88861900Y-136263752D01*
X88861900Y-135516248D01*
X88938100Y-135516248D01*
X88938100Y-136263752D01*
X89031873Y-136735180D01*
X89298915Y-137134837D01*
X89698572Y-137401879D01*
X90170000Y-137495652D01*
X90641428Y-137401879D01*
X91041085Y-137134837D01*
X91308127Y-136735180D01*
X91401900Y-136263752D01*
X91401900Y-135516248D01*
X91478100Y-135516248D01*
X91478100Y-136263752D01*
X91571873Y-136735180D01*
X91838915Y-137134837D01*
X92238572Y-137401879D01*
X92710000Y-137495652D01*
X93181428Y-137401879D01*
X93581085Y-137134837D01*
X93848127Y-136735180D01*
X93941900Y-136263752D01*
X93941900Y-135516248D01*
X93848127Y-135044820D01*
X93581085Y-134645163D01*
X93181428Y-134378121D01*
X92710000Y-134284348D01*
X92238572Y-134378121D01*
X91838915Y-134645163D01*
X91571873Y-135044820D01*
X91478100Y-135516248D01*
X91401900Y-135516248D01*
X91308127Y-135044820D01*
X91041085Y-134645163D01*
X90641428Y-134378121D01*
X90170000Y-134284348D01*
X89698572Y-134378121D01*
X89298915Y-134645163D01*
X89031873Y-135044820D01*
X88938100Y-135516248D01*
X88861900Y-135516248D01*
X88768127Y-135044820D01*
X88501085Y-134645163D01*
X88101428Y-134378121D01*
X87630000Y-134284348D01*
X87158572Y-134378121D01*
X86758915Y-134645163D01*
X86491873Y-135044820D01*
X86398100Y-135516248D01*
X86321900Y-135516248D01*
X86228127Y-135044820D01*
X85961085Y-134645163D01*
X85561428Y-134378121D01*
X85090000Y-134284348D01*
X84618572Y-134378121D01*
X84218915Y-134645163D01*
X83951873Y-135044820D01*
X83858100Y-135516248D01*
X83781900Y-135516248D01*
X83688127Y-135044820D01*
X83421085Y-134645163D01*
X83021428Y-134378121D01*
X82550000Y-134284348D01*
X82078572Y-134378121D01*
X81678915Y-134645163D01*
X81411873Y-135044820D01*
X81318100Y-135516248D01*
X81241900Y-135516248D01*
X81148127Y-135044820D01*
X80881085Y-134645163D01*
X80481428Y-134378121D01*
X80010000Y-134284348D01*
X79538572Y-134378121D01*
X79138915Y-134645163D01*
X78871873Y-135044820D01*
X78778100Y-135516248D01*
X78701900Y-135516248D01*
X78608127Y-135044820D01*
X78341085Y-134645163D01*
X77941428Y-134378121D01*
X77470000Y-134284348D01*
X76998572Y-134378121D01*
X76598915Y-134645163D01*
X76331873Y-135044820D01*
X76238100Y-135516248D01*
X76161900Y-135516248D01*
X76068127Y-135044820D01*
X75801085Y-134645163D01*
X75401428Y-134378121D01*
X74930000Y-134284348D01*
X74458572Y-134378121D01*
X74058915Y-134645163D01*
X73791873Y-135044820D01*
X73698100Y-135516248D01*
X73621900Y-135516248D01*
X73528127Y-135044820D01*
X73261085Y-134645163D01*
X72861428Y-134378121D01*
X72390000Y-134284348D01*
X71918572Y-134378121D01*
X71518915Y-134645163D01*
X71251873Y-135044820D01*
X71158100Y-135516248D01*
X70269100Y-135516248D01*
X70269100Y-131222477D01*
X71576840Y-131222477D01*
X71893259Y-131988270D01*
X72478648Y-132574682D01*
X73243888Y-132892437D01*
X74072477Y-132893160D01*
X74838270Y-132576741D01*
X75424682Y-131991352D01*
X75742437Y-131226112D01*
X75743160Y-130397523D01*
X75426741Y-129631730D01*
X74841352Y-129045318D01*
X74076112Y-128727563D01*
X73247523Y-128726840D01*
X72481730Y-129043259D01*
X71895318Y-129628648D01*
X71577563Y-130393888D01*
X71576840Y-131222477D01*
X70269100Y-131222477D01*
X70269100Y-124117069D01*
X91869945Y-124117069D01*
X92093996Y-124659316D01*
X92508502Y-125074546D01*
X93050357Y-125299543D01*
X93637069Y-125300055D01*
X94179316Y-125076004D01*
X94594546Y-124661498D01*
X94819543Y-124119643D01*
X94820055Y-123532931D01*
X94596004Y-122990684D01*
X94181498Y-122575454D01*
X93639643Y-122350457D01*
X93052931Y-122349945D01*
X92510684Y-122573996D01*
X92095454Y-122988502D01*
X91870457Y-123530357D01*
X91869945Y-124117069D01*
X70269100Y-124117069D01*
X70269100Y-73505600D01*
X70751300Y-73505600D01*
X70751300Y-86200600D01*
X70786102Y-86375563D01*
X70885211Y-86523889D01*
X87656211Y-103294889D01*
X87804537Y-103393998D01*
X87979500Y-103428800D01*
X89148138Y-103428800D01*
X88949740Y-103725724D01*
X88849200Y-104231172D01*
X88849200Y-105318828D01*
X88949740Y-105824276D01*
X89236053Y-106252775D01*
X89664552Y-106539088D01*
X90170000Y-106639628D01*
X90675448Y-106539088D01*
X91103947Y-106252775D01*
X91390260Y-105824276D01*
X91440000Y-105574216D01*
X91489740Y-105824276D01*
X91776053Y-106252775D01*
X92204552Y-106539088D01*
X92710000Y-106639628D01*
X93215448Y-106539088D01*
X93643947Y-106252775D01*
X93930260Y-105824276D01*
X93980000Y-105574216D01*
X94029740Y-105824276D01*
X94316053Y-106252775D01*
X94744552Y-106539088D01*
X95250000Y-106639628D01*
X95755448Y-106539088D01*
X96183947Y-106252775D01*
X96470260Y-105824276D01*
X96520000Y-105574216D01*
X96569740Y-105824276D01*
X96856053Y-106252775D01*
X97284552Y-106539088D01*
X97332800Y-106548685D01*
X97332800Y-106578400D01*
X97367602Y-106753363D01*
X97466711Y-106901689D01*
X98126500Y-107561478D01*
X98126500Y-122710692D01*
X97991498Y-122575454D01*
X97449643Y-122350457D01*
X96862931Y-122349945D01*
X96483359Y-122506781D01*
X84286600Y-110310022D01*
X84286600Y-102775000D01*
X84251798Y-102600037D01*
X84152689Y-102451711D01*
X84004363Y-102352602D01*
X83860771Y-102324040D01*
X83860771Y-100725000D01*
X83837115Y-100606073D01*
X83769748Y-100505252D01*
X83668927Y-100437885D01*
X83550000Y-100414229D01*
X81550000Y-100414229D01*
X81431073Y-100437885D01*
X81330252Y-100505252D01*
X81262885Y-100606073D01*
X81239229Y-100725000D01*
X81239229Y-104825000D01*
X81262885Y-104943927D01*
X81330252Y-105044748D01*
X81431073Y-105112115D01*
X81550000Y-105135771D01*
X83372200Y-105135771D01*
X83372200Y-110499400D01*
X83407002Y-110674363D01*
X83506111Y-110822689D01*
X95836935Y-123153513D01*
X95680457Y-123530357D01*
X95679945Y-124117069D01*
X95903996Y-124659316D01*
X96318502Y-125074546D01*
X96860357Y-125299543D01*
X97447069Y-125300055D01*
X97989316Y-125076004D01*
X98126500Y-124939059D01*
X98126500Y-126960422D01*
X94926711Y-130160211D01*
X94827602Y-130308537D01*
X94792800Y-130483500D01*
X94792800Y-134375291D01*
X94778572Y-134378121D01*
X94378915Y-134645163D01*
X94111873Y-135044820D01*
X94018100Y-135516248D01*
X94018100Y-136263752D01*
X94111873Y-136735180D01*
X94378915Y-137134837D01*
X94778572Y-137401879D01*
X95250000Y-137495652D01*
X95721428Y-137401879D01*
X96121085Y-137134837D01*
X96388127Y-136735180D01*
X96481900Y-136263752D01*
X96481900Y-135516248D01*
X96388127Y-135044820D01*
X96121085Y-134645163D01*
X95721428Y-134378121D01*
X95707200Y-134375291D01*
X95707200Y-130672878D01*
X98906989Y-127473089D01*
X99006098Y-127324763D01*
X99040900Y-127149800D01*
X99040900Y-107372100D01*
X99006098Y-107197137D01*
X98906989Y-107048811D01*
X98356484Y-106498306D01*
X98723947Y-106252775D01*
X99010260Y-105824276D01*
X99060000Y-105574216D01*
X99109740Y-105824276D01*
X99396053Y-106252775D01*
X99824552Y-106539088D01*
X99872800Y-106548685D01*
X99872800Y-106578400D01*
X99907602Y-106753363D01*
X100006711Y-106901689D01*
X100821711Y-107716689D01*
X100970037Y-107815798D01*
X101145000Y-107850600D01*
X114801989Y-107850600D01*
X114788910Y-107856004D01*
X114577944Y-108066601D01*
X114463630Y-108341901D01*
X114463370Y-108639991D01*
X114577204Y-108915490D01*
X114787801Y-109126456D01*
X115063101Y-109240770D01*
X115315612Y-109240990D01*
X116300414Y-110225793D01*
X116300170Y-110505291D01*
X116414004Y-110780790D01*
X116624601Y-110991756D01*
X116899901Y-111106070D01*
X117197991Y-111106330D01*
X117473490Y-110992496D01*
X117684456Y-110781899D01*
X117798770Y-110506599D01*
X117799030Y-110208509D01*
X117685196Y-109933010D01*
X117474599Y-109722044D01*
X117199299Y-109607730D01*
X116975313Y-109607535D01*
X115962011Y-108594233D01*
X115962230Y-108343209D01*
X115848396Y-108067710D01*
X115637799Y-107856744D01*
X115623003Y-107850600D01*
X132535000Y-107850600D01*
X132709963Y-107815798D01*
X132858289Y-107716689D01*
X133673289Y-106901689D01*
X133772398Y-106753363D01*
X133807200Y-106578400D01*
X133807200Y-106548685D01*
X133855448Y-106539088D01*
X134283947Y-106252775D01*
X134570260Y-105824276D01*
X134620000Y-105574216D01*
X134669740Y-105824276D01*
X134956053Y-106252775D01*
X135384552Y-106539088D01*
X135890000Y-106639628D01*
X136395448Y-106539088D01*
X136823947Y-106252775D01*
X137110260Y-105824276D01*
X137160000Y-105574216D01*
X137209740Y-105824276D01*
X137496053Y-106252775D01*
X137863516Y-106498306D01*
X126791422Y-117570400D01*
X117322139Y-117570400D01*
X117388927Y-117557115D01*
X117489748Y-117489748D01*
X117557115Y-117388927D01*
X117580771Y-117270000D01*
X117580771Y-113870000D01*
X117557115Y-113751073D01*
X117500404Y-113666200D01*
X119276956Y-113666200D01*
X119454301Y-113843856D01*
X119729601Y-113958170D01*
X120027691Y-113958430D01*
X120303190Y-113844596D01*
X120514156Y-113633999D01*
X120628470Y-113358699D01*
X120628730Y-113060609D01*
X120514896Y-112785110D01*
X120304299Y-112574144D01*
X120028999Y-112459830D01*
X119730909Y-112459570D01*
X119455410Y-112573404D01*
X119276701Y-112751800D01*
X113829378Y-112751800D01*
X114452978Y-112128200D01*
X117582100Y-112128200D01*
X117757063Y-112093398D01*
X117905389Y-111994289D01*
X118569067Y-111330611D01*
X118820091Y-111330830D01*
X119095590Y-111216996D01*
X119306556Y-111006399D01*
X119420870Y-110731099D01*
X119421130Y-110433009D01*
X119307296Y-110157510D01*
X119096699Y-109946544D01*
X118821399Y-109832230D01*
X118523309Y-109831970D01*
X118247810Y-109945804D01*
X118036844Y-110156401D01*
X117922530Y-110431701D01*
X117922310Y-110684212D01*
X117392722Y-111213800D01*
X114777566Y-111213800D01*
X114942556Y-111049099D01*
X115056870Y-110773799D01*
X115057130Y-110475709D01*
X114943296Y-110200210D01*
X114732699Y-109989244D01*
X114457399Y-109874930D01*
X114159309Y-109874670D01*
X113883810Y-109988504D01*
X113705101Y-110166900D01*
X112276300Y-110166900D01*
X112101337Y-110201702D01*
X111953011Y-110300811D01*
X105345233Y-116908589D01*
X105094209Y-116908370D01*
X104818710Y-117022204D01*
X104607744Y-117232801D01*
X104493430Y-117508101D01*
X104493170Y-117806191D01*
X104607004Y-118081690D01*
X104817601Y-118292656D01*
X105092901Y-118406970D01*
X105390991Y-118407230D01*
X105666490Y-118293396D01*
X105877456Y-118082799D01*
X105991770Y-117807499D01*
X105991990Y-117554988D01*
X112465678Y-111081300D01*
X113705356Y-111081300D01*
X113882701Y-111258956D01*
X114000153Y-111307726D01*
X113940311Y-111347711D01*
X102239785Y-123048237D01*
X102216004Y-122990684D01*
X101801498Y-122575454D01*
X101259643Y-122350457D01*
X100672931Y-122349945D01*
X100130684Y-122573996D01*
X99715454Y-122988502D01*
X99490457Y-123530357D01*
X99489945Y-124117069D01*
X99713996Y-124659316D01*
X100128502Y-125074546D01*
X100623477Y-125280077D01*
X100571230Y-125405901D01*
X100570970Y-125703991D01*
X100684804Y-125979490D01*
X100895401Y-126190456D01*
X100945851Y-126211405D01*
X100756110Y-126289804D01*
X100545144Y-126500401D01*
X100430830Y-126775701D01*
X100430570Y-127073791D01*
X100544404Y-127349290D01*
X100755001Y-127560256D01*
X101030301Y-127674570D01*
X101328391Y-127674830D01*
X101603890Y-127560996D01*
X101814856Y-127350399D01*
X101929170Y-127075099D01*
X101929390Y-126822588D01*
X103193389Y-125558589D01*
X103292498Y-125410263D01*
X103298391Y-125380637D01*
X103327300Y-125235300D01*
X103327300Y-124183273D01*
X103523996Y-124659316D01*
X103938502Y-125074546D01*
X104480357Y-125299543D01*
X105067069Y-125300055D01*
X105609316Y-125076004D01*
X106024546Y-124661498D01*
X106249543Y-124119643D01*
X106250055Y-123532931D01*
X106093219Y-123153359D01*
X111034628Y-118211950D01*
X111133604Y-118451490D01*
X111344201Y-118662456D01*
X111619501Y-118776770D01*
X111917591Y-118777030D01*
X112193090Y-118663196D01*
X112371799Y-118484800D01*
X112546321Y-118484800D01*
X97466711Y-133564411D01*
X97367602Y-133712737D01*
X97332800Y-133887700D01*
X97332800Y-134375291D01*
X97318572Y-134378121D01*
X96918915Y-134645163D01*
X96651873Y-135044820D01*
X96558100Y-135516248D01*
X96558100Y-136263752D01*
X96651873Y-136735180D01*
X96918915Y-137134837D01*
X97318572Y-137401879D01*
X97790000Y-137495652D01*
X98261428Y-137401879D01*
X98661085Y-137134837D01*
X98928127Y-136735180D01*
X99021900Y-136263752D01*
X99021900Y-135516248D01*
X98928127Y-135044820D01*
X98661085Y-134645163D01*
X98261428Y-134378121D01*
X98247200Y-134375291D01*
X98247200Y-134077078D01*
X99872800Y-132451478D01*
X99872800Y-134375291D01*
X99858572Y-134378121D01*
X99458915Y-134645163D01*
X99191873Y-135044820D01*
X99098100Y-135516248D01*
X99098100Y-136263752D01*
X99191873Y-136735180D01*
X99458915Y-137134837D01*
X99858572Y-137401879D01*
X100330000Y-137495652D01*
X100801428Y-137401879D01*
X101201085Y-137134837D01*
X101468127Y-136735180D01*
X101561900Y-136263752D01*
X101561900Y-135516248D01*
X101638100Y-135516248D01*
X101638100Y-136263752D01*
X101731873Y-136735180D01*
X101998915Y-137134837D01*
X102398572Y-137401879D01*
X102870000Y-137495652D01*
X103341428Y-137401879D01*
X103741085Y-137134837D01*
X104008127Y-136735180D01*
X104101900Y-136263752D01*
X104101900Y-135516248D01*
X104178100Y-135516248D01*
X104178100Y-136263752D01*
X104271873Y-136735180D01*
X104538915Y-137134837D01*
X104938572Y-137401879D01*
X105410000Y-137495652D01*
X105881428Y-137401879D01*
X106281085Y-137134837D01*
X106548127Y-136735180D01*
X106641900Y-136263752D01*
X106641900Y-135516248D01*
X106718100Y-135516248D01*
X106718100Y-136263752D01*
X106811873Y-136735180D01*
X107078915Y-137134837D01*
X107478572Y-137401879D01*
X107950000Y-137495652D01*
X108421428Y-137401879D01*
X108821085Y-137134837D01*
X109088127Y-136735180D01*
X109181900Y-136263752D01*
X109181900Y-135516248D01*
X109258100Y-135516248D01*
X109258100Y-136263752D01*
X109351873Y-136735180D01*
X109618915Y-137134837D01*
X110018572Y-137401879D01*
X110490000Y-137495652D01*
X110961428Y-137401879D01*
X111361085Y-137134837D01*
X111628127Y-136735180D01*
X111721900Y-136263752D01*
X111721900Y-135516248D01*
X111798100Y-135516248D01*
X111798100Y-136263752D01*
X111891873Y-136735180D01*
X112158915Y-137134837D01*
X112558572Y-137401879D01*
X113030000Y-137495652D01*
X113501428Y-137401879D01*
X113901085Y-137134837D01*
X114168127Y-136735180D01*
X114261900Y-136263752D01*
X114261900Y-135516248D01*
X114338100Y-135516248D01*
X114338100Y-136263752D01*
X114431873Y-136735180D01*
X114698915Y-137134837D01*
X115098572Y-137401879D01*
X115570000Y-137495652D01*
X116041428Y-137401879D01*
X116441085Y-137134837D01*
X116708127Y-136735180D01*
X116801900Y-136263752D01*
X116801900Y-135516248D01*
X116878100Y-135516248D01*
X116878100Y-136263752D01*
X116971873Y-136735180D01*
X117238915Y-137134837D01*
X117638572Y-137401879D01*
X118110000Y-137495652D01*
X118581428Y-137401879D01*
X118981085Y-137134837D01*
X119248127Y-136735180D01*
X119341900Y-136263752D01*
X119341900Y-135516248D01*
X119418100Y-135516248D01*
X119418100Y-136263752D01*
X119511873Y-136735180D01*
X119778915Y-137134837D01*
X120178572Y-137401879D01*
X120650000Y-137495652D01*
X121121428Y-137401879D01*
X121521085Y-137134837D01*
X121788127Y-136735180D01*
X121881900Y-136263752D01*
X121881900Y-135516248D01*
X121958100Y-135516248D01*
X121958100Y-136263752D01*
X122051873Y-136735180D01*
X122318915Y-137134837D01*
X122718572Y-137401879D01*
X123190000Y-137495652D01*
X123661428Y-137401879D01*
X124061085Y-137134837D01*
X124328127Y-136735180D01*
X124421900Y-136263752D01*
X124421900Y-135516248D01*
X124498100Y-135516248D01*
X124498100Y-136263752D01*
X124591873Y-136735180D01*
X124858915Y-137134837D01*
X125258572Y-137401879D01*
X125730000Y-137495652D01*
X126201428Y-137401879D01*
X126601085Y-137134837D01*
X126868127Y-136735180D01*
X126961900Y-136263752D01*
X126961900Y-135516248D01*
X127038100Y-135516248D01*
X127038100Y-136263752D01*
X127131873Y-136735180D01*
X127398915Y-137134837D01*
X127798572Y-137401879D01*
X128270000Y-137495652D01*
X128741428Y-137401879D01*
X129141085Y-137134837D01*
X129408127Y-136735180D01*
X129501900Y-136263752D01*
X129501900Y-135516248D01*
X129578100Y-135516248D01*
X129578100Y-136263752D01*
X129671873Y-136735180D01*
X129938915Y-137134837D01*
X130338572Y-137401879D01*
X130810000Y-137495652D01*
X131281428Y-137401879D01*
X131681085Y-137134837D01*
X131948127Y-136735180D01*
X132041900Y-136263752D01*
X132041900Y-135516248D01*
X132118100Y-135516248D01*
X132118100Y-136263752D01*
X132211873Y-136735180D01*
X132478915Y-137134837D01*
X132878572Y-137401879D01*
X133350000Y-137495652D01*
X133821428Y-137401879D01*
X134221085Y-137134837D01*
X134488127Y-136735180D01*
X134574197Y-136302477D01*
X163016840Y-136302477D01*
X163333259Y-137068270D01*
X163918648Y-137654682D01*
X164683888Y-137972437D01*
X165512477Y-137973160D01*
X166278270Y-137656741D01*
X166864682Y-137071352D01*
X167182437Y-136306112D01*
X167183160Y-135477523D01*
X166866741Y-134711730D01*
X166281352Y-134125318D01*
X165516112Y-133807563D01*
X164687523Y-133806840D01*
X163921730Y-134123259D01*
X163335318Y-134708648D01*
X163017563Y-135473888D01*
X163016840Y-136302477D01*
X134574197Y-136302477D01*
X134581900Y-136263752D01*
X134581900Y-135516248D01*
X134488127Y-135044820D01*
X134221085Y-134645163D01*
X133821428Y-134378121D01*
X133350000Y-134284348D01*
X132878572Y-134378121D01*
X132478915Y-134645163D01*
X132211873Y-135044820D01*
X132118100Y-135516248D01*
X132041900Y-135516248D01*
X131948127Y-135044820D01*
X131681085Y-134645163D01*
X131281428Y-134378121D01*
X130810000Y-134284348D01*
X130338572Y-134378121D01*
X129938915Y-134645163D01*
X129671873Y-135044820D01*
X129578100Y-135516248D01*
X129501900Y-135516248D01*
X129408127Y-135044820D01*
X129141085Y-134645163D01*
X128741428Y-134378121D01*
X128270000Y-134284348D01*
X127798572Y-134378121D01*
X127398915Y-134645163D01*
X127131873Y-135044820D01*
X127038100Y-135516248D01*
X126961900Y-135516248D01*
X126868127Y-135044820D01*
X126601085Y-134645163D01*
X126201428Y-134378121D01*
X125730000Y-134284348D01*
X125258572Y-134378121D01*
X124858915Y-134645163D01*
X124591873Y-135044820D01*
X124498100Y-135516248D01*
X124421900Y-135516248D01*
X124328127Y-135044820D01*
X124061085Y-134645163D01*
X123661428Y-134378121D01*
X123190000Y-134284348D01*
X122718572Y-134378121D01*
X122318915Y-134645163D01*
X122051873Y-135044820D01*
X121958100Y-135516248D01*
X121881900Y-135516248D01*
X121788127Y-135044820D01*
X121521085Y-134645163D01*
X121121428Y-134378121D01*
X120650000Y-134284348D01*
X120178572Y-134378121D01*
X119778915Y-134645163D01*
X119511873Y-135044820D01*
X119418100Y-135516248D01*
X119341900Y-135516248D01*
X119248127Y-135044820D01*
X118981085Y-134645163D01*
X118581428Y-134378121D01*
X118110000Y-134284348D01*
X117638572Y-134378121D01*
X117238915Y-134645163D01*
X116971873Y-135044820D01*
X116878100Y-135516248D01*
X116801900Y-135516248D01*
X116708127Y-135044820D01*
X116441085Y-134645163D01*
X116041428Y-134378121D01*
X115570000Y-134284348D01*
X115098572Y-134378121D01*
X114698915Y-134645163D01*
X114431873Y-135044820D01*
X114338100Y-135516248D01*
X114261900Y-135516248D01*
X114168127Y-135044820D01*
X113901085Y-134645163D01*
X113501428Y-134378121D01*
X113030000Y-134284348D01*
X112558572Y-134378121D01*
X112158915Y-134645163D01*
X111891873Y-135044820D01*
X111798100Y-135516248D01*
X111721900Y-135516248D01*
X111628127Y-135044820D01*
X111361085Y-134645163D01*
X110961428Y-134378121D01*
X110490000Y-134284348D01*
X110018572Y-134378121D01*
X109618915Y-134645163D01*
X109351873Y-135044820D01*
X109258100Y-135516248D01*
X109181900Y-135516248D01*
X109088127Y-135044820D01*
X108821085Y-134645163D01*
X108421428Y-134378121D01*
X107950000Y-134284348D01*
X107478572Y-134378121D01*
X107078915Y-134645163D01*
X106811873Y-135044820D01*
X106718100Y-135516248D01*
X106641900Y-135516248D01*
X106548127Y-135044820D01*
X106281085Y-134645163D01*
X105881428Y-134378121D01*
X105410000Y-134284348D01*
X104938572Y-134378121D01*
X104538915Y-134645163D01*
X104271873Y-135044820D01*
X104178100Y-135516248D01*
X104101900Y-135516248D01*
X104008127Y-135044820D01*
X103741085Y-134645163D01*
X103341428Y-134378121D01*
X102870000Y-134284348D01*
X102398572Y-134378121D01*
X101998915Y-134645163D01*
X101731873Y-135044820D01*
X101638100Y-135516248D01*
X101561900Y-135516248D01*
X101468127Y-135044820D01*
X101201085Y-134645163D01*
X100801428Y-134378121D01*
X100787200Y-134375291D01*
X100787200Y-132135878D01*
X111524665Y-121398413D01*
X111524570Y-121506991D01*
X111638404Y-121782490D01*
X111849001Y-121993456D01*
X112124301Y-122107770D01*
X112376812Y-122107990D01*
X120213911Y-129945090D01*
X120335451Y-130026300D01*
X120362237Y-130044198D01*
X120537200Y-130079000D01*
X133286456Y-130079000D01*
X133463801Y-130256656D01*
X133739101Y-130370970D01*
X134037191Y-130371230D01*
X134312690Y-130257396D01*
X134523656Y-130046799D01*
X134637970Y-129771499D01*
X134638230Y-129473409D01*
X134524396Y-129197910D01*
X134313799Y-128986944D01*
X134038499Y-128872630D01*
X133740409Y-128872370D01*
X133464910Y-128986204D01*
X133286201Y-129164600D01*
X120726579Y-129164600D01*
X115679048Y-124117069D01*
X124889945Y-124117069D01*
X125113996Y-124659316D01*
X125528502Y-125074546D01*
X126070357Y-125299543D01*
X126657069Y-125300055D01*
X127199316Y-125076004D01*
X127614546Y-124661498D01*
X127839543Y-124119643D01*
X127839545Y-124117069D01*
X128699945Y-124117069D01*
X128923996Y-124659316D01*
X129338502Y-125074546D01*
X129880357Y-125299543D01*
X130467069Y-125300055D01*
X131009316Y-125076004D01*
X131424546Y-124661498D01*
X131649543Y-124119643D01*
X131649545Y-124117069D01*
X132509945Y-124117069D01*
X132733996Y-124659316D01*
X133148502Y-125074546D01*
X133690357Y-125299543D01*
X134277069Y-125300055D01*
X134819316Y-125076004D01*
X135234546Y-124661498D01*
X135459543Y-124119643D01*
X135459545Y-124117069D01*
X136319945Y-124117069D01*
X136543996Y-124659316D01*
X136958502Y-125074546D01*
X137500357Y-125299543D01*
X138087069Y-125300055D01*
X138629316Y-125076004D01*
X139044546Y-124661498D01*
X139269543Y-124119643D01*
X139269545Y-124117069D01*
X157909945Y-124117069D01*
X158133996Y-124659316D01*
X158548502Y-125074546D01*
X159090357Y-125299543D01*
X159677069Y-125300055D01*
X160219316Y-125076004D01*
X160634546Y-124661498D01*
X160859543Y-124119643D01*
X160859545Y-124117069D01*
X161719945Y-124117069D01*
X161943996Y-124659316D01*
X162358502Y-125074546D01*
X162900357Y-125299543D01*
X163487069Y-125300055D01*
X164029316Y-125076004D01*
X164444546Y-124661498D01*
X164669543Y-124119643D01*
X164669545Y-124117069D01*
X165529945Y-124117069D01*
X165753996Y-124659316D01*
X166168502Y-125074546D01*
X166710357Y-125299543D01*
X167297069Y-125300055D01*
X167839316Y-125076004D01*
X168254546Y-124661498D01*
X168479543Y-124119643D01*
X168480055Y-123532931D01*
X168256004Y-122990684D01*
X167841498Y-122575454D01*
X167299643Y-122350457D01*
X166712931Y-122349945D01*
X166170684Y-122573996D01*
X165755454Y-122988502D01*
X165530457Y-123530357D01*
X165529945Y-124117069D01*
X164669545Y-124117069D01*
X164670055Y-123532931D01*
X164446004Y-122990684D01*
X164031498Y-122575454D01*
X163489643Y-122350457D01*
X162902931Y-122349945D01*
X162360684Y-122573996D01*
X161945454Y-122988502D01*
X161720457Y-123530357D01*
X161719945Y-124117069D01*
X160859545Y-124117069D01*
X160860055Y-123532931D01*
X160636004Y-122990684D01*
X160221498Y-122575454D01*
X159679643Y-122350457D01*
X159092931Y-122349945D01*
X158550684Y-122573996D01*
X158135454Y-122988502D01*
X157910457Y-123530357D01*
X157909945Y-124117069D01*
X139269545Y-124117069D01*
X139270055Y-123532931D01*
X139046004Y-122990684D01*
X138631498Y-122575454D01*
X138089643Y-122350457D01*
X137502931Y-122349945D01*
X136960684Y-122573996D01*
X136545454Y-122988502D01*
X136320457Y-123530357D01*
X136319945Y-124117069D01*
X135459545Y-124117069D01*
X135460055Y-123532931D01*
X135236004Y-122990684D01*
X134821498Y-122575454D01*
X134279643Y-122350457D01*
X133692931Y-122349945D01*
X133150684Y-122573996D01*
X132735454Y-122988502D01*
X132510457Y-123530357D01*
X132509945Y-124117069D01*
X131649545Y-124117069D01*
X131650055Y-123532931D01*
X131426004Y-122990684D01*
X131011498Y-122575454D01*
X130469643Y-122350457D01*
X129882931Y-122349945D01*
X129340684Y-122573996D01*
X128925454Y-122988502D01*
X128700457Y-123530357D01*
X128699945Y-124117069D01*
X127839545Y-124117069D01*
X127840055Y-123532931D01*
X127616004Y-122990684D01*
X127201498Y-122575454D01*
X126659643Y-122350457D01*
X126072931Y-122349945D01*
X125530684Y-122573996D01*
X125115454Y-122988502D01*
X124890457Y-123530357D01*
X124889945Y-124117069D01*
X115679048Y-124117069D01*
X113023211Y-121461233D01*
X113023430Y-121210209D01*
X112909596Y-120934710D01*
X112764684Y-120789544D01*
X113019301Y-120895270D01*
X113271812Y-120895490D01*
X113563111Y-121186789D01*
X113711437Y-121285898D01*
X113886400Y-121320700D01*
X159704900Y-121320700D01*
X159879863Y-121285898D01*
X160028189Y-121186789D01*
X174313289Y-106901689D01*
X174412398Y-106753363D01*
X174447200Y-106578400D01*
X174447200Y-106548685D01*
X174495448Y-106539088D01*
X174923947Y-106252775D01*
X175210260Y-105824276D01*
X175310800Y-105318828D01*
X175310800Y-104846267D01*
X176809400Y-104846267D01*
X176809400Y-105973733D01*
X176987278Y-106867988D01*
X177493833Y-107626100D01*
X178251945Y-108132655D01*
X179146200Y-108310533D01*
X180040455Y-108132655D01*
X180798567Y-107626100D01*
X181305122Y-106867988D01*
X181483000Y-105973733D01*
X181483000Y-104846267D01*
X181305122Y-103952012D01*
X180798567Y-103193900D01*
X180040455Y-102687345D01*
X179146200Y-102509467D01*
X178251945Y-102687345D01*
X177493833Y-103193900D01*
X176987278Y-103952012D01*
X176809400Y-104846267D01*
X175310800Y-104846267D01*
X175310800Y-104231172D01*
X175210260Y-103725724D01*
X174923947Y-103297225D01*
X174495448Y-103010912D01*
X173990000Y-102910372D01*
X173484552Y-103010912D01*
X173056053Y-103297225D01*
X172769740Y-103725724D01*
X172720000Y-103975784D01*
X172670260Y-103725724D01*
X172383947Y-103297225D01*
X171955448Y-103010912D01*
X171450000Y-102910372D01*
X170944552Y-103010912D01*
X170516053Y-103297225D01*
X170229740Y-103725724D01*
X170180000Y-103975784D01*
X170130260Y-103725724D01*
X169843947Y-103297225D01*
X169415448Y-103010912D01*
X168910000Y-102910372D01*
X168404552Y-103010912D01*
X167976053Y-103297225D01*
X167689740Y-103725724D01*
X167640000Y-103975784D01*
X167590260Y-103725724D01*
X167303947Y-103297225D01*
X166875448Y-103010912D01*
X166370000Y-102910372D01*
X165864552Y-103010912D01*
X165436053Y-103297225D01*
X165149740Y-103725724D01*
X165100000Y-103975784D01*
X165050260Y-103725724D01*
X164763947Y-103297225D01*
X164335448Y-103010912D01*
X163830000Y-102910372D01*
X163324552Y-103010912D01*
X162896053Y-103297225D01*
X162609740Y-103725724D01*
X162560000Y-103975784D01*
X162510260Y-103725724D01*
X162223947Y-103297225D01*
X161795448Y-103010912D01*
X161290000Y-102910372D01*
X160784552Y-103010912D01*
X160356053Y-103297225D01*
X160069740Y-103725724D01*
X160020000Y-103975784D01*
X159970260Y-103725724D01*
X159683947Y-103297225D01*
X159255448Y-103010912D01*
X158750000Y-102910372D01*
X158244552Y-103010912D01*
X157816053Y-103297225D01*
X157529740Y-103725724D01*
X157480000Y-103975784D01*
X157430260Y-103725724D01*
X157143947Y-103297225D01*
X156715448Y-103010912D01*
X156210000Y-102910372D01*
X155704552Y-103010912D01*
X155276053Y-103297225D01*
X154989740Y-103725724D01*
X154889200Y-104231172D01*
X154889200Y-105318828D01*
X154989740Y-105824276D01*
X155188138Y-106121200D01*
X147222478Y-106121200D01*
X143308478Y-102207200D01*
X146096222Y-102207200D01*
X146987311Y-103098289D01*
X147135637Y-103197398D01*
X147279229Y-103225960D01*
X147279229Y-104825000D01*
X147302885Y-104943927D01*
X147370252Y-105044748D01*
X147471073Y-105112115D01*
X147590000Y-105135771D01*
X149590000Y-105135771D01*
X149708927Y-105112115D01*
X149809748Y-105044748D01*
X149877115Y-104943927D01*
X149900771Y-104825000D01*
X149900771Y-103225960D01*
X150044363Y-103197398D01*
X150192689Y-103098289D01*
X150224908Y-103050070D01*
X158964378Y-94310600D01*
X173845322Y-94310600D01*
X183123135Y-103588413D01*
X182601081Y-103937238D01*
X182149587Y-104612947D01*
X181991043Y-105410000D01*
X182149587Y-106207053D01*
X182601081Y-106882762D01*
X183276790Y-107334256D01*
X184073843Y-107492800D01*
X184235021Y-107492800D01*
X170491711Y-121236111D01*
X170392602Y-121384437D01*
X170357800Y-121559400D01*
X170357800Y-122418175D01*
X169980684Y-122573996D01*
X169565454Y-122988502D01*
X169340457Y-123530357D01*
X169339945Y-124117069D01*
X169563996Y-124659316D01*
X169978502Y-125074546D01*
X170520357Y-125299543D01*
X171107069Y-125300055D01*
X171649316Y-125076004D01*
X172064546Y-124661498D01*
X172289543Y-124119643D01*
X172290055Y-123532931D01*
X172066004Y-122990684D01*
X171651498Y-122575454D01*
X171272200Y-122417956D01*
X171272200Y-121748778D01*
X183259343Y-109761636D01*
X183230667Y-109905800D01*
X183389211Y-110702853D01*
X183840705Y-111378562D01*
X184516414Y-111830056D01*
X185313467Y-111988600D01*
X186948933Y-111988600D01*
X187745986Y-111830056D01*
X188421695Y-111378562D01*
X188873189Y-110702853D01*
X189031733Y-109905800D01*
X188873189Y-109108747D01*
X188421695Y-108433038D01*
X187745986Y-107981544D01*
X186948933Y-107823000D01*
X185415533Y-107823000D01*
X185463889Y-107790689D01*
X185562998Y-107642363D01*
X185597800Y-107467400D01*
X185597800Y-107411953D01*
X185988410Y-107334256D01*
X186664119Y-106882762D01*
X187115613Y-106207053D01*
X187119495Y-106187538D01*
X187417463Y-106486026D01*
X187884073Y-106679779D01*
X188389310Y-106680220D01*
X188856258Y-106487282D01*
X189213826Y-106130337D01*
X189407579Y-105663727D01*
X189408020Y-105158490D01*
X189215082Y-104691542D01*
X188858137Y-104333974D01*
X188391527Y-104140221D01*
X187886290Y-104139780D01*
X187419342Y-104332718D01*
X187119425Y-104632112D01*
X187115613Y-104612947D01*
X186664119Y-103937238D01*
X185988410Y-103485744D01*
X185597800Y-103408047D01*
X185597800Y-103352600D01*
X185562998Y-103177637D01*
X185463889Y-103029311D01*
X185415533Y-102997000D01*
X186948933Y-102997000D01*
X187745986Y-102838456D01*
X188421695Y-102386962D01*
X188873189Y-101711253D01*
X189031733Y-100914200D01*
X188873189Y-100117147D01*
X188421695Y-99441438D01*
X187745986Y-98989944D01*
X186948933Y-98831400D01*
X185313467Y-98831400D01*
X184516414Y-98989944D01*
X183840705Y-99441438D01*
X183389211Y-100117147D01*
X183230667Y-100914200D01*
X183389211Y-101711253D01*
X183840705Y-102386962D01*
X184516414Y-102838456D01*
X184802690Y-102895400D01*
X183723278Y-102895400D01*
X174598266Y-93770388D01*
X174923947Y-93552775D01*
X175210260Y-93124276D01*
X175310800Y-92618828D01*
X175310800Y-91531172D01*
X175210260Y-91025724D01*
X174923947Y-90597225D01*
X174495448Y-90310912D01*
X173990000Y-90210372D01*
X173484552Y-90310912D01*
X173056053Y-90597225D01*
X172769740Y-91025724D01*
X172720000Y-91275784D01*
X172670260Y-91025724D01*
X172383947Y-90597225D01*
X171955448Y-90310912D01*
X171907200Y-90301315D01*
X171907200Y-86056400D01*
X171872398Y-85881437D01*
X171778490Y-85740894D01*
X171826783Y-85789272D01*
X172405379Y-86029526D01*
X173031873Y-86030073D01*
X173610887Y-85790829D01*
X174054272Y-85348217D01*
X174294526Y-84769621D01*
X174295073Y-84143127D01*
X174055829Y-83564113D01*
X173613217Y-83120728D01*
X173034621Y-82880474D01*
X172408127Y-82879927D01*
X171829113Y-83119171D01*
X171385728Y-83561783D01*
X171145474Y-84140379D01*
X171144927Y-84766873D01*
X171382837Y-85342659D01*
X168613989Y-82573811D01*
X168465663Y-82474702D01*
X168290700Y-82439900D01*
X145804500Y-82439900D01*
X145629537Y-82474702D01*
X145481211Y-82573811D01*
X138430000Y-89625022D01*
X138337589Y-89532611D01*
X138189263Y-89433502D01*
X138014300Y-89398700D01*
X105825700Y-89398700D01*
X105650737Y-89433502D01*
X105502411Y-89532610D01*
X105086711Y-89948311D01*
X104987602Y-90096637D01*
X104952800Y-90271600D01*
X104952800Y-90301315D01*
X104904552Y-90310912D01*
X104476053Y-90597225D01*
X104189740Y-91025724D01*
X104140000Y-91275784D01*
X104090260Y-91025724D01*
X103803947Y-90597225D01*
X103375448Y-90310912D01*
X102870000Y-90210372D01*
X102364552Y-90310912D01*
X101936053Y-90597225D01*
X101649740Y-91025724D01*
X101600000Y-91275784D01*
X101550260Y-91025724D01*
X101351175Y-90727771D01*
X101705646Y-90657262D01*
X102010539Y-90453539D01*
X106434492Y-86029586D01*
X106991873Y-86030073D01*
X107570887Y-85790829D01*
X108014272Y-85348217D01*
X108254526Y-84769621D01*
X108254528Y-84766873D01*
X122884927Y-84766873D01*
X123124171Y-85345887D01*
X123566783Y-85789272D01*
X124145379Y-86029526D01*
X124771873Y-86030073D01*
X125350887Y-85790829D01*
X125794272Y-85348217D01*
X126034526Y-84769621D01*
X126034528Y-84766873D01*
X127964927Y-84766873D01*
X128204171Y-85345887D01*
X128646783Y-85789272D01*
X129225379Y-86029526D01*
X129851873Y-86030073D01*
X130430887Y-85790829D01*
X130874272Y-85348217D01*
X131114526Y-84769621D01*
X131114528Y-84766873D01*
X133044927Y-84766873D01*
X133284171Y-85345887D01*
X133726783Y-85789272D01*
X134305379Y-86029526D01*
X134931873Y-86030073D01*
X135510887Y-85790829D01*
X135954272Y-85348217D01*
X136194526Y-84769621D01*
X136194528Y-84766873D01*
X138124927Y-84766873D01*
X138364171Y-85345887D01*
X138806783Y-85789272D01*
X139385379Y-86029526D01*
X140011873Y-86030073D01*
X140590887Y-85790829D01*
X141034272Y-85348217D01*
X141274526Y-84769621D01*
X141275073Y-84143127D01*
X141035829Y-83564113D01*
X140593217Y-83120728D01*
X140014621Y-82880474D01*
X139388127Y-82879927D01*
X138809113Y-83119171D01*
X138365728Y-83561783D01*
X138125474Y-84140379D01*
X138124927Y-84766873D01*
X136194528Y-84766873D01*
X136195073Y-84143127D01*
X135955829Y-83564113D01*
X135513217Y-83120728D01*
X134934621Y-82880474D01*
X134308127Y-82879927D01*
X133729113Y-83119171D01*
X133285728Y-83561783D01*
X133045474Y-84140379D01*
X133044927Y-84766873D01*
X131114528Y-84766873D01*
X131115073Y-84143127D01*
X130875829Y-83564113D01*
X130433217Y-83120728D01*
X129854621Y-82880474D01*
X129228127Y-82879927D01*
X128649113Y-83119171D01*
X128205728Y-83561783D01*
X127965474Y-84140379D01*
X127964927Y-84766873D01*
X126034528Y-84766873D01*
X126035073Y-84143127D01*
X125795829Y-83564113D01*
X125353217Y-83120728D01*
X124774621Y-82880474D01*
X124148127Y-82879927D01*
X123569113Y-83119171D01*
X123125728Y-83561783D01*
X122885474Y-84140379D01*
X122884927Y-84766873D01*
X108254528Y-84766873D01*
X108255073Y-84143127D01*
X108015829Y-83564113D01*
X107573217Y-83120728D01*
X106994621Y-82880474D01*
X106368127Y-82879927D01*
X105789113Y-83119171D01*
X105345728Y-83561783D01*
X105105474Y-84140379D01*
X105104985Y-84700937D01*
X100956722Y-88849200D01*
X100330000Y-88849200D01*
X99970354Y-88920738D01*
X99665461Y-89124461D01*
X99461738Y-89429354D01*
X99390200Y-89789000D01*
X99390200Y-90605985D01*
X99109740Y-91025724D01*
X99060000Y-91275784D01*
X99010260Y-91025724D01*
X98723947Y-90597225D01*
X98295448Y-90310912D01*
X97790000Y-90210372D01*
X97284552Y-90310912D01*
X96856053Y-90597225D01*
X96569740Y-91025724D01*
X96520000Y-91275784D01*
X96470260Y-91025724D01*
X96183947Y-90597225D01*
X95755448Y-90310912D01*
X95250000Y-90210372D01*
X94744552Y-90310912D01*
X94316053Y-90597225D01*
X94029740Y-91025724D01*
X93980000Y-91275784D01*
X93930260Y-91025724D01*
X93643947Y-90597225D01*
X93215448Y-90310912D01*
X92710000Y-90210372D01*
X92204552Y-90310912D01*
X91776053Y-90597225D01*
X91621030Y-90829234D01*
X91613538Y-90804111D01*
X91211710Y-90309764D01*
X90651291Y-90006820D01*
X90573703Y-89992326D01*
X90322400Y-90101704D01*
X90322400Y-91922600D01*
X90342400Y-91922600D01*
X90342400Y-92227400D01*
X90322400Y-92227400D01*
X90322400Y-94048296D01*
X90573703Y-94157674D01*
X90651291Y-94143180D01*
X91211710Y-93840236D01*
X91613538Y-93345889D01*
X91621030Y-93320766D01*
X91776053Y-93552775D01*
X92204552Y-93839088D01*
X92252800Y-93848685D01*
X92252800Y-93878400D01*
X92287602Y-94053363D01*
X92386711Y-94201689D01*
X92535037Y-94300798D01*
X92710000Y-94335600D01*
X107950000Y-94335600D01*
X108124963Y-94300798D01*
X108273289Y-94201689D01*
X108372398Y-94053363D01*
X108407200Y-93878400D01*
X108407200Y-93848685D01*
X108455448Y-93839088D01*
X108883947Y-93552775D01*
X109170260Y-93124276D01*
X109270800Y-92618828D01*
X109270800Y-91903743D01*
X113960400Y-91903743D01*
X113960400Y-93770200D01*
X114112800Y-93922600D01*
X115417600Y-93922600D01*
X115417600Y-91567800D01*
X115722400Y-91567800D01*
X115722400Y-93922600D01*
X117027200Y-93922600D01*
X117179600Y-93770200D01*
X117179600Y-92227400D01*
X121564400Y-92227400D01*
X121564400Y-92735400D01*
X121746462Y-93345889D01*
X122148290Y-93840236D01*
X122708709Y-94143180D01*
X122786297Y-94157674D01*
X123037600Y-94048296D01*
X123037600Y-92227400D01*
X121564400Y-92227400D01*
X117179600Y-92227400D01*
X117179600Y-91903743D01*
X117086794Y-91679689D01*
X116915311Y-91508206D01*
X116691257Y-91415400D01*
X115874800Y-91415400D01*
X115722400Y-91567800D01*
X115417600Y-91567800D01*
X115265200Y-91415400D01*
X114448743Y-91415400D01*
X114224689Y-91508206D01*
X114053206Y-91679689D01*
X113960400Y-91903743D01*
X109270800Y-91903743D01*
X109270800Y-91531172D01*
X109170260Y-91025724D01*
X108971862Y-90728800D01*
X121807678Y-90728800D01*
X121746462Y-90804111D01*
X121564400Y-91414600D01*
X121564400Y-91922600D01*
X123037600Y-91922600D01*
X123037600Y-91902600D01*
X123342400Y-91902600D01*
X123342400Y-91922600D01*
X123362400Y-91922600D01*
X123362400Y-92227400D01*
X123342400Y-92227400D01*
X123342400Y-94048296D01*
X123593703Y-94157674D01*
X123671291Y-94143180D01*
X124231710Y-93840236D01*
X124633538Y-93345889D01*
X124641030Y-93320766D01*
X124796053Y-93552775D01*
X125224552Y-93839088D01*
X125730000Y-93939628D01*
X126235448Y-93839088D01*
X126663947Y-93552775D01*
X126950260Y-93124276D01*
X127000000Y-92874216D01*
X127049740Y-93124276D01*
X127336053Y-93552775D01*
X127764552Y-93839088D01*
X128270000Y-93939628D01*
X128775448Y-93839088D01*
X129203947Y-93552775D01*
X129490260Y-93124276D01*
X129540000Y-92874216D01*
X129589740Y-93124276D01*
X129876053Y-93552775D01*
X130304552Y-93839088D01*
X130810000Y-93939628D01*
X131315448Y-93839088D01*
X131743947Y-93552775D01*
X132030260Y-93124276D01*
X132080000Y-92874216D01*
X132129740Y-93124276D01*
X132416053Y-93552775D01*
X132844552Y-93839088D01*
X133350000Y-93939628D01*
X133855448Y-93839088D01*
X134283947Y-93552775D01*
X134570260Y-93124276D01*
X134620000Y-92874216D01*
X134669740Y-93124276D01*
X134956053Y-93552775D01*
X135384552Y-93839088D01*
X135890000Y-93939628D01*
X136395448Y-93839088D01*
X136823947Y-93552775D01*
X137110260Y-93124276D01*
X137160000Y-92874216D01*
X137209740Y-93124276D01*
X137496053Y-93552775D01*
X137924552Y-93839088D01*
X138430000Y-93939628D01*
X138935448Y-93839088D01*
X139363947Y-93552775D01*
X139650260Y-93124276D01*
X139700000Y-92874216D01*
X139749740Y-93124276D01*
X140036053Y-93552775D01*
X140464552Y-93839088D01*
X140970000Y-93939628D01*
X141475448Y-93839088D01*
X141903947Y-93552775D01*
X142190260Y-93124276D01*
X142290800Y-92618828D01*
X142290800Y-91903743D01*
X146980400Y-91903743D01*
X146980400Y-93770200D01*
X147132800Y-93922600D01*
X148437600Y-93922600D01*
X148437600Y-91567800D01*
X148742400Y-91567800D01*
X148742400Y-93922600D01*
X150047200Y-93922600D01*
X150199600Y-93770200D01*
X150199600Y-92227400D01*
X154584400Y-92227400D01*
X154584400Y-92735400D01*
X154766462Y-93345889D01*
X155168290Y-93840236D01*
X155728709Y-94143180D01*
X155806297Y-94157674D01*
X156057600Y-94048296D01*
X156057600Y-92227400D01*
X154584400Y-92227400D01*
X150199600Y-92227400D01*
X150199600Y-91903743D01*
X150106794Y-91679689D01*
X149935311Y-91508206D01*
X149711257Y-91415400D01*
X148894800Y-91415400D01*
X148742400Y-91567800D01*
X148437600Y-91567800D01*
X148285200Y-91415400D01*
X147468743Y-91415400D01*
X147244689Y-91508206D01*
X147073206Y-91679689D01*
X146980400Y-91903743D01*
X142290800Y-91903743D01*
X142290800Y-91531172D01*
X142190260Y-91025724D01*
X141991862Y-90728800D01*
X154827678Y-90728800D01*
X154766462Y-90804111D01*
X154584400Y-91414600D01*
X154584400Y-91922600D01*
X156057600Y-91922600D01*
X156057600Y-91902600D01*
X156362400Y-91902600D01*
X156362400Y-91922600D01*
X156382400Y-91922600D01*
X156382400Y-92227400D01*
X156362400Y-92227400D01*
X156362400Y-94048296D01*
X156613703Y-94157674D01*
X156691291Y-94143180D01*
X157251710Y-93840236D01*
X157653538Y-93345889D01*
X157661030Y-93320766D01*
X157816053Y-93552775D01*
X158183516Y-93798306D01*
X149900771Y-102081051D01*
X149900771Y-100725000D01*
X149877115Y-100606073D01*
X149809748Y-100505252D01*
X149708927Y-100437885D01*
X149590000Y-100414229D01*
X147590000Y-100414229D01*
X147471073Y-100437885D01*
X147370252Y-100505252D01*
X147302885Y-100606073D01*
X147279229Y-100725000D01*
X147279229Y-102097051D01*
X146608889Y-101426711D01*
X146460563Y-101327602D01*
X146285600Y-101292800D01*
X117874400Y-101292800D01*
X117699437Y-101327602D01*
X117551111Y-101426711D01*
X116880771Y-102097051D01*
X116880771Y-100725000D01*
X116857115Y-100606073D01*
X116789748Y-100505252D01*
X116688927Y-100437885D01*
X116570000Y-100414229D01*
X114570000Y-100414229D01*
X114451073Y-100437885D01*
X114350252Y-100505252D01*
X114282885Y-100606073D01*
X114259229Y-100725000D01*
X114259229Y-104825000D01*
X114282885Y-104943927D01*
X114350252Y-105044748D01*
X114451073Y-105112115D01*
X114570000Y-105135771D01*
X116570000Y-105135771D01*
X116688927Y-105112115D01*
X116789748Y-105044748D01*
X116857115Y-104943927D01*
X116880771Y-104825000D01*
X116880771Y-103225960D01*
X117024363Y-103197398D01*
X117172689Y-103098289D01*
X118063778Y-102207200D01*
X125847822Y-102207200D01*
X125406711Y-102648311D01*
X125307602Y-102796637D01*
X125272800Y-102971600D01*
X125272800Y-103001315D01*
X125224552Y-103010912D01*
X124796053Y-103297225D01*
X124509740Y-103725724D01*
X124460000Y-103975784D01*
X124410260Y-103725724D01*
X124123947Y-103297225D01*
X123695448Y-103010912D01*
X123190000Y-102910372D01*
X122684552Y-103010912D01*
X122256053Y-103297225D01*
X121969740Y-103725724D01*
X121869200Y-104231172D01*
X121869200Y-105318828D01*
X121969740Y-105824276D01*
X122168138Y-106121200D01*
X114801778Y-106121200D01*
X110923089Y-102242511D01*
X110774763Y-102143402D01*
X110599800Y-102108600D01*
X93115800Y-102108600D01*
X92940837Y-102143402D01*
X92792511Y-102242511D01*
X92386711Y-102648311D01*
X92287602Y-102796637D01*
X92252800Y-102971600D01*
X92252800Y-103001315D01*
X92204552Y-103010912D01*
X91776053Y-103297225D01*
X91489740Y-103725724D01*
X91440000Y-103975784D01*
X91390260Y-103725724D01*
X91103947Y-103297225D01*
X90675448Y-103010912D01*
X90627200Y-103001315D01*
X90627200Y-102971600D01*
X90592398Y-102796637D01*
X90493289Y-102648311D01*
X90344963Y-102549202D01*
X90170000Y-102514400D01*
X88168878Y-102514400D01*
X82317139Y-96662661D01*
X82397600Y-96582200D01*
X82397600Y-94227400D01*
X82702400Y-94227400D01*
X82702400Y-96582200D01*
X82854800Y-96734600D01*
X83671257Y-96734600D01*
X83895311Y-96641794D01*
X84066794Y-96470311D01*
X84159600Y-96246257D01*
X84159600Y-94379800D01*
X113960400Y-94379800D01*
X113960400Y-96246257D01*
X114053206Y-96470311D01*
X114224689Y-96641794D01*
X114448743Y-96734600D01*
X115265200Y-96734600D01*
X115417600Y-96582200D01*
X115417600Y-94227400D01*
X115722400Y-94227400D01*
X115722400Y-96582200D01*
X115874800Y-96734600D01*
X116691257Y-96734600D01*
X116915311Y-96641794D01*
X117086794Y-96470311D01*
X117179600Y-96246257D01*
X117179600Y-94379800D01*
X146980400Y-94379800D01*
X146980400Y-96246257D01*
X147073206Y-96470311D01*
X147244689Y-96641794D01*
X147468743Y-96734600D01*
X148285200Y-96734600D01*
X148437600Y-96582200D01*
X148437600Y-94227400D01*
X148742400Y-94227400D01*
X148742400Y-96582200D01*
X148894800Y-96734600D01*
X149711257Y-96734600D01*
X149935311Y-96641794D01*
X150106794Y-96470311D01*
X150199600Y-96246257D01*
X150199600Y-94379800D01*
X150047200Y-94227400D01*
X148742400Y-94227400D01*
X148437600Y-94227400D01*
X147132800Y-94227400D01*
X146980400Y-94379800D01*
X117179600Y-94379800D01*
X117027200Y-94227400D01*
X115722400Y-94227400D01*
X115417600Y-94227400D01*
X114112800Y-94227400D01*
X113960400Y-94379800D01*
X84159600Y-94379800D01*
X84007200Y-94227400D01*
X82702400Y-94227400D01*
X82397600Y-94227400D01*
X81092800Y-94227400D01*
X80940400Y-94379800D01*
X80940400Y-95285922D01*
X77558221Y-91903743D01*
X80940400Y-91903743D01*
X80940400Y-93770200D01*
X81092800Y-93922600D01*
X82397600Y-93922600D01*
X82397600Y-91567800D01*
X82702400Y-91567800D01*
X82702400Y-93922600D01*
X84007200Y-93922600D01*
X84159600Y-93770200D01*
X84159600Y-92227400D01*
X88544400Y-92227400D01*
X88544400Y-92735400D01*
X88726462Y-93345889D01*
X89128290Y-93840236D01*
X89688709Y-94143180D01*
X89766297Y-94157674D01*
X90017600Y-94048296D01*
X90017600Y-92227400D01*
X88544400Y-92227400D01*
X84159600Y-92227400D01*
X84159600Y-91903743D01*
X84066794Y-91679689D01*
X83895311Y-91508206D01*
X83671257Y-91415400D01*
X82854800Y-91415400D01*
X82702400Y-91567800D01*
X82397600Y-91567800D01*
X82245200Y-91415400D01*
X81428743Y-91415400D01*
X81204689Y-91508206D01*
X81033206Y-91679689D01*
X80940400Y-91903743D01*
X77558221Y-91903743D01*
X77069078Y-91414600D01*
X88544400Y-91414600D01*
X88544400Y-91922600D01*
X90017600Y-91922600D01*
X90017600Y-90101704D01*
X89766297Y-89992326D01*
X89688709Y-90006820D01*
X89128290Y-90309764D01*
X88726462Y-90804111D01*
X88544400Y-91414600D01*
X77069078Y-91414600D01*
X71665700Y-86011222D01*
X71665700Y-84766873D01*
X89864927Y-84766873D01*
X90104171Y-85345887D01*
X90546783Y-85789272D01*
X91125379Y-86029526D01*
X91751873Y-86030073D01*
X92330887Y-85790829D01*
X92774272Y-85348217D01*
X93014526Y-84769621D01*
X93014528Y-84766873D01*
X94944927Y-84766873D01*
X95184171Y-85345887D01*
X95626783Y-85789272D01*
X96205379Y-86029526D01*
X96831873Y-86030073D01*
X97410887Y-85790829D01*
X97854272Y-85348217D01*
X98094526Y-84769621D01*
X98094528Y-84766873D01*
X100024927Y-84766873D01*
X100264171Y-85345887D01*
X100706783Y-85789272D01*
X101285379Y-86029526D01*
X101911873Y-86030073D01*
X102490887Y-85790829D01*
X102934272Y-85348217D01*
X103174526Y-84769621D01*
X103175073Y-84143127D01*
X102935829Y-83564113D01*
X102493217Y-83120728D01*
X101914621Y-82880474D01*
X101288127Y-82879927D01*
X100709113Y-83119171D01*
X100265728Y-83561783D01*
X100025474Y-84140379D01*
X100024927Y-84766873D01*
X98094528Y-84766873D01*
X98095073Y-84143127D01*
X97855829Y-83564113D01*
X97413217Y-83120728D01*
X96834621Y-82880474D01*
X96208127Y-82879927D01*
X95629113Y-83119171D01*
X95185728Y-83561783D01*
X94945474Y-84140379D01*
X94944927Y-84766873D01*
X93014528Y-84766873D01*
X93015073Y-84143127D01*
X92775829Y-83564113D01*
X92333217Y-83120728D01*
X91754621Y-82880474D01*
X91128127Y-82879927D01*
X90549113Y-83119171D01*
X90105728Y-83561783D01*
X89865474Y-84140379D01*
X89864927Y-84766873D01*
X71665700Y-84766873D01*
X71665700Y-80637535D01*
X71893259Y-81188270D01*
X72478648Y-81774682D01*
X73243888Y-82092437D01*
X74072477Y-82093160D01*
X74838270Y-81776741D01*
X75424682Y-81191352D01*
X75742437Y-80426112D01*
X75743160Y-79597523D01*
X75426741Y-78831730D01*
X74841352Y-78245318D01*
X74076112Y-77927563D01*
X73247523Y-77926840D01*
X72481730Y-78243259D01*
X71895318Y-78828648D01*
X71665700Y-79381630D01*
X71665700Y-76809600D01*
X72085200Y-76809600D01*
X72237600Y-76657200D01*
X72237600Y-75082400D01*
X72217600Y-75082400D01*
X72217600Y-74777600D01*
X72237600Y-74777600D01*
X72237600Y-74757600D01*
X72542400Y-74757600D01*
X72542400Y-74777600D01*
X72562400Y-74777600D01*
X72562400Y-75082400D01*
X72542400Y-75082400D01*
X72542400Y-76657200D01*
X72694800Y-76809600D01*
X73438357Y-76809600D01*
X73662411Y-76716794D01*
X73833894Y-76545311D01*
X73926700Y-76321257D01*
X73926700Y-75976963D01*
X74058915Y-76174837D01*
X74458572Y-76441879D01*
X74930000Y-76535652D01*
X75401428Y-76441879D01*
X75801085Y-76174837D01*
X76068127Y-75775180D01*
X76161900Y-75303752D01*
X76161900Y-74556248D01*
X76068127Y-74084820D01*
X75901938Y-73836100D01*
X76498062Y-73836100D01*
X76331873Y-74084820D01*
X76238100Y-74556248D01*
X76238100Y-75303752D01*
X76331873Y-75775180D01*
X76598915Y-76174837D01*
X76998572Y-76441879D01*
X77470000Y-76535652D01*
X77941428Y-76441879D01*
X78341085Y-76174837D01*
X78608127Y-75775180D01*
X78701900Y-75303752D01*
X78701900Y-74556248D01*
X78608127Y-74084820D01*
X78441938Y-73836100D01*
X79038062Y-73836100D01*
X78871873Y-74084820D01*
X78778100Y-74556248D01*
X78778100Y-75303752D01*
X78871873Y-75775180D01*
X79138915Y-76174837D01*
X79538572Y-76441879D01*
X80010000Y-76535652D01*
X80481428Y-76441879D01*
X80881085Y-76174837D01*
X81148127Y-75775180D01*
X81241900Y-75303752D01*
X81241900Y-74556248D01*
X81148127Y-74084820D01*
X80981938Y-73836100D01*
X81578062Y-73836100D01*
X81411873Y-74084820D01*
X81318100Y-74556248D01*
X81318100Y-75303752D01*
X81411873Y-75775180D01*
X81678915Y-76174837D01*
X82078572Y-76441879D01*
X82550000Y-76535652D01*
X83021428Y-76441879D01*
X83421085Y-76174837D01*
X83688127Y-75775180D01*
X83781900Y-75303752D01*
X83781900Y-74556248D01*
X83688127Y-74084820D01*
X83521938Y-73836100D01*
X84118062Y-73836100D01*
X83951873Y-74084820D01*
X83858100Y-74556248D01*
X83858100Y-75303752D01*
X83951873Y-75775180D01*
X84218915Y-76174837D01*
X84618572Y-76441879D01*
X85090000Y-76535652D01*
X85561428Y-76441879D01*
X85961085Y-76174837D01*
X86228127Y-75775180D01*
X86321900Y-75303752D01*
X86321900Y-74556248D01*
X86228127Y-74084820D01*
X86061938Y-73836100D01*
X86658062Y-73836100D01*
X86491873Y-74084820D01*
X86398100Y-74556248D01*
X86398100Y-75303752D01*
X86491873Y-75775180D01*
X86758915Y-76174837D01*
X87158572Y-76441879D01*
X87630000Y-76535652D01*
X88101428Y-76441879D01*
X88501085Y-76174837D01*
X88768127Y-75775180D01*
X88861900Y-75303752D01*
X88861900Y-74556248D01*
X88768127Y-74084820D01*
X88601938Y-73836100D01*
X89198062Y-73836100D01*
X89031873Y-74084820D01*
X88938100Y-74556248D01*
X88938100Y-75303752D01*
X89031873Y-75775180D01*
X89298915Y-76174837D01*
X89698572Y-76441879D01*
X90170000Y-76535652D01*
X90641428Y-76441879D01*
X91041085Y-76174837D01*
X91308127Y-75775180D01*
X91401900Y-75303752D01*
X91401900Y-74556248D01*
X91308127Y-74084820D01*
X91141938Y-73836100D01*
X91738062Y-73836100D01*
X91571873Y-74084820D01*
X91478100Y-74556248D01*
X91478100Y-75303752D01*
X91571873Y-75775180D01*
X91838915Y-76174837D01*
X92238572Y-76441879D01*
X92710000Y-76535652D01*
X93181428Y-76441879D01*
X93581085Y-76174837D01*
X93848127Y-75775180D01*
X93941900Y-75303752D01*
X93941900Y-74556248D01*
X93848127Y-74084820D01*
X93681938Y-73836100D01*
X94278062Y-73836100D01*
X94111873Y-74084820D01*
X94018100Y-74556248D01*
X94018100Y-75303752D01*
X94111873Y-75775180D01*
X94378915Y-76174837D01*
X94778572Y-76441879D01*
X95250000Y-76535652D01*
X95721428Y-76441879D01*
X96121085Y-76174837D01*
X96388127Y-75775180D01*
X96481900Y-75303752D01*
X96481900Y-74556248D01*
X96388127Y-74084820D01*
X96221938Y-73836100D01*
X96818062Y-73836100D01*
X96651873Y-74084820D01*
X96558100Y-74556248D01*
X96558100Y-75303752D01*
X96651873Y-75775180D01*
X96918915Y-76174837D01*
X97318572Y-76441879D01*
X97790000Y-76535652D01*
X98261428Y-76441879D01*
X98661085Y-76174837D01*
X98928127Y-75775180D01*
X99021900Y-75303752D01*
X99021900Y-74556248D01*
X98928127Y-74084820D01*
X98761938Y-73836100D01*
X99358062Y-73836100D01*
X99191873Y-74084820D01*
X99098100Y-74556248D01*
X99098100Y-75303752D01*
X99191873Y-75775180D01*
X99458915Y-76174837D01*
X99858572Y-76441879D01*
X100330000Y-76535652D01*
X100801428Y-76441879D01*
X101201085Y-76174837D01*
X101468127Y-75775180D01*
X101549800Y-75364584D01*
X101654336Y-75385377D01*
X101731873Y-75775180D01*
X101998915Y-76174837D01*
X102398572Y-76441879D01*
X102870000Y-76535652D01*
X103341428Y-76441879D01*
X103741085Y-76174837D01*
X104008127Y-75775180D01*
X104101900Y-75303752D01*
X104101900Y-74556248D01*
X104178100Y-74556248D01*
X104178100Y-75303752D01*
X104271873Y-75775180D01*
X104538915Y-76174837D01*
X104938572Y-76441879D01*
X105410000Y-76535652D01*
X105881428Y-76441879D01*
X106281085Y-76174837D01*
X106548127Y-75775180D01*
X106641900Y-75303752D01*
X106641900Y-74556248D01*
X106718100Y-74556248D01*
X106718100Y-75303752D01*
X106811873Y-75775180D01*
X107078915Y-76174837D01*
X107478572Y-76441879D01*
X107950000Y-76535652D01*
X108421428Y-76441879D01*
X108821085Y-76174837D01*
X109088127Y-75775180D01*
X109181900Y-75303752D01*
X109181900Y-74556248D01*
X109258100Y-74556248D01*
X109258100Y-75303752D01*
X109351873Y-75775180D01*
X109618915Y-76174837D01*
X110018572Y-76441879D01*
X110490000Y-76535652D01*
X110961428Y-76441879D01*
X111361085Y-76174837D01*
X111628127Y-75775180D01*
X111721900Y-75303752D01*
X111721900Y-74556248D01*
X111798100Y-74556248D01*
X111798100Y-75303752D01*
X111891873Y-75775180D01*
X112158915Y-76174837D01*
X112558572Y-76441879D01*
X113030000Y-76535652D01*
X113501428Y-76441879D01*
X113901085Y-76174837D01*
X114168127Y-75775180D01*
X114261900Y-75303752D01*
X114261900Y-74556248D01*
X114338100Y-74556248D01*
X114338100Y-75303752D01*
X114431873Y-75775180D01*
X114698915Y-76174837D01*
X115098572Y-76441879D01*
X115570000Y-76535652D01*
X116041428Y-76441879D01*
X116441085Y-76174837D01*
X116708127Y-75775180D01*
X116801900Y-75303752D01*
X116801900Y-74556248D01*
X116878100Y-74556248D01*
X116878100Y-75303752D01*
X116971873Y-75775180D01*
X117238915Y-76174837D01*
X117638572Y-76441879D01*
X118110000Y-76535652D01*
X118581428Y-76441879D01*
X118981085Y-76174837D01*
X119248127Y-75775180D01*
X119341900Y-75303752D01*
X119341900Y-74556248D01*
X119418100Y-74556248D01*
X119418100Y-75303752D01*
X119511873Y-75775180D01*
X119778915Y-76174837D01*
X120178572Y-76441879D01*
X120650000Y-76535652D01*
X121121428Y-76441879D01*
X121521085Y-76174837D01*
X121788127Y-75775180D01*
X121881900Y-75303752D01*
X121881900Y-74556248D01*
X121958100Y-74556248D01*
X121958100Y-75303752D01*
X122051873Y-75775180D01*
X122318915Y-76174837D01*
X122718572Y-76441879D01*
X123190000Y-76535652D01*
X123661428Y-76441879D01*
X124061085Y-76174837D01*
X124328127Y-75775180D01*
X124421900Y-75303752D01*
X124421900Y-74556248D01*
X124498100Y-74556248D01*
X124498100Y-75303752D01*
X124591873Y-75775180D01*
X124858915Y-76174837D01*
X125258572Y-76441879D01*
X125730000Y-76535652D01*
X126201428Y-76441879D01*
X126601085Y-76174837D01*
X126868127Y-75775180D01*
X126961900Y-75303752D01*
X126961900Y-74556248D01*
X127038100Y-74556248D01*
X127038100Y-75303752D01*
X127131873Y-75775180D01*
X127398915Y-76174837D01*
X127798572Y-76441879D01*
X128270000Y-76535652D01*
X128741428Y-76441879D01*
X129141085Y-76174837D01*
X129408127Y-75775180D01*
X129501900Y-75303752D01*
X129501900Y-74556248D01*
X129578100Y-74556248D01*
X129578100Y-75303752D01*
X129671873Y-75775180D01*
X129938915Y-76174837D01*
X130338572Y-76441879D01*
X130810000Y-76535652D01*
X131281428Y-76441879D01*
X131681085Y-76174837D01*
X131948127Y-75775180D01*
X132041900Y-75303752D01*
X132041900Y-74556248D01*
X132118100Y-74556248D01*
X132118100Y-75303752D01*
X132211873Y-75775180D01*
X132478915Y-76174837D01*
X132878572Y-76441879D01*
X133350000Y-76535652D01*
X133821428Y-76441879D01*
X134221085Y-76174837D01*
X134488127Y-75775180D01*
X134574197Y-75342477D01*
X163016840Y-75342477D01*
X163333259Y-76108270D01*
X163918648Y-76694682D01*
X164683888Y-77012437D01*
X165512477Y-77013160D01*
X166278270Y-76696741D01*
X166864682Y-76111352D01*
X167182437Y-75346112D01*
X167183160Y-74517523D01*
X166866741Y-73751730D01*
X166281352Y-73165318D01*
X165516112Y-72847563D01*
X164687523Y-72846840D01*
X163921730Y-73163259D01*
X163335318Y-73748648D01*
X163017563Y-74513888D01*
X163016840Y-75342477D01*
X134574197Y-75342477D01*
X134581900Y-75303752D01*
X134581900Y-74556248D01*
X134488127Y-74084820D01*
X134221085Y-73685163D01*
X133821428Y-73418121D01*
X133350000Y-73324348D01*
X132878572Y-73418121D01*
X132478915Y-73685163D01*
X132211873Y-74084820D01*
X132118100Y-74556248D01*
X132041900Y-74556248D01*
X131948127Y-74084820D01*
X131681085Y-73685163D01*
X131281428Y-73418121D01*
X130810000Y-73324348D01*
X130338572Y-73418121D01*
X129938915Y-73685163D01*
X129671873Y-74084820D01*
X129578100Y-74556248D01*
X129501900Y-74556248D01*
X129408127Y-74084820D01*
X129141085Y-73685163D01*
X128741428Y-73418121D01*
X128270000Y-73324348D01*
X127798572Y-73418121D01*
X127398915Y-73685163D01*
X127131873Y-74084820D01*
X127038100Y-74556248D01*
X126961900Y-74556248D01*
X126868127Y-74084820D01*
X126601085Y-73685163D01*
X126201428Y-73418121D01*
X125730000Y-73324348D01*
X125258572Y-73418121D01*
X124858915Y-73685163D01*
X124591873Y-74084820D01*
X124498100Y-74556248D01*
X124421900Y-74556248D01*
X124328127Y-74084820D01*
X124061085Y-73685163D01*
X123661428Y-73418121D01*
X123190000Y-73324348D01*
X122718572Y-73418121D01*
X122318915Y-73685163D01*
X122051873Y-74084820D01*
X121958100Y-74556248D01*
X121881900Y-74556248D01*
X121788127Y-74084820D01*
X121521085Y-73685163D01*
X121121428Y-73418121D01*
X120650000Y-73324348D01*
X120178572Y-73418121D01*
X119778915Y-73685163D01*
X119511873Y-74084820D01*
X119418100Y-74556248D01*
X119341900Y-74556248D01*
X119248127Y-74084820D01*
X118981085Y-73685163D01*
X118581428Y-73418121D01*
X118110000Y-73324348D01*
X117638572Y-73418121D01*
X117238915Y-73685163D01*
X116971873Y-74084820D01*
X116878100Y-74556248D01*
X116801900Y-74556248D01*
X116708127Y-74084820D01*
X116441085Y-73685163D01*
X116041428Y-73418121D01*
X115570000Y-73324348D01*
X115098572Y-73418121D01*
X114698915Y-73685163D01*
X114431873Y-74084820D01*
X114338100Y-74556248D01*
X114261900Y-74556248D01*
X114168127Y-74084820D01*
X113901085Y-73685163D01*
X113501428Y-73418121D01*
X113030000Y-73324348D01*
X112558572Y-73418121D01*
X112158915Y-73685163D01*
X111891873Y-74084820D01*
X111798100Y-74556248D01*
X111721900Y-74556248D01*
X111628127Y-74084820D01*
X111361085Y-73685163D01*
X110961428Y-73418121D01*
X110490000Y-73324348D01*
X110018572Y-73418121D01*
X109618915Y-73685163D01*
X109351873Y-74084820D01*
X109258100Y-74556248D01*
X109181900Y-74556248D01*
X109088127Y-74084820D01*
X108821085Y-73685163D01*
X108421428Y-73418121D01*
X107950000Y-73324348D01*
X107478572Y-73418121D01*
X107078915Y-73685163D01*
X106811873Y-74084820D01*
X106718100Y-74556248D01*
X106641900Y-74556248D01*
X106548127Y-74084820D01*
X106281085Y-73685163D01*
X105881428Y-73418121D01*
X105410000Y-73324348D01*
X104938572Y-73418121D01*
X104538915Y-73685163D01*
X104271873Y-74084820D01*
X104178100Y-74556248D01*
X104101900Y-74556248D01*
X104008127Y-74084820D01*
X103741085Y-73685163D01*
X103341428Y-73418121D01*
X102870000Y-73324348D01*
X102398572Y-73418121D01*
X101998915Y-73685163D01*
X101920299Y-73802820D01*
X101173089Y-73055611D01*
X101024763Y-72956502D01*
X100849800Y-72921700D01*
X71335200Y-72921700D01*
X71160237Y-72956502D01*
X71011911Y-73055611D01*
X70885211Y-73182311D01*
X70786102Y-73330637D01*
X70751300Y-73505600D01*
X70269100Y-73505600D01*
X70269100Y-72174100D01*
X190715900Y-72174100D01*
X190715900Y-138645900D01*
X190715900Y-138645900D01*
G37*
X190715900Y-138645900D02*
X70269100Y-138645900D01*
X70269100Y-135516248D01*
X71158100Y-135516248D01*
X71158100Y-136263752D01*
X71251873Y-136735180D01*
X71518915Y-137134837D01*
X71918572Y-137401879D01*
X72390000Y-137495652D01*
X72861428Y-137401879D01*
X73261085Y-137134837D01*
X73528127Y-136735180D01*
X73621900Y-136263752D01*
X73621900Y-135516248D01*
X73698100Y-135516248D01*
X73698100Y-136263752D01*
X73791873Y-136735180D01*
X74058915Y-137134837D01*
X74458572Y-137401879D01*
X74930000Y-137495652D01*
X75401428Y-137401879D01*
X75801085Y-137134837D01*
X76068127Y-136735180D01*
X76161900Y-136263752D01*
X76161900Y-135516248D01*
X76238100Y-135516248D01*
X76238100Y-136263752D01*
X76331873Y-136735180D01*
X76598915Y-137134837D01*
X76998572Y-137401879D01*
X77470000Y-137495652D01*
X77941428Y-137401879D01*
X78341085Y-137134837D01*
X78608127Y-136735180D01*
X78701900Y-136263752D01*
X78701900Y-135516248D01*
X78778100Y-135516248D01*
X78778100Y-136263752D01*
X78871873Y-136735180D01*
X79138915Y-137134837D01*
X79538572Y-137401879D01*
X80010000Y-137495652D01*
X80481428Y-137401879D01*
X80881085Y-137134837D01*
X81148127Y-136735180D01*
X81241900Y-136263752D01*
X81241900Y-135516248D01*
X81318100Y-135516248D01*
X81318100Y-136263752D01*
X81411873Y-136735180D01*
X81678915Y-137134837D01*
X82078572Y-137401879D01*
X82550000Y-137495652D01*
X83021428Y-137401879D01*
X83421085Y-137134837D01*
X83688127Y-136735180D01*
X83781900Y-136263752D01*
X83781900Y-135516248D01*
X83858100Y-135516248D01*
X83858100Y-136263752D01*
X83951873Y-136735180D01*
X84218915Y-137134837D01*
X84618572Y-137401879D01*
X85090000Y-137495652D01*
X85561428Y-137401879D01*
X85961085Y-137134837D01*
X86228127Y-136735180D01*
X86321900Y-136263752D01*
X86321900Y-135516248D01*
X86398100Y-135516248D01*
X86398100Y-136263752D01*
X86491873Y-136735180D01*
X86758915Y-137134837D01*
X87158572Y-137401879D01*
X87630000Y-137495652D01*
X88101428Y-137401879D01*
X88501085Y-137134837D01*
X88768127Y-136735180D01*
X88861900Y-136263752D01*
X88861900Y-135516248D01*
X88938100Y-135516248D01*
X88938100Y-136263752D01*
X89031873Y-136735180D01*
X89298915Y-137134837D01*
X89698572Y-137401879D01*
X90170000Y-137495652D01*
X90641428Y-137401879D01*
X91041085Y-137134837D01*
X91308127Y-136735180D01*
X91401900Y-136263752D01*
X91401900Y-135516248D01*
X91478100Y-135516248D01*
X91478100Y-136263752D01*
X91571873Y-136735180D01*
X91838915Y-137134837D01*
X92238572Y-137401879D01*
X92710000Y-137495652D01*
X93181428Y-137401879D01*
X93581085Y-137134837D01*
X93848127Y-136735180D01*
X93941900Y-136263752D01*
X93941900Y-135516248D01*
X93848127Y-135044820D01*
X93581085Y-134645163D01*
X93181428Y-134378121D01*
X92710000Y-134284348D01*
X92238572Y-134378121D01*
X91838915Y-134645163D01*
X91571873Y-135044820D01*
X91478100Y-135516248D01*
X91401900Y-135516248D01*
X91308127Y-135044820D01*
X91041085Y-134645163D01*
X90641428Y-134378121D01*
X90170000Y-134284348D01*
X89698572Y-134378121D01*
X89298915Y-134645163D01*
X89031873Y-135044820D01*
X88938100Y-135516248D01*
X88861900Y-135516248D01*
X88768127Y-135044820D01*
X88501085Y-134645163D01*
X88101428Y-134378121D01*
X87630000Y-134284348D01*
X87158572Y-134378121D01*
X86758915Y-134645163D01*
X86491873Y-135044820D01*
X86398100Y-135516248D01*
X86321900Y-135516248D01*
X86228127Y-135044820D01*
X85961085Y-134645163D01*
X85561428Y-134378121D01*
X85090000Y-134284348D01*
X84618572Y-134378121D01*
X84218915Y-134645163D01*
X83951873Y-135044820D01*
X83858100Y-135516248D01*
X83781900Y-135516248D01*
X83688127Y-135044820D01*
X83421085Y-134645163D01*
X83021428Y-134378121D01*
X82550000Y-134284348D01*
X82078572Y-134378121D01*
X81678915Y-134645163D01*
X81411873Y-135044820D01*
X81318100Y-135516248D01*
X81241900Y-135516248D01*
X81148127Y-135044820D01*
X80881085Y-134645163D01*
X80481428Y-134378121D01*
X80010000Y-134284348D01*
X79538572Y-134378121D01*
X79138915Y-134645163D01*
X78871873Y-135044820D01*
X78778100Y-135516248D01*
X78701900Y-135516248D01*
X78608127Y-135044820D01*
X78341085Y-134645163D01*
X77941428Y-134378121D01*
X77470000Y-134284348D01*
X76998572Y-134378121D01*
X76598915Y-134645163D01*
X76331873Y-135044820D01*
X76238100Y-135516248D01*
X76161900Y-135516248D01*
X76068127Y-135044820D01*
X75801085Y-134645163D01*
X75401428Y-134378121D01*
X74930000Y-134284348D01*
X74458572Y-134378121D01*
X74058915Y-134645163D01*
X73791873Y-135044820D01*
X73698100Y-135516248D01*
X73621900Y-135516248D01*
X73528127Y-135044820D01*
X73261085Y-134645163D01*
X72861428Y-134378121D01*
X72390000Y-134284348D01*
X71918572Y-134378121D01*
X71518915Y-134645163D01*
X71251873Y-135044820D01*
X71158100Y-135516248D01*
X70269100Y-135516248D01*
X70269100Y-131222477D01*
X71576840Y-131222477D01*
X71893259Y-131988270D01*
X72478648Y-132574682D01*
X73243888Y-132892437D01*
X74072477Y-132893160D01*
X74838270Y-132576741D01*
X75424682Y-131991352D01*
X75742437Y-131226112D01*
X75743160Y-130397523D01*
X75426741Y-129631730D01*
X74841352Y-129045318D01*
X74076112Y-128727563D01*
X73247523Y-128726840D01*
X72481730Y-129043259D01*
X71895318Y-129628648D01*
X71577563Y-130393888D01*
X71576840Y-131222477D01*
X70269100Y-131222477D01*
X70269100Y-124117069D01*
X91869945Y-124117069D01*
X92093996Y-124659316D01*
X92508502Y-125074546D01*
X93050357Y-125299543D01*
X93637069Y-125300055D01*
X94179316Y-125076004D01*
X94594546Y-124661498D01*
X94819543Y-124119643D01*
X94820055Y-123532931D01*
X94596004Y-122990684D01*
X94181498Y-122575454D01*
X93639643Y-122350457D01*
X93052931Y-122349945D01*
X92510684Y-122573996D01*
X92095454Y-122988502D01*
X91870457Y-123530357D01*
X91869945Y-124117069D01*
X70269100Y-124117069D01*
X70269100Y-73505600D01*
X70751300Y-73505600D01*
X70751300Y-86200600D01*
X70786102Y-86375563D01*
X70885211Y-86523889D01*
X87656211Y-103294889D01*
X87804537Y-103393998D01*
X87979500Y-103428800D01*
X89148138Y-103428800D01*
X88949740Y-103725724D01*
X88849200Y-104231172D01*
X88849200Y-105318828D01*
X88949740Y-105824276D01*
X89236053Y-106252775D01*
X89664552Y-106539088D01*
X90170000Y-106639628D01*
X90675448Y-106539088D01*
X91103947Y-106252775D01*
X91390260Y-105824276D01*
X91440000Y-105574216D01*
X91489740Y-105824276D01*
X91776053Y-106252775D01*
X92204552Y-106539088D01*
X92710000Y-106639628D01*
X93215448Y-106539088D01*
X93643947Y-106252775D01*
X93930260Y-105824276D01*
X93980000Y-105574216D01*
X94029740Y-105824276D01*
X94316053Y-106252775D01*
X94744552Y-106539088D01*
X95250000Y-106639628D01*
X95755448Y-106539088D01*
X96183947Y-106252775D01*
X96470260Y-105824276D01*
X96520000Y-105574216D01*
X96569740Y-105824276D01*
X96856053Y-106252775D01*
X97284552Y-106539088D01*
X97332800Y-106548685D01*
X97332800Y-106578400D01*
X97367602Y-106753363D01*
X97466711Y-106901689D01*
X98126500Y-107561478D01*
X98126500Y-122710692D01*
X97991498Y-122575454D01*
X97449643Y-122350457D01*
X96862931Y-122349945D01*
X96483359Y-122506781D01*
X84286600Y-110310022D01*
X84286600Y-102775000D01*
X84251798Y-102600037D01*
X84152689Y-102451711D01*
X84004363Y-102352602D01*
X83860771Y-102324040D01*
X83860771Y-100725000D01*
X83837115Y-100606073D01*
X83769748Y-100505252D01*
X83668927Y-100437885D01*
X83550000Y-100414229D01*
X81550000Y-100414229D01*
X81431073Y-100437885D01*
X81330252Y-100505252D01*
X81262885Y-100606073D01*
X81239229Y-100725000D01*
X81239229Y-104825000D01*
X81262885Y-104943927D01*
X81330252Y-105044748D01*
X81431073Y-105112115D01*
X81550000Y-105135771D01*
X83372200Y-105135771D01*
X83372200Y-110499400D01*
X83407002Y-110674363D01*
X83506111Y-110822689D01*
X95836935Y-123153513D01*
X95680457Y-123530357D01*
X95679945Y-124117069D01*
X95903996Y-124659316D01*
X96318502Y-125074546D01*
X96860357Y-125299543D01*
X97447069Y-125300055D01*
X97989316Y-125076004D01*
X98126500Y-124939059D01*
X98126500Y-126960422D01*
X94926711Y-130160211D01*
X94827602Y-130308537D01*
X94792800Y-130483500D01*
X94792800Y-134375291D01*
X94778572Y-134378121D01*
X94378915Y-134645163D01*
X94111873Y-135044820D01*
X94018100Y-135516248D01*
X94018100Y-136263752D01*
X94111873Y-136735180D01*
X94378915Y-137134837D01*
X94778572Y-137401879D01*
X95250000Y-137495652D01*
X95721428Y-137401879D01*
X96121085Y-137134837D01*
X96388127Y-136735180D01*
X96481900Y-136263752D01*
X96481900Y-135516248D01*
X96388127Y-135044820D01*
X96121085Y-134645163D01*
X95721428Y-134378121D01*
X95707200Y-134375291D01*
X95707200Y-130672878D01*
X98906989Y-127473089D01*
X99006098Y-127324763D01*
X99040900Y-127149800D01*
X99040900Y-107372100D01*
X99006098Y-107197137D01*
X98906989Y-107048811D01*
X98356484Y-106498306D01*
X98723947Y-106252775D01*
X99010260Y-105824276D01*
X99060000Y-105574216D01*
X99109740Y-105824276D01*
X99396053Y-106252775D01*
X99824552Y-106539088D01*
X99872800Y-106548685D01*
X99872800Y-106578400D01*
X99907602Y-106753363D01*
X100006711Y-106901689D01*
X100821711Y-107716689D01*
X100970037Y-107815798D01*
X101145000Y-107850600D01*
X114801989Y-107850600D01*
X114788910Y-107856004D01*
X114577944Y-108066601D01*
X114463630Y-108341901D01*
X114463370Y-108639991D01*
X114577204Y-108915490D01*
X114787801Y-109126456D01*
X115063101Y-109240770D01*
X115315612Y-109240990D01*
X116300414Y-110225793D01*
X116300170Y-110505291D01*
X116414004Y-110780790D01*
X116624601Y-110991756D01*
X116899901Y-111106070D01*
X117197991Y-111106330D01*
X117473490Y-110992496D01*
X117684456Y-110781899D01*
X117798770Y-110506599D01*
X117799030Y-110208509D01*
X117685196Y-109933010D01*
X117474599Y-109722044D01*
X117199299Y-109607730D01*
X116975313Y-109607535D01*
X115962011Y-108594233D01*
X115962230Y-108343209D01*
X115848396Y-108067710D01*
X115637799Y-107856744D01*
X115623003Y-107850600D01*
X132535000Y-107850600D01*
X132709963Y-107815798D01*
X132858289Y-107716689D01*
X133673289Y-106901689D01*
X133772398Y-106753363D01*
X133807200Y-106578400D01*
X133807200Y-106548685D01*
X133855448Y-106539088D01*
X134283947Y-106252775D01*
X134570260Y-105824276D01*
X134620000Y-105574216D01*
X134669740Y-105824276D01*
X134956053Y-106252775D01*
X135384552Y-106539088D01*
X135890000Y-106639628D01*
X136395448Y-106539088D01*
X136823947Y-106252775D01*
X137110260Y-105824276D01*
X137160000Y-105574216D01*
X137209740Y-105824276D01*
X137496053Y-106252775D01*
X137863516Y-106498306D01*
X126791422Y-117570400D01*
X117322139Y-117570400D01*
X117388927Y-117557115D01*
X117489748Y-117489748D01*
X117557115Y-117388927D01*
X117580771Y-117270000D01*
X117580771Y-113870000D01*
X117557115Y-113751073D01*
X117500404Y-113666200D01*
X119276956Y-113666200D01*
X119454301Y-113843856D01*
X119729601Y-113958170D01*
X120027691Y-113958430D01*
X120303190Y-113844596D01*
X120514156Y-113633999D01*
X120628470Y-113358699D01*
X120628730Y-113060609D01*
X120514896Y-112785110D01*
X120304299Y-112574144D01*
X120028999Y-112459830D01*
X119730909Y-112459570D01*
X119455410Y-112573404D01*
X119276701Y-112751800D01*
X113829378Y-112751800D01*
X114452978Y-112128200D01*
X117582100Y-112128200D01*
X117757063Y-112093398D01*
X117905389Y-111994289D01*
X118569067Y-111330611D01*
X118820091Y-111330830D01*
X119095590Y-111216996D01*
X119306556Y-111006399D01*
X119420870Y-110731099D01*
X119421130Y-110433009D01*
X119307296Y-110157510D01*
X119096699Y-109946544D01*
X118821399Y-109832230D01*
X118523309Y-109831970D01*
X118247810Y-109945804D01*
X118036844Y-110156401D01*
X117922530Y-110431701D01*
X117922310Y-110684212D01*
X117392722Y-111213800D01*
X114777566Y-111213800D01*
X114942556Y-111049099D01*
X115056870Y-110773799D01*
X115057130Y-110475709D01*
X114943296Y-110200210D01*
X114732699Y-109989244D01*
X114457399Y-109874930D01*
X114159309Y-109874670D01*
X113883810Y-109988504D01*
X113705101Y-110166900D01*
X112276300Y-110166900D01*
X112101337Y-110201702D01*
X111953011Y-110300811D01*
X105345233Y-116908589D01*
X105094209Y-116908370D01*
X104818710Y-117022204D01*
X104607744Y-117232801D01*
X104493430Y-117508101D01*
X104493170Y-117806191D01*
X104607004Y-118081690D01*
X104817601Y-118292656D01*
X105092901Y-118406970D01*
X105390991Y-118407230D01*
X105666490Y-118293396D01*
X105877456Y-118082799D01*
X105991770Y-117807499D01*
X105991990Y-117554988D01*
X112465678Y-111081300D01*
X113705356Y-111081300D01*
X113882701Y-111258956D01*
X114000153Y-111307726D01*
X113940311Y-111347711D01*
X102239785Y-123048237D01*
X102216004Y-122990684D01*
X101801498Y-122575454D01*
X101259643Y-122350457D01*
X100672931Y-122349945D01*
X100130684Y-122573996D01*
X99715454Y-122988502D01*
X99490457Y-123530357D01*
X99489945Y-124117069D01*
X99713996Y-124659316D01*
X100128502Y-125074546D01*
X100623477Y-125280077D01*
X100571230Y-125405901D01*
X100570970Y-125703991D01*
X100684804Y-125979490D01*
X100895401Y-126190456D01*
X100945851Y-126211405D01*
X100756110Y-126289804D01*
X100545144Y-126500401D01*
X100430830Y-126775701D01*
X100430570Y-127073791D01*
X100544404Y-127349290D01*
X100755001Y-127560256D01*
X101030301Y-127674570D01*
X101328391Y-127674830D01*
X101603890Y-127560996D01*
X101814856Y-127350399D01*
X101929170Y-127075099D01*
X101929390Y-126822588D01*
X103193389Y-125558589D01*
X103292498Y-125410263D01*
X103298391Y-125380637D01*
X103327300Y-125235300D01*
X103327300Y-124183273D01*
X103523996Y-124659316D01*
X103938502Y-125074546D01*
X104480357Y-125299543D01*
X105067069Y-125300055D01*
X105609316Y-125076004D01*
X106024546Y-124661498D01*
X106249543Y-124119643D01*
X106250055Y-123532931D01*
X106093219Y-123153359D01*
X111034628Y-118211950D01*
X111133604Y-118451490D01*
X111344201Y-118662456D01*
X111619501Y-118776770D01*
X111917591Y-118777030D01*
X112193090Y-118663196D01*
X112371799Y-118484800D01*
X112546321Y-118484800D01*
X97466711Y-133564411D01*
X97367602Y-133712737D01*
X97332800Y-133887700D01*
X97332800Y-134375291D01*
X97318572Y-134378121D01*
X96918915Y-134645163D01*
X96651873Y-135044820D01*
X96558100Y-135516248D01*
X96558100Y-136263752D01*
X96651873Y-136735180D01*
X96918915Y-137134837D01*
X97318572Y-137401879D01*
X97790000Y-137495652D01*
X98261428Y-137401879D01*
X98661085Y-137134837D01*
X98928127Y-136735180D01*
X99021900Y-136263752D01*
X99021900Y-135516248D01*
X98928127Y-135044820D01*
X98661085Y-134645163D01*
X98261428Y-134378121D01*
X98247200Y-134375291D01*
X98247200Y-134077078D01*
X99872800Y-132451478D01*
X99872800Y-134375291D01*
X99858572Y-134378121D01*
X99458915Y-134645163D01*
X99191873Y-135044820D01*
X99098100Y-135516248D01*
X99098100Y-136263752D01*
X99191873Y-136735180D01*
X99458915Y-137134837D01*
X99858572Y-137401879D01*
X100330000Y-137495652D01*
X100801428Y-137401879D01*
X101201085Y-137134837D01*
X101468127Y-136735180D01*
X101561900Y-136263752D01*
X101561900Y-135516248D01*
X101638100Y-135516248D01*
X101638100Y-136263752D01*
X101731873Y-136735180D01*
X101998915Y-137134837D01*
X102398572Y-137401879D01*
X102870000Y-137495652D01*
X103341428Y-137401879D01*
X103741085Y-137134837D01*
X104008127Y-136735180D01*
X104101900Y-136263752D01*
X104101900Y-135516248D01*
X104178100Y-135516248D01*
X104178100Y-136263752D01*
X104271873Y-136735180D01*
X104538915Y-137134837D01*
X104938572Y-137401879D01*
X105410000Y-137495652D01*
X105881428Y-137401879D01*
X106281085Y-137134837D01*
X106548127Y-136735180D01*
X106641900Y-136263752D01*
X106641900Y-135516248D01*
X106718100Y-135516248D01*
X106718100Y-136263752D01*
X106811873Y-136735180D01*
X107078915Y-137134837D01*
X107478572Y-137401879D01*
X107950000Y-137495652D01*
X108421428Y-137401879D01*
X108821085Y-137134837D01*
X109088127Y-136735180D01*
X109181900Y-136263752D01*
X109181900Y-135516248D01*
X109258100Y-135516248D01*
X109258100Y-136263752D01*
X109351873Y-136735180D01*
X109618915Y-137134837D01*
X110018572Y-137401879D01*
X110490000Y-137495652D01*
X110961428Y-137401879D01*
X111361085Y-137134837D01*
X111628127Y-136735180D01*
X111721900Y-136263752D01*
X111721900Y-135516248D01*
X111798100Y-135516248D01*
X111798100Y-136263752D01*
X111891873Y-136735180D01*
X112158915Y-137134837D01*
X112558572Y-137401879D01*
X113030000Y-137495652D01*
X113501428Y-137401879D01*
X113901085Y-137134837D01*
X114168127Y-136735180D01*
X114261900Y-136263752D01*
X114261900Y-135516248D01*
X114338100Y-135516248D01*
X114338100Y-136263752D01*
X114431873Y-136735180D01*
X114698915Y-137134837D01*
X115098572Y-137401879D01*
X115570000Y-137495652D01*
X116041428Y-137401879D01*
X116441085Y-137134837D01*
X116708127Y-136735180D01*
X116801900Y-136263752D01*
X116801900Y-135516248D01*
X116878100Y-135516248D01*
X116878100Y-136263752D01*
X116971873Y-136735180D01*
X117238915Y-137134837D01*
X117638572Y-137401879D01*
X118110000Y-137495652D01*
X118581428Y-137401879D01*
X118981085Y-137134837D01*
X119248127Y-136735180D01*
X119341900Y-136263752D01*
X119341900Y-135516248D01*
X119418100Y-135516248D01*
X119418100Y-136263752D01*
X119511873Y-136735180D01*
X119778915Y-137134837D01*
X120178572Y-137401879D01*
X120650000Y-137495652D01*
X121121428Y-137401879D01*
X121521085Y-137134837D01*
X121788127Y-136735180D01*
X121881900Y-136263752D01*
X121881900Y-135516248D01*
X121958100Y-135516248D01*
X121958100Y-136263752D01*
X122051873Y-136735180D01*
X122318915Y-137134837D01*
X122718572Y-137401879D01*
X123190000Y-137495652D01*
X123661428Y-137401879D01*
X124061085Y-137134837D01*
X124328127Y-136735180D01*
X124421900Y-136263752D01*
X124421900Y-135516248D01*
X124498100Y-135516248D01*
X124498100Y-136263752D01*
X124591873Y-136735180D01*
X124858915Y-137134837D01*
X125258572Y-137401879D01*
X125730000Y-137495652D01*
X126201428Y-137401879D01*
X126601085Y-137134837D01*
X126868127Y-136735180D01*
X126961900Y-136263752D01*
X126961900Y-135516248D01*
X127038100Y-135516248D01*
X127038100Y-136263752D01*
X127131873Y-136735180D01*
X127398915Y-137134837D01*
X127798572Y-137401879D01*
X128270000Y-137495652D01*
X128741428Y-137401879D01*
X129141085Y-137134837D01*
X129408127Y-136735180D01*
X129501900Y-136263752D01*
X129501900Y-135516248D01*
X129578100Y-135516248D01*
X129578100Y-136263752D01*
X129671873Y-136735180D01*
X129938915Y-137134837D01*
X130338572Y-137401879D01*
X130810000Y-137495652D01*
X131281428Y-137401879D01*
X131681085Y-137134837D01*
X131948127Y-136735180D01*
X132041900Y-136263752D01*
X132041900Y-135516248D01*
X132118100Y-135516248D01*
X132118100Y-136263752D01*
X132211873Y-136735180D01*
X132478915Y-137134837D01*
X132878572Y-137401879D01*
X133350000Y-137495652D01*
X133821428Y-137401879D01*
X134221085Y-137134837D01*
X134488127Y-136735180D01*
X134574197Y-136302477D01*
X163016840Y-136302477D01*
X163333259Y-137068270D01*
X163918648Y-137654682D01*
X164683888Y-137972437D01*
X165512477Y-137973160D01*
X166278270Y-137656741D01*
X166864682Y-137071352D01*
X167182437Y-136306112D01*
X167183160Y-135477523D01*
X166866741Y-134711730D01*
X166281352Y-134125318D01*
X165516112Y-133807563D01*
X164687523Y-133806840D01*
X163921730Y-134123259D01*
X163335318Y-134708648D01*
X163017563Y-135473888D01*
X163016840Y-136302477D01*
X134574197Y-136302477D01*
X134581900Y-136263752D01*
X134581900Y-135516248D01*
X134488127Y-135044820D01*
X134221085Y-134645163D01*
X133821428Y-134378121D01*
X133350000Y-134284348D01*
X132878572Y-134378121D01*
X132478915Y-134645163D01*
X132211873Y-135044820D01*
X132118100Y-135516248D01*
X132041900Y-135516248D01*
X131948127Y-135044820D01*
X131681085Y-134645163D01*
X131281428Y-134378121D01*
X130810000Y-134284348D01*
X130338572Y-134378121D01*
X129938915Y-134645163D01*
X129671873Y-135044820D01*
X129578100Y-135516248D01*
X129501900Y-135516248D01*
X129408127Y-135044820D01*
X129141085Y-134645163D01*
X128741428Y-134378121D01*
X128270000Y-134284348D01*
X127798572Y-134378121D01*
X127398915Y-134645163D01*
X127131873Y-135044820D01*
X127038100Y-135516248D01*
X126961900Y-135516248D01*
X126868127Y-135044820D01*
X126601085Y-134645163D01*
X126201428Y-134378121D01*
X125730000Y-134284348D01*
X125258572Y-134378121D01*
X124858915Y-134645163D01*
X124591873Y-135044820D01*
X124498100Y-135516248D01*
X124421900Y-135516248D01*
X124328127Y-135044820D01*
X124061085Y-134645163D01*
X123661428Y-134378121D01*
X123190000Y-134284348D01*
X122718572Y-134378121D01*
X122318915Y-134645163D01*
X122051873Y-135044820D01*
X121958100Y-135516248D01*
X121881900Y-135516248D01*
X121788127Y-135044820D01*
X121521085Y-134645163D01*
X121121428Y-134378121D01*
X120650000Y-134284348D01*
X120178572Y-134378121D01*
X119778915Y-134645163D01*
X119511873Y-135044820D01*
X119418100Y-135516248D01*
X119341900Y-135516248D01*
X119248127Y-135044820D01*
X118981085Y-134645163D01*
X118581428Y-134378121D01*
X118110000Y-134284348D01*
X117638572Y-134378121D01*
X117238915Y-134645163D01*
X116971873Y-135044820D01*
X116878100Y-135516248D01*
X116801900Y-135516248D01*
X116708127Y-135044820D01*
X116441085Y-134645163D01*
X116041428Y-134378121D01*
X115570000Y-134284348D01*
X115098572Y-134378121D01*
X114698915Y-134645163D01*
X114431873Y-135044820D01*
X114338100Y-135516248D01*
X114261900Y-135516248D01*
X114168127Y-135044820D01*
X113901085Y-134645163D01*
X113501428Y-134378121D01*
X113030000Y-134284348D01*
X112558572Y-134378121D01*
X112158915Y-134645163D01*
X111891873Y-135044820D01*
X111798100Y-135516248D01*
X111721900Y-135516248D01*
X111628127Y-135044820D01*
X111361085Y-134645163D01*
X110961428Y-134378121D01*
X110490000Y-134284348D01*
X110018572Y-134378121D01*
X109618915Y-134645163D01*
X109351873Y-135044820D01*
X109258100Y-135516248D01*
X109181900Y-135516248D01*
X109088127Y-135044820D01*
X108821085Y-134645163D01*
X108421428Y-134378121D01*
X107950000Y-134284348D01*
X107478572Y-134378121D01*
X107078915Y-134645163D01*
X106811873Y-135044820D01*
X106718100Y-135516248D01*
X106641900Y-135516248D01*
X106548127Y-135044820D01*
X106281085Y-134645163D01*
X105881428Y-134378121D01*
X105410000Y-134284348D01*
X104938572Y-134378121D01*
X104538915Y-134645163D01*
X104271873Y-135044820D01*
X104178100Y-135516248D01*
X104101900Y-135516248D01*
X104008127Y-135044820D01*
X103741085Y-134645163D01*
X103341428Y-134378121D01*
X102870000Y-134284348D01*
X102398572Y-134378121D01*
X101998915Y-134645163D01*
X101731873Y-135044820D01*
X101638100Y-135516248D01*
X101561900Y-135516248D01*
X101468127Y-135044820D01*
X101201085Y-134645163D01*
X100801428Y-134378121D01*
X100787200Y-134375291D01*
X100787200Y-132135878D01*
X111524665Y-121398413D01*
X111524570Y-121506991D01*
X111638404Y-121782490D01*
X111849001Y-121993456D01*
X112124301Y-122107770D01*
X112376812Y-122107990D01*
X120213911Y-129945090D01*
X120335451Y-130026300D01*
X120362237Y-130044198D01*
X120537200Y-130079000D01*
X133286456Y-130079000D01*
X133463801Y-130256656D01*
X133739101Y-130370970D01*
X134037191Y-130371230D01*
X134312690Y-130257396D01*
X134523656Y-130046799D01*
X134637970Y-129771499D01*
X134638230Y-129473409D01*
X134524396Y-129197910D01*
X134313799Y-128986944D01*
X134038499Y-128872630D01*
X133740409Y-128872370D01*
X133464910Y-128986204D01*
X133286201Y-129164600D01*
X120726579Y-129164600D01*
X115679048Y-124117069D01*
X124889945Y-124117069D01*
X125113996Y-124659316D01*
X125528502Y-125074546D01*
X126070357Y-125299543D01*
X126657069Y-125300055D01*
X127199316Y-125076004D01*
X127614546Y-124661498D01*
X127839543Y-124119643D01*
X127839545Y-124117069D01*
X128699945Y-124117069D01*
X128923996Y-124659316D01*
X129338502Y-125074546D01*
X129880357Y-125299543D01*
X130467069Y-125300055D01*
X131009316Y-125076004D01*
X131424546Y-124661498D01*
X131649543Y-124119643D01*
X131649545Y-124117069D01*
X132509945Y-124117069D01*
X132733996Y-124659316D01*
X133148502Y-125074546D01*
X133690357Y-125299543D01*
X134277069Y-125300055D01*
X134819316Y-125076004D01*
X135234546Y-124661498D01*
X135459543Y-124119643D01*
X135459545Y-124117069D01*
X136319945Y-124117069D01*
X136543996Y-124659316D01*
X136958502Y-125074546D01*
X137500357Y-125299543D01*
X138087069Y-125300055D01*
X138629316Y-125076004D01*
X139044546Y-124661498D01*
X139269543Y-124119643D01*
X139269545Y-124117069D01*
X157909945Y-124117069D01*
X158133996Y-124659316D01*
X158548502Y-125074546D01*
X159090357Y-125299543D01*
X159677069Y-125300055D01*
X160219316Y-125076004D01*
X160634546Y-124661498D01*
X160859543Y-124119643D01*
X160859545Y-124117069D01*
X161719945Y-124117069D01*
X161943996Y-124659316D01*
X162358502Y-125074546D01*
X162900357Y-125299543D01*
X163487069Y-125300055D01*
X164029316Y-125076004D01*
X164444546Y-124661498D01*
X164669543Y-124119643D01*
X164669545Y-124117069D01*
X165529945Y-124117069D01*
X165753996Y-124659316D01*
X166168502Y-125074546D01*
X166710357Y-125299543D01*
X167297069Y-125300055D01*
X167839316Y-125076004D01*
X168254546Y-124661498D01*
X168479543Y-124119643D01*
X168480055Y-123532931D01*
X168256004Y-122990684D01*
X167841498Y-122575454D01*
X167299643Y-122350457D01*
X166712931Y-122349945D01*
X166170684Y-122573996D01*
X165755454Y-122988502D01*
X165530457Y-123530357D01*
X165529945Y-124117069D01*
X164669545Y-124117069D01*
X164670055Y-123532931D01*
X164446004Y-122990684D01*
X164031498Y-122575454D01*
X163489643Y-122350457D01*
X162902931Y-122349945D01*
X162360684Y-122573996D01*
X161945454Y-122988502D01*
X161720457Y-123530357D01*
X161719945Y-124117069D01*
X160859545Y-124117069D01*
X160860055Y-123532931D01*
X160636004Y-122990684D01*
X160221498Y-122575454D01*
X159679643Y-122350457D01*
X159092931Y-122349945D01*
X158550684Y-122573996D01*
X158135454Y-122988502D01*
X157910457Y-123530357D01*
X157909945Y-124117069D01*
X139269545Y-124117069D01*
X139270055Y-123532931D01*
X139046004Y-122990684D01*
X138631498Y-122575454D01*
X138089643Y-122350457D01*
X137502931Y-122349945D01*
X136960684Y-122573996D01*
X136545454Y-122988502D01*
X136320457Y-123530357D01*
X136319945Y-124117069D01*
X135459545Y-124117069D01*
X135460055Y-123532931D01*
X135236004Y-122990684D01*
X134821498Y-122575454D01*
X134279643Y-122350457D01*
X133692931Y-122349945D01*
X133150684Y-122573996D01*
X132735454Y-122988502D01*
X132510457Y-123530357D01*
X132509945Y-124117069D01*
X131649545Y-124117069D01*
X131650055Y-123532931D01*
X131426004Y-122990684D01*
X131011498Y-122575454D01*
X130469643Y-122350457D01*
X129882931Y-122349945D01*
X129340684Y-122573996D01*
X128925454Y-122988502D01*
X128700457Y-123530357D01*
X128699945Y-124117069D01*
X127839545Y-124117069D01*
X127840055Y-123532931D01*
X127616004Y-122990684D01*
X127201498Y-122575454D01*
X126659643Y-122350457D01*
X126072931Y-122349945D01*
X125530684Y-122573996D01*
X125115454Y-122988502D01*
X124890457Y-123530357D01*
X124889945Y-124117069D01*
X115679048Y-124117069D01*
X113023211Y-121461233D01*
X113023430Y-121210209D01*
X112909596Y-120934710D01*
X112764684Y-120789544D01*
X113019301Y-120895270D01*
X113271812Y-120895490D01*
X113563111Y-121186789D01*
X113711437Y-121285898D01*
X113886400Y-121320700D01*
X159704900Y-121320700D01*
X159879863Y-121285898D01*
X160028189Y-121186789D01*
X174313289Y-106901689D01*
X174412398Y-106753363D01*
X174447200Y-106578400D01*
X174447200Y-106548685D01*
X174495448Y-106539088D01*
X174923947Y-106252775D01*
X175210260Y-105824276D01*
X175310800Y-105318828D01*
X175310800Y-104846267D01*
X176809400Y-104846267D01*
X176809400Y-105973733D01*
X176987278Y-106867988D01*
X177493833Y-107626100D01*
X178251945Y-108132655D01*
X179146200Y-108310533D01*
X180040455Y-108132655D01*
X180798567Y-107626100D01*
X181305122Y-106867988D01*
X181483000Y-105973733D01*
X181483000Y-104846267D01*
X181305122Y-103952012D01*
X180798567Y-103193900D01*
X180040455Y-102687345D01*
X179146200Y-102509467D01*
X178251945Y-102687345D01*
X177493833Y-103193900D01*
X176987278Y-103952012D01*
X176809400Y-104846267D01*
X175310800Y-104846267D01*
X175310800Y-104231172D01*
X175210260Y-103725724D01*
X174923947Y-103297225D01*
X174495448Y-103010912D01*
X173990000Y-102910372D01*
X173484552Y-103010912D01*
X173056053Y-103297225D01*
X172769740Y-103725724D01*
X172720000Y-103975784D01*
X172670260Y-103725724D01*
X172383947Y-103297225D01*
X171955448Y-103010912D01*
X171450000Y-102910372D01*
X170944552Y-103010912D01*
X170516053Y-103297225D01*
X170229740Y-103725724D01*
X170180000Y-103975784D01*
X170130260Y-103725724D01*
X169843947Y-103297225D01*
X169415448Y-103010912D01*
X168910000Y-102910372D01*
X168404552Y-103010912D01*
X167976053Y-103297225D01*
X167689740Y-103725724D01*
X167640000Y-103975784D01*
X167590260Y-103725724D01*
X167303947Y-103297225D01*
X166875448Y-103010912D01*
X166370000Y-102910372D01*
X165864552Y-103010912D01*
X165436053Y-103297225D01*
X165149740Y-103725724D01*
X165100000Y-103975784D01*
X165050260Y-103725724D01*
X164763947Y-103297225D01*
X164335448Y-103010912D01*
X163830000Y-102910372D01*
X163324552Y-103010912D01*
X162896053Y-103297225D01*
X162609740Y-103725724D01*
X162560000Y-103975784D01*
X162510260Y-103725724D01*
X162223947Y-103297225D01*
X161795448Y-103010912D01*
X161290000Y-102910372D01*
X160784552Y-103010912D01*
X160356053Y-103297225D01*
X160069740Y-103725724D01*
X160020000Y-103975784D01*
X159970260Y-103725724D01*
X159683947Y-103297225D01*
X159255448Y-103010912D01*
X158750000Y-102910372D01*
X158244552Y-103010912D01*
X157816053Y-103297225D01*
X157529740Y-103725724D01*
X157480000Y-103975784D01*
X157430260Y-103725724D01*
X157143947Y-103297225D01*
X156715448Y-103010912D01*
X156210000Y-102910372D01*
X155704552Y-103010912D01*
X155276053Y-103297225D01*
X154989740Y-103725724D01*
X154889200Y-104231172D01*
X154889200Y-105318828D01*
X154989740Y-105824276D01*
X155188138Y-106121200D01*
X147222478Y-106121200D01*
X143308478Y-102207200D01*
X146096222Y-102207200D01*
X146987311Y-103098289D01*
X147135637Y-103197398D01*
X147279229Y-103225960D01*
X147279229Y-104825000D01*
X147302885Y-104943927D01*
X147370252Y-105044748D01*
X147471073Y-105112115D01*
X147590000Y-105135771D01*
X149590000Y-105135771D01*
X149708927Y-105112115D01*
X149809748Y-105044748D01*
X149877115Y-104943927D01*
X149900771Y-104825000D01*
X149900771Y-103225960D01*
X150044363Y-103197398D01*
X150192689Y-103098289D01*
X150224908Y-103050070D01*
X158964378Y-94310600D01*
X173845322Y-94310600D01*
X183123135Y-103588413D01*
X182601081Y-103937238D01*
X182149587Y-104612947D01*
X181991043Y-105410000D01*
X182149587Y-106207053D01*
X182601081Y-106882762D01*
X183276790Y-107334256D01*
X184073843Y-107492800D01*
X184235021Y-107492800D01*
X170491711Y-121236111D01*
X170392602Y-121384437D01*
X170357800Y-121559400D01*
X170357800Y-122418175D01*
X169980684Y-122573996D01*
X169565454Y-122988502D01*
X169340457Y-123530357D01*
X169339945Y-124117069D01*
X169563996Y-124659316D01*
X169978502Y-125074546D01*
X170520357Y-125299543D01*
X171107069Y-125300055D01*
X171649316Y-125076004D01*
X172064546Y-124661498D01*
X172289543Y-124119643D01*
X172290055Y-123532931D01*
X172066004Y-122990684D01*
X171651498Y-122575454D01*
X171272200Y-122417956D01*
X171272200Y-121748778D01*
X183259343Y-109761636D01*
X183230667Y-109905800D01*
X183389211Y-110702853D01*
X183840705Y-111378562D01*
X184516414Y-111830056D01*
X185313467Y-111988600D01*
X186948933Y-111988600D01*
X187745986Y-111830056D01*
X188421695Y-111378562D01*
X188873189Y-110702853D01*
X189031733Y-109905800D01*
X188873189Y-109108747D01*
X188421695Y-108433038D01*
X187745986Y-107981544D01*
X186948933Y-107823000D01*
X185415533Y-107823000D01*
X185463889Y-107790689D01*
X185562998Y-107642363D01*
X185597800Y-107467400D01*
X185597800Y-107411953D01*
X185988410Y-107334256D01*
X186664119Y-106882762D01*
X187115613Y-106207053D01*
X187119495Y-106187538D01*
X187417463Y-106486026D01*
X187884073Y-106679779D01*
X188389310Y-106680220D01*
X188856258Y-106487282D01*
X189213826Y-106130337D01*
X189407579Y-105663727D01*
X189408020Y-105158490D01*
X189215082Y-104691542D01*
X188858137Y-104333974D01*
X188391527Y-104140221D01*
X187886290Y-104139780D01*
X187419342Y-104332718D01*
X187119425Y-104632112D01*
X187115613Y-104612947D01*
X186664119Y-103937238D01*
X185988410Y-103485744D01*
X185597800Y-103408047D01*
X185597800Y-103352600D01*
X185562998Y-103177637D01*
X185463889Y-103029311D01*
X185415533Y-102997000D01*
X186948933Y-102997000D01*
X187745986Y-102838456D01*
X188421695Y-102386962D01*
X188873189Y-101711253D01*
X189031733Y-100914200D01*
X188873189Y-100117147D01*
X188421695Y-99441438D01*
X187745986Y-98989944D01*
X186948933Y-98831400D01*
X185313467Y-98831400D01*
X184516414Y-98989944D01*
X183840705Y-99441438D01*
X183389211Y-100117147D01*
X183230667Y-100914200D01*
X183389211Y-101711253D01*
X183840705Y-102386962D01*
X184516414Y-102838456D01*
X184802690Y-102895400D01*
X183723278Y-102895400D01*
X174598266Y-93770388D01*
X174923947Y-93552775D01*
X175210260Y-93124276D01*
X175310800Y-92618828D01*
X175310800Y-91531172D01*
X175210260Y-91025724D01*
X174923947Y-90597225D01*
X174495448Y-90310912D01*
X173990000Y-90210372D01*
X173484552Y-90310912D01*
X173056053Y-90597225D01*
X172769740Y-91025724D01*
X172720000Y-91275784D01*
X172670260Y-91025724D01*
X172383947Y-90597225D01*
X171955448Y-90310912D01*
X171907200Y-90301315D01*
X171907200Y-86056400D01*
X171872398Y-85881437D01*
X171778490Y-85740894D01*
X171826783Y-85789272D01*
X172405379Y-86029526D01*
X173031873Y-86030073D01*
X173610887Y-85790829D01*
X174054272Y-85348217D01*
X174294526Y-84769621D01*
X174295073Y-84143127D01*
X174055829Y-83564113D01*
X173613217Y-83120728D01*
X173034621Y-82880474D01*
X172408127Y-82879927D01*
X171829113Y-83119171D01*
X171385728Y-83561783D01*
X171145474Y-84140379D01*
X171144927Y-84766873D01*
X171382837Y-85342659D01*
X168613989Y-82573811D01*
X168465663Y-82474702D01*
X168290700Y-82439900D01*
X145804500Y-82439900D01*
X145629537Y-82474702D01*
X145481211Y-82573811D01*
X138430000Y-89625022D01*
X138337589Y-89532611D01*
X138189263Y-89433502D01*
X138014300Y-89398700D01*
X105825700Y-89398700D01*
X105650737Y-89433502D01*
X105502411Y-89532610D01*
X105086711Y-89948311D01*
X104987602Y-90096637D01*
X104952800Y-90271600D01*
X104952800Y-90301315D01*
X104904552Y-90310912D01*
X104476053Y-90597225D01*
X104189740Y-91025724D01*
X104140000Y-91275784D01*
X104090260Y-91025724D01*
X103803947Y-90597225D01*
X103375448Y-90310912D01*
X102870000Y-90210372D01*
X102364552Y-90310912D01*
X101936053Y-90597225D01*
X101649740Y-91025724D01*
X101600000Y-91275784D01*
X101550260Y-91025724D01*
X101351175Y-90727771D01*
X101705646Y-90657262D01*
X102010539Y-90453539D01*
X106434492Y-86029586D01*
X106991873Y-86030073D01*
X107570887Y-85790829D01*
X108014272Y-85348217D01*
X108254526Y-84769621D01*
X108254528Y-84766873D01*
X122884927Y-84766873D01*
X123124171Y-85345887D01*
X123566783Y-85789272D01*
X124145379Y-86029526D01*
X124771873Y-86030073D01*
X125350887Y-85790829D01*
X125794272Y-85348217D01*
X126034526Y-84769621D01*
X126034528Y-84766873D01*
X127964927Y-84766873D01*
X128204171Y-85345887D01*
X128646783Y-85789272D01*
X129225379Y-86029526D01*
X129851873Y-86030073D01*
X130430887Y-85790829D01*
X130874272Y-85348217D01*
X131114526Y-84769621D01*
X131114528Y-84766873D01*
X133044927Y-84766873D01*
X133284171Y-85345887D01*
X133726783Y-85789272D01*
X134305379Y-86029526D01*
X134931873Y-86030073D01*
X135510887Y-85790829D01*
X135954272Y-85348217D01*
X136194526Y-84769621D01*
X136194528Y-84766873D01*
X138124927Y-84766873D01*
X138364171Y-85345887D01*
X138806783Y-85789272D01*
X139385379Y-86029526D01*
X140011873Y-86030073D01*
X140590887Y-85790829D01*
X141034272Y-85348217D01*
X141274526Y-84769621D01*
X141275073Y-84143127D01*
X141035829Y-83564113D01*
X140593217Y-83120728D01*
X140014621Y-82880474D01*
X139388127Y-82879927D01*
X138809113Y-83119171D01*
X138365728Y-83561783D01*
X138125474Y-84140379D01*
X138124927Y-84766873D01*
X136194528Y-84766873D01*
X136195073Y-84143127D01*
X135955829Y-83564113D01*
X135513217Y-83120728D01*
X134934621Y-82880474D01*
X134308127Y-82879927D01*
X133729113Y-83119171D01*
X133285728Y-83561783D01*
X133045474Y-84140379D01*
X133044927Y-84766873D01*
X131114528Y-84766873D01*
X131115073Y-84143127D01*
X130875829Y-83564113D01*
X130433217Y-83120728D01*
X129854621Y-82880474D01*
X129228127Y-82879927D01*
X128649113Y-83119171D01*
X128205728Y-83561783D01*
X127965474Y-84140379D01*
X127964927Y-84766873D01*
X126034528Y-84766873D01*
X126035073Y-84143127D01*
X125795829Y-83564113D01*
X125353217Y-83120728D01*
X124774621Y-82880474D01*
X124148127Y-82879927D01*
X123569113Y-83119171D01*
X123125728Y-83561783D01*
X122885474Y-84140379D01*
X122884927Y-84766873D01*
X108254528Y-84766873D01*
X108255073Y-84143127D01*
X108015829Y-83564113D01*
X107573217Y-83120728D01*
X106994621Y-82880474D01*
X106368127Y-82879927D01*
X105789113Y-83119171D01*
X105345728Y-83561783D01*
X105105474Y-84140379D01*
X105104985Y-84700937D01*
X100956722Y-88849200D01*
X100330000Y-88849200D01*
X99970354Y-88920738D01*
X99665461Y-89124461D01*
X99461738Y-89429354D01*
X99390200Y-89789000D01*
X99390200Y-90605985D01*
X99109740Y-91025724D01*
X99060000Y-91275784D01*
X99010260Y-91025724D01*
X98723947Y-90597225D01*
X98295448Y-90310912D01*
X97790000Y-90210372D01*
X97284552Y-90310912D01*
X96856053Y-90597225D01*
X96569740Y-91025724D01*
X96520000Y-91275784D01*
X96470260Y-91025724D01*
X96183947Y-90597225D01*
X95755448Y-90310912D01*
X95250000Y-90210372D01*
X94744552Y-90310912D01*
X94316053Y-90597225D01*
X94029740Y-91025724D01*
X93980000Y-91275784D01*
X93930260Y-91025724D01*
X93643947Y-90597225D01*
X93215448Y-90310912D01*
X92710000Y-90210372D01*
X92204552Y-90310912D01*
X91776053Y-90597225D01*
X91621030Y-90829234D01*
X91613538Y-90804111D01*
X91211710Y-90309764D01*
X90651291Y-90006820D01*
X90573703Y-89992326D01*
X90322400Y-90101704D01*
X90322400Y-91922600D01*
X90342400Y-91922600D01*
X90342400Y-92227400D01*
X90322400Y-92227400D01*
X90322400Y-94048296D01*
X90573703Y-94157674D01*
X90651291Y-94143180D01*
X91211710Y-93840236D01*
X91613538Y-93345889D01*
X91621030Y-93320766D01*
X91776053Y-93552775D01*
X92204552Y-93839088D01*
X92252800Y-93848685D01*
X92252800Y-93878400D01*
X92287602Y-94053363D01*
X92386711Y-94201689D01*
X92535037Y-94300798D01*
X92710000Y-94335600D01*
X107950000Y-94335600D01*
X108124963Y-94300798D01*
X108273289Y-94201689D01*
X108372398Y-94053363D01*
X108407200Y-93878400D01*
X108407200Y-93848685D01*
X108455448Y-93839088D01*
X108883947Y-93552775D01*
X109170260Y-93124276D01*
X109270800Y-92618828D01*
X109270800Y-91903743D01*
X113960400Y-91903743D01*
X113960400Y-93770200D01*
X114112800Y-93922600D01*
X115417600Y-93922600D01*
X115417600Y-91567800D01*
X115722400Y-91567800D01*
X115722400Y-93922600D01*
X117027200Y-93922600D01*
X117179600Y-93770200D01*
X117179600Y-92227400D01*
X121564400Y-92227400D01*
X121564400Y-92735400D01*
X121746462Y-93345889D01*
X122148290Y-93840236D01*
X122708709Y-94143180D01*
X122786297Y-94157674D01*
X123037600Y-94048296D01*
X123037600Y-92227400D01*
X121564400Y-92227400D01*
X117179600Y-92227400D01*
X117179600Y-91903743D01*
X117086794Y-91679689D01*
X116915311Y-91508206D01*
X116691257Y-91415400D01*
X115874800Y-91415400D01*
X115722400Y-91567800D01*
X115417600Y-91567800D01*
X115265200Y-91415400D01*
X114448743Y-91415400D01*
X114224689Y-91508206D01*
X114053206Y-91679689D01*
X113960400Y-91903743D01*
X109270800Y-91903743D01*
X109270800Y-91531172D01*
X109170260Y-91025724D01*
X108971862Y-90728800D01*
X121807678Y-90728800D01*
X121746462Y-90804111D01*
X121564400Y-91414600D01*
X121564400Y-91922600D01*
X123037600Y-91922600D01*
X123037600Y-91902600D01*
X123342400Y-91902600D01*
X123342400Y-91922600D01*
X123362400Y-91922600D01*
X123362400Y-92227400D01*
X123342400Y-92227400D01*
X123342400Y-94048296D01*
X123593703Y-94157674D01*
X123671291Y-94143180D01*
X124231710Y-93840236D01*
X124633538Y-93345889D01*
X124641030Y-93320766D01*
X124796053Y-93552775D01*
X125224552Y-93839088D01*
X125730000Y-93939628D01*
X126235448Y-93839088D01*
X126663947Y-93552775D01*
X126950260Y-93124276D01*
X127000000Y-92874216D01*
X127049740Y-93124276D01*
X127336053Y-93552775D01*
X127764552Y-93839088D01*
X128270000Y-93939628D01*
X128775448Y-93839088D01*
X129203947Y-93552775D01*
X129490260Y-93124276D01*
X129540000Y-92874216D01*
X129589740Y-93124276D01*
X129876053Y-93552775D01*
X130304552Y-93839088D01*
X130810000Y-93939628D01*
X131315448Y-93839088D01*
X131743947Y-93552775D01*
X132030260Y-93124276D01*
X132080000Y-92874216D01*
X132129740Y-93124276D01*
X132416053Y-93552775D01*
X132844552Y-93839088D01*
X133350000Y-93939628D01*
X133855448Y-93839088D01*
X134283947Y-93552775D01*
X134570260Y-93124276D01*
X134620000Y-92874216D01*
X134669740Y-93124276D01*
X134956053Y-93552775D01*
X135384552Y-93839088D01*
X135890000Y-93939628D01*
X136395448Y-93839088D01*
X136823947Y-93552775D01*
X137110260Y-93124276D01*
X137160000Y-92874216D01*
X137209740Y-93124276D01*
X137496053Y-93552775D01*
X137924552Y-93839088D01*
X138430000Y-93939628D01*
X138935448Y-93839088D01*
X139363947Y-93552775D01*
X139650260Y-93124276D01*
X139700000Y-92874216D01*
X139749740Y-93124276D01*
X140036053Y-93552775D01*
X140464552Y-93839088D01*
X140970000Y-93939628D01*
X141475448Y-93839088D01*
X141903947Y-93552775D01*
X142190260Y-93124276D01*
X142290800Y-92618828D01*
X142290800Y-91903743D01*
X146980400Y-91903743D01*
X146980400Y-93770200D01*
X147132800Y-93922600D01*
X148437600Y-93922600D01*
X148437600Y-91567800D01*
X148742400Y-91567800D01*
X148742400Y-93922600D01*
X150047200Y-93922600D01*
X150199600Y-93770200D01*
X150199600Y-92227400D01*
X154584400Y-92227400D01*
X154584400Y-92735400D01*
X154766462Y-93345889D01*
X155168290Y-93840236D01*
X155728709Y-94143180D01*
X155806297Y-94157674D01*
X156057600Y-94048296D01*
X156057600Y-92227400D01*
X154584400Y-92227400D01*
X150199600Y-92227400D01*
X150199600Y-91903743D01*
X150106794Y-91679689D01*
X149935311Y-91508206D01*
X149711257Y-91415400D01*
X148894800Y-91415400D01*
X148742400Y-91567800D01*
X148437600Y-91567800D01*
X148285200Y-91415400D01*
X147468743Y-91415400D01*
X147244689Y-91508206D01*
X147073206Y-91679689D01*
X146980400Y-91903743D01*
X142290800Y-91903743D01*
X142290800Y-91531172D01*
X142190260Y-91025724D01*
X141991862Y-90728800D01*
X154827678Y-90728800D01*
X154766462Y-90804111D01*
X154584400Y-91414600D01*
X154584400Y-91922600D01*
X156057600Y-91922600D01*
X156057600Y-91902600D01*
X156362400Y-91902600D01*
X156362400Y-91922600D01*
X156382400Y-91922600D01*
X156382400Y-92227400D01*
X156362400Y-92227400D01*
X156362400Y-94048296D01*
X156613703Y-94157674D01*
X156691291Y-94143180D01*
X157251710Y-93840236D01*
X157653538Y-93345889D01*
X157661030Y-93320766D01*
X157816053Y-93552775D01*
X158183516Y-93798306D01*
X149900771Y-102081051D01*
X149900771Y-100725000D01*
X149877115Y-100606073D01*
X149809748Y-100505252D01*
X149708927Y-100437885D01*
X149590000Y-100414229D01*
X147590000Y-100414229D01*
X147471073Y-100437885D01*
X147370252Y-100505252D01*
X147302885Y-100606073D01*
X147279229Y-100725000D01*
X147279229Y-102097051D01*
X146608889Y-101426711D01*
X146460563Y-101327602D01*
X146285600Y-101292800D01*
X117874400Y-101292800D01*
X117699437Y-101327602D01*
X117551111Y-101426711D01*
X116880771Y-102097051D01*
X116880771Y-100725000D01*
X116857115Y-100606073D01*
X116789748Y-100505252D01*
X116688927Y-100437885D01*
X116570000Y-100414229D01*
X114570000Y-100414229D01*
X114451073Y-100437885D01*
X114350252Y-100505252D01*
X114282885Y-100606073D01*
X114259229Y-100725000D01*
X114259229Y-104825000D01*
X114282885Y-104943927D01*
X114350252Y-105044748D01*
X114451073Y-105112115D01*
X114570000Y-105135771D01*
X116570000Y-105135771D01*
X116688927Y-105112115D01*
X116789748Y-105044748D01*
X116857115Y-104943927D01*
X116880771Y-104825000D01*
X116880771Y-103225960D01*
X117024363Y-103197398D01*
X117172689Y-103098289D01*
X118063778Y-102207200D01*
X125847822Y-102207200D01*
X125406711Y-102648311D01*
X125307602Y-102796637D01*
X125272800Y-102971600D01*
X125272800Y-103001315D01*
X125224552Y-103010912D01*
X124796053Y-103297225D01*
X124509740Y-103725724D01*
X124460000Y-103975784D01*
X124410260Y-103725724D01*
X124123947Y-103297225D01*
X123695448Y-103010912D01*
X123190000Y-102910372D01*
X122684552Y-103010912D01*
X122256053Y-103297225D01*
X121969740Y-103725724D01*
X121869200Y-104231172D01*
X121869200Y-105318828D01*
X121969740Y-105824276D01*
X122168138Y-106121200D01*
X114801778Y-106121200D01*
X110923089Y-102242511D01*
X110774763Y-102143402D01*
X110599800Y-102108600D01*
X93115800Y-102108600D01*
X92940837Y-102143402D01*
X92792511Y-102242511D01*
X92386711Y-102648311D01*
X92287602Y-102796637D01*
X92252800Y-102971600D01*
X92252800Y-103001315D01*
X92204552Y-103010912D01*
X91776053Y-103297225D01*
X91489740Y-103725724D01*
X91440000Y-103975784D01*
X91390260Y-103725724D01*
X91103947Y-103297225D01*
X90675448Y-103010912D01*
X90627200Y-103001315D01*
X90627200Y-102971600D01*
X90592398Y-102796637D01*
X90493289Y-102648311D01*
X90344963Y-102549202D01*
X90170000Y-102514400D01*
X88168878Y-102514400D01*
X82317139Y-96662661D01*
X82397600Y-96582200D01*
X82397600Y-94227400D01*
X82702400Y-94227400D01*
X82702400Y-96582200D01*
X82854800Y-96734600D01*
X83671257Y-96734600D01*
X83895311Y-96641794D01*
X84066794Y-96470311D01*
X84159600Y-96246257D01*
X84159600Y-94379800D01*
X113960400Y-94379800D01*
X113960400Y-96246257D01*
X114053206Y-96470311D01*
X114224689Y-96641794D01*
X114448743Y-96734600D01*
X115265200Y-96734600D01*
X115417600Y-96582200D01*
X115417600Y-94227400D01*
X115722400Y-94227400D01*
X115722400Y-96582200D01*
X115874800Y-96734600D01*
X116691257Y-96734600D01*
X116915311Y-96641794D01*
X117086794Y-96470311D01*
X117179600Y-96246257D01*
X117179600Y-94379800D01*
X146980400Y-94379800D01*
X146980400Y-96246257D01*
X147073206Y-96470311D01*
X147244689Y-96641794D01*
X147468743Y-96734600D01*
X148285200Y-96734600D01*
X148437600Y-96582200D01*
X148437600Y-94227400D01*
X148742400Y-94227400D01*
X148742400Y-96582200D01*
X148894800Y-96734600D01*
X149711257Y-96734600D01*
X149935311Y-96641794D01*
X150106794Y-96470311D01*
X150199600Y-96246257D01*
X150199600Y-94379800D01*
X150047200Y-94227400D01*
X148742400Y-94227400D01*
X148437600Y-94227400D01*
X147132800Y-94227400D01*
X146980400Y-94379800D01*
X117179600Y-94379800D01*
X117027200Y-94227400D01*
X115722400Y-94227400D01*
X115417600Y-94227400D01*
X114112800Y-94227400D01*
X113960400Y-94379800D01*
X84159600Y-94379800D01*
X84007200Y-94227400D01*
X82702400Y-94227400D01*
X82397600Y-94227400D01*
X81092800Y-94227400D01*
X80940400Y-94379800D01*
X80940400Y-95285922D01*
X77558221Y-91903743D01*
X80940400Y-91903743D01*
X80940400Y-93770200D01*
X81092800Y-93922600D01*
X82397600Y-93922600D01*
X82397600Y-91567800D01*
X82702400Y-91567800D01*
X82702400Y-93922600D01*
X84007200Y-93922600D01*
X84159600Y-93770200D01*
X84159600Y-92227400D01*
X88544400Y-92227400D01*
X88544400Y-92735400D01*
X88726462Y-93345889D01*
X89128290Y-93840236D01*
X89688709Y-94143180D01*
X89766297Y-94157674D01*
X90017600Y-94048296D01*
X90017600Y-92227400D01*
X88544400Y-92227400D01*
X84159600Y-92227400D01*
X84159600Y-91903743D01*
X84066794Y-91679689D01*
X83895311Y-91508206D01*
X83671257Y-91415400D01*
X82854800Y-91415400D01*
X82702400Y-91567800D01*
X82397600Y-91567800D01*
X82245200Y-91415400D01*
X81428743Y-91415400D01*
X81204689Y-91508206D01*
X81033206Y-91679689D01*
X80940400Y-91903743D01*
X77558221Y-91903743D01*
X77069078Y-91414600D01*
X88544400Y-91414600D01*
X88544400Y-91922600D01*
X90017600Y-91922600D01*
X90017600Y-90101704D01*
X89766297Y-89992326D01*
X89688709Y-90006820D01*
X89128290Y-90309764D01*
X88726462Y-90804111D01*
X88544400Y-91414600D01*
X77069078Y-91414600D01*
X71665700Y-86011222D01*
X71665700Y-84766873D01*
X89864927Y-84766873D01*
X90104171Y-85345887D01*
X90546783Y-85789272D01*
X91125379Y-86029526D01*
X91751873Y-86030073D01*
X92330887Y-85790829D01*
X92774272Y-85348217D01*
X93014526Y-84769621D01*
X93014528Y-84766873D01*
X94944927Y-84766873D01*
X95184171Y-85345887D01*
X95626783Y-85789272D01*
X96205379Y-86029526D01*
X96831873Y-86030073D01*
X97410887Y-85790829D01*
X97854272Y-85348217D01*
X98094526Y-84769621D01*
X98094528Y-84766873D01*
X100024927Y-84766873D01*
X100264171Y-85345887D01*
X100706783Y-85789272D01*
X101285379Y-86029526D01*
X101911873Y-86030073D01*
X102490887Y-85790829D01*
X102934272Y-85348217D01*
X103174526Y-84769621D01*
X103175073Y-84143127D01*
X102935829Y-83564113D01*
X102493217Y-83120728D01*
X101914621Y-82880474D01*
X101288127Y-82879927D01*
X100709113Y-83119171D01*
X100265728Y-83561783D01*
X100025474Y-84140379D01*
X100024927Y-84766873D01*
X98094528Y-84766873D01*
X98095073Y-84143127D01*
X97855829Y-83564113D01*
X97413217Y-83120728D01*
X96834621Y-82880474D01*
X96208127Y-82879927D01*
X95629113Y-83119171D01*
X95185728Y-83561783D01*
X94945474Y-84140379D01*
X94944927Y-84766873D01*
X93014528Y-84766873D01*
X93015073Y-84143127D01*
X92775829Y-83564113D01*
X92333217Y-83120728D01*
X91754621Y-82880474D01*
X91128127Y-82879927D01*
X90549113Y-83119171D01*
X90105728Y-83561783D01*
X89865474Y-84140379D01*
X89864927Y-84766873D01*
X71665700Y-84766873D01*
X71665700Y-80637535D01*
X71893259Y-81188270D01*
X72478648Y-81774682D01*
X73243888Y-82092437D01*
X74072477Y-82093160D01*
X74838270Y-81776741D01*
X75424682Y-81191352D01*
X75742437Y-80426112D01*
X75743160Y-79597523D01*
X75426741Y-78831730D01*
X74841352Y-78245318D01*
X74076112Y-77927563D01*
X73247523Y-77926840D01*
X72481730Y-78243259D01*
X71895318Y-78828648D01*
X71665700Y-79381630D01*
X71665700Y-76809600D01*
X72085200Y-76809600D01*
X72237600Y-76657200D01*
X72237600Y-75082400D01*
X72217600Y-75082400D01*
X72217600Y-74777600D01*
X72237600Y-74777600D01*
X72237600Y-74757600D01*
X72542400Y-74757600D01*
X72542400Y-74777600D01*
X72562400Y-74777600D01*
X72562400Y-75082400D01*
X72542400Y-75082400D01*
X72542400Y-76657200D01*
X72694800Y-76809600D01*
X73438357Y-76809600D01*
X73662411Y-76716794D01*
X73833894Y-76545311D01*
X73926700Y-76321257D01*
X73926700Y-75976963D01*
X74058915Y-76174837D01*
X74458572Y-76441879D01*
X74930000Y-76535652D01*
X75401428Y-76441879D01*
X75801085Y-76174837D01*
X76068127Y-75775180D01*
X76161900Y-75303752D01*
X76161900Y-74556248D01*
X76068127Y-74084820D01*
X75901938Y-73836100D01*
X76498062Y-73836100D01*
X76331873Y-74084820D01*
X76238100Y-74556248D01*
X76238100Y-75303752D01*
X76331873Y-75775180D01*
X76598915Y-76174837D01*
X76998572Y-76441879D01*
X77470000Y-76535652D01*
X77941428Y-76441879D01*
X78341085Y-76174837D01*
X78608127Y-75775180D01*
X78701900Y-75303752D01*
X78701900Y-74556248D01*
X78608127Y-74084820D01*
X78441938Y-73836100D01*
X79038062Y-73836100D01*
X78871873Y-74084820D01*
X78778100Y-74556248D01*
X78778100Y-75303752D01*
X78871873Y-75775180D01*
X79138915Y-76174837D01*
X79538572Y-76441879D01*
X80010000Y-76535652D01*
X80481428Y-76441879D01*
X80881085Y-76174837D01*
X81148127Y-75775180D01*
X81241900Y-75303752D01*
X81241900Y-74556248D01*
X81148127Y-74084820D01*
X80981938Y-73836100D01*
X81578062Y-73836100D01*
X81411873Y-74084820D01*
X81318100Y-74556248D01*
X81318100Y-75303752D01*
X81411873Y-75775180D01*
X81678915Y-76174837D01*
X82078572Y-76441879D01*
X82550000Y-76535652D01*
X83021428Y-76441879D01*
X83421085Y-76174837D01*
X83688127Y-75775180D01*
X83781900Y-75303752D01*
X83781900Y-74556248D01*
X83688127Y-74084820D01*
X83521938Y-73836100D01*
X84118062Y-73836100D01*
X83951873Y-74084820D01*
X83858100Y-74556248D01*
X83858100Y-75303752D01*
X83951873Y-75775180D01*
X84218915Y-76174837D01*
X84618572Y-76441879D01*
X85090000Y-76535652D01*
X85561428Y-76441879D01*
X85961085Y-76174837D01*
X86228127Y-75775180D01*
X86321900Y-75303752D01*
X86321900Y-74556248D01*
X86228127Y-74084820D01*
X86061938Y-73836100D01*
X86658062Y-73836100D01*
X86491873Y-74084820D01*
X86398100Y-74556248D01*
X86398100Y-75303752D01*
X86491873Y-75775180D01*
X86758915Y-76174837D01*
X87158572Y-76441879D01*
X87630000Y-76535652D01*
X88101428Y-76441879D01*
X88501085Y-76174837D01*
X88768127Y-75775180D01*
X88861900Y-75303752D01*
X88861900Y-74556248D01*
X88768127Y-74084820D01*
X88601938Y-73836100D01*
X89198062Y-73836100D01*
X89031873Y-74084820D01*
X88938100Y-74556248D01*
X88938100Y-75303752D01*
X89031873Y-75775180D01*
X89298915Y-76174837D01*
X89698572Y-76441879D01*
X90170000Y-76535652D01*
X90641428Y-76441879D01*
X91041085Y-76174837D01*
X91308127Y-75775180D01*
X91401900Y-75303752D01*
X91401900Y-74556248D01*
X91308127Y-74084820D01*
X91141938Y-73836100D01*
X91738062Y-73836100D01*
X91571873Y-74084820D01*
X91478100Y-74556248D01*
X91478100Y-75303752D01*
X91571873Y-75775180D01*
X91838915Y-76174837D01*
X92238572Y-76441879D01*
X92710000Y-76535652D01*
X93181428Y-76441879D01*
X93581085Y-76174837D01*
X93848127Y-75775180D01*
X93941900Y-75303752D01*
X93941900Y-74556248D01*
X93848127Y-74084820D01*
X93681938Y-73836100D01*
X94278062Y-73836100D01*
X94111873Y-74084820D01*
X94018100Y-74556248D01*
X94018100Y-75303752D01*
X94111873Y-75775180D01*
X94378915Y-76174837D01*
X94778572Y-76441879D01*
X95250000Y-76535652D01*
X95721428Y-76441879D01*
X96121085Y-76174837D01*
X96388127Y-75775180D01*
X96481900Y-75303752D01*
X96481900Y-74556248D01*
X96388127Y-74084820D01*
X96221938Y-73836100D01*
X96818062Y-73836100D01*
X96651873Y-74084820D01*
X96558100Y-74556248D01*
X96558100Y-75303752D01*
X96651873Y-75775180D01*
X96918915Y-76174837D01*
X97318572Y-76441879D01*
X97790000Y-76535652D01*
X98261428Y-76441879D01*
X98661085Y-76174837D01*
X98928127Y-75775180D01*
X99021900Y-75303752D01*
X99021900Y-74556248D01*
X98928127Y-74084820D01*
X98761938Y-73836100D01*
X99358062Y-73836100D01*
X99191873Y-74084820D01*
X99098100Y-74556248D01*
X99098100Y-75303752D01*
X99191873Y-75775180D01*
X99458915Y-76174837D01*
X99858572Y-76441879D01*
X100330000Y-76535652D01*
X100801428Y-76441879D01*
X101201085Y-76174837D01*
X101468127Y-75775180D01*
X101549800Y-75364584D01*
X101654336Y-75385377D01*
X101731873Y-75775180D01*
X101998915Y-76174837D01*
X102398572Y-76441879D01*
X102870000Y-76535652D01*
X103341428Y-76441879D01*
X103741085Y-76174837D01*
X104008127Y-75775180D01*
X104101900Y-75303752D01*
X104101900Y-74556248D01*
X104178100Y-74556248D01*
X104178100Y-75303752D01*
X104271873Y-75775180D01*
X104538915Y-76174837D01*
X104938572Y-76441879D01*
X105410000Y-76535652D01*
X105881428Y-76441879D01*
X106281085Y-76174837D01*
X106548127Y-75775180D01*
X106641900Y-75303752D01*
X106641900Y-74556248D01*
X106718100Y-74556248D01*
X106718100Y-75303752D01*
X106811873Y-75775180D01*
X107078915Y-76174837D01*
X107478572Y-76441879D01*
X107950000Y-76535652D01*
X108421428Y-76441879D01*
X108821085Y-76174837D01*
X109088127Y-75775180D01*
X109181900Y-75303752D01*
X109181900Y-74556248D01*
X109258100Y-74556248D01*
X109258100Y-75303752D01*
X109351873Y-75775180D01*
X109618915Y-76174837D01*
X110018572Y-76441879D01*
X110490000Y-76535652D01*
X110961428Y-76441879D01*
X111361085Y-76174837D01*
X111628127Y-75775180D01*
X111721900Y-75303752D01*
X111721900Y-74556248D01*
X111798100Y-74556248D01*
X111798100Y-75303752D01*
X111891873Y-75775180D01*
X112158915Y-76174837D01*
X112558572Y-76441879D01*
X113030000Y-76535652D01*
X113501428Y-76441879D01*
X113901085Y-76174837D01*
X114168127Y-75775180D01*
X114261900Y-75303752D01*
X114261900Y-74556248D01*
X114338100Y-74556248D01*
X114338100Y-75303752D01*
X114431873Y-75775180D01*
X114698915Y-76174837D01*
X115098572Y-76441879D01*
X115570000Y-76535652D01*
X116041428Y-76441879D01*
X116441085Y-76174837D01*
X116708127Y-75775180D01*
X116801900Y-75303752D01*
X116801900Y-74556248D01*
X116878100Y-74556248D01*
X116878100Y-75303752D01*
X116971873Y-75775180D01*
X117238915Y-76174837D01*
X117638572Y-76441879D01*
X118110000Y-76535652D01*
X118581428Y-76441879D01*
X118981085Y-76174837D01*
X119248127Y-75775180D01*
X119341900Y-75303752D01*
X119341900Y-74556248D01*
X119418100Y-74556248D01*
X119418100Y-75303752D01*
X119511873Y-75775180D01*
X119778915Y-76174837D01*
X120178572Y-76441879D01*
X120650000Y-76535652D01*
X121121428Y-76441879D01*
X121521085Y-76174837D01*
X121788127Y-75775180D01*
X121881900Y-75303752D01*
X121881900Y-74556248D01*
X121958100Y-74556248D01*
X121958100Y-75303752D01*
X122051873Y-75775180D01*
X122318915Y-76174837D01*
X122718572Y-76441879D01*
X123190000Y-76535652D01*
X123661428Y-76441879D01*
X124061085Y-76174837D01*
X124328127Y-75775180D01*
X124421900Y-75303752D01*
X124421900Y-74556248D01*
X124498100Y-74556248D01*
X124498100Y-75303752D01*
X124591873Y-75775180D01*
X124858915Y-76174837D01*
X125258572Y-76441879D01*
X125730000Y-76535652D01*
X126201428Y-76441879D01*
X126601085Y-76174837D01*
X126868127Y-75775180D01*
X126961900Y-75303752D01*
X126961900Y-74556248D01*
X127038100Y-74556248D01*
X127038100Y-75303752D01*
X127131873Y-75775180D01*
X127398915Y-76174837D01*
X127798572Y-76441879D01*
X128270000Y-76535652D01*
X128741428Y-76441879D01*
X129141085Y-76174837D01*
X129408127Y-75775180D01*
X129501900Y-75303752D01*
X129501900Y-74556248D01*
X129578100Y-74556248D01*
X129578100Y-75303752D01*
X129671873Y-75775180D01*
X129938915Y-76174837D01*
X130338572Y-76441879D01*
X130810000Y-76535652D01*
X131281428Y-76441879D01*
X131681085Y-76174837D01*
X131948127Y-75775180D01*
X132041900Y-75303752D01*
X132041900Y-74556248D01*
X132118100Y-74556248D01*
X132118100Y-75303752D01*
X132211873Y-75775180D01*
X132478915Y-76174837D01*
X132878572Y-76441879D01*
X133350000Y-76535652D01*
X133821428Y-76441879D01*
X134221085Y-76174837D01*
X134488127Y-75775180D01*
X134574197Y-75342477D01*
X163016840Y-75342477D01*
X163333259Y-76108270D01*
X163918648Y-76694682D01*
X164683888Y-77012437D01*
X165512477Y-77013160D01*
X166278270Y-76696741D01*
X166864682Y-76111352D01*
X167182437Y-75346112D01*
X167183160Y-74517523D01*
X166866741Y-73751730D01*
X166281352Y-73165318D01*
X165516112Y-72847563D01*
X164687523Y-72846840D01*
X163921730Y-73163259D01*
X163335318Y-73748648D01*
X163017563Y-74513888D01*
X163016840Y-75342477D01*
X134574197Y-75342477D01*
X134581900Y-75303752D01*
X134581900Y-74556248D01*
X134488127Y-74084820D01*
X134221085Y-73685163D01*
X133821428Y-73418121D01*
X133350000Y-73324348D01*
X132878572Y-73418121D01*
X132478915Y-73685163D01*
X132211873Y-74084820D01*
X132118100Y-74556248D01*
X132041900Y-74556248D01*
X131948127Y-74084820D01*
X131681085Y-73685163D01*
X131281428Y-73418121D01*
X130810000Y-73324348D01*
X130338572Y-73418121D01*
X129938915Y-73685163D01*
X129671873Y-74084820D01*
X129578100Y-74556248D01*
X129501900Y-74556248D01*
X129408127Y-74084820D01*
X129141085Y-73685163D01*
X128741428Y-73418121D01*
X128270000Y-73324348D01*
X127798572Y-73418121D01*
X127398915Y-73685163D01*
X127131873Y-74084820D01*
X127038100Y-74556248D01*
X126961900Y-74556248D01*
X126868127Y-74084820D01*
X126601085Y-73685163D01*
X126201428Y-73418121D01*
X125730000Y-73324348D01*
X125258572Y-73418121D01*
X124858915Y-73685163D01*
X124591873Y-74084820D01*
X124498100Y-74556248D01*
X124421900Y-74556248D01*
X124328127Y-74084820D01*
X124061085Y-73685163D01*
X123661428Y-73418121D01*
X123190000Y-73324348D01*
X122718572Y-73418121D01*
X122318915Y-73685163D01*
X122051873Y-74084820D01*
X121958100Y-74556248D01*
X121881900Y-74556248D01*
X121788127Y-74084820D01*
X121521085Y-73685163D01*
X121121428Y-73418121D01*
X120650000Y-73324348D01*
X120178572Y-73418121D01*
X119778915Y-73685163D01*
X119511873Y-74084820D01*
X119418100Y-74556248D01*
X119341900Y-74556248D01*
X119248127Y-74084820D01*
X118981085Y-73685163D01*
X118581428Y-73418121D01*
X118110000Y-73324348D01*
X117638572Y-73418121D01*
X117238915Y-73685163D01*
X116971873Y-74084820D01*
X116878100Y-74556248D01*
X116801900Y-74556248D01*
X116708127Y-74084820D01*
X116441085Y-73685163D01*
X116041428Y-73418121D01*
X115570000Y-73324348D01*
X115098572Y-73418121D01*
X114698915Y-73685163D01*
X114431873Y-74084820D01*
X114338100Y-74556248D01*
X114261900Y-74556248D01*
X114168127Y-74084820D01*
X113901085Y-73685163D01*
X113501428Y-73418121D01*
X113030000Y-73324348D01*
X112558572Y-73418121D01*
X112158915Y-73685163D01*
X111891873Y-74084820D01*
X111798100Y-74556248D01*
X111721900Y-74556248D01*
X111628127Y-74084820D01*
X111361085Y-73685163D01*
X110961428Y-73418121D01*
X110490000Y-73324348D01*
X110018572Y-73418121D01*
X109618915Y-73685163D01*
X109351873Y-74084820D01*
X109258100Y-74556248D01*
X109181900Y-74556248D01*
X109088127Y-74084820D01*
X108821085Y-73685163D01*
X108421428Y-73418121D01*
X107950000Y-73324348D01*
X107478572Y-73418121D01*
X107078915Y-73685163D01*
X106811873Y-74084820D01*
X106718100Y-74556248D01*
X106641900Y-74556248D01*
X106548127Y-74084820D01*
X106281085Y-73685163D01*
X105881428Y-73418121D01*
X105410000Y-73324348D01*
X104938572Y-73418121D01*
X104538915Y-73685163D01*
X104271873Y-74084820D01*
X104178100Y-74556248D01*
X104101900Y-74556248D01*
X104008127Y-74084820D01*
X103741085Y-73685163D01*
X103341428Y-73418121D01*
X102870000Y-73324348D01*
X102398572Y-73418121D01*
X101998915Y-73685163D01*
X101920299Y-73802820D01*
X101173089Y-73055611D01*
X101024763Y-72956502D01*
X100849800Y-72921700D01*
X71335200Y-72921700D01*
X71160237Y-72956502D01*
X71011911Y-73055611D01*
X70885211Y-73182311D01*
X70786102Y-73330637D01*
X70751300Y-73505600D01*
X70269100Y-73505600D01*
X70269100Y-72174100D01*
X190715900Y-72174100D01*
X190715900Y-138645900D01*
M02*
