%TF.GenerationSoftware,KiCad,Pcbnew,5.1.0-unknown-e90452d~82~ubuntu18.04.1*%
%TF.CreationDate,2019-04-11T14:53:50-04:00*%
%TF.ProjectId,stepper_controller_5x3,73746570-7065-4725-9f63-6f6e74726f6c,1.3*%
%TF.SameCoordinates,Original*%
%TF.FileFunction,Soldermask,Bot*%
%TF.FilePolarity,Negative*%
%FSLAX46Y46*%
G04 Gerber Fmt 4.6, Leading zero omitted, Abs format (unit mm)*
G04 Created by KiCad (PCBNEW 5.1.0-unknown-e90452d~82~ubuntu18.04.1) date 2019-04-11 14:53:50*
%MOMM*%
%LPD*%
G04 APERTURE LIST*
%ADD10C,0.228600*%
%ADD11R,1.600200X0.787400*%
%ADD12R,0.787400X1.600200*%
%ADD13R,0.558800X1.330960*%
%ADD14O,2.032000X3.048000*%
%ADD15R,1.600000X1.440000*%
%ADD16R,3.800000X4.960000*%
%ADD17C,0.100000*%
%ADD18C,3.400001*%
%ADD19C,0.300000*%
%ADD20O,1.854200X2.540000*%
%ADD21C,3.556000*%
%ADD22R,1.854200X2.540000*%
%ADD23R,2.000000X1.800000*%
%ADD24O,5.080000X3.556000*%
%ADD25O,4.064000X5.080000*%
%ADD26O,4.572000X3.556000*%
%ADD27C,1.930400*%
%ADD28O,1.524000X2.540000*%
%ADD29R,1.100000X0.600000*%
%ADD30C,2.540000*%
%ADD31C,2.340000*%
%ADD32R,0.600000X1.100000*%
%ADD33R,2.000000X0.600000*%
%ADD34R,0.640000X1.910000*%
G04 APERTURE END LIST*
D10*
X191135000Y-71755000D02*
X69850000Y-71755000D01*
X191135000Y-139065000D02*
X191135000Y-71755000D01*
X69850000Y-139065000D02*
X191135000Y-139065000D01*
X69850000Y-71755000D02*
X69850000Y-139065000D01*
D11*
%TO.C,C1*%
X105410000Y-111988600D03*
X105410000Y-114071400D03*
%TD*%
%TO.C,C4*%
X133350000Y-114071400D03*
X133350000Y-111988600D03*
%TD*%
D12*
%TO.C,C5*%
X78333600Y-108585000D03*
X80416400Y-108585000D03*
%TD*%
D11*
%TO.C,C8*%
X161290000Y-132486400D03*
X161290000Y-130403600D03*
%TD*%
%TO.C,C9*%
X158115000Y-132486400D03*
X158115000Y-130403600D03*
%TD*%
%TO.C,C10*%
X154940000Y-132486400D03*
X154940000Y-130403600D03*
%TD*%
%TO.C,C11*%
X151765000Y-124866400D03*
X151765000Y-122783600D03*
%TD*%
%TO.C,C14*%
X128270000Y-132486400D03*
X128270000Y-130403600D03*
%TD*%
%TO.C,C15*%
X125095000Y-132486400D03*
X125095000Y-130403600D03*
%TD*%
%TO.C,C16*%
X121920000Y-132486400D03*
X121920000Y-130403600D03*
%TD*%
%TO.C,C17*%
X118745000Y-124866400D03*
X118745000Y-122783600D03*
%TD*%
%TO.C,C20*%
X95250000Y-132486400D03*
X95250000Y-130403600D03*
%TD*%
%TO.C,C21*%
X92075000Y-132486400D03*
X92075000Y-130403600D03*
%TD*%
%TO.C,C22*%
X88900000Y-132486400D03*
X88900000Y-130403600D03*
%TD*%
%TO.C,C23*%
X85725000Y-124866400D03*
X85725000Y-122783600D03*
%TD*%
D12*
%TO.C,R3*%
X160426400Y-127000000D03*
X158343600Y-127000000D03*
%TD*%
D11*
%TO.C,R4*%
X163195000Y-118973600D03*
X163195000Y-121056400D03*
%TD*%
D12*
%TO.C,R5*%
X169773600Y-127000000D03*
X171856400Y-127000000D03*
%TD*%
D11*
%TO.C,R6*%
X170815000Y-118973600D03*
X170815000Y-121056400D03*
%TD*%
D12*
%TO.C,R8*%
X127406400Y-127000000D03*
X125323600Y-127000000D03*
%TD*%
D11*
%TO.C,R9*%
X130175000Y-118973600D03*
X130175000Y-121056400D03*
%TD*%
D12*
%TO.C,R10*%
X136753600Y-127000000D03*
X138836400Y-127000000D03*
%TD*%
D11*
%TO.C,R11*%
X137795000Y-118973600D03*
X137795000Y-121056400D03*
%TD*%
D12*
%TO.C,R13*%
X94386400Y-127000000D03*
X92303600Y-127000000D03*
%TD*%
D11*
%TO.C,R14*%
X97155000Y-118973600D03*
X97155000Y-121056400D03*
%TD*%
D12*
%TO.C,R15*%
X103733600Y-127000000D03*
X105816400Y-127000000D03*
%TD*%
D11*
%TO.C,R16*%
X104775000Y-118973600D03*
X104775000Y-121056400D03*
%TD*%
D12*
%TO.C,C2*%
X75336400Y-120650000D03*
X73253600Y-120650000D03*
%TD*%
%TO.C,C3*%
X77063600Y-120650000D03*
X79146400Y-120650000D03*
%TD*%
%TO.C,C7*%
X158521400Y-95885000D03*
X156438600Y-95885000D03*
%TD*%
%TO.C,C13*%
X125501400Y-95885000D03*
X123418600Y-95885000D03*
%TD*%
%TO.C,C19*%
X92481400Y-95885000D03*
X90398600Y-95885000D03*
%TD*%
%TO.C,R2*%
X166141400Y-95885000D03*
X164058600Y-95885000D03*
%TD*%
%TO.C,R7*%
X133121400Y-95885000D03*
X131038600Y-95885000D03*
%TD*%
%TO.C,R12*%
X100101400Y-95885000D03*
X98018600Y-95885000D03*
%TD*%
D11*
%TO.C,R1*%
X119380000Y-105181400D03*
X119380000Y-103098600D03*
%TD*%
D13*
%TO.C,U5*%
X155889960Y-122626120D03*
X154940000Y-122626120D03*
X153990040Y-122626120D03*
X153990040Y-125023880D03*
X154940000Y-125023880D03*
X155889960Y-125023880D03*
%TD*%
%TO.C,U8*%
X122869960Y-122626120D03*
X121920000Y-122626120D03*
X120970040Y-122626120D03*
X120970040Y-125023880D03*
X121920000Y-125023880D03*
X122869960Y-125023880D03*
%TD*%
%TO.C,U11*%
X89849960Y-122626120D03*
X88900000Y-122626120D03*
X87950040Y-122626120D03*
X87950040Y-125023880D03*
X88900000Y-125023880D03*
X89849960Y-125023880D03*
%TD*%
D14*
%TO.C,SS1*%
X173990000Y-105410000D03*
X171450000Y-105410000D03*
X168910000Y-105410000D03*
X166370000Y-105410000D03*
X163830000Y-105410000D03*
X161290000Y-105410000D03*
X158750000Y-105410000D03*
X156210000Y-105410000D03*
X156210000Y-92710000D03*
X158750000Y-92710000D03*
X161290000Y-92710000D03*
X163830000Y-92710000D03*
X166370000Y-92710000D03*
X168910000Y-92710000D03*
X171450000Y-92710000D03*
X173990000Y-92710000D03*
%TD*%
%TO.C,SS2*%
X140970000Y-105410000D03*
X138430000Y-105410000D03*
X135890000Y-105410000D03*
X133350000Y-105410000D03*
X130810000Y-105410000D03*
X128270000Y-105410000D03*
X125730000Y-105410000D03*
X123190000Y-105410000D03*
X123190000Y-92710000D03*
X125730000Y-92710000D03*
X128270000Y-92710000D03*
X130810000Y-92710000D03*
X133350000Y-92710000D03*
X135890000Y-92710000D03*
X138430000Y-92710000D03*
X140970000Y-92710000D03*
%TD*%
%TO.C,SS3*%
X107950000Y-105410000D03*
X105410000Y-105410000D03*
X102870000Y-105410000D03*
X100330000Y-105410000D03*
X97790000Y-105410000D03*
X95250000Y-105410000D03*
X92710000Y-105410000D03*
X90170000Y-105410000D03*
X90170000Y-92710000D03*
X92710000Y-92710000D03*
X95250000Y-92710000D03*
X97790000Y-92710000D03*
X100330000Y-92710000D03*
X102870000Y-92710000D03*
X105410000Y-92710000D03*
X107950000Y-92710000D03*
%TD*%
D15*
%TO.C,D1*%
X74090000Y-90410000D03*
X71960000Y-90410000D03*
D16*
X73025000Y-86610000D03*
%TD*%
D17*
%TO.C,U1*%
G36*
X115058326Y-111331637D02*
G01*
X115091331Y-111336533D01*
X115123697Y-111344640D01*
X115155112Y-111355881D01*
X115185275Y-111370147D01*
X115213894Y-111387300D01*
X115240694Y-111407176D01*
X115265416Y-111429584D01*
X115287824Y-111454306D01*
X115307700Y-111481106D01*
X115324853Y-111509725D01*
X115339119Y-111539888D01*
X115350360Y-111571303D01*
X115358467Y-111603669D01*
X115363363Y-111636674D01*
X115365000Y-111670000D01*
X115365000Y-114390000D01*
X115363363Y-114423326D01*
X115358467Y-114456331D01*
X115350360Y-114488697D01*
X115339119Y-114520112D01*
X115324853Y-114550275D01*
X115307700Y-114578894D01*
X115287824Y-114605694D01*
X115265416Y-114630416D01*
X115240694Y-114652824D01*
X115213894Y-114672700D01*
X115185275Y-114689853D01*
X115155112Y-114704119D01*
X115123697Y-114715360D01*
X115091331Y-114723467D01*
X115058326Y-114728363D01*
X115025000Y-114730000D01*
X112305000Y-114730000D01*
X112271674Y-114728363D01*
X112238669Y-114723467D01*
X112206303Y-114715360D01*
X112174888Y-114704119D01*
X112144725Y-114689853D01*
X112116106Y-114672700D01*
X112089306Y-114652824D01*
X112064584Y-114630416D01*
X112042176Y-114605694D01*
X112022300Y-114578894D01*
X112005147Y-114550275D01*
X111990881Y-114520112D01*
X111979640Y-114488697D01*
X111971533Y-114456331D01*
X111966637Y-114423326D01*
X111965000Y-114390000D01*
X111965000Y-111670000D01*
X111966637Y-111636674D01*
X111971533Y-111603669D01*
X111979640Y-111571303D01*
X111990881Y-111539888D01*
X112005147Y-111509725D01*
X112022300Y-111481106D01*
X112042176Y-111454306D01*
X112064584Y-111429584D01*
X112089306Y-111407176D01*
X112116106Y-111387300D01*
X112144725Y-111370147D01*
X112174888Y-111355881D01*
X112206303Y-111344640D01*
X112238669Y-111336533D01*
X112271674Y-111331637D01*
X112305000Y-111330000D01*
X115025000Y-111330000D01*
X115058326Y-111331637D01*
X115058326Y-111331637D01*
G37*
D18*
X113665000Y-113030000D03*
D17*
G36*
X111929704Y-110280722D02*
G01*
X111944265Y-110282882D01*
X111958544Y-110286459D01*
X111972404Y-110291418D01*
X111985711Y-110297712D01*
X111998337Y-110305280D01*
X112010160Y-110314048D01*
X112021067Y-110323934D01*
X112030953Y-110334841D01*
X112039721Y-110346664D01*
X112047289Y-110359290D01*
X112053583Y-110372597D01*
X112058542Y-110386457D01*
X112062119Y-110400736D01*
X112064279Y-110415297D01*
X112065001Y-110430000D01*
X112065001Y-110830000D01*
X112064279Y-110844703D01*
X112062119Y-110859264D01*
X112058542Y-110873543D01*
X112053583Y-110887403D01*
X112047289Y-110900710D01*
X112039721Y-110913336D01*
X112030953Y-110925159D01*
X112021067Y-110936066D01*
X112010160Y-110945952D01*
X111998337Y-110954720D01*
X111985711Y-110962288D01*
X111972404Y-110968582D01*
X111958544Y-110973541D01*
X111944265Y-110977118D01*
X111929704Y-110979278D01*
X111915001Y-110980000D01*
X111914999Y-110980000D01*
X111900296Y-110979278D01*
X111885735Y-110977118D01*
X111871456Y-110973541D01*
X111857596Y-110968582D01*
X111844289Y-110962288D01*
X111831663Y-110954720D01*
X111819840Y-110945952D01*
X111808933Y-110936066D01*
X111799047Y-110925159D01*
X111790279Y-110913336D01*
X111782711Y-110900710D01*
X111776417Y-110887403D01*
X111771458Y-110873543D01*
X111767881Y-110859264D01*
X111765721Y-110844703D01*
X111764999Y-110830000D01*
X111764999Y-110430000D01*
X111765721Y-110415297D01*
X111767881Y-110400736D01*
X111771458Y-110386457D01*
X111776417Y-110372597D01*
X111782711Y-110359290D01*
X111790279Y-110346664D01*
X111799047Y-110334841D01*
X111808933Y-110323934D01*
X111819840Y-110314048D01*
X111831663Y-110305280D01*
X111844289Y-110297712D01*
X111857596Y-110291418D01*
X111871456Y-110286459D01*
X111885735Y-110282882D01*
X111900296Y-110280722D01*
X111914999Y-110280000D01*
X111915001Y-110280000D01*
X111929704Y-110280722D01*
X111929704Y-110280722D01*
G37*
D19*
X111915000Y-110630000D03*
D17*
G36*
X112429704Y-110280722D02*
G01*
X112444265Y-110282882D01*
X112458544Y-110286459D01*
X112472404Y-110291418D01*
X112485711Y-110297712D01*
X112498337Y-110305280D01*
X112510160Y-110314048D01*
X112521067Y-110323934D01*
X112530953Y-110334841D01*
X112539721Y-110346664D01*
X112547289Y-110359290D01*
X112553583Y-110372597D01*
X112558542Y-110386457D01*
X112562119Y-110400736D01*
X112564279Y-110415297D01*
X112565001Y-110430000D01*
X112565001Y-110830000D01*
X112564279Y-110844703D01*
X112562119Y-110859264D01*
X112558542Y-110873543D01*
X112553583Y-110887403D01*
X112547289Y-110900710D01*
X112539721Y-110913336D01*
X112530953Y-110925159D01*
X112521067Y-110936066D01*
X112510160Y-110945952D01*
X112498337Y-110954720D01*
X112485711Y-110962288D01*
X112472404Y-110968582D01*
X112458544Y-110973541D01*
X112444265Y-110977118D01*
X112429704Y-110979278D01*
X112415001Y-110980000D01*
X112414999Y-110980000D01*
X112400296Y-110979278D01*
X112385735Y-110977118D01*
X112371456Y-110973541D01*
X112357596Y-110968582D01*
X112344289Y-110962288D01*
X112331663Y-110954720D01*
X112319840Y-110945952D01*
X112308933Y-110936066D01*
X112299047Y-110925159D01*
X112290279Y-110913336D01*
X112282711Y-110900710D01*
X112276417Y-110887403D01*
X112271458Y-110873543D01*
X112267881Y-110859264D01*
X112265721Y-110844703D01*
X112264999Y-110830000D01*
X112264999Y-110430000D01*
X112265721Y-110415297D01*
X112267881Y-110400736D01*
X112271458Y-110386457D01*
X112276417Y-110372597D01*
X112282711Y-110359290D01*
X112290279Y-110346664D01*
X112299047Y-110334841D01*
X112308933Y-110323934D01*
X112319840Y-110314048D01*
X112331663Y-110305280D01*
X112344289Y-110297712D01*
X112357596Y-110291418D01*
X112371456Y-110286459D01*
X112385735Y-110282882D01*
X112400296Y-110280722D01*
X112414999Y-110280000D01*
X112415001Y-110280000D01*
X112429704Y-110280722D01*
X112429704Y-110280722D01*
G37*
D19*
X112415000Y-110630000D03*
D17*
G36*
X112929704Y-110280722D02*
G01*
X112944265Y-110282882D01*
X112958544Y-110286459D01*
X112972404Y-110291418D01*
X112985711Y-110297712D01*
X112998337Y-110305280D01*
X113010160Y-110314048D01*
X113021067Y-110323934D01*
X113030953Y-110334841D01*
X113039721Y-110346664D01*
X113047289Y-110359290D01*
X113053583Y-110372597D01*
X113058542Y-110386457D01*
X113062119Y-110400736D01*
X113064279Y-110415297D01*
X113065001Y-110430000D01*
X113065001Y-110830000D01*
X113064279Y-110844703D01*
X113062119Y-110859264D01*
X113058542Y-110873543D01*
X113053583Y-110887403D01*
X113047289Y-110900710D01*
X113039721Y-110913336D01*
X113030953Y-110925159D01*
X113021067Y-110936066D01*
X113010160Y-110945952D01*
X112998337Y-110954720D01*
X112985711Y-110962288D01*
X112972404Y-110968582D01*
X112958544Y-110973541D01*
X112944265Y-110977118D01*
X112929704Y-110979278D01*
X112915001Y-110980000D01*
X112914999Y-110980000D01*
X112900296Y-110979278D01*
X112885735Y-110977118D01*
X112871456Y-110973541D01*
X112857596Y-110968582D01*
X112844289Y-110962288D01*
X112831663Y-110954720D01*
X112819840Y-110945952D01*
X112808933Y-110936066D01*
X112799047Y-110925159D01*
X112790279Y-110913336D01*
X112782711Y-110900710D01*
X112776417Y-110887403D01*
X112771458Y-110873543D01*
X112767881Y-110859264D01*
X112765721Y-110844703D01*
X112764999Y-110830000D01*
X112764999Y-110430000D01*
X112765721Y-110415297D01*
X112767881Y-110400736D01*
X112771458Y-110386457D01*
X112776417Y-110372597D01*
X112782711Y-110359290D01*
X112790279Y-110346664D01*
X112799047Y-110334841D01*
X112808933Y-110323934D01*
X112819840Y-110314048D01*
X112831663Y-110305280D01*
X112844289Y-110297712D01*
X112857596Y-110291418D01*
X112871456Y-110286459D01*
X112885735Y-110282882D01*
X112900296Y-110280722D01*
X112914999Y-110280000D01*
X112915001Y-110280000D01*
X112929704Y-110280722D01*
X112929704Y-110280722D01*
G37*
D19*
X112915000Y-110630000D03*
D17*
G36*
X113429704Y-110280722D02*
G01*
X113444265Y-110282882D01*
X113458544Y-110286459D01*
X113472404Y-110291418D01*
X113485711Y-110297712D01*
X113498337Y-110305280D01*
X113510160Y-110314048D01*
X113521067Y-110323934D01*
X113530953Y-110334841D01*
X113539721Y-110346664D01*
X113547289Y-110359290D01*
X113553583Y-110372597D01*
X113558542Y-110386457D01*
X113562119Y-110400736D01*
X113564279Y-110415297D01*
X113565001Y-110430000D01*
X113565001Y-110830000D01*
X113564279Y-110844703D01*
X113562119Y-110859264D01*
X113558542Y-110873543D01*
X113553583Y-110887403D01*
X113547289Y-110900710D01*
X113539721Y-110913336D01*
X113530953Y-110925159D01*
X113521067Y-110936066D01*
X113510160Y-110945952D01*
X113498337Y-110954720D01*
X113485711Y-110962288D01*
X113472404Y-110968582D01*
X113458544Y-110973541D01*
X113444265Y-110977118D01*
X113429704Y-110979278D01*
X113415001Y-110980000D01*
X113414999Y-110980000D01*
X113400296Y-110979278D01*
X113385735Y-110977118D01*
X113371456Y-110973541D01*
X113357596Y-110968582D01*
X113344289Y-110962288D01*
X113331663Y-110954720D01*
X113319840Y-110945952D01*
X113308933Y-110936066D01*
X113299047Y-110925159D01*
X113290279Y-110913336D01*
X113282711Y-110900710D01*
X113276417Y-110887403D01*
X113271458Y-110873543D01*
X113267881Y-110859264D01*
X113265721Y-110844703D01*
X113264999Y-110830000D01*
X113264999Y-110430000D01*
X113265721Y-110415297D01*
X113267881Y-110400736D01*
X113271458Y-110386457D01*
X113276417Y-110372597D01*
X113282711Y-110359290D01*
X113290279Y-110346664D01*
X113299047Y-110334841D01*
X113308933Y-110323934D01*
X113319840Y-110314048D01*
X113331663Y-110305280D01*
X113344289Y-110297712D01*
X113357596Y-110291418D01*
X113371456Y-110286459D01*
X113385735Y-110282882D01*
X113400296Y-110280722D01*
X113414999Y-110280000D01*
X113415001Y-110280000D01*
X113429704Y-110280722D01*
X113429704Y-110280722D01*
G37*
D19*
X113415000Y-110630000D03*
D17*
G36*
X113929704Y-110280722D02*
G01*
X113944265Y-110282882D01*
X113958544Y-110286459D01*
X113972404Y-110291418D01*
X113985711Y-110297712D01*
X113998337Y-110305280D01*
X114010160Y-110314048D01*
X114021067Y-110323934D01*
X114030953Y-110334841D01*
X114039721Y-110346664D01*
X114047289Y-110359290D01*
X114053583Y-110372597D01*
X114058542Y-110386457D01*
X114062119Y-110400736D01*
X114064279Y-110415297D01*
X114065001Y-110430000D01*
X114065001Y-110830000D01*
X114064279Y-110844703D01*
X114062119Y-110859264D01*
X114058542Y-110873543D01*
X114053583Y-110887403D01*
X114047289Y-110900710D01*
X114039721Y-110913336D01*
X114030953Y-110925159D01*
X114021067Y-110936066D01*
X114010160Y-110945952D01*
X113998337Y-110954720D01*
X113985711Y-110962288D01*
X113972404Y-110968582D01*
X113958544Y-110973541D01*
X113944265Y-110977118D01*
X113929704Y-110979278D01*
X113915001Y-110980000D01*
X113914999Y-110980000D01*
X113900296Y-110979278D01*
X113885735Y-110977118D01*
X113871456Y-110973541D01*
X113857596Y-110968582D01*
X113844289Y-110962288D01*
X113831663Y-110954720D01*
X113819840Y-110945952D01*
X113808933Y-110936066D01*
X113799047Y-110925159D01*
X113790279Y-110913336D01*
X113782711Y-110900710D01*
X113776417Y-110887403D01*
X113771458Y-110873543D01*
X113767881Y-110859264D01*
X113765721Y-110844703D01*
X113764999Y-110830000D01*
X113764999Y-110430000D01*
X113765721Y-110415297D01*
X113767881Y-110400736D01*
X113771458Y-110386457D01*
X113776417Y-110372597D01*
X113782711Y-110359290D01*
X113790279Y-110346664D01*
X113799047Y-110334841D01*
X113808933Y-110323934D01*
X113819840Y-110314048D01*
X113831663Y-110305280D01*
X113844289Y-110297712D01*
X113857596Y-110291418D01*
X113871456Y-110286459D01*
X113885735Y-110282882D01*
X113900296Y-110280722D01*
X113914999Y-110280000D01*
X113915001Y-110280000D01*
X113929704Y-110280722D01*
X113929704Y-110280722D01*
G37*
D19*
X113915000Y-110630000D03*
D17*
G36*
X114429704Y-110280722D02*
G01*
X114444265Y-110282882D01*
X114458544Y-110286459D01*
X114472404Y-110291418D01*
X114485711Y-110297712D01*
X114498337Y-110305280D01*
X114510160Y-110314048D01*
X114521067Y-110323934D01*
X114530953Y-110334841D01*
X114539721Y-110346664D01*
X114547289Y-110359290D01*
X114553583Y-110372597D01*
X114558542Y-110386457D01*
X114562119Y-110400736D01*
X114564279Y-110415297D01*
X114565001Y-110430000D01*
X114565001Y-110830000D01*
X114564279Y-110844703D01*
X114562119Y-110859264D01*
X114558542Y-110873543D01*
X114553583Y-110887403D01*
X114547289Y-110900710D01*
X114539721Y-110913336D01*
X114530953Y-110925159D01*
X114521067Y-110936066D01*
X114510160Y-110945952D01*
X114498337Y-110954720D01*
X114485711Y-110962288D01*
X114472404Y-110968582D01*
X114458544Y-110973541D01*
X114444265Y-110977118D01*
X114429704Y-110979278D01*
X114415001Y-110980000D01*
X114414999Y-110980000D01*
X114400296Y-110979278D01*
X114385735Y-110977118D01*
X114371456Y-110973541D01*
X114357596Y-110968582D01*
X114344289Y-110962288D01*
X114331663Y-110954720D01*
X114319840Y-110945952D01*
X114308933Y-110936066D01*
X114299047Y-110925159D01*
X114290279Y-110913336D01*
X114282711Y-110900710D01*
X114276417Y-110887403D01*
X114271458Y-110873543D01*
X114267881Y-110859264D01*
X114265721Y-110844703D01*
X114264999Y-110830000D01*
X114264999Y-110430000D01*
X114265721Y-110415297D01*
X114267881Y-110400736D01*
X114271458Y-110386457D01*
X114276417Y-110372597D01*
X114282711Y-110359290D01*
X114290279Y-110346664D01*
X114299047Y-110334841D01*
X114308933Y-110323934D01*
X114319840Y-110314048D01*
X114331663Y-110305280D01*
X114344289Y-110297712D01*
X114357596Y-110291418D01*
X114371456Y-110286459D01*
X114385735Y-110282882D01*
X114400296Y-110280722D01*
X114414999Y-110280000D01*
X114415001Y-110280000D01*
X114429704Y-110280722D01*
X114429704Y-110280722D01*
G37*
D19*
X114415000Y-110630000D03*
D17*
G36*
X114929704Y-110280722D02*
G01*
X114944265Y-110282882D01*
X114958544Y-110286459D01*
X114972404Y-110291418D01*
X114985711Y-110297712D01*
X114998337Y-110305280D01*
X115010160Y-110314048D01*
X115021067Y-110323934D01*
X115030953Y-110334841D01*
X115039721Y-110346664D01*
X115047289Y-110359290D01*
X115053583Y-110372597D01*
X115058542Y-110386457D01*
X115062119Y-110400736D01*
X115064279Y-110415297D01*
X115065001Y-110430000D01*
X115065001Y-110830000D01*
X115064279Y-110844703D01*
X115062119Y-110859264D01*
X115058542Y-110873543D01*
X115053583Y-110887403D01*
X115047289Y-110900710D01*
X115039721Y-110913336D01*
X115030953Y-110925159D01*
X115021067Y-110936066D01*
X115010160Y-110945952D01*
X114998337Y-110954720D01*
X114985711Y-110962288D01*
X114972404Y-110968582D01*
X114958544Y-110973541D01*
X114944265Y-110977118D01*
X114929704Y-110979278D01*
X114915001Y-110980000D01*
X114914999Y-110980000D01*
X114900296Y-110979278D01*
X114885735Y-110977118D01*
X114871456Y-110973541D01*
X114857596Y-110968582D01*
X114844289Y-110962288D01*
X114831663Y-110954720D01*
X114819840Y-110945952D01*
X114808933Y-110936066D01*
X114799047Y-110925159D01*
X114790279Y-110913336D01*
X114782711Y-110900710D01*
X114776417Y-110887403D01*
X114771458Y-110873543D01*
X114767881Y-110859264D01*
X114765721Y-110844703D01*
X114764999Y-110830000D01*
X114764999Y-110430000D01*
X114765721Y-110415297D01*
X114767881Y-110400736D01*
X114771458Y-110386457D01*
X114776417Y-110372597D01*
X114782711Y-110359290D01*
X114790279Y-110346664D01*
X114799047Y-110334841D01*
X114808933Y-110323934D01*
X114819840Y-110314048D01*
X114831663Y-110305280D01*
X114844289Y-110297712D01*
X114857596Y-110291418D01*
X114871456Y-110286459D01*
X114885735Y-110282882D01*
X114900296Y-110280722D01*
X114914999Y-110280000D01*
X114915001Y-110280000D01*
X114929704Y-110280722D01*
X114929704Y-110280722D01*
G37*
D19*
X114915000Y-110630000D03*
D17*
G36*
X115429704Y-110280722D02*
G01*
X115444265Y-110282882D01*
X115458544Y-110286459D01*
X115472404Y-110291418D01*
X115485711Y-110297712D01*
X115498337Y-110305280D01*
X115510160Y-110314048D01*
X115521067Y-110323934D01*
X115530953Y-110334841D01*
X115539721Y-110346664D01*
X115547289Y-110359290D01*
X115553583Y-110372597D01*
X115558542Y-110386457D01*
X115562119Y-110400736D01*
X115564279Y-110415297D01*
X115565001Y-110430000D01*
X115565001Y-110830000D01*
X115564279Y-110844703D01*
X115562119Y-110859264D01*
X115558542Y-110873543D01*
X115553583Y-110887403D01*
X115547289Y-110900710D01*
X115539721Y-110913336D01*
X115530953Y-110925159D01*
X115521067Y-110936066D01*
X115510160Y-110945952D01*
X115498337Y-110954720D01*
X115485711Y-110962288D01*
X115472404Y-110968582D01*
X115458544Y-110973541D01*
X115444265Y-110977118D01*
X115429704Y-110979278D01*
X115415001Y-110980000D01*
X115414999Y-110980000D01*
X115400296Y-110979278D01*
X115385735Y-110977118D01*
X115371456Y-110973541D01*
X115357596Y-110968582D01*
X115344289Y-110962288D01*
X115331663Y-110954720D01*
X115319840Y-110945952D01*
X115308933Y-110936066D01*
X115299047Y-110925159D01*
X115290279Y-110913336D01*
X115282711Y-110900710D01*
X115276417Y-110887403D01*
X115271458Y-110873543D01*
X115267881Y-110859264D01*
X115265721Y-110844703D01*
X115264999Y-110830000D01*
X115264999Y-110430000D01*
X115265721Y-110415297D01*
X115267881Y-110400736D01*
X115271458Y-110386457D01*
X115276417Y-110372597D01*
X115282711Y-110359290D01*
X115290279Y-110346664D01*
X115299047Y-110334841D01*
X115308933Y-110323934D01*
X115319840Y-110314048D01*
X115331663Y-110305280D01*
X115344289Y-110297712D01*
X115357596Y-110291418D01*
X115371456Y-110286459D01*
X115385735Y-110282882D01*
X115400296Y-110280722D01*
X115414999Y-110280000D01*
X115415001Y-110280000D01*
X115429704Y-110280722D01*
X115429704Y-110280722D01*
G37*
D19*
X115415000Y-110630000D03*
D17*
G36*
X115429704Y-115080722D02*
G01*
X115444265Y-115082882D01*
X115458544Y-115086459D01*
X115472404Y-115091418D01*
X115485711Y-115097712D01*
X115498337Y-115105280D01*
X115510160Y-115114048D01*
X115521067Y-115123934D01*
X115530953Y-115134841D01*
X115539721Y-115146664D01*
X115547289Y-115159290D01*
X115553583Y-115172597D01*
X115558542Y-115186457D01*
X115562119Y-115200736D01*
X115564279Y-115215297D01*
X115565001Y-115230000D01*
X115565001Y-115630000D01*
X115564279Y-115644703D01*
X115562119Y-115659264D01*
X115558542Y-115673543D01*
X115553583Y-115687403D01*
X115547289Y-115700710D01*
X115539721Y-115713336D01*
X115530953Y-115725159D01*
X115521067Y-115736066D01*
X115510160Y-115745952D01*
X115498337Y-115754720D01*
X115485711Y-115762288D01*
X115472404Y-115768582D01*
X115458544Y-115773541D01*
X115444265Y-115777118D01*
X115429704Y-115779278D01*
X115415001Y-115780000D01*
X115414999Y-115780000D01*
X115400296Y-115779278D01*
X115385735Y-115777118D01*
X115371456Y-115773541D01*
X115357596Y-115768582D01*
X115344289Y-115762288D01*
X115331663Y-115754720D01*
X115319840Y-115745952D01*
X115308933Y-115736066D01*
X115299047Y-115725159D01*
X115290279Y-115713336D01*
X115282711Y-115700710D01*
X115276417Y-115687403D01*
X115271458Y-115673543D01*
X115267881Y-115659264D01*
X115265721Y-115644703D01*
X115264999Y-115630000D01*
X115264999Y-115230000D01*
X115265721Y-115215297D01*
X115267881Y-115200736D01*
X115271458Y-115186457D01*
X115276417Y-115172597D01*
X115282711Y-115159290D01*
X115290279Y-115146664D01*
X115299047Y-115134841D01*
X115308933Y-115123934D01*
X115319840Y-115114048D01*
X115331663Y-115105280D01*
X115344289Y-115097712D01*
X115357596Y-115091418D01*
X115371456Y-115086459D01*
X115385735Y-115082882D01*
X115400296Y-115080722D01*
X115414999Y-115080000D01*
X115415001Y-115080000D01*
X115429704Y-115080722D01*
X115429704Y-115080722D01*
G37*
D19*
X115415000Y-115430000D03*
D17*
G36*
X114929704Y-115080722D02*
G01*
X114944265Y-115082882D01*
X114958544Y-115086459D01*
X114972404Y-115091418D01*
X114985711Y-115097712D01*
X114998337Y-115105280D01*
X115010160Y-115114048D01*
X115021067Y-115123934D01*
X115030953Y-115134841D01*
X115039721Y-115146664D01*
X115047289Y-115159290D01*
X115053583Y-115172597D01*
X115058542Y-115186457D01*
X115062119Y-115200736D01*
X115064279Y-115215297D01*
X115065001Y-115230000D01*
X115065001Y-115630000D01*
X115064279Y-115644703D01*
X115062119Y-115659264D01*
X115058542Y-115673543D01*
X115053583Y-115687403D01*
X115047289Y-115700710D01*
X115039721Y-115713336D01*
X115030953Y-115725159D01*
X115021067Y-115736066D01*
X115010160Y-115745952D01*
X114998337Y-115754720D01*
X114985711Y-115762288D01*
X114972404Y-115768582D01*
X114958544Y-115773541D01*
X114944265Y-115777118D01*
X114929704Y-115779278D01*
X114915001Y-115780000D01*
X114914999Y-115780000D01*
X114900296Y-115779278D01*
X114885735Y-115777118D01*
X114871456Y-115773541D01*
X114857596Y-115768582D01*
X114844289Y-115762288D01*
X114831663Y-115754720D01*
X114819840Y-115745952D01*
X114808933Y-115736066D01*
X114799047Y-115725159D01*
X114790279Y-115713336D01*
X114782711Y-115700710D01*
X114776417Y-115687403D01*
X114771458Y-115673543D01*
X114767881Y-115659264D01*
X114765721Y-115644703D01*
X114764999Y-115630000D01*
X114764999Y-115230000D01*
X114765721Y-115215297D01*
X114767881Y-115200736D01*
X114771458Y-115186457D01*
X114776417Y-115172597D01*
X114782711Y-115159290D01*
X114790279Y-115146664D01*
X114799047Y-115134841D01*
X114808933Y-115123934D01*
X114819840Y-115114048D01*
X114831663Y-115105280D01*
X114844289Y-115097712D01*
X114857596Y-115091418D01*
X114871456Y-115086459D01*
X114885735Y-115082882D01*
X114900296Y-115080722D01*
X114914999Y-115080000D01*
X114915001Y-115080000D01*
X114929704Y-115080722D01*
X114929704Y-115080722D01*
G37*
D19*
X114915000Y-115430000D03*
D17*
G36*
X114429704Y-115080722D02*
G01*
X114444265Y-115082882D01*
X114458544Y-115086459D01*
X114472404Y-115091418D01*
X114485711Y-115097712D01*
X114498337Y-115105280D01*
X114510160Y-115114048D01*
X114521067Y-115123934D01*
X114530953Y-115134841D01*
X114539721Y-115146664D01*
X114547289Y-115159290D01*
X114553583Y-115172597D01*
X114558542Y-115186457D01*
X114562119Y-115200736D01*
X114564279Y-115215297D01*
X114565001Y-115230000D01*
X114565001Y-115630000D01*
X114564279Y-115644703D01*
X114562119Y-115659264D01*
X114558542Y-115673543D01*
X114553583Y-115687403D01*
X114547289Y-115700710D01*
X114539721Y-115713336D01*
X114530953Y-115725159D01*
X114521067Y-115736066D01*
X114510160Y-115745952D01*
X114498337Y-115754720D01*
X114485711Y-115762288D01*
X114472404Y-115768582D01*
X114458544Y-115773541D01*
X114444265Y-115777118D01*
X114429704Y-115779278D01*
X114415001Y-115780000D01*
X114414999Y-115780000D01*
X114400296Y-115779278D01*
X114385735Y-115777118D01*
X114371456Y-115773541D01*
X114357596Y-115768582D01*
X114344289Y-115762288D01*
X114331663Y-115754720D01*
X114319840Y-115745952D01*
X114308933Y-115736066D01*
X114299047Y-115725159D01*
X114290279Y-115713336D01*
X114282711Y-115700710D01*
X114276417Y-115687403D01*
X114271458Y-115673543D01*
X114267881Y-115659264D01*
X114265721Y-115644703D01*
X114264999Y-115630000D01*
X114264999Y-115230000D01*
X114265721Y-115215297D01*
X114267881Y-115200736D01*
X114271458Y-115186457D01*
X114276417Y-115172597D01*
X114282711Y-115159290D01*
X114290279Y-115146664D01*
X114299047Y-115134841D01*
X114308933Y-115123934D01*
X114319840Y-115114048D01*
X114331663Y-115105280D01*
X114344289Y-115097712D01*
X114357596Y-115091418D01*
X114371456Y-115086459D01*
X114385735Y-115082882D01*
X114400296Y-115080722D01*
X114414999Y-115080000D01*
X114415001Y-115080000D01*
X114429704Y-115080722D01*
X114429704Y-115080722D01*
G37*
D19*
X114415000Y-115430000D03*
D17*
G36*
X113929704Y-115080722D02*
G01*
X113944265Y-115082882D01*
X113958544Y-115086459D01*
X113972404Y-115091418D01*
X113985711Y-115097712D01*
X113998337Y-115105280D01*
X114010160Y-115114048D01*
X114021067Y-115123934D01*
X114030953Y-115134841D01*
X114039721Y-115146664D01*
X114047289Y-115159290D01*
X114053583Y-115172597D01*
X114058542Y-115186457D01*
X114062119Y-115200736D01*
X114064279Y-115215297D01*
X114065001Y-115230000D01*
X114065001Y-115630000D01*
X114064279Y-115644703D01*
X114062119Y-115659264D01*
X114058542Y-115673543D01*
X114053583Y-115687403D01*
X114047289Y-115700710D01*
X114039721Y-115713336D01*
X114030953Y-115725159D01*
X114021067Y-115736066D01*
X114010160Y-115745952D01*
X113998337Y-115754720D01*
X113985711Y-115762288D01*
X113972404Y-115768582D01*
X113958544Y-115773541D01*
X113944265Y-115777118D01*
X113929704Y-115779278D01*
X113915001Y-115780000D01*
X113914999Y-115780000D01*
X113900296Y-115779278D01*
X113885735Y-115777118D01*
X113871456Y-115773541D01*
X113857596Y-115768582D01*
X113844289Y-115762288D01*
X113831663Y-115754720D01*
X113819840Y-115745952D01*
X113808933Y-115736066D01*
X113799047Y-115725159D01*
X113790279Y-115713336D01*
X113782711Y-115700710D01*
X113776417Y-115687403D01*
X113771458Y-115673543D01*
X113767881Y-115659264D01*
X113765721Y-115644703D01*
X113764999Y-115630000D01*
X113764999Y-115230000D01*
X113765721Y-115215297D01*
X113767881Y-115200736D01*
X113771458Y-115186457D01*
X113776417Y-115172597D01*
X113782711Y-115159290D01*
X113790279Y-115146664D01*
X113799047Y-115134841D01*
X113808933Y-115123934D01*
X113819840Y-115114048D01*
X113831663Y-115105280D01*
X113844289Y-115097712D01*
X113857596Y-115091418D01*
X113871456Y-115086459D01*
X113885735Y-115082882D01*
X113900296Y-115080722D01*
X113914999Y-115080000D01*
X113915001Y-115080000D01*
X113929704Y-115080722D01*
X113929704Y-115080722D01*
G37*
D19*
X113915000Y-115430000D03*
D17*
G36*
X113429704Y-115080722D02*
G01*
X113444265Y-115082882D01*
X113458544Y-115086459D01*
X113472404Y-115091418D01*
X113485711Y-115097712D01*
X113498337Y-115105280D01*
X113510160Y-115114048D01*
X113521067Y-115123934D01*
X113530953Y-115134841D01*
X113539721Y-115146664D01*
X113547289Y-115159290D01*
X113553583Y-115172597D01*
X113558542Y-115186457D01*
X113562119Y-115200736D01*
X113564279Y-115215297D01*
X113565001Y-115230000D01*
X113565001Y-115630000D01*
X113564279Y-115644703D01*
X113562119Y-115659264D01*
X113558542Y-115673543D01*
X113553583Y-115687403D01*
X113547289Y-115700710D01*
X113539721Y-115713336D01*
X113530953Y-115725159D01*
X113521067Y-115736066D01*
X113510160Y-115745952D01*
X113498337Y-115754720D01*
X113485711Y-115762288D01*
X113472404Y-115768582D01*
X113458544Y-115773541D01*
X113444265Y-115777118D01*
X113429704Y-115779278D01*
X113415001Y-115780000D01*
X113414999Y-115780000D01*
X113400296Y-115779278D01*
X113385735Y-115777118D01*
X113371456Y-115773541D01*
X113357596Y-115768582D01*
X113344289Y-115762288D01*
X113331663Y-115754720D01*
X113319840Y-115745952D01*
X113308933Y-115736066D01*
X113299047Y-115725159D01*
X113290279Y-115713336D01*
X113282711Y-115700710D01*
X113276417Y-115687403D01*
X113271458Y-115673543D01*
X113267881Y-115659264D01*
X113265721Y-115644703D01*
X113264999Y-115630000D01*
X113264999Y-115230000D01*
X113265721Y-115215297D01*
X113267881Y-115200736D01*
X113271458Y-115186457D01*
X113276417Y-115172597D01*
X113282711Y-115159290D01*
X113290279Y-115146664D01*
X113299047Y-115134841D01*
X113308933Y-115123934D01*
X113319840Y-115114048D01*
X113331663Y-115105280D01*
X113344289Y-115097712D01*
X113357596Y-115091418D01*
X113371456Y-115086459D01*
X113385735Y-115082882D01*
X113400296Y-115080722D01*
X113414999Y-115080000D01*
X113415001Y-115080000D01*
X113429704Y-115080722D01*
X113429704Y-115080722D01*
G37*
D19*
X113415000Y-115430000D03*
D17*
G36*
X112929704Y-115080722D02*
G01*
X112944265Y-115082882D01*
X112958544Y-115086459D01*
X112972404Y-115091418D01*
X112985711Y-115097712D01*
X112998337Y-115105280D01*
X113010160Y-115114048D01*
X113021067Y-115123934D01*
X113030953Y-115134841D01*
X113039721Y-115146664D01*
X113047289Y-115159290D01*
X113053583Y-115172597D01*
X113058542Y-115186457D01*
X113062119Y-115200736D01*
X113064279Y-115215297D01*
X113065001Y-115230000D01*
X113065001Y-115630000D01*
X113064279Y-115644703D01*
X113062119Y-115659264D01*
X113058542Y-115673543D01*
X113053583Y-115687403D01*
X113047289Y-115700710D01*
X113039721Y-115713336D01*
X113030953Y-115725159D01*
X113021067Y-115736066D01*
X113010160Y-115745952D01*
X112998337Y-115754720D01*
X112985711Y-115762288D01*
X112972404Y-115768582D01*
X112958544Y-115773541D01*
X112944265Y-115777118D01*
X112929704Y-115779278D01*
X112915001Y-115780000D01*
X112914999Y-115780000D01*
X112900296Y-115779278D01*
X112885735Y-115777118D01*
X112871456Y-115773541D01*
X112857596Y-115768582D01*
X112844289Y-115762288D01*
X112831663Y-115754720D01*
X112819840Y-115745952D01*
X112808933Y-115736066D01*
X112799047Y-115725159D01*
X112790279Y-115713336D01*
X112782711Y-115700710D01*
X112776417Y-115687403D01*
X112771458Y-115673543D01*
X112767881Y-115659264D01*
X112765721Y-115644703D01*
X112764999Y-115630000D01*
X112764999Y-115230000D01*
X112765721Y-115215297D01*
X112767881Y-115200736D01*
X112771458Y-115186457D01*
X112776417Y-115172597D01*
X112782711Y-115159290D01*
X112790279Y-115146664D01*
X112799047Y-115134841D01*
X112808933Y-115123934D01*
X112819840Y-115114048D01*
X112831663Y-115105280D01*
X112844289Y-115097712D01*
X112857596Y-115091418D01*
X112871456Y-115086459D01*
X112885735Y-115082882D01*
X112900296Y-115080722D01*
X112914999Y-115080000D01*
X112915001Y-115080000D01*
X112929704Y-115080722D01*
X112929704Y-115080722D01*
G37*
D19*
X112915000Y-115430000D03*
D17*
G36*
X112429704Y-115080722D02*
G01*
X112444265Y-115082882D01*
X112458544Y-115086459D01*
X112472404Y-115091418D01*
X112485711Y-115097712D01*
X112498337Y-115105280D01*
X112510160Y-115114048D01*
X112521067Y-115123934D01*
X112530953Y-115134841D01*
X112539721Y-115146664D01*
X112547289Y-115159290D01*
X112553583Y-115172597D01*
X112558542Y-115186457D01*
X112562119Y-115200736D01*
X112564279Y-115215297D01*
X112565001Y-115230000D01*
X112565001Y-115630000D01*
X112564279Y-115644703D01*
X112562119Y-115659264D01*
X112558542Y-115673543D01*
X112553583Y-115687403D01*
X112547289Y-115700710D01*
X112539721Y-115713336D01*
X112530953Y-115725159D01*
X112521067Y-115736066D01*
X112510160Y-115745952D01*
X112498337Y-115754720D01*
X112485711Y-115762288D01*
X112472404Y-115768582D01*
X112458544Y-115773541D01*
X112444265Y-115777118D01*
X112429704Y-115779278D01*
X112415001Y-115780000D01*
X112414999Y-115780000D01*
X112400296Y-115779278D01*
X112385735Y-115777118D01*
X112371456Y-115773541D01*
X112357596Y-115768582D01*
X112344289Y-115762288D01*
X112331663Y-115754720D01*
X112319840Y-115745952D01*
X112308933Y-115736066D01*
X112299047Y-115725159D01*
X112290279Y-115713336D01*
X112282711Y-115700710D01*
X112276417Y-115687403D01*
X112271458Y-115673543D01*
X112267881Y-115659264D01*
X112265721Y-115644703D01*
X112264999Y-115630000D01*
X112264999Y-115230000D01*
X112265721Y-115215297D01*
X112267881Y-115200736D01*
X112271458Y-115186457D01*
X112276417Y-115172597D01*
X112282711Y-115159290D01*
X112290279Y-115146664D01*
X112299047Y-115134841D01*
X112308933Y-115123934D01*
X112319840Y-115114048D01*
X112331663Y-115105280D01*
X112344289Y-115097712D01*
X112357596Y-115091418D01*
X112371456Y-115086459D01*
X112385735Y-115082882D01*
X112400296Y-115080722D01*
X112414999Y-115080000D01*
X112415001Y-115080000D01*
X112429704Y-115080722D01*
X112429704Y-115080722D01*
G37*
D19*
X112415000Y-115430000D03*
D17*
G36*
X111929704Y-115080722D02*
G01*
X111944265Y-115082882D01*
X111958544Y-115086459D01*
X111972404Y-115091418D01*
X111985711Y-115097712D01*
X111998337Y-115105280D01*
X112010160Y-115114048D01*
X112021067Y-115123934D01*
X112030953Y-115134841D01*
X112039721Y-115146664D01*
X112047289Y-115159290D01*
X112053583Y-115172597D01*
X112058542Y-115186457D01*
X112062119Y-115200736D01*
X112064279Y-115215297D01*
X112065001Y-115230000D01*
X112065001Y-115630000D01*
X112064279Y-115644703D01*
X112062119Y-115659264D01*
X112058542Y-115673543D01*
X112053583Y-115687403D01*
X112047289Y-115700710D01*
X112039721Y-115713336D01*
X112030953Y-115725159D01*
X112021067Y-115736066D01*
X112010160Y-115745952D01*
X111998337Y-115754720D01*
X111985711Y-115762288D01*
X111972404Y-115768582D01*
X111958544Y-115773541D01*
X111944265Y-115777118D01*
X111929704Y-115779278D01*
X111915001Y-115780000D01*
X111914999Y-115780000D01*
X111900296Y-115779278D01*
X111885735Y-115777118D01*
X111871456Y-115773541D01*
X111857596Y-115768582D01*
X111844289Y-115762288D01*
X111831663Y-115754720D01*
X111819840Y-115745952D01*
X111808933Y-115736066D01*
X111799047Y-115725159D01*
X111790279Y-115713336D01*
X111782711Y-115700710D01*
X111776417Y-115687403D01*
X111771458Y-115673543D01*
X111767881Y-115659264D01*
X111765721Y-115644703D01*
X111764999Y-115630000D01*
X111764999Y-115230000D01*
X111765721Y-115215297D01*
X111767881Y-115200736D01*
X111771458Y-115186457D01*
X111776417Y-115172597D01*
X111782711Y-115159290D01*
X111790279Y-115146664D01*
X111799047Y-115134841D01*
X111808933Y-115123934D01*
X111819840Y-115114048D01*
X111831663Y-115105280D01*
X111844289Y-115097712D01*
X111857596Y-115091418D01*
X111871456Y-115086459D01*
X111885735Y-115082882D01*
X111900296Y-115080722D01*
X111914999Y-115080000D01*
X111915001Y-115080000D01*
X111929704Y-115080722D01*
X111929704Y-115080722D01*
G37*
D19*
X111915000Y-115430000D03*
D17*
G36*
X116279703Y-111130721D02*
G01*
X116294264Y-111132881D01*
X116308543Y-111136458D01*
X116322403Y-111141417D01*
X116335710Y-111147711D01*
X116348336Y-111155279D01*
X116360159Y-111164047D01*
X116371066Y-111173933D01*
X116380952Y-111184840D01*
X116389720Y-111196663D01*
X116397288Y-111209289D01*
X116403582Y-111222596D01*
X116408541Y-111236456D01*
X116412118Y-111250735D01*
X116414278Y-111265296D01*
X116415000Y-111279999D01*
X116415000Y-111280001D01*
X116414278Y-111294704D01*
X116412118Y-111309265D01*
X116408541Y-111323544D01*
X116403582Y-111337404D01*
X116397288Y-111350711D01*
X116389720Y-111363337D01*
X116380952Y-111375160D01*
X116371066Y-111386067D01*
X116360159Y-111395953D01*
X116348336Y-111404721D01*
X116335710Y-111412289D01*
X116322403Y-111418583D01*
X116308543Y-111423542D01*
X116294264Y-111427119D01*
X116279703Y-111429279D01*
X116265000Y-111430001D01*
X115865000Y-111430001D01*
X115850297Y-111429279D01*
X115835736Y-111427119D01*
X115821457Y-111423542D01*
X115807597Y-111418583D01*
X115794290Y-111412289D01*
X115781664Y-111404721D01*
X115769841Y-111395953D01*
X115758934Y-111386067D01*
X115749048Y-111375160D01*
X115740280Y-111363337D01*
X115732712Y-111350711D01*
X115726418Y-111337404D01*
X115721459Y-111323544D01*
X115717882Y-111309265D01*
X115715722Y-111294704D01*
X115715000Y-111280001D01*
X115715000Y-111279999D01*
X115715722Y-111265296D01*
X115717882Y-111250735D01*
X115721459Y-111236456D01*
X115726418Y-111222596D01*
X115732712Y-111209289D01*
X115740280Y-111196663D01*
X115749048Y-111184840D01*
X115758934Y-111173933D01*
X115769841Y-111164047D01*
X115781664Y-111155279D01*
X115794290Y-111147711D01*
X115807597Y-111141417D01*
X115821457Y-111136458D01*
X115835736Y-111132881D01*
X115850297Y-111130721D01*
X115865000Y-111129999D01*
X116265000Y-111129999D01*
X116279703Y-111130721D01*
X116279703Y-111130721D01*
G37*
D19*
X116065000Y-111280000D03*
D17*
G36*
X116279703Y-111630721D02*
G01*
X116294264Y-111632881D01*
X116308543Y-111636458D01*
X116322403Y-111641417D01*
X116335710Y-111647711D01*
X116348336Y-111655279D01*
X116360159Y-111664047D01*
X116371066Y-111673933D01*
X116380952Y-111684840D01*
X116389720Y-111696663D01*
X116397288Y-111709289D01*
X116403582Y-111722596D01*
X116408541Y-111736456D01*
X116412118Y-111750735D01*
X116414278Y-111765296D01*
X116415000Y-111779999D01*
X116415000Y-111780001D01*
X116414278Y-111794704D01*
X116412118Y-111809265D01*
X116408541Y-111823544D01*
X116403582Y-111837404D01*
X116397288Y-111850711D01*
X116389720Y-111863337D01*
X116380952Y-111875160D01*
X116371066Y-111886067D01*
X116360159Y-111895953D01*
X116348336Y-111904721D01*
X116335710Y-111912289D01*
X116322403Y-111918583D01*
X116308543Y-111923542D01*
X116294264Y-111927119D01*
X116279703Y-111929279D01*
X116265000Y-111930001D01*
X115865000Y-111930001D01*
X115850297Y-111929279D01*
X115835736Y-111927119D01*
X115821457Y-111923542D01*
X115807597Y-111918583D01*
X115794290Y-111912289D01*
X115781664Y-111904721D01*
X115769841Y-111895953D01*
X115758934Y-111886067D01*
X115749048Y-111875160D01*
X115740280Y-111863337D01*
X115732712Y-111850711D01*
X115726418Y-111837404D01*
X115721459Y-111823544D01*
X115717882Y-111809265D01*
X115715722Y-111794704D01*
X115715000Y-111780001D01*
X115715000Y-111779999D01*
X115715722Y-111765296D01*
X115717882Y-111750735D01*
X115721459Y-111736456D01*
X115726418Y-111722596D01*
X115732712Y-111709289D01*
X115740280Y-111696663D01*
X115749048Y-111684840D01*
X115758934Y-111673933D01*
X115769841Y-111664047D01*
X115781664Y-111655279D01*
X115794290Y-111647711D01*
X115807597Y-111641417D01*
X115821457Y-111636458D01*
X115835736Y-111632881D01*
X115850297Y-111630721D01*
X115865000Y-111629999D01*
X116265000Y-111629999D01*
X116279703Y-111630721D01*
X116279703Y-111630721D01*
G37*
D19*
X116065000Y-111780000D03*
D17*
G36*
X116279703Y-112130721D02*
G01*
X116294264Y-112132881D01*
X116308543Y-112136458D01*
X116322403Y-112141417D01*
X116335710Y-112147711D01*
X116348336Y-112155279D01*
X116360159Y-112164047D01*
X116371066Y-112173933D01*
X116380952Y-112184840D01*
X116389720Y-112196663D01*
X116397288Y-112209289D01*
X116403582Y-112222596D01*
X116408541Y-112236456D01*
X116412118Y-112250735D01*
X116414278Y-112265296D01*
X116415000Y-112279999D01*
X116415000Y-112280001D01*
X116414278Y-112294704D01*
X116412118Y-112309265D01*
X116408541Y-112323544D01*
X116403582Y-112337404D01*
X116397288Y-112350711D01*
X116389720Y-112363337D01*
X116380952Y-112375160D01*
X116371066Y-112386067D01*
X116360159Y-112395953D01*
X116348336Y-112404721D01*
X116335710Y-112412289D01*
X116322403Y-112418583D01*
X116308543Y-112423542D01*
X116294264Y-112427119D01*
X116279703Y-112429279D01*
X116265000Y-112430001D01*
X115865000Y-112430001D01*
X115850297Y-112429279D01*
X115835736Y-112427119D01*
X115821457Y-112423542D01*
X115807597Y-112418583D01*
X115794290Y-112412289D01*
X115781664Y-112404721D01*
X115769841Y-112395953D01*
X115758934Y-112386067D01*
X115749048Y-112375160D01*
X115740280Y-112363337D01*
X115732712Y-112350711D01*
X115726418Y-112337404D01*
X115721459Y-112323544D01*
X115717882Y-112309265D01*
X115715722Y-112294704D01*
X115715000Y-112280001D01*
X115715000Y-112279999D01*
X115715722Y-112265296D01*
X115717882Y-112250735D01*
X115721459Y-112236456D01*
X115726418Y-112222596D01*
X115732712Y-112209289D01*
X115740280Y-112196663D01*
X115749048Y-112184840D01*
X115758934Y-112173933D01*
X115769841Y-112164047D01*
X115781664Y-112155279D01*
X115794290Y-112147711D01*
X115807597Y-112141417D01*
X115821457Y-112136458D01*
X115835736Y-112132881D01*
X115850297Y-112130721D01*
X115865000Y-112129999D01*
X116265000Y-112129999D01*
X116279703Y-112130721D01*
X116279703Y-112130721D01*
G37*
D19*
X116065000Y-112280000D03*
D17*
G36*
X116279703Y-112630721D02*
G01*
X116294264Y-112632881D01*
X116308543Y-112636458D01*
X116322403Y-112641417D01*
X116335710Y-112647711D01*
X116348336Y-112655279D01*
X116360159Y-112664047D01*
X116371066Y-112673933D01*
X116380952Y-112684840D01*
X116389720Y-112696663D01*
X116397288Y-112709289D01*
X116403582Y-112722596D01*
X116408541Y-112736456D01*
X116412118Y-112750735D01*
X116414278Y-112765296D01*
X116415000Y-112779999D01*
X116415000Y-112780001D01*
X116414278Y-112794704D01*
X116412118Y-112809265D01*
X116408541Y-112823544D01*
X116403582Y-112837404D01*
X116397288Y-112850711D01*
X116389720Y-112863337D01*
X116380952Y-112875160D01*
X116371066Y-112886067D01*
X116360159Y-112895953D01*
X116348336Y-112904721D01*
X116335710Y-112912289D01*
X116322403Y-112918583D01*
X116308543Y-112923542D01*
X116294264Y-112927119D01*
X116279703Y-112929279D01*
X116265000Y-112930001D01*
X115865000Y-112930001D01*
X115850297Y-112929279D01*
X115835736Y-112927119D01*
X115821457Y-112923542D01*
X115807597Y-112918583D01*
X115794290Y-112912289D01*
X115781664Y-112904721D01*
X115769841Y-112895953D01*
X115758934Y-112886067D01*
X115749048Y-112875160D01*
X115740280Y-112863337D01*
X115732712Y-112850711D01*
X115726418Y-112837404D01*
X115721459Y-112823544D01*
X115717882Y-112809265D01*
X115715722Y-112794704D01*
X115715000Y-112780001D01*
X115715000Y-112779999D01*
X115715722Y-112765296D01*
X115717882Y-112750735D01*
X115721459Y-112736456D01*
X115726418Y-112722596D01*
X115732712Y-112709289D01*
X115740280Y-112696663D01*
X115749048Y-112684840D01*
X115758934Y-112673933D01*
X115769841Y-112664047D01*
X115781664Y-112655279D01*
X115794290Y-112647711D01*
X115807597Y-112641417D01*
X115821457Y-112636458D01*
X115835736Y-112632881D01*
X115850297Y-112630721D01*
X115865000Y-112629999D01*
X116265000Y-112629999D01*
X116279703Y-112630721D01*
X116279703Y-112630721D01*
G37*
D19*
X116065000Y-112780000D03*
D17*
G36*
X116279703Y-113130721D02*
G01*
X116294264Y-113132881D01*
X116308543Y-113136458D01*
X116322403Y-113141417D01*
X116335710Y-113147711D01*
X116348336Y-113155279D01*
X116360159Y-113164047D01*
X116371066Y-113173933D01*
X116380952Y-113184840D01*
X116389720Y-113196663D01*
X116397288Y-113209289D01*
X116403582Y-113222596D01*
X116408541Y-113236456D01*
X116412118Y-113250735D01*
X116414278Y-113265296D01*
X116415000Y-113279999D01*
X116415000Y-113280001D01*
X116414278Y-113294704D01*
X116412118Y-113309265D01*
X116408541Y-113323544D01*
X116403582Y-113337404D01*
X116397288Y-113350711D01*
X116389720Y-113363337D01*
X116380952Y-113375160D01*
X116371066Y-113386067D01*
X116360159Y-113395953D01*
X116348336Y-113404721D01*
X116335710Y-113412289D01*
X116322403Y-113418583D01*
X116308543Y-113423542D01*
X116294264Y-113427119D01*
X116279703Y-113429279D01*
X116265000Y-113430001D01*
X115865000Y-113430001D01*
X115850297Y-113429279D01*
X115835736Y-113427119D01*
X115821457Y-113423542D01*
X115807597Y-113418583D01*
X115794290Y-113412289D01*
X115781664Y-113404721D01*
X115769841Y-113395953D01*
X115758934Y-113386067D01*
X115749048Y-113375160D01*
X115740280Y-113363337D01*
X115732712Y-113350711D01*
X115726418Y-113337404D01*
X115721459Y-113323544D01*
X115717882Y-113309265D01*
X115715722Y-113294704D01*
X115715000Y-113280001D01*
X115715000Y-113279999D01*
X115715722Y-113265296D01*
X115717882Y-113250735D01*
X115721459Y-113236456D01*
X115726418Y-113222596D01*
X115732712Y-113209289D01*
X115740280Y-113196663D01*
X115749048Y-113184840D01*
X115758934Y-113173933D01*
X115769841Y-113164047D01*
X115781664Y-113155279D01*
X115794290Y-113147711D01*
X115807597Y-113141417D01*
X115821457Y-113136458D01*
X115835736Y-113132881D01*
X115850297Y-113130721D01*
X115865000Y-113129999D01*
X116265000Y-113129999D01*
X116279703Y-113130721D01*
X116279703Y-113130721D01*
G37*
D19*
X116065000Y-113280000D03*
D17*
G36*
X116279703Y-113630721D02*
G01*
X116294264Y-113632881D01*
X116308543Y-113636458D01*
X116322403Y-113641417D01*
X116335710Y-113647711D01*
X116348336Y-113655279D01*
X116360159Y-113664047D01*
X116371066Y-113673933D01*
X116380952Y-113684840D01*
X116389720Y-113696663D01*
X116397288Y-113709289D01*
X116403582Y-113722596D01*
X116408541Y-113736456D01*
X116412118Y-113750735D01*
X116414278Y-113765296D01*
X116415000Y-113779999D01*
X116415000Y-113780001D01*
X116414278Y-113794704D01*
X116412118Y-113809265D01*
X116408541Y-113823544D01*
X116403582Y-113837404D01*
X116397288Y-113850711D01*
X116389720Y-113863337D01*
X116380952Y-113875160D01*
X116371066Y-113886067D01*
X116360159Y-113895953D01*
X116348336Y-113904721D01*
X116335710Y-113912289D01*
X116322403Y-113918583D01*
X116308543Y-113923542D01*
X116294264Y-113927119D01*
X116279703Y-113929279D01*
X116265000Y-113930001D01*
X115865000Y-113930001D01*
X115850297Y-113929279D01*
X115835736Y-113927119D01*
X115821457Y-113923542D01*
X115807597Y-113918583D01*
X115794290Y-113912289D01*
X115781664Y-113904721D01*
X115769841Y-113895953D01*
X115758934Y-113886067D01*
X115749048Y-113875160D01*
X115740280Y-113863337D01*
X115732712Y-113850711D01*
X115726418Y-113837404D01*
X115721459Y-113823544D01*
X115717882Y-113809265D01*
X115715722Y-113794704D01*
X115715000Y-113780001D01*
X115715000Y-113779999D01*
X115715722Y-113765296D01*
X115717882Y-113750735D01*
X115721459Y-113736456D01*
X115726418Y-113722596D01*
X115732712Y-113709289D01*
X115740280Y-113696663D01*
X115749048Y-113684840D01*
X115758934Y-113673933D01*
X115769841Y-113664047D01*
X115781664Y-113655279D01*
X115794290Y-113647711D01*
X115807597Y-113641417D01*
X115821457Y-113636458D01*
X115835736Y-113632881D01*
X115850297Y-113630721D01*
X115865000Y-113629999D01*
X116265000Y-113629999D01*
X116279703Y-113630721D01*
X116279703Y-113630721D01*
G37*
D19*
X116065000Y-113780000D03*
D17*
G36*
X116279703Y-114130721D02*
G01*
X116294264Y-114132881D01*
X116308543Y-114136458D01*
X116322403Y-114141417D01*
X116335710Y-114147711D01*
X116348336Y-114155279D01*
X116360159Y-114164047D01*
X116371066Y-114173933D01*
X116380952Y-114184840D01*
X116389720Y-114196663D01*
X116397288Y-114209289D01*
X116403582Y-114222596D01*
X116408541Y-114236456D01*
X116412118Y-114250735D01*
X116414278Y-114265296D01*
X116415000Y-114279999D01*
X116415000Y-114280001D01*
X116414278Y-114294704D01*
X116412118Y-114309265D01*
X116408541Y-114323544D01*
X116403582Y-114337404D01*
X116397288Y-114350711D01*
X116389720Y-114363337D01*
X116380952Y-114375160D01*
X116371066Y-114386067D01*
X116360159Y-114395953D01*
X116348336Y-114404721D01*
X116335710Y-114412289D01*
X116322403Y-114418583D01*
X116308543Y-114423542D01*
X116294264Y-114427119D01*
X116279703Y-114429279D01*
X116265000Y-114430001D01*
X115865000Y-114430001D01*
X115850297Y-114429279D01*
X115835736Y-114427119D01*
X115821457Y-114423542D01*
X115807597Y-114418583D01*
X115794290Y-114412289D01*
X115781664Y-114404721D01*
X115769841Y-114395953D01*
X115758934Y-114386067D01*
X115749048Y-114375160D01*
X115740280Y-114363337D01*
X115732712Y-114350711D01*
X115726418Y-114337404D01*
X115721459Y-114323544D01*
X115717882Y-114309265D01*
X115715722Y-114294704D01*
X115715000Y-114280001D01*
X115715000Y-114279999D01*
X115715722Y-114265296D01*
X115717882Y-114250735D01*
X115721459Y-114236456D01*
X115726418Y-114222596D01*
X115732712Y-114209289D01*
X115740280Y-114196663D01*
X115749048Y-114184840D01*
X115758934Y-114173933D01*
X115769841Y-114164047D01*
X115781664Y-114155279D01*
X115794290Y-114147711D01*
X115807597Y-114141417D01*
X115821457Y-114136458D01*
X115835736Y-114132881D01*
X115850297Y-114130721D01*
X115865000Y-114129999D01*
X116265000Y-114129999D01*
X116279703Y-114130721D01*
X116279703Y-114130721D01*
G37*
D19*
X116065000Y-114280000D03*
D17*
G36*
X116279703Y-114630721D02*
G01*
X116294264Y-114632881D01*
X116308543Y-114636458D01*
X116322403Y-114641417D01*
X116335710Y-114647711D01*
X116348336Y-114655279D01*
X116360159Y-114664047D01*
X116371066Y-114673933D01*
X116380952Y-114684840D01*
X116389720Y-114696663D01*
X116397288Y-114709289D01*
X116403582Y-114722596D01*
X116408541Y-114736456D01*
X116412118Y-114750735D01*
X116414278Y-114765296D01*
X116415000Y-114779999D01*
X116415000Y-114780001D01*
X116414278Y-114794704D01*
X116412118Y-114809265D01*
X116408541Y-114823544D01*
X116403582Y-114837404D01*
X116397288Y-114850711D01*
X116389720Y-114863337D01*
X116380952Y-114875160D01*
X116371066Y-114886067D01*
X116360159Y-114895953D01*
X116348336Y-114904721D01*
X116335710Y-114912289D01*
X116322403Y-114918583D01*
X116308543Y-114923542D01*
X116294264Y-114927119D01*
X116279703Y-114929279D01*
X116265000Y-114930001D01*
X115865000Y-114930001D01*
X115850297Y-114929279D01*
X115835736Y-114927119D01*
X115821457Y-114923542D01*
X115807597Y-114918583D01*
X115794290Y-114912289D01*
X115781664Y-114904721D01*
X115769841Y-114895953D01*
X115758934Y-114886067D01*
X115749048Y-114875160D01*
X115740280Y-114863337D01*
X115732712Y-114850711D01*
X115726418Y-114837404D01*
X115721459Y-114823544D01*
X115717882Y-114809265D01*
X115715722Y-114794704D01*
X115715000Y-114780001D01*
X115715000Y-114779999D01*
X115715722Y-114765296D01*
X115717882Y-114750735D01*
X115721459Y-114736456D01*
X115726418Y-114722596D01*
X115732712Y-114709289D01*
X115740280Y-114696663D01*
X115749048Y-114684840D01*
X115758934Y-114673933D01*
X115769841Y-114664047D01*
X115781664Y-114655279D01*
X115794290Y-114647711D01*
X115807597Y-114641417D01*
X115821457Y-114636458D01*
X115835736Y-114632881D01*
X115850297Y-114630721D01*
X115865000Y-114629999D01*
X116265000Y-114629999D01*
X116279703Y-114630721D01*
X116279703Y-114630721D01*
G37*
D19*
X116065000Y-114780000D03*
D17*
G36*
X111479703Y-114630721D02*
G01*
X111494264Y-114632881D01*
X111508543Y-114636458D01*
X111522403Y-114641417D01*
X111535710Y-114647711D01*
X111548336Y-114655279D01*
X111560159Y-114664047D01*
X111571066Y-114673933D01*
X111580952Y-114684840D01*
X111589720Y-114696663D01*
X111597288Y-114709289D01*
X111603582Y-114722596D01*
X111608541Y-114736456D01*
X111612118Y-114750735D01*
X111614278Y-114765296D01*
X111615000Y-114779999D01*
X111615000Y-114780001D01*
X111614278Y-114794704D01*
X111612118Y-114809265D01*
X111608541Y-114823544D01*
X111603582Y-114837404D01*
X111597288Y-114850711D01*
X111589720Y-114863337D01*
X111580952Y-114875160D01*
X111571066Y-114886067D01*
X111560159Y-114895953D01*
X111548336Y-114904721D01*
X111535710Y-114912289D01*
X111522403Y-114918583D01*
X111508543Y-114923542D01*
X111494264Y-114927119D01*
X111479703Y-114929279D01*
X111465000Y-114930001D01*
X111065000Y-114930001D01*
X111050297Y-114929279D01*
X111035736Y-114927119D01*
X111021457Y-114923542D01*
X111007597Y-114918583D01*
X110994290Y-114912289D01*
X110981664Y-114904721D01*
X110969841Y-114895953D01*
X110958934Y-114886067D01*
X110949048Y-114875160D01*
X110940280Y-114863337D01*
X110932712Y-114850711D01*
X110926418Y-114837404D01*
X110921459Y-114823544D01*
X110917882Y-114809265D01*
X110915722Y-114794704D01*
X110915000Y-114780001D01*
X110915000Y-114779999D01*
X110915722Y-114765296D01*
X110917882Y-114750735D01*
X110921459Y-114736456D01*
X110926418Y-114722596D01*
X110932712Y-114709289D01*
X110940280Y-114696663D01*
X110949048Y-114684840D01*
X110958934Y-114673933D01*
X110969841Y-114664047D01*
X110981664Y-114655279D01*
X110994290Y-114647711D01*
X111007597Y-114641417D01*
X111021457Y-114636458D01*
X111035736Y-114632881D01*
X111050297Y-114630721D01*
X111065000Y-114629999D01*
X111465000Y-114629999D01*
X111479703Y-114630721D01*
X111479703Y-114630721D01*
G37*
D19*
X111265000Y-114780000D03*
D17*
G36*
X111479703Y-114130721D02*
G01*
X111494264Y-114132881D01*
X111508543Y-114136458D01*
X111522403Y-114141417D01*
X111535710Y-114147711D01*
X111548336Y-114155279D01*
X111560159Y-114164047D01*
X111571066Y-114173933D01*
X111580952Y-114184840D01*
X111589720Y-114196663D01*
X111597288Y-114209289D01*
X111603582Y-114222596D01*
X111608541Y-114236456D01*
X111612118Y-114250735D01*
X111614278Y-114265296D01*
X111615000Y-114279999D01*
X111615000Y-114280001D01*
X111614278Y-114294704D01*
X111612118Y-114309265D01*
X111608541Y-114323544D01*
X111603582Y-114337404D01*
X111597288Y-114350711D01*
X111589720Y-114363337D01*
X111580952Y-114375160D01*
X111571066Y-114386067D01*
X111560159Y-114395953D01*
X111548336Y-114404721D01*
X111535710Y-114412289D01*
X111522403Y-114418583D01*
X111508543Y-114423542D01*
X111494264Y-114427119D01*
X111479703Y-114429279D01*
X111465000Y-114430001D01*
X111065000Y-114430001D01*
X111050297Y-114429279D01*
X111035736Y-114427119D01*
X111021457Y-114423542D01*
X111007597Y-114418583D01*
X110994290Y-114412289D01*
X110981664Y-114404721D01*
X110969841Y-114395953D01*
X110958934Y-114386067D01*
X110949048Y-114375160D01*
X110940280Y-114363337D01*
X110932712Y-114350711D01*
X110926418Y-114337404D01*
X110921459Y-114323544D01*
X110917882Y-114309265D01*
X110915722Y-114294704D01*
X110915000Y-114280001D01*
X110915000Y-114279999D01*
X110915722Y-114265296D01*
X110917882Y-114250735D01*
X110921459Y-114236456D01*
X110926418Y-114222596D01*
X110932712Y-114209289D01*
X110940280Y-114196663D01*
X110949048Y-114184840D01*
X110958934Y-114173933D01*
X110969841Y-114164047D01*
X110981664Y-114155279D01*
X110994290Y-114147711D01*
X111007597Y-114141417D01*
X111021457Y-114136458D01*
X111035736Y-114132881D01*
X111050297Y-114130721D01*
X111065000Y-114129999D01*
X111465000Y-114129999D01*
X111479703Y-114130721D01*
X111479703Y-114130721D01*
G37*
D19*
X111265000Y-114280000D03*
D17*
G36*
X111479703Y-113630721D02*
G01*
X111494264Y-113632881D01*
X111508543Y-113636458D01*
X111522403Y-113641417D01*
X111535710Y-113647711D01*
X111548336Y-113655279D01*
X111560159Y-113664047D01*
X111571066Y-113673933D01*
X111580952Y-113684840D01*
X111589720Y-113696663D01*
X111597288Y-113709289D01*
X111603582Y-113722596D01*
X111608541Y-113736456D01*
X111612118Y-113750735D01*
X111614278Y-113765296D01*
X111615000Y-113779999D01*
X111615000Y-113780001D01*
X111614278Y-113794704D01*
X111612118Y-113809265D01*
X111608541Y-113823544D01*
X111603582Y-113837404D01*
X111597288Y-113850711D01*
X111589720Y-113863337D01*
X111580952Y-113875160D01*
X111571066Y-113886067D01*
X111560159Y-113895953D01*
X111548336Y-113904721D01*
X111535710Y-113912289D01*
X111522403Y-113918583D01*
X111508543Y-113923542D01*
X111494264Y-113927119D01*
X111479703Y-113929279D01*
X111465000Y-113930001D01*
X111065000Y-113930001D01*
X111050297Y-113929279D01*
X111035736Y-113927119D01*
X111021457Y-113923542D01*
X111007597Y-113918583D01*
X110994290Y-113912289D01*
X110981664Y-113904721D01*
X110969841Y-113895953D01*
X110958934Y-113886067D01*
X110949048Y-113875160D01*
X110940280Y-113863337D01*
X110932712Y-113850711D01*
X110926418Y-113837404D01*
X110921459Y-113823544D01*
X110917882Y-113809265D01*
X110915722Y-113794704D01*
X110915000Y-113780001D01*
X110915000Y-113779999D01*
X110915722Y-113765296D01*
X110917882Y-113750735D01*
X110921459Y-113736456D01*
X110926418Y-113722596D01*
X110932712Y-113709289D01*
X110940280Y-113696663D01*
X110949048Y-113684840D01*
X110958934Y-113673933D01*
X110969841Y-113664047D01*
X110981664Y-113655279D01*
X110994290Y-113647711D01*
X111007597Y-113641417D01*
X111021457Y-113636458D01*
X111035736Y-113632881D01*
X111050297Y-113630721D01*
X111065000Y-113629999D01*
X111465000Y-113629999D01*
X111479703Y-113630721D01*
X111479703Y-113630721D01*
G37*
D19*
X111265000Y-113780000D03*
D17*
G36*
X111479703Y-113130721D02*
G01*
X111494264Y-113132881D01*
X111508543Y-113136458D01*
X111522403Y-113141417D01*
X111535710Y-113147711D01*
X111548336Y-113155279D01*
X111560159Y-113164047D01*
X111571066Y-113173933D01*
X111580952Y-113184840D01*
X111589720Y-113196663D01*
X111597288Y-113209289D01*
X111603582Y-113222596D01*
X111608541Y-113236456D01*
X111612118Y-113250735D01*
X111614278Y-113265296D01*
X111615000Y-113279999D01*
X111615000Y-113280001D01*
X111614278Y-113294704D01*
X111612118Y-113309265D01*
X111608541Y-113323544D01*
X111603582Y-113337404D01*
X111597288Y-113350711D01*
X111589720Y-113363337D01*
X111580952Y-113375160D01*
X111571066Y-113386067D01*
X111560159Y-113395953D01*
X111548336Y-113404721D01*
X111535710Y-113412289D01*
X111522403Y-113418583D01*
X111508543Y-113423542D01*
X111494264Y-113427119D01*
X111479703Y-113429279D01*
X111465000Y-113430001D01*
X111065000Y-113430001D01*
X111050297Y-113429279D01*
X111035736Y-113427119D01*
X111021457Y-113423542D01*
X111007597Y-113418583D01*
X110994290Y-113412289D01*
X110981664Y-113404721D01*
X110969841Y-113395953D01*
X110958934Y-113386067D01*
X110949048Y-113375160D01*
X110940280Y-113363337D01*
X110932712Y-113350711D01*
X110926418Y-113337404D01*
X110921459Y-113323544D01*
X110917882Y-113309265D01*
X110915722Y-113294704D01*
X110915000Y-113280001D01*
X110915000Y-113279999D01*
X110915722Y-113265296D01*
X110917882Y-113250735D01*
X110921459Y-113236456D01*
X110926418Y-113222596D01*
X110932712Y-113209289D01*
X110940280Y-113196663D01*
X110949048Y-113184840D01*
X110958934Y-113173933D01*
X110969841Y-113164047D01*
X110981664Y-113155279D01*
X110994290Y-113147711D01*
X111007597Y-113141417D01*
X111021457Y-113136458D01*
X111035736Y-113132881D01*
X111050297Y-113130721D01*
X111065000Y-113129999D01*
X111465000Y-113129999D01*
X111479703Y-113130721D01*
X111479703Y-113130721D01*
G37*
D19*
X111265000Y-113280000D03*
D17*
G36*
X111479703Y-112630721D02*
G01*
X111494264Y-112632881D01*
X111508543Y-112636458D01*
X111522403Y-112641417D01*
X111535710Y-112647711D01*
X111548336Y-112655279D01*
X111560159Y-112664047D01*
X111571066Y-112673933D01*
X111580952Y-112684840D01*
X111589720Y-112696663D01*
X111597288Y-112709289D01*
X111603582Y-112722596D01*
X111608541Y-112736456D01*
X111612118Y-112750735D01*
X111614278Y-112765296D01*
X111615000Y-112779999D01*
X111615000Y-112780001D01*
X111614278Y-112794704D01*
X111612118Y-112809265D01*
X111608541Y-112823544D01*
X111603582Y-112837404D01*
X111597288Y-112850711D01*
X111589720Y-112863337D01*
X111580952Y-112875160D01*
X111571066Y-112886067D01*
X111560159Y-112895953D01*
X111548336Y-112904721D01*
X111535710Y-112912289D01*
X111522403Y-112918583D01*
X111508543Y-112923542D01*
X111494264Y-112927119D01*
X111479703Y-112929279D01*
X111465000Y-112930001D01*
X111065000Y-112930001D01*
X111050297Y-112929279D01*
X111035736Y-112927119D01*
X111021457Y-112923542D01*
X111007597Y-112918583D01*
X110994290Y-112912289D01*
X110981664Y-112904721D01*
X110969841Y-112895953D01*
X110958934Y-112886067D01*
X110949048Y-112875160D01*
X110940280Y-112863337D01*
X110932712Y-112850711D01*
X110926418Y-112837404D01*
X110921459Y-112823544D01*
X110917882Y-112809265D01*
X110915722Y-112794704D01*
X110915000Y-112780001D01*
X110915000Y-112779999D01*
X110915722Y-112765296D01*
X110917882Y-112750735D01*
X110921459Y-112736456D01*
X110926418Y-112722596D01*
X110932712Y-112709289D01*
X110940280Y-112696663D01*
X110949048Y-112684840D01*
X110958934Y-112673933D01*
X110969841Y-112664047D01*
X110981664Y-112655279D01*
X110994290Y-112647711D01*
X111007597Y-112641417D01*
X111021457Y-112636458D01*
X111035736Y-112632881D01*
X111050297Y-112630721D01*
X111065000Y-112629999D01*
X111465000Y-112629999D01*
X111479703Y-112630721D01*
X111479703Y-112630721D01*
G37*
D19*
X111265000Y-112780000D03*
D17*
G36*
X111479703Y-112130721D02*
G01*
X111494264Y-112132881D01*
X111508543Y-112136458D01*
X111522403Y-112141417D01*
X111535710Y-112147711D01*
X111548336Y-112155279D01*
X111560159Y-112164047D01*
X111571066Y-112173933D01*
X111580952Y-112184840D01*
X111589720Y-112196663D01*
X111597288Y-112209289D01*
X111603582Y-112222596D01*
X111608541Y-112236456D01*
X111612118Y-112250735D01*
X111614278Y-112265296D01*
X111615000Y-112279999D01*
X111615000Y-112280001D01*
X111614278Y-112294704D01*
X111612118Y-112309265D01*
X111608541Y-112323544D01*
X111603582Y-112337404D01*
X111597288Y-112350711D01*
X111589720Y-112363337D01*
X111580952Y-112375160D01*
X111571066Y-112386067D01*
X111560159Y-112395953D01*
X111548336Y-112404721D01*
X111535710Y-112412289D01*
X111522403Y-112418583D01*
X111508543Y-112423542D01*
X111494264Y-112427119D01*
X111479703Y-112429279D01*
X111465000Y-112430001D01*
X111065000Y-112430001D01*
X111050297Y-112429279D01*
X111035736Y-112427119D01*
X111021457Y-112423542D01*
X111007597Y-112418583D01*
X110994290Y-112412289D01*
X110981664Y-112404721D01*
X110969841Y-112395953D01*
X110958934Y-112386067D01*
X110949048Y-112375160D01*
X110940280Y-112363337D01*
X110932712Y-112350711D01*
X110926418Y-112337404D01*
X110921459Y-112323544D01*
X110917882Y-112309265D01*
X110915722Y-112294704D01*
X110915000Y-112280001D01*
X110915000Y-112279999D01*
X110915722Y-112265296D01*
X110917882Y-112250735D01*
X110921459Y-112236456D01*
X110926418Y-112222596D01*
X110932712Y-112209289D01*
X110940280Y-112196663D01*
X110949048Y-112184840D01*
X110958934Y-112173933D01*
X110969841Y-112164047D01*
X110981664Y-112155279D01*
X110994290Y-112147711D01*
X111007597Y-112141417D01*
X111021457Y-112136458D01*
X111035736Y-112132881D01*
X111050297Y-112130721D01*
X111065000Y-112129999D01*
X111465000Y-112129999D01*
X111479703Y-112130721D01*
X111479703Y-112130721D01*
G37*
D19*
X111265000Y-112280000D03*
D17*
G36*
X111479703Y-111630721D02*
G01*
X111494264Y-111632881D01*
X111508543Y-111636458D01*
X111522403Y-111641417D01*
X111535710Y-111647711D01*
X111548336Y-111655279D01*
X111560159Y-111664047D01*
X111571066Y-111673933D01*
X111580952Y-111684840D01*
X111589720Y-111696663D01*
X111597288Y-111709289D01*
X111603582Y-111722596D01*
X111608541Y-111736456D01*
X111612118Y-111750735D01*
X111614278Y-111765296D01*
X111615000Y-111779999D01*
X111615000Y-111780001D01*
X111614278Y-111794704D01*
X111612118Y-111809265D01*
X111608541Y-111823544D01*
X111603582Y-111837404D01*
X111597288Y-111850711D01*
X111589720Y-111863337D01*
X111580952Y-111875160D01*
X111571066Y-111886067D01*
X111560159Y-111895953D01*
X111548336Y-111904721D01*
X111535710Y-111912289D01*
X111522403Y-111918583D01*
X111508543Y-111923542D01*
X111494264Y-111927119D01*
X111479703Y-111929279D01*
X111465000Y-111930001D01*
X111065000Y-111930001D01*
X111050297Y-111929279D01*
X111035736Y-111927119D01*
X111021457Y-111923542D01*
X111007597Y-111918583D01*
X110994290Y-111912289D01*
X110981664Y-111904721D01*
X110969841Y-111895953D01*
X110958934Y-111886067D01*
X110949048Y-111875160D01*
X110940280Y-111863337D01*
X110932712Y-111850711D01*
X110926418Y-111837404D01*
X110921459Y-111823544D01*
X110917882Y-111809265D01*
X110915722Y-111794704D01*
X110915000Y-111780001D01*
X110915000Y-111779999D01*
X110915722Y-111765296D01*
X110917882Y-111750735D01*
X110921459Y-111736456D01*
X110926418Y-111722596D01*
X110932712Y-111709289D01*
X110940280Y-111696663D01*
X110949048Y-111684840D01*
X110958934Y-111673933D01*
X110969841Y-111664047D01*
X110981664Y-111655279D01*
X110994290Y-111647711D01*
X111007597Y-111641417D01*
X111021457Y-111636458D01*
X111035736Y-111632881D01*
X111050297Y-111630721D01*
X111065000Y-111629999D01*
X111465000Y-111629999D01*
X111479703Y-111630721D01*
X111479703Y-111630721D01*
G37*
D19*
X111265000Y-111780000D03*
D17*
G36*
X111479703Y-111130721D02*
G01*
X111494264Y-111132881D01*
X111508543Y-111136458D01*
X111522403Y-111141417D01*
X111535710Y-111147711D01*
X111548336Y-111155279D01*
X111560159Y-111164047D01*
X111571066Y-111173933D01*
X111580952Y-111184840D01*
X111589720Y-111196663D01*
X111597288Y-111209289D01*
X111603582Y-111222596D01*
X111608541Y-111236456D01*
X111612118Y-111250735D01*
X111614278Y-111265296D01*
X111615000Y-111279999D01*
X111615000Y-111280001D01*
X111614278Y-111294704D01*
X111612118Y-111309265D01*
X111608541Y-111323544D01*
X111603582Y-111337404D01*
X111597288Y-111350711D01*
X111589720Y-111363337D01*
X111580952Y-111375160D01*
X111571066Y-111386067D01*
X111560159Y-111395953D01*
X111548336Y-111404721D01*
X111535710Y-111412289D01*
X111522403Y-111418583D01*
X111508543Y-111423542D01*
X111494264Y-111427119D01*
X111479703Y-111429279D01*
X111465000Y-111430001D01*
X111065000Y-111430001D01*
X111050297Y-111429279D01*
X111035736Y-111427119D01*
X111021457Y-111423542D01*
X111007597Y-111418583D01*
X110994290Y-111412289D01*
X110981664Y-111404721D01*
X110969841Y-111395953D01*
X110958934Y-111386067D01*
X110949048Y-111375160D01*
X110940280Y-111363337D01*
X110932712Y-111350711D01*
X110926418Y-111337404D01*
X110921459Y-111323544D01*
X110917882Y-111309265D01*
X110915722Y-111294704D01*
X110915000Y-111280001D01*
X110915000Y-111279999D01*
X110915722Y-111265296D01*
X110917882Y-111250735D01*
X110921459Y-111236456D01*
X110926418Y-111222596D01*
X110932712Y-111209289D01*
X110940280Y-111196663D01*
X110949048Y-111184840D01*
X110958934Y-111173933D01*
X110969841Y-111164047D01*
X110981664Y-111155279D01*
X110994290Y-111147711D01*
X111007597Y-111141417D01*
X111021457Y-111136458D01*
X111035736Y-111132881D01*
X111050297Y-111130721D01*
X111065000Y-111129999D01*
X111465000Y-111129999D01*
X111479703Y-111130721D01*
X111479703Y-111130721D01*
G37*
D19*
X111265000Y-111280000D03*
%TD*%
D20*
%TO.C,MDB1*%
X133350000Y-74930000D03*
X130810000Y-74930000D03*
X128270000Y-74930000D03*
X125730000Y-74930000D03*
X123190000Y-74930000D03*
X120650000Y-74930000D03*
X118110000Y-74930000D03*
X115570000Y-74930000D03*
X113030000Y-74930000D03*
X133350000Y-135890000D03*
X130810000Y-135890000D03*
X128270000Y-135890000D03*
X125730000Y-135890000D03*
X123190000Y-135890000D03*
X120650000Y-135890000D03*
X118110000Y-135890000D03*
X115570000Y-135890000D03*
X113030000Y-135890000D03*
D21*
X165100000Y-74930000D03*
X165100000Y-135890000D03*
X73660000Y-130810000D03*
X73660000Y-80010000D03*
D20*
X72390000Y-135890000D03*
X74930000Y-135890000D03*
X77470000Y-135890000D03*
X80010000Y-135890000D03*
X82550000Y-135890000D03*
X85090000Y-135890000D03*
X87630000Y-135890000D03*
X90170000Y-135890000D03*
X92710000Y-135890000D03*
X95250000Y-135890000D03*
X97790000Y-135890000D03*
X100330000Y-135890000D03*
X102870000Y-135890000D03*
X105410000Y-135890000D03*
X107950000Y-135890000D03*
X110490000Y-135890000D03*
X110490000Y-74930000D03*
X107950000Y-74930000D03*
X105410000Y-74930000D03*
X102870000Y-74930000D03*
X100330000Y-74930000D03*
X97790000Y-74930000D03*
X95250000Y-74930000D03*
X92710000Y-74930000D03*
X90170000Y-74930000D03*
X87630000Y-74930000D03*
X85090000Y-74930000D03*
X82550000Y-74930000D03*
X80010000Y-74930000D03*
D22*
X72390000Y-74930000D03*
D20*
X77470000Y-74930000D03*
X74930000Y-74930000D03*
%TD*%
D23*
%TO.C,CLK1*%
X130370000Y-110490000D03*
X130370000Y-115570000D03*
X126170000Y-115570000D03*
X126170000Y-110490000D03*
%TD*%
D24*
%TO.C,P1*%
X186131200Y-109905800D03*
X186131200Y-100914200D03*
D25*
X179146200Y-105410000D03*
D26*
X184632600Y-105410000D03*
D27*
X188137800Y-105410000D03*
%TD*%
D28*
%TO.C,REG1*%
X73660000Y-123190000D03*
X78740000Y-123190000D03*
X76200000Y-123190000D03*
%TD*%
D29*
%TO.C,U4*%
X163800000Y-98745000D03*
X163800000Y-100645000D03*
X166400000Y-100645000D03*
X166400000Y-99695000D03*
X166400000Y-98745000D03*
%TD*%
%TO.C,U7*%
X130780000Y-98745000D03*
X130780000Y-100645000D03*
X133380000Y-100645000D03*
X133380000Y-99695000D03*
X133380000Y-98745000D03*
%TD*%
%TO.C,U10*%
X97760000Y-98745000D03*
X97760000Y-100645000D03*
X100360000Y-100645000D03*
X100360000Y-99695000D03*
X100360000Y-98745000D03*
%TD*%
D30*
%TO.C,T1*%
X172720000Y-83820000D03*
X157480000Y-83820000D03*
X162560000Y-83820000D03*
X167640000Y-83820000D03*
%TD*%
D31*
%TO.C,T2*%
X170815000Y-123825000D03*
X159385000Y-123825000D03*
X163195000Y-123825000D03*
X167005000Y-123825000D03*
%TD*%
D30*
%TO.C,T3*%
X139700000Y-83820000D03*
X124460000Y-83820000D03*
X129540000Y-83820000D03*
X134620000Y-83820000D03*
%TD*%
D31*
%TO.C,T4*%
X137795000Y-123825000D03*
X126365000Y-123825000D03*
X130175000Y-123825000D03*
X133985000Y-123825000D03*
%TD*%
D30*
%TO.C,T5*%
X106680000Y-83820000D03*
X91440000Y-83820000D03*
X96520000Y-83820000D03*
X101600000Y-83820000D03*
%TD*%
D31*
%TO.C,T6*%
X104775000Y-123825000D03*
X93345000Y-123825000D03*
X97155000Y-123825000D03*
X100965000Y-123825000D03*
%TD*%
D32*
%TO.C,U2*%
X116520000Y-102840000D03*
X114620000Y-102840000D03*
X114620000Y-105440000D03*
X115570000Y-105440000D03*
X116520000Y-105440000D03*
%TD*%
D33*
%TO.C,U3*%
X74725000Y-104775000D03*
X74725000Y-103505000D03*
X74725000Y-102235000D03*
X74725000Y-100965000D03*
X74725000Y-99695000D03*
X74725000Y-98425000D03*
X74725000Y-97155000D03*
X74725000Y-95885000D03*
X74725000Y-94615000D03*
X74725000Y-93345000D03*
X84025000Y-93345000D03*
X84025000Y-94615000D03*
X84025000Y-95885000D03*
X84025000Y-97155000D03*
X84025000Y-98425000D03*
X84025000Y-99695000D03*
X84025000Y-100965000D03*
X84025000Y-102235000D03*
X84025000Y-103505000D03*
X84025000Y-104775000D03*
%TD*%
D34*
%TO.C,U6*%
X163195000Y-132330000D03*
X164465000Y-132330000D03*
X165735000Y-132330000D03*
X167005000Y-132330000D03*
X167005000Y-126750000D03*
X165735000Y-126750000D03*
X164465000Y-126750000D03*
X163195000Y-126750000D03*
%TD*%
%TO.C,U9*%
X130175000Y-132330000D03*
X131445000Y-132330000D03*
X132715000Y-132330000D03*
X133985000Y-132330000D03*
X133985000Y-126750000D03*
X132715000Y-126750000D03*
X131445000Y-126750000D03*
X130175000Y-126750000D03*
%TD*%
%TO.C,U12*%
X97155000Y-132330000D03*
X98425000Y-132330000D03*
X99695000Y-132330000D03*
X100965000Y-132330000D03*
X100965000Y-126750000D03*
X99695000Y-126750000D03*
X98425000Y-126750000D03*
X97155000Y-126750000D03*
%TD*%
M02*
