M48
; DRILL file {KiCad 5.1.0-unknown-e90452d~82~ubuntu18.04.1} date Thu 11 Apr 2019 02:53:54 PM EDT
; FORMAT={-:-/ absolute / metric / decimal}
; #@! TF.CreationDate,2019-04-11T14:53:54-04:00
; #@! TF.GenerationSoftware,Kicad,Pcbnew,5.1.0-unknown-e90452d~82~ubuntu18.04.1
FMAT,2
METRIC
T1C0.635
T2C0.991
T3C1.092
T4C1.200
T5C1.400
T6C1.500
T7C1.549
T8C1.600
T9C2.692
T10C3.150
T11C3.302
%
G90
G05
T1
X76.287Y-100.799
X76.402Y-101.805
X76.415Y-97.873
X77.329Y-96.0
X85.614Y-98.509
X85.983Y-94.323
X87.535Y-99.26
X89.99Y-114.957
X90.133Y-110.881
X91.549Y-117.19
X91.774Y-120.126
X96.184Y-101.11
X98.335Y-101.535
X102.636Y-102.156
X109.629Y-102.156
X110.536Y-115.401
X111.035Y-119.471
X111.672Y-118.398
X112.324Y-117.579
X113.729Y-101.35
X114.228Y-109.347
X114.949Y-116.331
X115.293Y-109.197
X116.636Y-116.495
X116.967Y-111.78
X117.307Y-120.378
X118.32Y-115.991
X119.096Y-109.027
X119.517Y-107.775
X119.527Y-120.925
X120.242Y-109.027
X120.837Y-91.905
X123.114Y-110.138
X123.313Y-130.368
X131.816Y-130.368
X139.528Y-123.434
X143.756Y-110.138
X146.578Y-101.081
X157.183Y-124.03
T2
X73.66Y-123.19
X76.2Y-123.19
X78.74Y-123.19
T3
X72.39Y-74.93
X72.39Y-135.89
X74.93Y-74.93
X74.93Y-135.89
X77.47Y-74.93
X77.47Y-135.89
X80.01Y-74.93
X80.01Y-135.89
X82.55Y-74.93
X82.55Y-135.89
X85.09Y-74.93
X85.09Y-135.89
X87.63Y-74.93
X87.63Y-135.89
X90.17Y-74.93
X90.17Y-135.89
X92.71Y-74.93
X92.71Y-135.89
X95.25Y-74.93
X95.25Y-135.89
X97.79Y-74.93
X97.79Y-135.89
X100.33Y-74.93
X100.33Y-135.89
X102.87Y-74.93
X102.87Y-135.89
X105.41Y-74.93
X105.41Y-135.89
X107.95Y-74.93
X107.95Y-135.89
X110.49Y-74.93
X110.49Y-135.89
X113.03Y-74.93
X113.03Y-135.89
X115.57Y-74.93
X115.57Y-135.89
X118.11Y-74.93
X118.11Y-135.89
X120.65Y-74.93
X120.65Y-135.89
X123.19Y-74.93
X123.19Y-135.89
X125.73Y-74.93
X125.73Y-135.89
X128.27Y-74.93
X128.27Y-135.89
X130.81Y-74.93
X130.81Y-135.89
X133.35Y-74.93
X133.35Y-135.89
T4
X126.365Y-123.825
X130.175Y-123.825
X133.985Y-123.825
X137.795Y-123.825
X93.345Y-123.825
X97.155Y-123.825
X100.965Y-123.825
X104.775Y-123.825
X159.385Y-123.825
X163.195Y-123.825
X167.005Y-123.825
X170.815Y-123.825
T5
X124.46Y-83.82
X129.54Y-83.82
X134.62Y-83.82
X139.7Y-83.82
X157.48Y-83.82
X162.56Y-83.82
X167.64Y-83.82
X172.72Y-83.82
X91.44Y-83.82
X96.52Y-83.82
X101.6Y-83.82
X106.68Y-83.82
T6
X113.665Y-113.03
T7
X123.19Y-92.71
X123.19Y-105.41
X125.73Y-92.71
X125.73Y-105.41
X128.27Y-92.71
X128.27Y-105.41
X130.81Y-92.71
X130.81Y-105.41
X133.35Y-92.71
X133.35Y-105.41
X135.89Y-92.71
X135.89Y-105.41
X138.43Y-92.71
X138.43Y-105.41
X140.97Y-92.71
X140.97Y-105.41
X156.21Y-92.71
X156.21Y-105.41
X158.75Y-92.71
X158.75Y-105.41
X161.29Y-92.71
X161.29Y-105.41
X163.83Y-92.71
X163.83Y-105.41
X166.37Y-92.71
X166.37Y-105.41
X168.91Y-92.71
X168.91Y-105.41
X171.45Y-92.71
X171.45Y-105.41
X173.99Y-92.71
X173.99Y-105.41
X90.17Y-92.71
X90.17Y-105.41
X92.71Y-92.71
X92.71Y-105.41
X95.25Y-92.71
X95.25Y-105.41
X97.79Y-92.71
X97.79Y-105.41
X100.33Y-92.71
X100.33Y-105.41
X102.87Y-92.71
X102.87Y-105.41
X105.41Y-92.71
X105.41Y-105.41
X107.95Y-92.71
X107.95Y-105.41
T8
X188.138Y-105.41
T9
X185.141Y-105.41
X186.131Y-100.914
X186.131Y-109.906
T10
X179.146Y-105.41
T11
X73.66Y-80.01
X73.66Y-130.81
X165.1Y-74.93
X165.1Y-135.89
T0
M30
